<svg width="1134" height="454" xmlns="http://www.w3.org/2000/svg" xmlns:xlink="http://www.w3.org/1999/xlink" overflow="hidden"><defs><clipPath id="clip0"><path d="M0 0 1134 0 1134 454 0 454Z" fill-rule="evenodd" clip-rule="evenodd"/></clipPath></defs><g clip-path="url(#clip0)"><rect x="0" y="0" width="1134" height="453.567" fill="#FFFFFF" transform="scale(1 1.00096)"/><text font-family="Anonymous Pro,Anonymous Pro_MSFontService,sans-serif" font-style="italic" font-weight="400" font-size="72" transform="matrix(1 0 0 1.00096 435.647 219)">YANTRA<tspan x="0" y="85.9179">MULTIPHYSICS</tspan><tspan font-style="normal" font-size="21" x="3.81558" y="116.888">A lattice Boltzmann method based Multiphysics </tspan><tspan font-style="normal" font-size="21" x="3.81558" y="142.863">simulator for pore</tspan><tspan font-style="normal" font-size="21" x="213.846" y="142.863">-</tspan><tspan font-style="normal" font-size="21" x="225.515" y="142.863">scale and multiscale processes</tspan></text><path d="M12.9474 4.81475C10.3898 5.05541 7.36878 3.89511 4.31579 4.81475 3.36178 5.10204 2.05028 6.60786 1.4386 7.22201 1.27865 7.70355 1.09197 8.17668 0.958989 8.66641 0.61214 9.94317 0 12.5181 0 12.5181 0.159945 16.2094 0.250112 19.9043 0.479608 23.592 0.570001 25.0425 0.958989 26.4719 0.958989 27.9252 0.958989 31.7803 0.639326 35.6287 0.479608 39.4804 0.79927 42.0483 1.05618 44.6245 1.4386 47.1837 1.53647 47.8381 1.62346 48.5178 1.9182 49.1097 2.2757 49.8273 2.87719 50.3937 3.3568 51.0356 3.60034 52.0144 3.90256 53.4376 4.31579 54.4057 4.59739 55.0654 4.95511 55.6898 5.27478 56.3317 5.51401 57.5322 5.70726 59.0196 6.23399 60.1833 6.82552 61.4901 7.62093 62.7025 8.15197 64.0352 8.47163 64.8377 8.6932 65.6871 9.11118 66.4425 10.1064 68.2411 12.7419 70.5694 13.9064 71.7386 16.0749 73.9159 13.3654 71.2861 16.7835 74.146 18.5914 75.6587 16.7958 74.8389 19.6607 76.0718 20.8105 76.5665 21.8007 76.6859 23.0175 77.0349 24.0594 77.3337 25.2982 77.9038 26.3743 77.9977 29.404 78.2623 32.4484 78.3187 35.4853 78.4793 38.4402 79.4678 35.4307 78.5566 40.2807 79.4421 40.9291 79.5604 41.5596 79.7631 42.1989 79.9237 43.4775 79.6027 44.8425 79.524 46.0351 78.9606 47.5994 78.2213 48.9678 77.1133 50.3509 76.0718 50.9902 75.5902 51.5543 74.9863 52.2691 74.6274 54.6977 73.4082 56.75 73.4855 59.462 73.183 64.9688 71.8011 58.182 73.7337 62.8186 71.7386 63.4244 71.4779 64.0975 71.4176 64.7368 71.2572 65.3762 70.7757 66.0411 70.3267 66.655 69.8128 67.0023 69.5221 67.2522 69.122 67.614 68.8498 68.5361 68.1553 69.5322 67.5659 70.4912 66.924L71.9298 65.961C73.0829 64.2243 73.795 62.9468 75.766 61.6278 76.2456 61.3068 76.6892 60.9237 77.2046 60.6649 77.6568 60.4379 78.1636 60.3439 78.6432 60.1833 79.1228 59.5414 79.5168 58.8249 80.0818 58.2576 80.4893 57.8484 81.2007 57.7761 81.5204 57.2945 81.886 56.7441 81.84 56.0107 82 55.3688 81.7059 51.8272 81.7904 50.194 81.041 47.1837 80.9184 46.6913 80.7213 46.2209 80.5614 45.7393 79.7431 39.9901 80.5584 44.2851 79.6024 40.9248 79.4214 40.2886 79.3824 39.6071 79.1228 38.9989 78.8958 38.467 78.4216 38.0719 78.1638 37.5545 77.9377 37.1004 77.9647 36.5322 77.6842 36.1101 77.3081 35.5434 76.7252 35.1472 76.2456 34.6657 75.8557 33.4912 75.7363 32.7099 74.807 31.7768 74.3994 31.3676 73.848 31.1349 73.3684 30.814 73.0487 30.3324 72.6672 29.8871 72.4094 29.3696 72.1833 28.9156 72.1899 28.3603 71.9298 27.9252 71.6971 27.536 71.2533 27.3165 70.9708 26.9621 70.6108 26.5101 70.3467 25.9885 70.0116 25.5177 69.5469 24.8649 69.0313 24.2494 68.573 23.592 67.5966 22.1912 67.0023 20.7894 65.6958 19.7401 65.2459 19.3786 64.7368 19.0982 64.2572 18.7772 63.7776 18.1353 63.3839 17.4188 62.8186 16.8513 62.4111 16.4421 61.7876 16.2976 61.38 15.8884 57.8112 12.3052 61.8932 15.2688 58.5028 12.9996 57.3585 9.55148 58.9944 13.4955 56.5849 10.5924 56.1272 10.041 56.091 9.21142 55.6256 8.66641 54.8887 7.80318 53.1886 6.99773 52.2691 6.25915 51.9159 5.9755 51.5924 5.65068 51.3098 5.29607 50.9499 4.84432 50.8305 4.17262 50.3509 3.85166 49.8024 3.48453 49.072 3.53071 48.4327 3.37035 47.6354 2.56967 47.1243 1.93049 46.0351 1.4444 45.1112 1.03224 44.1169 0.802496 43.1579 0.481543L41.7193 0 34.5263 0.481543C32.925 0.610061 31.3186 0.717652 29.7309 0.962859 29.2314 1.03997 28.7828 1.32134 28.2923 1.4444 27.5017 1.64298 26.6811 1.71054 25.8947 1.92595 24.9194 2.19299 24.0182 2.74527 23.0175 2.8888 21.8986 3.04939 20.7756 3.18383 19.6607 3.37035 16.9668 3.82118 15.5049 4.57409 12.9474 4.81475Z" fill="#B4C7E7" fill-rule="evenodd" transform="matrix(1 0 -0 1.00096 173 202)"/><path d="M69.7199 2.06685C68.2971 1.27027 67.4998 1.79048 66.3999 1.58908 65.7586 1.47167 65.1471 1.21089 64.5029 1.11109 63.0879 0.891629 61.6534 0.823668 60.2343 0.633104 59.2811 0.505084 58.3371 0.31452 57.3886 0.155341 56.4495 0.174533 38.9043-0.591334 31.3028 1.11109 30.8148 1.22037 30.3543 1.42968 29.88 1.58908 29.5638 2.06707 29.2143 2.52406 28.9315 3.02282 28.5806 3.64125 28.4168 4.3719 27.9828 4.93433 27.2964 5.82348 26.2823 6.42294 25.6114 7.32405 25.1371 7.96122 24.7886 8.71715 24.1886 9.23556 23.6517 9.69932 22.8435 9.74651 22.2913 10.1915 19.8476 12.1615 19.9527 13.1087 17.5486 14.4928 17.1146 14.7427 16.6001 14.8113 16.1258 14.9705 13.3657 17.7518 17.3443 13.8678 13.7542 16.8823 11.3855 18.8712 13.4091 17.9538 10.9085 18.794 8.20506 21.5181 10.4449 18.7694 9.0115 22.1392 8.33121 23.7387 6.82635 24.3655 6.16578 25.9627 3.93134 31.3664 6.00333 28.9941 3.79421 31.2197 3.41037 33.9282 3.48499 34.2229 2.84571 36.4767 2.70836 36.961 2.56831 37.4473 2.37135 37.9104-0.123015 43.7752 2.8558 36.4566 0.47436 41.2559 0.250736 41.7065 0.158195 42.2116 0 42.6896 0.158195 47.628 0.186428 52.5725 0.47436 57.505 0.503713 58.0078 0.81114 58.4544 0.948496 58.9388 1.39126 60.5005 1.3516 61.3919 2.37135 62.762 2.908 63.4829 4.26857 64.6737 4.26857 64.6737 5.11197 67.2228 4.05772 65.3107 6.16578 66.5852 7.13758 67.1727 7.79277 68.8277 8.53714 69.4527 8.9212 69.7751 9.51275 69.7054 9.95999 69.9307 13.3809 71.6541 9.12443 70.1673 13.2801 71.8424 14.2084 72.2166 15.2315 72.3475 16.1258 72.7982 20.7132 75.1096 16.0738 72.5202 18.9715 74.7099 19.8835 75.3992 20.9052 75.9321 21.8172 76.6214 22.8934 77.4347 24.2475 78.6363 25.6114 79.0111 26.6899 79.3076 27.8326 79.2814 28.9315 79.4889 30.3642 79.7596 31.7707 80.1568 33.2001 80.4449 34.1429 80.635 35.0973 80.7635 36.0458 80.9227 37.4686 80.7635 38.9195 80.7693 40.3143 80.4449 41.0031 80.2846 41.5494 79.7391 42.2113 79.4889 42.8217 79.2584 43.4762 79.1703 44.1085 79.0111 47.0909 77.0073 43.8921 78.9242 49.3256 77.0994L52.1713 76.1437C55.0648 74.1996 53.0846 75.4444 58.3371 72.7982 58.9694 72.4796 59.5484 72.0152 60.2343 71.8424L64.0285 70.8865C64.6609 70.7271 65.2865 70.5376 65.9257 70.4087L68.2971 69.9307C68.7715 69.6121 69.2561 69.3089 69.7199 68.975 70.3633 68.5121 70.9308 67.9363 71.6172 67.5412 72.0512 67.2913 72.5928 67.2886 73.04 67.0632 73.5498 66.8063 73.9885 66.4261 74.4629 66.1075 76.5597 61.881 75.3598 63.2915 77.3086 61.3283 77.6812 59.0742 77.6909 58.5457 78.2571 56.549 78.3944 56.0647 78.5345 55.5784 78.7315 55.1153 79.01 54.4605 79.4014 53.8586 79.6799 53.2038 79.8769 52.7407 79.9307 52.2207 80.1543 51.7701 80.4093 51.2564 80.8713 50.8613 81.1028 50.3363 82.0042 48.2923 81.9738 47.5031 82.5257 45.5571 82.663 45.0728 82.8418 44.6013 83 44.1234 82.8418 39.9815 82.9218 35.8235 82.5257 31.6977 82.4436 30.8437 81.8761 30.1113 81.5772 29.3079 80.7358 27.0471 81.5931 28.6152 80.1543 26.4405 79.9961 25.6439 79.8126 24.8523 79.6799 24.051 79.4962 22.9399 79.4247 21.81 79.2056 20.7055 79.1074 20.2115 78.8894 19.7497 78.7315 19.2717 78.5732 18.1566 78.6107 16.9951 78.2571 15.9265 78.1157 15.4991 77.4847 15.3846 77.3086 14.9705 76.9911 14.2238 77.0464 13.3647 76.8342 12.581 76.5712 11.609 76.2019 10.6693 75.8857 9.71354 75.7275 9.23556 75.5326 8.76863 75.4114 8.2798 75.2532 7.64263 75.1938 6.97182 74.937 6.36807 74.5346 5.4218 71.1428 2.86342 69.7199 2.06685Z" fill="#B4C7E7" fill-rule="evenodd" transform="matrix(1 0 -0 1.00096 303 204)"/><path d="M68.5494 14.2983C67.6773 12.8684 68.4631 13.3739 65.2203 10.4855 64.2147 9.58997 63.4429 8.43462 62.3666 7.62581 61.0651 6.64768 60.1281 5.76591 58.5616 5.24262 53.8186 3.65833 54.6698 4.74454 49.0494 3.33634 48.4153 3.17737 47.7754 3.03956 47.1469 2.85965 46.6649 2.72162 46.2065 2.50478 45.72 2.38297 44.9358 2.18662 44.1312 2.08214 43.3421 1.90651 42.7039 1.76443 42.0826 1.54714 41.4395 1.42983 40.3367 1.22875 39.2184 1.12405 38.1104 0.953142 37.1572 0.806107 36.2158 0.577785 35.2567 0.476684 33.201 0.259846 31.1346 0.15897 29.0737 0 26.5371 0.15897 23.9744 0.0794848 21.4639 0.476684 20.8992 0.566076 20.4642 1.04929 20.037 1.42983 17.3899 3.7878 18.0136 4.21585 15.2811 5.24262 12.0607 6.45291 14.6364 5.04289 11.9517 6.19599 11.3001 6.47587 10.7075 6.88523 10.0492 7.14913 9.11826 7.52224 7.19551 8.10227 7.19551 8.10227 5.95832 11.8225 7.9851 6.43849 4.34185 11.9153 4.0248 12.392 3.75673 12.9051 3.3907 13.3451 2.07554 14.9267 1.89848 14.4293 1.01272 16.2048 0.788466 16.6542 0.695666 17.1579 0.537029 17.6346-0.166052 22.5647-0.192117 21.068 0.537029 27.6434 0.609157 28.2943 0.720383 28.9638 1.01272 29.5497 1.21337 29.9516 1.68366 30.1522 1.96386 30.503 2.32091 30.9504 2.55797 31.4857 2.91501 31.9329 3.19521 32.2837 3.58619 32.5352 3.86638 32.886 4.22343 33.3332 4.4133 33.9107 4.81753 34.3158 5.22176 34.7209 5.76868 34.9512 6.24437 35.269 6.403 35.7456 6.41918 36.2969 6.72005 36.6988 7.39257 37.5974 8.3053 38.2876 9.09803 39.082 11.0848 41.0732 9.98739 40.1079 12.4274 41.9416 12.7444 42.4183 12.9485 42.9943 13.3785 43.3715 14.2389 44.1258 15.1476 44.9154 16.2322 45.2777 18.1019 45.9024 19.7624 46.3822 21.4639 47.6609 23.8892 49.4837 22.5972 48.8982 25.2689 49.5672 25.903 49.8849 26.5814 50.1265 27.1712 50.5206 29.7822 52.265 26.2382 50.8442 29.5494 51.9504 32.4031 51.4737 35.2893 51.1632 38.1104 50.5206 38.8018 50.3632 39.3543 49.8311 40.0127 49.5672 40.9436 49.1941 41.886 48.8246 42.8664 48.6141 48.3683 47.4326 44.8954 48.7667 48.5737 47.6609 49.5341 47.3723 51.4274 46.7076 51.4274 46.7076 55.3445 48.0163 53.2883 47.803 57.6104 47.1843 58.5616 46.5488 59.83 46.2309 60.4641 45.2777 61.1707 44.2154 61.3979 43.6712 62.3666 42.8948 62.8131 42.537 63.3472 42.2994 63.7934 41.9416 64.1435 41.6609 64.3945 41.2691 64.7446 40.9883 65.1908 40.6305 65.7323 40.4019 66.1714 40.0351 67.0731 39.2822 68.0148 38.2468 68.5494 37.1755 69.4751 35.3201 68.5862 35.9778 69.5008 33.8391 69.7259 33.3127 70.1962 32.9216 70.4519 32.4093 72.4209 28.4628 69.1529 33.6473 71.8787 29.5497 71.5037 22.4107 73.0514 22.5377 70.4519 19.0644 70.3173 18.8847 69.4214 15.7281 68.5494 14.2983Z" fill="#B4C7E7" fill-rule="evenodd" transform="matrix(1 0 -0 1.00096 144 281)"/><path d="M70.0635 15.7346C67.1982 13.1762 58.3011 4.57412 51.4387 0.384142 49.8007-0.615987 47.61 0.624825 45.708 0.863696 45.0566 0.94551 44.4463 1.2433 43.7977 1.34348 42.3729 1.56376 40.9323 1.66325 39.4997 1.82326 38.2263 2.14303 36.9321 2.38938 35.6793 2.78259 34.3811 3.19008 33.1866 3.92527 31.8589 4.22171 30.2971 4.57027 28.6752 4.54148 27.0832 4.70149 26.4465 4.86126 25.76 4.88619 25.1729 5.18104 21.7266 6.91183 27.987 5.50535 22.3076 7.57972 21.2499 7.96613 20.0791 7.8995 18.9648 8.05927 18.3281 8.53905 17.8024 9.22507 17.0545 9.49839 15.9966 9.88479 14.8191 9.77578 13.7115 9.97817 13.0658 10.096 12.4381 10.2979 11.8014 10.4579 8.82551 13.4465 13.1344 9.40524 9.41347 11.8971 8.85146 12.2733 8.41308 12.8149 7.9808 13.3362 6.73245 14.8408 5.73431 17.8224 4.1604 18.6129 1.73658 19.8301 2.84234 19.1756 0.817415 20.5318-0.300749 23.9025-0.243893 23.1256 0.817415 29.1664 0.895705 29.6118 1.49134 29.7727 1.77268 30.1258 2.85813 31.4885 2.81504 32.1324 4.1604 33.4838 4.83545 34.1619 6.75433 35.0262 7.50339 35.4025 9.94277 37.8528 8.33231 36.5383 12.7565 38.7605 14.4538 39.6128 14.4603 39.7291 16.0994 40.1996 16.7305 40.3807 17.3568 40.6105 18.0095 40.6794 20.3896 40.9309 22.7852 40.9991 25.1729 41.1589 25.8096 41.3189 26.4425 41.4957 27.0832 41.6387 27.8756 41.8157 28.6835 41.9209 29.4709 42.1185 29.9592 42.2411 30.4045 42.5312 30.9036 42.598 32.8038 42.8525 34.724 42.9178 36.6343 43.0778 37.4303 43.2378 38.2522 43.2997 39.0223 43.5576 39.6975 43.7838 40.2505 44.3114 40.9323 44.5169 41.8599 44.7964 42.8524 44.7857 43.7977 44.9967 44.2891 45.1064 44.732 45.4049 45.2304 45.4763 46.971 45.726 48.7326 45.796 50.4837 45.956 53.1897 45.796 55.9439 46.0102 58.6021 45.4763 59.2643 45.3432 59.4727 44.4134 60.0348 44.0372 60.4535 43.7566 60.9898 43.7174 61.4674 43.5576 62.4225 42.918 63.521 42.4541 64.3328 41.6387 66.577 39.3844 65.3912 40.7637 67.6758 37.3214L68.6308 35.8822C68.9492 35.4025 69.4042 34.99 69.5859 34.4431 70.2711 32.3785 69.9414 33.4947 70.5411 31.0851 70.3818 27.5673 70.343 24.0421 70.0635 20.5318 70.0233 20.0277 69.7242 19.5788 69.5859 19.0926 69.5475 18.9578 68.8858 16.0546 68.6308 15.7346 68.2723 15.2845 72.9289 18.2931 70.0635 15.7346Z" fill="#B4C7E7" fill-rule="evenodd" transform="matrix(1 0 -0 1.00096 240 313)"/><path d="M33.4327 0.886906C32.4776 0.689831 31.8356 0.704357 31.0447 0.591363 29.7655 0.408675 27.2239 0 27.2239 0 19.2636 1.77381 11.1348 3.28099 3.34313 5.32143 2.68741 5.49309 2.66846 6.09898 2.38799 6.50402 2.03395 7.01521 1.60026 8.08104 1.43284 8.57351 0.931231 10.0486 0 13.008 0 13.008 0.185253 14.27 0.357645 17.294 1.43284 18.625 1.75122 19.0192 2.09894 19.4049 2.38799 19.8076 2.73615 20.2925 2.9178 20.825 3.34313 21.2857 3.56652 21.5278 4.04872 21.6451 4.29851 21.8771 6.9866 24.3729 2.46764 21.9254 8.59702 25.7203 8.9154 25.9173 9.2638 26.0975 9.55217 26.3116 10.9755 27.3689 10.5779 27.516 12.4178 28.0854 12.8682 28.2248 13.3685 28.2915 13.8507 28.381 14.9608 28.5871 16.0796 28.7753 17.194 28.9723 32.5498 28.5591 23.7966 29.1429 30.567 28.381 35.6562 27.8083 31.2345 28.4255 37.2537 27.4941L39.164 27.1985C41.1208 25.9873 39.4696 26.8065 43.9402 26.0159 44.9085 25.8447 45.8415 25.6038 46.8059 25.4247 47.4348 25.308 48.1018 25.2718 48.7164 25.129 50.817 24.6414 50.295 24.5705 52.0596 23.9464 52.6778 23.7277 53.3518 23.5738 53.9701 23.3552 58.7003 21.6823 51.5341 23.9615 57.3135 22.1726 57.6318 21.877 57.8627 21.537 58.2686 21.2857 58.8611 20.919 60.7983 20.1434 61.612 19.8076L63.0448 17.1469C63.2039 16.8512 63.4234 16.5656 63.5223 16.26L64 14.7819C63.8407 12.4168 63.9447 10.0392 63.5223 7.68661 63.4264 7.15279 60.8409 5.76922 60.6566 5.61712 60.1789 5.22297 59.7865 4.783 59.2238 4.43453 58.661 4.08619 57.9613 3.83395 57.3135 3.54762 55.7879 2.87315 53.6844 2.10902 52.0596 1.77381L50.6267 1.47827C46.0098 1.57674 41.3878 1.60593 36.7761 1.77381 27.0621 2.12746 34.3879 1.08398 33.4327 0.886906Z" fill="#B4C7E7" fill-rule="evenodd" transform="matrix(1 0 -0 1.00096 303 353)"/><path d="M1.4292 17.0363C12.5452 13.2506 23.7742 9.77757 34.7772 5.67878 35.3133 5.47913 35.2829 4.61435 35.7299 4.25909 36.122 3.94742 36.6955 3.97761 37.1591 3.78578 38.6027 3.18817 39.9946 2.47005 41.4467 1.893 41.4562 1.8892 45.0148 0.711636 45.7343 0.473306L47.1635 0C49.7043 0.157843 52.3079-0.105974 54.786 0.473306 55.2748 0.587553 54.9487 1.50354 55.2624 1.893 55.6201 2.33702 56.2152 2.52393 56.6916 2.83939 57.1107 4.50502 57.1238 5.13974 58.1208 6.62517 59.4402 8.59106 58.873 6.41412 60.0263 8.99148 60.4341 9.90321 60.4222 11.0007 60.9792 11.8309 61.6144 12.7773 62.0749 13.8661 62.8847 14.6703 63.6787 15.459 64.5932 16.1441 65.2668 17.0363 66.3181 18.429 66.7982 19.2506 68.1252 20.349 68.565 20.7132 69.0779 20.98 69.5544 21.2954 71.188 23.7297 69.6674 21.8584 71.9363 23.6615 73.8049 25.1465 71.836 24.2596 74.3183 25.0812 74.964 27.0053 75.4578 27.7963 74.3183 30.2869 73.9897 31.0048 72.9741 31.149 72.4128 31.7066 72.0079 32.1088 71.8648 32.7241 71.4599 33.1263 70.2724 34.3059 68.534 35.064 67.1723 35.9657 66.0357 36.7185 65.0465 37.6997 63.8376 38.3318 62.0107 39.2869 59.8384 39.5603 58.1208 40.6979 57.6444 41.0133 57.1922 41.3681 56.6916 41.6445 55.7605 42.1585 54.7644 42.5504 53.8332 43.0642 53.3327 43.3403 52.9422 43.8163 52.404 44.0106 51.1734 44.455 48.5927 44.9569 48.5927 44.9569 47.8045 44.87 44.2729 44.7817 42.8759 44.0106 41.8748 43.4581 40.9995 42.7029 40.0175 42.1176 38.1265 40.9905 35.5481 39.4731 33.8245 38.3318 33.348 38.0163 32.8925 37.6675 32.3953 37.3854 31.524 36.8908 29.8338 36.2606 29.0604 35.4924 28.3413 34.7783 27.9573 33.7465 27.1547 33.1263 26.1431 32.3447 23.6022 31.9072 22.3909 31.7066 21.2833 31.5233 20.1636 31.4166 19.056 31.2333 12.5126 30.1499 22.0727 31.43 12.8628 30.2869 6.89121 28.8035 14.3235 30.7012 9.52813 29.3403 8.89861 29.1617 8.24951 29.0541 7.62246 28.8672 6.66051 28.5806 4.76407 27.9206 4.76407 27.9206 4.12892 27.4473 3.50885 26.9532 2.85839 26.5009 1.9203 25.8487 0.809578 25.4125 0 24.6081L1.4292 17.0363Z" fill="#B4C7E7" fill-rule="evenodd" transform="matrix(1 0 -0 1.00096 241 105)"/><path d="M21.9779 0.950068C18.3148 3.00866 14.4683 4.77346 10.989 7.12607 10.146 7.69616 9.83154 10.104 9.55571 10.9266 8.77652 13.2507 8.81467 12.9818 7.64452 14.7273 5.05594 25.0232 7.7461 16.0753 3.82237 25.1787 3.5637 25.7789 3.48221 26.4405 3.34452 27.0791 3.00413 28.6582 2.72943 30.2507 2.38904 31.8299 1.5717 35.622 2.38543 31.8391 0.955706 35.6304 0.725244 36.2417 0.658205 36.9029 0.477853 37.5307 0.339486 38.0121 0.15936 38.4808 0 38.9559 0.15936 40.6978 0.109249 42.4714 0.477853 44.1816 0.598163 44.7398 1.20016 45.085 1.43333 45.6068 1.84234 46.5221 1.83038 47.6239 2.38904 48.4573 3.14521 49.5853 3.88874 50.7515 4.77785 51.7829 5.21756 52.293 5.62454 52.8748 6.21119 53.2081 6.78136 53.5319 7.49103 53.5037 8.12238 53.683 8.60655 53.8206 9.07786 53.9997 9.55571 54.1581 10.5112 55.1082 11.6116 55.9335 12.4224 57.0086 12.9002 57.6419 13.244 58.4021 13.8557 58.9089 14.2426 59.2294 14.8112 59.2256 15.289 59.3838 16.1779 60.2679 16.4721 60.6847 17.6779 61.2842 18.1284 61.5082 18.6333 61.6009 19.1112 61.7593 19.7482 62.2345 20.347 62.7649 21.0224 63.1846 21.6264 63.5598 22.3636 63.7098 22.9333 64.1346 26.3135 66.6556 23.1437 65.8496 27.7112 66.9851L31.5333 67.9351C33.2852 67.7769 35.0749 67.8534 36.7891 67.4602 37.7965 67.229 37.942 65.7349 38.2224 65.0847 38.503 64.4338 38.9526 63.8563 39.1779 63.1846 39.5932 61.9456 39.8149 60.6508 40.1334 59.3838 40.8089 56.697 40.4816 58.1279 41.0891 55.1082 40.5076 45.8591 40.337 47.5258 41.0891 37.0556 41.1581 36.0947 41.4297 35.1588 41.5667 34.2051 41.7482 32.9413 41.808 31.6595 42.0445 30.4046 42.2865 29.121 43 26.6039 43 26.6039 42.8409 23.5953 42.7966 20.5783 42.5224 17.5777 42.4768 17.079 42.3037 16.5819 42.0445 16.1525 41.8127 15.7685 41.4076 15.5189 41.0891 15.2022 40.7572 14.2122 40.3114 12.6595 39.6557 11.8769 39.288 11.4383 38.7002 11.2433 38.2224 10.9266 37.9039 10.4514 37.571 9.98548 37.2667 9.50135 36.7744 8.71827 36.362 7.88514 35.8334 7.12607 34.9269 5.82408 33.8499 4.64328 32.9667 3.32557 32.6482 2.85043 32.2681 2.41097 32.0112 1.90036 31.7859 1.45237 31.8895 0.829317 31.5333 0.475146 31.1772 0.120975 30.5779 0.158457 30.1 0L21.9779 0.950068Z" fill="#B4C7E7" fill-rule="evenodd" transform="matrix(1 0 -0 1.00096 258 204)"/><path d="M44.159 17.0695C39.5992 13.5624 24.6884 5.17641 14.3997 0.235281 13.1001-0.388821 11.4926 0.390147 10.0798 0.702971-3.2659 3.65801 9.48023 1.88689 0 3.04098 0.160098 4.44383 0.0988705 5.88777 0.480066 7.24953 0.599119 7.6748 1.21184 7.80404 1.43997 8.18491 5.08276 14.2691 2.31166 11.3721 4.79998 13.7963 4.95985 14.264 5.01949 14.7765 5.27982 15.1992 5.51271 15.5772 6.03745 15.74 6.23995 16.1343 6.53497 16.7092 6.45991 17.4141 6.71979 18.0049 7.38444 19.516 8.24344 19.8195 9.59973 20.8106 9.9866 23.071 9.79951 23.6746 11.0397 25.4866 11.8914 26.7312 12.0914 26.3265 13.4398 26.8894 14.0974 27.164 14.6743 27.6244 15.3596 27.8248 16.2919 28.0972 17.288 28.0937 18.2396 28.2923 19.5296 28.5616 20.8279 28.8212 22.0796 29.2277 23.5196 29.6954 25.1367 29.8102 26.3995 30.6305 28.9373 32.2786 27.2796 31.4294 31.6794 32.5008L33.5994 32.9685C33.9194 32.5008 34.3935 32.1041 34.5593 31.5657 34.8845 30.5099 34.8176 29.373 35.0394 28.2923 35.1387 27.8089 35.2031 27.2743 35.5192 26.8894 35.8795 26.4507 36.5086 26.3053 36.9592 25.9543 37.3125 25.6788 37.566 25.2946 37.9193 25.0191 38.3699 24.6681 38.9162 24.4436 39.3593 24.0837 44.0797 20.2512 37.9817 24.9581 41.7592 21.278 43.5985 19.4861 48.7189 20.5766 44.159 17.0695Z" fill="#B4C7E7" fill-rule="evenodd" transform="matrix(1 0 -0 1.00096 193 169)"/><path d="M67.5237 0.475482C62.5307-0.807319 52.2912 0.846867 44.6987 1.43781 43.992 1.49281 43.4584 2.1424 42.7968 2.39991 41.3934 2.94608 38.5171 3.84317 38.5171 3.84317 35.8981 6.49219 40.0706 2.47469 33.7618 6.7297 32.3353 7.6918 31.0741 8.9721 29.4822 9.61623 27.8368 10.2822 25.9843 10.2026 24.2515 10.5783 23.7613 10.6847 23.3165 10.9599 22.825 11.0595 20.934 11.442 18.9894 11.5484 17.1187 12.0216L13.3144 12.9839C12.6804 13.1442 12.0532 13.3351 11.4125 13.4649 7.93572 14.1683 9.83495 13.8303 5.70624 14.4272 4.75527 14.7479 3.8133 15.0979 2.85312 15.3893 2.22701 15.5793 1.49485 15.5036 0.950965 15.8705 0.47537 16.1912 0.316988 16.8326 0 17.3137 0.181072 18.2297 0.463239 20.1755 0.950965 21.1623 1.20662 21.6794 1.53013 22.1667 1.90193 22.6056 3.22919 24.1721 4.8211 25.5253 6.6572 26.4542 7.29118 26.7749 7.98244 26.9997 8.55936 27.4166 9.10662 27.812 9.45506 28.4421 9.98592 28.8598 10.8881 29.5696 12.839 30.784 12.839 30.784 13.2706 31.4391 13.9884 32.7328 14.741 33.1896 15.1707 33.4506 15.7068 33.4708 16.1675 33.6706 20.602 35.5932 15.5863 33.8463 19.9718 35.1138 20.4537 35.2532 20.95 35.3682 21.3984 35.595 23.4499 36.6328 22.1004 36.5546 24.2515 37.0382 25.1928 37.2499 26.1633 37.3078 27.1046 37.5194 27.5939 37.6294 28.0343 37.9333 28.5312 38.0004 30.4232 38.2556 32.3353 38.3211 34.2374 38.4815 35.03 38.642 35.8066 38.9627 36.615 38.9627 37.8928 38.9627 39.1695 38.7524 40.419 38.4815 43.7529 37.7587 42.3185 37.6403 44.6987 37.0382 45.3327 36.8778 45.9889 36.7891 46.6009 36.5571 47.2645 36.3053 47.8306 35.8218 48.503 35.595 49.7431 35.1768 52.3071 34.6329 52.3071 34.6329 53.5751 33.9915 54.721 32.9898 56.1112 32.7085 57.5047 32.4264 58.6372 32.3007 59.9155 31.7464 60.567 31.4638 61.2277 31.1818 61.8174 30.784 62.1904 30.5324 62.3842 30.0554 62.7686 29.8219 63.2566 29.5258 65.7408 28.9498 66.0971 28.8598 67.596 27.8486 67.2837 27.8764 68.9502 27.4166 70.2112 27.0686 72.7545 26.4542 72.7545 26.4542 73.2301 26.1335 73.6848 25.779 74.1811 25.4921 74.7964 25.1364 75.5818 25.0371 76.083 24.53 76.6712 23.935 77.2254 22.0253 77.5096 21.1623 78.0119 17.6051 78.2997 17.6767 77.5096 13.946 77.2995 12.9544 77.5096 11.3802 76.5586 11.0595L75.1321 10.5783C74.9735 10.0972 75.011 9.49372 74.6565 9.13507 72.6665 7.122 72.5166 1.75828 67.5237 0.475482Z" fill="#B4C7E7" fill-rule="evenodd" transform="matrix(1 0 -0 1.00096 113 158)"/><path d="M0.256634 18.9008C1.746 17.0106 9.38879 13.6122 13.8955 10.8679 17.3758 8.74874 14.2728 9.95423 17.1878 8.97778 17.9717 8.3478 18.7931 7.76247 19.5393 7.08784 20.3632 6.34267 20.9757 5.35394 21.8907 4.72508 26.304 1.69126 27.0981 1.49838 30.8267 0 33.0175 0.550061 32.6351-0.110727 33.1782 1.88994 33.5184 3.14298 34.1189 5.67027 34.1189 5.67027 34.2756 6.93023 34.4958 8.18394 34.5891 9.45038 34.8095 12.4391 34.8011 15.4428 35.0595 18.4284 35.1288 19.2298 35.7254 20.9077 36 21.7359 35.8434 23.9411 35.9354 26.1784 35.5299 28.3514 35.4481 28.7894 34.8662 28.9485 34.5891 29.2963 33.5972 30.542 33.6746 31.1691 32.2376 32.1315 31.8252 32.4078 31.2971 32.4465 30.8267 32.6041 30.5132 33.0767 30.3274 33.6669 29.8862 34.0216 29.4991 34.3328 28.9661 34.4237 28.4752 34.494 26.761 34.74 25.0261 34.809 23.3017 34.9666 18.2868 34.1268 22.4098 35.2644 18.5987 33.0764 17.3813 32.3775 14.1289 32.2199 13.4252 32.1315 13.1116 31.6589 12.8843 31.1155 12.4846 30.7139 12.0849 30.3123 11.515 30.1237 11.0737 29.7689 10.7275 29.4906 10.4467 29.1387 10.1331 28.8237 9.97627 28.3511 9.90362 27.8415 9.66276 27.4062 8.75865 25.7712 7.78878 24.3409 6.37051 23.1535 5.93635 22.7898 5.48885 22.4078 4.95959 22.2085 4.21124 21.9265-1.23273 20.7909 0.256634 18.9008Z" fill="#B4C7E7" fill-rule="evenodd" transform="matrix(1 0 -0 1.00096 325 163)"/><path d="M38.539 5.43238C32.6708 3.63287 26.8822 1.53008 20.9347 0.0336205 19.5563-0.313251 16.7173 2.11601 16.1769 2.48769 10.2555 6.55972 20.5242-0.541407 12.8463 4.94152 11.4358 5.94875 10.1916 7.3265 8.56422 7.88622 1.47233 10.325 14.6448 5.71804 5.23362 9.35857 4.62131 9.5953 3.96494 9.68573 3.33061 9.84943 2.69627 10.8309 1.70475 11.6496 1.42737 12.7941 0.354258 17.2223 0.889465 15.4406 0 18.1927 0.951505 19.1741 1.7351 20.3673 2.85474 21.1374 3.33061 21.4645 3.83569 21.7504 4.28211 22.1188 4.63232 22.408 4.83238 22.8935 5.23362 23.1006 5.8185 23.4022 6.50252 23.4277 7.13685 23.5912 8.70494 25.2091 7.56776 24.399 10.4675 25.0635 12.165 25.4526 12.954 25.7983 14.7496 26.0453 16.3293 26.2625 17.9257 26.3321 19.5073 26.5359 24.8623 27.2264 20.1686 26.7253 24.2653 27.5176 26.1616 27.8844 28.103 28.0163 29.9748 28.4991 35.0216 29.8006 32.4834 29.3132 37.5875 29.9714 37.5904 29.971 41.5641 29.5942 42.3452 28.9899 43.2426 28.2957 43.7913 27.1775 44.7243 26.5359 45.2002 26.2087 45.7244 25.9462 46.1517 25.5544 47.1576 24.6323 49.0065 22.6097 49.0065 22.6097 49.3236 21.6282 50.2012 20.6688 49.958 19.665 49.8058 19.0376 49.3472 16.9325 49.0065 16.2294 48.7507 15.702 48.3719 15.248 48.0547 14.7571 47.1453 11.9416 48.195 14.4594 46.6274 12.3033 43.3993 7.86373 45.9553 10.628 43.7726 8.37708L38.539 5.43238Z" fill="#B4C7E7" fill-rule="evenodd" transform="matrix(1 0 -0 1.00096 223 281)"/><path d="M19.3829 0.05435C14.7893 0.525903 6.34124 2.50834 0.374705 5.24054-0.642319 5.7063 0.718876 7.43726 0.849765 8.54096 1.03566 10.1095 1.11468 11.6901 1.32505 13.2558 1.72894 16.2616 1.65014 14.7531 2.27539 17.0276 2.61912 18.2778 2.30234 19.8827 3.22596 20.7993 4.01578 21.5832 4.6471 22.0864 5.12665 23.1569 6.36459 25.92 5.44703 25.8318 7.50285 27.8715 7.90674 28.2722 8.4532 28.5003 8.92848 28.8146 9.99175 30.573 10.4601 31.5303 11.7797 33.0579 12.2171 33.5642 12.6461 34.1026 13.2054 34.4724 13.6221 34.7481 14.1557 34.7866 14.631 34.9437 15.7156 36.02 15.9754 36.3668 17.4823 37.3012 18.083 37.6737 18.768 37.8955 19.3829 38.2441 19.8789 38.5252 20.3072 38.9157 20.8086 39.187 22.0524 39.8601 23.3431 40.4444 24.6104 41.073 25.244 41.3873 25.8239 41.8455 26.5111 42.0159 29.1955 42.6819 27.7715 42.3602 30.788 42.959 33.9071 42.7656 37.5841 42.8772 40.7674 42.0159 40.7737 42.0141 44.3285 40.8382 45.0443 40.6014L46.4699 40.1301 47.8955 39.6585C48.2123 39.3442 48.6456 39.1133 48.8461 38.7157 49.1382 38.1361 49.0919 37.4364 49.3212 36.8297 49.5699 36.1715 49.955 35.5723 50.2717 34.9437 51.2465 31.0746 51.2391 31.9123 50.2717 25.5142 50.1667 24.819 49.6002 24.2742 49.3212 23.6282 49.1238 23.1713 49.0892 22.6481 48.8461 22.2138 47.2155 19.3018 47.6021 19.8192 45.5196 18.442 44.886 17.4991 44.2906 16.5297 43.6186 15.6131 43.0221 14.7994 42.2806 14.0931 41.718 13.2558 39.7888 10.3846 41.94 12.1452 39.3418 10.427 39.1835 9.9554 39.1673 9.41012 38.8667 9.01251 38.1234 8.02909 36.3841 6.36652 35.0649 5.71209 34.6168 5.48979 34.1145 5.3978 33.6392 5.24054 33.3225 4.76899 33.1732 4.12636 32.6889 3.8261 30.7808 2.64288 29.7907 3.1474 27.9367 2.41167 27.7288 2.32925 23.9766-0.417203 19.3829 0.05435Z" fill="#B4C7E7" fill-rule="evenodd" transform="matrix(1 0 -0 1.00096 159 118)"/><path d="M67.5972 14.5732C66.7372 13.1159 67.5121 13.6311 64.3143 10.6871 63.3227 9.77438 62.5616 8.59682 61.5003 7.77246 60.2169 6.77551 59.2929 5.87679 57.7481 5.34343 53.071 3.72868 53.9104 4.83578 48.3681 3.40049 47.7428 3.23847 47.1117 3.09801 46.492 2.91464 46.0167 2.77396 45.5647 2.55295 45.0849 2.42879 44.3116 2.22867 43.5182 2.12218 42.74 1.94317 42.1107 1.79836 41.4981 1.57689 40.8639 1.45732 39.7764 1.25238 38.6736 1.14566 37.581 0.971471 36.6411 0.821608 35.7127 0.588895 34.767 0.48585 32.7398 0.264842 30.7022 0.162027 28.6699 0 26.1685 0.162027 23.6414 0.0810133 21.1657 0.48585 20.6089 0.576961 20.1799 1.06947 19.7587 1.45732 17.1483 3.86064 17.7634 4.29692 15.0688 5.34343 11.8931 6.57699 14.4331 5.13987 11.7857 6.31513 11.1431 6.6004 10.5588 7.01763 9.90959 7.28661 8.9916 7.66689 7.09556 8.25808 7.09556 8.25808 5.87556 12.0499 7.87418 6.56231 4.28153 12.1444 3.96889 12.6303 3.70455 13.1533 3.3436 13.6017 2.04671 15.2137 1.8721 14.7068 0.998648 16.5164 0.777514 16.9745 0.686003 17.4879 0.529569 17.9737-0.163745 22.9986-0.189448 21.4731 0.529569 28.1749 0.600695 28.8384 0.710376 29.5207 0.998648 30.1179 1.19652 30.5275 1.66028 30.732 1.93658 31.0896 2.28867 31.5456 2.52243 32.0911 2.87452 32.5469 3.15083 32.9045 3.53637 33.1608 3.81268 33.5184 4.16476 33.9742 4.35199 34.5628 4.75061 34.9757 5.14923 35.3886 5.68855 35.6234 6.15763 35.9472 6.31406 36.433 6.33001 36.9948 6.62671 37.4045 7.28989 38.3204 8.18993 39.0238 8.97165 39.8335 10.9308 41.863 9.84866 40.8791 12.2548 42.7482 12.5674 43.234 12.7686 43.8211 13.1927 44.2055 14.0411 44.9743 14.9372 45.7792 16.0067 46.1484 17.8505 46.7851 19.4879 47.2741 21.1657 48.5774 23.5574 50.4352 22.2833 49.8385 24.9179 50.5204 25.5432 50.8442 26.2121 51.0905 26.7938 51.4921 29.3685 53.27 25.8738 51.8219 29.1389 52.9494 31.953 52.4636 34.7991 52.1471 37.581 51.4921 38.2628 51.3317 38.8077 50.7894 39.4569 50.5204 40.3749 50.1401 41.3042 49.7635 42.2709 49.5489 47.6965 48.3447 44.2718 49.7045 47.899 48.5774 48.846 48.2832 50.713 47.6057 50.713 47.6057 54.5758 48.9396 52.5481 48.7223 56.8101 48.0916 57.7481 47.4439 58.9989 47.1199 59.6242 46.1484 60.321 45.0656 60.545 44.5109 61.5003 43.7196 61.9405 43.355 62.4672 43.1128 62.9073 42.7482 63.2525 42.462 63.5 42.0626 63.8452 41.7765 64.2853 41.4118 64.8193 41.1788 65.2522 40.805 66.1414 40.0375 67.07 38.9823 67.5972 37.8903 68.5101 35.9993 67.6335 36.6696 68.5353 34.4899 68.7574 33.9533 69.2211 33.5546 69.4733 33.0325 71.4149 29.0101 68.1923 34.2943 70.8803 30.1179 70.5105 22.8416 72.0367 22.9711 69.4733 19.431 69.3405 19.2479 68.4571 16.0305 67.5972 14.5732Z" fill="#B4C7E7" fill-rule="evenodd" transform="matrix(1 0 -0 1.00096 318 288)"/><path d="M11.3684 4.03235C9.12278 4.2339 6.47015 3.26215 3.78947 4.03235 2.95181 4.27295 1.80025 5.53408 1.26316 6.04843 1.12272 6.45172 0.958806 6.84797 0.842039 7.25812 0.537488 8.3274 0 10.4839 0 10.4839 0.140439 13.5753 0.21961 16.6699 0.421119 19.7583 0.500489 20.9731 0.842039 22.1702 0.842039 23.3873 0.842039 26.616 0.561359 29.8391 0.421119 33.0648 0.701798 35.2154 0.927376 37.373 1.26316 39.5163 1.34909 40.0644 1.42548 40.6336 1.68428 41.1293 1.99818 41.7304 2.52631 42.2047 2.94743 42.7423 3.16128 43.562 3.42664 44.754 3.78947 45.5648 4.03673 46.1172 4.35083 46.6402 4.63151 47.1778 4.84157 48.1832 5.01125 49.4289 5.47375 50.4035 5.99313 51.498 6.69155 52.5133 7.15783 53.6295 7.43851 54.3016 7.63305 55.0129 8.00006 55.6456 8.87393 57.1519 11.188 59.1018 12.2105 60.081 14.1145 61.9045 11.7354 59.7021 14.7368 62.0973 16.3242 63.3641 14.7475 62.6776 17.2631 63.7101 18.2726 64.1244 19.1421 64.2244 20.2105 64.5167 21.1254 64.767 22.2131 65.2444 23.158 65.3231 25.8181 65.5446 28.4913 65.5919 31.1578 65.7263 33.7524 66.5543 31.1099 65.7911 35.3684 66.5327 35.9377 66.6318 36.4913 66.8015 37.0527 66.936 38.1754 66.6672 39.3739 66.6013 40.421 66.1294 41.7946 65.5103 42.9961 64.5824 44.2105 63.7101 44.7719 63.3068 45.2672 62.801 45.8948 62.5004 48.0272 61.4793 49.8293 61.5441 52.2106 61.2907 57.0458 60.1334 51.0867 61.7519 55.1578 60.081 55.6897 59.8627 56.2807 59.8122 56.8421 59.6779 57.4034 59.2746 57.9873 58.8986 58.5264 58.4682 58.8313 58.2248 59.0507 57.8897 59.3684 57.6616 60.178 57.08 61.0527 56.5865 61.8947 56.0489L63.1579 55.2423C64.1704 53.7878 64.7956 52.7179 66.5262 51.6132 66.9473 51.3444 67.3368 51.0236 67.7894 50.8068 68.1864 50.6167 68.6314 50.538 69.0525 50.4035 69.4737 49.8659 69.8196 49.2658 70.3157 48.7907 70.6736 48.448 71.2982 48.3874 71.5789 47.9842 71.8999 47.5231 71.8595 46.909 72 46.3714 71.7418 43.4053 71.816 42.0374 71.1579 39.5163 71.0503 39.1039 70.8773 38.71 70.7368 38.3067 70.0183 33.4917 70.7342 37.0888 69.8948 34.2745 69.7358 33.7417 69.7016 33.1709 69.4737 32.6615 69.2743 32.2161 68.858 31.8852 68.6316 31.4518 68.4331 31.0716 68.4568 30.5957 68.2105 30.2422 67.8803 29.7676 67.3685 29.4358 66.9473 29.0325 66.605 28.0489 66.5002 27.3945 65.6842 26.6131 65.3263 26.2704 64.8422 26.0755 64.421 25.8067 64.1404 25.4034 63.8054 25.0304 63.579 24.597 63.3805 24.2168 63.3862 23.7518 63.1579 23.3873 62.9536 23.0614 62.5639 22.8775 62.3158 22.5807 61.9997 22.2022 61.7678 21.7654 61.4736 21.3711 61.0656 20.8243 60.6129 20.3088 60.2104 19.7583 59.3531 18.5852 58.8313 17.4111 57.6841 16.5323 57.2891 16.2296 56.8421 15.9947 56.421 15.7259 55.9999 15.1883 55.6541 14.5882 55.1578 14.1129 54.7999 13.7702 54.2525 13.6493 53.8947 13.3065 50.761 10.3056 54.3452 12.7876 51.3683 10.8872 50.3636 7.99936 51.8 11.3025 49.6843 8.8711 49.2824 8.40932 49.2506 7.71456 48.842 7.25812 48.1949 6.53516 46.7022 5.8606 45.8948 5.24204 45.5847 5.00448 45.3006 4.73244 45.0526 4.43545 44.7365 4.05712 44.6316 3.49456 44.2105 3.22577 43.7289 2.9183 43.0876 2.95697 42.5262 2.82266 41.8262 2.1521 41.3775 1.61679 40.421 1.20969 39.6098 0.864497 38.7368 0.67209 37.8947 0.403292L36.6316 0 30.3158 0.403292C28.9098 0.510926 27.4992 0.601033 26.1052 0.806394 25.6666 0.870974 25.2727 1.10662 24.842 1.20969 24.1478 1.37599 23.4273 1.43257 22.7368 1.61298 21.8805 1.83663 21.0892 2.29917 20.2105 2.41937 19.228 2.55387 18.242 2.66645 17.2631 2.82266 14.8977 3.20024 13.6141 3.8308 11.3684 4.03235Z" fill="#B4C7E7" fill-rule="evenodd" transform="matrix(1 0 -0 1.00096 331 86)"/><path d="M7.89474 3.73143C6.33527 3.91794 4.49316 3.01871 2.63158 3.73143 2.04987 3.95407 1.25017 5.12108 0.877193 5.59705 0.779666 5.97025 0.665838 6.33692 0.584749 6.71646 0.373256 7.70595 0 9.7015 0 9.7015 0.0975273 12.5623 0.152507 15.4258 0.292444 18.2838 0.347562 19.4079 0.584749 20.5157 0.584749 21.642 0.584749 24.6297 0.389833 27.6122 0.292444 30.5973 0.48736 32.5873 0.644012 34.584 0.877193 36.5673 0.93687 37.0745 0.989916 37.6013 1.16964 38.0599 1.38762 38.6161 1.75439 39.0551 2.04683 39.5526 2.19533 40.3111 2.37961 41.4141 2.63158 42.1644 2.80329 42.6756 3.02141 43.1595 3.21633 43.657 3.3622 44.5874 3.48004 45.7402 3.80122 46.642 4.1619 47.6548 4.64691 48.5944 4.97071 49.6272 5.16563 50.2492 5.30073 50.9074 5.5556 51.4929 6.16245 52.8868 7.76944 54.6912 8.47949 55.5973 9.80177 57.2847 8.14961 55.2467 10.2339 57.4631 11.3362 58.6354 10.2413 58.0001 11.9883 58.9555 12.6893 59.339 13.2931 59.4315 14.0351 59.7019 14.6704 59.9336 15.4257 60.3753 16.0819 60.4481 17.9293 60.6532 19.7856 60.6969 21.6374 60.8213 23.4391 61.5875 21.6041 60.8813 24.5614 61.5676 24.9568 61.6592 25.3412 61.8163 25.731 61.9408 26.5107 61.692 27.343 61.631 28.0702 61.1944 29.024 60.6214 29.8584 59.7628 30.7018 58.9555 31.0916 58.5823 31.4356 58.1143 31.8714 57.8361 33.3523 56.8912 34.6037 56.9512 36.2574 56.7167 39.6151 55.6458 35.4769 57.1435 38.304 55.5973 38.6734 55.3953 39.0839 55.3486 39.4737 55.2243 39.8635 54.8511 40.269 54.5031 40.6433 54.1049 40.8551 53.8796 41.0075 53.5695 41.2281 53.3585 41.7903 52.8203 42.3977 52.3635 42.9825 51.8661L43.8596 51.1197C44.5628 49.7737 44.997 48.7837 46.1988 47.7614 46.4912 47.5127 46.7617 47.2158 47.076 47.0152 47.3517 46.8393 47.6607 46.7665 47.9532 46.642 48.2456 46.1446 48.4858 45.5893 48.8304 45.1496 49.0789 44.8325 49.5126 44.7764 49.7076 44.4032 49.9305 43.9766 49.9025 43.4083 50 42.9108 49.8207 40.166 49.8722 38.9003 49.4152 36.5673 49.3405 36.1857 49.2203 35.8211 49.1228 35.4479 48.6238 30.9923 49.121 34.3209 48.5381 31.7167 48.4277 31.2236 48.4039 30.6955 48.2456 30.2241 48.1072 29.8119 47.8181 29.5057 47.6609 29.1047 47.523 28.7528 47.5394 28.3124 47.3684 27.9853 47.1391 27.5461 46.7837 27.239 46.4912 26.8658 46.2535 25.9557 46.1807 25.3501 45.614 24.627 45.3655 24.3099 45.0293 24.1295 44.7368 23.8808 44.5419 23.5076 44.3093 23.1624 44.1521 22.7614 44.0142 22.4095 44.0182 21.9792 43.8596 21.642 43.7178 21.3404 43.4472 21.1702 43.2749 20.8956 43.0554 20.5453 42.8943 20.1411 42.69 19.7762 42.4067 19.2703 42.0923 18.7932 41.8128 18.2838 41.2174 17.1982 40.8551 16.1118 40.0584 15.2985 39.7841 15.0184 39.4737 14.8011 39.1812 14.5523 38.8888 14.0549 38.6487 13.4996 38.304 13.0597 38.0555 12.7426 37.6754 12.6306 37.4269 12.3135 35.2507 9.53649 37.7397 11.8333 35.6725 10.0747 34.9747 7.40239 35.9722 10.459 34.503 8.20907 34.2239 7.78175 34.2018 7.13884 33.9181 6.71646 33.4687 6.04746 32.4321 5.42323 31.8714 4.85084 31.656 4.63101 31.4588 4.37927 31.2865 4.10445 31.067 3.75434 30.9942 3.23377 30.7018 2.98504 30.3673 2.70051 29.9219 2.7363 29.5321 2.61202 29.046 1.99149 28.7344 1.49613 28.0702 1.11941 27.5068 0.799982 26.9005 0.621934 26.3158 0.373195L25.4386 0 21.0526 0.373195C20.0763 0.472797 19.0967 0.556179 18.1286 0.746215 17.824 0.805975 17.5505 1.02404 17.2514 1.11941 16.7693 1.27331 16.269 1.32566 15.7895 1.49261 15.1948 1.69956 14.6453 2.12758 14.0351 2.23882 13.3528 2.36328 12.668 2.46746 11.9883 2.61202 10.3456 2.96141 9.45421 3.54492 7.89474 3.73143Z" fill="#B4C7E7" fill-rule="evenodd" transform="matrix(1 0 -0 1.00096 112 207)"/><path d="M9.15788 2.88885C7.3489 3.03324 5.21206 2.33706 3.05263 2.88885 2.37784 3.06122 1.4502 3.96471 1.01754 4.3332 0.904411 4.62213 0.772371 4.906 0.678308 5.19984 0.432976 5.9659 0 7.51084 0 7.51084 0.113131 9.72561 0.176908 11.9426 0.339234 14.1552 0.403171 15.0255 0.678308 15.8831 0.678308 16.7551 0.678308 19.0681 0.452205 21.3772 0.339234 23.6882 0.565337 25.2289 0.747052 26.7747 1.01754 28.3102 1.08677 28.7029 1.1483 29.1106 1.35678 29.4658 1.60964 29.8964 2.03508 30.2362 2.37432 30.6213 2.54658 31.2086 2.76034 32.0625 3.05263 32.6434 3.25181 33.0392 3.50483 33.4138 3.73094 33.799 3.90015 34.5193 4.03684 35.4117 4.4094 36.11 4.8278 36.894 5.39041 37.6215 5.76602 38.4211 5.99212 38.9026 6.14884 39.4122 6.44449 39.8654 7.14844 40.9446 9.01254 42.3416 9.83619 43.0431 11.37 44.3495 9.45353 42.7716 11.8713 44.4876 13.15 45.3952 11.8799 44.9033 13.9064 45.643 14.7196 45.9398 15.42 46.0115 16.2807 46.2209 17.0176 46.4002 17.8938 46.7422 18.655 46.7986 20.7979 46.9573 22.9513 46.9911 25.0993 47.0875 27.1894 47.6806 25.0607 47.1339 28.4912 47.6652 28.9498 47.7362 29.3958 47.8578 29.848 47.9541 30.7524 47.7616 31.7178 47.7143 32.5614 47.3763 33.6678 46.9327 34.6357 46.2679 35.614 45.643 36.0662 45.3541 36.4652 44.9917 36.9708 44.7764 38.6886 44.0448 40.1402 44.0912 42.0585 43.9097 45.9535 43.0806 41.1531 44.2401 44.4326 43.0431 44.8611 42.8867 45.3372 42.8505 45.7894 42.7543 46.2416 42.4654 46.7119 42.196 47.1462 41.8876 47.3918 41.7132 47.5686 41.4732 47.8245 41.3098 48.4767 40.8931 49.1813 40.5395 49.8596 40.1544L50.8771 39.5765C51.6928 38.5345 52.1964 37.768 53.5905 36.9766 53.9297 36.784 54.2435 36.5542 54.6081 36.3989 54.9279 36.2627 55.2864 36.2063 55.6256 36.11 55.9648 35.7248 56.2435 35.2949 56.6431 34.9545 56.9314 34.709 57.4346 34.6656 57.6607 34.3767 57.9193 34.0464 57.8868 33.6064 57.9999 33.2212 57.7919 31.0963 57.8517 30.1164 57.3216 28.3102 57.2349 28.0147 57.0955 27.7325 56.9824 27.4436 56.4036 23.9941 56.9803 26.5711 56.3041 24.5548 56.176 24.1731 56.1485 23.7642 55.9648 23.3993 55.8043 23.0802 55.4689 22.8431 55.2865 22.5326 55.1266 22.2602 55.1457 21.9193 54.9473 21.666 54.6813 21.326 54.269 21.0883 53.9297 20.7994 53.654 20.0947 53.5695 19.6259 52.9122 19.0661 52.6239 18.8206 52.2339 18.6809 51.8947 18.4884 51.6686 18.1994 51.3987 17.9322 51.2164 17.6217 51.0564 17.3493 51.0611 17.0162 50.8771 16.7551 50.7125 16.5216 50.3986 16.3899 50.1988 16.1772 49.9442 15.9061 49.7573 15.5931 49.5203 15.3106 49.1917 14.9189 48.827 14.5496 48.5028 14.1552 47.8121 13.3147 47.3918 12.4736 46.4677 11.844 46.1495 11.6272 45.7894 11.4589 45.4502 11.2663 45.1109 10.8812 44.8324 10.4513 44.4326 10.1108 44.1444 9.86523 43.7034 9.77857 43.4151 9.53304 40.8908 7.38309 43.778 9.16127 41.38 7.79976 40.5706 5.73088 41.7277 8.09728 40.0234 6.35541 39.6997 6.02458 39.6741 5.52684 39.3449 5.19984 38.8236 4.6819 37.6212 4.19863 36.9708 3.75549 36.7209 3.5853 36.4921 3.39041 36.2923 3.17763 36.0377 2.90659 35.9532 2.50357 35.614 2.31099 35.226 2.09072 34.7094 2.11842 34.2572 2.02221 33.6933 1.5418 33.3318 1.1583 32.5614 0.86664 31.9079 0.619341 31.2046 0.481497 30.5263 0.288926L29.5087 0 24.421 0.288926C23.2884 0.366036 22.1521 0.430591 21.0292 0.577715 20.6758 0.623981 20.3585 0.792805 20.0116 0.86664 19.4524 0.985786 18.872 1.02632 18.3158 1.15557 17.6259 1.31579 16.9885 1.64716 16.2807 1.73328 15.4892 1.82963 14.6949 1.91029 13.9064 2.02221 12.0009 2.29271 10.9669 2.74445 9.15788 2.88885Z" fill="#B4C7E7" fill-rule="evenodd" transform="matrix(1 0 -0 1.00096 126 341)"/><path d="M38.4737 5.29466C32.6154 3.54077 26.8367 1.49129 20.8992 0.0327682 19.5232-0.305309 16.689 2.06236 16.1495 2.42462 10.2381 6.39341 20.4894-0.527681 12.8246 4.81625 11.4164 5.79794 10.1744 7.14076 8.54971 7.68629 1.46983 10.0632 14.62 5.57308 5.22475 9.12131 4.61348 9.35204 3.95822 9.44018 3.32496 9.59973 2.6917 10.5563 1.70186 11.3543 1.42495 12.4698 0.353657 16.7857 0.887958 15.0492 0 17.7314 0.949893 18.688 1.73216 19.851 2.8499 20.6015 3.32496 20.9203 3.82919 21.199 4.27485 21.5581 4.62447 21.8399 4.82419 22.3131 5.22475 22.5149 5.80864 22.8089 6.49149 22.8338 7.12475 22.9931 8.69018 24.57 7.55493 23.7804 10.4497 24.4281 12.1444 24.8073 12.932 25.1443 14.7246 25.385 16.3017 25.5967 17.8954 25.6645 19.4743 25.8631 24.8202 26.5361 20.1344 26.0478 24.2242 26.82 26.1172 27.1775 28.0554 27.3061 29.924 27.7766 34.9622 29.045 32.4283 28.57 37.5238 29.2116 37.5267 29.2112 41.4937 28.8439 42.2735 28.255 43.1693 27.5784 43.717 26.4885 44.6485 25.8631 45.1236 25.5443 45.6469 25.2885 46.0735 24.9065 47.0777 24.0078 48.9234 22.0365 48.9234 22.0365 49.24 21.0799 50.1161 20.1448 49.8733 19.1665 49.7214 18.5549 49.2636 16.5032 48.9234 15.818 48.668 15.3039 48.2899 14.8614 47.9733 14.383 47.0653 11.6388 48.1133 14.0928 46.5483 11.9914 43.3257 7.66437 45.8774 10.3586 43.6984 8.1647L38.4737 5.29466Z" fill="#B4C7E7" fill-rule="evenodd" transform="matrix(-0.86546 0.500979 -0.501217 -0.865872 248.595 361.324)"/><path d="M38.7469 5.25769C32.847 3.51604 27.0272 1.48088 21.0476 0.0325393 19.6618-0.303177 16.8075 2.04796 16.2642 2.40769 10.3108 6.34876 20.6349-0.523996 12.9156 4.78261 11.4975 5.75744 10.2466 7.09088 8.61041 7.63261 1.48027 9.99295 14.7238 5.53416 5.26184 9.05761 4.64623 9.28673 3.98633 9.37425 3.34857 9.53268 2.71081 10.4826 1.71395 11.275 1.43507 12.3827 0.356168 16.6684 0.894263 14.9441 0 17.6076 0.956637 18.5575 1.74446 19.7123 2.87014 20.4576 3.34857 20.7742 3.85638 21.0509 4.30521 21.4075 4.65731 21.6874 4.85844 22.1573 5.26184 22.3577 5.84988 22.6496 6.53759 22.6743 7.17534 22.8325 8.75189 24.3985 7.60858 23.6144 10.5239 24.2575 12.2306 24.6341 13.0239 24.9687 14.8291 25.2077 16.4174 25.4179 18.0224 25.4853 19.6125 25.6825 24.9964 26.3508 20.2774 25.8659 24.3962 26.6327 26.3027 26.9877 28.2546 27.1154 30.1364 27.5826 35.2105 28.8422 32.6586 28.3705 37.7902 29.0076 37.7932 29.0071 41.7883 28.6425 42.5736 28.0577 43.4758 27.3858 44.0275 26.3035 44.9656 25.6825 45.444 25.3659 45.971 25.1118 46.4006 24.7326 47.412 23.8401 49.2708 21.8826 49.2708 21.8826 49.5896 20.9327 50.4719 20.0041 50.2274 19.0326 50.0744 18.4254 49.6134 16.3879 49.2708 15.7075 49.0136 15.197 48.6328 14.7576 48.3139 14.2825 47.3995 11.5575 48.4549 13.9944 46.8788 11.9076 43.6333 7.61084 46.2031 10.2862 44.0087 8.10768L38.7469 5.25769Z" fill="#B4C7E7" fill-rule="evenodd" transform="matrix(0.535457 0.845044 -0.8447 0.535239 392.432 152.696)"/><path d="M33.2525 1.01005C32.3025 0.785612 31.664 0.802154 30.8774 0.673472 29.6051 0.465418 27.0772 0 27.0772 0 19.1598 2.0201 11.0748 3.73655 3.32512 6.0603 2.67293 6.25578 2.65408 6.9458 2.37512 7.40708 2.02299 7.98925 1.59164 9.20306 1.42512 9.76392 0.926213 11.4438 0 14.8142 0 14.8142 0.184255 16.2513 0.355718 19.6952 1.42512 21.211 1.74178 21.6599 2.08763 22.0992 2.37512 22.5578 2.72141 23.1101 2.90207 23.7164 3.32512 24.2412 3.5473 24.5168 4.0269 24.6505 4.27535 24.9147 6.94895 27.7569 2.45434 24.9697 8.55069 29.2914 8.86736 29.5159 9.21387 29.7211 9.50069 29.9649 10.9164 31.169 10.5209 31.3365 12.3509 31.985 12.7989 32.1437 13.2964 32.2196 13.776 32.3216 14.8802 32.5564 15.9929 32.7706 17.1014 32.995 32.3744 32.5244 23.6684 33.1893 30.4023 32.3216 35.464 31.6694 31.0662 32.3723 37.053 31.3115L38.953 30.9749C40.8992 29.5956 39.2569 30.5285 43.7035 29.6282 44.6665 29.4332 45.5945 29.1588 46.5537 28.9549 47.1792 28.8219 47.8426 28.7807 48.4539 28.6181 50.5431 28.0628 50.024 27.982 51.779 27.2713 52.394 27.0222 53.0643 26.847 53.6793 26.598 58.3839 24.6928 51.2563 27.2885 57.0046 25.2512 57.3213 24.9145 57.5509 24.5273 57.9546 24.2412 58.5439 23.8235 60.4707 22.9402 61.2799 22.5578L62.7051 19.5277C62.8633 19.1909 63.0817 18.8657 63.18 18.5176L63.6551 16.8343C63.4966 14.1408 63.6001 11.4331 63.18 8.75387 63.0846 8.14593 60.5131 6.57025 60.3297 6.39703 59.8546 5.94816 59.4643 5.44711 58.9046 5.05025 58.3449 4.65354 57.6489 4.36628 57.0046 4.0402 55.4873 3.27208 53.3951 2.40185 51.779 2.0201L50.3539 1.68352C45.7619 1.79566 41.1647 1.8289 36.5779 2.0201 26.9163 2.42285 34.2025 1.23449 33.2525 1.01005Z" fill="#B4C7E7" fill-rule="evenodd" transform="matrix(0.792241 -0.610208 0.610357 0.792435 198.574 114.489)"/><path d="M32.9103 1.43739C31.9701 1.118 31.3381 1.14154 30.5596 0.958414 29.3004 0.662333 26.7985 0 26.7985 0 18.9626 2.87479 10.9608 5.31745 3.2909 8.62437 2.64542 8.90257 2.62676 9.88452 2.35067 10.541 2.00217 11.3695 1.57526 13.0968 1.41045 13.895 0.91668 16.2856 0 21.0819 0 21.0819 0.182359 23.1271 0.352057 28.0281 1.41045 30.1853 1.72386 30.8241 2.06614 31.4493 2.35067 32.1019 2.6934 32.8878 2.8722 33.7507 3.2909 34.4975 3.51079 34.8897 3.98546 35.0799 4.23134 35.4559 6.87743 39.5007 2.42908 35.5342 8.46268 41.6844 8.77609 42.0038 9.11904 42.2958 9.40291 42.6429 10.804 44.3564 10.4127 44.5948 12.2238 45.5176 12.6672 45.7435 13.1596 45.8515 13.6343 45.9966 14.7271 46.3307 15.8283 46.6356 16.9254 46.955 32.0411 46.2852 23.4248 47.2314 30.0894 45.9966 35.099 45.0685 30.7464 46.0688 36.6716 44.5592L38.5521 44.0802C40.4783 42.1172 38.8528 43.4449 43.2537 42.1636 44.2068 41.8861 45.1252 41.4957 46.0745 41.2055 46.6936 41.0162 47.3502 40.9576 47.9552 40.7262 50.0229 39.936 49.5091 39.821 51.2461 38.8097 51.8547 38.4552 52.5182 38.2057 53.1268 37.8515 57.783 35.1401 50.7288 38.8341 56.4179 35.9349 56.7313 35.4557 56.9585 34.9047 57.3581 34.4975 57.9414 33.903 59.8483 32.6461 60.6492 32.1019L62.0597 27.7897C62.2163 27.3105 62.4324 26.8476 62.5297 26.3523L62.9999 23.9567C62.8431 20.1237 62.9455 16.2704 62.5297 12.4576 62.4353 11.5924 59.8903 9.35008 59.7088 9.10357 59.2386 8.46478 58.8523 7.75174 58.2984 7.18697 57.7444 6.62243 57.0556 6.21362 56.4179 5.74958 54.9162 4.65648 52.8456 3.41806 51.2461 2.87479L49.8357 2.39581C45.2909 2.55539 40.7411 2.6027 36.2014 2.87479 26.6392 3.44794 33.8505 1.75679 32.9103 1.43739Z" fill="#B4C7E7" fill-rule="evenodd" transform="matrix(1 0 -0 1.00096 241 154)"/><path d="M38.4718 5.29441C32.6139 3.5406 26.8354 1.49122 20.8982 0.0327666 19.5222-0.305294 16.6882 2.06226 16.1487 2.4245 10.2376 6.39311 20.4885-0.527656 12.8239 4.81601 11.4159 5.79766 10.1739 7.14041 8.54929 7.68592 1.46976 10.0627 14.6193 5.57281 5.22449 9.12087 4.61325 9.35159 3.95803 9.43972 3.3248 9.59926 2.69157 10.5558 1.70178 11.3537 1.42488 12.4692 0.35364 16.7849 0.887915 15.0485 0 17.7306 0.949847 18.6871 1.73207 19.85 2.84976 20.6005 3.3248 20.9193 3.82901 21.198 4.27465 21.557 4.62425 21.8388 4.82396 22.312 5.22449 22.5138 5.80836 22.8078 6.49118 22.8327 7.12441 22.992 8.68976 24.5689 7.55457 23.7793 10.4492 24.4269 12.1438 24.8061 12.9314 25.1431 14.7239 25.3837 16.3009 25.5955 17.8945 25.6633 19.4733 25.8619 24.819 26.5349 20.1335 26.0465 24.223 26.8187 26.116 27.1762 28.054 27.3048 29.9225 27.7752 34.9606 29.0436 32.4267 28.5686 37.522 29.2102 37.5249 29.2097 41.4917 28.8425 42.2714 28.2536 43.1672 27.5771 43.7149 26.4872 44.6464 25.8619 45.1214 25.543 45.6447 25.2872 46.0713 24.9053 47.0754 24.0066 48.921 22.0354 48.921 22.0354 49.2376 21.0789 50.1137 20.1438 49.8709 19.1655 49.719 18.554 49.2612 16.5024 48.921 15.8172 48.6657 15.3031 48.2876 14.8607 47.971 14.3823 47.0631 11.6383 48.111 14.0921 46.5461 11.9908 43.3236 7.664 45.8751 10.3581 43.6963 8.16431L38.4718 5.29441Z" fill="#B4C7E7" fill-rule="evenodd" transform="matrix(0.894151 -0.447766 0.448022 0.894663 202.559 148.913)"/><path d="M38.737 5.25635C32.8387 3.51515 27.0203 1.4805 21.0422 0.0325311 19.6568-0.3031 16.8032 2.04744 16.26 2.40707 10.3082 6.34715 20.6297-0.523862 12.9123 4.78139 11.4946 5.75598 10.244 7.08908 8.60822 7.63067 1.47989 9.9904 14.7201 5.53275 5.2605 9.0553 4.64505 9.28437 3.98531 9.37186 3.34772 9.53026 2.71012 10.4799 1.71351 11.2721 1.4347 12.3795 0.356078 16.6642 0.894035 14.9403 0 17.6031 0.956394 18.5528 1.74401 19.7073 2.86941 20.4524 3.34772 20.769 3.8554 21.0456 4.30411 21.4021 4.65612 21.6818 4.85721 22.1516 5.2605 22.352 5.84839 22.6439 6.53592 22.6685 7.17352 22.8267 8.74966 24.3922 7.60664 23.6084 10.5212 24.2513 12.2275 24.6278 13.0206 24.9623 14.8253 25.2013 16.4132 25.4115 18.0178 25.4788 19.6075 25.676 24.99 26.3441 20.2722 25.8593 24.39 26.6259 26.296 26.9808 28.2474 27.1085 30.1288 27.5756 35.2015 28.8349 32.6502 28.3633 37.7806 29.0002 37.7835 28.9998 41.7777 28.6352 42.5628 28.0505 43.4647 27.3788 44.0163 26.2968 44.9541 25.676 45.4324 25.3594 45.9593 25.1055 46.3888 24.7263 47.3999 23.8341 49.2582 21.877 49.2582 21.877 49.577 20.9273 50.4591 19.999 50.2146 19.0278 50.0617 18.4207 49.6007 16.3838 49.2582 15.7035 49.0011 15.1931 48.6204 14.7538 48.3016 14.2789 47.3875 11.5546 48.4426 13.9908 46.8669 11.9046 43.6222 7.6089 46.1914 10.2836 43.9975 8.10562L38.737 5.25635Z" fill="#B4C7E7" fill-rule="evenodd" transform="matrix(0.143125 -0.99063 0.989724 0.142994 110.358 332.215)"/><path d="M38.7366 5.25629C32.8383 3.51511 27.02 1.48048 21.042 0.0325307 19.6566-0.303097 16.803 2.04742 16.2599 2.40705 10.3081 6.34708 20.6295-0.523857 12.9122 4.78134 11.4945 5.75592 10.2439 7.08901 8.60813 7.63059 1.47988 9.9903 14.7199 5.53269 5.26045 9.05521 4.645 9.28427 3.98527 9.37177 3.34768 9.53016 2.71009 10.4798 1.71349 11.272 1.43469 12.3794 0.356074 16.664 0.894026 14.9401 0 17.6029 0.956384 18.5526 1.74399 19.7071 2.86938 20.4522 3.34768 20.7687 3.85536 21.0454 4.30407 21.4019 4.65607 21.6816 4.85715 22.1514 5.26045 22.3517 5.84833 22.6436 6.53585 22.6683 7.17344 22.8265 8.74957 24.392 7.60656 23.6081 10.5211 24.2511 12.2274 24.6276 13.0204 24.9621 14.8252 25.201 16.4131 25.4112 18.0177 25.4785 19.6073 25.6757 24.9898 26.3438 20.272 25.859 24.3897 26.6256 26.2957 26.9805 28.2471 27.1082 30.1285 27.5753 35.2012 28.8346 32.6499 28.363 37.7802 28.9999 37.7831 28.9995 41.7772 28.6349 42.5624 28.0502 43.4643 27.3785 44.0158 26.2965 44.9537 25.6757 45.432 25.3592 45.9588 25.1052 46.3883 24.726 47.3994 23.8338 49.2577 21.8768 49.2577 21.8768 49.5765 20.9271 50.4586 19.9988 50.2141 19.0276 50.0611 18.4205 49.6002 16.3836 49.2577 15.7034 49.0006 15.193 48.6199 14.7537 48.3011 14.2787 47.387 11.5545 48.4421 13.9907 46.8664 11.9045 43.6218 7.60882 46.1909 10.2835 43.997 8.10554L38.7366 5.25629Z" fill="#B4C7E7" fill-rule="evenodd" transform="matrix(-0.0976675 0.996161 -0.995228 -0.097576 150.924 99.1168)"/><path d="M30.9071 4.50739C26.201 3.01429 21.5587 1.26955 16.789 0.0278958 15.6836-0.259912 13.4068 1.75571 12.9734 2.0641 8.22458 5.44277 16.4598-0.449219 10.3024 4.10011 9.17117 4.93583 8.17338 6.07898 6.86824 6.5434 1.18076 8.56691 11.7447 4.74441 4.1972 7.76505 3.70615 7.96147 3.17976 8.0365 2.67104 8.17233 2.16232 8.98669 1.36716 9.666 1.14471 10.6156 0.284104 14.2898 0.713323 12.8115 0 15.0949 0.763078 15.9093 1.39149 16.8993 2.28941 17.5382 2.67104 17.8097 3.07611 18.0469 3.43412 18.3526 3.71498 18.5925 3.87542 18.9953 4.1972 19.1671 4.66626 19.4174 5.21481 19.4386 5.72353 19.5742 6.98109 20.9167 6.06911 20.2445 8.39457 20.7959 9.75596 21.1187 10.3887 21.4055 11.8287 21.6104 13.0956 21.7907 14.3759 21.8484 15.6443 22.0175 19.9388 22.5904 16.1746 22.1747 19.46 22.8321 20.9808 23.1364 22.5377 23.2459 24.0388 23.6464 28.0862 24.7263 26.0506 24.3219 30.144 24.8681 30.1463 24.8677 33.3331 24.5551 33.9596 24.0537 34.6792 23.4777 35.1192 22.5498 35.8675 22.0175 36.2492 21.7461 36.6695 21.5283 37.0122 21.2031 37.8189 20.438 39.3017 18.7599 39.3017 18.7599 39.556 17.9455 40.2598 17.1494 40.0647 16.3166 39.9427 15.796 39.5749 14.0493 39.3017 13.466 39.0965 13.0283 38.7928 12.6516 38.5384 12.2443 37.809 9.90822 38.6509 11.9973 37.3937 10.2083 34.8048 6.52474 36.8547 8.81835 35.1043 6.95068L30.9071 4.50739Z" fill="#B4C7E7" fill-rule="evenodd" transform="matrix(0.143125 -0.99063 0.989724 0.142994 377.39 293.988)"/><path d="M37.7721 9.17904C37.2916 8.26113 37.7246 8.58565 35.9377 6.73134 35.3836 6.15646 34.9583 5.41476 34.3653 4.89553 33.6481 4.2676 33.1318 3.70154 32.2686 3.3656 29.6552 2.34853 30.1242 3.04585 27.0272 2.14182 26.6778 2.03977 26.3252 1.9513 25.9789 1.83581 25.7133 1.7472 25.4607 1.60799 25.1927 1.52979 24.7606 1.40374 24.3172 1.33667 23.8824 1.22392 23.5307 1.13271 23.1884 0.993215 22.834 0.917904 22.2264 0.788819 21.6101 0.721602 20.9996 0.611888 20.4744 0.517495 19.9556 0.37092 19.4272 0.306016 18.2944 0.166813 17.1558 0.102054 16.0202 0 14.6225 0.102054 13.2104 0.0510268 11.827 0.306016 11.5159 0.363403 11.2762 0.673611 11.0408 0.917904 9.58217 2.43165 9.92587 2.70644 8.42018 3.3656 6.64568 4.14256 8.06496 3.23738 6.58563 3.97763 6.22658 4.15731 5.90008 4.4201 5.53731 4.58952 5.02435 4.82904 3.96488 5.20141 3.96488 5.20141 3.28316 7.58969 4.39996 4.13331 2.39245 7.64924 2.21775 7.95526 2.07004 8.28469 1.86834 8.56715 1.14366 9.58248 1.0461 9.26316 0.558027 10.403 0.434461 10.6915 0.383326 11.0148 0.295914 11.3209-0.0914981 14.4858-0.10586 13.525 0.295914 17.7462 0.335658 18.1641 0.396946 18.5938 0.558027 18.97 0.668592 19.228 0.927734 19.3568 1.08213 19.582 1.27887 19.8692 1.40949 20.2128 1.60623 20.4999 1.76063 20.7251 1.97606 20.8866 2.13046 21.1118 2.3272 21.3989 2.43182 21.7696 2.65456 22.0297 2.8773 22.2897 3.17866 22.4376 3.44077 22.6416 3.52819 22.9476 3.5371 23.3015 3.70289 23.5595 4.07346 24.1364 4.57639 24.5794 5.0132 25.0894 6.10796 26.3677 5.50326 25.748 6.84775 26.9252 7.02245 27.2312 7.13487 27.601 7.37185 27.8431 7.84593 28.3274 8.34663 28.8343 8.94428 29.0669 9.97453 29.4679 10.8895 29.7759 11.827 30.5968 13.1635 31.767 12.4515 31.3911 13.9237 31.8206 14.2731 32.0246 14.6469 32.1797 14.9719 32.4326 16.4106 33.5525 14.4578 32.6404 16.2823 33.3505 17.8548 33.0445 19.4451 32.8452 20.9996 32.4326 21.3806 32.3316 21.6851 31.99 22.0478 31.8206 22.5608 31.5811 23.0801 31.3439 23.6203 31.2087 26.6519 30.4503 24.7383 31.3067 26.7651 30.5968 27.2943 30.4115 28.3375 29.9848 28.3375 29.9848 30.496 30.8249 29.363 30.688 31.7445 30.2908 32.2686 29.8829 32.9675 29.6788 33.3169 29.0669 33.7063 28.3849 33.8315 28.0355 34.3653 27.5371 34.6113 27.3074 34.9056 27.1549 35.1515 26.9252 35.3444 26.745 35.4827 26.4934 35.6756 26.3132 35.9215 26.0835 36.2199 25.9368 36.4618 25.7013 36.9587 25.2179 37.4776 24.5533 37.7721 23.8655 38.2822 22.6744 37.7924 23.0966 38.2964 21.7237 38.4204 21.3857 38.6796 21.1346 38.8205 20.8058 39.9054 18.2722 38.1047 21.6005 39.6067 18.97 39.4 14.3869 40.2529 14.4685 38.8205 12.2388 38.7463 12.1234 38.2526 10.0969 37.7721 9.17904Z" fill="#B4C7E7" fill-rule="evenodd" transform="matrix(0.679554 -0.733724 0.733671 0.679505 363.129 365.296)"/><path d="M0 0C3.15736 31.2193 6.31483 62.4387 30.6024 88.4718 54.8899 114.505 103.829 142.063 145.725 156.199 187.621 170.334 255.505 157.114 281.979 173.283 308.452 189.452 300.801 282.093 304.566 253.212 308.331 224.332 303.352 42.6088 304.566 0" fill="#D6D4D4" fill-rule="evenodd" transform="matrix(1 0 -0 1.00096 106 80)"/><rect x="0" y="0" width="303" height="304.709" fill="#B4C7E7" fill-opacity="0" transform="matrix(1 0 -0 1.00096 109 81)"/><path d="M-2.00029-2.00029 305-2.00029 305 306.709-2.00029 306.709ZM2.00029 304.709 0 302.709 303 302.709 301 304.709 301 0 303 2.00029 0 2.00029 2.00029 0Z" fill="#3B3838" transform="matrix(1 0 -0 1.00096 109 81)"/><path d="M4.7313-4.69812 132.676 124.15 123.213 133.546-4.7313 4.69812ZM137.44 110.022 151.435 152.505 109.052 138.211Z" fill="#3B3838" transform="matrix(1 0 0 -1.00096 261.5 234.15)"/><path d="M6.66765-9.18159e-06 6.66781 119.167-6.66748 119.167-6.66765 9.18159e-06ZM20.0031 112.499 0.000210005 152.505-20.0028 112.499Z" fill="#3B3838" transform="matrix(1 0 -0 1.00096 261.5 234.5)"/><path d="M4.69517-4.73423 132.458 121.975 123.068 131.443-4.69517 4.73423ZM137.115 107.811 151.434 150.185 108.944 136.217Z" fill="#3B3838" transform="matrix(-1 -8.74228e-08 8.75063e-08 -1.00096 260.934 233.829)"/><path d="M1.50022-1.1477e-06 1.50032 129.753-1.50012 129.753-1.50022 1.1477e-06ZM4.50076 128.253 0.000105002 137.254-4.50056 128.253Z" fill="#3B3838" transform="matrix(1 0 0 -1.00096 261.5 218.886)"/><path d="M1.15581e-06-1.50022 128.79-1.50012 128.79 1.50032-1.15581e-06 1.50022ZM127.29-4.50056 136.291 0.000105002 127.29 4.50076Z" fill="#3B3838" transform="matrix(-1 -8.74228e-08 -8.75063e-08 1.00096 245.791 234.5)"/><path d="M1.06454-1.05707 136.506 135.341 134.377 137.455-1.06454 1.05707ZM137.578 132.163 140.727 141.721 131.191 138.505Z" fill="#3B3838" transform="matrix(-1 -8.74228e-08 -8.75063e-08 1.00096 250.227 244.5)"/><path d="M1.05895-1.06268 136.472 133.876 134.354 136.001-1.05895 1.06268ZM137.528 130.692 140.727 140.233 131.174 137.068Z" fill="#3B3838" transform="matrix(1 0 -0 1.00096 272.5 244.5)"/><path d="M0 15.4852C-1.9097e-15 6.93297 6.71573-1.97147e-15 15-3.94295e-15 23.2843-7.8859e-15 30 6.93297 30 15.4852 30 24.0375 23.2843 30.9704 15 30.9704 6.71573 30.9704-9.5485e-15 24.0375 0 15.4852Z" stroke="#3B3838" stroke-width="2.00029" stroke-miterlimit="8" fill="#3B3838" fill-rule="evenodd" transform="matrix(1 0 -0 1.00096 246 218)"/><path d="M1.15581e-06-1.50022 128.79-1.50012 128.79 1.50032-1.15581e-06 1.50022ZM127.29-4.50056 136.291 0.000105002 127.29 4.50076Z" fill="#3B3838" transform="matrix(1 0 -0 1.00096 276.5 234.5)"/></g></svg>