<?xml version="1.0" encoding="utf-8" standalone="no"?>
<!DOCTYPE svg PUBLIC "-//W3C//DTD SVG 1.1//EN"
  "http://www.w3.org/Graphics/SVG/1.1/DTD/svg11.dtd">
<!-- Created with matplotlib (http://matplotlib.org/) -->
<svg height="345.6pt" version="1.1" viewBox="0 0 460.8 345.6" width="460.8pt" xmlns="http://www.w3.org/2000/svg" xmlns:xlink="http://www.w3.org/1999/xlink">
 <defs>
  <style type="text/css">
*{stroke-linecap:butt;stroke-linejoin:round;}
  </style>
 </defs>
 <g id="figure_1">
  <g id="patch_1">
   <path d="M 0 345.6 
L 460.8 345.6 
L 460.8 0 
L 0 0 
z
" style="fill:#ffffff;"/>
  </g>
  <g id="axes_1">
   <g id="patch_2">
    <path d="M 57.6 293.479494 
L 343.296 293.479494 
L 343.296 55.576506 
L 57.6 55.576506 
z
" style="fill:#ffffff;"/>
   </g>
   <g id="matplotlib.axis_1">
    <g id="xtick_1">
     <g id="line2d_1">
      <defs>
       <path d="M 0 0 
L 0 3.5 
" id="m8e8b7000ab" style="stroke:#000000;stroke-width:0.8;"/>
      </defs>
      <g>
       <use style="stroke:#000000;stroke-width:0.8;" x="104.861978" xlink:href="#m8e8b7000ab" y="293.479494"/>
      </g>
     </g>
     <g id="text_1">
      <!-- 0.2 -->
      <defs>
       <path d="M 31.78125 66.40625 
Q 24.171875 66.40625 20.328125 58.90625 
Q 16.5 51.421875 16.5 36.375 
Q 16.5 21.390625 20.328125 13.890625 
Q 24.171875 6.390625 31.78125 6.390625 
Q 39.453125 6.390625 43.28125 13.890625 
Q 47.125 21.390625 47.125 36.375 
Q 47.125 51.421875 43.28125 58.90625 
Q 39.453125 66.40625 31.78125 66.40625 
z
M 31.78125 74.21875 
Q 44.046875 74.21875 50.515625 64.515625 
Q 56.984375 54.828125 56.984375 36.375 
Q 56.984375 17.96875 50.515625 8.265625 
Q 44.046875 -1.421875 31.78125 -1.421875 
Q 19.53125 -1.421875 13.0625 8.265625 
Q 6.59375 17.96875 6.59375 36.375 
Q 6.59375 54.828125 13.0625 64.515625 
Q 19.53125 74.21875 31.78125 74.21875 
z
" id="DejaVuSans-30"/>
       <path d="M 10.6875 12.40625 
L 21 12.40625 
L 21 0 
L 10.6875 0 
z
" id="DejaVuSans-2e"/>
       <path d="M 19.1875 8.296875 
L 53.609375 8.296875 
L 53.609375 0 
L 7.328125 0 
L 7.328125 8.296875 
Q 12.9375 14.109375 22.625 23.890625 
Q 32.328125 33.6875 34.8125 36.53125 
Q 39.546875 41.84375 41.421875 45.53125 
Q 43.3125 49.21875 43.3125 52.78125 
Q 43.3125 58.59375 39.234375 62.25 
Q 35.15625 65.921875 28.609375 65.921875 
Q 23.96875 65.921875 18.8125 64.3125 
Q 13.671875 62.703125 7.8125 59.421875 
L 7.8125 69.390625 
Q 13.765625 71.78125 18.9375 73 
Q 24.125 74.21875 28.421875 74.21875 
Q 39.75 74.21875 46.484375 68.546875 
Q 53.21875 62.890625 53.21875 53.421875 
Q 53.21875 48.921875 51.53125 44.890625 
Q 49.859375 40.875 45.40625 35.40625 
Q 44.1875 33.984375 37.640625 27.21875 
Q 31.109375 20.453125 19.1875 8.296875 
z
" id="DejaVuSans-32"/>
      </defs>
      <g transform="translate(96.910415 308.077932)scale(0.1 -0.1)">
       <use xlink:href="#DejaVuSans-30"/>
       <use x="63.623047" xlink:href="#DejaVuSans-2e"/>
       <use x="95.410156" xlink:href="#DejaVuSans-32"/>
      </g>
     </g>
    </g>
    <g id="xtick_2">
     <g id="line2d_2">
      <g>
       <use style="stroke:#000000;stroke-width:0.8;" x="152.654989" xlink:href="#m8e8b7000ab" y="293.479494"/>
      </g>
     </g>
     <g id="text_2">
      <!-- 0.4 -->
      <defs>
       <path d="M 37.796875 64.3125 
L 12.890625 25.390625 
L 37.796875 25.390625 
z
M 35.203125 72.90625 
L 47.609375 72.90625 
L 47.609375 25.390625 
L 58.015625 25.390625 
L 58.015625 17.1875 
L 47.609375 17.1875 
L 47.609375 0 
L 37.796875 0 
L 37.796875 17.1875 
L 4.890625 17.1875 
L 4.890625 26.703125 
z
" id="DejaVuSans-34"/>
      </defs>
      <g transform="translate(144.703426 308.077932)scale(0.1 -0.1)">
       <use xlink:href="#DejaVuSans-30"/>
       <use x="63.623047" xlink:href="#DejaVuSans-2e"/>
       <use x="95.410156" xlink:href="#DejaVuSans-34"/>
      </g>
     </g>
    </g>
    <g id="xtick_3">
     <g id="line2d_3">
      <g>
       <use style="stroke:#000000;stroke-width:0.8;" x="200.448" xlink:href="#m8e8b7000ab" y="293.479494"/>
      </g>
     </g>
     <g id="text_3">
      <!-- 0.6 -->
      <defs>
       <path d="M 33.015625 40.375 
Q 26.375 40.375 22.484375 35.828125 
Q 18.609375 31.296875 18.609375 23.390625 
Q 18.609375 15.53125 22.484375 10.953125 
Q 26.375 6.390625 33.015625 6.390625 
Q 39.65625 6.390625 43.53125 10.953125 
Q 47.40625 15.53125 47.40625 23.390625 
Q 47.40625 31.296875 43.53125 35.828125 
Q 39.65625 40.375 33.015625 40.375 
z
M 52.59375 71.296875 
L 52.59375 62.3125 
Q 48.875 64.0625 45.09375 64.984375 
Q 41.3125 65.921875 37.59375 65.921875 
Q 27.828125 65.921875 22.671875 59.328125 
Q 17.53125 52.734375 16.796875 39.40625 
Q 19.671875 43.65625 24.015625 45.921875 
Q 28.375 48.1875 33.59375 48.1875 
Q 44.578125 48.1875 50.953125 41.515625 
Q 57.328125 34.859375 57.328125 23.390625 
Q 57.328125 12.15625 50.6875 5.359375 
Q 44.046875 -1.421875 33.015625 -1.421875 
Q 20.359375 -1.421875 13.671875 8.265625 
Q 6.984375 17.96875 6.984375 36.375 
Q 6.984375 53.65625 15.1875 63.9375 
Q 23.390625 74.21875 37.203125 74.21875 
Q 40.921875 74.21875 44.703125 73.484375 
Q 48.484375 72.75 52.59375 71.296875 
z
" id="DejaVuSans-36"/>
      </defs>
      <g transform="translate(192.496438 308.077932)scale(0.1 -0.1)">
       <use xlink:href="#DejaVuSans-30"/>
       <use x="63.623047" xlink:href="#DejaVuSans-2e"/>
       <use x="95.410156" xlink:href="#DejaVuSans-36"/>
      </g>
     </g>
    </g>
    <g id="xtick_4">
     <g id="line2d_4">
      <g>
       <use style="stroke:#000000;stroke-width:0.8;" x="248.241011" xlink:href="#m8e8b7000ab" y="293.479494"/>
      </g>
     </g>
     <g id="text_4">
      <!-- 0.8 -->
      <defs>
       <path d="M 31.78125 34.625 
Q 24.75 34.625 20.71875 30.859375 
Q 16.703125 27.09375 16.703125 20.515625 
Q 16.703125 13.921875 20.71875 10.15625 
Q 24.75 6.390625 31.78125 6.390625 
Q 38.8125 6.390625 42.859375 10.171875 
Q 46.921875 13.96875 46.921875 20.515625 
Q 46.921875 27.09375 42.890625 30.859375 
Q 38.875 34.625 31.78125 34.625 
z
M 21.921875 38.8125 
Q 15.578125 40.375 12.03125 44.71875 
Q 8.5 49.078125 8.5 55.328125 
Q 8.5 64.0625 14.71875 69.140625 
Q 20.953125 74.21875 31.78125 74.21875 
Q 42.671875 74.21875 48.875 69.140625 
Q 55.078125 64.0625 55.078125 55.328125 
Q 55.078125 49.078125 51.53125 44.71875 
Q 48 40.375 41.703125 38.8125 
Q 48.828125 37.15625 52.796875 32.3125 
Q 56.78125 27.484375 56.78125 20.515625 
Q 56.78125 9.90625 50.3125 4.234375 
Q 43.84375 -1.421875 31.78125 -1.421875 
Q 19.734375 -1.421875 13.25 4.234375 
Q 6.78125 9.90625 6.78125 20.515625 
Q 6.78125 27.484375 10.78125 32.3125 
Q 14.796875 37.15625 21.921875 38.8125 
z
M 18.3125 54.390625 
Q 18.3125 48.734375 21.84375 45.5625 
Q 25.390625 42.390625 31.78125 42.390625 
Q 38.140625 42.390625 41.71875 45.5625 
Q 45.3125 48.734375 45.3125 54.390625 
Q 45.3125 60.0625 41.71875 63.234375 
Q 38.140625 66.40625 31.78125 66.40625 
Q 25.390625 66.40625 21.84375 63.234375 
Q 18.3125 60.0625 18.3125 54.390625 
z
" id="DejaVuSans-38"/>
      </defs>
      <g transform="translate(240.289449 308.077932)scale(0.1 -0.1)">
       <use xlink:href="#DejaVuSans-30"/>
       <use x="63.623047" xlink:href="#DejaVuSans-2e"/>
       <use x="95.410156" xlink:href="#DejaVuSans-38"/>
      </g>
     </g>
    </g>
    <g id="xtick_5">
     <g id="line2d_5">
      <g>
       <use style="stroke:#000000;stroke-width:0.8;" x="296.034022" xlink:href="#m8e8b7000ab" y="293.479494"/>
      </g>
     </g>
     <g id="text_5">
      <!-- 1.0 -->
      <defs>
       <path d="M 12.40625 8.296875 
L 28.515625 8.296875 
L 28.515625 63.921875 
L 10.984375 60.40625 
L 10.984375 69.390625 
L 28.421875 72.90625 
L 38.28125 72.90625 
L 38.28125 8.296875 
L 54.390625 8.296875 
L 54.390625 0 
L 12.40625 0 
z
" id="DejaVuSans-31"/>
      </defs>
      <g transform="translate(288.08246 308.077932)scale(0.1 -0.1)">
       <use xlink:href="#DejaVuSans-31"/>
       <use x="63.623047" xlink:href="#DejaVuSans-2e"/>
       <use x="95.410156" xlink:href="#DejaVuSans-30"/>
      </g>
     </g>
    </g>
   </g>
   <g id="matplotlib.axis_2">
    <g id="ytick_1">
     <g id="line2d_6">
      <defs>
       <path d="M 0 0 
L -3.5 0 
" id="mf02952e4ed" style="stroke:#000000;stroke-width:0.8;"/>
      </defs>
      <g>
       <use style="stroke:#000000;stroke-width:0.8;" x="57.6" xlink:href="#mf02952e4ed" y="246.217517"/>
      </g>
     </g>
     <g id="text_6">
      <!-- 0.2 -->
      <g transform="translate(34.696875 250.016735)scale(0.1 -0.1)">
       <use xlink:href="#DejaVuSans-30"/>
       <use x="63.623047" xlink:href="#DejaVuSans-2e"/>
       <use x="95.410156" xlink:href="#DejaVuSans-32"/>
      </g>
     </g>
    </g>
    <g id="ytick_2">
     <g id="line2d_7">
      <g>
       <use style="stroke:#000000;stroke-width:0.8;" x="57.6" xlink:href="#mf02952e4ed" y="198.424506"/>
      </g>
     </g>
     <g id="text_7">
      <!-- 0.4 -->
      <g transform="translate(34.696875 202.223724)scale(0.1 -0.1)">
       <use xlink:href="#DejaVuSans-30"/>
       <use x="63.623047" xlink:href="#DejaVuSans-2e"/>
       <use x="95.410156" xlink:href="#DejaVuSans-34"/>
      </g>
     </g>
    </g>
    <g id="ytick_3">
     <g id="line2d_8">
      <g>
       <use style="stroke:#000000;stroke-width:0.8;" x="57.6" xlink:href="#mf02952e4ed" y="150.631494"/>
      </g>
     </g>
     <g id="text_8">
      <!-- 0.6 -->
      <g transform="translate(34.696875 154.430713)scale(0.1 -0.1)">
       <use xlink:href="#DejaVuSans-30"/>
       <use x="63.623047" xlink:href="#DejaVuSans-2e"/>
       <use x="95.410156" xlink:href="#DejaVuSans-36"/>
      </g>
     </g>
    </g>
    <g id="ytick_4">
     <g id="line2d_9">
      <g>
       <use style="stroke:#000000;stroke-width:0.8;" x="57.6" xlink:href="#mf02952e4ed" y="102.838483"/>
      </g>
     </g>
     <g id="text_9">
      <!-- 0.8 -->
      <g transform="translate(34.696875 106.637702)scale(0.1 -0.1)">
       <use xlink:href="#DejaVuSans-30"/>
       <use x="63.623047" xlink:href="#DejaVuSans-2e"/>
       <use x="95.410156" xlink:href="#DejaVuSans-38"/>
      </g>
     </g>
    </g>
   </g>
   <g id="LineCollection_1">
    <path clip-path="url(#pe733b05394)" d="M 280.758836 293.479494 
L 280.93634 292.417428 
L 282.310172 287.107093 
L 282.43711 284.982959 
L 282.280383 282.858825 
L 281.696119 279.510842 
L 280.39743 275.424357 
L 279.482582 273.300223 
L 278.212611 271.176089 
L 277.407699 270.114022 
L 276.328468 269.051955 
L 274.775457 267.989888 
L 274.261651 267.7017 
L 272.137517 266.876363 
L 270.013383 266.347164 
L 266.827182 265.797995 
L 260.454781 265.025583 
L 251.958245 264.220582 
L 241.337576 263.433496 
L 230.716907 262.883736 
L 220.096238 262.576093 
L 206.289368 262.442304 
L 194.606632 262.278736 
L 187.172164 261.954018 
L 180.799762 261.439255 
L 175.489428 260.808984 
L 169.117026 259.799491 
L 161.682558 258.327123 
L 145.751554 255.040323 
L 141.503286 254.430323 
L 138.317086 254.133176 
L 135.130885 254.032457 
L 131.898487 254.183019 
L 129.82055 254.46317 
L 127.696416 254.928385 
L 125.572283 255.620812 
L 123.448149 256.588925 
L 121.324015 257.874193 
L 119.18578 259.493353 
L 116.01368 262.330563 
L 112.283092 265.865755 
L 108.579212 269.075639 
L 105.393011 271.463455 
L 102.20681 273.486593 
L 99.02061 275.15043 
L 96.896476 276.071689 
L 93.710275 277.185039 
L 90.524074 277.981676 
L 87.337874 278.456497 
L 85.21374 278.581041 
L 83.089606 278.530213 
L 80.965472 278.276594 
L 78.841338 277.781749 
L 76.717204 276.971245 
L 75.655138 276.420885 
L 74.173392 275.424357 
L 72.935713 274.36229 
L 71.932346 273.300223 
L 71.089143 272.238156 
L 69.741908 270.114022 
L 68.693589 267.989888 
L 67.847671 265.865755 
L 66.842885 262.679554 
L 65.833846 258.431286 
L 64.905414 253.120952 
L 64.085666 246.74855 
L 63.356115 239.314082 
L 62.52135 228.693413 
L 61.598489 213.824476 
L 60.786201 196.571711 
L 60.05836 175.590067 
L 59.395611 150.100461 
L 58.751058 116.11432 
L 58.152189 71.507509 
L 58.055205 56.638572 
L 58.066896 55.576506 
L 58.066896 55.576506 
" style="fill:none;stroke:#000080;stroke-width:1.5;"/>
   </g>
   <g id="LineCollection_2">
    <path clip-path="url(#pe733b05394)" d="M 288.587471 293.479494 
L 289.231302 287.107093 
L 289.130587 283.601005 
L 288.605245 277.548491 
L 286.426397 255.245086 
L 285.223347 244.624416 
L 284.353909 238.252015 
L 283.297573 231.879613 
L 282.420738 227.631346 
L 281.27517 223.383078 
L 280.559443 221.258944 
L 279.571985 219.064877 
L 278.141606 217.010677 
L 277.447851 216.279166 
L 276.385784 215.556861 
L 275.323717 215.126515 
L 274.073666 214.886543 
L 272.137517 214.823961 
L 268.951316 215.086591 
L 263.640981 215.567177 
L 258.330647 215.820345 
L 248.772045 215.990519 
L 222.220372 216.163937 
L 188.23423 216.368272 
L 169.117026 216.755656 
L 138.317086 217.422136 
L 133.006751 217.294952 
L 128.663513 217.010677 
L 124.510216 216.538 
L 120.261948 215.827233 
L 114.951613 214.647895 
L 107.517145 212.908967 
L 104.330944 212.448038 
L 102.20681 212.362448 
L 100.082677 212.530183 
L 97.958543 213.026813 
L 95.834409 213.931818 
L 94.317465 214.886543 
L 92.648208 216.228554 
L 90.869597 218.072743 
L 89.462007 219.798738 
L 87.337874 222.849742 
L 84.151673 228.03873 
L 81.726372 231.879613 
L 80.13658 234.003747 
L 79.903405 234.293722 
L 78.841338 235.345837 
L 77.599269 236.127881 
L 76.717204 236.414723 
L 75.655138 236.332174 
L 74.593071 235.779251 
L 73.531004 234.707766 
L 72.412938 232.94168 
L 71.045026 229.75548 
L 70.0115 226.569279 
L 68.925918 222.321011 
L 67.84471 217.010677 
L 66.800656 210.638275 
L 65.689428 202.14174 
L 64.689106 192.583138 
L 63.627251 179.838335 
L 62.582316 163.907331 
L 61.596778 144.790126 
L 60.660936 121.424654 
L 59.8257 93.810914 
L 59.011008 59.824773 
L 59.089938 55.576506 
L 59.089938 55.576506 
" style="fill:none;stroke:#0000e8;stroke-width:1.5;"/>
   </g>
   <g id="LineCollection_3">
    <path clip-path="url(#pe733b05394)" d="M 291.301099 293.479494 
L 291.569341 287.107093 
L 291.372952 281.796758 
L 290.68335 271.176089 
L 287.735785 226.569279 
L 286.429415 211.700342 
L 285.50152 203.203807 
L 284.498813 195.769338 
L 283.387932 189.396937 
L 282.416149 185.148669 
L 281.448558 181.962468 
L 280.592584 179.838335 
L 279.571985 178.111272 
L 278.509918 177.012782 
L 277.447851 176.452073 
L 276.385784 176.290653 
L 275.323717 176.41191 
L 273.199584 177.145883 
L 267.889249 179.486479 
L 265.765115 180.176427 
L 263.640981 180.679016 
L 260.454781 181.140006 
L 257.26858 181.353522 
L 251.958245 181.427345 
L 212.66177 181.368594 
L 129.82055 181.581326 
L 120.261948 181.648009 
L 113.889546 181.449021 
L 107.517145 180.992689 
L 101.144743 180.524067 
L 97.958543 180.485707 
L 95.834409 180.623884 
L 93.710275 180.956768 
L 91.586141 181.550148 
L 89.462007 182.473002 
L 87.337874 183.789076 
L 85.21374 185.531215 
L 83.089606 187.654656 
L 78.841338 192.110332 
L 77.779271 192.937072 
L 76.717204 193.493527 
L 75.452426 193.645204 
L 74.593071 193.445871 
L 73.471884 192.583138 
L 72.468937 191.24957 
L 71.131962 188.33487 
L 70.08227 185.148669 
L 69.016233 180.900401 
L 67.7936 174.528 
L 66.818592 168.155599 
L 65.64832 158.596996 
L 64.603245 147.976327 
L 63.585539 135.231524 
L 62.56556 119.30052 
L 61.55277 99.121249 
L 60.140457 64.073041 
L 60.077988 58.762706 
L 60.199507 55.576506 
L 60.199507 55.576506 
" style="fill:none;stroke:#0038ff;stroke-width:1.5;"/>
   </g>
   <g id="LineCollection_4">
    <path clip-path="url(#pe733b05394)" d="M 293.130796 293.479494 
L 293.193086 284.982959 
L 292.731461 274.36229 
L 289.628568 210.638275 
L 288.537308 193.645204 
L 287.530582 180.900401 
L 286.486229 170.279732 
L 285.575293 162.845264 
L 284.59555 156.472862 
L 283.527835 151.162528 
L 282.713072 147.976327 
L 281.551956 144.790126 
L 280.634052 143.027097 
L 279.571985 141.796813 
L 278.509918 141.225931 
L 277.447851 141.176646 
L 276.25817 141.603926 
L 274.692214 142.665993 
L 273.199584 143.951991 
L 270.006304 146.91426 
L 267.889249 148.616369 
L 265.765115 149.972806 
L 263.640981 150.970406 
L 261.516848 151.648075 
L 259.392714 152.06261 
L 257.26858 152.275169 
L 254.082379 152.335995 
L 248.772045 152.105318 
L 240.275509 151.72588 
L 232.841041 151.681538 
L 200.979033 151.852902 
L 120.261948 151.690708 
L 104.330944 151.570839 
L 95.834409 151.530548 
L 92.648208 151.695676 
L 89.462007 152.116322 
L 87.337874 152.61256 
L 85.21374 153.328226 
L 82.963206 154.348729 
L 77.779271 157.120231 
L 76.261415 157.534929 
L 75.655138 157.611456 
L 74.593071 157.423899 
L 73.531004 156.808101 
L 72.333415 155.410796 
L 71.195849 153.286662 
L 70.028201 150.100461 
L 69.133139 146.91426 
L 68.000164 141.603926 
L 66.792457 134.169457 
L 65.713955 125.672922 
L 64.64754 115.052253 
L 63.630743 102.30745 
L 62.493668 84.252312 
L 61.279607 60.88684 
L 61.363766 57.700639 
L 61.487852 55.576506 
L 61.487852 55.576506 
" style="fill:none;stroke:#0094ff;stroke-width:1.5;"/>
   </g>
   <g id="LineCollection_5">
    <path clip-path="url(#pe733b05394)" d="M 294.654285 293.479494 
L 294.52174 280.734691 
L 293.526267 252.058885 
L 292.14034 214.886543 
L 290.829483 186.210736 
L 289.72117 167.093532 
L 288.713213 153.286662 
L 287.631259 141.603926 
L 286.627437 133.10739 
L 285.676398 126.734989 
L 284.660154 121.424654 
L 283.581142 117.176387 
L 282.455805 113.990186 
L 281.696119 112.356959 
L 280.527218 110.803985 
L 279.571985 110.100408 
L 278.509918 109.891146 
L 277.447851 110.152529 
L 276.368959 110.803985 
L 275.181876 111.866052 
L 273.199584 114.11487 
L 268.164589 120.362587 
L 266.827182 121.784481 
L 264.703048 123.662954 
L 262.578914 125.065965 
L 260.454781 126.018485 
L 258.330647 126.578196 
L 256.206513 126.815233 
L 254.082379 126.801266 
L 250.896178 126.456839 
L 246.538512 125.672922 
L 240.275509 124.564724 
L 236.027242 124.062617 
L 231.778974 123.789951 
L 226.468639 123.703683 
L 219.034171 123.849766 
L 171.24116 125.248043 
L 103.268877 126.163731 
L 91.586141 126.376588 
L 87.337874 126.680392 
L 84.151673 127.115897 
L 76.717204 128.414799 
L 75.655138 128.33032 
L 74.236139 127.797056 
L 73.531004 127.366584 
L 72.468937 126.267381 
L 71.40687 124.574026 
L 70.126233 121.424654 
L 69.170276 118.238454 
L 68.00496 112.928119 
L 66.798613 105.493651 
L 65.740222 96.997115 
L 64.604036 85.314379 
L 62.982149 65.135108 
L 62.838171 61.948907 
L 62.910335 58.56489 
L 63.179407 55.576506 
L 63.179407 55.576506 
" style="fill:none;stroke:#0cf4eb;stroke-width:1.5;"/>
   </g>
   <g id="LineCollection_6">
    <path clip-path="url(#pe733b05394)" d="M 296.386127 293.479494 
L 296.236626 281.796758 
L 295.741365 269.051955 
L 295.327872 257.369219 
L 293.794237 206.390007 
L 292.731049 177.714201 
L 291.747246 156.472862 
L 290.753185 139.479792 
L 289.808658 126.734989 
L 288.816153 116.11432 
L 287.679156 106.555717 
L 286.538145 99.121249 
L 285.717225 94.872981 
L 284.660631 90.624714 
L 283.616474 87.438513 
L 282.737195 85.314379 
L 281.56212 83.190245 
L 280.634052 81.879592 
L 279.571985 80.742288 
L 278.509918 79.895149 
L 277.447851 79.309276 
L 276.385784 78.921855 
L 275.323717 78.749991 
L 274.261651 78.755717 
L 273.182647 78.941978 
L 272.137517 79.342363 
L 270.991172 80.004045 
L 269.808105 81.066112 
L 268.951316 82.151603 
L 267.832278 84.252312 
L 266.827182 87.146579 
L 265.084171 92.748848 
L 264.177515 94.872981 
L 262.99114 96.997115 
L 262.24841 98.059182 
L 261.368078 99.121249 
L 260.28664 100.183316 
L 258.897591 101.245383 
L 257.26858 102.176529 
L 256.206513 102.628974 
L 254.082379 103.27576 
L 251.958245 103.662476 
L 248.772045 103.939688 
L 244.523777 103.998194 
L 238.151375 103.793122 
L 229.65484 103.263561 
L 220.096238 102.428632 
L 205.227301 101.082302 
L 197.792833 100.675476 
L 191.420431 100.538548 
L 182.923896 100.606953 
L 146.813621 101.267249 
L 122.386082 101.208092 
L 101.117969 101.245383 
L 89.462007 101.46019 
L 78.841338 101.715483 
L 76.717204 101.381462 
L 75.655138 101.005701 
L 74.333295 100.183316 
L 73.242119 99.121249 
L 72.427918 98.059182 
L 71.307739 95.935048 
L 70.140344 92.748848 
L 69.019416 88.50058 
L 67.969027 83.190245 
L 66.711108 74.69371 
L 65.837303 67.259242 
L 65.558023 63.010974 
L 65.578485 60.88684 
L 65.781198 58.762706 
L 66.062084 56.638572 
L 66.09634 55.576506 
L 66.09634 55.576506 
" style="fill:none;stroke:#56ffa0;stroke-width:1.5;"/>
   </g>
   <g id="LineCollection_7">
    <path clip-path="url(#pe733b05394)" d="M 302.980349 293.479494 
L 302.836338 286.045026 
L 302.429515 278.610558 
L 301.715138 270.114022 
L 300.392267 257.369219 
L 298.055671 237.189948 
L 296.49447 223.383078 
L 295.167705 189.396937 
L 294.130334 158.596996 
L 293.163386 136.293591 
L 292.143131 118.238454 
L 291.054072 103.369517 
L 290.143675 93.810914 
L 289.292424 87.438513 
L 288.719694 84.252312 
L 288.005263 81.066112 
L 287.006454 77.797701 
L 285.944387 75.277088 
L 284.88232 73.38656 
L 283.426824 71.507509 
L 282.318545 70.445442 
L 280.832714 69.383375 
L 279.571985 68.737703 
L 278.509918 68.317081 
L 276.385784 67.792939 
L 274.261651 67.546613 
L 272.137517 67.525054 
L 270.013383 67.687805 
L 266.827182 68.213769 
L 264.703048 68.746577 
L 261.516848 69.778688 
L 258.330647 71.08478 
L 255.144446 72.639369 
L 250.896178 75.05095 
L 241.337576 80.679189 
L 238.07954 82.128178 
L 236.027242 82.834762 
L 233.903108 83.387508 
L 231.778974 83.771433 
L 228.592773 84.069647 
L 225.406572 84.084335 
L 222.220372 83.870045 
L 217.972104 83.321154 
L 213.723836 82.550127 
L 206.836432 81.066112 
L 196.730766 78.817704 
L 189.296297 77.35366 
L 180.799762 75.928269 
L 159.344244 72.569576 
L 153.186022 71.315311 
L 147.875688 69.960713 
L 144.689487 68.956958 
L 141.503286 67.713394 
L 139.379152 66.667154 
L 138.317086 66.053122 
L 137.004225 65.135108 
L 135.85459 64.073041 
L 135.028772 63.010974 
L 134.479557 61.948907 
L 134.162077 60.88684 
L 134.028907 59.824773 
L 134.117704 57.700639 
L 134.312397 55.576506 
L 134.312397 55.576506 
" style="fill:none;stroke:#a0ff56;stroke-width:1.5;"/>
   </g>
   <g id="LineCollection_8">
    <path clip-path="url(#pe733b05394)" d="M 310.144052 293.479494 
L 310.008253 284.982959 
L 309.644551 276.486424 
L 308.945226 265.865755 
L 307.705319 250.996818 
L 305.787489 230.817546 
L 303.454949 208.514141 
L 301.248358 189.396937 
L 299.063782 172.403866 
L 297.078976 158.596996 
L 296.516963 154.348729 
L 294.76763 119.30052 
L 293.867969 102.30745 
L 293.130652 91.686781 
L 292.38903 84.252312 
L 291.773293 80.004045 
L 291.168387 76.817844 
L 290.192654 73.126873 
L 289.177192 70.445442 
L 288.650238 69.383375 
L 288.04376 68.321309 
L 287.006454 66.906415 
L 285.944387 65.798473 
L 284.88232 64.931243 
L 282.758186 63.675337 
L 280.634052 62.812394 
L 278.509918 62.186102 
L 274.261651 61.305006 
L 267.889249 60.157821 
L 266.515498 59.824773 
L 264.703048 58.966293 
L 264.34913 58.762706 
L 263.661082 57.700639 
L 263.756669 56.638572 
L 264.332016 55.576506 
L 264.332016 55.576506 
" style="fill:none;stroke:#ebff0c;stroke-width:1.5;"/>
   </g>
   <g id="LineCollection_9">
    <path clip-path="url(#pe733b05394)" d="M 317.469525 293.479494 
L 317.351871 283.920892 
L 316.99396 273.300223 
L 316.329544 260.55542 
L 315.207678 243.562349 
L 313.42813 220.196877 
L 311.431047 196.831405 
L 309.482395 176.652134 
L 307.612123 159.659063 
L 305.880273 145.852193 
L 304.057152 133.10739 
L 302.326261 122.486721 
L 300.561449 112.928119 
L 298.68919 104.003997 
L 297.01547 96.997115 
L 296.529669 94.872981 
L 295.655065 86.376446 
L 295.347179 83.190245 
L 294.704631 76.817844 
L 294.08632 72.569576 
L 293.378855 69.137039 
L 292.846331 67.259242 
L 292.04618 65.135108 
L 290.911351 63.010974 
L 290.178602 61.948907 
L 288.06852 59.528721 
L 286.362161 57.700639 
L 285.621821 56.638572 
L 285.089761 55.576506 
L 285.089761 55.576506 
" style="fill:none;stroke:#ffab00;stroke-width:1.5;"/>
   </g>
   <g id="LineCollection_10">
    <path clip-path="url(#pe733b05394)" d="M 324.911597 293.479494 
L 324.798094 281.796758 
L 324.431617 267.989888 
L 323.741377 250.996818 
L 322.546327 227.631346 
L 320.908902 200.017606 
L 319.310651 176.652134 
L 317.789866 157.534929 
L 316.311663 141.603926 
L 314.816739 127.797056 
L 313.345204 116.11432 
L 311.790099 105.493651 
L 310.153732 95.935048 
L 308.673218 88.50058 
L 306.953257 81.066112 
L 305.244701 74.69371 
L 303.308688 68.321309 
L 301.023619 60.88684 
L 300.545646 58.762706 
L 300.285645 56.638572 
L 300.266019 55.576506 
L 300.266019 55.576506 
" style="fill:none;stroke:#ff5500;stroke-width:1.5;"/>
   </g>
   <g id="LineCollection_11">
    <path clip-path="url(#pe733b05394)" d="M 332.432544 293.479494 
L 332.311517 277.548491 
L 331.93151 257.369219 
L 331.200368 231.879613 
L 330.001077 197.893472 
L 328.785016 169.217665 
L 327.632954 146.91426 
L 326.496974 128.859123 
L 325.277474 112.928119 
L 323.99731 99.121249 
L 322.375822 84.252312 
L 320.75989 69.383375 
L 320.277152 63.010974 
L 320.082352 57.700639 
L 320.068152 55.576506 
L 320.068152 55.576506 
" style="fill:none;stroke:#e80000;stroke-width:1.5;"/>
   </g>
   <g id="LineCollection_12">
    <path clip-path="url(#pe733b05394)" d="M 339.999807 293.479494 
L 339.912066 271.176089 
L 339.62785 232.94168 
L 339.019294 183.024535 
L 338.328961 141.603926 
L 337.686327 113.990186 
L 337.090926 94.872981 
L 336.224175 67.259242 
L 336.101415 55.576506 
L 336.101415 55.576506 
" style="fill:none;stroke:#800000;stroke-width:1.5;"/>
   </g>
   <g id="patch_3">
    <path d="M 57.6 293.479494 
L 57.6 55.576506 
" style="fill:none;stroke:#000000;stroke-linecap:square;stroke-linejoin:miter;stroke-width:0.8;"/>
   </g>
   <g id="patch_4">
    <path d="M 343.296 293.479494 
L 343.296 55.576506 
" style="fill:none;stroke:#000000;stroke-linecap:square;stroke-linejoin:miter;stroke-width:0.8;"/>
   </g>
   <g id="patch_5">
    <path d="M 57.6 293.479494 
L 343.296 293.479494 
" style="fill:none;stroke:#000000;stroke-linecap:square;stroke-linejoin:miter;stroke-width:0.8;"/>
   </g>
   <g id="patch_6">
    <path d="M 57.6 55.576506 
L 343.296 55.576506 
" style="fill:none;stroke:#000000;stroke-linecap:square;stroke-linejoin:miter;stroke-width:0.8;"/>
   </g>
   <g id="text_10">
    <!-- Time:0.04938 s -->
    <defs>
     <path d="M -0.296875 72.90625 
L 61.375 72.90625 
L 61.375 64.59375 
L 35.5 64.59375 
L 35.5 0 
L 25.59375 0 
L 25.59375 64.59375 
L -0.296875 64.59375 
z
" id="DejaVuSans-54"/>
     <path d="M 9.421875 54.6875 
L 18.40625 54.6875 
L 18.40625 0 
L 9.421875 0 
z
M 9.421875 75.984375 
L 18.40625 75.984375 
L 18.40625 64.59375 
L 9.421875 64.59375 
z
" id="DejaVuSans-69"/>
     <path d="M 52 44.1875 
Q 55.375 50.25 60.0625 53.125 
Q 64.75 56 71.09375 56 
Q 79.640625 56 84.28125 50.015625 
Q 88.921875 44.046875 88.921875 33.015625 
L 88.921875 0 
L 79.890625 0 
L 79.890625 32.71875 
Q 79.890625 40.578125 77.09375 44.375 
Q 74.3125 48.1875 68.609375 48.1875 
Q 61.625 48.1875 57.5625 43.546875 
Q 53.515625 38.921875 53.515625 30.90625 
L 53.515625 0 
L 44.484375 0 
L 44.484375 32.71875 
Q 44.484375 40.625 41.703125 44.40625 
Q 38.921875 48.1875 33.109375 48.1875 
Q 26.21875 48.1875 22.15625 43.53125 
Q 18.109375 38.875 18.109375 30.90625 
L 18.109375 0 
L 9.078125 0 
L 9.078125 54.6875 
L 18.109375 54.6875 
L 18.109375 46.1875 
Q 21.1875 51.21875 25.484375 53.609375 
Q 29.78125 56 35.6875 56 
Q 41.65625 56 45.828125 52.96875 
Q 50 49.953125 52 44.1875 
z
" id="DejaVuSans-6d"/>
     <path d="M 56.203125 29.59375 
L 56.203125 25.203125 
L 14.890625 25.203125 
Q 15.484375 15.921875 20.484375 11.0625 
Q 25.484375 6.203125 34.421875 6.203125 
Q 39.59375 6.203125 44.453125 7.46875 
Q 49.3125 8.734375 54.109375 11.28125 
L 54.109375 2.78125 
Q 49.265625 0.734375 44.1875 -0.34375 
Q 39.109375 -1.421875 33.890625 -1.421875 
Q 20.796875 -1.421875 13.15625 6.1875 
Q 5.515625 13.8125 5.515625 26.8125 
Q 5.515625 40.234375 12.765625 48.109375 
Q 20.015625 56 32.328125 56 
Q 43.359375 56 49.78125 48.890625 
Q 56.203125 41.796875 56.203125 29.59375 
z
M 47.21875 32.234375 
Q 47.125 39.59375 43.09375 43.984375 
Q 39.0625 48.390625 32.421875 48.390625 
Q 24.90625 48.390625 20.390625 44.140625 
Q 15.875 39.890625 15.1875 32.171875 
z
" id="DejaVuSans-65"/>
     <path d="M 11.71875 12.40625 
L 22.015625 12.40625 
L 22.015625 0 
L 11.71875 0 
z
M 11.71875 51.703125 
L 22.015625 51.703125 
L 22.015625 39.3125 
L 11.71875 39.3125 
z
" id="DejaVuSans-3a"/>
     <path d="M 10.984375 1.515625 
L 10.984375 10.5 
Q 14.703125 8.734375 18.5 7.8125 
Q 22.3125 6.890625 25.984375 6.890625 
Q 35.75 6.890625 40.890625 13.453125 
Q 46.046875 20.015625 46.78125 33.40625 
Q 43.953125 29.203125 39.59375 26.953125 
Q 35.25 24.703125 29.984375 24.703125 
Q 19.046875 24.703125 12.671875 31.3125 
Q 6.296875 37.9375 6.296875 49.421875 
Q 6.296875 60.640625 12.9375 67.421875 
Q 19.578125 74.21875 30.609375 74.21875 
Q 43.265625 74.21875 49.921875 64.515625 
Q 56.59375 54.828125 56.59375 36.375 
Q 56.59375 19.140625 48.40625 8.859375 
Q 40.234375 -1.421875 26.421875 -1.421875 
Q 22.703125 -1.421875 18.890625 -0.6875 
Q 15.09375 0.046875 10.984375 1.515625 
z
M 30.609375 32.421875 
Q 37.25 32.421875 41.125 36.953125 
Q 45.015625 41.5 45.015625 49.421875 
Q 45.015625 57.28125 41.125 61.84375 
Q 37.25 66.40625 30.609375 66.40625 
Q 23.96875 66.40625 20.09375 61.84375 
Q 16.21875 57.28125 16.21875 49.421875 
Q 16.21875 41.5 20.09375 36.953125 
Q 23.96875 32.421875 30.609375 32.421875 
z
" id="DejaVuSans-39"/>
     <path d="M 40.578125 39.3125 
Q 47.65625 37.796875 51.625 33 
Q 55.609375 28.21875 55.609375 21.1875 
Q 55.609375 10.40625 48.1875 4.484375 
Q 40.765625 -1.421875 27.09375 -1.421875 
Q 22.515625 -1.421875 17.65625 -0.515625 
Q 12.796875 0.390625 7.625 2.203125 
L 7.625 11.71875 
Q 11.71875 9.328125 16.59375 8.109375 
Q 21.484375 6.890625 26.8125 6.890625 
Q 36.078125 6.890625 40.9375 10.546875 
Q 45.796875 14.203125 45.796875 21.1875 
Q 45.796875 27.640625 41.28125 31.265625 
Q 36.765625 34.90625 28.71875 34.90625 
L 20.21875 34.90625 
L 20.21875 43.015625 
L 29.109375 43.015625 
Q 36.375 43.015625 40.234375 45.921875 
Q 44.09375 48.828125 44.09375 54.296875 
Q 44.09375 59.90625 40.109375 62.90625 
Q 36.140625 65.921875 28.71875 65.921875 
Q 24.65625 65.921875 20.015625 65.03125 
Q 15.375 64.15625 9.8125 62.3125 
L 9.8125 71.09375 
Q 15.4375 72.65625 20.34375 73.4375 
Q 25.25 74.21875 29.59375 74.21875 
Q 40.828125 74.21875 47.359375 69.109375 
Q 53.90625 64.015625 53.90625 55.328125 
Q 53.90625 49.265625 50.4375 45.09375 
Q 46.96875 40.921875 40.578125 39.3125 
z
" id="DejaVuSans-33"/>
     <path id="DejaVuSans-20"/>
     <path d="M 44.28125 53.078125 
L 44.28125 44.578125 
Q 40.484375 46.53125 36.375 47.5 
Q 32.28125 48.484375 27.875 48.484375 
Q 21.1875 48.484375 17.84375 46.4375 
Q 14.5 44.390625 14.5 40.28125 
Q 14.5 37.15625 16.890625 35.375 
Q 19.28125 33.59375 26.515625 31.984375 
L 29.59375 31.296875 
Q 39.15625 29.25 43.1875 25.515625 
Q 47.21875 21.78125 47.21875 15.09375 
Q 47.21875 7.46875 41.1875 3.015625 
Q 35.15625 -1.421875 24.609375 -1.421875 
Q 20.21875 -1.421875 15.453125 -0.5625 
Q 10.6875 0.296875 5.421875 2 
L 5.421875 11.28125 
Q 10.40625 8.6875 15.234375 7.390625 
Q 20.0625 6.109375 24.8125 6.109375 
Q 31.15625 6.109375 34.5625 8.28125 
Q 37.984375 10.453125 37.984375 14.40625 
Q 37.984375 18.0625 35.515625 20.015625 
Q 33.0625 21.96875 24.703125 23.78125 
L 21.578125 24.515625 
Q 13.234375 26.265625 9.515625 29.90625 
Q 5.8125 33.546875 5.8125 39.890625 
Q 5.8125 47.609375 11.28125 51.796875 
Q 16.75 56 26.8125 56 
Q 31.78125 56 36.171875 55.265625 
Q 40.578125 54.546875 44.28125 53.078125 
z
" id="DejaVuSans-73"/>
    </defs>
    <g transform="translate(153.717375 49.576506)scale(0.12 -0.12)">
     <use xlink:href="#DejaVuSans-54"/>
     <use x="61.037109" xlink:href="#DejaVuSans-69"/>
     <use x="88.820312" xlink:href="#DejaVuSans-6d"/>
     <use x="186.232422" xlink:href="#DejaVuSans-65"/>
     <use x="247.755859" xlink:href="#DejaVuSans-3a"/>
     <use x="281.447266" xlink:href="#DejaVuSans-30"/>
     <use x="345.070312" xlink:href="#DejaVuSans-2e"/>
     <use x="376.857422" xlink:href="#DejaVuSans-30"/>
     <use x="440.480469" xlink:href="#DejaVuSans-34"/>
     <use x="504.103516" xlink:href="#DejaVuSans-39"/>
     <use x="567.726562" xlink:href="#DejaVuSans-33"/>
     <use x="631.349609" xlink:href="#DejaVuSans-38"/>
     <use x="694.972656" xlink:href="#DejaVuSans-20"/>
     <use x="726.759766" xlink:href="#DejaVuSans-73"/>
    </g>
   </g>
  </g>
  <g id="axes_2">
   <g id="patch_7">
    <path clip-path="url(#p93690de2b3)" d="M 361.152 307.584 
L 361.152 283.392 
L 361.152 65.664 
L 361.152 41.472 
L 374.4576 41.472 
L 374.4576 65.664 
L 374.4576 283.392 
L 374.4576 307.584 
z
" style="fill:#ffffff;stroke:#ffffff;stroke-linejoin:miter;stroke-width:0.01;"/>
   </g>
   <g id="matplotlib.axis_3"/>
   <g id="matplotlib.axis_4">
    <g id="ytick_5">
     <g id="line2d_10">
      <defs>
       <path d="M 0 0 
L 3.5 0 
" id="me6c9e318f5" style="stroke:#000000;stroke-width:0.8;"/>
      </defs>
      <g>
       <use style="stroke:#000000;stroke-width:0.8;" x="374.4576" xlink:href="#me6c9e318f5" y="307.584"/>
      </g>
     </g>
     <g id="text_11">
      <!-- 0.08 -->
      <g transform="translate(381.4576 311.383219)scale(0.1 -0.1)">
       <use xlink:href="#DejaVuSans-30"/>
       <use x="63.623047" xlink:href="#DejaVuSans-2e"/>
       <use x="95.410156" xlink:href="#DejaVuSans-30"/>
       <use x="159.033203" xlink:href="#DejaVuSans-38"/>
      </g>
     </g>
    </g>
    <g id="ytick_6">
     <g id="line2d_11">
      <g>
       <use style="stroke:#000000;stroke-width:0.8;" x="374.4576" xlink:href="#me6c9e318f5" y="259.2"/>
      </g>
     </g>
     <g id="text_12">
      <!-- 0.24 -->
      <g transform="translate(381.4576 262.999219)scale(0.1 -0.1)">
       <use xlink:href="#DejaVuSans-30"/>
       <use x="63.623047" xlink:href="#DejaVuSans-2e"/>
       <use x="95.410156" xlink:href="#DejaVuSans-32"/>
       <use x="159.033203" xlink:href="#DejaVuSans-34"/>
      </g>
     </g>
    </g>
    <g id="ytick_7">
     <g id="line2d_12">
      <g>
       <use style="stroke:#000000;stroke-width:0.8;" x="374.4576" xlink:href="#me6c9e318f5" y="210.816"/>
      </g>
     </g>
     <g id="text_13">
      <!-- 0.40 -->
      <g transform="translate(381.4576 214.615219)scale(0.1 -0.1)">
       <use xlink:href="#DejaVuSans-30"/>
       <use x="63.623047" xlink:href="#DejaVuSans-2e"/>
       <use x="95.410156" xlink:href="#DejaVuSans-34"/>
       <use x="159.033203" xlink:href="#DejaVuSans-30"/>
      </g>
     </g>
    </g>
    <g id="ytick_8">
     <g id="line2d_13">
      <g>
       <use style="stroke:#000000;stroke-width:0.8;" x="374.4576" xlink:href="#me6c9e318f5" y="162.432"/>
      </g>
     </g>
     <g id="text_14">
      <!-- 0.56 -->
      <defs>
       <path d="M 10.796875 72.90625 
L 49.515625 72.90625 
L 49.515625 64.59375 
L 19.828125 64.59375 
L 19.828125 46.734375 
Q 21.96875 47.46875 24.109375 47.828125 
Q 26.265625 48.1875 28.421875 48.1875 
Q 40.625 48.1875 47.75 41.5 
Q 54.890625 34.8125 54.890625 23.390625 
Q 54.890625 11.625 47.5625 5.09375 
Q 40.234375 -1.421875 26.90625 -1.421875 
Q 22.3125 -1.421875 17.546875 -0.640625 
Q 12.796875 0.140625 7.71875 1.703125 
L 7.71875 11.625 
Q 12.109375 9.234375 16.796875 8.0625 
Q 21.484375 6.890625 26.703125 6.890625 
Q 35.15625 6.890625 40.078125 11.328125 
Q 45.015625 15.765625 45.015625 23.390625 
Q 45.015625 31 40.078125 35.4375 
Q 35.15625 39.890625 26.703125 39.890625 
Q 22.75 39.890625 18.8125 39.015625 
Q 14.890625 38.140625 10.796875 36.28125 
z
" id="DejaVuSans-35"/>
      </defs>
      <g transform="translate(381.4576 166.231219)scale(0.1 -0.1)">
       <use xlink:href="#DejaVuSans-30"/>
       <use x="63.623047" xlink:href="#DejaVuSans-2e"/>
       <use x="95.410156" xlink:href="#DejaVuSans-35"/>
       <use x="159.033203" xlink:href="#DejaVuSans-36"/>
      </g>
     </g>
    </g>
    <g id="ytick_9">
     <g id="line2d_14">
      <g>
       <use style="stroke:#000000;stroke-width:0.8;" x="374.4576" xlink:href="#me6c9e318f5" y="114.048"/>
      </g>
     </g>
     <g id="text_15">
      <!-- 0.72 -->
      <defs>
       <path d="M 8.203125 72.90625 
L 55.078125 72.90625 
L 55.078125 68.703125 
L 28.609375 0 
L 18.3125 0 
L 43.21875 64.59375 
L 8.203125 64.59375 
z
" id="DejaVuSans-37"/>
      </defs>
      <g transform="translate(381.4576 117.847219)scale(0.1 -0.1)">
       <use xlink:href="#DejaVuSans-30"/>
       <use x="63.623047" xlink:href="#DejaVuSans-2e"/>
       <use x="95.410156" xlink:href="#DejaVuSans-37"/>
       <use x="159.033203" xlink:href="#DejaVuSans-32"/>
      </g>
     </g>
    </g>
    <g id="ytick_10">
     <g id="line2d_15">
      <g>
       <use style="stroke:#000000;stroke-width:0.8;" x="374.4576" xlink:href="#me6c9e318f5" y="65.664"/>
      </g>
     </g>
     <g id="text_16">
      <!-- 0.88 -->
      <g transform="translate(381.4576 69.463219)scale(0.1 -0.1)">
       <use xlink:href="#DejaVuSans-30"/>
       <use x="63.623047" xlink:href="#DejaVuSans-2e"/>
       <use x="95.410156" xlink:href="#DejaVuSans-38"/>
       <use x="159.033203" xlink:href="#DejaVuSans-38"/>
      </g>
     </g>
    </g>
   </g>
   <g id="LineCollection_13">
    <path clip-path="url(#p93690de2b3)" d="M 361.152 307.584 
L 374.4576 307.584 
" style="fill:none;stroke:#000080;stroke-width:1.5;"/>
    <path clip-path="url(#p93690de2b3)" d="M 361.152 283.392 
L 374.4576 283.392 
" style="fill:none;stroke:#0000e8;stroke-width:1.5;"/>
    <path clip-path="url(#p93690de2b3)" d="M 361.152 259.2 
L 374.4576 259.2 
" style="fill:none;stroke:#0038ff;stroke-width:1.5;"/>
    <path clip-path="url(#p93690de2b3)" d="M 361.152 235.008 
L 374.4576 235.008 
" style="fill:none;stroke:#0094ff;stroke-width:1.5;"/>
    <path clip-path="url(#p93690de2b3)" d="M 361.152 210.816 
L 374.4576 210.816 
" style="fill:none;stroke:#0cf4eb;stroke-width:1.5;"/>
    <path clip-path="url(#p93690de2b3)" d="M 361.152 186.624 
L 374.4576 186.624 
" style="fill:none;stroke:#56ffa0;stroke-width:1.5;"/>
    <path clip-path="url(#p93690de2b3)" d="M 361.152 162.432 
L 374.4576 162.432 
" style="fill:none;stroke:#a0ff56;stroke-width:1.5;"/>
    <path clip-path="url(#p93690de2b3)" d="M 361.152 138.24 
L 374.4576 138.24 
" style="fill:none;stroke:#ebff0c;stroke-width:1.5;"/>
    <path clip-path="url(#p93690de2b3)" d="M 361.152 114.048 
L 374.4576 114.048 
" style="fill:none;stroke:#ffab00;stroke-width:1.5;"/>
    <path clip-path="url(#p93690de2b3)" d="M 361.152 89.856 
L 374.4576 89.856 
" style="fill:none;stroke:#ff5500;stroke-width:1.5;"/>
    <path clip-path="url(#p93690de2b3)" d="M 361.152 65.664 
L 374.4576 65.664 
" style="fill:none;stroke:#e80000;stroke-width:1.5;"/>
    <path clip-path="url(#p93690de2b3)" d="M 361.152 41.472 
L 374.4576 41.472 
" style="fill:none;stroke:#800000;stroke-width:1.5;"/>
   </g>
   <g id="patch_8">
    <path d="M 361.152 307.584 
L 361.152 283.392 
L 361.152 65.664 
L 361.152 41.472 
L 374.4576 41.472 
L 374.4576 65.664 
L 374.4576 283.392 
L 374.4576 307.584 
z
" style="fill:none;stroke:#000000;stroke-linejoin:miter;stroke-width:0.8;"/>
   </g>
  </g>
 </g>
 <defs>
  <clipPath id="pe733b05394">
   <rect height="237.902989" width="285.696" x="57.6" y="55.576506"/>
  </clipPath>
  <clipPath id="p93690de2b3">
   <rect height="266.112" width="13.3056" x="361.152" y="41.472"/>
  </clipPath>
 </defs>
</svg>
