<?xml version="1.0" encoding="utf-8" standalone="no"?>
<!DOCTYPE svg PUBLIC "-//W3C//DTD SVG 1.1//EN"
  "http://www.w3.org/Graphics/SVG/1.1/DTD/svg11.dtd">
<!-- Created with matplotlib (http://matplotlib.org/) -->
<svg height="345.6pt" version="1.1" viewBox="0 0 460.8 345.6" width="460.8pt" xmlns="http://www.w3.org/2000/svg" xmlns:xlink="http://www.w3.org/1999/xlink">
 <defs>
  <style type="text/css">
*{stroke-linecap:butt;stroke-linejoin:round;}
  </style>
 </defs>
 <g id="figure_1">
  <g id="patch_1">
   <path d="M 0 345.6 
L 460.8 345.6 
L 460.8 0 
L 0 0 
z
" style="fill:#ffffff;"/>
  </g>
  <g id="axes_1">
   <g id="patch_2">
    <path d="M 57.6 293.479494 
L 343.296 293.479494 
L 343.296 55.576506 
L 57.6 55.576506 
z
" style="fill:#ffffff;"/>
   </g>
   <g id="matplotlib.axis_1">
    <g id="xtick_1">
     <g id="line2d_1">
      <defs>
       <path d="M 0 0 
L 0 3.5 
" id="m9fbaf45edd" style="stroke:#000000;stroke-width:0.8;"/>
      </defs>
      <g>
       <use style="stroke:#000000;stroke-width:0.8;" x="104.861978" xlink:href="#m9fbaf45edd" y="293.479494"/>
      </g>
     </g>
     <g id="text_1">
      <!-- 0.2 -->
      <defs>
       <path d="M 31.78125 66.40625 
Q 24.171875 66.40625 20.328125 58.90625 
Q 16.5 51.421875 16.5 36.375 
Q 16.5 21.390625 20.328125 13.890625 
Q 24.171875 6.390625 31.78125 6.390625 
Q 39.453125 6.390625 43.28125 13.890625 
Q 47.125 21.390625 47.125 36.375 
Q 47.125 51.421875 43.28125 58.90625 
Q 39.453125 66.40625 31.78125 66.40625 
z
M 31.78125 74.21875 
Q 44.046875 74.21875 50.515625 64.515625 
Q 56.984375 54.828125 56.984375 36.375 
Q 56.984375 17.96875 50.515625 8.265625 
Q 44.046875 -1.421875 31.78125 -1.421875 
Q 19.53125 -1.421875 13.0625 8.265625 
Q 6.59375 17.96875 6.59375 36.375 
Q 6.59375 54.828125 13.0625 64.515625 
Q 19.53125 74.21875 31.78125 74.21875 
z
" id="DejaVuSans-30"/>
       <path d="M 10.6875 12.40625 
L 21 12.40625 
L 21 0 
L 10.6875 0 
z
" id="DejaVuSans-2e"/>
       <path d="M 19.1875 8.296875 
L 53.609375 8.296875 
L 53.609375 0 
L 7.328125 0 
L 7.328125 8.296875 
Q 12.9375 14.109375 22.625 23.890625 
Q 32.328125 33.6875 34.8125 36.53125 
Q 39.546875 41.84375 41.421875 45.53125 
Q 43.3125 49.21875 43.3125 52.78125 
Q 43.3125 58.59375 39.234375 62.25 
Q 35.15625 65.921875 28.609375 65.921875 
Q 23.96875 65.921875 18.8125 64.3125 
Q 13.671875 62.703125 7.8125 59.421875 
L 7.8125 69.390625 
Q 13.765625 71.78125 18.9375 73 
Q 24.125 74.21875 28.421875 74.21875 
Q 39.75 74.21875 46.484375 68.546875 
Q 53.21875 62.890625 53.21875 53.421875 
Q 53.21875 48.921875 51.53125 44.890625 
Q 49.859375 40.875 45.40625 35.40625 
Q 44.1875 33.984375 37.640625 27.21875 
Q 31.109375 20.453125 19.1875 8.296875 
z
" id="DejaVuSans-32"/>
      </defs>
      <g transform="translate(96.910415 308.077932)scale(0.1 -0.1)">
       <use xlink:href="#DejaVuSans-30"/>
       <use x="63.623047" xlink:href="#DejaVuSans-2e"/>
       <use x="95.410156" xlink:href="#DejaVuSans-32"/>
      </g>
     </g>
    </g>
    <g id="xtick_2">
     <g id="line2d_2">
      <g>
       <use style="stroke:#000000;stroke-width:0.8;" x="152.654989" xlink:href="#m9fbaf45edd" y="293.479494"/>
      </g>
     </g>
     <g id="text_2">
      <!-- 0.4 -->
      <defs>
       <path d="M 37.796875 64.3125 
L 12.890625 25.390625 
L 37.796875 25.390625 
z
M 35.203125 72.90625 
L 47.609375 72.90625 
L 47.609375 25.390625 
L 58.015625 25.390625 
L 58.015625 17.1875 
L 47.609375 17.1875 
L 47.609375 0 
L 37.796875 0 
L 37.796875 17.1875 
L 4.890625 17.1875 
L 4.890625 26.703125 
z
" id="DejaVuSans-34"/>
      </defs>
      <g transform="translate(144.703426 308.077932)scale(0.1 -0.1)">
       <use xlink:href="#DejaVuSans-30"/>
       <use x="63.623047" xlink:href="#DejaVuSans-2e"/>
       <use x="95.410156" xlink:href="#DejaVuSans-34"/>
      </g>
     </g>
    </g>
    <g id="xtick_3">
     <g id="line2d_3">
      <g>
       <use style="stroke:#000000;stroke-width:0.8;" x="200.448" xlink:href="#m9fbaf45edd" y="293.479494"/>
      </g>
     </g>
     <g id="text_3">
      <!-- 0.6 -->
      <defs>
       <path d="M 33.015625 40.375 
Q 26.375 40.375 22.484375 35.828125 
Q 18.609375 31.296875 18.609375 23.390625 
Q 18.609375 15.53125 22.484375 10.953125 
Q 26.375 6.390625 33.015625 6.390625 
Q 39.65625 6.390625 43.53125 10.953125 
Q 47.40625 15.53125 47.40625 23.390625 
Q 47.40625 31.296875 43.53125 35.828125 
Q 39.65625 40.375 33.015625 40.375 
z
M 52.59375 71.296875 
L 52.59375 62.3125 
Q 48.875 64.0625 45.09375 64.984375 
Q 41.3125 65.921875 37.59375 65.921875 
Q 27.828125 65.921875 22.671875 59.328125 
Q 17.53125 52.734375 16.796875 39.40625 
Q 19.671875 43.65625 24.015625 45.921875 
Q 28.375 48.1875 33.59375 48.1875 
Q 44.578125 48.1875 50.953125 41.515625 
Q 57.328125 34.859375 57.328125 23.390625 
Q 57.328125 12.15625 50.6875 5.359375 
Q 44.046875 -1.421875 33.015625 -1.421875 
Q 20.359375 -1.421875 13.671875 8.265625 
Q 6.984375 17.96875 6.984375 36.375 
Q 6.984375 53.65625 15.1875 63.9375 
Q 23.390625 74.21875 37.203125 74.21875 
Q 40.921875 74.21875 44.703125 73.484375 
Q 48.484375 72.75 52.59375 71.296875 
z
" id="DejaVuSans-36"/>
      </defs>
      <g transform="translate(192.496438 308.077932)scale(0.1 -0.1)">
       <use xlink:href="#DejaVuSans-30"/>
       <use x="63.623047" xlink:href="#DejaVuSans-2e"/>
       <use x="95.410156" xlink:href="#DejaVuSans-36"/>
      </g>
     </g>
    </g>
    <g id="xtick_4">
     <g id="line2d_4">
      <g>
       <use style="stroke:#000000;stroke-width:0.8;" x="248.241011" xlink:href="#m9fbaf45edd" y="293.479494"/>
      </g>
     </g>
     <g id="text_4">
      <!-- 0.8 -->
      <defs>
       <path d="M 31.78125 34.625 
Q 24.75 34.625 20.71875 30.859375 
Q 16.703125 27.09375 16.703125 20.515625 
Q 16.703125 13.921875 20.71875 10.15625 
Q 24.75 6.390625 31.78125 6.390625 
Q 38.8125 6.390625 42.859375 10.171875 
Q 46.921875 13.96875 46.921875 20.515625 
Q 46.921875 27.09375 42.890625 30.859375 
Q 38.875 34.625 31.78125 34.625 
z
M 21.921875 38.8125 
Q 15.578125 40.375 12.03125 44.71875 
Q 8.5 49.078125 8.5 55.328125 
Q 8.5 64.0625 14.71875 69.140625 
Q 20.953125 74.21875 31.78125 74.21875 
Q 42.671875 74.21875 48.875 69.140625 
Q 55.078125 64.0625 55.078125 55.328125 
Q 55.078125 49.078125 51.53125 44.71875 
Q 48 40.375 41.703125 38.8125 
Q 48.828125 37.15625 52.796875 32.3125 
Q 56.78125 27.484375 56.78125 20.515625 
Q 56.78125 9.90625 50.3125 4.234375 
Q 43.84375 -1.421875 31.78125 -1.421875 
Q 19.734375 -1.421875 13.25 4.234375 
Q 6.78125 9.90625 6.78125 20.515625 
Q 6.78125 27.484375 10.78125 32.3125 
Q 14.796875 37.15625 21.921875 38.8125 
z
M 18.3125 54.390625 
Q 18.3125 48.734375 21.84375 45.5625 
Q 25.390625 42.390625 31.78125 42.390625 
Q 38.140625 42.390625 41.71875 45.5625 
Q 45.3125 48.734375 45.3125 54.390625 
Q 45.3125 60.0625 41.71875 63.234375 
Q 38.140625 66.40625 31.78125 66.40625 
Q 25.390625 66.40625 21.84375 63.234375 
Q 18.3125 60.0625 18.3125 54.390625 
z
" id="DejaVuSans-38"/>
      </defs>
      <g transform="translate(240.289449 308.077932)scale(0.1 -0.1)">
       <use xlink:href="#DejaVuSans-30"/>
       <use x="63.623047" xlink:href="#DejaVuSans-2e"/>
       <use x="95.410156" xlink:href="#DejaVuSans-38"/>
      </g>
     </g>
    </g>
    <g id="xtick_5">
     <g id="line2d_5">
      <g>
       <use style="stroke:#000000;stroke-width:0.8;" x="296.034022" xlink:href="#m9fbaf45edd" y="293.479494"/>
      </g>
     </g>
     <g id="text_5">
      <!-- 1.0 -->
      <defs>
       <path d="M 12.40625 8.296875 
L 28.515625 8.296875 
L 28.515625 63.921875 
L 10.984375 60.40625 
L 10.984375 69.390625 
L 28.421875 72.90625 
L 38.28125 72.90625 
L 38.28125 8.296875 
L 54.390625 8.296875 
L 54.390625 0 
L 12.40625 0 
z
" id="DejaVuSans-31"/>
      </defs>
      <g transform="translate(288.08246 308.077932)scale(0.1 -0.1)">
       <use xlink:href="#DejaVuSans-31"/>
       <use x="63.623047" xlink:href="#DejaVuSans-2e"/>
       <use x="95.410156" xlink:href="#DejaVuSans-30"/>
      </g>
     </g>
    </g>
   </g>
   <g id="matplotlib.axis_2">
    <g id="ytick_1">
     <g id="line2d_6">
      <defs>
       <path d="M 0 0 
L -3.5 0 
" id="m7cbd789538" style="stroke:#000000;stroke-width:0.8;"/>
      </defs>
      <g>
       <use style="stroke:#000000;stroke-width:0.8;" x="57.6" xlink:href="#m7cbd789538" y="246.217517"/>
      </g>
     </g>
     <g id="text_6">
      <!-- 0.2 -->
      <g transform="translate(34.696875 250.016735)scale(0.1 -0.1)">
       <use xlink:href="#DejaVuSans-30"/>
       <use x="63.623047" xlink:href="#DejaVuSans-2e"/>
       <use x="95.410156" xlink:href="#DejaVuSans-32"/>
      </g>
     </g>
    </g>
    <g id="ytick_2">
     <g id="line2d_7">
      <g>
       <use style="stroke:#000000;stroke-width:0.8;" x="57.6" xlink:href="#m7cbd789538" y="198.424506"/>
      </g>
     </g>
     <g id="text_7">
      <!-- 0.4 -->
      <g transform="translate(34.696875 202.223724)scale(0.1 -0.1)">
       <use xlink:href="#DejaVuSans-30"/>
       <use x="63.623047" xlink:href="#DejaVuSans-2e"/>
       <use x="95.410156" xlink:href="#DejaVuSans-34"/>
      </g>
     </g>
    </g>
    <g id="ytick_3">
     <g id="line2d_8">
      <g>
       <use style="stroke:#000000;stroke-width:0.8;" x="57.6" xlink:href="#m7cbd789538" y="150.631494"/>
      </g>
     </g>
     <g id="text_8">
      <!-- 0.6 -->
      <g transform="translate(34.696875 154.430713)scale(0.1 -0.1)">
       <use xlink:href="#DejaVuSans-30"/>
       <use x="63.623047" xlink:href="#DejaVuSans-2e"/>
       <use x="95.410156" xlink:href="#DejaVuSans-36"/>
      </g>
     </g>
    </g>
    <g id="ytick_4">
     <g id="line2d_9">
      <g>
       <use style="stroke:#000000;stroke-width:0.8;" x="57.6" xlink:href="#m7cbd789538" y="102.838483"/>
      </g>
     </g>
     <g id="text_9">
      <!-- 0.8 -->
      <g transform="translate(34.696875 106.637702)scale(0.1 -0.1)">
       <use xlink:href="#DejaVuSans-30"/>
       <use x="63.623047" xlink:href="#DejaVuSans-2e"/>
       <use x="95.410156" xlink:href="#DejaVuSans-38"/>
      </g>
     </g>
    </g>
   </g>
   <g id="LineCollection_1">
    <path clip-path="url(#p46c4688a7f)" d="M 264.607156 293.479494 
L 264.602594 291.355361 
L 264.389628 290.293294 
L 263.640981 288.792059 
L 263.149916 288.16916 
L 261.889804 287.107093 
L 260.019782 286.045026 
L 257.26858 284.934522 
L 253.020312 283.677786 
L 247.709978 282.456654 
L 241.337576 281.266238 
L 233.903108 280.110562 
L 225.406572 278.991542 
L 212.66177 277.522934 
L 199.916967 276.055549 
L 191.420431 274.877968 
L 183.985963 273.609686 
L 176.551494 272.060292 
L 170.179093 270.51833 
L 155.310156 266.759866 
L 150.530091 265.865755 
L 147.875688 265.525195 
L 144.689487 265.29603 
L 141.503286 265.299697 
L 138.317086 265.564555 
L 135.130885 266.107876 
L 131.936942 266.927822 
L 128.758483 267.997132 
L 124.510216 269.738937 
L 118.137814 272.708667 
L 111.765413 275.643571 
L 107.091108 277.548491 
L 103.268877 278.878454 
L 99.02061 280.086097 
L 95.834409 280.788359 
L 92.648208 281.313093 
L 89.462007 281.636598 
L 86.275807 281.738777 
L 83.089606 281.573487 
L 80.965472 281.276853 
L 78.659873 280.734691 
L 76.717204 280.05015 
L 74.593071 278.967726 
L 73.531004 278.252723 
L 72.468937 277.388515 
L 71.40687 276.334652 
L 69.874426 274.36229 
L 68.62699 272.238156 
L 67.654621 270.114022 
L 66.868849 267.989888 
L 65.938723 264.803688 
L 65.012952 260.55542 
L 64.18546 255.245086 
L 63.572401 249.934751 
L 62.829878 241.438216 
L 61.926374 227.631346 
L 61.163232 212.762409 
L 60.443456 194.707271 
L 59.718812 170.279732 
L 59.05621 139.479792 
L 58.459404 101.245383 
L 57.98467 57.700639 
L 58.008533 55.576506 
L 58.008533 55.576506 
" style="fill:none;stroke:#000080;stroke-width:1.5;"/>
   </g>
   <g id="LineCollection_2">
    <path clip-path="url(#p46c4688a7f)" d="M 287.824801 293.479494 
L 288.511202 288.16916 
L 288.524341 284.982959 
L 288.259111 280.734691 
L 287.6392 274.36229 
L 285.485261 254.183019 
L 284.360635 245.686483 
L 283.304174 239.314082 
L 282.422709 235.065814 
L 281.262928 230.817546 
L 280.530188 228.693413 
L 279.557642 226.569279 
L 278.509918 224.945143 
L 277.447851 223.818688 
L 276.385784 223.079705 
L 275.323717 222.621852 
L 273.920236 222.321011 
L 272.137517 222.202481 
L 268.951316 222.348 
L 261.516848 222.797919 
L 254.082379 222.968672 
L 237.089309 223.048334 
L 206.289368 223.185755 
L 192.482498 223.49829 
L 168.054959 224.136879 
L 158.496357 224.096734 
L 145.751554 223.776069 
L 130.882617 223.210252 
L 124.510216 222.761073 
L 119.199881 222.162355 
L 113.542007 221.258944 
L 106.455078 220.066841 
L 104.330944 219.867681 
L 102.20681 219.844203 
L 100.082677 220.072636 
L 97.958543 220.641314 
L 96.549287 221.258944 
L 94.772342 222.323075 
L 93.453562 223.383078 
L 91.586141 225.257852 
L 89.725764 227.631346 
L 88.30406 229.75548 
L 86.275807 233.224499 
L 80.965472 242.824096 
L 79.512333 244.624416 
L 78.841338 245.274168 
L 77.779271 245.889613 
L 76.717204 246.061196 
L 75.541218 245.686483 
L 74.593071 245.007643 
L 73.432647 243.562349 
L 72.268414 241.438216 
L 71.007808 238.252015 
L 70.026572 235.065814 
L 68.977598 230.817546 
L 67.91932 225.507212 
L 66.736287 218.072743 
L 65.657775 209.576208 
L 64.680423 200.017606 
L 63.640751 187.272803 
L 62.617463 171.341799 
L 61.603965 151.162528 
L 60.650123 126.734989 
L 59.764999 96.997115 
L 58.896789 60.88684 
L 58.966554 55.576506 
L 58.966554 55.576506 
" style="fill:none;stroke:#0000e8;stroke-width:1.5;"/>
   </g>
   <g id="LineCollection_3">
    <path clip-path="url(#p46c4688a7f)" d="M 290.880262 293.479494 
L 291.230801 287.107093 
L 291.071252 282.858825 
L 289.966556 265.865755 
L 287.357936 228.693413 
L 286.47331 219.13481 
L 285.529151 210.638275 
L 284.499915 203.203807 
L 283.57565 197.893472 
L 282.634437 193.645204 
L 281.696119 190.399292 
L 280.331835 187.272803 
L 279.571985 186.013669 
L 278.509918 184.92009 
L 277.447851 184.34164 
L 276.385784 184.143861 
L 275.323717 184.215567 
L 273.199584 184.825682 
L 267.889249 186.854656 
L 265.765115 187.451983 
L 263.640981 187.885406 
L 260.454781 188.279257 
L 256.206513 188.489535 
L 249.834112 188.512055 
L 222.220372 188.430771 
L 140.441219 188.496215 
L 121.324015 188.729418 
L 116.01368 188.520163 
L 110.703346 188.080606 
L 101.144743 187.147754 
L 97.958543 187.104094 
L 95.817315 187.272803 
L 93.710275 187.663614 
L 91.586141 188.35314 
L 89.462007 189.415855 
L 87.337874 190.918812 
L 85.21374 192.888732 
L 82.666196 195.769338 
L 79.903405 199.050335 
L 78.841338 200.145315 
L 77.689538 201.079673 
L 76.717204 201.619752 
L 75.655138 201.826203 
L 74.593071 201.562426 
L 73.531004 200.739372 
L 72.321775 198.955539 
L 71.335807 196.831405 
L 69.990067 192.583138 
L 68.97446 188.33487 
L 67.796358 181.962468 
L 66.713301 174.528 
L 65.710958 166.031465 
L 64.597041 154.348729 
L 63.535855 140.541859 
L 62.486003 123.548788 
L 61.494444 103.369517 
L 60.238921 71.507509 
L 59.867615 59.824773 
L 59.995872 55.576506 
L 59.995872 55.576506 
" style="fill:none;stroke:#0038ff;stroke-width:1.5;"/>
   </g>
   <g id="LineCollection_4">
    <path clip-path="url(#p46c4688a7f)" d="M 292.848573 293.479494 
L 292.931694 284.982959 
L 292.518375 275.424357 
L 289.851184 221.258944 
L 288.632466 202.14174 
L 287.530548 188.33487 
L 286.465493 177.714201 
L 285.533791 170.279732 
L 284.527486 163.907331 
L 283.423561 158.596996 
L 282.55985 155.410796 
L 281.696119 152.963677 
L 280.634052 150.924289 
L 279.571985 149.686143 
L 278.509918 149.093163 
L 277.342395 149.038394 
L 276.385784 149.308831 
L 275.028008 150.100461 
L 273.199584 151.516439 
L 269.834915 154.348729 
L 267.889249 155.757736 
L 265.765115 156.979712 
L 263.640981 157.87303 
L 261.516848 158.476443 
L 259.392714 158.845587 
L 256.206513 159.081711 
L 251.958245 159.054069 
L 237.089309 158.625302 
L 222.220372 158.681547 
L 202.0411 158.625513 
L 133.006751 158.348547 
L 104.330944 158.192473 
L 96.896476 158.122233 
L 93.710275 158.253507 
L 90.524074 158.633608 
L 88.399941 159.102755 
L 86.275807 159.799265 
L 84.151673 160.757605 
L 82.027539 161.965447 
L 77.779271 164.506334 
L 76.717204 164.897574 
L 75.655138 165.040326 
L 74.593071 164.833424 
L 73.312649 163.907331 
L 72.431013 162.845264 
L 71.31736 160.72113 
L 70.170927 157.534929 
L 69.051449 153.286662 
L 67.977967 147.976327 
L 66.812757 140.541859 
L 65.640323 130.983257 
L 64.601275 120.362587 
L 63.594288 107.617784 
L 62.518572 90.624714 
L 60.999511 61.948907 
L 61.001236 58.762706 
L 61.176365 55.576506 
L 61.176365 55.576506 
" style="fill:none;stroke:#0094ff;stroke-width:1.5;"/>
   </g>
   <g id="LineCollection_5">
    <path clip-path="url(#p46c4688a7f)" d="M 294.446315 293.479494 
L 294.30941 280.734691 
L 292.826062 239.314082 
L 291.614779 209.576208 
L 290.611989 189.396937 
L 289.646341 173.465933 
L 288.609749 159.659063 
L 287.609243 149.038394 
L 286.60098 140.541859 
L 285.647372 134.169457 
L 284.628756 128.859123 
L 283.545664 124.610855 
L 282.413405 121.424654 
L 281.696119 119.873063 
L 280.449662 118.238454 
L 279.571985 117.572928 
L 278.509918 117.331895 
L 277.447851 117.55488 
L 276.274435 118.238454 
L 275.051938 119.30052 
L 273.117288 121.424654 
L 268.710138 126.734989 
L 266.624812 128.859123 
L 264.703048 130.442178 
L 262.578914 131.740776 
L 260.454781 132.610581 
L 258.330647 133.113743 
L 256.206513 133.321989 
L 254.082379 133.303197 
L 250.896178 132.985875 
L 245.190557 132.045323 
L 240.275509 131.300258 
L 236.027242 130.891638 
L 231.778974 130.722112 
L 226.468639 130.757114 
L 190.358364 131.589583 
L 135.130885 131.925667 
L 89.462007 132.358589 
L 86.275807 132.7042 
L 83.089606 133.297737 
L 77.779271 134.577463 
L 76.717204 134.691203 
L 75.655138 134.642284 
L 74.299708 134.169457 
L 73.531004 133.703849 
L 72.468937 132.589697 
L 71.40687 130.864487 
L 70.16785 127.797056 
L 68.963589 123.548788 
L 67.849056 118.238454 
L 66.816756 111.866052 
L 65.73998 103.369517 
L 64.67626 92.748848 
L 63.394461 76.817844 
L 62.427058 63.010974 
L 62.385455 59.824773 
L 62.6584 55.576506 
L 62.6584 55.576506 
" style="fill:none;stroke:#0cf4eb;stroke-width:1.5;"/>
   </g>
   <g id="LineCollection_6">
    <path clip-path="url(#p46c4688a7f)" d="M 296.094407 293.479494 
L 295.940394 281.796758 
L 292.416332 177.714201 
L 291.516106 159.659063 
L 290.602244 144.790126 
L 289.713046 133.10739 
L 288.697615 122.486721 
L 287.664893 113.990186 
L 286.694651 107.617784 
L 285.6791 102.30745 
L 284.637392 98.059182 
L 283.624814 94.872981 
L 282.758186 92.708817 
L 281.606563 90.624714 
L 280.634052 89.33153 
L 279.571985 88.389147 
L 278.509918 87.866033 
L 277.447851 87.735285 
L 276.385784 88.002057 
L 275.323717 88.684707 
L 274.261651 89.806219 
L 273.003146 91.686781 
L 270.703726 95.935048 
L 268.951235 99.121249 
L 266.906014 102.30745 
L 265.765115 103.803338 
L 264.236345 105.493651 
L 262.578914 106.976225 
L 261.516848 107.734915 
L 259.392714 108.862375 
L 257.26858 109.551367 
L 255.144446 109.89498 
L 253.020312 109.982235 
L 249.834112 109.803051 
L 244.523777 109.150643 
L 236.027242 108.107097 
L 228.592773 107.454951 
L 220.096238 106.947987 
L 211.599703 106.644009 
L 203.103167 106.566415 
L 193.544565 106.724079 
L 161.682558 107.467255 
L 140.441219 107.566182 
L 108.579212 107.743309 
L 91.586141 108.028445 
L 84.151673 108.361074 
L 78.841338 108.583486 
L 76.717204 108.373305 
L 75.655138 108.076017 
L 74.593071 107.566213 
L 73.362606 106.555717 
L 72.456547 105.493651 
L 71.264332 103.369517 
L 70.046949 100.183316 
L 69.130491 96.997115 
L 67.997476 91.686781 
L 66.812017 84.252312 
L 65.620358 74.69371 
L 64.732579 66.197175 
L 64.499717 61.948907 
L 64.553631 59.824773 
L 64.94583 55.576506 
L 64.94583 55.576506 
" style="fill:none;stroke:#56ffa0;stroke-width:1.5;"/>
   </g>
   <g id="LineCollection_7">
    <path clip-path="url(#p46c4688a7f)" d="M 302.197816 293.479494 
L 302.052347 286.045026 
L 301.710246 279.672625 
L 301.006552 271.176089 
L 299.680476 258.431286 
L 297.448022 239.314082 
L 296.50809 230.817546 
L 295.137967 195.769338 
L 294.1243 166.031465 
L 293.155741 143.728059 
L 292.139528 125.672922 
L 291.043899 110.803985 
L 289.928953 99.121249 
L 288.990237 91.686781 
L 288.06852 86.354739 
L 287.006454 82.028752 
L 285.944387 78.936075 
L 284.88232 76.658379 
L 283.640772 74.69371 
L 282.758186 73.600809 
L 281.692766 72.569576 
L 280.173197 71.507509 
L 278.509918 70.712551 
L 277.447851 70.369146 
L 275.323717 70.003104 
L 273.199584 69.949069 
L 271.07545 70.153552 
L 268.951316 70.585218 
L 266.084267 71.507509 
L 263.640981 72.596773 
L 261.516848 73.784454 
L 258.62757 75.755777 
L 256.071076 77.879911 
L 252.77167 81.066112 
L 249.532158 84.252312 
L 247.709978 85.7875 
L 245.585844 87.190048 
L 243.46171 88.211791 
L 241.337576 88.924388 
L 239.213442 89.402776 
L 237.089309 89.697284 
L 233.903108 89.879543 
L 230.716907 89.833419 
L 226.468639 89.516557 
L 221.158305 88.833595 
L 213.723836 87.604846 
L 200.979033 85.490658 
L 193.544565 84.541883 
L 186.110097 83.854779 
L 177.613561 83.318189 
L 143.62742 81.48929 
L 133.006751 80.59779 
L 121.324015 79.386671 
L 110.703346 78.060315 
L 102.20681 76.804362 
L 93.710275 75.286596 
L 87.337874 73.910458 
L 83.089606 72.787216 
L 80.965472 72.09126 
L 78.841338 71.207349 
L 77.498937 70.445442 
L 76.181258 69.383375 
L 75.270675 68.321309 
L 74.593071 67.255698 
L 73.898102 65.135108 
L 73.73625 64.073041 
L 73.709214 63.010974 
L 73.992669 60.88684 
L 74.593071 57.662274 
L 74.593071 56.494827 
L 74.440494 55.576506 
L 74.440494 55.576506 
" style="fill:none;stroke:#a0ff56;stroke-width:1.5;"/>
   </g>
   <g id="LineCollection_8">
    <path clip-path="url(#p46c4688a7f)" d="M 309.482876 293.479494 
L 309.344644 284.982959 
L 308.974758 276.486424 
L 308.247792 265.66192 
L 307.100345 252.058885 
L 305.260527 232.94168 
L 303.108732 212.762409 
L 300.9785 194.707271 
L 298.890737 178.776268 
L 296.875653 164.969398 
L 296.558439 162.845264 
L 294.761329 126.734989 
L 293.864222 109.741918 
L 293.012036 96.997115 
L 292.249584 88.50058 
L 291.56931 83.190245 
L 290.816551 78.941978 
L 290.050207 75.755777 
L 288.977122 72.569576 
L 287.980431 70.445442 
L 287.006454 68.89514 
L 285.944387 67.606932 
L 284.88232 66.617844 
L 283.820253 65.841145 
L 281.696119 64.724191 
L 279.571985 63.985751 
L 277.447851 63.489545 
L 274.261651 63.045688 
L 270.013383 62.7768 
L 262.578914 62.680111 
L 259.392714 62.560632 
L 257.26858 62.354969 
L 255.05827 61.948907 
L 254.082379 61.570923 
L 252.772661 60.88684 
L 251.886425 59.824773 
L 251.64184 58.762706 
L 251.958245 57.397535 
L 252.298623 56.638572 
L 253.030764 55.576506 
L 253.030764 55.576506 
" style="fill:none;stroke:#ebff0c;stroke-width:1.5;"/>
   </g>
   <g id="LineCollection_9">
    <path clip-path="url(#p46c4688a7f)" d="M 316.941599 293.479494 
L 316.822398 283.920892 
L 316.459708 273.300223 
L 315.784908 260.55542 
L 314.620193 243.266457 
L 312.987218 222.321011 
L 311.124351 201.079673 
L 309.230849 181.962468 
L 307.442429 166.031465 
L 305.686188 152.224595 
L 303.842576 139.479792 
L 302.09749 128.859123 
L 300.324194 119.30052 
L 298.314868 109.741918 
L 296.469277 101.245383 
L 294.430263 78.941978 
L 293.830853 74.69371 
L 293.22155 71.507509 
L 292.316788 68.190699 
L 291.53067 66.197175 
L 290.997113 65.135108 
L 290.192654 63.828878 
L 289.130587 62.484449 
L 287.46964 60.88684 
L 285.944387 59.620343 
L 283.820253 57.814368 
L 283.687777 57.700639 
L 282.758186 56.381583 
L 282.395578 55.576506 
L 282.395578 55.576506 
" style="fill:none;stroke:#ffab00;stroke-width:1.5;"/>
   </g>
   <g id="LineCollection_10">
    <path clip-path="url(#p46c4688a7f)" d="M 324.525254 293.479494 
L 324.411499 281.796758 
L 324.041151 267.989888 
L 323.338931 250.996818 
L 322.172566 228.693413 
L 320.618119 203.203807 
L 319.042836 180.900401 
L 317.470604 161.783197 
L 315.940533 145.852193 
L 314.392731 132.045323 
L 312.871693 120.362587 
L 311.272293 109.741918 
L 309.603262 100.183316 
L 308.105479 92.748848 
L 306.371267 85.314379 
L 304.632123 78.941978 
L 302.937457 73.598889 
L 300.991485 68.321309 
L 299.665538 65.135108 
L 296.565056 57.988134 
L 296.409945 56.638572 
L 296.365711 55.576506 
L 296.365711 55.576506 
" style="fill:none;stroke:#ff5500;stroke-width:1.5;"/>
   </g>
   <g id="LineCollection_11">
    <path clip-path="url(#p46c4688a7f)" d="M 332.191722 293.479494 
L 332.074864 277.548491 
L 331.690576 257.369219 
L 330.974873 232.94168 
L 329.778515 200.017606 
L 328.557588 172.403866 
L 327.354688 150.100461 
L 326.162754 132.045323 
L 324.973119 117.176387 
L 323.651674 103.369517 
L 322.217748 90.624714 
L 319.343814 66.197175 
L 318.986231 60.88684 
L 318.867301 55.576506 
L 318.867301 55.576506 
" style="fill:none;stroke:#e80000;stroke-width:1.5;"/>
   </g>
   <g id="LineCollection_12">
    <path clip-path="url(#p46c4688a7f)" d="M 339.906177 293.479494 
L 339.776485 257.369219 
L 339.37267 218.072743 
L 338.684978 169.217665 
L 337.970071 133.10739 
L 337.108315 103.369517 
L 335.778779 60.88684 
L 335.748648 55.576506 
L 335.748648 55.576506 
" style="fill:none;stroke:#800000;stroke-width:1.5;"/>
   </g>
   <g id="patch_3">
    <path d="M 57.6 293.479494 
L 57.6 55.576506 
" style="fill:none;stroke:#000000;stroke-linecap:square;stroke-linejoin:miter;stroke-width:0.8;"/>
   </g>
   <g id="patch_4">
    <path d="M 343.296 293.479494 
L 343.296 55.576506 
" style="fill:none;stroke:#000000;stroke-linecap:square;stroke-linejoin:miter;stroke-width:0.8;"/>
   </g>
   <g id="patch_5">
    <path d="M 57.6 293.479494 
L 343.296 293.479494 
" style="fill:none;stroke:#000000;stroke-linecap:square;stroke-linejoin:miter;stroke-width:0.8;"/>
   </g>
   <g id="patch_6">
    <path d="M 57.6 55.576506 
L 343.296 55.576506 
" style="fill:none;stroke:#000000;stroke-linecap:square;stroke-linejoin:miter;stroke-width:0.8;"/>
   </g>
   <g id="text_10">
    <!-- Time:0.05926 s -->
    <defs>
     <path d="M -0.296875 72.90625 
L 61.375 72.90625 
L 61.375 64.59375 
L 35.5 64.59375 
L 35.5 0 
L 25.59375 0 
L 25.59375 64.59375 
L -0.296875 64.59375 
z
" id="DejaVuSans-54"/>
     <path d="M 9.421875 54.6875 
L 18.40625 54.6875 
L 18.40625 0 
L 9.421875 0 
z
M 9.421875 75.984375 
L 18.40625 75.984375 
L 18.40625 64.59375 
L 9.421875 64.59375 
z
" id="DejaVuSans-69"/>
     <path d="M 52 44.1875 
Q 55.375 50.25 60.0625 53.125 
Q 64.75 56 71.09375 56 
Q 79.640625 56 84.28125 50.015625 
Q 88.921875 44.046875 88.921875 33.015625 
L 88.921875 0 
L 79.890625 0 
L 79.890625 32.71875 
Q 79.890625 40.578125 77.09375 44.375 
Q 74.3125 48.1875 68.609375 48.1875 
Q 61.625 48.1875 57.5625 43.546875 
Q 53.515625 38.921875 53.515625 30.90625 
L 53.515625 0 
L 44.484375 0 
L 44.484375 32.71875 
Q 44.484375 40.625 41.703125 44.40625 
Q 38.921875 48.1875 33.109375 48.1875 
Q 26.21875 48.1875 22.15625 43.53125 
Q 18.109375 38.875 18.109375 30.90625 
L 18.109375 0 
L 9.078125 0 
L 9.078125 54.6875 
L 18.109375 54.6875 
L 18.109375 46.1875 
Q 21.1875 51.21875 25.484375 53.609375 
Q 29.78125 56 35.6875 56 
Q 41.65625 56 45.828125 52.96875 
Q 50 49.953125 52 44.1875 
z
" id="DejaVuSans-6d"/>
     <path d="M 56.203125 29.59375 
L 56.203125 25.203125 
L 14.890625 25.203125 
Q 15.484375 15.921875 20.484375 11.0625 
Q 25.484375 6.203125 34.421875 6.203125 
Q 39.59375 6.203125 44.453125 7.46875 
Q 49.3125 8.734375 54.109375 11.28125 
L 54.109375 2.78125 
Q 49.265625 0.734375 44.1875 -0.34375 
Q 39.109375 -1.421875 33.890625 -1.421875 
Q 20.796875 -1.421875 13.15625 6.1875 
Q 5.515625 13.8125 5.515625 26.8125 
Q 5.515625 40.234375 12.765625 48.109375 
Q 20.015625 56 32.328125 56 
Q 43.359375 56 49.78125 48.890625 
Q 56.203125 41.796875 56.203125 29.59375 
z
M 47.21875 32.234375 
Q 47.125 39.59375 43.09375 43.984375 
Q 39.0625 48.390625 32.421875 48.390625 
Q 24.90625 48.390625 20.390625 44.140625 
Q 15.875 39.890625 15.1875 32.171875 
z
" id="DejaVuSans-65"/>
     <path d="M 11.71875 12.40625 
L 22.015625 12.40625 
L 22.015625 0 
L 11.71875 0 
z
M 11.71875 51.703125 
L 22.015625 51.703125 
L 22.015625 39.3125 
L 11.71875 39.3125 
z
" id="DejaVuSans-3a"/>
     <path d="M 10.796875 72.90625 
L 49.515625 72.90625 
L 49.515625 64.59375 
L 19.828125 64.59375 
L 19.828125 46.734375 
Q 21.96875 47.46875 24.109375 47.828125 
Q 26.265625 48.1875 28.421875 48.1875 
Q 40.625 48.1875 47.75 41.5 
Q 54.890625 34.8125 54.890625 23.390625 
Q 54.890625 11.625 47.5625 5.09375 
Q 40.234375 -1.421875 26.90625 -1.421875 
Q 22.3125 -1.421875 17.546875 -0.640625 
Q 12.796875 0.140625 7.71875 1.703125 
L 7.71875 11.625 
Q 12.109375 9.234375 16.796875 8.0625 
Q 21.484375 6.890625 26.703125 6.890625 
Q 35.15625 6.890625 40.078125 11.328125 
Q 45.015625 15.765625 45.015625 23.390625 
Q 45.015625 31 40.078125 35.4375 
Q 35.15625 39.890625 26.703125 39.890625 
Q 22.75 39.890625 18.8125 39.015625 
Q 14.890625 38.140625 10.796875 36.28125 
z
" id="DejaVuSans-35"/>
     <path d="M 10.984375 1.515625 
L 10.984375 10.5 
Q 14.703125 8.734375 18.5 7.8125 
Q 22.3125 6.890625 25.984375 6.890625 
Q 35.75 6.890625 40.890625 13.453125 
Q 46.046875 20.015625 46.78125 33.40625 
Q 43.953125 29.203125 39.59375 26.953125 
Q 35.25 24.703125 29.984375 24.703125 
Q 19.046875 24.703125 12.671875 31.3125 
Q 6.296875 37.9375 6.296875 49.421875 
Q 6.296875 60.640625 12.9375 67.421875 
Q 19.578125 74.21875 30.609375 74.21875 
Q 43.265625 74.21875 49.921875 64.515625 
Q 56.59375 54.828125 56.59375 36.375 
Q 56.59375 19.140625 48.40625 8.859375 
Q 40.234375 -1.421875 26.421875 -1.421875 
Q 22.703125 -1.421875 18.890625 -0.6875 
Q 15.09375 0.046875 10.984375 1.515625 
z
M 30.609375 32.421875 
Q 37.25 32.421875 41.125 36.953125 
Q 45.015625 41.5 45.015625 49.421875 
Q 45.015625 57.28125 41.125 61.84375 
Q 37.25 66.40625 30.609375 66.40625 
Q 23.96875 66.40625 20.09375 61.84375 
Q 16.21875 57.28125 16.21875 49.421875 
Q 16.21875 41.5 20.09375 36.953125 
Q 23.96875 32.421875 30.609375 32.421875 
z
" id="DejaVuSans-39"/>
     <path id="DejaVuSans-20"/>
     <path d="M 44.28125 53.078125 
L 44.28125 44.578125 
Q 40.484375 46.53125 36.375 47.5 
Q 32.28125 48.484375 27.875 48.484375 
Q 21.1875 48.484375 17.84375 46.4375 
Q 14.5 44.390625 14.5 40.28125 
Q 14.5 37.15625 16.890625 35.375 
Q 19.28125 33.59375 26.515625 31.984375 
L 29.59375 31.296875 
Q 39.15625 29.25 43.1875 25.515625 
Q 47.21875 21.78125 47.21875 15.09375 
Q 47.21875 7.46875 41.1875 3.015625 
Q 35.15625 -1.421875 24.609375 -1.421875 
Q 20.21875 -1.421875 15.453125 -0.5625 
Q 10.6875 0.296875 5.421875 2 
L 5.421875 11.28125 
Q 10.40625 8.6875 15.234375 7.390625 
Q 20.0625 6.109375 24.8125 6.109375 
Q 31.15625 6.109375 34.5625 8.28125 
Q 37.984375 10.453125 37.984375 14.40625 
Q 37.984375 18.0625 35.515625 20.015625 
Q 33.0625 21.96875 24.703125 23.78125 
L 21.578125 24.515625 
Q 13.234375 26.265625 9.515625 29.90625 
Q 5.8125 33.546875 5.8125 39.890625 
Q 5.8125 47.609375 11.28125 51.796875 
Q 16.75 56 26.8125 56 
Q 31.78125 56 36.171875 55.265625 
Q 40.578125 54.546875 44.28125 53.078125 
z
" id="DejaVuSans-73"/>
    </defs>
    <g transform="translate(153.717375 49.576506)scale(0.12 -0.12)">
     <use xlink:href="#DejaVuSans-54"/>
     <use x="61.037109" xlink:href="#DejaVuSans-69"/>
     <use x="88.820312" xlink:href="#DejaVuSans-6d"/>
     <use x="186.232422" xlink:href="#DejaVuSans-65"/>
     <use x="247.755859" xlink:href="#DejaVuSans-3a"/>
     <use x="281.447266" xlink:href="#DejaVuSans-30"/>
     <use x="345.070312" xlink:href="#DejaVuSans-2e"/>
     <use x="376.857422" xlink:href="#DejaVuSans-30"/>
     <use x="440.480469" xlink:href="#DejaVuSans-35"/>
     <use x="504.103516" xlink:href="#DejaVuSans-39"/>
     <use x="567.726562" xlink:href="#DejaVuSans-32"/>
     <use x="631.349609" xlink:href="#DejaVuSans-36"/>
     <use x="694.972656" xlink:href="#DejaVuSans-20"/>
     <use x="726.759766" xlink:href="#DejaVuSans-73"/>
    </g>
   </g>
  </g>
  <g id="axes_2">
   <g id="patch_7">
    <path clip-path="url(#p8cf04c322c)" d="M 361.152 307.584 
L 361.152 283.392 
L 361.152 65.664 
L 361.152 41.472 
L 374.4576 41.472 
L 374.4576 65.664 
L 374.4576 283.392 
L 374.4576 307.584 
z
" style="fill:#ffffff;stroke:#ffffff;stroke-linejoin:miter;stroke-width:0.01;"/>
   </g>
   <g id="matplotlib.axis_3"/>
   <g id="matplotlib.axis_4">
    <g id="ytick_5">
     <g id="line2d_10">
      <defs>
       <path d="M 0 0 
L 3.5 0 
" id="mb1e535caaf" style="stroke:#000000;stroke-width:0.8;"/>
      </defs>
      <g>
       <use style="stroke:#000000;stroke-width:0.8;" x="374.4576" xlink:href="#mb1e535caaf" y="307.584"/>
      </g>
     </g>
     <g id="text_11">
      <!-- 0.08 -->
      <g transform="translate(381.4576 311.383219)scale(0.1 -0.1)">
       <use xlink:href="#DejaVuSans-30"/>
       <use x="63.623047" xlink:href="#DejaVuSans-2e"/>
       <use x="95.410156" xlink:href="#DejaVuSans-30"/>
       <use x="159.033203" xlink:href="#DejaVuSans-38"/>
      </g>
     </g>
    </g>
    <g id="ytick_6">
     <g id="line2d_11">
      <g>
       <use style="stroke:#000000;stroke-width:0.8;" x="374.4576" xlink:href="#mb1e535caaf" y="259.2"/>
      </g>
     </g>
     <g id="text_12">
      <!-- 0.24 -->
      <g transform="translate(381.4576 262.999219)scale(0.1 -0.1)">
       <use xlink:href="#DejaVuSans-30"/>
       <use x="63.623047" xlink:href="#DejaVuSans-2e"/>
       <use x="95.410156" xlink:href="#DejaVuSans-32"/>
       <use x="159.033203" xlink:href="#DejaVuSans-34"/>
      </g>
     </g>
    </g>
    <g id="ytick_7">
     <g id="line2d_12">
      <g>
       <use style="stroke:#000000;stroke-width:0.8;" x="374.4576" xlink:href="#mb1e535caaf" y="210.816"/>
      </g>
     </g>
     <g id="text_13">
      <!-- 0.40 -->
      <g transform="translate(381.4576 214.615219)scale(0.1 -0.1)">
       <use xlink:href="#DejaVuSans-30"/>
       <use x="63.623047" xlink:href="#DejaVuSans-2e"/>
       <use x="95.410156" xlink:href="#DejaVuSans-34"/>
       <use x="159.033203" xlink:href="#DejaVuSans-30"/>
      </g>
     </g>
    </g>
    <g id="ytick_8">
     <g id="line2d_13">
      <g>
       <use style="stroke:#000000;stroke-width:0.8;" x="374.4576" xlink:href="#mb1e535caaf" y="162.432"/>
      </g>
     </g>
     <g id="text_14">
      <!-- 0.56 -->
      <g transform="translate(381.4576 166.231219)scale(0.1 -0.1)">
       <use xlink:href="#DejaVuSans-30"/>
       <use x="63.623047" xlink:href="#DejaVuSans-2e"/>
       <use x="95.410156" xlink:href="#DejaVuSans-35"/>
       <use x="159.033203" xlink:href="#DejaVuSans-36"/>
      </g>
     </g>
    </g>
    <g id="ytick_9">
     <g id="line2d_14">
      <g>
       <use style="stroke:#000000;stroke-width:0.8;" x="374.4576" xlink:href="#mb1e535caaf" y="114.048"/>
      </g>
     </g>
     <g id="text_15">
      <!-- 0.72 -->
      <defs>
       <path d="M 8.203125 72.90625 
L 55.078125 72.90625 
L 55.078125 68.703125 
L 28.609375 0 
L 18.3125 0 
L 43.21875 64.59375 
L 8.203125 64.59375 
z
" id="DejaVuSans-37"/>
      </defs>
      <g transform="translate(381.4576 117.847219)scale(0.1 -0.1)">
       <use xlink:href="#DejaVuSans-30"/>
       <use x="63.623047" xlink:href="#DejaVuSans-2e"/>
       <use x="95.410156" xlink:href="#DejaVuSans-37"/>
       <use x="159.033203" xlink:href="#DejaVuSans-32"/>
      </g>
     </g>
    </g>
    <g id="ytick_10">
     <g id="line2d_15">
      <g>
       <use style="stroke:#000000;stroke-width:0.8;" x="374.4576" xlink:href="#mb1e535caaf" y="65.664"/>
      </g>
     </g>
     <g id="text_16">
      <!-- 0.88 -->
      <g transform="translate(381.4576 69.463219)scale(0.1 -0.1)">
       <use xlink:href="#DejaVuSans-30"/>
       <use x="63.623047" xlink:href="#DejaVuSans-2e"/>
       <use x="95.410156" xlink:href="#DejaVuSans-38"/>
       <use x="159.033203" xlink:href="#DejaVuSans-38"/>
      </g>
     </g>
    </g>
   </g>
   <g id="LineCollection_13">
    <path clip-path="url(#p8cf04c322c)" d="M 361.152 307.584 
L 374.4576 307.584 
" style="fill:none;stroke:#000080;stroke-width:1.5;"/>
    <path clip-path="url(#p8cf04c322c)" d="M 361.152 283.392 
L 374.4576 283.392 
" style="fill:none;stroke:#0000e8;stroke-width:1.5;"/>
    <path clip-path="url(#p8cf04c322c)" d="M 361.152 259.2 
L 374.4576 259.2 
" style="fill:none;stroke:#0038ff;stroke-width:1.5;"/>
    <path clip-path="url(#p8cf04c322c)" d="M 361.152 235.008 
L 374.4576 235.008 
" style="fill:none;stroke:#0094ff;stroke-width:1.5;"/>
    <path clip-path="url(#p8cf04c322c)" d="M 361.152 210.816 
L 374.4576 210.816 
" style="fill:none;stroke:#0cf4eb;stroke-width:1.5;"/>
    <path clip-path="url(#p8cf04c322c)" d="M 361.152 186.624 
L 374.4576 186.624 
" style="fill:none;stroke:#56ffa0;stroke-width:1.5;"/>
    <path clip-path="url(#p8cf04c322c)" d="M 361.152 162.432 
L 374.4576 162.432 
" style="fill:none;stroke:#a0ff56;stroke-width:1.5;"/>
    <path clip-path="url(#p8cf04c322c)" d="M 361.152 138.24 
L 374.4576 138.24 
" style="fill:none;stroke:#ebff0c;stroke-width:1.5;"/>
    <path clip-path="url(#p8cf04c322c)" d="M 361.152 114.048 
L 374.4576 114.048 
" style="fill:none;stroke:#ffab00;stroke-width:1.5;"/>
    <path clip-path="url(#p8cf04c322c)" d="M 361.152 89.856 
L 374.4576 89.856 
" style="fill:none;stroke:#ff5500;stroke-width:1.5;"/>
    <path clip-path="url(#p8cf04c322c)" d="M 361.152 65.664 
L 374.4576 65.664 
" style="fill:none;stroke:#e80000;stroke-width:1.5;"/>
    <path clip-path="url(#p8cf04c322c)" d="M 361.152 41.472 
L 374.4576 41.472 
" style="fill:none;stroke:#800000;stroke-width:1.5;"/>
   </g>
   <g id="patch_8">
    <path d="M 361.152 307.584 
L 361.152 283.392 
L 361.152 65.664 
L 361.152 41.472 
L 374.4576 41.472 
L 374.4576 65.664 
L 374.4576 283.392 
L 374.4576 307.584 
z
" style="fill:none;stroke:#000000;stroke-linejoin:miter;stroke-width:0.8;"/>
   </g>
  </g>
 </g>
 <defs>
  <clipPath id="p46c4688a7f">
   <rect height="237.902989" width="285.696" x="57.6" y="55.576506"/>
  </clipPath>
  <clipPath id="p8cf04c322c">
   <rect height="266.112" width="13.3056" x="361.152" y="41.472"/>
  </clipPath>
 </defs>
</svg>
