<?xml version="1.0" encoding="utf-8" standalone="no"?>
<!DOCTYPE svg PUBLIC "-//W3C//DTD SVG 1.1//EN"
  "http://www.w3.org/Graphics/SVG/1.1/DTD/svg11.dtd">
<!-- Created with matplotlib (http://matplotlib.org/) -->
<svg height="345.6pt" version="1.1" viewBox="0 0 460.8 345.6" width="460.8pt" xmlns="http://www.w3.org/2000/svg" xmlns:xlink="http://www.w3.org/1999/xlink">
 <defs>
  <style type="text/css">
*{stroke-linecap:butt;stroke-linejoin:round;}
  </style>
 </defs>
 <g id="figure_1">
  <g id="patch_1">
   <path d="M 0 345.6 
L 460.8 345.6 
L 460.8 0 
L 0 0 
z
" style="fill:#ffffff;"/>
  </g>
  <g id="axes_1">
   <g id="patch_2">
    <path d="M 57.6 293.479494 
L 343.296 293.479494 
L 343.296 55.576506 
L 57.6 55.576506 
z
" style="fill:#ffffff;"/>
   </g>
   <g id="matplotlib.axis_1">
    <g id="xtick_1">
     <g id="line2d_1">
      <defs>
       <path d="M 0 0 
L 0 3.5 
" id="m2b801ad630" style="stroke:#000000;stroke-width:0.8;"/>
      </defs>
      <g>
       <use style="stroke:#000000;stroke-width:0.8;" x="104.861978" xlink:href="#m2b801ad630" y="293.479494"/>
      </g>
     </g>
     <g id="text_1">
      <!-- 0.2 -->
      <defs>
       <path d="M 31.78125 66.40625 
Q 24.171875 66.40625 20.328125 58.90625 
Q 16.5 51.421875 16.5 36.375 
Q 16.5 21.390625 20.328125 13.890625 
Q 24.171875 6.390625 31.78125 6.390625 
Q 39.453125 6.390625 43.28125 13.890625 
Q 47.125 21.390625 47.125 36.375 
Q 47.125 51.421875 43.28125 58.90625 
Q 39.453125 66.40625 31.78125 66.40625 
z
M 31.78125 74.21875 
Q 44.046875 74.21875 50.515625 64.515625 
Q 56.984375 54.828125 56.984375 36.375 
Q 56.984375 17.96875 50.515625 8.265625 
Q 44.046875 -1.421875 31.78125 -1.421875 
Q 19.53125 -1.421875 13.0625 8.265625 
Q 6.59375 17.96875 6.59375 36.375 
Q 6.59375 54.828125 13.0625 64.515625 
Q 19.53125 74.21875 31.78125 74.21875 
z
" id="DejaVuSans-30"/>
       <path d="M 10.6875 12.40625 
L 21 12.40625 
L 21 0 
L 10.6875 0 
z
" id="DejaVuSans-2e"/>
       <path d="M 19.1875 8.296875 
L 53.609375 8.296875 
L 53.609375 0 
L 7.328125 0 
L 7.328125 8.296875 
Q 12.9375 14.109375 22.625 23.890625 
Q 32.328125 33.6875 34.8125 36.53125 
Q 39.546875 41.84375 41.421875 45.53125 
Q 43.3125 49.21875 43.3125 52.78125 
Q 43.3125 58.59375 39.234375 62.25 
Q 35.15625 65.921875 28.609375 65.921875 
Q 23.96875 65.921875 18.8125 64.3125 
Q 13.671875 62.703125 7.8125 59.421875 
L 7.8125 69.390625 
Q 13.765625 71.78125 18.9375 73 
Q 24.125 74.21875 28.421875 74.21875 
Q 39.75 74.21875 46.484375 68.546875 
Q 53.21875 62.890625 53.21875 53.421875 
Q 53.21875 48.921875 51.53125 44.890625 
Q 49.859375 40.875 45.40625 35.40625 
Q 44.1875 33.984375 37.640625 27.21875 
Q 31.109375 20.453125 19.1875 8.296875 
z
" id="DejaVuSans-32"/>
      </defs>
      <g transform="translate(96.910415 308.077932)scale(0.1 -0.1)">
       <use xlink:href="#DejaVuSans-30"/>
       <use x="63.623047" xlink:href="#DejaVuSans-2e"/>
       <use x="95.410156" xlink:href="#DejaVuSans-32"/>
      </g>
     </g>
    </g>
    <g id="xtick_2">
     <g id="line2d_2">
      <g>
       <use style="stroke:#000000;stroke-width:0.8;" x="152.654989" xlink:href="#m2b801ad630" y="293.479494"/>
      </g>
     </g>
     <g id="text_2">
      <!-- 0.4 -->
      <defs>
       <path d="M 37.796875 64.3125 
L 12.890625 25.390625 
L 37.796875 25.390625 
z
M 35.203125 72.90625 
L 47.609375 72.90625 
L 47.609375 25.390625 
L 58.015625 25.390625 
L 58.015625 17.1875 
L 47.609375 17.1875 
L 47.609375 0 
L 37.796875 0 
L 37.796875 17.1875 
L 4.890625 17.1875 
L 4.890625 26.703125 
z
" id="DejaVuSans-34"/>
      </defs>
      <g transform="translate(144.703426 308.077932)scale(0.1 -0.1)">
       <use xlink:href="#DejaVuSans-30"/>
       <use x="63.623047" xlink:href="#DejaVuSans-2e"/>
       <use x="95.410156" xlink:href="#DejaVuSans-34"/>
      </g>
     </g>
    </g>
    <g id="xtick_3">
     <g id="line2d_3">
      <g>
       <use style="stroke:#000000;stroke-width:0.8;" x="200.448" xlink:href="#m2b801ad630" y="293.479494"/>
      </g>
     </g>
     <g id="text_3">
      <!-- 0.6 -->
      <defs>
       <path d="M 33.015625 40.375 
Q 26.375 40.375 22.484375 35.828125 
Q 18.609375 31.296875 18.609375 23.390625 
Q 18.609375 15.53125 22.484375 10.953125 
Q 26.375 6.390625 33.015625 6.390625 
Q 39.65625 6.390625 43.53125 10.953125 
Q 47.40625 15.53125 47.40625 23.390625 
Q 47.40625 31.296875 43.53125 35.828125 
Q 39.65625 40.375 33.015625 40.375 
z
M 52.59375 71.296875 
L 52.59375 62.3125 
Q 48.875 64.0625 45.09375 64.984375 
Q 41.3125 65.921875 37.59375 65.921875 
Q 27.828125 65.921875 22.671875 59.328125 
Q 17.53125 52.734375 16.796875 39.40625 
Q 19.671875 43.65625 24.015625 45.921875 
Q 28.375 48.1875 33.59375 48.1875 
Q 44.578125 48.1875 50.953125 41.515625 
Q 57.328125 34.859375 57.328125 23.390625 
Q 57.328125 12.15625 50.6875 5.359375 
Q 44.046875 -1.421875 33.015625 -1.421875 
Q 20.359375 -1.421875 13.671875 8.265625 
Q 6.984375 17.96875 6.984375 36.375 
Q 6.984375 53.65625 15.1875 63.9375 
Q 23.390625 74.21875 37.203125 74.21875 
Q 40.921875 74.21875 44.703125 73.484375 
Q 48.484375 72.75 52.59375 71.296875 
z
" id="DejaVuSans-36"/>
      </defs>
      <g transform="translate(192.496438 308.077932)scale(0.1 -0.1)">
       <use xlink:href="#DejaVuSans-30"/>
       <use x="63.623047" xlink:href="#DejaVuSans-2e"/>
       <use x="95.410156" xlink:href="#DejaVuSans-36"/>
      </g>
     </g>
    </g>
    <g id="xtick_4">
     <g id="line2d_4">
      <g>
       <use style="stroke:#000000;stroke-width:0.8;" x="248.241011" xlink:href="#m2b801ad630" y="293.479494"/>
      </g>
     </g>
     <g id="text_4">
      <!-- 0.8 -->
      <defs>
       <path d="M 31.78125 34.625 
Q 24.75 34.625 20.71875 30.859375 
Q 16.703125 27.09375 16.703125 20.515625 
Q 16.703125 13.921875 20.71875 10.15625 
Q 24.75 6.390625 31.78125 6.390625 
Q 38.8125 6.390625 42.859375 10.171875 
Q 46.921875 13.96875 46.921875 20.515625 
Q 46.921875 27.09375 42.890625 30.859375 
Q 38.875 34.625 31.78125 34.625 
z
M 21.921875 38.8125 
Q 15.578125 40.375 12.03125 44.71875 
Q 8.5 49.078125 8.5 55.328125 
Q 8.5 64.0625 14.71875 69.140625 
Q 20.953125 74.21875 31.78125 74.21875 
Q 42.671875 74.21875 48.875 69.140625 
Q 55.078125 64.0625 55.078125 55.328125 
Q 55.078125 49.078125 51.53125 44.71875 
Q 48 40.375 41.703125 38.8125 
Q 48.828125 37.15625 52.796875 32.3125 
Q 56.78125 27.484375 56.78125 20.515625 
Q 56.78125 9.90625 50.3125 4.234375 
Q 43.84375 -1.421875 31.78125 -1.421875 
Q 19.734375 -1.421875 13.25 4.234375 
Q 6.78125 9.90625 6.78125 20.515625 
Q 6.78125 27.484375 10.78125 32.3125 
Q 14.796875 37.15625 21.921875 38.8125 
z
M 18.3125 54.390625 
Q 18.3125 48.734375 21.84375 45.5625 
Q 25.390625 42.390625 31.78125 42.390625 
Q 38.140625 42.390625 41.71875 45.5625 
Q 45.3125 48.734375 45.3125 54.390625 
Q 45.3125 60.0625 41.71875 63.234375 
Q 38.140625 66.40625 31.78125 66.40625 
Q 25.390625 66.40625 21.84375 63.234375 
Q 18.3125 60.0625 18.3125 54.390625 
z
" id="DejaVuSans-38"/>
      </defs>
      <g transform="translate(240.289449 308.077932)scale(0.1 -0.1)">
       <use xlink:href="#DejaVuSans-30"/>
       <use x="63.623047" xlink:href="#DejaVuSans-2e"/>
       <use x="95.410156" xlink:href="#DejaVuSans-38"/>
      </g>
     </g>
    </g>
    <g id="xtick_5">
     <g id="line2d_5">
      <g>
       <use style="stroke:#000000;stroke-width:0.8;" x="296.034022" xlink:href="#m2b801ad630" y="293.479494"/>
      </g>
     </g>
     <g id="text_5">
      <!-- 1.0 -->
      <defs>
       <path d="M 12.40625 8.296875 
L 28.515625 8.296875 
L 28.515625 63.921875 
L 10.984375 60.40625 
L 10.984375 69.390625 
L 28.421875 72.90625 
L 38.28125 72.90625 
L 38.28125 8.296875 
L 54.390625 8.296875 
L 54.390625 0 
L 12.40625 0 
z
" id="DejaVuSans-31"/>
      </defs>
      <g transform="translate(288.08246 308.077932)scale(0.1 -0.1)">
       <use xlink:href="#DejaVuSans-31"/>
       <use x="63.623047" xlink:href="#DejaVuSans-2e"/>
       <use x="95.410156" xlink:href="#DejaVuSans-30"/>
      </g>
     </g>
    </g>
   </g>
   <g id="matplotlib.axis_2">
    <g id="ytick_1">
     <g id="line2d_6">
      <defs>
       <path d="M 0 0 
L -3.5 0 
" id="mabfa1efb30" style="stroke:#000000;stroke-width:0.8;"/>
      </defs>
      <g>
       <use style="stroke:#000000;stroke-width:0.8;" x="57.6" xlink:href="#mabfa1efb30" y="246.217517"/>
      </g>
     </g>
     <g id="text_6">
      <!-- 0.2 -->
      <g transform="translate(34.696875 250.016735)scale(0.1 -0.1)">
       <use xlink:href="#DejaVuSans-30"/>
       <use x="63.623047" xlink:href="#DejaVuSans-2e"/>
       <use x="95.410156" xlink:href="#DejaVuSans-32"/>
      </g>
     </g>
    </g>
    <g id="ytick_2">
     <g id="line2d_7">
      <g>
       <use style="stroke:#000000;stroke-width:0.8;" x="57.6" xlink:href="#mabfa1efb30" y="198.424506"/>
      </g>
     </g>
     <g id="text_7">
      <!-- 0.4 -->
      <g transform="translate(34.696875 202.223724)scale(0.1 -0.1)">
       <use xlink:href="#DejaVuSans-30"/>
       <use x="63.623047" xlink:href="#DejaVuSans-2e"/>
       <use x="95.410156" xlink:href="#DejaVuSans-34"/>
      </g>
     </g>
    </g>
    <g id="ytick_3">
     <g id="line2d_8">
      <g>
       <use style="stroke:#000000;stroke-width:0.8;" x="57.6" xlink:href="#mabfa1efb30" y="150.631494"/>
      </g>
     </g>
     <g id="text_8">
      <!-- 0.6 -->
      <g transform="translate(34.696875 154.430713)scale(0.1 -0.1)">
       <use xlink:href="#DejaVuSans-30"/>
       <use x="63.623047" xlink:href="#DejaVuSans-2e"/>
       <use x="95.410156" xlink:href="#DejaVuSans-36"/>
      </g>
     </g>
    </g>
    <g id="ytick_4">
     <g id="line2d_9">
      <g>
       <use style="stroke:#000000;stroke-width:0.8;" x="57.6" xlink:href="#mabfa1efb30" y="102.838483"/>
      </g>
     </g>
     <g id="text_9">
      <!-- 0.8 -->
      <g transform="translate(34.696875 106.637702)scale(0.1 -0.1)">
       <use xlink:href="#DejaVuSans-30"/>
       <use x="63.623047" xlink:href="#DejaVuSans-2e"/>
       <use x="95.410156" xlink:href="#DejaVuSans-38"/>
      </g>
     </g>
    </g>
   </g>
   <g id="LineCollection_1">
    <path clip-path="url(#pc1976c1505)" d="M 141.164457 293.479494 
L 140.940095 291.355361 
L 140.441219 289.599288 
L 140.311955 289.231227 
L 139.379152 287.523033 
L 139.107831 287.107093 
L 138.205498 286.045026 
L 137.026929 284.982959 
L 135.130885 283.749309 
L 133.006751 282.775648 
L 130.882617 282.125931 
L 128.758483 281.68418 
L 125.572283 281.365591 
L 122.386082 281.322038 
L 118.137814 281.561214 
L 113.889546 282.016105 
L 98.214125 283.920892 
L 93.710275 284.244454 
L 89.462007 284.342154 
L 86.275807 284.246555 
L 82.851831 283.920892 
L 79.903405 283.405719 
L 77.779271 282.828705 
L 75.655138 282.01755 
L 73.531004 280.870089 
L 71.926829 279.672625 
L 70.80701 278.610558 
L 69.88614 277.548491 
L 69.106451 276.486424 
L 67.863964 274.36229 
L 66.899175 272.238156 
L 65.798558 269.051955 
L 64.970268 265.865755 
L 64.156143 261.617487 
L 63.555846 257.369219 
L 62.893118 250.996818 
L 62.206034 241.438216 
L 61.457309 227.631346 
L 60.643243 208.514141 
L 59.93653 186.210736 
L 59.290845 158.596996 
L 58.653488 121.424654 
L 57.968003 66.197175 
L 57.948772 55.576506 
L 57.948772 55.576506 
" style="fill:none;stroke:#000080;stroke-width:1.5;"/>
   </g>
   <g id="LineCollection_2">
    <path clip-path="url(#pc1976c1505)" d="M 286.811498 293.479494 
L 287.692869 287.107093 
L 287.65158 283.920892 
L 287.238741 278.610558 
L 286.564957 272.238156 
L 284.845806 257.369219 
L 283.152789 246.74855 
L 282.50527 243.562349 
L 281.403141 239.314082 
L 280.270319 236.127881 
L 279.222614 234.003747 
L 278.509918 232.869977 
L 277.447851 231.696025 
L 276.203352 230.817546 
L 275.323717 230.397419 
L 274.261651 230.084608 
L 272.137517 229.822776 
L 268.951316 229.843833 
L 257.26858 230.243916 
L 243.46171 230.342973 
L 221.158305 230.523682 
L 208.413502 230.855561 
L 180.799762 231.757716 
L 173.365294 231.664156 
L 165.930825 231.322584 
L 156.372223 230.61845 
L 141.503286 229.504279 
L 133.006751 229.136366 
L 121.324015 228.917756 
L 104.330944 228.69758 
L 102.20681 228.944317 
L 100.082677 229.426543 
L 97.958543 230.250887 
L 96.896476 230.82542 
L 95.408291 231.879613 
L 94.215215 232.94168 
L 93.221269 234.003747 
L 92.361423 235.065814 
L 90.928851 237.189948 
L 89.748834 239.314082 
L 88.749442 241.438216 
L 87.487712 244.624416 
L 86.108357 248.872684 
L 84.475255 254.183019 
L 83.576884 256.307152 
L 82.951241 257.369219 
L 82.02693 258.431286 
L 80.965472 259.091839 
L 79.903405 259.346995 
L 78.841338 259.262268 
L 77.779271 258.878639 
L 76.717204 258.208782 
L 75.655138 257.234875 
L 74.174092 255.245086 
L 73.505841 254.183019 
L 72.044438 250.996818 
L 71.248472 248.872684 
L 70.002437 244.624416 
L 69.00462 240.376149 
L 67.810346 234.003747 
L 66.691181 226.569279 
L 65.649987 218.072743 
L 64.598542 207.452074 
L 63.593075 194.707271 
L 62.60002 178.776268 
L 61.614992 158.596996 
L 60.647457 133.10739 
L 59.724134 101.410905 
L 58.775293 58.762706 
L 58.839726 55.576506 
L 58.839726 55.576506 
" style="fill:none;stroke:#0000e8;stroke-width:1.5;"/>
   </g>
   <g id="LineCollection_3">
    <path clip-path="url(#pc1976c1505)" d="M 290.41218 293.479494 
L 290.790932 287.107093 
L 290.649457 282.858825 
L 289.95489 272.238156 
L 286.814527 229.75548 
L 285.531322 218.072743 
L 284.470765 210.638275 
L 283.500407 205.327941 
L 282.488321 201.079673 
L 281.466225 197.893472 
L 280.540639 195.769338 
L 279.571985 194.214309 
L 278.509918 193.146777 
L 277.447851 192.566086 
L 276.385784 192.34409 
L 275.323717 192.373904 
L 273.199584 192.86889 
L 266.827182 194.865741 
L 263.640981 195.468379 
L 260.454781 195.801532 
L 256.206513 195.982337 
L 248.772045 196.009696 
L 215.84797 195.986503 
L 171.24116 196.088019 
L 141.503286 196.437076 
L 125.572283 196.626645 
L 120.261948 196.464464 
L 114.951613 196.047035 
L 109.641279 195.383932 
L 102.20681 194.437738 
L 99.02061 194.293975 
L 96.896476 194.397104 
L 94.772342 194.730691 
L 92.648208 195.370182 
L 90.524074 196.393817 
L 89.462007 197.074539 
L 87.337874 198.813231 
L 86.14695 200.017606 
L 84.151673 202.357955 
L 78.841338 209.046041 
L 77.779271 209.980104 
L 76.488285 210.638275 
L 75.655138 210.801352 
L 74.593071 210.517488 
L 73.476754 209.576208 
L 72.468937 208.122624 
L 71.242871 205.327941 
L 70.220917 202.14174 
L 68.969109 196.831405 
L 67.820625 190.459004 
L 66.760519 183.024535 
L 65.669083 173.465933 
L 64.595781 161.783197 
L 63.496075 146.91426 
L 62.479946 129.92119 
L 61.457868 108.679851 
L 60.357113 80.004045 
L 59.679412 58.762706 
L 59.785202 55.576506 
L 59.785202 55.576506 
" style="fill:none;stroke:#0038ff;stroke-width:1.5;"/>
   </g>
   <g id="LineCollection_4">
    <path clip-path="url(#pc1976c1505)" d="M 292.539221 293.479494 
L 292.645809 284.982959 
L 292.278512 276.486424 
L 291.037242 250.996818 
L 289.556058 223.383078 
L 288.558011 208.514141 
L 287.505384 195.769338 
L 286.526497 186.210736 
L 285.586559 178.776268 
L 284.571264 172.403866 
L 283.457612 167.093532 
L 282.589018 163.907331 
L 281.696119 161.411757 
L 280.634052 159.392444 
L 279.571985 158.154109 
L 278.45103 157.534929 
L 277.447851 157.419625 
L 276.385784 157.665709 
L 274.668952 158.596996 
L 273.170785 159.659063 
L 268.951316 162.780187 
L 266.827182 164.01586 
L 264.639426 164.969398 
L 262.578914 165.599893 
L 260.344968 166.031465 
L 257.26858 166.321392 
L 254.082379 166.37948 
L 247.709978 166.213053 
L 238.151375 166.014582 
L 221.158305 166.018931 
L 179.737695 165.892009 
L 100.082677 165.527922 
L 95.834409 165.559285 
L 92.648208 165.801257 
L 90.524074 166.14696 
L 88.399941 166.702424 
L 86.275807 167.51951 
L 84.151673 168.632204 
L 81.661197 170.279732 
L 78.624116 172.403866 
L 77.779271 172.902488 
L 76.717204 173.345444 
L 75.412194 173.465933 
L 74.593071 173.303424 
L 73.376684 172.403866 
L 72.468937 171.272368 
L 71.40687 169.200382 
L 70.006112 164.969398 
L 68.969623 160.72113 
L 67.954821 155.410796 
L 66.836225 147.976327 
L 65.695862 138.417725 
L 64.580209 126.734989 
L 63.516926 112.928119 
L 62.459861 95.935048 
L 60.736549 63.010974 
L 60.6972 58.762706 
L 60.851293 55.576506 
L 60.851293 55.576506 
" style="fill:none;stroke:#0094ff;stroke-width:1.5;"/>
   </g>
   <g id="LineCollection_5">
    <path clip-path="url(#pc1976c1505)" d="M 294.1996 293.479494 
L 294.072774 280.734691 
L 292.558652 239.314082 
L 291.525334 214.886543 
L 290.542905 195.769338 
L 289.541751 179.838335 
L 288.553545 167.093532 
L 287.527638 156.472862 
L 286.490925 147.976327 
L 285.504053 141.603926 
L 284.441768 136.293591 
L 283.635253 133.10739 
L 282.550242 129.92119 
L 281.519568 127.797056 
L 280.634052 126.536122 
L 279.465779 125.672922 
L 278.509918 125.429628 
L 277.344754 125.672922 
L 276.385784 126.176049 
L 275.323717 127.013629 
L 273.199584 129.224691 
L 268.878184 134.169457 
L 266.63125 136.293591 
L 264.703048 137.736595 
L 262.578914 138.900405 
L 260.454781 139.670175 
L 258.330647 140.111768 
L 256.206513 140.293611 
L 254.082379 140.281458 
L 250.896178 140.024746 
L 238.151375 138.586577 
L 233.903108 138.427113 
L 228.592773 138.450668 
L 203.103167 138.894629 
L 92.648208 139.09733 
L 89.462007 139.299388 
L 86.275807 139.718604 
L 83.089606 140.438987 
L 76.717204 142.165025 
L 75.655138 142.144282 
L 74.593071 141.855315 
L 73.531004 141.191106 
L 72.468937 140.0262 
L 71.40687 138.220226 
L 70.229808 135.231524 
L 69.042747 130.983257 
L 67.932527 125.672922 
L 66.749026 118.238454 
L 65.689286 109.741918 
L 64.630689 99.121249 
L 63.519669 85.314379 
L 61.918276 61.948907 
L 61.935705 58.762706 
L 62.171382 55.576506 
L 62.171382 55.576506 
" style="fill:none;stroke:#0cf4eb;stroke-width:1.5;"/>
   </g>
   <g id="LineCollection_6">
    <path clip-path="url(#pc1976c1505)" d="M 295.773341 293.479494 
L 295.577496 280.734691 
L 295.220923 267.989888 
L 293.880601 223.383078 
L 292.808905 194.707271 
L 291.766189 172.403866 
L 290.76825 155.410796 
L 289.744481 141.603926 
L 288.745006 130.983257 
L 287.728946 122.486721 
L 286.578437 115.052253 
L 285.510675 109.741918 
L 284.715887 106.555717 
L 283.693176 103.369517 
L 282.758186 101.151601 
L 281.449 99.121249 
L 280.634052 98.255034 
L 279.571985 97.678241 
L 278.509918 97.585162 
L 277.234036 98.059182 
L 276.385784 98.617289 
L 274.839562 100.183316 
L 273.199584 102.241016 
L 268.520816 108.679851 
L 266.754318 110.803985 
L 264.643491 112.928119 
L 262.578914 114.540065 
L 260.454781 115.72065 
L 258.330647 116.461742 
L 256.206513 116.826538 
L 254.082379 116.887782 
L 251.958245 116.720321 
L 248.772045 116.192182 
L 237.768093 113.990186 
L 233.903108 113.501784 
L 229.65484 113.180325 
L 224.344506 113.036947 
L 217.972104 113.110785 
L 202.0411 113.631913 
L 185.04803 114.056638 
L 166.992892 114.268058 
L 97.958543 114.843847 
L 88.399941 115.086912 
L 83.089606 115.440638 
L 78.841338 115.757893 
L 76.717204 115.667456 
L 75.655138 115.436259 
L 74.593071 114.993509 
L 73.297063 113.990186 
L 72.376136 112.928119 
L 71.172227 110.803985 
L 70.280281 108.679851 
L 69.034527 104.431584 
L 67.894251 99.121249 
L 66.844912 92.748848 
L 65.628242 83.190245 
L 64.292357 70.445442 
L 63.73593 64.073041 
L 63.634609 60.88684 
L 63.725379 58.762706 
L 63.994889 55.576506 
L 63.994889 55.576506 
" style="fill:none;stroke:#56ffa0;stroke-width:1.5;"/>
   </g>
   <g id="LineCollection_7">
    <path clip-path="url(#pc1976c1505)" d="M 301.335442 293.479494 
L 301.227427 287.107093 
L 300.91037 280.734691 
L 300.316502 273.300223 
L 299.122124 261.617487 
L 297.018714 243.562349 
L 296.541429 239.314082 
L 295.094047 202.14174 
L 294.055952 172.403866 
L 293.063148 150.100461 
L 292.094587 133.10739 
L 291.079003 119.30052 
L 289.967653 107.617784 
L 288.936755 99.121249 
L 287.935569 92.748848 
L 286.794519 87.438513 
L 285.879169 84.252312 
L 284.617892 81.066112 
L 283.469682 78.941978 
L 282.758186 77.8706 
L 281.696119 76.636487 
L 280.634052 75.687938 
L 278.997934 74.69371 
L 278.509918 74.464824 
L 277.447851 74.113116 
L 276.385784 73.894229 
L 275.323717 73.799527 
L 273.199584 73.950499 
L 271.07545 74.499002 
L 270.013383 74.926064 
L 267.889249 76.10351 
L 266.827182 76.857905 
L 265.641913 77.879911 
L 263.714986 80.004045 
L 262.230777 82.128178 
L 260.416842 85.314379 
L 258.330647 88.965258 
L 257.119945 90.624714 
L 256.153647 91.686781 
L 254.920136 92.748848 
L 253.020312 93.923285 
L 250.896178 94.762558 
L 248.772045 95.267579 
L 246.647911 95.550924 
L 243.46171 95.69786 
L 239.213442 95.57091 
L 233.903108 95.127182 
L 226.468639 94.250182 
L 210.537636 92.314025 
L 203.103167 91.686162 
L 195.668699 91.303166 
L 187.172164 91.105129 
L 146.813621 90.528395 
L 126.634349 89.782266 
L 95.834409 88.407079 
L 79.903405 87.549581 
L 77.779271 87.198978 
L 76.717204 86.901725 
L 75.494828 86.376446 
L 74.593071 85.834244 
L 73.531004 84.910959 
L 72.24975 83.190245 
L 71.157149 81.066112 
L 70.311024 78.941978 
L 69.123554 74.69371 
L 68.046041 69.383375 
L 67.479608 65.135108 
L 67.337864 63.010974 
L 67.410323 60.88684 
L 68.048704 55.576506 
L 68.048704 55.576506 
" style="fill:none;stroke:#a0ff56;stroke-width:1.5;"/>
   </g>
   <g id="LineCollection_8">
    <path clip-path="url(#pc1976c1505)" d="M 308.755742 293.479494 
L 308.614971 284.982959 
L 308.236416 276.486424 
L 307.510538 265.865755 
L 306.324298 252.058885 
L 304.548084 234.003747 
L 302.445537 214.886543 
L 300.361334 197.893472 
L 298.180412 181.962468 
L 296.512476 170.279732 
L 294.916679 138.417725 
L 294.00714 120.362587 
L 293.046091 105.493651 
L 292.168032 94.872981 
L 291.330568 87.438513 
L 290.665898 83.190245 
L 290.029499 80.004045 
L 289.130587 76.624843 
L 288.010572 73.631643 
L 286.900987 71.507509 
L 285.944387 70.127225 
L 284.88232 68.947234 
L 283.820253 68.034175 
L 282.652345 67.259242 
L 280.634052 66.321731 
L 278.509918 65.711873 
L 276.385784 65.360024 
L 274.261651 65.199496 
L 271.07545 65.229025 
L 267.889249 65.505596 
L 264.703048 65.979238 
L 260.454781 66.840075 
L 245.585844 70.225077 
L 242.399643 70.597481 
L 239.213442 70.712546 
L 236.027242 70.554112 
L 233.903108 70.282071 
L 230.716907 69.632079 
L 228.592773 69.038407 
L 225.406572 67.911156 
L 223.282439 66.996615 
L 221.158305 65.921035 
L 219.034171 64.633501 
L 217.972104 63.894008 
L 216.866831 63.010974 
L 215.784142 61.948907 
L 214.785903 60.653923 
L 214.27514 59.824773 
L 213.723836 58.544043 
L 213.187212 56.638572 
L 212.95926 55.576506 
L 212.95926 55.576506 
" style="fill:none;stroke:#ebff0c;stroke-width:1.5;"/>
   </g>
   <g id="LineCollection_9">
    <path clip-path="url(#pc1976c1505)" d="M 316.367229 293.479494 
L 316.245502 283.920892 
L 315.873689 273.300223 
L 315.181566 260.55542 
L 314.009039 243.562349 
L 312.389177 223.383078 
L 310.546028 203.203807 
L 308.67313 185.148669 
L 306.795909 169.217665 
L 304.94738 155.410796 
L 303.176074 143.728059 
L 301.356431 133.10739 
L 299.506124 123.548788 
L 297.627123 114.931057 
L 296.503813 109.741918 
L 293.908218 80.004045 
L 293.266226 75.755777 
L 292.606466 72.569576 
L 292.029272 70.445442 
L 291.254721 68.264423 
L 290.192654 66.1342 
L 289.130587 64.603488 
L 288.06852 63.434583 
L 286.259255 61.948907 
L 284.88232 61.031348 
L 280.98631 58.762706 
L 279.571985 57.585026 
L 278.904977 56.638572 
L 278.636971 55.576506 
L 278.636971 55.576506 
" style="fill:none;stroke:#ffab00;stroke-width:1.5;"/>
   </g>
   <g id="LineCollection_10">
    <path clip-path="url(#pc1976c1505)" d="M 324.11894 293.479494 
L 324.002252 281.796758 
L 323.654615 269.051955 
L 322.989025 253.120952 
L 321.869809 231.879613 
L 320.41732 208.514141 
L 318.868461 187.112622 
L 317.368502 169.217665 
L 315.820756 153.286662 
L 314.262228 139.479792 
L 312.73648 127.797056 
L 311.138442 117.176387 
L 309.48366 107.617784 
L 307.792404 99.121249 
L 306.087412 91.686781 
L 304.398528 85.314379 
L 302.76941 80.004045 
L 301.265826 75.755777 
L 299.509154 71.507509 
L 297.942574 68.321309 
L 296.565056 65.960573 
L 295.778895 63.010974 
L 295.465882 61.948907 
L 294.230434 55.576506 
L 294.230434 55.576506 
" style="fill:none;stroke:#ff5500;stroke-width:1.5;"/>
   </g>
   <g id="LineCollection_11">
    <path clip-path="url(#pc1976c1505)" d="M 331.965676 293.479494 
L 331.845294 277.548491 
L 331.472993 259.493353 
L 330.680583 232.94168 
L 329.650723 205.327941 
L 328.427063 178.353313 
L 327.221928 156.472862 
L 326.010793 138.417725 
L 324.808083 123.548788 
L 323.46603 109.741918 
L 321.990641 96.997115 
L 320.27916 84.252312 
L 318.140101 68.321309 
L 317.64023 63.010974 
L 317.41186 58.762706 
L 317.365051 55.576506 
L 317.365051 55.576506 
" style="fill:none;stroke:#e80000;stroke-width:1.5;"/>
   </g>
   <g id="LineCollection_12">
    <path clip-path="url(#pc1976c1505)" d="M 339.867202 293.479494 
L 339.754 266.927822 
L 338.804231 185.148669 
L 338.076024 145.852193 
L 337.2177 113.990186 
L 336.267946 88.50058 
L 335.540489 70.445442 
L 335.322681 59.824773 
L 335.303991 55.576506 
L 335.303991 55.576506 
" style="fill:none;stroke:#800000;stroke-width:1.5;"/>
   </g>
   <g id="patch_3">
    <path d="M 57.6 293.479494 
L 57.6 55.576506 
" style="fill:none;stroke:#000000;stroke-linecap:square;stroke-linejoin:miter;stroke-width:0.8;"/>
   </g>
   <g id="patch_4">
    <path d="M 343.296 293.479494 
L 343.296 55.576506 
" style="fill:none;stroke:#000000;stroke-linecap:square;stroke-linejoin:miter;stroke-width:0.8;"/>
   </g>
   <g id="patch_5">
    <path d="M 57.6 293.479494 
L 343.296 293.479494 
" style="fill:none;stroke:#000000;stroke-linecap:square;stroke-linejoin:miter;stroke-width:0.8;"/>
   </g>
   <g id="patch_6">
    <path d="M 57.6 55.576506 
L 343.296 55.576506 
" style="fill:none;stroke:#000000;stroke-linecap:square;stroke-linejoin:miter;stroke-width:0.8;"/>
   </g>
   <g id="text_10">
    <!-- Time:0.07901 s -->
    <defs>
     <path d="M -0.296875 72.90625 
L 61.375 72.90625 
L 61.375 64.59375 
L 35.5 64.59375 
L 35.5 0 
L 25.59375 0 
L 25.59375 64.59375 
L -0.296875 64.59375 
z
" id="DejaVuSans-54"/>
     <path d="M 9.421875 54.6875 
L 18.40625 54.6875 
L 18.40625 0 
L 9.421875 0 
z
M 9.421875 75.984375 
L 18.40625 75.984375 
L 18.40625 64.59375 
L 9.421875 64.59375 
z
" id="DejaVuSans-69"/>
     <path d="M 52 44.1875 
Q 55.375 50.25 60.0625 53.125 
Q 64.75 56 71.09375 56 
Q 79.640625 56 84.28125 50.015625 
Q 88.921875 44.046875 88.921875 33.015625 
L 88.921875 0 
L 79.890625 0 
L 79.890625 32.71875 
Q 79.890625 40.578125 77.09375 44.375 
Q 74.3125 48.1875 68.609375 48.1875 
Q 61.625 48.1875 57.5625 43.546875 
Q 53.515625 38.921875 53.515625 30.90625 
L 53.515625 0 
L 44.484375 0 
L 44.484375 32.71875 
Q 44.484375 40.625 41.703125 44.40625 
Q 38.921875 48.1875 33.109375 48.1875 
Q 26.21875 48.1875 22.15625 43.53125 
Q 18.109375 38.875 18.109375 30.90625 
L 18.109375 0 
L 9.078125 0 
L 9.078125 54.6875 
L 18.109375 54.6875 
L 18.109375 46.1875 
Q 21.1875 51.21875 25.484375 53.609375 
Q 29.78125 56 35.6875 56 
Q 41.65625 56 45.828125 52.96875 
Q 50 49.953125 52 44.1875 
z
" id="DejaVuSans-6d"/>
     <path d="M 56.203125 29.59375 
L 56.203125 25.203125 
L 14.890625 25.203125 
Q 15.484375 15.921875 20.484375 11.0625 
Q 25.484375 6.203125 34.421875 6.203125 
Q 39.59375 6.203125 44.453125 7.46875 
Q 49.3125 8.734375 54.109375 11.28125 
L 54.109375 2.78125 
Q 49.265625 0.734375 44.1875 -0.34375 
Q 39.109375 -1.421875 33.890625 -1.421875 
Q 20.796875 -1.421875 13.15625 6.1875 
Q 5.515625 13.8125 5.515625 26.8125 
Q 5.515625 40.234375 12.765625 48.109375 
Q 20.015625 56 32.328125 56 
Q 43.359375 56 49.78125 48.890625 
Q 56.203125 41.796875 56.203125 29.59375 
z
M 47.21875 32.234375 
Q 47.125 39.59375 43.09375 43.984375 
Q 39.0625 48.390625 32.421875 48.390625 
Q 24.90625 48.390625 20.390625 44.140625 
Q 15.875 39.890625 15.1875 32.171875 
z
" id="DejaVuSans-65"/>
     <path d="M 11.71875 12.40625 
L 22.015625 12.40625 
L 22.015625 0 
L 11.71875 0 
z
M 11.71875 51.703125 
L 22.015625 51.703125 
L 22.015625 39.3125 
L 11.71875 39.3125 
z
" id="DejaVuSans-3a"/>
     <path d="M 8.203125 72.90625 
L 55.078125 72.90625 
L 55.078125 68.703125 
L 28.609375 0 
L 18.3125 0 
L 43.21875 64.59375 
L 8.203125 64.59375 
z
" id="DejaVuSans-37"/>
     <path d="M 10.984375 1.515625 
L 10.984375 10.5 
Q 14.703125 8.734375 18.5 7.8125 
Q 22.3125 6.890625 25.984375 6.890625 
Q 35.75 6.890625 40.890625 13.453125 
Q 46.046875 20.015625 46.78125 33.40625 
Q 43.953125 29.203125 39.59375 26.953125 
Q 35.25 24.703125 29.984375 24.703125 
Q 19.046875 24.703125 12.671875 31.3125 
Q 6.296875 37.9375 6.296875 49.421875 
Q 6.296875 60.640625 12.9375 67.421875 
Q 19.578125 74.21875 30.609375 74.21875 
Q 43.265625 74.21875 49.921875 64.515625 
Q 56.59375 54.828125 56.59375 36.375 
Q 56.59375 19.140625 48.40625 8.859375 
Q 40.234375 -1.421875 26.421875 -1.421875 
Q 22.703125 -1.421875 18.890625 -0.6875 
Q 15.09375 0.046875 10.984375 1.515625 
z
M 30.609375 32.421875 
Q 37.25 32.421875 41.125 36.953125 
Q 45.015625 41.5 45.015625 49.421875 
Q 45.015625 57.28125 41.125 61.84375 
Q 37.25 66.40625 30.609375 66.40625 
Q 23.96875 66.40625 20.09375 61.84375 
Q 16.21875 57.28125 16.21875 49.421875 
Q 16.21875 41.5 20.09375 36.953125 
Q 23.96875 32.421875 30.609375 32.421875 
z
" id="DejaVuSans-39"/>
     <path id="DejaVuSans-20"/>
     <path d="M 44.28125 53.078125 
L 44.28125 44.578125 
Q 40.484375 46.53125 36.375 47.5 
Q 32.28125 48.484375 27.875 48.484375 
Q 21.1875 48.484375 17.84375 46.4375 
Q 14.5 44.390625 14.5 40.28125 
Q 14.5 37.15625 16.890625 35.375 
Q 19.28125 33.59375 26.515625 31.984375 
L 29.59375 31.296875 
Q 39.15625 29.25 43.1875 25.515625 
Q 47.21875 21.78125 47.21875 15.09375 
Q 47.21875 7.46875 41.1875 3.015625 
Q 35.15625 -1.421875 24.609375 -1.421875 
Q 20.21875 -1.421875 15.453125 -0.5625 
Q 10.6875 0.296875 5.421875 2 
L 5.421875 11.28125 
Q 10.40625 8.6875 15.234375 7.390625 
Q 20.0625 6.109375 24.8125 6.109375 
Q 31.15625 6.109375 34.5625 8.28125 
Q 37.984375 10.453125 37.984375 14.40625 
Q 37.984375 18.0625 35.515625 20.015625 
Q 33.0625 21.96875 24.703125 23.78125 
L 21.578125 24.515625 
Q 13.234375 26.265625 9.515625 29.90625 
Q 5.8125 33.546875 5.8125 39.890625 
Q 5.8125 47.609375 11.28125 51.796875 
Q 16.75 56 26.8125 56 
Q 31.78125 56 36.171875 55.265625 
Q 40.578125 54.546875 44.28125 53.078125 
z
" id="DejaVuSans-73"/>
    </defs>
    <g transform="translate(153.717375 49.576506)scale(0.12 -0.12)">
     <use xlink:href="#DejaVuSans-54"/>
     <use x="61.037109" xlink:href="#DejaVuSans-69"/>
     <use x="88.820312" xlink:href="#DejaVuSans-6d"/>
     <use x="186.232422" xlink:href="#DejaVuSans-65"/>
     <use x="247.755859" xlink:href="#DejaVuSans-3a"/>
     <use x="281.447266" xlink:href="#DejaVuSans-30"/>
     <use x="345.070312" xlink:href="#DejaVuSans-2e"/>
     <use x="376.857422" xlink:href="#DejaVuSans-30"/>
     <use x="440.480469" xlink:href="#DejaVuSans-37"/>
     <use x="504.103516" xlink:href="#DejaVuSans-39"/>
     <use x="567.726562" xlink:href="#DejaVuSans-30"/>
     <use x="631.349609" xlink:href="#DejaVuSans-31"/>
     <use x="694.972656" xlink:href="#DejaVuSans-20"/>
     <use x="726.759766" xlink:href="#DejaVuSans-73"/>
    </g>
   </g>
  </g>
  <g id="axes_2">
   <g id="patch_7">
    <path clip-path="url(#p7c026c1f45)" d="M 361.152 307.584 
L 361.152 283.392 
L 361.152 65.664 
L 361.152 41.472 
L 374.4576 41.472 
L 374.4576 65.664 
L 374.4576 283.392 
L 374.4576 307.584 
z
" style="fill:#ffffff;stroke:#ffffff;stroke-linejoin:miter;stroke-width:0.01;"/>
   </g>
   <g id="matplotlib.axis_3"/>
   <g id="matplotlib.axis_4">
    <g id="ytick_5">
     <g id="line2d_10">
      <defs>
       <path d="M 0 0 
L 3.5 0 
" id="m5490a71b85" style="stroke:#000000;stroke-width:0.8;"/>
      </defs>
      <g>
       <use style="stroke:#000000;stroke-width:0.8;" x="374.4576" xlink:href="#m5490a71b85" y="307.584"/>
      </g>
     </g>
     <g id="text_11">
      <!-- 0.08 -->
      <g transform="translate(381.4576 311.383219)scale(0.1 -0.1)">
       <use xlink:href="#DejaVuSans-30"/>
       <use x="63.623047" xlink:href="#DejaVuSans-2e"/>
       <use x="95.410156" xlink:href="#DejaVuSans-30"/>
       <use x="159.033203" xlink:href="#DejaVuSans-38"/>
      </g>
     </g>
    </g>
    <g id="ytick_6">
     <g id="line2d_11">
      <g>
       <use style="stroke:#000000;stroke-width:0.8;" x="374.4576" xlink:href="#m5490a71b85" y="259.2"/>
      </g>
     </g>
     <g id="text_12">
      <!-- 0.24 -->
      <g transform="translate(381.4576 262.999219)scale(0.1 -0.1)">
       <use xlink:href="#DejaVuSans-30"/>
       <use x="63.623047" xlink:href="#DejaVuSans-2e"/>
       <use x="95.410156" xlink:href="#DejaVuSans-32"/>
       <use x="159.033203" xlink:href="#DejaVuSans-34"/>
      </g>
     </g>
    </g>
    <g id="ytick_7">
     <g id="line2d_12">
      <g>
       <use style="stroke:#000000;stroke-width:0.8;" x="374.4576" xlink:href="#m5490a71b85" y="210.816"/>
      </g>
     </g>
     <g id="text_13">
      <!-- 0.40 -->
      <g transform="translate(381.4576 214.615219)scale(0.1 -0.1)">
       <use xlink:href="#DejaVuSans-30"/>
       <use x="63.623047" xlink:href="#DejaVuSans-2e"/>
       <use x="95.410156" xlink:href="#DejaVuSans-34"/>
       <use x="159.033203" xlink:href="#DejaVuSans-30"/>
      </g>
     </g>
    </g>
    <g id="ytick_8">
     <g id="line2d_13">
      <g>
       <use style="stroke:#000000;stroke-width:0.8;" x="374.4576" xlink:href="#m5490a71b85" y="162.432"/>
      </g>
     </g>
     <g id="text_14">
      <!-- 0.56 -->
      <defs>
       <path d="M 10.796875 72.90625 
L 49.515625 72.90625 
L 49.515625 64.59375 
L 19.828125 64.59375 
L 19.828125 46.734375 
Q 21.96875 47.46875 24.109375 47.828125 
Q 26.265625 48.1875 28.421875 48.1875 
Q 40.625 48.1875 47.75 41.5 
Q 54.890625 34.8125 54.890625 23.390625 
Q 54.890625 11.625 47.5625 5.09375 
Q 40.234375 -1.421875 26.90625 -1.421875 
Q 22.3125 -1.421875 17.546875 -0.640625 
Q 12.796875 0.140625 7.71875 1.703125 
L 7.71875 11.625 
Q 12.109375 9.234375 16.796875 8.0625 
Q 21.484375 6.890625 26.703125 6.890625 
Q 35.15625 6.890625 40.078125 11.328125 
Q 45.015625 15.765625 45.015625 23.390625 
Q 45.015625 31 40.078125 35.4375 
Q 35.15625 39.890625 26.703125 39.890625 
Q 22.75 39.890625 18.8125 39.015625 
Q 14.890625 38.140625 10.796875 36.28125 
z
" id="DejaVuSans-35"/>
      </defs>
      <g transform="translate(381.4576 166.231219)scale(0.1 -0.1)">
       <use xlink:href="#DejaVuSans-30"/>
       <use x="63.623047" xlink:href="#DejaVuSans-2e"/>
       <use x="95.410156" xlink:href="#DejaVuSans-35"/>
       <use x="159.033203" xlink:href="#DejaVuSans-36"/>
      </g>
     </g>
    </g>
    <g id="ytick_9">
     <g id="line2d_14">
      <g>
       <use style="stroke:#000000;stroke-width:0.8;" x="374.4576" xlink:href="#m5490a71b85" y="114.048"/>
      </g>
     </g>
     <g id="text_15">
      <!-- 0.72 -->
      <g transform="translate(381.4576 117.847219)scale(0.1 -0.1)">
       <use xlink:href="#DejaVuSans-30"/>
       <use x="63.623047" xlink:href="#DejaVuSans-2e"/>
       <use x="95.410156" xlink:href="#DejaVuSans-37"/>
       <use x="159.033203" xlink:href="#DejaVuSans-32"/>
      </g>
     </g>
    </g>
    <g id="ytick_10">
     <g id="line2d_15">
      <g>
       <use style="stroke:#000000;stroke-width:0.8;" x="374.4576" xlink:href="#m5490a71b85" y="65.664"/>
      </g>
     </g>
     <g id="text_16">
      <!-- 0.88 -->
      <g transform="translate(381.4576 69.463219)scale(0.1 -0.1)">
       <use xlink:href="#DejaVuSans-30"/>
       <use x="63.623047" xlink:href="#DejaVuSans-2e"/>
       <use x="95.410156" xlink:href="#DejaVuSans-38"/>
       <use x="159.033203" xlink:href="#DejaVuSans-38"/>
      </g>
     </g>
    </g>
   </g>
   <g id="LineCollection_13">
    <path clip-path="url(#p7c026c1f45)" d="M 361.152 307.584 
L 374.4576 307.584 
" style="fill:none;stroke:#000080;stroke-width:1.5;"/>
    <path clip-path="url(#p7c026c1f45)" d="M 361.152 283.392 
L 374.4576 283.392 
" style="fill:none;stroke:#0000e8;stroke-width:1.5;"/>
    <path clip-path="url(#p7c026c1f45)" d="M 361.152 259.2 
L 374.4576 259.2 
" style="fill:none;stroke:#0038ff;stroke-width:1.5;"/>
    <path clip-path="url(#p7c026c1f45)" d="M 361.152 235.008 
L 374.4576 235.008 
" style="fill:none;stroke:#0094ff;stroke-width:1.5;"/>
    <path clip-path="url(#p7c026c1f45)" d="M 361.152 210.816 
L 374.4576 210.816 
" style="fill:none;stroke:#0cf4eb;stroke-width:1.5;"/>
    <path clip-path="url(#p7c026c1f45)" d="M 361.152 186.624 
L 374.4576 186.624 
" style="fill:none;stroke:#56ffa0;stroke-width:1.5;"/>
    <path clip-path="url(#p7c026c1f45)" d="M 361.152 162.432 
L 374.4576 162.432 
" style="fill:none;stroke:#a0ff56;stroke-width:1.5;"/>
    <path clip-path="url(#p7c026c1f45)" d="M 361.152 138.24 
L 374.4576 138.24 
" style="fill:none;stroke:#ebff0c;stroke-width:1.5;"/>
    <path clip-path="url(#p7c026c1f45)" d="M 361.152 114.048 
L 374.4576 114.048 
" style="fill:none;stroke:#ffab00;stroke-width:1.5;"/>
    <path clip-path="url(#p7c026c1f45)" d="M 361.152 89.856 
L 374.4576 89.856 
" style="fill:none;stroke:#ff5500;stroke-width:1.5;"/>
    <path clip-path="url(#p7c026c1f45)" d="M 361.152 65.664 
L 374.4576 65.664 
" style="fill:none;stroke:#e80000;stroke-width:1.5;"/>
    <path clip-path="url(#p7c026c1f45)" d="M 361.152 41.472 
L 374.4576 41.472 
" style="fill:none;stroke:#800000;stroke-width:1.5;"/>
   </g>
   <g id="patch_8">
    <path d="M 361.152 307.584 
L 361.152 283.392 
L 361.152 65.664 
L 361.152 41.472 
L 374.4576 41.472 
L 374.4576 65.664 
L 374.4576 283.392 
L 374.4576 307.584 
z
" style="fill:none;stroke:#000000;stroke-linejoin:miter;stroke-width:0.8;"/>
   </g>
  </g>
 </g>
 <defs>
  <clipPath id="pc1976c1505">
   <rect height="237.902989" width="285.696" x="57.6" y="55.576506"/>
  </clipPath>
  <clipPath id="p7c026c1f45">
   <rect height="266.112" width="13.3056" x="361.152" y="41.472"/>
  </clipPath>
 </defs>
</svg>
