<?xml version="1.0" encoding="utf-8" standalone="no"?>
<!DOCTYPE svg PUBLIC "-//W3C//DTD SVG 1.1//EN"
  "http://www.w3.org/Graphics/SVG/1.1/DTD/svg11.dtd">
<!-- Created with matplotlib (http://matplotlib.org/) -->
<svg height="345.6pt" version="1.1" viewBox="0 0 460.8 345.6" width="460.8pt" xmlns="http://www.w3.org/2000/svg" xmlns:xlink="http://www.w3.org/1999/xlink">
 <defs>
  <style type="text/css">
*{stroke-linecap:butt;stroke-linejoin:round;}
  </style>
 </defs>
 <g id="figure_1">
  <g id="patch_1">
   <path d="M 0 345.6 
L 460.8 345.6 
L 460.8 0 
L 0 0 
z
" style="fill:#ffffff;"/>
  </g>
  <g id="axes_1">
   <g id="patch_2">
    <path d="M 57.6 293.479494 
L 343.296 293.479494 
L 343.296 55.576506 
L 57.6 55.576506 
z
" style="fill:#ffffff;"/>
   </g>
   <g id="matplotlib.axis_1">
    <g id="xtick_1">
     <g id="line2d_1">
      <defs>
       <path d="M 0 0 
L 0 3.5 
" id="m5b4aa82eac" style="stroke:#000000;stroke-width:0.8;"/>
      </defs>
      <g>
       <use style="stroke:#000000;stroke-width:0.8;" x="104.861978" xlink:href="#m5b4aa82eac" y="293.479494"/>
      </g>
     </g>
     <g id="text_1">
      <!-- 0.2 -->
      <defs>
       <path d="M 31.78125 66.40625 
Q 24.171875 66.40625 20.328125 58.90625 
Q 16.5 51.421875 16.5 36.375 
Q 16.5 21.390625 20.328125 13.890625 
Q 24.171875 6.390625 31.78125 6.390625 
Q 39.453125 6.390625 43.28125 13.890625 
Q 47.125 21.390625 47.125 36.375 
Q 47.125 51.421875 43.28125 58.90625 
Q 39.453125 66.40625 31.78125 66.40625 
z
M 31.78125 74.21875 
Q 44.046875 74.21875 50.515625 64.515625 
Q 56.984375 54.828125 56.984375 36.375 
Q 56.984375 17.96875 50.515625 8.265625 
Q 44.046875 -1.421875 31.78125 -1.421875 
Q 19.53125 -1.421875 13.0625 8.265625 
Q 6.59375 17.96875 6.59375 36.375 
Q 6.59375 54.828125 13.0625 64.515625 
Q 19.53125 74.21875 31.78125 74.21875 
z
" id="DejaVuSans-30"/>
       <path d="M 10.6875 12.40625 
L 21 12.40625 
L 21 0 
L 10.6875 0 
z
" id="DejaVuSans-2e"/>
       <path d="M 19.1875 8.296875 
L 53.609375 8.296875 
L 53.609375 0 
L 7.328125 0 
L 7.328125 8.296875 
Q 12.9375 14.109375 22.625 23.890625 
Q 32.328125 33.6875 34.8125 36.53125 
Q 39.546875 41.84375 41.421875 45.53125 
Q 43.3125 49.21875 43.3125 52.78125 
Q 43.3125 58.59375 39.234375 62.25 
Q 35.15625 65.921875 28.609375 65.921875 
Q 23.96875 65.921875 18.8125 64.3125 
Q 13.671875 62.703125 7.8125 59.421875 
L 7.8125 69.390625 
Q 13.765625 71.78125 18.9375 73 
Q 24.125 74.21875 28.421875 74.21875 
Q 39.75 74.21875 46.484375 68.546875 
Q 53.21875 62.890625 53.21875 53.421875 
Q 53.21875 48.921875 51.53125 44.890625 
Q 49.859375 40.875 45.40625 35.40625 
Q 44.1875 33.984375 37.640625 27.21875 
Q 31.109375 20.453125 19.1875 8.296875 
z
" id="DejaVuSans-32"/>
      </defs>
      <g transform="translate(96.910415 308.077932)scale(0.1 -0.1)">
       <use xlink:href="#DejaVuSans-30"/>
       <use x="63.623047" xlink:href="#DejaVuSans-2e"/>
       <use x="95.410156" xlink:href="#DejaVuSans-32"/>
      </g>
     </g>
    </g>
    <g id="xtick_2">
     <g id="line2d_2">
      <g>
       <use style="stroke:#000000;stroke-width:0.8;" x="152.654989" xlink:href="#m5b4aa82eac" y="293.479494"/>
      </g>
     </g>
     <g id="text_2">
      <!-- 0.4 -->
      <defs>
       <path d="M 37.796875 64.3125 
L 12.890625 25.390625 
L 37.796875 25.390625 
z
M 35.203125 72.90625 
L 47.609375 72.90625 
L 47.609375 25.390625 
L 58.015625 25.390625 
L 58.015625 17.1875 
L 47.609375 17.1875 
L 47.609375 0 
L 37.796875 0 
L 37.796875 17.1875 
L 4.890625 17.1875 
L 4.890625 26.703125 
z
" id="DejaVuSans-34"/>
      </defs>
      <g transform="translate(144.703426 308.077932)scale(0.1 -0.1)">
       <use xlink:href="#DejaVuSans-30"/>
       <use x="63.623047" xlink:href="#DejaVuSans-2e"/>
       <use x="95.410156" xlink:href="#DejaVuSans-34"/>
      </g>
     </g>
    </g>
    <g id="xtick_3">
     <g id="line2d_3">
      <g>
       <use style="stroke:#000000;stroke-width:0.8;" x="200.448" xlink:href="#m5b4aa82eac" y="293.479494"/>
      </g>
     </g>
     <g id="text_3">
      <!-- 0.6 -->
      <defs>
       <path d="M 33.015625 40.375 
Q 26.375 40.375 22.484375 35.828125 
Q 18.609375 31.296875 18.609375 23.390625 
Q 18.609375 15.53125 22.484375 10.953125 
Q 26.375 6.390625 33.015625 6.390625 
Q 39.65625 6.390625 43.53125 10.953125 
Q 47.40625 15.53125 47.40625 23.390625 
Q 47.40625 31.296875 43.53125 35.828125 
Q 39.65625 40.375 33.015625 40.375 
z
M 52.59375 71.296875 
L 52.59375 62.3125 
Q 48.875 64.0625 45.09375 64.984375 
Q 41.3125 65.921875 37.59375 65.921875 
Q 27.828125 65.921875 22.671875 59.328125 
Q 17.53125 52.734375 16.796875 39.40625 
Q 19.671875 43.65625 24.015625 45.921875 
Q 28.375 48.1875 33.59375 48.1875 
Q 44.578125 48.1875 50.953125 41.515625 
Q 57.328125 34.859375 57.328125 23.390625 
Q 57.328125 12.15625 50.6875 5.359375 
Q 44.046875 -1.421875 33.015625 -1.421875 
Q 20.359375 -1.421875 13.671875 8.265625 
Q 6.984375 17.96875 6.984375 36.375 
Q 6.984375 53.65625 15.1875 63.9375 
Q 23.390625 74.21875 37.203125 74.21875 
Q 40.921875 74.21875 44.703125 73.484375 
Q 48.484375 72.75 52.59375 71.296875 
z
" id="DejaVuSans-36"/>
      </defs>
      <g transform="translate(192.496438 308.077932)scale(0.1 -0.1)">
       <use xlink:href="#DejaVuSans-30"/>
       <use x="63.623047" xlink:href="#DejaVuSans-2e"/>
       <use x="95.410156" xlink:href="#DejaVuSans-36"/>
      </g>
     </g>
    </g>
    <g id="xtick_4">
     <g id="line2d_4">
      <g>
       <use style="stroke:#000000;stroke-width:0.8;" x="248.241011" xlink:href="#m5b4aa82eac" y="293.479494"/>
      </g>
     </g>
     <g id="text_4">
      <!-- 0.8 -->
      <defs>
       <path d="M 31.78125 34.625 
Q 24.75 34.625 20.71875 30.859375 
Q 16.703125 27.09375 16.703125 20.515625 
Q 16.703125 13.921875 20.71875 10.15625 
Q 24.75 6.390625 31.78125 6.390625 
Q 38.8125 6.390625 42.859375 10.171875 
Q 46.921875 13.96875 46.921875 20.515625 
Q 46.921875 27.09375 42.890625 30.859375 
Q 38.875 34.625 31.78125 34.625 
z
M 21.921875 38.8125 
Q 15.578125 40.375 12.03125 44.71875 
Q 8.5 49.078125 8.5 55.328125 
Q 8.5 64.0625 14.71875 69.140625 
Q 20.953125 74.21875 31.78125 74.21875 
Q 42.671875 74.21875 48.875 69.140625 
Q 55.078125 64.0625 55.078125 55.328125 
Q 55.078125 49.078125 51.53125 44.71875 
Q 48 40.375 41.703125 38.8125 
Q 48.828125 37.15625 52.796875 32.3125 
Q 56.78125 27.484375 56.78125 20.515625 
Q 56.78125 9.90625 50.3125 4.234375 
Q 43.84375 -1.421875 31.78125 -1.421875 
Q 19.734375 -1.421875 13.25 4.234375 
Q 6.78125 9.90625 6.78125 20.515625 
Q 6.78125 27.484375 10.78125 32.3125 
Q 14.796875 37.15625 21.921875 38.8125 
z
M 18.3125 54.390625 
Q 18.3125 48.734375 21.84375 45.5625 
Q 25.390625 42.390625 31.78125 42.390625 
Q 38.140625 42.390625 41.71875 45.5625 
Q 45.3125 48.734375 45.3125 54.390625 
Q 45.3125 60.0625 41.71875 63.234375 
Q 38.140625 66.40625 31.78125 66.40625 
Q 25.390625 66.40625 21.84375 63.234375 
Q 18.3125 60.0625 18.3125 54.390625 
z
" id="DejaVuSans-38"/>
      </defs>
      <g transform="translate(240.289449 308.077932)scale(0.1 -0.1)">
       <use xlink:href="#DejaVuSans-30"/>
       <use x="63.623047" xlink:href="#DejaVuSans-2e"/>
       <use x="95.410156" xlink:href="#DejaVuSans-38"/>
      </g>
     </g>
    </g>
    <g id="xtick_5">
     <g id="line2d_5">
      <g>
       <use style="stroke:#000000;stroke-width:0.8;" x="296.034022" xlink:href="#m5b4aa82eac" y="293.479494"/>
      </g>
     </g>
     <g id="text_5">
      <!-- 1.0 -->
      <defs>
       <path d="M 12.40625 8.296875 
L 28.515625 8.296875 
L 28.515625 63.921875 
L 10.984375 60.40625 
L 10.984375 69.390625 
L 28.421875 72.90625 
L 38.28125 72.90625 
L 38.28125 8.296875 
L 54.390625 8.296875 
L 54.390625 0 
L 12.40625 0 
z
" id="DejaVuSans-31"/>
      </defs>
      <g transform="translate(288.08246 308.077932)scale(0.1 -0.1)">
       <use xlink:href="#DejaVuSans-31"/>
       <use x="63.623047" xlink:href="#DejaVuSans-2e"/>
       <use x="95.410156" xlink:href="#DejaVuSans-30"/>
      </g>
     </g>
    </g>
   </g>
   <g id="matplotlib.axis_2">
    <g id="ytick_1">
     <g id="line2d_6">
      <defs>
       <path d="M 0 0 
L -3.5 0 
" id="m12dcb777ad" style="stroke:#000000;stroke-width:0.8;"/>
      </defs>
      <g>
       <use style="stroke:#000000;stroke-width:0.8;" x="57.6" xlink:href="#m12dcb777ad" y="246.217517"/>
      </g>
     </g>
     <g id="text_6">
      <!-- 0.2 -->
      <g transform="translate(34.696875 250.016735)scale(0.1 -0.1)">
       <use xlink:href="#DejaVuSans-30"/>
       <use x="63.623047" xlink:href="#DejaVuSans-2e"/>
       <use x="95.410156" xlink:href="#DejaVuSans-32"/>
      </g>
     </g>
    </g>
    <g id="ytick_2">
     <g id="line2d_7">
      <g>
       <use style="stroke:#000000;stroke-width:0.8;" x="57.6" xlink:href="#m12dcb777ad" y="198.424506"/>
      </g>
     </g>
     <g id="text_7">
      <!-- 0.4 -->
      <g transform="translate(34.696875 202.223724)scale(0.1 -0.1)">
       <use xlink:href="#DejaVuSans-30"/>
       <use x="63.623047" xlink:href="#DejaVuSans-2e"/>
       <use x="95.410156" xlink:href="#DejaVuSans-34"/>
      </g>
     </g>
    </g>
    <g id="ytick_3">
     <g id="line2d_8">
      <g>
       <use style="stroke:#000000;stroke-width:0.8;" x="57.6" xlink:href="#m12dcb777ad" y="150.631494"/>
      </g>
     </g>
     <g id="text_8">
      <!-- 0.6 -->
      <g transform="translate(34.696875 154.430713)scale(0.1 -0.1)">
       <use xlink:href="#DejaVuSans-30"/>
       <use x="63.623047" xlink:href="#DejaVuSans-2e"/>
       <use x="95.410156" xlink:href="#DejaVuSans-36"/>
      </g>
     </g>
    </g>
    <g id="ytick_4">
     <g id="line2d_9">
      <g>
       <use style="stroke:#000000;stroke-width:0.8;" x="57.6" xlink:href="#m12dcb777ad" y="102.838483"/>
      </g>
     </g>
     <g id="text_9">
      <!-- 0.8 -->
      <g transform="translate(34.696875 106.637702)scale(0.1 -0.1)">
       <use xlink:href="#DejaVuSans-30"/>
       <use x="63.623047" xlink:href="#DejaVuSans-2e"/>
       <use x="95.410156" xlink:href="#DejaVuSans-38"/>
      </g>
     </g>
    </g>
   </g>
   <g id="LineCollection_1">
    <path clip-path="url(#p44b483f741)" d="M 223.040555 293.479494 
L 222.753502 292.417428 
L 222.149765 291.355361 
L 221.158305 290.262877 
L 219.864641 289.231227 
L 217.972104 288.094138 
L 214.785903 286.630091 
L 211.599703 285.437531 
L 208.413502 284.413182 
L 204.165234 283.205055 
L 198.701443 281.796758 
L 183.985963 278.260278 
L 175.489428 276.029707 
L 163.806691 272.65775 
L 157.43429 270.897637 
L 153.186022 269.912045 
L 148.937755 269.18146 
L 145.751554 268.854199 
L 142.565353 268.746263 
L 139.379152 268.873612 
L 136.192952 269.247962 
L 133.006751 269.86024 
L 129.82055 270.689084 
L 125.572283 272.062894 
L 119.199881 274.47304 
L 111.141057 277.548491 
L 106.455078 279.116247 
L 102.20681 280.315014 
L 97.958543 281.270514 
L 93.710275 281.953159 
L 90.524074 282.271981 
L 87.337874 282.395198 
L 84.151673 282.288104 
L 80.965472 281.885691 
L 78.841338 281.398394 
L 76.717204 280.67632 
L 74.593071 279.625704 
L 73.106557 278.610558 
L 71.878264 277.548491 
L 70.880095 276.486424 
L 70.042882 275.424357 
L 68.711767 273.300223 
L 67.684416 271.176089 
L 66.861804 269.051955 
L 65.896299 265.865755 
L 64.944207 261.617487 
L 64.097999 256.307152 
L 63.484282 250.996818 
L 62.751297 242.500283 
L 61.867384 228.693413 
L 61.171065 214.886543 
L 60.452045 196.831405 
L 59.728131 172.403866 
L 59.126531 144.790126 
L 58.511558 106.555717 
L 57.963197 58.762706 
L 57.994555 55.576506 
L 57.994555 55.576506 
" style="fill:none;stroke:#000080;stroke-width:1.5;"/>
   </g>
   <g id="LineCollection_2">
    <path clip-path="url(#p44b483f741)" d="M 287.597095 293.479494 
L 288.369627 287.107093 
L 288.306692 283.920892 
L 288.000653 279.672625 
L 285.254862 254.183019 
L 284.397845 247.810617 
L 283.356905 241.438216 
L 282.495735 237.189948 
L 281.365029 232.94168 
L 280.634052 230.732992 
L 279.571985 228.396232 
L 278.350205 226.569279 
L 277.307354 225.507212 
L 276.385784 224.860178 
L 275.323717 224.391145 
L 274.261651 224.121251 
L 272.137517 223.940341 
L 268.951316 224.0583 
L 260.454781 224.510857 
L 251.958245 224.661679 
L 230.716907 224.729845 
L 210.537636 224.865579 
L 196.730766 225.186254 
L 170.179093 225.911564 
L 161.682558 225.833842 
L 151.061888 225.481313 
L 125.572283 224.323158 
L 119.199881 223.755187 
L 113.889546 223.056884 
L 106.455078 221.999838 
L 103.268877 221.824531 
L 101.144743 221.951363 
L 99.02061 222.368895 
L 96.896476 223.17378 
L 95.834409 223.75094 
L 94.772342 224.457384 
L 93.49821 225.507212 
L 92.412939 226.569279 
L 90.524074 228.816249 
L 88.4699 231.879613 
L 87.240108 234.003747 
L 85.033489 238.252015 
L 81.764032 244.624416 
L 80.351788 246.74855 
L 79.903405 247.320896 
L 78.841338 248.27094 
L 77.779271 248.762369 
L 76.717204 248.799581 
L 75.655138 248.385888 
L 74.593071 247.510597 
L 73.278467 245.686483 
L 72.184263 243.562349 
L 71.313899 241.438216 
L 70.006057 237.189948 
L 68.972946 232.94168 
L 67.743849 226.569279 
L 66.750532 220.196877 
L 65.674848 211.700342 
L 64.602785 201.079673 
L 63.583471 188.33487 
L 62.577463 172.403866 
L 61.578889 152.224595 
L 60.636322 127.797056 
L 59.756911 98.059182 
L 58.868575 60.88684 
L 58.936935 55.576506 
L 58.936935 55.576506 
" style="fill:none;stroke:#0000e8;stroke-width:1.5;"/>
   </g>
   <g id="LineCollection_3">
    <path clip-path="url(#p44b483f741)" d="M 290.770934 293.479494 
L 291.127909 287.107093 
L 290.972503 282.858825 
L 290.00689 267.989888 
L 287.045564 226.569279 
L 286.411024 220.196877 
L 285.446029 211.700342 
L 284.385717 204.265874 
L 283.41789 198.955539 
L 282.41228 194.707271 
L 281.398966 191.521071 
L 280.480142 189.396937 
L 279.571985 187.89867 
L 278.509918 186.808391 
L 277.365912 186.210736 
L 276.385784 186.02171 
L 274.748911 186.210736 
L 273.199584 186.662736 
L 267.889249 188.617155 
L 264.811661 189.396937 
L 262.578914 189.766183 
L 259.392714 190.066733 
L 255.144446 190.21259 
L 246.647911 190.200481 
L 223.282439 190.161847 
L 143.62742 190.277726 
L 120.261948 190.507677 
L 114.951613 190.216803 
L 109.641279 189.694932 
L 101.144743 188.824538 
L 97.958543 188.781084 
L 95.834409 188.956472 
L 93.606758 189.396937 
L 91.586141 190.085404 
L 89.462007 191.1879 
L 87.535037 192.583138 
L 86.275807 193.698863 
L 84.151673 195.954372 
L 78.841338 202.202633 
L 77.594689 203.203807 
L 76.717204 203.696571 
L 75.655138 203.903872 
L 74.593071 203.635565 
L 73.531004 202.803268 
L 72.357971 201.079673 
L 71.367871 198.955539 
L 70.022322 194.707271 
L 69.005662 190.459004 
L 67.828216 184.086602 
L 66.745854 176.652134 
L 65.634219 167.093532 
L 64.543038 155.410796 
L 63.499715 141.603926 
L 62.463072 124.610855 
L 61.479273 104.431584 
L 60.275992 73.631643 
L 59.820291 59.824773 
L 59.946802 55.576506 
L 59.946802 55.576506 
" style="fill:none;stroke:#0038ff;stroke-width:1.5;"/>
   </g>
   <g id="LineCollection_4">
    <path clip-path="url(#p44b483f741)" d="M 292.776368 293.479494 
L 292.864911 284.982959 
L 292.4514 275.424357 
L 289.879548 223.383078 
L 288.662246 204.265874 
L 287.561294 190.459004 
L 286.49828 179.838335 
L 285.570816 172.403866 
L 284.571165 166.031465 
L 283.477813 160.72113 
L 282.631912 157.534929 
L 281.41821 154.348729 
L 280.634052 152.850436 
L 279.571985 151.61067 
L 278.509918 151.012286 
L 277.447851 150.918017 
L 276.385784 151.204793 
L 274.671096 152.224595 
L 273.199584 153.355502 
L 268.951316 156.774574 
L 266.827182 158.126882 
L 264.703048 159.152258 
L 262.578914 159.872675 
L 260.454781 160.337488 
L 258.330647 160.60181 
L 255.144446 160.73913 
L 250.896178 160.661656 
L 239.213442 160.312717 
L 228.592773 160.316137 
L 208.413502 160.323293 
L 122.386082 160.063655 
L 106.455078 159.958862 
L 96.896476 159.843588 
L 93.710275 159.981731 
L 90.524074 160.379336 
L 88.399941 160.866697 
L 86.275807 161.590166 
L 84.151673 162.582786 
L 81.905541 163.907331 
L 78.547101 166.031465 
L 77.779271 166.444448 
L 76.717204 166.846633 
L 75.655138 166.993707 
L 74.593071 166.784566 
L 73.469439 166.031465 
L 72.468937 164.837051 
L 71.404751 162.845264 
L 70.247375 159.659063 
L 69.12132 155.410796 
L 67.865763 149.038394 
L 66.733167 141.603926 
L 65.698519 133.10739 
L 64.653469 122.486721 
L 63.565201 108.679851 
L 62.496038 91.686781 
L 60.927576 61.948907 
L 60.926422 58.762706 
L 61.100918 55.576506 
L 61.100918 55.576506 
" style="fill:none;stroke:#0094ff;stroke-width:1.5;"/>
   </g>
   <g id="LineCollection_5">
    <path clip-path="url(#p44b483f741)" d="M 294.388976 293.479494 
L 294.254053 280.734691 
L 292.76456 239.314082 
L 291.586651 210.638275 
L 290.573576 190.459004 
L 289.595072 174.528 
L 288.632297 161.783197 
L 287.636111 151.162528 
L 286.63484 142.665993 
L 285.503132 135.231524 
L 284.439463 129.92119 
L 283.629561 126.734989 
L 282.536414 123.548788 
L 281.488313 121.424654 
L 280.634052 120.222075 
L 279.571985 119.405774 
L 278.509918 119.156225 
L 277.447851 119.369158 
L 276.385784 119.95209 
L 274.724517 121.424654 
L 273.199584 123.099473 
L 268.33058 128.859123 
L 266.827182 130.363608 
L 264.703048 132.0926 
L 262.578914 133.361772 
L 260.454781 134.208873 
L 258.330647 134.698791 
L 256.206513 134.900905 
L 254.082379 134.883797 
L 250.896178 134.580502 
L 244.523777 133.578205 
L 240.275509 132.985013 
L 236.027242 132.612325 
L 231.778974 132.469686 
L 226.468639 132.52474 
L 198.8549 133.197276 
L 169.117026 133.345341 
L 92.648208 133.769482 
L 88.399941 134.040309 
L 85.21374 134.48219 
L 81.882521 135.231524 
L 77.583674 136.293591 
L 76.717204 136.395359 
L 75.437865 136.293591 
L 74.593071 136.061146 
L 73.35889 135.231524 
L 72.395842 134.169457 
L 71.194775 132.045323 
L 70.310713 129.92119 
L 69.077465 125.672922 
L 67.940867 120.362587 
L 66.890583 113.990186 
L 65.682669 104.431584 
L 64.62903 93.810914 
L 63.43713 78.941978 
L 62.319714 63.010974 
L 62.272891 59.824773 
L 62.545831 55.576506 
L 62.545831 55.576506 
" style="fill:none;stroke:#0cf4eb;stroke-width:1.5;"/>
   </g>
   <g id="LineCollection_6">
    <path clip-path="url(#p44b483f741)" d="M 296.019131 293.479494 
L 295.86401 281.796758 
L 294.596546 240.376149 
L 293.454449 205.327941 
L 292.475847 180.900401 
L 291.587418 162.845264 
L 290.690747 147.976327 
L 289.735743 135.231524 
L 288.728711 124.610855 
L 287.704565 116.11432 
L 286.552897 108.679851 
L 285.491959 103.369517 
L 284.706877 100.183316 
L 283.710813 96.997115 
L 282.758186 94.644286 
L 281.696119 92.72634 
L 280.634052 91.393282 
L 279.571985 90.558581 
L 278.509918 90.175221 
L 277.447851 90.218356 
L 276.385784 90.683129 
L 275.216257 91.686781 
L 274.261651 92.828591 
L 272.278232 95.935048 
L 267.687018 103.369517 
L 265.765115 105.815802 
L 264.000674 107.617784 
L 262.578914 108.799438 
L 260.454781 110.103623 
L 258.330647 110.941495 
L 256.206513 111.393112 
L 254.082379 111.545227 
L 251.958245 111.480033 
L 248.772045 111.131524 
L 233.903108 109.070124 
L 227.530706 108.565501 
L 220.096238 108.222301 
L 211.599703 108.06034 
L 202.0411 108.122556 
L 188.23423 108.491197 
L 170.179093 108.927416 
L 153.186022 109.085541 
L 104.330944 109.422043 
L 89.341603 109.741918 
L 83.089606 110.081954 
L 78.841338 110.276535 
L 76.717204 110.095503 
L 75.496288 109.741918 
L 74.593071 109.320856 
L 73.531004 108.523841 
L 72.468937 107.305665 
L 71.394292 105.493651 
L 70.132602 102.30745 
L 68.94631 98.059182 
L 68.033289 93.810914 
L 66.83135 86.376446 
L 65.632531 76.817844 
L 64.530172 66.197175 
L 64.275771 61.948907 
L 64.322534 59.824773 
L 64.728272 55.576506 
L 64.728272 55.576506 
" style="fill:none;stroke:#56ffa0;stroke-width:1.5;"/>
   </g>
   <g id="LineCollection_7">
    <path clip-path="url(#p44b483f741)" d="M 301.99444 293.479494 
L 301.848846 286.045026 
L 301.505467 279.672625 
L 300.798075 271.176089 
L 299.468363 258.431286 
L 297.228746 239.314082 
L 296.522576 232.94168 
L 295.147284 197.893472 
L 294.133602 168.155599 
L 293.113852 144.790126 
L 292.086229 126.734989 
L 291.066022 112.928119 
L 289.958943 101.245383 
L 288.892523 92.748848 
L 287.98375 87.438513 
L 286.976897 83.190245 
L 285.931476 80.004045 
L 284.88232 77.642739 
L 283.768999 75.755777 
L 282.758186 74.444217 
L 281.696119 73.372274 
L 280.634052 72.537434 
L 278.694842 71.507509 
L 277.447851 71.092976 
L 275.323717 70.720036 
L 273.199584 70.69174 
L 271.07545 70.951103 
L 268.752483 71.507509 
L 265.956855 72.569576 
L 263.640981 73.778212 
L 261.516848 75.169428 
L 259.392714 76.833015 
L 257.158956 78.941978 
L 254.284895 82.128178 
L 252.442711 84.252312 
L 250.896178 85.894814 
L 249.119154 87.438513 
L 247.56227 88.50058 
L 245.428216 89.562647 
L 243.46171 90.233381 
L 241.337576 90.720436 
L 239.213442 91.014783 
L 236.027242 91.204743 
L 232.841041 91.171421 
L 228.592773 90.883289 
L 223.282439 90.255905 
L 215.84797 89.112888 
L 203.103167 87.136867 
L 196.730766 86.370485 
L 190.358364 85.796568 
L 182.263418 85.314379 
L 172.303227 84.9348 
L 152.123955 84.189431 
L 139.379152 83.46195 
L 126.634349 82.515748 
L 113.889546 81.37218 
L 102.20681 80.138027 
L 92.588112 78.941978 
L 84.151673 77.660743 
L 79.903405 76.78016 
L 77.779271 76.0942 
L 76.717204 75.616615 
L 75.311486 74.69371 
L 74.201671 73.631643 
L 73.376445 72.569576 
L 72.260402 70.445442 
L 71.40687 68.021221 
L 71.052024 66.197175 
L 70.83324 64.073041 
L 70.912071 61.948907 
L 71.40687 59.174973 
L 71.747421 57.700639 
L 71.850547 56.638572 
L 71.733821 55.576506 
L 71.733821 55.576506 
" style="fill:none;stroke:#a0ff56;stroke-width:1.5;"/>
   </g>
   <g id="LineCollection_8">
    <path clip-path="url(#p44b483f741)" d="M 309.309989 293.479494 
L 309.171682 284.982959 
L 308.800405 276.486424 
L 308.087131 265.865755 
L 306.9209 252.058885 
L 305.061591 232.839911 
L 302.900071 212.762409 
L 300.742275 194.707271 
L 298.622717 178.776268 
L 296.455458 162.845264 
L 294.962781 133.10739 
L 294.062163 115.052253 
L 293.115006 100.183316 
L 292.310988 90.624714 
L 291.538814 84.252312 
L 290.818433 80.004045 
L 290.097175 76.817844 
L 289.10394 73.631643 
L 288.06852 71.256144 
L 286.94959 69.383375 
L 285.944387 68.124282 
L 284.88232 67.095382 
L 283.671966 66.197175 
L 281.671035 65.135108 
L 279.571985 64.403494 
L 277.447851 63.91454 
L 274.261651 63.497352 
L 271.07545 63.334654 
L 266.827182 63.359955 
L 255.144446 63.659866 
L 253.020312 63.494283 
L 250.390327 63.010974 
L 248.772045 62.324224 
L 248.09297 61.948907 
L 247.052029 60.88684 
L 246.606167 59.824773 
L 246.536413 58.762706 
L 246.74593 57.700639 
L 247.166758 56.638572 
L 247.76465 55.576506 
L 247.76465 55.576506 
" style="fill:none;stroke:#ebff0c;stroke-width:1.5;"/>
   </g>
   <g id="LineCollection_9">
    <path clip-path="url(#p44b483f741)" d="M 316.803048 293.479494 
L 316.683347 283.920892 
L 316.319546 273.300223 
L 315.643482 260.55542 
L 314.496774 243.562349 
L 312.829581 222.321011 
L 310.943563 201.079673 
L 309.021184 181.962468 
L 307.185725 165.900923 
L 305.411908 152.224595 
L 303.530803 139.479792 
L 301.748374 128.859123 
L 299.935499 119.30052 
L 298.121972 110.803985 
L 296.49111 103.369517 
L 294.413703 80.004045 
L 293.666792 74.69371 
L 293.030719 71.507509 
L 292.12875 68.321309 
L 291.254721 66.181195 
L 290.009384 64.073041 
L 289.130587 62.957292 
L 288.06852 61.867605 
L 285.944387 60.119476 
L 284.085826 58.762706 
L 282.758186 57.541737 
L 282.059045 56.638572 
L 281.616924 55.576506 
L 281.616924 55.576506 
" style="fill:none;stroke:#ffab00;stroke-width:1.5;"/>
   </g>
   <g id="LineCollection_10">
    <path clip-path="url(#p44b483f741)" d="M 324.424734 293.479494 
L 324.309081 281.796758 
L 323.937501 267.989888 
L 323.234979 250.996818 
L 322.122661 229.75548 
L 320.628258 205.327941 
L 319.051147 183.024535 
L 317.477544 163.907331 
L 315.947631 147.976327 
L 314.403028 134.169457 
L 312.887849 122.486721 
L 311.297751 111.866052 
L 309.643893 102.30745 
L 307.938792 93.810914 
L 306.198999 86.376446 
L 304.765281 81.066112 
L 303.120439 75.755777 
L 301.608284 71.507509 
L 299.751257 66.984562 
L 297.627123 62.590698 
L 296.565056 60.630721 
L 295.981147 57.700639 
L 295.744312 55.576506 
L 295.744312 55.576506 
" style="fill:none;stroke:#ff5500;stroke-width:1.5;"/>
   </g>
   <g id="LineCollection_11">
    <path clip-path="url(#p44b483f741)" d="M 332.133956 293.479494 
L 332.008927 277.548491 
L 331.600724 256.307152 
L 330.875673 231.879613 
L 329.738767 201.079673 
L 328.508049 173.465933 
L 327.291214 151.162528 
L 326.086932 133.10739 
L 324.886314 118.238454 
L 323.550161 104.431584 
L 322.054662 91.363379 
L 318.921318 65.135108 
L 318.596186 59.824773 
L 318.518853 55.576506 
L 318.518853 55.576506 
" style="fill:none;stroke:#e80000;stroke-width:1.5;"/>
   </g>
   <g id="LineCollection_12">
    <path clip-path="url(#p44b483f741)" d="M 339.893883 293.479494 
L 339.805142 273.300223 
L 339.509349 231.879613 
L 338.839565 180.900401 
L 338.136697 142.665993 
L 337.44936 116.11432 
L 336.567495 90.624714 
L 335.746912 66.197175 
L 335.633271 55.576506 
L 335.633271 55.576506 
" style="fill:none;stroke:#800000;stroke-width:1.5;"/>
   </g>
   <g id="patch_3">
    <path d="M 57.6 293.479494 
L 57.6 55.576506 
" style="fill:none;stroke:#000000;stroke-linecap:square;stroke-linejoin:miter;stroke-width:0.8;"/>
   </g>
   <g id="patch_4">
    <path d="M 343.296 293.479494 
L 343.296 55.576506 
" style="fill:none;stroke:#000000;stroke-linecap:square;stroke-linejoin:miter;stroke-width:0.8;"/>
   </g>
   <g id="patch_5">
    <path d="M 57.6 293.479494 
L 343.296 293.479494 
" style="fill:none;stroke:#000000;stroke-linecap:square;stroke-linejoin:miter;stroke-width:0.8;"/>
   </g>
   <g id="patch_6">
    <path d="M 57.6 55.576506 
L 343.296 55.576506 
" style="fill:none;stroke:#000000;stroke-linecap:square;stroke-linejoin:miter;stroke-width:0.8;"/>
   </g>
   <g id="text_10">
    <!-- Time:0.06255 s -->
    <defs>
     <path d="M -0.296875 72.90625 
L 61.375 72.90625 
L 61.375 64.59375 
L 35.5 64.59375 
L 35.5 0 
L 25.59375 0 
L 25.59375 64.59375 
L -0.296875 64.59375 
z
" id="DejaVuSans-54"/>
     <path d="M 9.421875 54.6875 
L 18.40625 54.6875 
L 18.40625 0 
L 9.421875 0 
z
M 9.421875 75.984375 
L 18.40625 75.984375 
L 18.40625 64.59375 
L 9.421875 64.59375 
z
" id="DejaVuSans-69"/>
     <path d="M 52 44.1875 
Q 55.375 50.25 60.0625 53.125 
Q 64.75 56 71.09375 56 
Q 79.640625 56 84.28125 50.015625 
Q 88.921875 44.046875 88.921875 33.015625 
L 88.921875 0 
L 79.890625 0 
L 79.890625 32.71875 
Q 79.890625 40.578125 77.09375 44.375 
Q 74.3125 48.1875 68.609375 48.1875 
Q 61.625 48.1875 57.5625 43.546875 
Q 53.515625 38.921875 53.515625 30.90625 
L 53.515625 0 
L 44.484375 0 
L 44.484375 32.71875 
Q 44.484375 40.625 41.703125 44.40625 
Q 38.921875 48.1875 33.109375 48.1875 
Q 26.21875 48.1875 22.15625 43.53125 
Q 18.109375 38.875 18.109375 30.90625 
L 18.109375 0 
L 9.078125 0 
L 9.078125 54.6875 
L 18.109375 54.6875 
L 18.109375 46.1875 
Q 21.1875 51.21875 25.484375 53.609375 
Q 29.78125 56 35.6875 56 
Q 41.65625 56 45.828125 52.96875 
Q 50 49.953125 52 44.1875 
z
" id="DejaVuSans-6d"/>
     <path d="M 56.203125 29.59375 
L 56.203125 25.203125 
L 14.890625 25.203125 
Q 15.484375 15.921875 20.484375 11.0625 
Q 25.484375 6.203125 34.421875 6.203125 
Q 39.59375 6.203125 44.453125 7.46875 
Q 49.3125 8.734375 54.109375 11.28125 
L 54.109375 2.78125 
Q 49.265625 0.734375 44.1875 -0.34375 
Q 39.109375 -1.421875 33.890625 -1.421875 
Q 20.796875 -1.421875 13.15625 6.1875 
Q 5.515625 13.8125 5.515625 26.8125 
Q 5.515625 40.234375 12.765625 48.109375 
Q 20.015625 56 32.328125 56 
Q 43.359375 56 49.78125 48.890625 
Q 56.203125 41.796875 56.203125 29.59375 
z
M 47.21875 32.234375 
Q 47.125 39.59375 43.09375 43.984375 
Q 39.0625 48.390625 32.421875 48.390625 
Q 24.90625 48.390625 20.390625 44.140625 
Q 15.875 39.890625 15.1875 32.171875 
z
" id="DejaVuSans-65"/>
     <path d="M 11.71875 12.40625 
L 22.015625 12.40625 
L 22.015625 0 
L 11.71875 0 
z
M 11.71875 51.703125 
L 22.015625 51.703125 
L 22.015625 39.3125 
L 11.71875 39.3125 
z
" id="DejaVuSans-3a"/>
     <path d="M 10.796875 72.90625 
L 49.515625 72.90625 
L 49.515625 64.59375 
L 19.828125 64.59375 
L 19.828125 46.734375 
Q 21.96875 47.46875 24.109375 47.828125 
Q 26.265625 48.1875 28.421875 48.1875 
Q 40.625 48.1875 47.75 41.5 
Q 54.890625 34.8125 54.890625 23.390625 
Q 54.890625 11.625 47.5625 5.09375 
Q 40.234375 -1.421875 26.90625 -1.421875 
Q 22.3125 -1.421875 17.546875 -0.640625 
Q 12.796875 0.140625 7.71875 1.703125 
L 7.71875 11.625 
Q 12.109375 9.234375 16.796875 8.0625 
Q 21.484375 6.890625 26.703125 6.890625 
Q 35.15625 6.890625 40.078125 11.328125 
Q 45.015625 15.765625 45.015625 23.390625 
Q 45.015625 31 40.078125 35.4375 
Q 35.15625 39.890625 26.703125 39.890625 
Q 22.75 39.890625 18.8125 39.015625 
Q 14.890625 38.140625 10.796875 36.28125 
z
" id="DejaVuSans-35"/>
     <path id="DejaVuSans-20"/>
     <path d="M 44.28125 53.078125 
L 44.28125 44.578125 
Q 40.484375 46.53125 36.375 47.5 
Q 32.28125 48.484375 27.875 48.484375 
Q 21.1875 48.484375 17.84375 46.4375 
Q 14.5 44.390625 14.5 40.28125 
Q 14.5 37.15625 16.890625 35.375 
Q 19.28125 33.59375 26.515625 31.984375 
L 29.59375 31.296875 
Q 39.15625 29.25 43.1875 25.515625 
Q 47.21875 21.78125 47.21875 15.09375 
Q 47.21875 7.46875 41.1875 3.015625 
Q 35.15625 -1.421875 24.609375 -1.421875 
Q 20.21875 -1.421875 15.453125 -0.5625 
Q 10.6875 0.296875 5.421875 2 
L 5.421875 11.28125 
Q 10.40625 8.6875 15.234375 7.390625 
Q 20.0625 6.109375 24.8125 6.109375 
Q 31.15625 6.109375 34.5625 8.28125 
Q 37.984375 10.453125 37.984375 14.40625 
Q 37.984375 18.0625 35.515625 20.015625 
Q 33.0625 21.96875 24.703125 23.78125 
L 21.578125 24.515625 
Q 13.234375 26.265625 9.515625 29.90625 
Q 5.8125 33.546875 5.8125 39.890625 
Q 5.8125 47.609375 11.28125 51.796875 
Q 16.75 56 26.8125 56 
Q 31.78125 56 36.171875 55.265625 
Q 40.578125 54.546875 44.28125 53.078125 
z
" id="DejaVuSans-73"/>
    </defs>
    <g transform="translate(153.717375 49.576506)scale(0.12 -0.12)">
     <use xlink:href="#DejaVuSans-54"/>
     <use x="61.037109" xlink:href="#DejaVuSans-69"/>
     <use x="88.820312" xlink:href="#DejaVuSans-6d"/>
     <use x="186.232422" xlink:href="#DejaVuSans-65"/>
     <use x="247.755859" xlink:href="#DejaVuSans-3a"/>
     <use x="281.447266" xlink:href="#DejaVuSans-30"/>
     <use x="345.070312" xlink:href="#DejaVuSans-2e"/>
     <use x="376.857422" xlink:href="#DejaVuSans-30"/>
     <use x="440.480469" xlink:href="#DejaVuSans-36"/>
     <use x="504.103516" xlink:href="#DejaVuSans-32"/>
     <use x="567.726562" xlink:href="#DejaVuSans-35"/>
     <use x="631.349609" xlink:href="#DejaVuSans-35"/>
     <use x="694.972656" xlink:href="#DejaVuSans-20"/>
     <use x="726.759766" xlink:href="#DejaVuSans-73"/>
    </g>
   </g>
  </g>
  <g id="axes_2">
   <g id="patch_7">
    <path clip-path="url(#p7de1d1c3f1)" d="M 361.152 307.584 
L 361.152 283.392 
L 361.152 65.664 
L 361.152 41.472 
L 374.4576 41.472 
L 374.4576 65.664 
L 374.4576 283.392 
L 374.4576 307.584 
z
" style="fill:#ffffff;stroke:#ffffff;stroke-linejoin:miter;stroke-width:0.01;"/>
   </g>
   <g id="matplotlib.axis_3"/>
   <g id="matplotlib.axis_4">
    <g id="ytick_5">
     <g id="line2d_10">
      <defs>
       <path d="M 0 0 
L 3.5 0 
" id="me4f1c7fa68" style="stroke:#000000;stroke-width:0.8;"/>
      </defs>
      <g>
       <use style="stroke:#000000;stroke-width:0.8;" x="374.4576" xlink:href="#me4f1c7fa68" y="307.584"/>
      </g>
     </g>
     <g id="text_11">
      <!-- 0.08 -->
      <g transform="translate(381.4576 311.383219)scale(0.1 -0.1)">
       <use xlink:href="#DejaVuSans-30"/>
       <use x="63.623047" xlink:href="#DejaVuSans-2e"/>
       <use x="95.410156" xlink:href="#DejaVuSans-30"/>
       <use x="159.033203" xlink:href="#DejaVuSans-38"/>
      </g>
     </g>
    </g>
    <g id="ytick_6">
     <g id="line2d_11">
      <g>
       <use style="stroke:#000000;stroke-width:0.8;" x="374.4576" xlink:href="#me4f1c7fa68" y="259.2"/>
      </g>
     </g>
     <g id="text_12">
      <!-- 0.24 -->
      <g transform="translate(381.4576 262.999219)scale(0.1 -0.1)">
       <use xlink:href="#DejaVuSans-30"/>
       <use x="63.623047" xlink:href="#DejaVuSans-2e"/>
       <use x="95.410156" xlink:href="#DejaVuSans-32"/>
       <use x="159.033203" xlink:href="#DejaVuSans-34"/>
      </g>
     </g>
    </g>
    <g id="ytick_7">
     <g id="line2d_12">
      <g>
       <use style="stroke:#000000;stroke-width:0.8;" x="374.4576" xlink:href="#me4f1c7fa68" y="210.816"/>
      </g>
     </g>
     <g id="text_13">
      <!-- 0.40 -->
      <g transform="translate(381.4576 214.615219)scale(0.1 -0.1)">
       <use xlink:href="#DejaVuSans-30"/>
       <use x="63.623047" xlink:href="#DejaVuSans-2e"/>
       <use x="95.410156" xlink:href="#DejaVuSans-34"/>
       <use x="159.033203" xlink:href="#DejaVuSans-30"/>
      </g>
     </g>
    </g>
    <g id="ytick_8">
     <g id="line2d_13">
      <g>
       <use style="stroke:#000000;stroke-width:0.8;" x="374.4576" xlink:href="#me4f1c7fa68" y="162.432"/>
      </g>
     </g>
     <g id="text_14">
      <!-- 0.56 -->
      <g transform="translate(381.4576 166.231219)scale(0.1 -0.1)">
       <use xlink:href="#DejaVuSans-30"/>
       <use x="63.623047" xlink:href="#DejaVuSans-2e"/>
       <use x="95.410156" xlink:href="#DejaVuSans-35"/>
       <use x="159.033203" xlink:href="#DejaVuSans-36"/>
      </g>
     </g>
    </g>
    <g id="ytick_9">
     <g id="line2d_14">
      <g>
       <use style="stroke:#000000;stroke-width:0.8;" x="374.4576" xlink:href="#me4f1c7fa68" y="114.048"/>
      </g>
     </g>
     <g id="text_15">
      <!-- 0.72 -->
      <defs>
       <path d="M 8.203125 72.90625 
L 55.078125 72.90625 
L 55.078125 68.703125 
L 28.609375 0 
L 18.3125 0 
L 43.21875 64.59375 
L 8.203125 64.59375 
z
" id="DejaVuSans-37"/>
      </defs>
      <g transform="translate(381.4576 117.847219)scale(0.1 -0.1)">
       <use xlink:href="#DejaVuSans-30"/>
       <use x="63.623047" xlink:href="#DejaVuSans-2e"/>
       <use x="95.410156" xlink:href="#DejaVuSans-37"/>
       <use x="159.033203" xlink:href="#DejaVuSans-32"/>
      </g>
     </g>
    </g>
    <g id="ytick_10">
     <g id="line2d_15">
      <g>
       <use style="stroke:#000000;stroke-width:0.8;" x="374.4576" xlink:href="#me4f1c7fa68" y="65.664"/>
      </g>
     </g>
     <g id="text_16">
      <!-- 0.88 -->
      <g transform="translate(381.4576 69.463219)scale(0.1 -0.1)">
       <use xlink:href="#DejaVuSans-30"/>
       <use x="63.623047" xlink:href="#DejaVuSans-2e"/>
       <use x="95.410156" xlink:href="#DejaVuSans-38"/>
       <use x="159.033203" xlink:href="#DejaVuSans-38"/>
      </g>
     </g>
    </g>
   </g>
   <g id="LineCollection_13">
    <path clip-path="url(#p7de1d1c3f1)" d="M 361.152 307.584 
L 374.4576 307.584 
" style="fill:none;stroke:#000080;stroke-width:1.5;"/>
    <path clip-path="url(#p7de1d1c3f1)" d="M 361.152 283.392 
L 374.4576 283.392 
" style="fill:none;stroke:#0000e8;stroke-width:1.5;"/>
    <path clip-path="url(#p7de1d1c3f1)" d="M 361.152 259.2 
L 374.4576 259.2 
" style="fill:none;stroke:#0038ff;stroke-width:1.5;"/>
    <path clip-path="url(#p7de1d1c3f1)" d="M 361.152 235.008 
L 374.4576 235.008 
" style="fill:none;stroke:#0094ff;stroke-width:1.5;"/>
    <path clip-path="url(#p7de1d1c3f1)" d="M 361.152 210.816 
L 374.4576 210.816 
" style="fill:none;stroke:#0cf4eb;stroke-width:1.5;"/>
    <path clip-path="url(#p7de1d1c3f1)" d="M 361.152 186.624 
L 374.4576 186.624 
" style="fill:none;stroke:#56ffa0;stroke-width:1.5;"/>
    <path clip-path="url(#p7de1d1c3f1)" d="M 361.152 162.432 
L 374.4576 162.432 
" style="fill:none;stroke:#a0ff56;stroke-width:1.5;"/>
    <path clip-path="url(#p7de1d1c3f1)" d="M 361.152 138.24 
L 374.4576 138.24 
" style="fill:none;stroke:#ebff0c;stroke-width:1.5;"/>
    <path clip-path="url(#p7de1d1c3f1)" d="M 361.152 114.048 
L 374.4576 114.048 
" style="fill:none;stroke:#ffab00;stroke-width:1.5;"/>
    <path clip-path="url(#p7de1d1c3f1)" d="M 361.152 89.856 
L 374.4576 89.856 
" style="fill:none;stroke:#ff5500;stroke-width:1.5;"/>
    <path clip-path="url(#p7de1d1c3f1)" d="M 361.152 65.664 
L 374.4576 65.664 
" style="fill:none;stroke:#e80000;stroke-width:1.5;"/>
    <path clip-path="url(#p7de1d1c3f1)" d="M 361.152 41.472 
L 374.4576 41.472 
" style="fill:none;stroke:#800000;stroke-width:1.5;"/>
   </g>
   <g id="patch_8">
    <path d="M 361.152 307.584 
L 361.152 283.392 
L 361.152 65.664 
L 361.152 41.472 
L 374.4576 41.472 
L 374.4576 65.664 
L 374.4576 283.392 
L 374.4576 307.584 
z
" style="fill:none;stroke:#000000;stroke-linejoin:miter;stroke-width:0.8;"/>
   </g>
  </g>
 </g>
 <defs>
  <clipPath id="p44b483f741">
   <rect height="237.902989" width="285.696" x="57.6" y="55.576506"/>
  </clipPath>
  <clipPath id="p7de1d1c3f1">
   <rect height="266.112" width="13.3056" x="361.152" y="41.472"/>
  </clipPath>
 </defs>
</svg>
