<?xml version="1.0" encoding="utf-8" standalone="no"?>
<!DOCTYPE svg PUBLIC "-//W3C//DTD SVG 1.1//EN"
  "http://www.w3.org/Graphics/SVG/1.1/DTD/svg11.dtd">
<!-- Created with matplotlib (http://matplotlib.org/) -->
<svg height="345.6pt" version="1.1" viewBox="0 0 460.8 345.6" width="460.8pt" xmlns="http://www.w3.org/2000/svg" xmlns:xlink="http://www.w3.org/1999/xlink">
 <defs>
  <style type="text/css">
*{stroke-linecap:butt;stroke-linejoin:round;}
  </style>
 </defs>
 <g id="figure_1">
  <g id="patch_1">
   <path d="M 0 345.6 
L 460.8 345.6 
L 460.8 0 
L 0 0 
z
" style="fill:#ffffff;"/>
  </g>
  <g id="axes_1">
   <g id="patch_2">
    <path d="M 57.6 293.479494 
L 343.296 293.479494 
L 343.296 55.576506 
L 57.6 55.576506 
z
" style="fill:#ffffff;"/>
   </g>
   <g id="matplotlib.axis_1">
    <g id="xtick_1">
     <g id="line2d_1">
      <defs>
       <path d="M 0 0 
L 0 3.5 
" id="mae0f20678d" style="stroke:#000000;stroke-width:0.8;"/>
      </defs>
      <g>
       <use style="stroke:#000000;stroke-width:0.8;" x="104.861978" xlink:href="#mae0f20678d" y="293.479494"/>
      </g>
     </g>
     <g id="text_1">
      <!-- 0.2 -->
      <defs>
       <path d="M 31.78125 66.40625 
Q 24.171875 66.40625 20.328125 58.90625 
Q 16.5 51.421875 16.5 36.375 
Q 16.5 21.390625 20.328125 13.890625 
Q 24.171875 6.390625 31.78125 6.390625 
Q 39.453125 6.390625 43.28125 13.890625 
Q 47.125 21.390625 47.125 36.375 
Q 47.125 51.421875 43.28125 58.90625 
Q 39.453125 66.40625 31.78125 66.40625 
z
M 31.78125 74.21875 
Q 44.046875 74.21875 50.515625 64.515625 
Q 56.984375 54.828125 56.984375 36.375 
Q 56.984375 17.96875 50.515625 8.265625 
Q 44.046875 -1.421875 31.78125 -1.421875 
Q 19.53125 -1.421875 13.0625 8.265625 
Q 6.59375 17.96875 6.59375 36.375 
Q 6.59375 54.828125 13.0625 64.515625 
Q 19.53125 74.21875 31.78125 74.21875 
z
" id="DejaVuSans-30"/>
       <path d="M 10.6875 12.40625 
L 21 12.40625 
L 21 0 
L 10.6875 0 
z
" id="DejaVuSans-2e"/>
       <path d="M 19.1875 8.296875 
L 53.609375 8.296875 
L 53.609375 0 
L 7.328125 0 
L 7.328125 8.296875 
Q 12.9375 14.109375 22.625 23.890625 
Q 32.328125 33.6875 34.8125 36.53125 
Q 39.546875 41.84375 41.421875 45.53125 
Q 43.3125 49.21875 43.3125 52.78125 
Q 43.3125 58.59375 39.234375 62.25 
Q 35.15625 65.921875 28.609375 65.921875 
Q 23.96875 65.921875 18.8125 64.3125 
Q 13.671875 62.703125 7.8125 59.421875 
L 7.8125 69.390625 
Q 13.765625 71.78125 18.9375 73 
Q 24.125 74.21875 28.421875 74.21875 
Q 39.75 74.21875 46.484375 68.546875 
Q 53.21875 62.890625 53.21875 53.421875 
Q 53.21875 48.921875 51.53125 44.890625 
Q 49.859375 40.875 45.40625 35.40625 
Q 44.1875 33.984375 37.640625 27.21875 
Q 31.109375 20.453125 19.1875 8.296875 
z
" id="DejaVuSans-32"/>
      </defs>
      <g transform="translate(96.910415 308.077932)scale(0.1 -0.1)">
       <use xlink:href="#DejaVuSans-30"/>
       <use x="63.623047" xlink:href="#DejaVuSans-2e"/>
       <use x="95.410156" xlink:href="#DejaVuSans-32"/>
      </g>
     </g>
    </g>
    <g id="xtick_2">
     <g id="line2d_2">
      <g>
       <use style="stroke:#000000;stroke-width:0.8;" x="152.654989" xlink:href="#mae0f20678d" y="293.479494"/>
      </g>
     </g>
     <g id="text_2">
      <!-- 0.4 -->
      <defs>
       <path d="M 37.796875 64.3125 
L 12.890625 25.390625 
L 37.796875 25.390625 
z
M 35.203125 72.90625 
L 47.609375 72.90625 
L 47.609375 25.390625 
L 58.015625 25.390625 
L 58.015625 17.1875 
L 47.609375 17.1875 
L 47.609375 0 
L 37.796875 0 
L 37.796875 17.1875 
L 4.890625 17.1875 
L 4.890625 26.703125 
z
" id="DejaVuSans-34"/>
      </defs>
      <g transform="translate(144.703426 308.077932)scale(0.1 -0.1)">
       <use xlink:href="#DejaVuSans-30"/>
       <use x="63.623047" xlink:href="#DejaVuSans-2e"/>
       <use x="95.410156" xlink:href="#DejaVuSans-34"/>
      </g>
     </g>
    </g>
    <g id="xtick_3">
     <g id="line2d_3">
      <g>
       <use style="stroke:#000000;stroke-width:0.8;" x="200.448" xlink:href="#mae0f20678d" y="293.479494"/>
      </g>
     </g>
     <g id="text_3">
      <!-- 0.6 -->
      <defs>
       <path d="M 33.015625 40.375 
Q 26.375 40.375 22.484375 35.828125 
Q 18.609375 31.296875 18.609375 23.390625 
Q 18.609375 15.53125 22.484375 10.953125 
Q 26.375 6.390625 33.015625 6.390625 
Q 39.65625 6.390625 43.53125 10.953125 
Q 47.40625 15.53125 47.40625 23.390625 
Q 47.40625 31.296875 43.53125 35.828125 
Q 39.65625 40.375 33.015625 40.375 
z
M 52.59375 71.296875 
L 52.59375 62.3125 
Q 48.875 64.0625 45.09375 64.984375 
Q 41.3125 65.921875 37.59375 65.921875 
Q 27.828125 65.921875 22.671875 59.328125 
Q 17.53125 52.734375 16.796875 39.40625 
Q 19.671875 43.65625 24.015625 45.921875 
Q 28.375 48.1875 33.59375 48.1875 
Q 44.578125 48.1875 50.953125 41.515625 
Q 57.328125 34.859375 57.328125 23.390625 
Q 57.328125 12.15625 50.6875 5.359375 
Q 44.046875 -1.421875 33.015625 -1.421875 
Q 20.359375 -1.421875 13.671875 8.265625 
Q 6.984375 17.96875 6.984375 36.375 
Q 6.984375 53.65625 15.1875 63.9375 
Q 23.390625 74.21875 37.203125 74.21875 
Q 40.921875 74.21875 44.703125 73.484375 
Q 48.484375 72.75 52.59375 71.296875 
z
" id="DejaVuSans-36"/>
      </defs>
      <g transform="translate(192.496438 308.077932)scale(0.1 -0.1)">
       <use xlink:href="#DejaVuSans-30"/>
       <use x="63.623047" xlink:href="#DejaVuSans-2e"/>
       <use x="95.410156" xlink:href="#DejaVuSans-36"/>
      </g>
     </g>
    </g>
    <g id="xtick_4">
     <g id="line2d_4">
      <g>
       <use style="stroke:#000000;stroke-width:0.8;" x="248.241011" xlink:href="#mae0f20678d" y="293.479494"/>
      </g>
     </g>
     <g id="text_4">
      <!-- 0.8 -->
      <defs>
       <path d="M 31.78125 34.625 
Q 24.75 34.625 20.71875 30.859375 
Q 16.703125 27.09375 16.703125 20.515625 
Q 16.703125 13.921875 20.71875 10.15625 
Q 24.75 6.390625 31.78125 6.390625 
Q 38.8125 6.390625 42.859375 10.171875 
Q 46.921875 13.96875 46.921875 20.515625 
Q 46.921875 27.09375 42.890625 30.859375 
Q 38.875 34.625 31.78125 34.625 
z
M 21.921875 38.8125 
Q 15.578125 40.375 12.03125 44.71875 
Q 8.5 49.078125 8.5 55.328125 
Q 8.5 64.0625 14.71875 69.140625 
Q 20.953125 74.21875 31.78125 74.21875 
Q 42.671875 74.21875 48.875 69.140625 
Q 55.078125 64.0625 55.078125 55.328125 
Q 55.078125 49.078125 51.53125 44.71875 
Q 48 40.375 41.703125 38.8125 
Q 48.828125 37.15625 52.796875 32.3125 
Q 56.78125 27.484375 56.78125 20.515625 
Q 56.78125 9.90625 50.3125 4.234375 
Q 43.84375 -1.421875 31.78125 -1.421875 
Q 19.734375 -1.421875 13.25 4.234375 
Q 6.78125 9.90625 6.78125 20.515625 
Q 6.78125 27.484375 10.78125 32.3125 
Q 14.796875 37.15625 21.921875 38.8125 
z
M 18.3125 54.390625 
Q 18.3125 48.734375 21.84375 45.5625 
Q 25.390625 42.390625 31.78125 42.390625 
Q 38.140625 42.390625 41.71875 45.5625 
Q 45.3125 48.734375 45.3125 54.390625 
Q 45.3125 60.0625 41.71875 63.234375 
Q 38.140625 66.40625 31.78125 66.40625 
Q 25.390625 66.40625 21.84375 63.234375 
Q 18.3125 60.0625 18.3125 54.390625 
z
" id="DejaVuSans-38"/>
      </defs>
      <g transform="translate(240.289449 308.077932)scale(0.1 -0.1)">
       <use xlink:href="#DejaVuSans-30"/>
       <use x="63.623047" xlink:href="#DejaVuSans-2e"/>
       <use x="95.410156" xlink:href="#DejaVuSans-38"/>
      </g>
     </g>
    </g>
    <g id="xtick_5">
     <g id="line2d_5">
      <g>
       <use style="stroke:#000000;stroke-width:0.8;" x="296.034022" xlink:href="#mae0f20678d" y="293.479494"/>
      </g>
     </g>
     <g id="text_5">
      <!-- 1.0 -->
      <defs>
       <path d="M 12.40625 8.296875 
L 28.515625 8.296875 
L 28.515625 63.921875 
L 10.984375 60.40625 
L 10.984375 69.390625 
L 28.421875 72.90625 
L 38.28125 72.90625 
L 38.28125 8.296875 
L 54.390625 8.296875 
L 54.390625 0 
L 12.40625 0 
z
" id="DejaVuSans-31"/>
      </defs>
      <g transform="translate(288.08246 308.077932)scale(0.1 -0.1)">
       <use xlink:href="#DejaVuSans-31"/>
       <use x="63.623047" xlink:href="#DejaVuSans-2e"/>
       <use x="95.410156" xlink:href="#DejaVuSans-30"/>
      </g>
     </g>
    </g>
   </g>
   <g id="matplotlib.axis_2">
    <g id="ytick_1">
     <g id="line2d_6">
      <defs>
       <path d="M 0 0 
L -3.5 0 
" id="m92c8afbe23" style="stroke:#000000;stroke-width:0.8;"/>
      </defs>
      <g>
       <use style="stroke:#000000;stroke-width:0.8;" x="57.6" xlink:href="#m92c8afbe23" y="246.217517"/>
      </g>
     </g>
     <g id="text_6">
      <!-- 0.2 -->
      <g transform="translate(34.696875 250.016735)scale(0.1 -0.1)">
       <use xlink:href="#DejaVuSans-30"/>
       <use x="63.623047" xlink:href="#DejaVuSans-2e"/>
       <use x="95.410156" xlink:href="#DejaVuSans-32"/>
      </g>
     </g>
    </g>
    <g id="ytick_2">
     <g id="line2d_7">
      <g>
       <use style="stroke:#000000;stroke-width:0.8;" x="57.6" xlink:href="#m92c8afbe23" y="198.424506"/>
      </g>
     </g>
     <g id="text_7">
      <!-- 0.4 -->
      <g transform="translate(34.696875 202.223724)scale(0.1 -0.1)">
       <use xlink:href="#DejaVuSans-30"/>
       <use x="63.623047" xlink:href="#DejaVuSans-2e"/>
       <use x="95.410156" xlink:href="#DejaVuSans-34"/>
      </g>
     </g>
    </g>
    <g id="ytick_3">
     <g id="line2d_8">
      <g>
       <use style="stroke:#000000;stroke-width:0.8;" x="57.6" xlink:href="#m92c8afbe23" y="150.631494"/>
      </g>
     </g>
     <g id="text_8">
      <!-- 0.6 -->
      <g transform="translate(34.696875 154.430713)scale(0.1 -0.1)">
       <use xlink:href="#DejaVuSans-30"/>
       <use x="63.623047" xlink:href="#DejaVuSans-2e"/>
       <use x="95.410156" xlink:href="#DejaVuSans-36"/>
      </g>
     </g>
    </g>
    <g id="ytick_4">
     <g id="line2d_9">
      <g>
       <use style="stroke:#000000;stroke-width:0.8;" x="57.6" xlink:href="#m92c8afbe23" y="102.838483"/>
      </g>
     </g>
     <g id="text_9">
      <!-- 0.8 -->
      <g transform="translate(34.696875 106.637702)scale(0.1 -0.1)">
       <use xlink:href="#DejaVuSans-30"/>
       <use x="63.623047" xlink:href="#DejaVuSans-2e"/>
       <use x="95.410156" xlink:href="#DejaVuSans-38"/>
      </g>
     </g>
    </g>
   </g>
   <g id="LineCollection_1">
    <path clip-path="url(#pc629fd2fe2)" d="M 287.834218 293.479494 
L 288.554359 288.16916 
L 288.573493 284.982959 
L 288.308792 280.734691 
L 287.52398 272.238156 
L 286.506932 259.493353 
L 285.662851 245.686483 
L 284.982008 231.879613 
L 282.599398 177.714201 
L 281.696119 164.946476 
L 279.348157 139.479792 
L 279.205484 134.169457 
L 279.302246 127.797056 
L 279.788144 117.176387 
L 280.133965 107.617784 
L 280.143918 102.30745 
L 279.981007 98.059182 
L 279.571985 93.538138 
L 279.035077 90.624714 
L 278.509918 88.437789 
L 277.447851 85.660908 
L 276.385784 83.831356 
L 275.323717 82.559522 
L 274.261651 81.672053 
L 273.199584 81.05504 
L 272.137517 80.717401 
L 271.07545 80.576793 
L 270.013383 80.636878 
L 268.557519 81.066112 
L 267.889249 81.422474 
L 266.827182 82.246534 
L 265.765115 83.661701 
L 265.462089 84.252312 
L 265.080435 85.314379 
L 264.845123 86.376446 
L 264.73677 88.50058 
L 264.985662 90.624714 
L 265.737332 93.810914 
L 268.424611 103.369517 
L 268.964673 106.555717 
L 269.288907 109.741918 
L 269.377249 112.928119 
L 269.247115 116.11432 
L 268.905642 119.30052 
L 268.388807 122.486721 
L 267.664175 125.672922 
L 266.74605 128.859123 
L 265.629021 132.045323 
L 264.286228 135.231524 
L 262.578914 138.570183 
L 261.402032 140.541859 
L 259.392714 143.404821 
L 258.250287 144.790126 
L 256.204723 146.91426 
L 254.082379 148.698978 
L 251.958245 150.110358 
L 249.834112 151.208646 
L 247.709978 152.029207 
L 245.585844 152.600244 
L 243.46171 152.94424 
L 241.337576 153.081531 
L 239.213442 153.030727 
L 237.089309 152.804013 
L 234.198925 152.224595 
L 231.778974 151.537166 
L 228.592773 150.357503 
L 225.406572 148.921817 
L 221.158305 146.726792 
L 210.537636 141.025352 
L 206.289368 139.06656 
L 201.99433 137.355658 
L 187.172164 131.892049 
L 176.96758 127.797056 
L 172.303227 126.239884 
L 168.054959 125.044288 
L 163.806691 124.050101 
L 158.496357 123.052866 
L 153.186022 122.285202 
L 146.813621 121.624206 
L 140.441219 121.219963 
L 134.068818 121.072807 
L 128.758483 121.160513 
L 123.448149 121.465661 
L 119.199881 121.901119 
L 114.951613 122.53192 
L 110.703346 123.428076 
L 107.517145 124.328969 
L 105.393011 125.071761 
L 103.268877 125.956509 
L 101.144743 127.023124 
L 99.02061 128.318112 
L 96.856331 129.92119 
L 94.538413 132.045323 
L 92.597408 134.169457 
L 89.462007 138.124855 
L 86.275807 142.055746 
L 84.605351 143.728059 
L 83.089606 144.935493 
L 81.354428 145.852193 
L 80.965472 146.011432 
L 79.903405 146.265672 
L 78.841338 146.319909 
L 77.779271 146.161357 
L 76.717204 145.775099 
L 75.247695 144.790126 
L 74.150745 143.728059 
L 73.284879 142.665993 
L 71.951497 140.541859 
L 70.893016 138.417725 
L 70.004112 136.293591 
L 68.888322 133.10739 
L 67.662333 128.859123 
L 66.639001 124.610855 
L 65.565048 119.30052 
L 64.505243 112.928119 
L 63.642886 106.555717 
L 62.747127 98.059182 
L 62.105947 89.562647 
L 61.677504 81.066112 
L 61.434067 71.507509 
L 61.425281 64.073041 
L 61.616454 58.762706 
L 61.767671 55.576506 
L 61.767671 55.576506 
" style="fill:none;stroke:#000080;stroke-width:1.5;"/>
   </g>
   <g id="LineCollection_2">
    <path clip-path="url(#pc629fd2fe2)" d="M 290.75267 293.479494 
L 291.142705 287.107093 
L 290.985981 282.858825 
L 289.027069 247.810617 
L 288.373637 230.817546 
L 287.227454 192.583138 
L 286.586616 173.465933 
L 285.852715 157.534929 
L 284.729343 136.293591 
L 284.559611 128.859123 
L 284.614339 120.362587 
L 284.881197 101.245383 
L 284.699888 95.935048 
L 284.367002 91.686781 
L 283.792127 87.438513 
L 283.069432 84.252312 
L 282.406149 82.128178 
L 281.533785 80.004045 
L 280.331895 77.879911 
L 279.571985 76.813689 
L 278.509918 75.639788 
L 277.431521 74.69371 
L 275.763297 73.631643 
L 274.261651 72.966666 
L 272.137517 72.411393 
L 270.013383 72.239822 
L 267.889249 72.386895 
L 265.765115 72.854519 
L 263.640981 73.63747 
L 261.516848 74.820798 
L 260.242179 75.755777 
L 259.068401 76.817844 
L 258.099157 77.879911 
L 257.26858 78.971547 
L 256.059766 81.066112 
L 255.226614 83.190245 
L 254.724015 85.314379 
L 254.493292 87.438513 
L 254.504022 89.562647 
L 254.72531 91.686781 
L 255.144446 93.907895 
L 255.987376 96.997115 
L 257.408549 101.245383 
L 258.817735 105.493651 
L 259.677652 108.679851 
L 260.275183 111.866052 
L 260.567995 115.052253 
L 260.538047 118.238454 
L 260.334233 120.362587 
L 259.978684 122.486721 
L 259.392714 124.883816 
L 258.792705 126.734989 
L 257.931918 128.859123 
L 256.855348 130.983257 
L 255.509764 133.10739 
L 254.082379 134.917205 
L 252.730143 136.293591 
L 250.896178 137.775618 
L 248.772045 139.008767 
L 246.647911 139.811779 
L 244.523777 140.237223 
L 242.399643 140.320849 
L 240.275509 140.08545 
L 237.954194 139.479792 
L 236.027242 138.720909 
L 233.903108 137.614523 
L 231.778974 136.242664 
L 229.108364 134.169457 
L 226.468639 131.798253 
L 223.282439 128.619823 
L 211.133877 116.11432 
L 207.574083 112.928119 
L 204.960525 110.803985 
L 202.0411 108.646644 
L 198.8549 106.555456 
L 195.11549 104.431584 
L 192.482498 103.125106 
L 189.296297 101.738431 
L 186.110097 100.5366 
L 181.861829 99.182662 
L 177.546697 98.059182 
L 172.303227 96.974842 
L 166.992892 96.139227 
L 161.682558 95.520533 
L 155.310156 95.013082 
L 147.875688 94.679907 
L 138.317086 94.51165 
L 96.896476 94.261577 
L 91.586141 94.506664 
L 86.275807 94.994556 
L 80.965472 95.547321 
L 78.841338 95.560882 
L 77.779271 95.439238 
L 76.717204 95.183334 
L 75.655138 94.743016 
L 74.335993 93.810914 
L 73.320273 92.748848 
L 72.468937 91.569371 
L 71.40687 89.503712 
L 70.297858 86.376446 
L 69.282736 82.05806 
L 68.703114 77.879911 
L 68.355094 73.631643 
L 68.285626 70.445442 
L 68.419508 67.259242 
L 68.804242 64.073041 
L 69.282736 61.638364 
L 70.344803 57.639895 
L 70.536692 56.638572 
L 70.587184 55.576506 
L 70.587184 55.576506 
" style="fill:none;stroke:#0000e8;stroke-width:1.5;"/>
   </g>
   <g id="LineCollection_3">
    <path clip-path="url(#pc629fd2fe2)" d="M 292.632776 293.479494 
L 292.783114 286.045026 
L 292.490598 278.610558 
L 291.334591 252.058885 
L 290.468843 223.383078 
L 288.698526 156.472862 
L 287.905098 133.10739 
L 287.797609 122.486721 
L 287.751986 98.059182 
L 287.486229 92.748848 
L 287.006454 87.775387 
L 286.42336 84.252312 
L 285.662567 81.066112 
L 284.88232 78.687853 
L 283.820253 76.294217 
L 282.758186 74.473507 
L 281.276929 72.569576 
L 280.213499 71.507509 
L 278.509918 70.193777 
L 276.385784 69.06795 
L 274.149521 68.321309 
L 272.137517 67.958303 
L 270.013383 67.826456 
L 267.889249 67.923058 
L 265.328297 68.321309 
L 263.640981 68.756778 
L 261.516848 69.495754 
L 259.392714 70.483774 
L 257.26858 71.76802 
L 255.144446 73.404654 
L 253.780918 74.69371 
L 251.958245 76.83576 
L 250.566381 78.941978 
L 249.480897 81.066112 
L 248.664447 83.190245 
L 248.079193 85.314379 
L 247.70727 87.438513 
L 247.519073 89.562647 
L 247.503985 91.686781 
L 247.762022 94.872981 
L 248.278203 98.059182 
L 249.469394 103.369517 
L 250.396731 107.617784 
L 250.896178 110.858662 
L 251.042332 112.928119 
L 251.020784 115.052253 
L 250.779051 117.176387 
L 250.250857 119.30052 
L 249.834112 120.45151 
L 248.71251 122.486721 
L 247.709978 123.694487 
L 246.638758 124.610855 
L 245.585844 125.225773 
L 244.400656 125.672922 
L 243.46171 125.870157 
L 242.399643 125.939366 
L 241.337576 125.868296 
L 240.275509 125.67015 
L 238.151375 124.9128 
L 236.027242 123.752016 
L 233.903108 122.244219 
L 231.674738 120.362587 
L 228.375829 117.176387 
L 224.33089 112.928119 
L 216.295502 104.431584 
L 212.66177 100.857587 
L 208.413502 97.044843 
L 204.165234 93.665259 
L 200.979033 91.415958 
L 196.730766 88.761154 
L 191.420431 85.885364 
L 185.671491 83.190245 
L 181.861829 81.536595 
L 164.868758 74.55141 
L 160.620491 72.530617 
L 157.00857 70.445442 
L 155.310156 69.187841 
L 154.248089 68.241153 
L 153.186022 66.952907 
L 152.709894 66.197175 
L 152.313644 65.135108 
L 152.175208 64.073041 
L 152.274343 63.010974 
L 152.585 61.948907 
L 153.186022 60.694531 
L 155.558605 56.638572 
L 155.81165 55.576506 
L 155.81165 55.576506 
" style="fill:none;stroke:#0038ff;stroke-width:1.5;"/>
   </g>
   <g id="LineCollection_4">
    <path clip-path="url(#pc629fd2fe2)" d="M 294.134984 293.479494 
L 294.097011 282.858825 
L 292.387557 224.445145 
L 290.606343 143.728059 
L 290.329462 128.859123 
L 290.277716 111.866052 
L 290.174052 100.183316 
L 289.877346 92.748848 
L 289.436297 87.438513 
L 288.838475 83.190245 
L 288.06852 79.584119 
L 287.228074 76.817844 
L 286.381083 74.69371 
L 285.294304 72.569576 
L 284.631058 71.507509 
L 283.820253 70.388415 
L 282.758186 69.179061 
L 281.696119 68.183855 
L 280.479443 67.259242 
L 278.509918 66.12724 
L 276.385784 65.302431 
L 274.261651 64.780564 
L 272.137517 64.491616 
L 270.013383 64.392453 
L 267.889249 64.458165 
L 264.703048 64.835725 
L 261.516848 65.545334 
L 259.392714 66.212905 
L 256.797016 67.259242 
L 254.683639 68.321309 
L 252.906019 69.383375 
L 250.896178 70.793134 
L 248.758559 72.569576 
L 246.613774 74.69371 
L 244.523777 77.171996 
L 243.209199 78.941978 
L 241.188256 82.128178 
L 238.837779 86.376446 
L 237.642162 88.50058 
L 236.983301 89.562647 
L 236.027242 90.758491 
L 234.643892 91.686781 
L 233.903108 91.935902 
L 232.841041 91.908757 
L 231.778974 91.568852 
L 230.277973 90.624714 
L 229.068137 89.562647 
L 228.086227 88.50058 
L 227.236516 87.438513 
L 225.805863 85.314379 
L 224.344506 82.661333 
L 223.124953 80.004045 
L 221.485112 75.755777 
L 219.034171 69.098916 
L 216.910037 64.309317 
L 216.337667 63.010974 
L 215.62033 60.88684 
L 215.269967 58.762706 
L 215.091642 56.638572 
L 214.862666 55.576506 
L 214.862666 55.576506 
" style="fill:none;stroke:#0094ff;stroke-width:1.5;"/>
   </g>
   <g id="LineCollection_5">
    <path clip-path="url(#pc629fd2fe2)" d="M 295.474848 293.479494 
L 295.36182 280.734691 
L 293.829564 210.638275 
L 292.35368 111.866052 
L 292.184205 99.121249 
L 291.886096 91.686781 
L 291.478687 86.376446 
L 290.943576 82.128178 
L 290.192654 78.16911 
L 289.555181 75.755777 
L 288.851041 73.631643 
L 287.966737 71.507509 
L 286.829319 69.383375 
L 285.315898 67.259242 
L 284.344125 66.197175 
L 282.758186 64.831684 
L 280.634052 63.53248 
L 278.509918 62.637171 
L 276.059463 61.948907 
L 274.261651 61.59058 
L 271.07545 61.21344 
L 267.889249 61.067022 
L 263.640981 61.118727 
L 254.082379 61.529915 
L 253.020312 61.373523 
L 251.77473 60.88684 
L 251.229971 59.824773 
L 251.346644 58.762706 
L 251.958245 57.352828 
L 253.060364 55.576506 
L 253.060364 55.576506 
" style="fill:none;stroke:#0cf4eb;stroke-width:1.5;"/>
   </g>
   <g id="LineCollection_6">
    <path clip-path="url(#pc629fd2fe2)" d="M 299.637158 293.479494 
L 299.500073 286.045026 
L 299.133029 279.672625 
L 298.391578 271.176089 
L 296.511334 250.996818 
L 295.682901 221.258944 
L 295.374886 204.265874 
L 293.824292 92.748848 
L 293.446675 86.376446 
L 293.031548 82.128178 
L 292.419584 77.879911 
L 291.764796 74.69371 
L 290.878093 71.507509 
L 290.107112 69.383375 
L 289.121697 67.259242 
L 287.796105 65.135108 
L 286.940103 64.073041 
L 285.885475 63.010974 
L 283.820253 61.442333 
L 281.696119 60.261449 
L 275.323717 57.321498 
L 274.468542 56.638572 
L 274.157694 55.576506 
L 274.157694 55.576506 
" style="fill:none;stroke:#56ffa0;stroke-width:1.5;"/>
   </g>
   <g id="LineCollection_7">
    <path clip-path="url(#pc629fd2fe2)" d="M 306.212246 293.479494 
L 306.100123 286.045026 
L 305.738289 277.548491 
L 305.0411 266.927822 
L 301.794376 221.258944 
L 300.46468 197.893472 
L 296.565056 122.27931 
L 296.118158 102.30745 
L 295.6808 92.748848 
L 294.706702 78.941978 
L 294.156396 74.69371 
L 293.367121 70.445442 
L 292.524659 67.259242 
L 291.76482 65.135108 
L 290.744781 63.010974 
L 289.354092 60.88684 
L 288.06852 59.24675 
L 286.819889 57.700639 
L 285.944387 56.110384 
L 285.699506 55.576506 
L 285.699506 55.576506 
" style="fill:none;stroke:#a0ff56;stroke-width:1.5;"/>
   </g>
   <g id="LineCollection_8">
    <path clip-path="url(#pc629fd2fe2)" d="M 312.917666 293.479494 
L 312.790215 283.920892 
L 312.409243 273.300223 
L 311.566433 257.369219 
L 309.536851 220.196877 
L 308.301864 192.583138 
L 305.004198 115.052253 
L 304.291822 105.493651 
L 303.516901 98.059182 
L 302.611421 91.686781 
L 301.614765 86.376446 
L 300.60464 82.128178 
L 299.346485 77.879911 
L 298.191268 74.69371 
L 296.793493 71.507509 
L 296.565056 71.042845 
L 295.806728 67.259242 
L 295.365068 65.135108 
L 294.440922 60.462796 
L 293.871181 57.700639 
L 293.611792 55.576506 
L 293.611792 55.576506 
" style="fill:none;stroke:#ebff0c;stroke-width:1.5;"/>
   </g>
   <g id="LineCollection_9">
    <path clip-path="url(#pc629fd2fe2)" d="M 319.714733 293.479494 
L 319.58794 281.796758 
L 319.187406 267.989888 
L 318.190055 243.562349 
L 316.912693 210.638275 
L 315.805706 175.590067 
L 314.267021 126.734989 
L 313.599124 112.928119 
L 312.941547 103.369517 
L 312.143107 94.872981 
L 311.223927 87.438513 
L 310.066374 80.004045 
L 308.491693 71.507509 
L 307.132387 64.073041 
L 306.583223 59.824773 
L 306.402594 56.638572 
L 306.395703 55.576506 
L 306.395703 55.576506 
" style="fill:none;stroke:#ffab00;stroke-width:1.5;"/>
   </g>
   <g id="LineCollection_10">
    <path clip-path="url(#pc629fd2fe2)" d="M 326.569251 293.479494 
L 326.455907 279.672625 
L 326.064389 261.617487 
L 323.908869 176.652134 
L 322.782757 126.734989 
L 322.187389 110.803985 
L 321.541962 99.121249 
L 320.745813 88.50058 
L 318.473424 60.88684 
L 318.37624 55.576506 
L 318.37624 55.576506 
" style="fill:none;stroke:#ff5500;stroke-width:1.5;"/>
   </g>
   <g id="LineCollection_11">
    <path clip-path="url(#pc629fd2fe2)" d="M 333.454768 293.479494 
L 333.332727 274.36229 
L 332.895254 244.624416 
L 332.063939 189.396937 
L 331.0537 118.238454 
L 330.524849 100.183316 
L 329.789445 83.190245 
L 329.034856 65.135108 
L 328.902219 56.638572 
L 328.90131 55.576506 
L 328.90131 55.576506 
" style="fill:none;stroke:#e80000;stroke-width:1.5;"/>
   </g>
   <g id="LineCollection_12">
    <path clip-path="url(#pc629fd2fe2)" d="M 340.350669 293.479494 
L 340.270285 261.617487 
L 339.988131 207.452074 
L 339.198372 85.314379 
L 338.904254 58.762706 
L 338.90039 55.576506 
L 338.90039 55.576506 
" style="fill:none;stroke:#800000;stroke-width:1.5;"/>
   </g>
   <g id="patch_3">
    <path d="M 57.6 293.479494 
L 57.6 55.576506 
" style="fill:none;stroke:#000000;stroke-linecap:square;stroke-linejoin:miter;stroke-width:0.8;"/>
   </g>
   <g id="patch_4">
    <path d="M 343.296 293.479494 
L 343.296 55.576506 
" style="fill:none;stroke:#000000;stroke-linecap:square;stroke-linejoin:miter;stroke-width:0.8;"/>
   </g>
   <g id="patch_5">
    <path d="M 57.6 293.479494 
L 343.296 293.479494 
" style="fill:none;stroke:#000000;stroke-linecap:square;stroke-linejoin:miter;stroke-width:0.8;"/>
   </g>
   <g id="patch_6">
    <path d="M 57.6 55.576506 
L 343.296 55.576506 
" style="fill:none;stroke:#000000;stroke-linecap:square;stroke-linejoin:miter;stroke-width:0.8;"/>
   </g>
   <g id="text_10">
    <!-- Time:0.00988 s -->
    <defs>
     <path d="M -0.296875 72.90625 
L 61.375 72.90625 
L 61.375 64.59375 
L 35.5 64.59375 
L 35.5 0 
L 25.59375 0 
L 25.59375 64.59375 
L -0.296875 64.59375 
z
" id="DejaVuSans-54"/>
     <path d="M 9.421875 54.6875 
L 18.40625 54.6875 
L 18.40625 0 
L 9.421875 0 
z
M 9.421875 75.984375 
L 18.40625 75.984375 
L 18.40625 64.59375 
L 9.421875 64.59375 
z
" id="DejaVuSans-69"/>
     <path d="M 52 44.1875 
Q 55.375 50.25 60.0625 53.125 
Q 64.75 56 71.09375 56 
Q 79.640625 56 84.28125 50.015625 
Q 88.921875 44.046875 88.921875 33.015625 
L 88.921875 0 
L 79.890625 0 
L 79.890625 32.71875 
Q 79.890625 40.578125 77.09375 44.375 
Q 74.3125 48.1875 68.609375 48.1875 
Q 61.625 48.1875 57.5625 43.546875 
Q 53.515625 38.921875 53.515625 30.90625 
L 53.515625 0 
L 44.484375 0 
L 44.484375 32.71875 
Q 44.484375 40.625 41.703125 44.40625 
Q 38.921875 48.1875 33.109375 48.1875 
Q 26.21875 48.1875 22.15625 43.53125 
Q 18.109375 38.875 18.109375 30.90625 
L 18.109375 0 
L 9.078125 0 
L 9.078125 54.6875 
L 18.109375 54.6875 
L 18.109375 46.1875 
Q 21.1875 51.21875 25.484375 53.609375 
Q 29.78125 56 35.6875 56 
Q 41.65625 56 45.828125 52.96875 
Q 50 49.953125 52 44.1875 
z
" id="DejaVuSans-6d"/>
     <path d="M 56.203125 29.59375 
L 56.203125 25.203125 
L 14.890625 25.203125 
Q 15.484375 15.921875 20.484375 11.0625 
Q 25.484375 6.203125 34.421875 6.203125 
Q 39.59375 6.203125 44.453125 7.46875 
Q 49.3125 8.734375 54.109375 11.28125 
L 54.109375 2.78125 
Q 49.265625 0.734375 44.1875 -0.34375 
Q 39.109375 -1.421875 33.890625 -1.421875 
Q 20.796875 -1.421875 13.15625 6.1875 
Q 5.515625 13.8125 5.515625 26.8125 
Q 5.515625 40.234375 12.765625 48.109375 
Q 20.015625 56 32.328125 56 
Q 43.359375 56 49.78125 48.890625 
Q 56.203125 41.796875 56.203125 29.59375 
z
M 47.21875 32.234375 
Q 47.125 39.59375 43.09375 43.984375 
Q 39.0625 48.390625 32.421875 48.390625 
Q 24.90625 48.390625 20.390625 44.140625 
Q 15.875 39.890625 15.1875 32.171875 
z
" id="DejaVuSans-65"/>
     <path d="M 11.71875 12.40625 
L 22.015625 12.40625 
L 22.015625 0 
L 11.71875 0 
z
M 11.71875 51.703125 
L 22.015625 51.703125 
L 22.015625 39.3125 
L 11.71875 39.3125 
z
" id="DejaVuSans-3a"/>
     <path d="M 10.984375 1.515625 
L 10.984375 10.5 
Q 14.703125 8.734375 18.5 7.8125 
Q 22.3125 6.890625 25.984375 6.890625 
Q 35.75 6.890625 40.890625 13.453125 
Q 46.046875 20.015625 46.78125 33.40625 
Q 43.953125 29.203125 39.59375 26.953125 
Q 35.25 24.703125 29.984375 24.703125 
Q 19.046875 24.703125 12.671875 31.3125 
Q 6.296875 37.9375 6.296875 49.421875 
Q 6.296875 60.640625 12.9375 67.421875 
Q 19.578125 74.21875 30.609375 74.21875 
Q 43.265625 74.21875 49.921875 64.515625 
Q 56.59375 54.828125 56.59375 36.375 
Q 56.59375 19.140625 48.40625 8.859375 
Q 40.234375 -1.421875 26.421875 -1.421875 
Q 22.703125 -1.421875 18.890625 -0.6875 
Q 15.09375 0.046875 10.984375 1.515625 
z
M 30.609375 32.421875 
Q 37.25 32.421875 41.125 36.953125 
Q 45.015625 41.5 45.015625 49.421875 
Q 45.015625 57.28125 41.125 61.84375 
Q 37.25 66.40625 30.609375 66.40625 
Q 23.96875 66.40625 20.09375 61.84375 
Q 16.21875 57.28125 16.21875 49.421875 
Q 16.21875 41.5 20.09375 36.953125 
Q 23.96875 32.421875 30.609375 32.421875 
z
" id="DejaVuSans-39"/>
     <path id="DejaVuSans-20"/>
     <path d="M 44.28125 53.078125 
L 44.28125 44.578125 
Q 40.484375 46.53125 36.375 47.5 
Q 32.28125 48.484375 27.875 48.484375 
Q 21.1875 48.484375 17.84375 46.4375 
Q 14.5 44.390625 14.5 40.28125 
Q 14.5 37.15625 16.890625 35.375 
Q 19.28125 33.59375 26.515625 31.984375 
L 29.59375 31.296875 
Q 39.15625 29.25 43.1875 25.515625 
Q 47.21875 21.78125 47.21875 15.09375 
Q 47.21875 7.46875 41.1875 3.015625 
Q 35.15625 -1.421875 24.609375 -1.421875 
Q 20.21875 -1.421875 15.453125 -0.5625 
Q 10.6875 0.296875 5.421875 2 
L 5.421875 11.28125 
Q 10.40625 8.6875 15.234375 7.390625 
Q 20.0625 6.109375 24.8125 6.109375 
Q 31.15625 6.109375 34.5625 8.28125 
Q 37.984375 10.453125 37.984375 14.40625 
Q 37.984375 18.0625 35.515625 20.015625 
Q 33.0625 21.96875 24.703125 23.78125 
L 21.578125 24.515625 
Q 13.234375 26.265625 9.515625 29.90625 
Q 5.8125 33.546875 5.8125 39.890625 
Q 5.8125 47.609375 11.28125 51.796875 
Q 16.75 56 26.8125 56 
Q 31.78125 56 36.171875 55.265625 
Q 40.578125 54.546875 44.28125 53.078125 
z
" id="DejaVuSans-73"/>
    </defs>
    <g transform="translate(153.717375 49.576506)scale(0.12 -0.12)">
     <use xlink:href="#DejaVuSans-54"/>
     <use x="61.037109" xlink:href="#DejaVuSans-69"/>
     <use x="88.820312" xlink:href="#DejaVuSans-6d"/>
     <use x="186.232422" xlink:href="#DejaVuSans-65"/>
     <use x="247.755859" xlink:href="#DejaVuSans-3a"/>
     <use x="281.447266" xlink:href="#DejaVuSans-30"/>
     <use x="345.070312" xlink:href="#DejaVuSans-2e"/>
     <use x="376.857422" xlink:href="#DejaVuSans-30"/>
     <use x="440.480469" xlink:href="#DejaVuSans-30"/>
     <use x="504.103516" xlink:href="#DejaVuSans-39"/>
     <use x="567.726562" xlink:href="#DejaVuSans-38"/>
     <use x="631.349609" xlink:href="#DejaVuSans-38"/>
     <use x="694.972656" xlink:href="#DejaVuSans-20"/>
     <use x="726.759766" xlink:href="#DejaVuSans-73"/>
    </g>
   </g>
  </g>
  <g id="axes_2">
   <g id="patch_7">
    <path clip-path="url(#pb84ea3bf41)" d="M 361.152 307.584 
L 361.152 283.392 
L 361.152 65.664 
L 361.152 41.472 
L 374.4576 41.472 
L 374.4576 65.664 
L 374.4576 283.392 
L 374.4576 307.584 
z
" style="fill:#ffffff;stroke:#ffffff;stroke-linejoin:miter;stroke-width:0.01;"/>
   </g>
   <g id="matplotlib.axis_3"/>
   <g id="matplotlib.axis_4">
    <g id="ytick_5">
     <g id="line2d_10">
      <defs>
       <path d="M 0 0 
L 3.5 0 
" id="ma000a45070" style="stroke:#000000;stroke-width:0.8;"/>
      </defs>
      <g>
       <use style="stroke:#000000;stroke-width:0.8;" x="374.4576" xlink:href="#ma000a45070" y="307.584"/>
      </g>
     </g>
     <g id="text_11">
      <!-- 0.08 -->
      <g transform="translate(381.4576 311.383219)scale(0.1 -0.1)">
       <use xlink:href="#DejaVuSans-30"/>
       <use x="63.623047" xlink:href="#DejaVuSans-2e"/>
       <use x="95.410156" xlink:href="#DejaVuSans-30"/>
       <use x="159.033203" xlink:href="#DejaVuSans-38"/>
      </g>
     </g>
    </g>
    <g id="ytick_6">
     <g id="line2d_11">
      <g>
       <use style="stroke:#000000;stroke-width:0.8;" x="374.4576" xlink:href="#ma000a45070" y="259.2"/>
      </g>
     </g>
     <g id="text_12">
      <!-- 0.24 -->
      <g transform="translate(381.4576 262.999219)scale(0.1 -0.1)">
       <use xlink:href="#DejaVuSans-30"/>
       <use x="63.623047" xlink:href="#DejaVuSans-2e"/>
       <use x="95.410156" xlink:href="#DejaVuSans-32"/>
       <use x="159.033203" xlink:href="#DejaVuSans-34"/>
      </g>
     </g>
    </g>
    <g id="ytick_7">
     <g id="line2d_12">
      <g>
       <use style="stroke:#000000;stroke-width:0.8;" x="374.4576" xlink:href="#ma000a45070" y="210.816"/>
      </g>
     </g>
     <g id="text_13">
      <!-- 0.40 -->
      <g transform="translate(381.4576 214.615219)scale(0.1 -0.1)">
       <use xlink:href="#DejaVuSans-30"/>
       <use x="63.623047" xlink:href="#DejaVuSans-2e"/>
       <use x="95.410156" xlink:href="#DejaVuSans-34"/>
       <use x="159.033203" xlink:href="#DejaVuSans-30"/>
      </g>
     </g>
    </g>
    <g id="ytick_8">
     <g id="line2d_13">
      <g>
       <use style="stroke:#000000;stroke-width:0.8;" x="374.4576" xlink:href="#ma000a45070" y="162.432"/>
      </g>
     </g>
     <g id="text_14">
      <!-- 0.56 -->
      <defs>
       <path d="M 10.796875 72.90625 
L 49.515625 72.90625 
L 49.515625 64.59375 
L 19.828125 64.59375 
L 19.828125 46.734375 
Q 21.96875 47.46875 24.109375 47.828125 
Q 26.265625 48.1875 28.421875 48.1875 
Q 40.625 48.1875 47.75 41.5 
Q 54.890625 34.8125 54.890625 23.390625 
Q 54.890625 11.625 47.5625 5.09375 
Q 40.234375 -1.421875 26.90625 -1.421875 
Q 22.3125 -1.421875 17.546875 -0.640625 
Q 12.796875 0.140625 7.71875 1.703125 
L 7.71875 11.625 
Q 12.109375 9.234375 16.796875 8.0625 
Q 21.484375 6.890625 26.703125 6.890625 
Q 35.15625 6.890625 40.078125 11.328125 
Q 45.015625 15.765625 45.015625 23.390625 
Q 45.015625 31 40.078125 35.4375 
Q 35.15625 39.890625 26.703125 39.890625 
Q 22.75 39.890625 18.8125 39.015625 
Q 14.890625 38.140625 10.796875 36.28125 
z
" id="DejaVuSans-35"/>
      </defs>
      <g transform="translate(381.4576 166.231219)scale(0.1 -0.1)">
       <use xlink:href="#DejaVuSans-30"/>
       <use x="63.623047" xlink:href="#DejaVuSans-2e"/>
       <use x="95.410156" xlink:href="#DejaVuSans-35"/>
       <use x="159.033203" xlink:href="#DejaVuSans-36"/>
      </g>
     </g>
    </g>
    <g id="ytick_9">
     <g id="line2d_14">
      <g>
       <use style="stroke:#000000;stroke-width:0.8;" x="374.4576" xlink:href="#ma000a45070" y="114.048"/>
      </g>
     </g>
     <g id="text_15">
      <!-- 0.72 -->
      <defs>
       <path d="M 8.203125 72.90625 
L 55.078125 72.90625 
L 55.078125 68.703125 
L 28.609375 0 
L 18.3125 0 
L 43.21875 64.59375 
L 8.203125 64.59375 
z
" id="DejaVuSans-37"/>
      </defs>
      <g transform="translate(381.4576 117.847219)scale(0.1 -0.1)">
       <use xlink:href="#DejaVuSans-30"/>
       <use x="63.623047" xlink:href="#DejaVuSans-2e"/>
       <use x="95.410156" xlink:href="#DejaVuSans-37"/>
       <use x="159.033203" xlink:href="#DejaVuSans-32"/>
      </g>
     </g>
    </g>
    <g id="ytick_10">
     <g id="line2d_15">
      <g>
       <use style="stroke:#000000;stroke-width:0.8;" x="374.4576" xlink:href="#ma000a45070" y="65.664"/>
      </g>
     </g>
     <g id="text_16">
      <!-- 0.88 -->
      <g transform="translate(381.4576 69.463219)scale(0.1 -0.1)">
       <use xlink:href="#DejaVuSans-30"/>
       <use x="63.623047" xlink:href="#DejaVuSans-2e"/>
       <use x="95.410156" xlink:href="#DejaVuSans-38"/>
       <use x="159.033203" xlink:href="#DejaVuSans-38"/>
      </g>
     </g>
    </g>
   </g>
   <g id="LineCollection_13">
    <path clip-path="url(#pb84ea3bf41)" d="M 361.152 307.584 
L 374.4576 307.584 
" style="fill:none;stroke:#000080;stroke-width:1.5;"/>
    <path clip-path="url(#pb84ea3bf41)" d="M 361.152 283.392 
L 374.4576 283.392 
" style="fill:none;stroke:#0000e8;stroke-width:1.5;"/>
    <path clip-path="url(#pb84ea3bf41)" d="M 361.152 259.2 
L 374.4576 259.2 
" style="fill:none;stroke:#0038ff;stroke-width:1.5;"/>
    <path clip-path="url(#pb84ea3bf41)" d="M 361.152 235.008 
L 374.4576 235.008 
" style="fill:none;stroke:#0094ff;stroke-width:1.5;"/>
    <path clip-path="url(#pb84ea3bf41)" d="M 361.152 210.816 
L 374.4576 210.816 
" style="fill:none;stroke:#0cf4eb;stroke-width:1.5;"/>
    <path clip-path="url(#pb84ea3bf41)" d="M 361.152 186.624 
L 374.4576 186.624 
" style="fill:none;stroke:#56ffa0;stroke-width:1.5;"/>
    <path clip-path="url(#pb84ea3bf41)" d="M 361.152 162.432 
L 374.4576 162.432 
" style="fill:none;stroke:#a0ff56;stroke-width:1.5;"/>
    <path clip-path="url(#pb84ea3bf41)" d="M 361.152 138.24 
L 374.4576 138.24 
" style="fill:none;stroke:#ebff0c;stroke-width:1.5;"/>
    <path clip-path="url(#pb84ea3bf41)" d="M 361.152 114.048 
L 374.4576 114.048 
" style="fill:none;stroke:#ffab00;stroke-width:1.5;"/>
    <path clip-path="url(#pb84ea3bf41)" d="M 361.152 89.856 
L 374.4576 89.856 
" style="fill:none;stroke:#ff5500;stroke-width:1.5;"/>
    <path clip-path="url(#pb84ea3bf41)" d="M 361.152 65.664 
L 374.4576 65.664 
" style="fill:none;stroke:#e80000;stroke-width:1.5;"/>
    <path clip-path="url(#pb84ea3bf41)" d="M 361.152 41.472 
L 374.4576 41.472 
" style="fill:none;stroke:#800000;stroke-width:1.5;"/>
   </g>
   <g id="patch_8">
    <path d="M 361.152 307.584 
L 361.152 283.392 
L 361.152 65.664 
L 361.152 41.472 
L 374.4576 41.472 
L 374.4576 65.664 
L 374.4576 283.392 
L 374.4576 307.584 
z
" style="fill:none;stroke:#000000;stroke-linejoin:miter;stroke-width:0.8;"/>
   </g>
  </g>
 </g>
 <defs>
  <clipPath id="pc629fd2fe2">
   <rect height="237.902989" width="285.696" x="57.6" y="55.576506"/>
  </clipPath>
  <clipPath id="pb84ea3bf41">
   <rect height="266.112" width="13.3056" x="361.152" y="41.472"/>
  </clipPath>
 </defs>
</svg>
