<?xml version="1.0" encoding="utf-8" standalone="no"?>
<!DOCTYPE svg PUBLIC "-//W3C//DTD SVG 1.1//EN"
  "http://www.w3.org/Graphics/SVG/1.1/DTD/svg11.dtd">
<!-- Created with matplotlib (http://matplotlib.org/) -->
<svg height="345.6pt" version="1.1" viewBox="0 0 460.8 345.6" width="460.8pt" xmlns="http://www.w3.org/2000/svg" xmlns:xlink="http://www.w3.org/1999/xlink">
 <defs>
  <style type="text/css">
*{stroke-linecap:butt;stroke-linejoin:round;}
  </style>
 </defs>
 <g id="figure_1">
  <g id="patch_1">
   <path d="M 0 345.6 
L 460.8 345.6 
L 460.8 0 
L 0 0 
z
" style="fill:#ffffff;"/>
  </g>
  <g id="axes_1">
   <g id="patch_2">
    <path d="M 57.6 293.479494 
L 343.296 293.479494 
L 343.296 55.576506 
L 57.6 55.576506 
z
" style="fill:#ffffff;"/>
   </g>
   <g id="matplotlib.axis_1">
    <g id="xtick_1">
     <g id="line2d_1">
      <defs>
       <path d="M 0 0 
L 0 3.5 
" id="m76051b7d39" style="stroke:#000000;stroke-width:0.8;"/>
      </defs>
      <g>
       <use style="stroke:#000000;stroke-width:0.8;" x="104.861978" xlink:href="#m76051b7d39" y="293.479494"/>
      </g>
     </g>
     <g id="text_1">
      <!-- 0.2 -->
      <defs>
       <path d="M 31.78125 66.40625 
Q 24.171875 66.40625 20.328125 58.90625 
Q 16.5 51.421875 16.5 36.375 
Q 16.5 21.390625 20.328125 13.890625 
Q 24.171875 6.390625 31.78125 6.390625 
Q 39.453125 6.390625 43.28125 13.890625 
Q 47.125 21.390625 47.125 36.375 
Q 47.125 51.421875 43.28125 58.90625 
Q 39.453125 66.40625 31.78125 66.40625 
z
M 31.78125 74.21875 
Q 44.046875 74.21875 50.515625 64.515625 
Q 56.984375 54.828125 56.984375 36.375 
Q 56.984375 17.96875 50.515625 8.265625 
Q 44.046875 -1.421875 31.78125 -1.421875 
Q 19.53125 -1.421875 13.0625 8.265625 
Q 6.59375 17.96875 6.59375 36.375 
Q 6.59375 54.828125 13.0625 64.515625 
Q 19.53125 74.21875 31.78125 74.21875 
z
" id="DejaVuSans-30"/>
       <path d="M 10.6875 12.40625 
L 21 12.40625 
L 21 0 
L 10.6875 0 
z
" id="DejaVuSans-2e"/>
       <path d="M 19.1875 8.296875 
L 53.609375 8.296875 
L 53.609375 0 
L 7.328125 0 
L 7.328125 8.296875 
Q 12.9375 14.109375 22.625 23.890625 
Q 32.328125 33.6875 34.8125 36.53125 
Q 39.546875 41.84375 41.421875 45.53125 
Q 43.3125 49.21875 43.3125 52.78125 
Q 43.3125 58.59375 39.234375 62.25 
Q 35.15625 65.921875 28.609375 65.921875 
Q 23.96875 65.921875 18.8125 64.3125 
Q 13.671875 62.703125 7.8125 59.421875 
L 7.8125 69.390625 
Q 13.765625 71.78125 18.9375 73 
Q 24.125 74.21875 28.421875 74.21875 
Q 39.75 74.21875 46.484375 68.546875 
Q 53.21875 62.890625 53.21875 53.421875 
Q 53.21875 48.921875 51.53125 44.890625 
Q 49.859375 40.875 45.40625 35.40625 
Q 44.1875 33.984375 37.640625 27.21875 
Q 31.109375 20.453125 19.1875 8.296875 
z
" id="DejaVuSans-32"/>
      </defs>
      <g transform="translate(96.910415 308.077932)scale(0.1 -0.1)">
       <use xlink:href="#DejaVuSans-30"/>
       <use x="63.623047" xlink:href="#DejaVuSans-2e"/>
       <use x="95.410156" xlink:href="#DejaVuSans-32"/>
      </g>
     </g>
    </g>
    <g id="xtick_2">
     <g id="line2d_2">
      <g>
       <use style="stroke:#000000;stroke-width:0.8;" x="152.654989" xlink:href="#m76051b7d39" y="293.479494"/>
      </g>
     </g>
     <g id="text_2">
      <!-- 0.4 -->
      <defs>
       <path d="M 37.796875 64.3125 
L 12.890625 25.390625 
L 37.796875 25.390625 
z
M 35.203125 72.90625 
L 47.609375 72.90625 
L 47.609375 25.390625 
L 58.015625 25.390625 
L 58.015625 17.1875 
L 47.609375 17.1875 
L 47.609375 0 
L 37.796875 0 
L 37.796875 17.1875 
L 4.890625 17.1875 
L 4.890625 26.703125 
z
" id="DejaVuSans-34"/>
      </defs>
      <g transform="translate(144.703426 308.077932)scale(0.1 -0.1)">
       <use xlink:href="#DejaVuSans-30"/>
       <use x="63.623047" xlink:href="#DejaVuSans-2e"/>
       <use x="95.410156" xlink:href="#DejaVuSans-34"/>
      </g>
     </g>
    </g>
    <g id="xtick_3">
     <g id="line2d_3">
      <g>
       <use style="stroke:#000000;stroke-width:0.8;" x="200.448" xlink:href="#m76051b7d39" y="293.479494"/>
      </g>
     </g>
     <g id="text_3">
      <!-- 0.6 -->
      <defs>
       <path d="M 33.015625 40.375 
Q 26.375 40.375 22.484375 35.828125 
Q 18.609375 31.296875 18.609375 23.390625 
Q 18.609375 15.53125 22.484375 10.953125 
Q 26.375 6.390625 33.015625 6.390625 
Q 39.65625 6.390625 43.53125 10.953125 
Q 47.40625 15.53125 47.40625 23.390625 
Q 47.40625 31.296875 43.53125 35.828125 
Q 39.65625 40.375 33.015625 40.375 
z
M 52.59375 71.296875 
L 52.59375 62.3125 
Q 48.875 64.0625 45.09375 64.984375 
Q 41.3125 65.921875 37.59375 65.921875 
Q 27.828125 65.921875 22.671875 59.328125 
Q 17.53125 52.734375 16.796875 39.40625 
Q 19.671875 43.65625 24.015625 45.921875 
Q 28.375 48.1875 33.59375 48.1875 
Q 44.578125 48.1875 50.953125 41.515625 
Q 57.328125 34.859375 57.328125 23.390625 
Q 57.328125 12.15625 50.6875 5.359375 
Q 44.046875 -1.421875 33.015625 -1.421875 
Q 20.359375 -1.421875 13.671875 8.265625 
Q 6.984375 17.96875 6.984375 36.375 
Q 6.984375 53.65625 15.1875 63.9375 
Q 23.390625 74.21875 37.203125 74.21875 
Q 40.921875 74.21875 44.703125 73.484375 
Q 48.484375 72.75 52.59375 71.296875 
z
" id="DejaVuSans-36"/>
      </defs>
      <g transform="translate(192.496438 308.077932)scale(0.1 -0.1)">
       <use xlink:href="#DejaVuSans-30"/>
       <use x="63.623047" xlink:href="#DejaVuSans-2e"/>
       <use x="95.410156" xlink:href="#DejaVuSans-36"/>
      </g>
     </g>
    </g>
    <g id="xtick_4">
     <g id="line2d_4">
      <g>
       <use style="stroke:#000000;stroke-width:0.8;" x="248.241011" xlink:href="#m76051b7d39" y="293.479494"/>
      </g>
     </g>
     <g id="text_4">
      <!-- 0.8 -->
      <defs>
       <path d="M 31.78125 34.625 
Q 24.75 34.625 20.71875 30.859375 
Q 16.703125 27.09375 16.703125 20.515625 
Q 16.703125 13.921875 20.71875 10.15625 
Q 24.75 6.390625 31.78125 6.390625 
Q 38.8125 6.390625 42.859375 10.171875 
Q 46.921875 13.96875 46.921875 20.515625 
Q 46.921875 27.09375 42.890625 30.859375 
Q 38.875 34.625 31.78125 34.625 
z
M 21.921875 38.8125 
Q 15.578125 40.375 12.03125 44.71875 
Q 8.5 49.078125 8.5 55.328125 
Q 8.5 64.0625 14.71875 69.140625 
Q 20.953125 74.21875 31.78125 74.21875 
Q 42.671875 74.21875 48.875 69.140625 
Q 55.078125 64.0625 55.078125 55.328125 
Q 55.078125 49.078125 51.53125 44.71875 
Q 48 40.375 41.703125 38.8125 
Q 48.828125 37.15625 52.796875 32.3125 
Q 56.78125 27.484375 56.78125 20.515625 
Q 56.78125 9.90625 50.3125 4.234375 
Q 43.84375 -1.421875 31.78125 -1.421875 
Q 19.734375 -1.421875 13.25 4.234375 
Q 6.78125 9.90625 6.78125 20.515625 
Q 6.78125 27.484375 10.78125 32.3125 
Q 14.796875 37.15625 21.921875 38.8125 
z
M 18.3125 54.390625 
Q 18.3125 48.734375 21.84375 45.5625 
Q 25.390625 42.390625 31.78125 42.390625 
Q 38.140625 42.390625 41.71875 45.5625 
Q 45.3125 48.734375 45.3125 54.390625 
Q 45.3125 60.0625 41.71875 63.234375 
Q 38.140625 66.40625 31.78125 66.40625 
Q 25.390625 66.40625 21.84375 63.234375 
Q 18.3125 60.0625 18.3125 54.390625 
z
" id="DejaVuSans-38"/>
      </defs>
      <g transform="translate(240.289449 308.077932)scale(0.1 -0.1)">
       <use xlink:href="#DejaVuSans-30"/>
       <use x="63.623047" xlink:href="#DejaVuSans-2e"/>
       <use x="95.410156" xlink:href="#DejaVuSans-38"/>
      </g>
     </g>
    </g>
    <g id="xtick_5">
     <g id="line2d_5">
      <g>
       <use style="stroke:#000000;stroke-width:0.8;" x="296.034022" xlink:href="#m76051b7d39" y="293.479494"/>
      </g>
     </g>
     <g id="text_5">
      <!-- 1.0 -->
      <defs>
       <path d="M 12.40625 8.296875 
L 28.515625 8.296875 
L 28.515625 63.921875 
L 10.984375 60.40625 
L 10.984375 69.390625 
L 28.421875 72.90625 
L 38.28125 72.90625 
L 38.28125 8.296875 
L 54.390625 8.296875 
L 54.390625 0 
L 12.40625 0 
z
" id="DejaVuSans-31"/>
      </defs>
      <g transform="translate(288.08246 308.077932)scale(0.1 -0.1)">
       <use xlink:href="#DejaVuSans-31"/>
       <use x="63.623047" xlink:href="#DejaVuSans-2e"/>
       <use x="95.410156" xlink:href="#DejaVuSans-30"/>
      </g>
     </g>
    </g>
   </g>
   <g id="matplotlib.axis_2">
    <g id="ytick_1">
     <g id="line2d_6">
      <defs>
       <path d="M 0 0 
L -3.5 0 
" id="md246bca53f" style="stroke:#000000;stroke-width:0.8;"/>
      </defs>
      <g>
       <use style="stroke:#000000;stroke-width:0.8;" x="57.6" xlink:href="#md246bca53f" y="246.217517"/>
      </g>
     </g>
     <g id="text_6">
      <!-- 0.2 -->
      <g transform="translate(34.696875 250.016735)scale(0.1 -0.1)">
       <use xlink:href="#DejaVuSans-30"/>
       <use x="63.623047" xlink:href="#DejaVuSans-2e"/>
       <use x="95.410156" xlink:href="#DejaVuSans-32"/>
      </g>
     </g>
    </g>
    <g id="ytick_2">
     <g id="line2d_7">
      <g>
       <use style="stroke:#000000;stroke-width:0.8;" x="57.6" xlink:href="#md246bca53f" y="198.424506"/>
      </g>
     </g>
     <g id="text_7">
      <!-- 0.4 -->
      <g transform="translate(34.696875 202.223724)scale(0.1 -0.1)">
       <use xlink:href="#DejaVuSans-30"/>
       <use x="63.623047" xlink:href="#DejaVuSans-2e"/>
       <use x="95.410156" xlink:href="#DejaVuSans-34"/>
      </g>
     </g>
    </g>
    <g id="ytick_3">
     <g id="line2d_8">
      <g>
       <use style="stroke:#000000;stroke-width:0.8;" x="57.6" xlink:href="#md246bca53f" y="150.631494"/>
      </g>
     </g>
     <g id="text_8">
      <!-- 0.6 -->
      <g transform="translate(34.696875 154.430713)scale(0.1 -0.1)">
       <use xlink:href="#DejaVuSans-30"/>
       <use x="63.623047" xlink:href="#DejaVuSans-2e"/>
       <use x="95.410156" xlink:href="#DejaVuSans-36"/>
      </g>
     </g>
    </g>
    <g id="ytick_4">
     <g id="line2d_9">
      <g>
       <use style="stroke:#000000;stroke-width:0.8;" x="57.6" xlink:href="#md246bca53f" y="102.838483"/>
      </g>
     </g>
     <g id="text_9">
      <!-- 0.8 -->
      <g transform="translate(34.696875 106.637702)scale(0.1 -0.1)">
       <use xlink:href="#DejaVuSans-30"/>
       <use x="63.623047" xlink:href="#DejaVuSans-2e"/>
       <use x="95.410156" xlink:href="#DejaVuSans-38"/>
      </g>
     </g>
    </g>
   </g>
   <g id="LineCollection_1">
    <path clip-path="url(#p8960e4d676)" d="M 123.401262 293.479494 
L 122.986297 291.355361 
L 122.386082 289.934907 
L 121.9818 289.231227 
L 121.059157 288.16916 
L 119.611529 287.107093 
L 118.137814 286.436697 
L 117.064532 286.045026 
L 114.951613 285.585565 
L 111.765413 285.203291 
L 108.579212 285.07149 
L 103.268877 285.134055 
L 92.648208 285.36175 
L 88.399941 285.260225 
L 84.151673 284.922592 
L 80.965472 284.446247 
L 78.71297 283.920892 
L 76.717204 283.29211 
L 74.593071 282.366045 
L 72.468937 281.062531 
L 70.839998 279.672625 
L 69.859602 278.610558 
L 69.038479 277.548491 
L 67.739926 275.424357 
L 66.743253 273.300223 
L 65.948777 271.176089 
L 65.024052 267.989888 
L 64.130224 263.741621 
L 63.484245 259.493353 
L 62.887547 254.183019 
L 62.303178 246.74855 
L 61.630937 235.065814 
L 60.786127 215.94861 
L 60.048618 193.645204 
L 59.399567 167.093532 
L 58.755114 130.983257 
L 58.16839 85.314379 
L 57.923511 55.576506 
L 57.923511 55.576506 
" style="fill:none;stroke:#000080;stroke-width:1.5;"/>
   </g>
   <g id="LineCollection_2">
    <path clip-path="url(#p8960e4d676)" d="M 286.299996 293.479494 
L 286.682267 291.355361 
L 287.097079 289.231227 
L 287.276198 287.107093 
L 287.257942 283.920892 
L 286.96372 279.672625 
L 284.88232 261.455242 
L 283.053849 249.934751 
L 282.387657 246.74855 
L 281.269104 242.500283 
L 280.575318 240.376149 
L 279.571985 238.080754 
L 278.322421 236.127881 
L 277.362735 235.065814 
L 276.385784 234.311493 
L 275.323717 233.770233 
L 274.261651 233.429714 
L 272.137517 233.118361 
L 268.951316 233.083614 
L 253.020312 233.46302 
L 221.158305 233.825867 
L 208.413502 234.276565 
L 190.358364 234.963469 
L 182.923896 234.993338 
L 176.551494 234.798995 
L 170.179093 234.395859 
L 161.682558 233.613512 
L 144.689487 231.971185 
L 138.317086 231.594241 
L 131.944684 231.429897 
L 124.510216 231.49136 
L 114.951613 231.829787 
L 108.579212 232.217415 
L 105.393011 232.580154 
L 103.268877 232.971369 
L 101.144743 233.577236 
L 99.02061 234.495823 
L 97.958543 235.113181 
L 96.597471 236.127881 
L 95.46303 237.189948 
L 94.52576 238.252015 
L 93.053926 240.376149 
L 91.931875 242.500283 
L 91.05861 244.624416 
L 90.371278 246.74855 
L 89.629712 249.934751 
L 89.138916 253.120952 
L 88.399941 258.49935 
L 87.833954 260.55542 
L 87.337874 261.681633 
L 86.275807 263.162657 
L 85.21374 264.058836 
L 84.151673 264.609122 
L 83.089606 264.908333 
L 82.027539 264.995199 
L 80.56779 264.803688 
L 79.903405 264.629797 
L 78.841338 264.168872 
L 77.779271 263.521734 
L 76.717204 262.659854 
L 75.655138 261.544575 
L 74.203422 259.493353 
L 73.033825 257.369219 
L 72.088068 255.245086 
L 70.951356 252.058885 
L 70.03119 248.872684 
L 69.032581 244.624416 
L 67.847247 238.252015 
L 66.739938 230.817546 
L 65.590113 221.258944 
L 64.560117 210.638275 
L 63.569175 197.893472 
L 62.588287 181.962468 
L 61.614824 161.783197 
L 60.657524 136.293591 
L 59.724134 104.029187 
L 58.719265 59.824773 
L 58.785949 55.576506 
L 58.785949 55.576506 
" style="fill:none;stroke:#0000e8;stroke-width:1.5;"/>
   </g>
   <g id="LineCollection_3">
    <path clip-path="url(#p8960e4d676)" d="M 290.21731 293.479494 
L 290.608196 287.107093 
L 290.474187 282.858825 
L 289.912703 274.36229 
L 286.71815 231.879613 
L 285.541307 221.258944 
L 284.473248 213.824476 
L 283.489135 208.514141 
L 282.453434 204.265874 
L 281.393662 201.079673 
L 280.408926 198.955539 
L 279.571985 197.638745 
L 278.509918 196.588858 
L 277.447851 196.013706 
L 276.385784 195.786386 
L 275.323717 195.803282 
L 273.199584 196.257472 
L 266.827182 198.119529 
L 263.640981 198.68004 
L 260.454781 198.989581 
L 256.206513 199.158605 
L 247.709978 199.186694 
L 212.66177 199.194484 
L 180.799762 199.33046 
L 151.061888 199.760206 
L 126.149907 200.017606 
L 121.324015 199.853307 
L 117.075747 199.533778 
L 111.765413 198.885444 
L 102.20681 197.547319 
L 99.02061 197.400551 
L 96.896476 197.518381 
L 94.735991 197.893472 
L 92.648208 198.575099 
L 90.524074 199.673682 
L 88.616584 201.079673 
L 87.337874 202.249175 
L 85.21374 204.62435 
L 83.062691 207.452074 
L 79.897601 211.700342 
L 78.841338 212.890338 
L 77.779271 213.841019 
L 76.717204 214.463109 
L 75.655138 214.670538 
L 74.593071 214.379028 
L 73.531004 213.501221 
L 72.357214 211.700342 
L 71.394525 209.576208 
L 70.0788 205.327941 
L 69.076587 201.079673 
L 67.915597 194.707271 
L 66.846243 187.272803 
L 65.748828 177.714201 
L 64.672082 166.031465 
L 63.570877 151.162528 
L 62.495856 133.10739 
L 61.478135 111.866052 
L 60.418688 84.252312 
L 59.602149 58.762706 
L 59.698648 55.576506 
L 59.698648 55.576506 
" style="fill:none;stroke:#0038ff;stroke-width:1.5;"/>
   </g>
   <g id="LineCollection_4">
    <path clip-path="url(#p8960e4d676)" d="M 292.409901 293.479494 
L 292.526367 284.982959 
L 292.144867 276.486424 
L 290.464264 242.500283 
L 289.503493 225.507212 
L 288.565676 211.700342 
L 287.601322 200.017606 
L 286.509445 189.396937 
L 285.550903 181.962468 
L 284.509794 175.590067 
L 283.633872 171.341799 
L 282.440834 167.093532 
L 281.660909 164.969398 
L 280.47182 162.845264 
L 279.536948 161.783197 
L 278.509918 161.18939 
L 277.447851 161.055324 
L 276.385784 161.281927 
L 275.293243 161.783197 
L 273.199584 163.160991 
L 269.151759 166.031465 
L 267.889249 166.783923 
L 265.765115 167.811967 
L 263.640981 168.556033 
L 261.516848 169.053363 
L 259.392714 169.354519 
L 256.206513 169.546953 
L 251.958245 169.532584 
L 234.965175 169.215448 
L 148.937755 168.969275 
L 121.324015 168.998152 
L 109.641279 168.943888 
L 95.834409 168.739837 
L 92.648208 169.000301 
L 90.524074 169.372254 
L 88.399941 169.96789 
L 86.275807 170.841483 
L 84.151673 172.027073 
L 82.027539 173.500814 
L 78.841338 175.8916 
L 77.552852 176.652134 
L 76.717204 177.024569 
L 75.655138 177.211455 
L 74.593071 177.00565 
L 73.531004 176.290618 
L 72.261112 174.528 
L 71.25679 172.403866 
L 70.188466 169.217665 
L 68.912634 163.907331 
L 67.925281 158.596996 
L 66.829184 151.162528 
L 65.706064 141.603926 
L 64.601446 129.92119 
L 63.542191 116.11432 
L 62.483438 99.121249 
L 60.710836 65.135108 
L 60.568363 59.824773 
L 60.723797 55.576506 
L 60.723797 55.576506 
" style="fill:none;stroke:#0094ff;stroke-width:1.5;"/>
   </g>
   <g id="LineCollection_5">
    <path clip-path="url(#p8960e4d676)" d="M 294.096118 293.479494 
L 294.008651 281.796758 
L 292.884561 250.996818 
L 291.628322 220.196877 
L 290.602415 200.017606 
L 289.605335 184.086602 
L 288.623777 171.341799 
L 287.608775 160.72113 
L 286.588714 152.224595 
L 285.626141 145.852193 
L 284.59983 140.541859 
L 283.50947 136.293591 
L 282.758186 133.968035 
L 281.696119 131.63823 
L 280.382433 129.92119 
L 279.571985 129.283728 
L 278.509918 129.006882 
L 277.447851 129.18869 
L 276.144508 129.92119 
L 274.880378 130.983257 
L 273.199584 132.71976 
L 268.951316 137.438942 
L 266.717353 139.479792 
L 264.703048 140.922577 
L 262.578914 142.026399 
L 260.454781 142.752609 
L 258.330647 143.167386 
L 256.206513 143.337485 
L 253.020312 143.271809 
L 248.772045 142.859089 
L 241.337576 142.051648 
L 237.089309 141.794824 
L 231.778974 141.717129 
L 223.282439 141.882654 
L 211.599703 142.074487 
L 194.606632 142.060199 
L 159.558424 142.063355 
L 90.524074 142.303195 
L 87.337874 142.66937 
L 84.151673 143.338945 
L 80.965472 144.333162 
L 77.779271 145.343629 
L 76.717204 145.522068 
L 75.655138 145.513985 
L 74.593071 145.227426 
L 73.531004 144.551899 
L 72.468937 143.361543 
L 71.40687 141.514471 
L 70.216695 138.417725 
L 69.049979 134.169457 
L 67.951531 128.859123 
L 66.774329 121.424654 
L 65.71439 112.928119 
L 64.651589 102.30745 
L 63.46008 87.438513 
L 61.779205 63.010974 
L 61.721933 59.824773 
L 61.893178 56.638572 
L 61.960731 55.576506 
L 61.960731 55.576506 
" style="fill:none;stroke:#0cf4eb;stroke-width:1.5;"/>
   </g>
   <g id="LineCollection_6">
    <path clip-path="url(#p8960e4d676)" d="M 295.63876 293.479494 
L 295.415305 278.610558 
L 294.525083 246.74855 
L 293.44028 213.824476 
L 292.486993 190.459004 
L 291.585442 172.403866 
L 290.678491 157.534929 
L 289.71795 144.790126 
L 288.711723 134.169457 
L 287.688399 125.672922 
L 286.71727 119.30052 
L 285.687164 113.990186 
L 284.615183 109.741918 
L 283.54318 106.555717 
L 282.579619 104.431584 
L 281.696119 102.999637 
L 280.634052 101.922348 
L 279.571985 101.399604 
L 278.509918 101.352974 
L 277.447851 101.711659 
L 276.385784 102.410035 
L 275.323717 103.378507 
L 273.199584 105.857697 
L 267.722165 112.928119 
L 265.754256 115.052253 
L 263.640981 116.898411 
L 261.516848 118.278823 
L 259.392714 119.205587 
L 257.26858 119.729676 
L 255.144446 119.916624 
L 253.020312 119.837983 
L 250.896178 119.563896 
L 247.709978 118.928783 
L 239.213442 117.066356 
L 234.965175 116.445923 
L 230.716907 116.10303 
L 226.468639 116.001494 
L 220.747499 116.11432 
L 191.420431 117.074668 
L 171.24116 117.261992 
L 107.517145 117.730329 
L 89.462007 118.015412 
L 84.151673 118.350242 
L 77.779271 118.861841 
L 76.717204 118.796504 
L 75.655138 118.589561 
L 74.593071 118.169167 
L 73.285542 117.176387 
L 72.359842 116.11432 
L 71.154275 113.990186 
L 70.263585 111.866052 
L 69.016425 107.617784 
L 67.873367 102.30745 
L 66.820397 95.935048 
L 65.71932 87.438513 
L 64.385976 74.69371 
L 63.511623 65.135108 
L 63.316766 60.88684 
L 63.400263 58.762706 
L 63.676615 55.576506 
L 63.676615 55.576506 
" style="fill:none;stroke:#56ffa0;stroke-width:1.5;"/>
   </g>
   <g id="LineCollection_7">
    <path clip-path="url(#p8960e4d676)" d="M 300.9728 293.479494 
L 300.864692 287.107093 
L 300.545231 280.734691 
L 299.94411 273.300223 
L 298.739731 261.617487 
L 296.749027 244.624416 
L 296.538944 242.500283 
L 295.058531 204.265874 
L 294.046729 175.590067 
L 293.047078 153.286662 
L 292.073647 136.293591 
L 291.053622 122.486721 
L 289.93007 110.803985 
L 288.885417 102.30745 
L 287.889586 95.935048 
L 286.795255 90.624714 
L 285.594288 86.376446 
L 284.828185 84.252312 
L 283.820253 82.079408 
L 282.4991 80.004045 
L 281.631148 78.941978 
L 280.459917 77.879911 
L 279.571985 77.272155 
L 278.509918 76.743814 
L 277.447851 76.418076 
L 276.385784 76.249932 
L 275.323717 76.231152 
L 274.261651 76.353772 
L 272.607912 76.817844 
L 272.137517 77.007914 
L 270.559211 77.879911 
L 268.951316 79.159144 
L 267.889249 80.274514 
L 266.503466 82.128178 
L 265.266978 84.252312 
L 261.450857 91.686781 
L 259.875776 93.810914 
L 258.851433 94.872981 
L 257.548289 95.935048 
L 256.206513 96.758558 
L 255.144446 97.251613 
L 253.020312 97.923043 
L 250.896178 98.28178 
L 248.772045 98.426314 
L 245.585844 98.384512 
L 241.337576 98.055658 
L 233.903108 97.184104 
L 221.158305 95.666546 
L 213.723836 94.998099 
L 206.289368 94.563522 
L 198.8549 94.350356 
L 188.23423 94.296322 
L 162.744625 94.251909 
L 145.751554 93.935505 
L 112.82748 93.040845 
L 78.841338 92.063286 
L 76.717204 91.650424 
L 75.655138 91.262079 
L 74.522085 90.624714 
L 73.3148 89.562647 
L 72.431507 88.50058 
L 71.240603 86.376446 
L 70.014158 83.190245 
L 69.089281 80.004045 
L 67.938892 74.69371 
L 66.885907 68.321309 
L 66.418305 64.073041 
L 66.336881 61.948907 
L 66.471143 59.824773 
L 66.938801 56.638572 
L 66.955266 55.576506 
L 66.955266 55.576506 
" style="fill:none;stroke:#a0ff56;stroke-width:1.5;"/>
   </g>
   <g id="LineCollection_8">
    <path clip-path="url(#p8960e4d676)" d="M 308.44789 293.479494 
L 308.306069 284.982959 
L 307.925112 276.486424 
L 307.193183 265.865755 
L 305.996781 252.058885 
L 304.197438 234.003747 
L 302.180114 215.94861 
L 300.05883 198.955539 
L 297.98771 184.086602 
L 296.496077 173.465933 
L 294.946914 142.665993 
L 294.04779 124.610855 
L 293.096678 109.741918 
L 292.143818 98.059182 
L 291.21697 89.562647 
L 290.399675 84.252312 
L 289.748236 81.066112 
L 288.907375 77.879911 
L 288.06852 75.464125 
L 287.006454 73.185613 
L 285.944387 71.482318 
L 284.88232 70.201422 
L 283.820253 69.212624 
L 282.546564 68.321309 
L 280.634052 67.390846 
L 279.571985 67.03697 
L 277.447851 66.575604 
L 275.323717 66.36189 
L 273.199584 66.342363 
L 270.013383 66.599513 
L 266.827182 67.136072 
L 263.640981 67.909356 
L 259.392714 69.235546 
L 255.144446 70.787818 
L 248.772045 73.13579 
L 245.585844 74.111865 
L 242.399643 74.844203 
L 239.213442 75.282035 
L 236.027242 75.424381 
L 232.841041 75.290994 
L 229.65484 74.927956 
L 226.468639 74.375673 
L 222.220372 73.435236 
L 214.785903 71.466412 
L 203.103167 67.97692 
L 197.792833 66.144939 
L 194.606632 64.794846 
L 192.482498 63.707091 
L 191.301916 63.010974 
L 189.889094 61.948907 
L 188.835809 60.88684 
L 188.100706 59.824773 
L 187.634997 58.762706 
L 187.38772 57.700639 
L 187.31314 55.576506 
L 187.31314 55.576506 
" style="fill:none;stroke:#ebff0c;stroke-width:1.5;"/>
   </g>
   <g id="LineCollection_9">
    <path clip-path="url(#p8960e4d676)" d="M 316.120933 293.479494 
L 315.998569 283.920892 
L 315.624851 273.300223 
L 314.928383 260.55542 
L 313.822818 244.624416 
L 312.27709 225.507212 
L 310.52095 206.390007 
L 308.63847 188.33487 
L 306.748622 172.403866 
L 304.886784 158.596996 
L 303.103435 146.91426 
L 301.27336 136.293591 
L 299.414472 126.734989 
L 297.555967 118.238454 
L 296.557274 113.990186 
L 293.726978 81.066112 
L 293.084316 76.817844 
L 292.316788 73.123968 
L 291.537169 70.445442 
L 290.694132 68.321309 
L 290.164211 67.259242 
L 289.130587 65.65573 
L 287.712328 64.073041 
L 286.441063 63.010974 
L 284.830593 61.948907 
L 282.758186 60.850974 
L 278.509918 58.689833 
L 277.276476 57.700639 
L 276.653587 56.638572 
L 276.537515 55.576506 
L 276.537515 55.576506 
" style="fill:none;stroke:#ffab00;stroke-width:1.5;"/>
   </g>
   <g id="LineCollection_10">
    <path clip-path="url(#p8960e4d676)" d="M 323.939507 293.479494 
L 323.82268 281.796758 
L 323.47495 269.051955 
L 322.806161 253.120952 
L 321.727033 232.94168 
L 320.250008 209.576208 
L 318.684592 188.33487 
L 317.135477 170.279732 
L 315.543253 154.348729 
L 313.934837 140.541859 
L 312.357378 128.859123 
L 310.70307 118.238454 
L 308.988523 108.679851 
L 307.185725 99.95675 
L 305.471355 92.748848 
L 303.724148 86.376446 
L 302.036976 81.066112 
L 300.473436 76.817844 
L 298.68919 72.694177 
L 297.55186 70.445442 
L 296.476611 68.321309 
L 295.644496 65.135108 
L 295.380449 64.073041 
L 294.440922 60.22996 
L 293.511269 56.638572 
L 293.250395 55.576506 
L 293.250395 55.576506 
" style="fill:none;stroke:#ff5500;stroke-width:1.5;"/>
   </g>
   <g id="LineCollection_11">
    <path clip-path="url(#p8960e4d676)" d="M 331.856575 293.479494 
L 331.736888 277.548491 
L 331.371991 259.493353 
L 330.668347 236.127881 
L 329.542535 206.390007 
L 328.373072 180.900401 
L 327.191101 159.659063 
L 325.96721 141.603926 
L 324.752942 126.734989 
L 323.396596 112.928119 
L 322.036919 101.245383 
L 320.455115 89.562647 
L 317.141592 66.197175 
L 316.695202 60.88684 
L 316.547177 56.638572 
L 316.543743 55.576506 
L 316.543743 55.576506 
" style="fill:none;stroke:#e80000;stroke-width:1.5;"/>
   </g>
   <g id="LineCollection_12">
    <path clip-path="url(#p8960e4d676)" d="M 339.830608 293.479494 
L 339.715605 265.865755 
L 339.299773 225.507212 
L 338.380168 163.907331 
L 337.710224 134.169457 
L 337.084647 113.990186 
L 336.12767 89.562647 
L 335.30525 70.445442 
L 335.072742 59.824773 
L 335.052781 55.576506 
L 335.052781 55.576506 
" style="fill:none;stroke:#800000;stroke-width:1.5;"/>
   </g>
   <g id="patch_3">
    <path d="M 57.6 293.479494 
L 57.6 55.576506 
" style="fill:none;stroke:#000000;stroke-linecap:square;stroke-linejoin:miter;stroke-width:0.8;"/>
   </g>
   <g id="patch_4">
    <path d="M 343.296 293.479494 
L 343.296 55.576506 
" style="fill:none;stroke:#000000;stroke-linecap:square;stroke-linejoin:miter;stroke-width:0.8;"/>
   </g>
   <g id="patch_5">
    <path d="M 57.6 293.479494 
L 343.296 293.479494 
" style="fill:none;stroke:#000000;stroke-linecap:square;stroke-linejoin:miter;stroke-width:0.8;"/>
   </g>
   <g id="patch_6">
    <path d="M 57.6 55.576506 
L 343.296 55.576506 
" style="fill:none;stroke:#000000;stroke-linecap:square;stroke-linejoin:miter;stroke-width:0.8;"/>
   </g>
   <g id="text_10">
    <!-- Time:0.09877 s -->
    <defs>
     <path d="M -0.296875 72.90625 
L 61.375 72.90625 
L 61.375 64.59375 
L 35.5 64.59375 
L 35.5 0 
L 25.59375 0 
L 25.59375 64.59375 
L -0.296875 64.59375 
z
" id="DejaVuSans-54"/>
     <path d="M 9.421875 54.6875 
L 18.40625 54.6875 
L 18.40625 0 
L 9.421875 0 
z
M 9.421875 75.984375 
L 18.40625 75.984375 
L 18.40625 64.59375 
L 9.421875 64.59375 
z
" id="DejaVuSans-69"/>
     <path d="M 52 44.1875 
Q 55.375 50.25 60.0625 53.125 
Q 64.75 56 71.09375 56 
Q 79.640625 56 84.28125 50.015625 
Q 88.921875 44.046875 88.921875 33.015625 
L 88.921875 0 
L 79.890625 0 
L 79.890625 32.71875 
Q 79.890625 40.578125 77.09375 44.375 
Q 74.3125 48.1875 68.609375 48.1875 
Q 61.625 48.1875 57.5625 43.546875 
Q 53.515625 38.921875 53.515625 30.90625 
L 53.515625 0 
L 44.484375 0 
L 44.484375 32.71875 
Q 44.484375 40.625 41.703125 44.40625 
Q 38.921875 48.1875 33.109375 48.1875 
Q 26.21875 48.1875 22.15625 43.53125 
Q 18.109375 38.875 18.109375 30.90625 
L 18.109375 0 
L 9.078125 0 
L 9.078125 54.6875 
L 18.109375 54.6875 
L 18.109375 46.1875 
Q 21.1875 51.21875 25.484375 53.609375 
Q 29.78125 56 35.6875 56 
Q 41.65625 56 45.828125 52.96875 
Q 50 49.953125 52 44.1875 
z
" id="DejaVuSans-6d"/>
     <path d="M 56.203125 29.59375 
L 56.203125 25.203125 
L 14.890625 25.203125 
Q 15.484375 15.921875 20.484375 11.0625 
Q 25.484375 6.203125 34.421875 6.203125 
Q 39.59375 6.203125 44.453125 7.46875 
Q 49.3125 8.734375 54.109375 11.28125 
L 54.109375 2.78125 
Q 49.265625 0.734375 44.1875 -0.34375 
Q 39.109375 -1.421875 33.890625 -1.421875 
Q 20.796875 -1.421875 13.15625 6.1875 
Q 5.515625 13.8125 5.515625 26.8125 
Q 5.515625 40.234375 12.765625 48.109375 
Q 20.015625 56 32.328125 56 
Q 43.359375 56 49.78125 48.890625 
Q 56.203125 41.796875 56.203125 29.59375 
z
M 47.21875 32.234375 
Q 47.125 39.59375 43.09375 43.984375 
Q 39.0625 48.390625 32.421875 48.390625 
Q 24.90625 48.390625 20.390625 44.140625 
Q 15.875 39.890625 15.1875 32.171875 
z
" id="DejaVuSans-65"/>
     <path d="M 11.71875 12.40625 
L 22.015625 12.40625 
L 22.015625 0 
L 11.71875 0 
z
M 11.71875 51.703125 
L 22.015625 51.703125 
L 22.015625 39.3125 
L 11.71875 39.3125 
z
" id="DejaVuSans-3a"/>
     <path d="M 10.984375 1.515625 
L 10.984375 10.5 
Q 14.703125 8.734375 18.5 7.8125 
Q 22.3125 6.890625 25.984375 6.890625 
Q 35.75 6.890625 40.890625 13.453125 
Q 46.046875 20.015625 46.78125 33.40625 
Q 43.953125 29.203125 39.59375 26.953125 
Q 35.25 24.703125 29.984375 24.703125 
Q 19.046875 24.703125 12.671875 31.3125 
Q 6.296875 37.9375 6.296875 49.421875 
Q 6.296875 60.640625 12.9375 67.421875 
Q 19.578125 74.21875 30.609375 74.21875 
Q 43.265625 74.21875 49.921875 64.515625 
Q 56.59375 54.828125 56.59375 36.375 
Q 56.59375 19.140625 48.40625 8.859375 
Q 40.234375 -1.421875 26.421875 -1.421875 
Q 22.703125 -1.421875 18.890625 -0.6875 
Q 15.09375 0.046875 10.984375 1.515625 
z
M 30.609375 32.421875 
Q 37.25 32.421875 41.125 36.953125 
Q 45.015625 41.5 45.015625 49.421875 
Q 45.015625 57.28125 41.125 61.84375 
Q 37.25 66.40625 30.609375 66.40625 
Q 23.96875 66.40625 20.09375 61.84375 
Q 16.21875 57.28125 16.21875 49.421875 
Q 16.21875 41.5 20.09375 36.953125 
Q 23.96875 32.421875 30.609375 32.421875 
z
" id="DejaVuSans-39"/>
     <path d="M 8.203125 72.90625 
L 55.078125 72.90625 
L 55.078125 68.703125 
L 28.609375 0 
L 18.3125 0 
L 43.21875 64.59375 
L 8.203125 64.59375 
z
" id="DejaVuSans-37"/>
     <path id="DejaVuSans-20"/>
     <path d="M 44.28125 53.078125 
L 44.28125 44.578125 
Q 40.484375 46.53125 36.375 47.5 
Q 32.28125 48.484375 27.875 48.484375 
Q 21.1875 48.484375 17.84375 46.4375 
Q 14.5 44.390625 14.5 40.28125 
Q 14.5 37.15625 16.890625 35.375 
Q 19.28125 33.59375 26.515625 31.984375 
L 29.59375 31.296875 
Q 39.15625 29.25 43.1875 25.515625 
Q 47.21875 21.78125 47.21875 15.09375 
Q 47.21875 7.46875 41.1875 3.015625 
Q 35.15625 -1.421875 24.609375 -1.421875 
Q 20.21875 -1.421875 15.453125 -0.5625 
Q 10.6875 0.296875 5.421875 2 
L 5.421875 11.28125 
Q 10.40625 8.6875 15.234375 7.390625 
Q 20.0625 6.109375 24.8125 6.109375 
Q 31.15625 6.109375 34.5625 8.28125 
Q 37.984375 10.453125 37.984375 14.40625 
Q 37.984375 18.0625 35.515625 20.015625 
Q 33.0625 21.96875 24.703125 23.78125 
L 21.578125 24.515625 
Q 13.234375 26.265625 9.515625 29.90625 
Q 5.8125 33.546875 5.8125 39.890625 
Q 5.8125 47.609375 11.28125 51.796875 
Q 16.75 56 26.8125 56 
Q 31.78125 56 36.171875 55.265625 
Q 40.578125 54.546875 44.28125 53.078125 
z
" id="DejaVuSans-73"/>
    </defs>
    <g transform="translate(153.717375 49.576506)scale(0.12 -0.12)">
     <use xlink:href="#DejaVuSans-54"/>
     <use x="61.037109" xlink:href="#DejaVuSans-69"/>
     <use x="88.820312" xlink:href="#DejaVuSans-6d"/>
     <use x="186.232422" xlink:href="#DejaVuSans-65"/>
     <use x="247.755859" xlink:href="#DejaVuSans-3a"/>
     <use x="281.447266" xlink:href="#DejaVuSans-30"/>
     <use x="345.070312" xlink:href="#DejaVuSans-2e"/>
     <use x="376.857422" xlink:href="#DejaVuSans-30"/>
     <use x="440.480469" xlink:href="#DejaVuSans-39"/>
     <use x="504.103516" xlink:href="#DejaVuSans-38"/>
     <use x="567.726562" xlink:href="#DejaVuSans-37"/>
     <use x="631.349609" xlink:href="#DejaVuSans-37"/>
     <use x="694.972656" xlink:href="#DejaVuSans-20"/>
     <use x="726.759766" xlink:href="#DejaVuSans-73"/>
    </g>
   </g>
  </g>
  <g id="axes_2">
   <g id="patch_7">
    <path clip-path="url(#pd749479425)" d="M 361.152 307.584 
L 361.152 283.392 
L 361.152 65.664 
L 361.152 41.472 
L 374.4576 41.472 
L 374.4576 65.664 
L 374.4576 283.392 
L 374.4576 307.584 
z
" style="fill:#ffffff;stroke:#ffffff;stroke-linejoin:miter;stroke-width:0.01;"/>
   </g>
   <g id="matplotlib.axis_3"/>
   <g id="matplotlib.axis_4">
    <g id="ytick_5">
     <g id="line2d_10">
      <defs>
       <path d="M 0 0 
L 3.5 0 
" id="m06a0093272" style="stroke:#000000;stroke-width:0.8;"/>
      </defs>
      <g>
       <use style="stroke:#000000;stroke-width:0.8;" x="374.4576" xlink:href="#m06a0093272" y="307.584"/>
      </g>
     </g>
     <g id="text_11">
      <!-- 0.08 -->
      <g transform="translate(381.4576 311.383219)scale(0.1 -0.1)">
       <use xlink:href="#DejaVuSans-30"/>
       <use x="63.623047" xlink:href="#DejaVuSans-2e"/>
       <use x="95.410156" xlink:href="#DejaVuSans-30"/>
       <use x="159.033203" xlink:href="#DejaVuSans-38"/>
      </g>
     </g>
    </g>
    <g id="ytick_6">
     <g id="line2d_11">
      <g>
       <use style="stroke:#000000;stroke-width:0.8;" x="374.4576" xlink:href="#m06a0093272" y="259.2"/>
      </g>
     </g>
     <g id="text_12">
      <!-- 0.24 -->
      <g transform="translate(381.4576 262.999219)scale(0.1 -0.1)">
       <use xlink:href="#DejaVuSans-30"/>
       <use x="63.623047" xlink:href="#DejaVuSans-2e"/>
       <use x="95.410156" xlink:href="#DejaVuSans-32"/>
       <use x="159.033203" xlink:href="#DejaVuSans-34"/>
      </g>
     </g>
    </g>
    <g id="ytick_7">
     <g id="line2d_12">
      <g>
       <use style="stroke:#000000;stroke-width:0.8;" x="374.4576" xlink:href="#m06a0093272" y="210.816"/>
      </g>
     </g>
     <g id="text_13">
      <!-- 0.40 -->
      <g transform="translate(381.4576 214.615219)scale(0.1 -0.1)">
       <use xlink:href="#DejaVuSans-30"/>
       <use x="63.623047" xlink:href="#DejaVuSans-2e"/>
       <use x="95.410156" xlink:href="#DejaVuSans-34"/>
       <use x="159.033203" xlink:href="#DejaVuSans-30"/>
      </g>
     </g>
    </g>
    <g id="ytick_8">
     <g id="line2d_13">
      <g>
       <use style="stroke:#000000;stroke-width:0.8;" x="374.4576" xlink:href="#m06a0093272" y="162.432"/>
      </g>
     </g>
     <g id="text_14">
      <!-- 0.56 -->
      <defs>
       <path d="M 10.796875 72.90625 
L 49.515625 72.90625 
L 49.515625 64.59375 
L 19.828125 64.59375 
L 19.828125 46.734375 
Q 21.96875 47.46875 24.109375 47.828125 
Q 26.265625 48.1875 28.421875 48.1875 
Q 40.625 48.1875 47.75 41.5 
Q 54.890625 34.8125 54.890625 23.390625 
Q 54.890625 11.625 47.5625 5.09375 
Q 40.234375 -1.421875 26.90625 -1.421875 
Q 22.3125 -1.421875 17.546875 -0.640625 
Q 12.796875 0.140625 7.71875 1.703125 
L 7.71875 11.625 
Q 12.109375 9.234375 16.796875 8.0625 
Q 21.484375 6.890625 26.703125 6.890625 
Q 35.15625 6.890625 40.078125 11.328125 
Q 45.015625 15.765625 45.015625 23.390625 
Q 45.015625 31 40.078125 35.4375 
Q 35.15625 39.890625 26.703125 39.890625 
Q 22.75 39.890625 18.8125 39.015625 
Q 14.890625 38.140625 10.796875 36.28125 
z
" id="DejaVuSans-35"/>
      </defs>
      <g transform="translate(381.4576 166.231219)scale(0.1 -0.1)">
       <use xlink:href="#DejaVuSans-30"/>
       <use x="63.623047" xlink:href="#DejaVuSans-2e"/>
       <use x="95.410156" xlink:href="#DejaVuSans-35"/>
       <use x="159.033203" xlink:href="#DejaVuSans-36"/>
      </g>
     </g>
    </g>
    <g id="ytick_9">
     <g id="line2d_14">
      <g>
       <use style="stroke:#000000;stroke-width:0.8;" x="374.4576" xlink:href="#m06a0093272" y="114.048"/>
      </g>
     </g>
     <g id="text_15">
      <!-- 0.72 -->
      <g transform="translate(381.4576 117.847219)scale(0.1 -0.1)">
       <use xlink:href="#DejaVuSans-30"/>
       <use x="63.623047" xlink:href="#DejaVuSans-2e"/>
       <use x="95.410156" xlink:href="#DejaVuSans-37"/>
       <use x="159.033203" xlink:href="#DejaVuSans-32"/>
      </g>
     </g>
    </g>
    <g id="ytick_10">
     <g id="line2d_15">
      <g>
       <use style="stroke:#000000;stroke-width:0.8;" x="374.4576" xlink:href="#m06a0093272" y="65.664"/>
      </g>
     </g>
     <g id="text_16">
      <!-- 0.88 -->
      <g transform="translate(381.4576 69.463219)scale(0.1 -0.1)">
       <use xlink:href="#DejaVuSans-30"/>
       <use x="63.623047" xlink:href="#DejaVuSans-2e"/>
       <use x="95.410156" xlink:href="#DejaVuSans-38"/>
       <use x="159.033203" xlink:href="#DejaVuSans-38"/>
      </g>
     </g>
    </g>
   </g>
   <g id="LineCollection_13">
    <path clip-path="url(#pd749479425)" d="M 361.152 307.584 
L 374.4576 307.584 
" style="fill:none;stroke:#000080;stroke-width:1.5;"/>
    <path clip-path="url(#pd749479425)" d="M 361.152 283.392 
L 374.4576 283.392 
" style="fill:none;stroke:#0000e8;stroke-width:1.5;"/>
    <path clip-path="url(#pd749479425)" d="M 361.152 259.2 
L 374.4576 259.2 
" style="fill:none;stroke:#0038ff;stroke-width:1.5;"/>
    <path clip-path="url(#pd749479425)" d="M 361.152 235.008 
L 374.4576 235.008 
" style="fill:none;stroke:#0094ff;stroke-width:1.5;"/>
    <path clip-path="url(#pd749479425)" d="M 361.152 210.816 
L 374.4576 210.816 
" style="fill:none;stroke:#0cf4eb;stroke-width:1.5;"/>
    <path clip-path="url(#pd749479425)" d="M 361.152 186.624 
L 374.4576 186.624 
" style="fill:none;stroke:#56ffa0;stroke-width:1.5;"/>
    <path clip-path="url(#pd749479425)" d="M 361.152 162.432 
L 374.4576 162.432 
" style="fill:none;stroke:#a0ff56;stroke-width:1.5;"/>
    <path clip-path="url(#pd749479425)" d="M 361.152 138.24 
L 374.4576 138.24 
" style="fill:none;stroke:#ebff0c;stroke-width:1.5;"/>
    <path clip-path="url(#pd749479425)" d="M 361.152 114.048 
L 374.4576 114.048 
" style="fill:none;stroke:#ffab00;stroke-width:1.5;"/>
    <path clip-path="url(#pd749479425)" d="M 361.152 89.856 
L 374.4576 89.856 
" style="fill:none;stroke:#ff5500;stroke-width:1.5;"/>
    <path clip-path="url(#pd749479425)" d="M 361.152 65.664 
L 374.4576 65.664 
" style="fill:none;stroke:#e80000;stroke-width:1.5;"/>
    <path clip-path="url(#pd749479425)" d="M 361.152 41.472 
L 374.4576 41.472 
" style="fill:none;stroke:#800000;stroke-width:1.5;"/>
   </g>
   <g id="patch_8">
    <path d="M 361.152 307.584 
L 361.152 283.392 
L 361.152 65.664 
L 361.152 41.472 
L 374.4576 41.472 
L 374.4576 65.664 
L 374.4576 283.392 
L 374.4576 307.584 
z
" style="fill:none;stroke:#000000;stroke-linejoin:miter;stroke-width:0.8;"/>
   </g>
  </g>
 </g>
 <defs>
  <clipPath id="p8960e4d676">
   <rect height="237.902989" width="285.696" x="57.6" y="55.576506"/>
  </clipPath>
  <clipPath id="pd749479425">
   <rect height="266.112" width="13.3056" x="361.152" y="41.472"/>
  </clipPath>
 </defs>
</svg>
