<?xml version="1.0" encoding="utf-8" standalone="no"?>
<!DOCTYPE svg PUBLIC "-//W3C//DTD SVG 1.1//EN"
  "http://www.w3.org/Graphics/SVG/1.1/DTD/svg11.dtd">
<!-- Created with matplotlib (http://matplotlib.org/) -->
<svg height="345.6pt" version="1.1" viewBox="0 0 460.8 345.6" width="460.8pt" xmlns="http://www.w3.org/2000/svg" xmlns:xlink="http://www.w3.org/1999/xlink">
 <defs>
  <style type="text/css">
*{stroke-linecap:butt;stroke-linejoin:round;}
  </style>
 </defs>
 <g id="figure_1">
  <g id="patch_1">
   <path d="M 0 345.6 
L 460.8 345.6 
L 460.8 0 
L 0 0 
z
" style="fill:#ffffff;"/>
  </g>
  <g id="axes_1">
   <g id="patch_2">
    <path d="M 57.6 293.479494 
L 343.296 293.479494 
L 343.296 55.576506 
L 57.6 55.576506 
z
" style="fill:#ffffff;"/>
   </g>
   <g id="matplotlib.axis_1">
    <g id="xtick_1">
     <g id="line2d_1">
      <defs>
       <path d="M 0 0 
L 0 3.5 
" id="mf63cfb9bc5" style="stroke:#000000;stroke-width:0.8;"/>
      </defs>
      <g>
       <use style="stroke:#000000;stroke-width:0.8;" x="104.861978" xlink:href="#mf63cfb9bc5" y="293.479494"/>
      </g>
     </g>
     <g id="text_1">
      <!-- 0.2 -->
      <defs>
       <path d="M 31.78125 66.40625 
Q 24.171875 66.40625 20.328125 58.90625 
Q 16.5 51.421875 16.5 36.375 
Q 16.5 21.390625 20.328125 13.890625 
Q 24.171875 6.390625 31.78125 6.390625 
Q 39.453125 6.390625 43.28125 13.890625 
Q 47.125 21.390625 47.125 36.375 
Q 47.125 51.421875 43.28125 58.90625 
Q 39.453125 66.40625 31.78125 66.40625 
z
M 31.78125 74.21875 
Q 44.046875 74.21875 50.515625 64.515625 
Q 56.984375 54.828125 56.984375 36.375 
Q 56.984375 17.96875 50.515625 8.265625 
Q 44.046875 -1.421875 31.78125 -1.421875 
Q 19.53125 -1.421875 13.0625 8.265625 
Q 6.59375 17.96875 6.59375 36.375 
Q 6.59375 54.828125 13.0625 64.515625 
Q 19.53125 74.21875 31.78125 74.21875 
z
" id="DejaVuSans-30"/>
       <path d="M 10.6875 12.40625 
L 21 12.40625 
L 21 0 
L 10.6875 0 
z
" id="DejaVuSans-2e"/>
       <path d="M 19.1875 8.296875 
L 53.609375 8.296875 
L 53.609375 0 
L 7.328125 0 
L 7.328125 8.296875 
Q 12.9375 14.109375 22.625 23.890625 
Q 32.328125 33.6875 34.8125 36.53125 
Q 39.546875 41.84375 41.421875 45.53125 
Q 43.3125 49.21875 43.3125 52.78125 
Q 43.3125 58.59375 39.234375 62.25 
Q 35.15625 65.921875 28.609375 65.921875 
Q 23.96875 65.921875 18.8125 64.3125 
Q 13.671875 62.703125 7.8125 59.421875 
L 7.8125 69.390625 
Q 13.765625 71.78125 18.9375 73 
Q 24.125 74.21875 28.421875 74.21875 
Q 39.75 74.21875 46.484375 68.546875 
Q 53.21875 62.890625 53.21875 53.421875 
Q 53.21875 48.921875 51.53125 44.890625 
Q 49.859375 40.875 45.40625 35.40625 
Q 44.1875 33.984375 37.640625 27.21875 
Q 31.109375 20.453125 19.1875 8.296875 
z
" id="DejaVuSans-32"/>
      </defs>
      <g transform="translate(96.910415 308.077932)scale(0.1 -0.1)">
       <use xlink:href="#DejaVuSans-30"/>
       <use x="63.623047" xlink:href="#DejaVuSans-2e"/>
       <use x="95.410156" xlink:href="#DejaVuSans-32"/>
      </g>
     </g>
    </g>
    <g id="xtick_2">
     <g id="line2d_2">
      <g>
       <use style="stroke:#000000;stroke-width:0.8;" x="152.654989" xlink:href="#mf63cfb9bc5" y="293.479494"/>
      </g>
     </g>
     <g id="text_2">
      <!-- 0.4 -->
      <defs>
       <path d="M 37.796875 64.3125 
L 12.890625 25.390625 
L 37.796875 25.390625 
z
M 35.203125 72.90625 
L 47.609375 72.90625 
L 47.609375 25.390625 
L 58.015625 25.390625 
L 58.015625 17.1875 
L 47.609375 17.1875 
L 47.609375 0 
L 37.796875 0 
L 37.796875 17.1875 
L 4.890625 17.1875 
L 4.890625 26.703125 
z
" id="DejaVuSans-34"/>
      </defs>
      <g transform="translate(144.703426 308.077932)scale(0.1 -0.1)">
       <use xlink:href="#DejaVuSans-30"/>
       <use x="63.623047" xlink:href="#DejaVuSans-2e"/>
       <use x="95.410156" xlink:href="#DejaVuSans-34"/>
      </g>
     </g>
    </g>
    <g id="xtick_3">
     <g id="line2d_3">
      <g>
       <use style="stroke:#000000;stroke-width:0.8;" x="200.448" xlink:href="#mf63cfb9bc5" y="293.479494"/>
      </g>
     </g>
     <g id="text_3">
      <!-- 0.6 -->
      <defs>
       <path d="M 33.015625 40.375 
Q 26.375 40.375 22.484375 35.828125 
Q 18.609375 31.296875 18.609375 23.390625 
Q 18.609375 15.53125 22.484375 10.953125 
Q 26.375 6.390625 33.015625 6.390625 
Q 39.65625 6.390625 43.53125 10.953125 
Q 47.40625 15.53125 47.40625 23.390625 
Q 47.40625 31.296875 43.53125 35.828125 
Q 39.65625 40.375 33.015625 40.375 
z
M 52.59375 71.296875 
L 52.59375 62.3125 
Q 48.875 64.0625 45.09375 64.984375 
Q 41.3125 65.921875 37.59375 65.921875 
Q 27.828125 65.921875 22.671875 59.328125 
Q 17.53125 52.734375 16.796875 39.40625 
Q 19.671875 43.65625 24.015625 45.921875 
Q 28.375 48.1875 33.59375 48.1875 
Q 44.578125 48.1875 50.953125 41.515625 
Q 57.328125 34.859375 57.328125 23.390625 
Q 57.328125 12.15625 50.6875 5.359375 
Q 44.046875 -1.421875 33.015625 -1.421875 
Q 20.359375 -1.421875 13.671875 8.265625 
Q 6.984375 17.96875 6.984375 36.375 
Q 6.984375 53.65625 15.1875 63.9375 
Q 23.390625 74.21875 37.203125 74.21875 
Q 40.921875 74.21875 44.703125 73.484375 
Q 48.484375 72.75 52.59375 71.296875 
z
" id="DejaVuSans-36"/>
      </defs>
      <g transform="translate(192.496438 308.077932)scale(0.1 -0.1)">
       <use xlink:href="#DejaVuSans-30"/>
       <use x="63.623047" xlink:href="#DejaVuSans-2e"/>
       <use x="95.410156" xlink:href="#DejaVuSans-36"/>
      </g>
     </g>
    </g>
    <g id="xtick_4">
     <g id="line2d_4">
      <g>
       <use style="stroke:#000000;stroke-width:0.8;" x="248.241011" xlink:href="#mf63cfb9bc5" y="293.479494"/>
      </g>
     </g>
     <g id="text_4">
      <!-- 0.8 -->
      <defs>
       <path d="M 31.78125 34.625 
Q 24.75 34.625 20.71875 30.859375 
Q 16.703125 27.09375 16.703125 20.515625 
Q 16.703125 13.921875 20.71875 10.15625 
Q 24.75 6.390625 31.78125 6.390625 
Q 38.8125 6.390625 42.859375 10.171875 
Q 46.921875 13.96875 46.921875 20.515625 
Q 46.921875 27.09375 42.890625 30.859375 
Q 38.875 34.625 31.78125 34.625 
z
M 21.921875 38.8125 
Q 15.578125 40.375 12.03125 44.71875 
Q 8.5 49.078125 8.5 55.328125 
Q 8.5 64.0625 14.71875 69.140625 
Q 20.953125 74.21875 31.78125 74.21875 
Q 42.671875 74.21875 48.875 69.140625 
Q 55.078125 64.0625 55.078125 55.328125 
Q 55.078125 49.078125 51.53125 44.71875 
Q 48 40.375 41.703125 38.8125 
Q 48.828125 37.15625 52.796875 32.3125 
Q 56.78125 27.484375 56.78125 20.515625 
Q 56.78125 9.90625 50.3125 4.234375 
Q 43.84375 -1.421875 31.78125 -1.421875 
Q 19.734375 -1.421875 13.25 4.234375 
Q 6.78125 9.90625 6.78125 20.515625 
Q 6.78125 27.484375 10.78125 32.3125 
Q 14.796875 37.15625 21.921875 38.8125 
z
M 18.3125 54.390625 
Q 18.3125 48.734375 21.84375 45.5625 
Q 25.390625 42.390625 31.78125 42.390625 
Q 38.140625 42.390625 41.71875 45.5625 
Q 45.3125 48.734375 45.3125 54.390625 
Q 45.3125 60.0625 41.71875 63.234375 
Q 38.140625 66.40625 31.78125 66.40625 
Q 25.390625 66.40625 21.84375 63.234375 
Q 18.3125 60.0625 18.3125 54.390625 
z
" id="DejaVuSans-38"/>
      </defs>
      <g transform="translate(240.289449 308.077932)scale(0.1 -0.1)">
       <use xlink:href="#DejaVuSans-30"/>
       <use x="63.623047" xlink:href="#DejaVuSans-2e"/>
       <use x="95.410156" xlink:href="#DejaVuSans-38"/>
      </g>
     </g>
    </g>
    <g id="xtick_5">
     <g id="line2d_5">
      <g>
       <use style="stroke:#000000;stroke-width:0.8;" x="296.034022" xlink:href="#mf63cfb9bc5" y="293.479494"/>
      </g>
     </g>
     <g id="text_5">
      <!-- 1.0 -->
      <defs>
       <path d="M 12.40625 8.296875 
L 28.515625 8.296875 
L 28.515625 63.921875 
L 10.984375 60.40625 
L 10.984375 69.390625 
L 28.421875 72.90625 
L 38.28125 72.90625 
L 38.28125 8.296875 
L 54.390625 8.296875 
L 54.390625 0 
L 12.40625 0 
z
" id="DejaVuSans-31"/>
      </defs>
      <g transform="translate(288.08246 308.077932)scale(0.1 -0.1)">
       <use xlink:href="#DejaVuSans-31"/>
       <use x="63.623047" xlink:href="#DejaVuSans-2e"/>
       <use x="95.410156" xlink:href="#DejaVuSans-30"/>
      </g>
     </g>
    </g>
   </g>
   <g id="matplotlib.axis_2">
    <g id="ytick_1">
     <g id="line2d_6">
      <defs>
       <path d="M 0 0 
L -3.5 0 
" id="m9a1b969816" style="stroke:#000000;stroke-width:0.8;"/>
      </defs>
      <g>
       <use style="stroke:#000000;stroke-width:0.8;" x="57.6" xlink:href="#m9a1b969816" y="246.217517"/>
      </g>
     </g>
     <g id="text_6">
      <!-- 0.2 -->
      <g transform="translate(34.696875 250.016735)scale(0.1 -0.1)">
       <use xlink:href="#DejaVuSans-30"/>
       <use x="63.623047" xlink:href="#DejaVuSans-2e"/>
       <use x="95.410156" xlink:href="#DejaVuSans-32"/>
      </g>
     </g>
    </g>
    <g id="ytick_2">
     <g id="line2d_7">
      <g>
       <use style="stroke:#000000;stroke-width:0.8;" x="57.6" xlink:href="#m9a1b969816" y="198.424506"/>
      </g>
     </g>
     <g id="text_7">
      <!-- 0.4 -->
      <g transform="translate(34.696875 202.223724)scale(0.1 -0.1)">
       <use xlink:href="#DejaVuSans-30"/>
       <use x="63.623047" xlink:href="#DejaVuSans-2e"/>
       <use x="95.410156" xlink:href="#DejaVuSans-34"/>
      </g>
     </g>
    </g>
    <g id="ytick_3">
     <g id="line2d_8">
      <g>
       <use style="stroke:#000000;stroke-width:0.8;" x="57.6" xlink:href="#m9a1b969816" y="150.631494"/>
      </g>
     </g>
     <g id="text_8">
      <!-- 0.6 -->
      <g transform="translate(34.696875 154.430713)scale(0.1 -0.1)">
       <use xlink:href="#DejaVuSans-30"/>
       <use x="63.623047" xlink:href="#DejaVuSans-2e"/>
       <use x="95.410156" xlink:href="#DejaVuSans-36"/>
      </g>
     </g>
    </g>
    <g id="ytick_4">
     <g id="line2d_9">
      <g>
       <use style="stroke:#000000;stroke-width:0.8;" x="57.6" xlink:href="#m9a1b969816" y="102.838483"/>
      </g>
     </g>
     <g id="text_9">
      <!-- 0.8 -->
      <g transform="translate(34.696875 106.637702)scale(0.1 -0.1)">
       <use xlink:href="#DejaVuSans-30"/>
       <use x="63.623047" xlink:href="#DejaVuSans-2e"/>
       <use x="95.410156" xlink:href="#DejaVuSans-38"/>
      </g>
     </g>
    </g>
   </g>
   <g id="LineCollection_1">
    <path clip-path="url(#p162a075e4c)" d="M 287.544697 293.479494 
L 287.899347 291.355361 
L 288.226842 289.231227 
L 288.351262 287.107093 
L 288.28522 283.920892 
L 287.959518 279.672625 
L 284.443045 247.810617 
L 283.130512 238.252015 
L 282.237668 232.94168 
L 281.386214 228.693413 
L 280.30305 224.445145 
L 279.221166 221.258944 
L 278.257611 219.13481 
L 277.447851 217.749454 
L 276.385784 216.470718 
L 275.323717 215.595588 
L 273.91128 214.886543 
L 273.199584 214.635101 
L 271.07545 214.248323 
L 267.889249 214.042748 
L 261.516848 213.65668 
L 255.144446 212.992911 
L 242.399643 211.614228 
L 233.903108 210.939243 
L 224.344506 210.420982 
L 212.66177 210.041267 
L 191.420431 209.648572 
L 155.310156 209.124932 
L 136.192952 209.150131 
L 131.944684 208.913556 
L 127.696416 208.469668 
L 123.448149 207.797937 
L 118.137814 206.686634 
L 111.765413 205.287325 
L 108.579212 204.806439 
L 106.455078 204.672643 
L 104.330944 204.759282 
L 102.20681 205.132592 
L 100.082677 205.861898 
L 97.958543 207.00374 
L 95.834409 208.590109 
L 93.681129 210.638275 
L 90.874221 213.824476 
L 85.21374 220.476806 
L 83.089606 222.473972 
L 81.873678 223.383078 
L 80.965472 223.950348 
L 79.903405 224.454034 
L 78.841338 224.781963 
L 77.779271 224.918186 
L 76.717204 224.845516 
L 75.465885 224.445145 
L 74.593071 223.990903 
L 73.531004 223.157042 
L 72.468937 222.008741 
L 71.234936 220.196877 
L 70.112902 218.072743 
L 68.807429 214.886543 
L 67.767719 211.700342 
L 66.650514 207.452074 
L 65.741812 203.203807 
L 64.653222 196.831405 
L 63.666527 189.396937 
L 62.788059 180.900401 
L 61.848268 169.01077 
L 60.980952 154.348729 
L 60.309484 139.479792 
L 59.663195 120.362587 
L 59.085914 95.935048 
L 58.557636 64.073041 
L 58.585437 56.638572 
L 58.599925 55.576506 
L 58.599925 55.576506 
" style="fill:none;stroke:#000080;stroke-width:1.5;"/>
   </g>
   <g id="LineCollection_2">
    <path clip-path="url(#p162a075e4c)" d="M 290.59919 293.479494 
L 290.989197 287.107093 
L 290.833651 282.858825 
L 289.974128 270.114022 
L 288.846805 253.120952 
L 286.200683 214.886543 
L 285.359004 205.327941 
L 284.357687 195.769338 
L 283.387387 188.33487 
L 282.313392 181.962468 
L 281.37349 177.714201 
L 280.438167 174.528 
L 279.571985 172.329892 
L 278.231438 170.279732 
L 277.447851 169.509747 
L 276.385784 169.005509 
L 275.323717 168.894747 
L 273.736814 169.217665 
L 272.137517 169.810177 
L 267.889249 171.596823 
L 265.765115 172.253443 
L 263.640981 172.698837 
L 261.516848 172.955011 
L 258.330647 173.066623 
L 254.082379 172.899074 
L 246.647911 172.288066 
L 234.7004 171.341799 
L 224.344506 170.748832 
L 213.723836 170.36427 
L 199.916967 170.117372 
L 178.675628 169.758716 
L 166.992892 169.311665 
L 155.310156 168.613902 
L 131.944684 166.865485 
L 122.194455 166.031465 
L 117.075747 165.384438 
L 111.765413 164.4761 
L 102.20681 162.69509 
L 99.02061 162.420081 
L 96.896476 162.470816 
L 94.580259 162.845264 
L 92.648208 163.479724 
L 91.586141 163.984109 
L 90.023826 164.969398 
L 88.399941 166.28134 
L 86.275807 168.507194 
L 84.055382 171.341799 
L 79.903405 176.905098 
L 78.841338 178.064362 
L 77.779271 178.996074 
L 76.717204 179.644621 
L 75.655138 179.957405 
L 74.499007 179.838335 
L 73.531004 179.373926 
L 72.468937 178.369681 
L 71.332214 176.652134 
L 70.31612 174.528 
L 69.188793 171.341799 
L 68.043536 167.093532 
L 66.926899 161.783197 
L 65.712428 154.348729 
L 64.627891 145.852193 
L 63.664496 136.293591 
L 62.742041 124.610855 
L 61.791138 108.679851 
L 60.907311 88.50058 
L 60.235219 68.321309 
L 60.097175 60.88684 
L 60.245605 55.576506 
L 60.245605 55.576506 
" style="fill:none;stroke:#0000e8;stroke-width:1.5;"/>
   </g>
   <g id="LineCollection_3">
    <path clip-path="url(#p162a075e4c)" d="M 292.518335 293.479494 
L 292.671291 286.045026 
L 292.373424 278.610558 
L 287.877458 188.33487 
L 286.603313 170.279732 
L 285.55397 158.596996 
L 284.447559 149.038394 
L 283.490432 142.665993 
L 282.426599 137.355658 
L 281.584243 134.169457 
L 280.634052 131.579054 
L 279.571985 129.73525 
L 278.509918 128.738696 
L 277.447851 128.40946 
L 276.385784 128.591534 
L 275.323717 129.150298 
L 274.261651 129.969507 
L 272.106822 132.045323 
L 268.825732 135.231524 
L 266.827182 136.809306 
L 264.703048 138.067686 
L 262.578914 138.909317 
L 260.454781 139.388219 
L 258.330647 139.574067 
L 255.414945 139.479792 
L 253.020312 139.215581 
L 238.151375 137.169186 
L 232.841041 136.811159 
L 226.468639 136.606298 
L 219.034171 136.613044 
L 211.599703 136.841783 
L 200.979033 137.410387 
L 186.110097 138.195354 
L 176.551494 138.48248 
L 166.992892 138.564918 
L 156.372223 138.432024 
L 144.689487 138.046576 
L 128.758483 137.261862 
L 112.82748 136.318952 
L 104.330944 135.554024 
L 97.958543 134.981195 
L 94.772342 134.871777 
L 92.648208 134.944205 
L 90.292159 135.231524 
L 88.399941 135.659377 
L 86.275807 136.409431 
L 84.151673 137.482631 
L 82.027539 138.878125 
L 76.717204 142.715252 
L 75.655138 143.148986 
L 74.593071 143.289285 
L 73.531004 143.042324 
L 72.468937 142.307757 
L 71.179041 140.541859 
L 70.153778 138.417725 
L 69.062592 135.231524 
L 67.987946 130.983257 
L 66.963645 125.672922 
L 65.872173 118.238454 
L 64.803407 108.679851 
L 63.721291 95.935048 
L 62.700491 80.004045 
L 61.946083 64.073041 
L 61.949736 59.824773 
L 62.221646 55.576506 
L 62.221646 55.576506 
" style="fill:none;stroke:#0038ff;stroke-width:1.5;"/>
   </g>
   <g id="LineCollection_4">
    <path clip-path="url(#p162a075e4c)" d="M 294.02937 293.479494 
L 294.022083 283.920892 
L 293.442044 267.989888 
L 289.749908 171.341799 
L 288.660627 151.162528 
L 287.641455 136.293591 
L 286.624998 124.610855 
L 285.574381 115.052253 
L 284.379838 106.555717 
L 283.43909 101.245383 
L 282.514324 96.997115 
L 281.319169 92.748848 
L 280.144949 89.562647 
L 279.135329 87.438513 
L 278.509918 86.296086 
L 277.447851 84.844247 
L 276.385784 83.758967 
L 275.323717 82.983836 
L 274.261651 82.496241 
L 273.199584 82.250855 
L 272.137517 82.271034 
L 271.07545 82.581393 
L 270.013383 83.204123 
L 268.951316 84.395536 
L 268.437482 85.314379 
L 267.672781 87.438513 
L 266.827182 91.317114 
L 266.267234 93.810914 
L 265.656017 95.935048 
L 264.703048 98.436915 
L 263.640981 100.563239 
L 262.541719 102.30745 
L 260.793716 104.431584 
L 259.392714 105.754638 
L 257.26858 107.327529 
L 255.144446 108.544232 
L 253.020312 109.518849 
L 250.896178 110.327313 
L 247.709978 111.32262 
L 243.46171 112.355189 
L 239.213442 113.121872 
L 234.965175 113.653723 
L 230.189844 113.990186 
L 226.468639 114.080967 
L 221.158305 113.97003 
L 215.84797 113.627414 
L 208.980357 112.928119 
L 190.358364 110.897356 
L 185.04803 110.625254 
L 179.737695 110.569208 
L 173.365294 110.751928 
L 163.806691 111.312209 
L 151.061888 112.03028 
L 141.503286 112.337643 
L 130.882617 112.453284 
L 117.075747 112.369678 
L 91.586141 112.078856 
L 88.399941 112.297435 
L 85.21374 112.706672 
L 80.965472 113.540507 
L 78.585786 113.990186 
L 76.717204 114.124571 
L 75.647534 113.990186 
L 74.593071 113.615902 
L 73.531004 112.897015 
L 72.468937 111.708621 
L 71.339278 109.741918 
L 70.120365 106.555717 
L 68.973101 102.30745 
L 67.910716 96.997115 
L 66.931808 90.624714 
L 65.834682 81.066112 
L 64.935171 70.445442 
L 64.656261 64.073041 
L 64.721452 60.88684 
L 65.05184 57.700639 
L 65.263642 55.576506 
L 65.263642 55.576506 
" style="fill:none;stroke:#0094ff;stroke-width:1.5;"/>
   </g>
   <g id="LineCollection_5">
    <path clip-path="url(#p162a075e4c)" d="M 295.37401 293.479494 
L 295.25622 280.734691 
L 294.412264 250.996818 
L 291.805973 164.969398 
L 290.791249 140.541859 
L 289.77665 121.424654 
L 288.641346 104.431584 
L 287.801534 94.872981 
L 287.002735 88.50058 
L 286.202194 84.252312 
L 285.684654 82.128178 
L 284.66938 78.941978 
L 283.762087 76.817844 
L 282.538198 74.69371 
L 281.696119 73.537511 
L 280.634052 72.37894 
L 279.571985 71.451927 
L 278.02408 70.445442 
L 276.385784 69.686737 
L 275.323717 69.325293 
L 273.199584 68.886515 
L 271.07545 68.706788 
L 268.951316 68.745579 
L 266.827182 68.966363 
L 264.495916 69.383375 
L 261.516848 70.201718 
L 259.392714 70.960038 
L 257.26858 71.862373 
L 255.144446 72.922581 
L 252.144632 74.69371 
L 249.1722 76.817844 
L 246.625379 78.941978 
L 243.305355 82.128178 
L 234.965175 90.748657 
L 232.447554 92.748848 
L 230.716907 93.867562 
L 228.592773 94.958788 
L 225.978606 95.935048 
L 224.344506 96.377502 
L 222.220372 96.78034 
L 220.096238 97.017576 
L 216.910037 97.105449 
L 213.723836 96.928416 
L 210.537636 96.528456 
L 206.289368 95.726287 
L 202.0411 94.688182 
L 195.259814 92.748848 
L 185.04803 89.757321 
L 178.675628 88.144667 
L 173.365294 87.027922 
L 168.054959 86.12052 
L 161.682558 85.273709 
L 154.248089 84.531133 
L 141.503286 83.559144 
L 128.758483 82.530194 
L 120.261948 81.635723 
L 112.82748 80.643681 
L 106.455078 79.582215 
L 101.144743 78.485373 
L 96.896476 77.397183 
L 93.710275 76.388455 
L 91.586141 75.579114 
L 89.462007 74.590864 
L 87.337874 73.290814 
L 86.275807 72.45925 
L 85.21374 71.353858 
L 84.567837 70.445442 
L 84.064215 69.383375 
L 83.790034 68.321309 
L 83.714837 67.259242 
L 83.816168 66.197175 
L 84.151673 64.913272 
L 84.945777 63.010974 
L 87.692962 57.700639 
L 87.989263 56.638572 
L 88.06559 55.576506 
L 88.06559 55.576506 
" style="fill:none;stroke:#0cf4eb;stroke-width:1.5;"/>
   </g>
   <g id="LineCollection_6">
    <path clip-path="url(#p162a075e4c)" d="M 299.127988 293.479494 
L 299.023771 287.107093 
L 298.669363 280.734691 
L 298.001627 273.300223 
L 296.452806 257.369219 
L 295.363355 226.569279 
L 293.861881 166.031465 
L 292.90615 136.293591 
L 291.894547 111.866052 
L 291.032996 95.935048 
L 290.410921 88.50058 
L 289.886655 84.252312 
L 289.130587 79.892033 
L 288.360882 76.817844 
L 287.671997 74.69371 
L 286.797327 72.569576 
L 285.632043 70.445442 
L 284.88232 69.357688 
L 283.820253 68.132235 
L 282.758186 67.159622 
L 281.387124 66.197175 
L 279.571985 65.268559 
L 278.509918 64.867968 
L 276.385784 64.282562 
L 274.261651 63.915342 
L 271.07545 63.657546 
L 267.889249 63.650547 
L 264.703048 63.838532 
L 260.454781 64.338781 
L 256.206513 65.090685 
L 251.405522 66.197175 
L 246.647911 67.506666 
L 236.027242 70.513104 
L 232.841041 71.078263 
L 230.716907 71.259077 
L 228.592773 71.186688 
L 226.468639 70.752675 
L 225.406572 70.342756 
L 223.942157 69.383375 
L 223.009906 68.321309 
L 222.456683 67.259242 
L 222.148501 66.197175 
L 222.016125 65.135108 
L 222.112022 63.010974 
L 222.717648 59.824773 
L 223.134982 57.700639 
L 223.309217 55.576506 
L 223.309217 55.576506 
" style="fill:none;stroke:#56ffa0;stroke-width:1.5;"/>
   </g>
   <g id="LineCollection_7">
    <path clip-path="url(#p162a075e4c)" d="M 305.701701 293.479494 
L 305.579714 286.045026 
L 305.244908 278.610558 
L 304.573635 269.051955 
L 303.272286 254.183019 
L 298.68919 205.680267 
L 296.477084 181.962468 
L 294.974016 136.293591 
L 294.064102 108.679851 
L 293.378855 93.432024 
L 292.870656 86.376446 
L 292.308122 81.066112 
L 291.634521 76.817844 
L 290.935122 73.631643 
L 289.961162 70.445442 
L 289.064706 68.321309 
L 287.809613 66.197175 
L 286.97537 65.135108 
L 285.91236 64.073041 
L 284.515191 63.010974 
L 282.646438 61.948907 
L 280.634052 61.08849 
L 277.447851 60.050918 
L 273.199584 58.8205 
L 272.99073 58.762706 
L 270.700963 57.700639 
L 269.887531 56.638572 
L 269.997336 55.576506 
L 269.997336 55.576506 
" style="fill:none;stroke:#a0ff56;stroke-width:1.5;"/>
   </g>
   <g id="LineCollection_8">
    <path clip-path="url(#p162a075e4c)" d="M 312.434721 293.479494 
L 312.321149 284.982959 
L 311.969239 275.424357 
L 311.304656 263.741621 
L 309.963349 244.624416 
L 306.487297 198.955539 
L 304.271614 172.403866 
L 302.469687 153.286662 
L 300.756625 137.355658 
L 299.053249 123.548788 
L 297.400545 111.866052 
L 296.505347 105.493651 
L 295.674557 92.748848 
L 295.188134 85.314379 
L 294.664389 78.941978 
L 294.004669 73.631643 
L 293.378855 70.133059 
L 292.649209 67.259242 
L 291.89414 65.135108 
L 290.824416 63.010974 
L 290.124781 61.948907 
L 288.313812 59.824773 
L 287.006454 58.444312 
L 285.944387 57.200871 
L 285.516694 56.638572 
L 284.972904 55.576506 
L 284.972904 55.576506 
" style="fill:none;stroke:#ebff0c;stroke-width:1.5;"/>
   </g>
   <g id="LineCollection_9">
    <path clip-path="url(#p162a075e4c)" d="M 319.294247 293.479494 
L 319.174075 282.858825 
L 318.816955 271.176089 
L 318.081267 255.245086 
L 316.429767 225.507212 
L 313.934517 184.086602 
L 312.259079 159.659063 
L 310.731354 140.541859 
L 309.309859 125.405372 
L 307.926992 112.928119 
L 306.672231 103.369517 
L 305.335317 94.872981 
L 303.999524 87.895674 
L 302.927145 83.190245 
L 301.487865 77.879911 
L 300.103243 73.631643 
L 298.68919 69.984666 
L 297.436635 67.259242 
L 296.565056 65.606334 
L 295.709721 61.948907 
L 295.449818 60.88684 
L 294.796388 56.638572 
L 294.693303 55.576506 
L 294.693303 55.576506 
" style="fill:none;stroke:#ffab00;stroke-width:1.5;"/>
   </g>
   <g id="LineCollection_10">
    <path clip-path="url(#p162a075e4c)" d="M 326.243876 293.479494 
L 326.114833 279.672625 
L 325.716372 263.741621 
L 324.876461 240.376149 
L 322.900998 192.583138 
L 321.393898 160.72113 
L 320.118291 138.417725 
L 318.932095 121.424654 
L 317.747033 107.617784 
L 316.510881 95.935048 
L 315.142333 85.314379 
L 312.927248 70.445442 
L 312.100296 64.073041 
L 311.741427 59.824773 
L 311.623608 55.576506 
L 311.623608 55.576506 
" style="fill:none;stroke:#ff5500;stroke-width:1.5;"/>
   </g>
   <g id="LineCollection_11">
    <path clip-path="url(#p162a075e4c)" d="M 333.253996 293.479494 
L 333.132854 275.424357 
L 332.743889 253.120952 
L 331.668217 207.452074 
L 330.334757 158.596996 
L 329.391038 132.045323 
L 328.50946 112.928119 
L 327.57253 96.997115 
L 325.33141 61.948907 
L 325.239963 55.576506 
L 325.239963 55.576506 
" style="fill:none;stroke:#e80000;stroke-width:1.5;"/>
   </g>
   <g id="LineCollection_12">
    <path clip-path="url(#p162a075e4c)" d="M 340.298521 293.479494 
L 340.181105 260.55542 
L 339.650129 192.583138 
L 338.948202 123.548788 
L 338.269369 87.438513 
L 337.969864 71.507509 
L 337.799954 55.576506 
L 337.799954 55.576506 
" style="fill:none;stroke:#800000;stroke-width:1.5;"/>
   </g>
   <g id="patch_3">
    <path d="M 57.6 293.479494 
L 57.6 55.576506 
" style="fill:none;stroke:#000000;stroke-linecap:square;stroke-linejoin:miter;stroke-width:0.8;"/>
   </g>
   <g id="patch_4">
    <path d="M 343.296 293.479494 
L 343.296 55.576506 
" style="fill:none;stroke:#000000;stroke-linecap:square;stroke-linejoin:miter;stroke-width:0.8;"/>
   </g>
   <g id="patch_5">
    <path d="M 57.6 293.479494 
L 343.296 293.479494 
" style="fill:none;stroke:#000000;stroke-linecap:square;stroke-linejoin:miter;stroke-width:0.8;"/>
   </g>
   <g id="patch_6">
    <path d="M 57.6 55.576506 
L 343.296 55.576506 
" style="fill:none;stroke:#000000;stroke-linecap:square;stroke-linejoin:miter;stroke-width:0.8;"/>
   </g>
   <g id="text_10">
    <!-- Time:0.02305 s -->
    <defs>
     <path d="M -0.296875 72.90625 
L 61.375 72.90625 
L 61.375 64.59375 
L 35.5 64.59375 
L 35.5 0 
L 25.59375 0 
L 25.59375 64.59375 
L -0.296875 64.59375 
z
" id="DejaVuSans-54"/>
     <path d="M 9.421875 54.6875 
L 18.40625 54.6875 
L 18.40625 0 
L 9.421875 0 
z
M 9.421875 75.984375 
L 18.40625 75.984375 
L 18.40625 64.59375 
L 9.421875 64.59375 
z
" id="DejaVuSans-69"/>
     <path d="M 52 44.1875 
Q 55.375 50.25 60.0625 53.125 
Q 64.75 56 71.09375 56 
Q 79.640625 56 84.28125 50.015625 
Q 88.921875 44.046875 88.921875 33.015625 
L 88.921875 0 
L 79.890625 0 
L 79.890625 32.71875 
Q 79.890625 40.578125 77.09375 44.375 
Q 74.3125 48.1875 68.609375 48.1875 
Q 61.625 48.1875 57.5625 43.546875 
Q 53.515625 38.921875 53.515625 30.90625 
L 53.515625 0 
L 44.484375 0 
L 44.484375 32.71875 
Q 44.484375 40.625 41.703125 44.40625 
Q 38.921875 48.1875 33.109375 48.1875 
Q 26.21875 48.1875 22.15625 43.53125 
Q 18.109375 38.875 18.109375 30.90625 
L 18.109375 0 
L 9.078125 0 
L 9.078125 54.6875 
L 18.109375 54.6875 
L 18.109375 46.1875 
Q 21.1875 51.21875 25.484375 53.609375 
Q 29.78125 56 35.6875 56 
Q 41.65625 56 45.828125 52.96875 
Q 50 49.953125 52 44.1875 
z
" id="DejaVuSans-6d"/>
     <path d="M 56.203125 29.59375 
L 56.203125 25.203125 
L 14.890625 25.203125 
Q 15.484375 15.921875 20.484375 11.0625 
Q 25.484375 6.203125 34.421875 6.203125 
Q 39.59375 6.203125 44.453125 7.46875 
Q 49.3125 8.734375 54.109375 11.28125 
L 54.109375 2.78125 
Q 49.265625 0.734375 44.1875 -0.34375 
Q 39.109375 -1.421875 33.890625 -1.421875 
Q 20.796875 -1.421875 13.15625 6.1875 
Q 5.515625 13.8125 5.515625 26.8125 
Q 5.515625 40.234375 12.765625 48.109375 
Q 20.015625 56 32.328125 56 
Q 43.359375 56 49.78125 48.890625 
Q 56.203125 41.796875 56.203125 29.59375 
z
M 47.21875 32.234375 
Q 47.125 39.59375 43.09375 43.984375 
Q 39.0625 48.390625 32.421875 48.390625 
Q 24.90625 48.390625 20.390625 44.140625 
Q 15.875 39.890625 15.1875 32.171875 
z
" id="DejaVuSans-65"/>
     <path d="M 11.71875 12.40625 
L 22.015625 12.40625 
L 22.015625 0 
L 11.71875 0 
z
M 11.71875 51.703125 
L 22.015625 51.703125 
L 22.015625 39.3125 
L 11.71875 39.3125 
z
" id="DejaVuSans-3a"/>
     <path d="M 40.578125 39.3125 
Q 47.65625 37.796875 51.625 33 
Q 55.609375 28.21875 55.609375 21.1875 
Q 55.609375 10.40625 48.1875 4.484375 
Q 40.765625 -1.421875 27.09375 -1.421875 
Q 22.515625 -1.421875 17.65625 -0.515625 
Q 12.796875 0.390625 7.625 2.203125 
L 7.625 11.71875 
Q 11.71875 9.328125 16.59375 8.109375 
Q 21.484375 6.890625 26.8125 6.890625 
Q 36.078125 6.890625 40.9375 10.546875 
Q 45.796875 14.203125 45.796875 21.1875 
Q 45.796875 27.640625 41.28125 31.265625 
Q 36.765625 34.90625 28.71875 34.90625 
L 20.21875 34.90625 
L 20.21875 43.015625 
L 29.109375 43.015625 
Q 36.375 43.015625 40.234375 45.921875 
Q 44.09375 48.828125 44.09375 54.296875 
Q 44.09375 59.90625 40.109375 62.90625 
Q 36.140625 65.921875 28.71875 65.921875 
Q 24.65625 65.921875 20.015625 65.03125 
Q 15.375 64.15625 9.8125 62.3125 
L 9.8125 71.09375 
Q 15.4375 72.65625 20.34375 73.4375 
Q 25.25 74.21875 29.59375 74.21875 
Q 40.828125 74.21875 47.359375 69.109375 
Q 53.90625 64.015625 53.90625 55.328125 
Q 53.90625 49.265625 50.4375 45.09375 
Q 46.96875 40.921875 40.578125 39.3125 
z
" id="DejaVuSans-33"/>
     <path d="M 10.796875 72.90625 
L 49.515625 72.90625 
L 49.515625 64.59375 
L 19.828125 64.59375 
L 19.828125 46.734375 
Q 21.96875 47.46875 24.109375 47.828125 
Q 26.265625 48.1875 28.421875 48.1875 
Q 40.625 48.1875 47.75 41.5 
Q 54.890625 34.8125 54.890625 23.390625 
Q 54.890625 11.625 47.5625 5.09375 
Q 40.234375 -1.421875 26.90625 -1.421875 
Q 22.3125 -1.421875 17.546875 -0.640625 
Q 12.796875 0.140625 7.71875 1.703125 
L 7.71875 11.625 
Q 12.109375 9.234375 16.796875 8.0625 
Q 21.484375 6.890625 26.703125 6.890625 
Q 35.15625 6.890625 40.078125 11.328125 
Q 45.015625 15.765625 45.015625 23.390625 
Q 45.015625 31 40.078125 35.4375 
Q 35.15625 39.890625 26.703125 39.890625 
Q 22.75 39.890625 18.8125 39.015625 
Q 14.890625 38.140625 10.796875 36.28125 
z
" id="DejaVuSans-35"/>
     <path id="DejaVuSans-20"/>
     <path d="M 44.28125 53.078125 
L 44.28125 44.578125 
Q 40.484375 46.53125 36.375 47.5 
Q 32.28125 48.484375 27.875 48.484375 
Q 21.1875 48.484375 17.84375 46.4375 
Q 14.5 44.390625 14.5 40.28125 
Q 14.5 37.15625 16.890625 35.375 
Q 19.28125 33.59375 26.515625 31.984375 
L 29.59375 31.296875 
Q 39.15625 29.25 43.1875 25.515625 
Q 47.21875 21.78125 47.21875 15.09375 
Q 47.21875 7.46875 41.1875 3.015625 
Q 35.15625 -1.421875 24.609375 -1.421875 
Q 20.21875 -1.421875 15.453125 -0.5625 
Q 10.6875 0.296875 5.421875 2 
L 5.421875 11.28125 
Q 10.40625 8.6875 15.234375 7.390625 
Q 20.0625 6.109375 24.8125 6.109375 
Q 31.15625 6.109375 34.5625 8.28125 
Q 37.984375 10.453125 37.984375 14.40625 
Q 37.984375 18.0625 35.515625 20.015625 
Q 33.0625 21.96875 24.703125 23.78125 
L 21.578125 24.515625 
Q 13.234375 26.265625 9.515625 29.90625 
Q 5.8125 33.546875 5.8125 39.890625 
Q 5.8125 47.609375 11.28125 51.796875 
Q 16.75 56 26.8125 56 
Q 31.78125 56 36.171875 55.265625 
Q 40.578125 54.546875 44.28125 53.078125 
z
" id="DejaVuSans-73"/>
    </defs>
    <g transform="translate(153.717375 49.576506)scale(0.12 -0.12)">
     <use xlink:href="#DejaVuSans-54"/>
     <use x="61.037109" xlink:href="#DejaVuSans-69"/>
     <use x="88.820312" xlink:href="#DejaVuSans-6d"/>
     <use x="186.232422" xlink:href="#DejaVuSans-65"/>
     <use x="247.755859" xlink:href="#DejaVuSans-3a"/>
     <use x="281.447266" xlink:href="#DejaVuSans-30"/>
     <use x="345.070312" xlink:href="#DejaVuSans-2e"/>
     <use x="376.857422" xlink:href="#DejaVuSans-30"/>
     <use x="440.480469" xlink:href="#DejaVuSans-32"/>
     <use x="504.103516" xlink:href="#DejaVuSans-33"/>
     <use x="567.726562" xlink:href="#DejaVuSans-30"/>
     <use x="631.349609" xlink:href="#DejaVuSans-35"/>
     <use x="694.972656" xlink:href="#DejaVuSans-20"/>
     <use x="726.759766" xlink:href="#DejaVuSans-73"/>
    </g>
   </g>
  </g>
  <g id="axes_2">
   <g id="patch_7">
    <path clip-path="url(#p1c1e7742dd)" d="M 361.152 307.584 
L 361.152 283.392 
L 361.152 65.664 
L 361.152 41.472 
L 374.4576 41.472 
L 374.4576 65.664 
L 374.4576 283.392 
L 374.4576 307.584 
z
" style="fill:#ffffff;stroke:#ffffff;stroke-linejoin:miter;stroke-width:0.01;"/>
   </g>
   <g id="matplotlib.axis_3"/>
   <g id="matplotlib.axis_4">
    <g id="ytick_5">
     <g id="line2d_10">
      <defs>
       <path d="M 0 0 
L 3.5 0 
" id="m9597e624a4" style="stroke:#000000;stroke-width:0.8;"/>
      </defs>
      <g>
       <use style="stroke:#000000;stroke-width:0.8;" x="374.4576" xlink:href="#m9597e624a4" y="307.584"/>
      </g>
     </g>
     <g id="text_11">
      <!-- 0.08 -->
      <g transform="translate(381.4576 311.383219)scale(0.1 -0.1)">
       <use xlink:href="#DejaVuSans-30"/>
       <use x="63.623047" xlink:href="#DejaVuSans-2e"/>
       <use x="95.410156" xlink:href="#DejaVuSans-30"/>
       <use x="159.033203" xlink:href="#DejaVuSans-38"/>
      </g>
     </g>
    </g>
    <g id="ytick_6">
     <g id="line2d_11">
      <g>
       <use style="stroke:#000000;stroke-width:0.8;" x="374.4576" xlink:href="#m9597e624a4" y="259.2"/>
      </g>
     </g>
     <g id="text_12">
      <!-- 0.24 -->
      <g transform="translate(381.4576 262.999219)scale(0.1 -0.1)">
       <use xlink:href="#DejaVuSans-30"/>
       <use x="63.623047" xlink:href="#DejaVuSans-2e"/>
       <use x="95.410156" xlink:href="#DejaVuSans-32"/>
       <use x="159.033203" xlink:href="#DejaVuSans-34"/>
      </g>
     </g>
    </g>
    <g id="ytick_7">
     <g id="line2d_12">
      <g>
       <use style="stroke:#000000;stroke-width:0.8;" x="374.4576" xlink:href="#m9597e624a4" y="210.816"/>
      </g>
     </g>
     <g id="text_13">
      <!-- 0.40 -->
      <g transform="translate(381.4576 214.615219)scale(0.1 -0.1)">
       <use xlink:href="#DejaVuSans-30"/>
       <use x="63.623047" xlink:href="#DejaVuSans-2e"/>
       <use x="95.410156" xlink:href="#DejaVuSans-34"/>
       <use x="159.033203" xlink:href="#DejaVuSans-30"/>
      </g>
     </g>
    </g>
    <g id="ytick_8">
     <g id="line2d_13">
      <g>
       <use style="stroke:#000000;stroke-width:0.8;" x="374.4576" xlink:href="#m9597e624a4" y="162.432"/>
      </g>
     </g>
     <g id="text_14">
      <!-- 0.56 -->
      <g transform="translate(381.4576 166.231219)scale(0.1 -0.1)">
       <use xlink:href="#DejaVuSans-30"/>
       <use x="63.623047" xlink:href="#DejaVuSans-2e"/>
       <use x="95.410156" xlink:href="#DejaVuSans-35"/>
       <use x="159.033203" xlink:href="#DejaVuSans-36"/>
      </g>
     </g>
    </g>
    <g id="ytick_9">
     <g id="line2d_14">
      <g>
       <use style="stroke:#000000;stroke-width:0.8;" x="374.4576" xlink:href="#m9597e624a4" y="114.048"/>
      </g>
     </g>
     <g id="text_15">
      <!-- 0.72 -->
      <defs>
       <path d="M 8.203125 72.90625 
L 55.078125 72.90625 
L 55.078125 68.703125 
L 28.609375 0 
L 18.3125 0 
L 43.21875 64.59375 
L 8.203125 64.59375 
z
" id="DejaVuSans-37"/>
      </defs>
      <g transform="translate(381.4576 117.847219)scale(0.1 -0.1)">
       <use xlink:href="#DejaVuSans-30"/>
       <use x="63.623047" xlink:href="#DejaVuSans-2e"/>
       <use x="95.410156" xlink:href="#DejaVuSans-37"/>
       <use x="159.033203" xlink:href="#DejaVuSans-32"/>
      </g>
     </g>
    </g>
    <g id="ytick_10">
     <g id="line2d_15">
      <g>
       <use style="stroke:#000000;stroke-width:0.8;" x="374.4576" xlink:href="#m9597e624a4" y="65.664"/>
      </g>
     </g>
     <g id="text_16">
      <!-- 0.88 -->
      <g transform="translate(381.4576 69.463219)scale(0.1 -0.1)">
       <use xlink:href="#DejaVuSans-30"/>
       <use x="63.623047" xlink:href="#DejaVuSans-2e"/>
       <use x="95.410156" xlink:href="#DejaVuSans-38"/>
       <use x="159.033203" xlink:href="#DejaVuSans-38"/>
      </g>
     </g>
    </g>
   </g>
   <g id="LineCollection_13">
    <path clip-path="url(#p1c1e7742dd)" d="M 361.152 307.584 
L 374.4576 307.584 
" style="fill:none;stroke:#000080;stroke-width:1.5;"/>
    <path clip-path="url(#p1c1e7742dd)" d="M 361.152 283.392 
L 374.4576 283.392 
" style="fill:none;stroke:#0000e8;stroke-width:1.5;"/>
    <path clip-path="url(#p1c1e7742dd)" d="M 361.152 259.2 
L 374.4576 259.2 
" style="fill:none;stroke:#0038ff;stroke-width:1.5;"/>
    <path clip-path="url(#p1c1e7742dd)" d="M 361.152 235.008 
L 374.4576 235.008 
" style="fill:none;stroke:#0094ff;stroke-width:1.5;"/>
    <path clip-path="url(#p1c1e7742dd)" d="M 361.152 210.816 
L 374.4576 210.816 
" style="fill:none;stroke:#0cf4eb;stroke-width:1.5;"/>
    <path clip-path="url(#p1c1e7742dd)" d="M 361.152 186.624 
L 374.4576 186.624 
" style="fill:none;stroke:#56ffa0;stroke-width:1.5;"/>
    <path clip-path="url(#p1c1e7742dd)" d="M 361.152 162.432 
L 374.4576 162.432 
" style="fill:none;stroke:#a0ff56;stroke-width:1.5;"/>
    <path clip-path="url(#p1c1e7742dd)" d="M 361.152 138.24 
L 374.4576 138.24 
" style="fill:none;stroke:#ebff0c;stroke-width:1.5;"/>
    <path clip-path="url(#p1c1e7742dd)" d="M 361.152 114.048 
L 374.4576 114.048 
" style="fill:none;stroke:#ffab00;stroke-width:1.5;"/>
    <path clip-path="url(#p1c1e7742dd)" d="M 361.152 89.856 
L 374.4576 89.856 
" style="fill:none;stroke:#ff5500;stroke-width:1.5;"/>
    <path clip-path="url(#p1c1e7742dd)" d="M 361.152 65.664 
L 374.4576 65.664 
" style="fill:none;stroke:#e80000;stroke-width:1.5;"/>
    <path clip-path="url(#p1c1e7742dd)" d="M 361.152 41.472 
L 374.4576 41.472 
" style="fill:none;stroke:#800000;stroke-width:1.5;"/>
   </g>
   <g id="patch_8">
    <path d="M 361.152 307.584 
L 361.152 283.392 
L 361.152 65.664 
L 361.152 41.472 
L 374.4576 41.472 
L 374.4576 65.664 
L 374.4576 283.392 
L 374.4576 307.584 
z
" style="fill:none;stroke:#000000;stroke-linejoin:miter;stroke-width:0.8;"/>
   </g>
  </g>
 </g>
 <defs>
  <clipPath id="p162a075e4c">
   <rect height="237.902989" width="285.696" x="57.6" y="55.576506"/>
  </clipPath>
  <clipPath id="p1c1e7742dd">
   <rect height="266.112" width="13.3056" x="361.152" y="41.472"/>
  </clipPath>
 </defs>
</svg>
