<?xml version="1.0" encoding="utf-8" standalone="no"?>
<!DOCTYPE svg PUBLIC "-//W3C//DTD SVG 1.1//EN"
  "http://www.w3.org/Graphics/SVG/1.1/DTD/svg11.dtd">
<!-- Created with matplotlib (http://matplotlib.org/) -->
<svg height="345.6pt" version="1.1" viewBox="0 0 460.8 345.6" width="460.8pt" xmlns="http://www.w3.org/2000/svg" xmlns:xlink="http://www.w3.org/1999/xlink">
 <defs>
  <style type="text/css">
*{stroke-linecap:butt;stroke-linejoin:round;}
  </style>
 </defs>
 <g id="figure_1">
  <g id="patch_1">
   <path d="M 0 345.6 
L 460.8 345.6 
L 460.8 0 
L 0 0 
z
" style="fill:#ffffff;"/>
  </g>
  <g id="axes_1">
   <g id="patch_2">
    <path d="M 57.6 293.479494 
L 343.296 293.479494 
L 343.296 55.576506 
L 57.6 55.576506 
z
" style="fill:#ffffff;"/>
   </g>
   <g id="matplotlib.axis_1">
    <g id="xtick_1">
     <g id="line2d_1">
      <defs>
       <path d="M 0 0 
L 0 3.5 
" id="me33f3592b6" style="stroke:#000000;stroke-width:0.8;"/>
      </defs>
      <g>
       <use style="stroke:#000000;stroke-width:0.8;" x="104.861978" xlink:href="#me33f3592b6" y="293.479494"/>
      </g>
     </g>
     <g id="text_1">
      <!-- 0.2 -->
      <defs>
       <path d="M 31.78125 66.40625 
Q 24.171875 66.40625 20.328125 58.90625 
Q 16.5 51.421875 16.5 36.375 
Q 16.5 21.390625 20.328125 13.890625 
Q 24.171875 6.390625 31.78125 6.390625 
Q 39.453125 6.390625 43.28125 13.890625 
Q 47.125 21.390625 47.125 36.375 
Q 47.125 51.421875 43.28125 58.90625 
Q 39.453125 66.40625 31.78125 66.40625 
z
M 31.78125 74.21875 
Q 44.046875 74.21875 50.515625 64.515625 
Q 56.984375 54.828125 56.984375 36.375 
Q 56.984375 17.96875 50.515625 8.265625 
Q 44.046875 -1.421875 31.78125 -1.421875 
Q 19.53125 -1.421875 13.0625 8.265625 
Q 6.59375 17.96875 6.59375 36.375 
Q 6.59375 54.828125 13.0625 64.515625 
Q 19.53125 74.21875 31.78125 74.21875 
z
" id="DejaVuSans-30"/>
       <path d="M 10.6875 12.40625 
L 21 12.40625 
L 21 0 
L 10.6875 0 
z
" id="DejaVuSans-2e"/>
       <path d="M 19.1875 8.296875 
L 53.609375 8.296875 
L 53.609375 0 
L 7.328125 0 
L 7.328125 8.296875 
Q 12.9375 14.109375 22.625 23.890625 
Q 32.328125 33.6875 34.8125 36.53125 
Q 39.546875 41.84375 41.421875 45.53125 
Q 43.3125 49.21875 43.3125 52.78125 
Q 43.3125 58.59375 39.234375 62.25 
Q 35.15625 65.921875 28.609375 65.921875 
Q 23.96875 65.921875 18.8125 64.3125 
Q 13.671875 62.703125 7.8125 59.421875 
L 7.8125 69.390625 
Q 13.765625 71.78125 18.9375 73 
Q 24.125 74.21875 28.421875 74.21875 
Q 39.75 74.21875 46.484375 68.546875 
Q 53.21875 62.890625 53.21875 53.421875 
Q 53.21875 48.921875 51.53125 44.890625 
Q 49.859375 40.875 45.40625 35.40625 
Q 44.1875 33.984375 37.640625 27.21875 
Q 31.109375 20.453125 19.1875 8.296875 
z
" id="DejaVuSans-32"/>
      </defs>
      <g transform="translate(96.910415 308.077932)scale(0.1 -0.1)">
       <use xlink:href="#DejaVuSans-30"/>
       <use x="63.623047" xlink:href="#DejaVuSans-2e"/>
       <use x="95.410156" xlink:href="#DejaVuSans-32"/>
      </g>
     </g>
    </g>
    <g id="xtick_2">
     <g id="line2d_2">
      <g>
       <use style="stroke:#000000;stroke-width:0.8;" x="152.654989" xlink:href="#me33f3592b6" y="293.479494"/>
      </g>
     </g>
     <g id="text_2">
      <!-- 0.4 -->
      <defs>
       <path d="M 37.796875 64.3125 
L 12.890625 25.390625 
L 37.796875 25.390625 
z
M 35.203125 72.90625 
L 47.609375 72.90625 
L 47.609375 25.390625 
L 58.015625 25.390625 
L 58.015625 17.1875 
L 47.609375 17.1875 
L 47.609375 0 
L 37.796875 0 
L 37.796875 17.1875 
L 4.890625 17.1875 
L 4.890625 26.703125 
z
" id="DejaVuSans-34"/>
      </defs>
      <g transform="translate(144.703426 308.077932)scale(0.1 -0.1)">
       <use xlink:href="#DejaVuSans-30"/>
       <use x="63.623047" xlink:href="#DejaVuSans-2e"/>
       <use x="95.410156" xlink:href="#DejaVuSans-34"/>
      </g>
     </g>
    </g>
    <g id="xtick_3">
     <g id="line2d_3">
      <g>
       <use style="stroke:#000000;stroke-width:0.8;" x="200.448" xlink:href="#me33f3592b6" y="293.479494"/>
      </g>
     </g>
     <g id="text_3">
      <!-- 0.6 -->
      <defs>
       <path d="M 33.015625 40.375 
Q 26.375 40.375 22.484375 35.828125 
Q 18.609375 31.296875 18.609375 23.390625 
Q 18.609375 15.53125 22.484375 10.953125 
Q 26.375 6.390625 33.015625 6.390625 
Q 39.65625 6.390625 43.53125 10.953125 
Q 47.40625 15.53125 47.40625 23.390625 
Q 47.40625 31.296875 43.53125 35.828125 
Q 39.65625 40.375 33.015625 40.375 
z
M 52.59375 71.296875 
L 52.59375 62.3125 
Q 48.875 64.0625 45.09375 64.984375 
Q 41.3125 65.921875 37.59375 65.921875 
Q 27.828125 65.921875 22.671875 59.328125 
Q 17.53125 52.734375 16.796875 39.40625 
Q 19.671875 43.65625 24.015625 45.921875 
Q 28.375 48.1875 33.59375 48.1875 
Q 44.578125 48.1875 50.953125 41.515625 
Q 57.328125 34.859375 57.328125 23.390625 
Q 57.328125 12.15625 50.6875 5.359375 
Q 44.046875 -1.421875 33.015625 -1.421875 
Q 20.359375 -1.421875 13.671875 8.265625 
Q 6.984375 17.96875 6.984375 36.375 
Q 6.984375 53.65625 15.1875 63.9375 
Q 23.390625 74.21875 37.203125 74.21875 
Q 40.921875 74.21875 44.703125 73.484375 
Q 48.484375 72.75 52.59375 71.296875 
z
" id="DejaVuSans-36"/>
      </defs>
      <g transform="translate(192.496438 308.077932)scale(0.1 -0.1)">
       <use xlink:href="#DejaVuSans-30"/>
       <use x="63.623047" xlink:href="#DejaVuSans-2e"/>
       <use x="95.410156" xlink:href="#DejaVuSans-36"/>
      </g>
     </g>
    </g>
    <g id="xtick_4">
     <g id="line2d_4">
      <g>
       <use style="stroke:#000000;stroke-width:0.8;" x="248.241011" xlink:href="#me33f3592b6" y="293.479494"/>
      </g>
     </g>
     <g id="text_4">
      <!-- 0.8 -->
      <defs>
       <path d="M 31.78125 34.625 
Q 24.75 34.625 20.71875 30.859375 
Q 16.703125 27.09375 16.703125 20.515625 
Q 16.703125 13.921875 20.71875 10.15625 
Q 24.75 6.390625 31.78125 6.390625 
Q 38.8125 6.390625 42.859375 10.171875 
Q 46.921875 13.96875 46.921875 20.515625 
Q 46.921875 27.09375 42.890625 30.859375 
Q 38.875 34.625 31.78125 34.625 
z
M 21.921875 38.8125 
Q 15.578125 40.375 12.03125 44.71875 
Q 8.5 49.078125 8.5 55.328125 
Q 8.5 64.0625 14.71875 69.140625 
Q 20.953125 74.21875 31.78125 74.21875 
Q 42.671875 74.21875 48.875 69.140625 
Q 55.078125 64.0625 55.078125 55.328125 
Q 55.078125 49.078125 51.53125 44.71875 
Q 48 40.375 41.703125 38.8125 
Q 48.828125 37.15625 52.796875 32.3125 
Q 56.78125 27.484375 56.78125 20.515625 
Q 56.78125 9.90625 50.3125 4.234375 
Q 43.84375 -1.421875 31.78125 -1.421875 
Q 19.734375 -1.421875 13.25 4.234375 
Q 6.78125 9.90625 6.78125 20.515625 
Q 6.78125 27.484375 10.78125 32.3125 
Q 14.796875 37.15625 21.921875 38.8125 
z
M 18.3125 54.390625 
Q 18.3125 48.734375 21.84375 45.5625 
Q 25.390625 42.390625 31.78125 42.390625 
Q 38.140625 42.390625 41.71875 45.5625 
Q 45.3125 48.734375 45.3125 54.390625 
Q 45.3125 60.0625 41.71875 63.234375 
Q 38.140625 66.40625 31.78125 66.40625 
Q 25.390625 66.40625 21.84375 63.234375 
Q 18.3125 60.0625 18.3125 54.390625 
z
" id="DejaVuSans-38"/>
      </defs>
      <g transform="translate(240.289449 308.077932)scale(0.1 -0.1)">
       <use xlink:href="#DejaVuSans-30"/>
       <use x="63.623047" xlink:href="#DejaVuSans-2e"/>
       <use x="95.410156" xlink:href="#DejaVuSans-38"/>
      </g>
     </g>
    </g>
    <g id="xtick_5">
     <g id="line2d_5">
      <g>
       <use style="stroke:#000000;stroke-width:0.8;" x="296.034022" xlink:href="#me33f3592b6" y="293.479494"/>
      </g>
     </g>
     <g id="text_5">
      <!-- 1.0 -->
      <defs>
       <path d="M 12.40625 8.296875 
L 28.515625 8.296875 
L 28.515625 63.921875 
L 10.984375 60.40625 
L 10.984375 69.390625 
L 28.421875 72.90625 
L 38.28125 72.90625 
L 38.28125 8.296875 
L 54.390625 8.296875 
L 54.390625 0 
L 12.40625 0 
z
" id="DejaVuSans-31"/>
      </defs>
      <g transform="translate(288.08246 308.077932)scale(0.1 -0.1)">
       <use xlink:href="#DejaVuSans-31"/>
       <use x="63.623047" xlink:href="#DejaVuSans-2e"/>
       <use x="95.410156" xlink:href="#DejaVuSans-30"/>
      </g>
     </g>
    </g>
   </g>
   <g id="matplotlib.axis_2">
    <g id="ytick_1">
     <g id="line2d_6">
      <defs>
       <path d="M 0 0 
L -3.5 0 
" id="m0eaa738452" style="stroke:#000000;stroke-width:0.8;"/>
      </defs>
      <g>
       <use style="stroke:#000000;stroke-width:0.8;" x="57.6" xlink:href="#m0eaa738452" y="246.217517"/>
      </g>
     </g>
     <g id="text_6">
      <!-- 0.2 -->
      <g transform="translate(34.696875 250.016735)scale(0.1 -0.1)">
       <use xlink:href="#DejaVuSans-30"/>
       <use x="63.623047" xlink:href="#DejaVuSans-2e"/>
       <use x="95.410156" xlink:href="#DejaVuSans-32"/>
      </g>
     </g>
    </g>
    <g id="ytick_2">
     <g id="line2d_7">
      <g>
       <use style="stroke:#000000;stroke-width:0.8;" x="57.6" xlink:href="#m0eaa738452" y="198.424506"/>
      </g>
     </g>
     <g id="text_7">
      <!-- 0.4 -->
      <g transform="translate(34.696875 202.223724)scale(0.1 -0.1)">
       <use xlink:href="#DejaVuSans-30"/>
       <use x="63.623047" xlink:href="#DejaVuSans-2e"/>
       <use x="95.410156" xlink:href="#DejaVuSans-34"/>
      </g>
     </g>
    </g>
    <g id="ytick_3">
     <g id="line2d_8">
      <g>
       <use style="stroke:#000000;stroke-width:0.8;" x="57.6" xlink:href="#m0eaa738452" y="150.631494"/>
      </g>
     </g>
     <g id="text_8">
      <!-- 0.6 -->
      <g transform="translate(34.696875 154.430713)scale(0.1 -0.1)">
       <use xlink:href="#DejaVuSans-30"/>
       <use x="63.623047" xlink:href="#DejaVuSans-2e"/>
       <use x="95.410156" xlink:href="#DejaVuSans-36"/>
      </g>
     </g>
    </g>
    <g id="ytick_4">
     <g id="line2d_9">
      <g>
       <use style="stroke:#000000;stroke-width:0.8;" x="57.6" xlink:href="#m0eaa738452" y="102.838483"/>
      </g>
     </g>
     <g id="text_9">
      <!-- 0.8 -->
      <g transform="translate(34.696875 106.637702)scale(0.1 -0.1)">
       <use xlink:href="#DejaVuSans-30"/>
       <use x="63.623047" xlink:href="#DejaVuSans-2e"/>
       <use x="95.410156" xlink:href="#DejaVuSans-38"/>
      </g>
     </g>
    </g>
   </g>
   <g id="LineCollection_1">
    <path clip-path="url(#p71957bc6c6)" d="M 120.350866 293.479494 
L 119.874077 291.355361 
L 119.199881 289.971382 
L 118.693863 289.231227 
L 117.556969 288.16916 
L 115.644382 287.107093 
L 113.889546 286.550414 
L 111.540341 286.045026 
L 108.579212 285.75611 
L 104.330944 285.611979 
L 87.337874 285.427482 
L 84.151673 285.131946 
L 80.965472 284.643629 
L 78.025444 283.920892 
L 76.717204 283.493037 
L 74.593071 282.576273 
L 72.468937 281.288844 
L 71.40687 280.447154 
L 70.344803 279.423929 
L 68.84305 277.548491 
L 67.573116 275.424357 
L 66.59813 273.300223 
L 65.820672 271.176089 
L 64.913299 267.989888 
L 64.031338 263.741621 
L 63.398848 259.493353 
L 62.814365 254.183019 
L 62.170091 245.686483 
L 61.529083 234.003747 
L 60.671678 213.824476 
L 59.934467 190.459004 
L 59.295743 162.845264 
L 58.649517 124.610855 
L 57.975692 69.383375 
L 57.91688 55.576506 
L 57.91688 55.576506 
" style="fill:none;stroke:#000080;stroke-width:1.5;"/>
   </g>
   <g id="LineCollection_2">
    <path clip-path="url(#p71957bc6c6)" d="M 286.169582 293.479494 
L 286.545013 291.355361 
L 287.006454 289.070997 
L 287.17002 287.107093 
L 287.15757 283.920892 
L 286.841928 279.672625 
L 285.279633 265.865755 
L 284.289333 258.431286 
L 283.452257 253.120952 
L 282.408313 247.810617 
L 281.303508 243.562349 
L 280.627289 241.438216 
L 279.571985 239.008956 
L 278.450906 237.189948 
L 277.447851 236.037112 
L 276.120537 235.065814 
L 275.323717 234.656411 
L 274.261651 234.307048 
L 272.137517 233.981493 
L 268.951316 233.932711 
L 249.834112 234.318081 
L 226.468639 234.565163 
L 213.723836 234.952786 
L 188.23423 235.855731 
L 181.861829 235.786694 
L 175.489428 235.498703 
L 168.054959 234.906399 
L 157.43429 233.778068 
L 146.813621 232.706146 
L 140.441219 232.262785 
L 134.068818 232.041288 
L 127.696416 232.054446 
L 120.261948 232.319587 
L 111.765413 232.862646 
L 107.517145 233.307334 
L 104.330944 233.853987 
L 102.20681 234.427363 
L 100.082677 235.268691 
L 97.958543 236.527044 
L 96.896476 237.368996 
L 95.834409 238.404615 
L 94.290129 240.376149 
L 93.055593 242.500283 
L 92.127565 244.624416 
L 91.423956 246.74855 
L 90.710544 249.934751 
L 90.299979 253.120952 
L 89.653471 259.493353 
L 89.410741 260.55542 
L 89.059401 261.617487 
L 88.399941 262.943554 
L 87.337874 264.28083 
L 86.275807 265.134652 
L 84.736216 265.865755 
L 84.151673 266.032547 
L 83.089606 266.183364 
L 82.027539 266.177026 
L 80.456112 265.865755 
L 79.903405 265.694063 
L 78.21643 264.803688 
L 77.779271 264.523877 
L 76.717204 263.646562 
L 75.655138 262.52516 
L 74.248019 260.55542 
L 73.064315 258.431286 
L 72.107231 256.307152 
L 70.960334 253.120952 
L 70.034511 249.934751 
L 69.033208 245.686483 
L 67.849047 239.314082 
L 66.745466 231.879613 
L 65.599007 222.321011 
L 64.569851 211.700342 
L 63.578487 198.955539 
L 62.597201 183.024535 
L 61.62386 162.845264 
L 60.667049 137.355658 
L 59.744049 105.493651 
L 58.723879 61.948907 
L 58.748784 56.638572 
L 58.771815 55.576506 
L 58.771815 55.576506 
" style="fill:none;stroke:#0000e8;stroke-width:1.5;"/>
   </g>
   <g id="LineCollection_3">
    <path clip-path="url(#p71957bc6c6)" d="M 290.161585 293.479494 
L 290.550824 288.16916 
L 290.520986 284.982959 
L 290.17883 278.610558 
L 288.840873 259.493353 
L 287.145431 237.189948 
L 286.419345 229.75548 
L 285.436326 221.258944 
L 284.514896 214.886543 
L 283.540798 209.576208 
L 282.518734 205.327941 
L 281.479452 202.14174 
L 280.528967 200.017606 
L 279.571985 198.517619 
L 278.509918 197.472612 
L 277.136408 196.831405 
L 276.385784 196.670949 
L 275.323717 196.684791 
L 273.199584 197.128801 
L 266.827182 198.956872 
L 263.640981 199.507139 
L 260.454781 199.810861 
L 256.206513 199.976502 
L 247.709978 200.005708 
L 212.66177 200.022299 
L 182.923896 200.166788 
L 157.43429 200.566065 
L 128.758483 200.928162 
L 122.386082 200.775738 
L 117.075747 200.388494 
L 111.765413 199.723493 
L 102.20681 198.359983 
L 99.02061 198.212518 
L 96.896476 198.334649 
L 94.772342 198.708964 
L 92.648208 199.41398 
L 90.524074 200.532693 
L 89.462007 201.272037 
L 87.337874 203.148894 
L 85.401537 205.327941 
L 83.764484 207.452074 
L 79.839003 212.762409 
L 78.841338 213.892237 
L 77.712406 214.886543 
L 76.717204 215.471264 
L 75.655138 215.678815 
L 74.593071 215.385477 
L 73.531004 214.504101 
L 72.386864 212.762409 
L 71.40687 210.604012 
L 70.099526 206.390007 
L 68.887707 201.079673 
L 67.932313 195.769338 
L 66.730179 187.272803 
L 65.657789 177.714201 
L 64.601221 166.031465 
L 63.516844 151.162528 
L 62.455375 133.10739 
L 61.447702 111.866052 
L 60.395185 84.252312 
L 59.581848 58.762706 
L 59.677683 55.576506 
L 59.677683 55.576506 
" style="fill:none;stroke:#0038ff;stroke-width:1.5;"/>
   </g>
   <g id="LineCollection_4">
    <path clip-path="url(#p71957bc6c6)" d="M 292.376408 293.479494 
L 292.495423 284.982959 
L 292.110205 276.486424 
L 290.263554 239.314082 
L 289.456199 225.507212 
L 288.506129 211.700342 
L 287.524509 200.017606 
L 286.533146 190.459004 
L 285.577203 183.024535 
L 284.539708 176.652134 
L 283.394774 171.341799 
L 282.486104 168.155599 
L 281.696119 165.979193 
L 280.568818 163.907331 
L 279.571985 162.755032 
L 278.509918 162.140621 
L 277.447851 162.00415 
L 276.385784 162.226331 
L 275.090416 162.845264 
L 273.199584 164.082843 
L 268.951316 167.046098 
L 266.827182 168.204713 
L 264.703048 169.075206 
L 262.578914 169.681116 
L 260.454781 170.067478 
L 257.26858 170.346656 
L 253.020312 170.388972 
L 229.65484 170.05689 
L 194.606632 169.974754 
L 123.448149 169.828528 
L 110.703346 169.800336 
L 94.772342 169.623681 
L 92.648208 169.832374 
L 90.252677 170.279732 
L 88.399941 170.817628 
L 86.275807 171.706271 
L 84.151673 172.911714 
L 81.871112 174.528 
L 78.841338 176.835961 
L 77.318565 177.714201 
L 76.717204 177.987391 
L 75.655138 178.179849 
L 74.593071 177.976267 
L 73.531004 177.260173 
L 72.310747 175.590067 
L 71.294734 173.465933 
L 70.220235 170.279732 
L 68.941716 164.969398 
L 67.951907 159.659063 
L 66.720105 151.162528 
L 65.621605 141.603926 
L 64.536031 129.92119 
L 63.49112 116.11432 
L 62.44286 99.121249 
L 60.730238 66.197175 
L 60.538669 59.824773 
L 60.692962 55.576506 
L 60.692962 55.576506 
" style="fill:none;stroke:#0094ff;stroke-width:1.5;"/>
   </g>
   <g id="LineCollection_5">
    <path clip-path="url(#p71957bc6c6)" d="M 294.069078 293.479494 
L 293.982809 281.796758 
L 292.894767 252.058885 
L 291.640475 221.258944 
L 290.615762 201.079673 
L 289.619245 185.148669 
L 288.638549 172.403866 
L 287.625169 161.783197 
L 286.607818 153.286662 
L 285.649399 146.91426 
L 284.629321 141.603926 
L 283.548517 137.355658 
L 282.424157 134.169457 
L 281.696119 132.581049 
L 280.531425 130.983257 
L 279.571985 130.22766 
L 278.509918 129.950123 
L 277.447851 130.130511 
L 275.984367 130.983257 
L 274.744834 132.045323 
L 273.199584 133.641528 
L 268.849546 138.417725 
L 266.827182 140.251879 
L 264.703048 141.760496 
L 262.578914 142.848684 
L 260.454781 143.563903 
L 258.330647 143.971309 
L 256.206513 144.13836 
L 253.020312 144.073936 
L 248.772045 143.671461 
L 241.337576 142.891892 
L 237.089309 142.647844 
L 231.778974 142.577851 
L 222.220372 142.763298 
L 210.537636 142.920391 
L 189.296297 142.876474 
L 149.999822 142.908703 
L 90.524074 143.120325 
L 87.337874 143.495588 
L 85.21374 143.912318 
L 82.027539 144.827362 
L 77.779271 146.229211 
L 76.717204 146.413738 
L 75.655138 146.409489 
L 74.593071 146.123715 
L 73.531004 145.446225 
L 72.468937 144.249508 
L 71.40687 142.392368 
L 70.274978 139.479792 
L 69.098676 135.231524 
L 67.993043 129.92119 
L 66.810133 122.486721 
L 65.744626 113.990186 
L 64.583333 102.30745 
L 63.480573 88.50058 
L 61.737151 63.010974 
L 61.678395 59.824773 
L 61.848268 56.457502 
L 61.904919 55.576506 
L 61.904919 55.576506 
" style="fill:none;stroke:#0cf4eb;stroke-width:1.5;"/>
   </g>
   <g id="LineCollection_6">
    <path clip-path="url(#p71957bc6c6)" d="M 295.603191 293.479494 
L 295.392873 278.610558 
L 294.500448 246.74855 
L 293.449008 214.886543 
L 292.496195 191.521071 
L 291.537066 172.403866 
L 290.616976 157.534929 
L 289.639472 144.790126 
L 288.727106 135.231524 
L 287.708696 126.734989 
L 286.743686 120.362587 
L 285.721154 115.052253 
L 284.658946 110.803985 
L 283.600811 107.617784 
L 282.659383 105.493651 
L 281.696119 103.937532 
L 280.634052 102.867831 
L 279.571985 102.352144 
L 278.509918 102.310219 
L 277.447851 102.669392 
L 276.378587 103.369517 
L 275.222774 104.431584 
L 273.199584 106.770821 
L 267.530019 113.990186 
L 265.505583 116.11432 
L 263.640981 117.718281 
L 261.516848 119.090197 
L 259.392714 120.010545 
L 257.26858 120.529563 
L 255.144446 120.713652 
L 253.020312 120.632889 
L 250.896178 120.356716 
L 247.709978 119.719004 
L 239.213442 117.847157 
L 234.965175 117.226758 
L 230.716907 116.898691 
L 226.468639 116.815122 
L 221.158305 116.938248 
L 196.730766 117.824292 
L 179.737695 118.014454 
L 92.648208 118.702735 
L 86.275807 118.971905 
L 80.965472 119.468482 
L 77.779271 119.683436 
L 76.717204 119.624564 
L 75.338258 119.30052 
L 74.593071 119.009115 
L 73.486589 118.238454 
L 72.468937 117.138455 
L 71.246013 115.052253 
L 70.329535 112.928119 
L 69.064903 108.679851 
L 67.909159 103.369517 
L 66.846564 96.997115 
L 65.738294 88.50058 
L 64.405046 75.755777 
L 63.433906 65.135108 
L 63.232138 60.88684 
L 63.313677 58.762706 
L 63.593516 55.576506 
L 63.593516 55.576506 
" style="fill:none;stroke:#56ffa0;stroke-width:1.5;"/>
   </g>
   <g id="LineCollection_7">
    <path clip-path="url(#p71957bc6c6)" d="M 300.875428 293.479494 
L 300.767429 287.107093 
L 300.44685 280.734691 
L 299.843113 273.300223 
L 298.635176 261.617487 
L 296.458217 241.438216 
L 295.098348 206.390007 
L 294.095489 177.714201 
L 293.108202 155.410796 
L 292.082344 137.355658 
L 291.065584 123.548788 
L 289.944889 111.866052 
L 288.902719 103.369517 
L 287.714856 95.935048 
L 286.839156 91.686781 
L 285.673425 87.438513 
L 284.475576 84.252312 
L 283.405663 82.128178 
L 282.758186 81.05689 
L 281.696119 79.715057 
L 280.634052 78.70169 
L 279.420653 77.879911 
L 278.509918 77.447841 
L 277.447851 77.12576 
L 276.385784 76.97472 
L 275.323717 76.987409 
L 274.261651 77.156609 
L 273.199584 77.473941 
L 272.137517 77.934843 
L 270.586299 78.941978 
L 269.39002 80.004045 
L 268.442927 81.066112 
L 266.972655 83.190245 
L 265.765115 85.42159 
L 262.578914 91.754855 
L 261.184006 93.810914 
L 260.293738 94.872981 
L 259.204109 95.935048 
L 257.79132 96.997115 
L 256.206513 97.870338 
L 255.144446 98.294167 
L 253.020312 98.854168 
L 250.896178 99.130001 
L 248.772045 99.204624 
L 245.585844 99.079624 
L 241.337576 98.670039 
L 228.592773 97.060507 
L 220.096238 96.147731 
L 212.66177 95.585234 
L 205.227301 95.262484 
L 196.730766 95.132676 
L 180.799762 95.182494 
L 164.868758 95.142867 
L 147.875688 94.869135 
L 109.641279 93.940078 
L 85.21374 93.449282 
L 79.903405 93.298729 
L 77.779271 93.049357 
L 76.547386 92.748848 
L 75.655138 92.430967 
L 74.374007 91.686781 
L 73.200046 90.624714 
L 72.343806 89.562647 
L 71.167868 87.438513 
L 70.279068 85.314379 
L 69.034304 81.066112 
L 67.885878 75.755777 
L 66.821348 69.383375 
L 66.176397 64.073041 
L 66.096535 61.446681 
L 66.212386 59.824773 
L 66.705222 56.638572 
L 66.727737 55.576506 
L 66.727737 55.576506 
" style="fill:none;stroke:#a0ff56;stroke-width:1.5;"/>
   </g>
   <g id="LineCollection_8">
    <path clip-path="url(#p71957bc6c6)" d="M 308.363735 293.479494 
L 308.22139 284.982959 
L 307.83886 276.486424 
L 307.104046 265.865755 
L 305.904085 252.058885 
L 304.100549 234.003747 
L 302.07545 215.94861 
L 299.940543 198.955539 
L 297.852452 184.086602 
L 296.503008 174.528 
L 294.951337 143.728059 
L 294.053871 125.672922 
L 293.104301 110.803985 
L 292.052811 98.059182 
L 291.10268 89.562647 
L 290.192654 83.81024 
L 289.342777 80.004045 
L 288.731665 77.879911 
L 287.985695 75.755777 
L 287.006454 73.617766 
L 285.659737 71.507509 
L 284.765698 70.445442 
L 283.598571 69.383375 
L 281.974749 68.321309 
L 280.634052 67.706652 
L 278.509918 67.076587 
L 276.385784 66.757699 
L 274.261651 66.661953 
L 272.137517 66.745511 
L 268.951316 67.145629 
L 265.765115 67.829091 
L 262.578914 68.749796 
L 258.330647 70.273341 
L 254.082379 72.006014 
L 248.772045 74.12928 
L 245.585844 75.185249 
L 242.399643 75.96694 
L 239.213442 76.429794 
L 236.027242 76.58206 
L 232.841041 76.455235 
L 229.65484 76.103499 
L 225.406572 75.372843 
L 220.096238 74.195909 
L 209.333866 71.507509 
L 193.489518 67.259242 
L 188.23423 65.417979 
L 186.110097 64.490281 
L 185.04803 63.975519 
L 182.923896 62.663157 
L 181.861829 61.830333 
L 180.799762 60.676184 
L 180.229092 59.824773 
L 179.737695 58.496762 
L 179.574597 57.700639 
L 179.5717 55.576506 
L 179.5717 55.576506 
" style="fill:none;stroke:#ebff0c;stroke-width:1.5;"/>
   </g>
   <g id="LineCollection_9">
    <path clip-path="url(#p71957bc6c6)" d="M 316.052196 293.479494 
L 315.929029 283.920892 
L 315.55298 273.300223 
L 314.852606 260.55542 
L 313.744191 244.624416 
L 312.196621 225.507212 
L 310.431827 206.390007 
L 308.652554 189.396937 
L 306.760525 173.465933 
L 304.897049 159.659063 
L 303.11311 147.976327 
L 301.283528 137.355658 
L 299.426181 127.797056 
L 297.569918 119.30052 
L 296.562429 115.052253 
L 293.636095 81.066112 
L 292.978258 76.817844 
L 292.316788 73.619315 
L 291.393998 70.445442 
L 290.523329 68.321309 
L 289.96868 67.259242 
L 289.130587 65.959934 
L 288.06852 64.694907 
L 287.006454 63.706458 
L 284.88232 62.231525 
L 281.696119 60.625917 
L 277.827216 58.762706 
L 276.531987 57.700639 
L 275.954739 56.638572 
L 275.885757 55.576506 
L 275.885757 55.576506 
" style="fill:none;stroke:#ffab00;stroke-width:1.5;"/>
   </g>
   <g id="LineCollection_10">
    <path clip-path="url(#p71957bc6c6)" d="M 323.888269 293.479494 
L 323.770109 281.796758 
L 323.417888 269.051955 
L 322.743292 253.120952 
L 321.605179 231.879613 
L 320.187925 209.576208 
L 318.693014 189.396937 
L 317.140602 171.341799 
L 315.545946 155.410796 
L 313.936069 141.603926 
L 312.35788 129.92119 
L 310.703461 119.30052 
L 308.989802 109.741918 
L 307.185725 100.998438 
L 305.482783 93.810914 
L 303.747927 87.438513 
L 302.078776 82.128178 
L 300.537997 77.879911 
L 298.730517 73.631643 
L 297.627123 71.403902 
L 296.537664 69.383375 
L 295.748671 66.197175 
L 295.455501 65.135108 
L 294.713188 61.948907 
L 292.946295 55.576506 
L 292.946295 55.576506 
" style="fill:none;stroke:#ff5500;stroke-width:1.5;"/>
   </g>
   <g id="LineCollection_11">
    <path clip-path="url(#p71957bc6c6)" d="M 331.824713 293.479494 
L 331.702473 277.548491 
L 331.324331 259.493353 
L 330.519196 232.94168 
L 329.48913 205.963218 
L 328.321665 180.900401 
L 327.123738 159.659063 
L 325.884059 141.603926 
L 324.652164 126.734989 
L 323.38915 113.990186 
L 322.025969 102.30745 
L 320.436886 90.624714 
L 316.744327 64.669606 
L 316.382814 59.824773 
L 316.285497 55.576506 
L 316.285497 55.576506 
" style="fill:none;stroke:#e80000;stroke-width:1.5;"/>
   </g>
   <g id="LineCollection_12">
    <path clip-path="url(#p71957bc6c6)" d="M 339.819803 293.479494 
L 339.703196 266.927822 
L 338.746972 186.210736 
L 338.013491 147.976327 
L 337.119096 116.11432 
L 336.015638 88.50058 
L 335.231948 70.445442 
L 334.995276 59.824773 
L 334.974984 55.576506 
L 334.974984 55.576506 
" style="fill:none;stroke:#800000;stroke-width:1.5;"/>
   </g>
   <g id="patch_3">
    <path d="M 57.6 293.479494 
L 57.6 55.576506 
" style="fill:none;stroke:#000000;stroke-linecap:square;stroke-linejoin:miter;stroke-width:0.8;"/>
   </g>
   <g id="patch_4">
    <path d="M 343.296 293.479494 
L 343.296 55.576506 
" style="fill:none;stroke:#000000;stroke-linecap:square;stroke-linejoin:miter;stroke-width:0.8;"/>
   </g>
   <g id="patch_5">
    <path d="M 57.6 293.479494 
L 343.296 293.479494 
" style="fill:none;stroke:#000000;stroke-linecap:square;stroke-linejoin:miter;stroke-width:0.8;"/>
   </g>
   <g id="patch_6">
    <path d="M 57.6 55.576506 
L 343.296 55.576506 
" style="fill:none;stroke:#000000;stroke-linecap:square;stroke-linejoin:miter;stroke-width:0.8;"/>
   </g>
   <g id="text_10">
    <!-- Time:0.10864 s -->
    <defs>
     <path d="M -0.296875 72.90625 
L 61.375 72.90625 
L 61.375 64.59375 
L 35.5 64.59375 
L 35.5 0 
L 25.59375 0 
L 25.59375 64.59375 
L -0.296875 64.59375 
z
" id="DejaVuSans-54"/>
     <path d="M 9.421875 54.6875 
L 18.40625 54.6875 
L 18.40625 0 
L 9.421875 0 
z
M 9.421875 75.984375 
L 18.40625 75.984375 
L 18.40625 64.59375 
L 9.421875 64.59375 
z
" id="DejaVuSans-69"/>
     <path d="M 52 44.1875 
Q 55.375 50.25 60.0625 53.125 
Q 64.75 56 71.09375 56 
Q 79.640625 56 84.28125 50.015625 
Q 88.921875 44.046875 88.921875 33.015625 
L 88.921875 0 
L 79.890625 0 
L 79.890625 32.71875 
Q 79.890625 40.578125 77.09375 44.375 
Q 74.3125 48.1875 68.609375 48.1875 
Q 61.625 48.1875 57.5625 43.546875 
Q 53.515625 38.921875 53.515625 30.90625 
L 53.515625 0 
L 44.484375 0 
L 44.484375 32.71875 
Q 44.484375 40.625 41.703125 44.40625 
Q 38.921875 48.1875 33.109375 48.1875 
Q 26.21875 48.1875 22.15625 43.53125 
Q 18.109375 38.875 18.109375 30.90625 
L 18.109375 0 
L 9.078125 0 
L 9.078125 54.6875 
L 18.109375 54.6875 
L 18.109375 46.1875 
Q 21.1875 51.21875 25.484375 53.609375 
Q 29.78125 56 35.6875 56 
Q 41.65625 56 45.828125 52.96875 
Q 50 49.953125 52 44.1875 
z
" id="DejaVuSans-6d"/>
     <path d="M 56.203125 29.59375 
L 56.203125 25.203125 
L 14.890625 25.203125 
Q 15.484375 15.921875 20.484375 11.0625 
Q 25.484375 6.203125 34.421875 6.203125 
Q 39.59375 6.203125 44.453125 7.46875 
Q 49.3125 8.734375 54.109375 11.28125 
L 54.109375 2.78125 
Q 49.265625 0.734375 44.1875 -0.34375 
Q 39.109375 -1.421875 33.890625 -1.421875 
Q 20.796875 -1.421875 13.15625 6.1875 
Q 5.515625 13.8125 5.515625 26.8125 
Q 5.515625 40.234375 12.765625 48.109375 
Q 20.015625 56 32.328125 56 
Q 43.359375 56 49.78125 48.890625 
Q 56.203125 41.796875 56.203125 29.59375 
z
M 47.21875 32.234375 
Q 47.125 39.59375 43.09375 43.984375 
Q 39.0625 48.390625 32.421875 48.390625 
Q 24.90625 48.390625 20.390625 44.140625 
Q 15.875 39.890625 15.1875 32.171875 
z
" id="DejaVuSans-65"/>
     <path d="M 11.71875 12.40625 
L 22.015625 12.40625 
L 22.015625 0 
L 11.71875 0 
z
M 11.71875 51.703125 
L 22.015625 51.703125 
L 22.015625 39.3125 
L 11.71875 39.3125 
z
" id="DejaVuSans-3a"/>
     <path id="DejaVuSans-20"/>
     <path d="M 44.28125 53.078125 
L 44.28125 44.578125 
Q 40.484375 46.53125 36.375 47.5 
Q 32.28125 48.484375 27.875 48.484375 
Q 21.1875 48.484375 17.84375 46.4375 
Q 14.5 44.390625 14.5 40.28125 
Q 14.5 37.15625 16.890625 35.375 
Q 19.28125 33.59375 26.515625 31.984375 
L 29.59375 31.296875 
Q 39.15625 29.25 43.1875 25.515625 
Q 47.21875 21.78125 47.21875 15.09375 
Q 47.21875 7.46875 41.1875 3.015625 
Q 35.15625 -1.421875 24.609375 -1.421875 
Q 20.21875 -1.421875 15.453125 -0.5625 
Q 10.6875 0.296875 5.421875 2 
L 5.421875 11.28125 
Q 10.40625 8.6875 15.234375 7.390625 
Q 20.0625 6.109375 24.8125 6.109375 
Q 31.15625 6.109375 34.5625 8.28125 
Q 37.984375 10.453125 37.984375 14.40625 
Q 37.984375 18.0625 35.515625 20.015625 
Q 33.0625 21.96875 24.703125 23.78125 
L 21.578125 24.515625 
Q 13.234375 26.265625 9.515625 29.90625 
Q 5.8125 33.546875 5.8125 39.890625 
Q 5.8125 47.609375 11.28125 51.796875 
Q 16.75 56 26.8125 56 
Q 31.78125 56 36.171875 55.265625 
Q 40.578125 54.546875 44.28125 53.078125 
z
" id="DejaVuSans-73"/>
    </defs>
    <g transform="translate(153.717375 49.576506)scale(0.12 -0.12)">
     <use xlink:href="#DejaVuSans-54"/>
     <use x="61.037109" xlink:href="#DejaVuSans-69"/>
     <use x="88.820312" xlink:href="#DejaVuSans-6d"/>
     <use x="186.232422" xlink:href="#DejaVuSans-65"/>
     <use x="247.755859" xlink:href="#DejaVuSans-3a"/>
     <use x="281.447266" xlink:href="#DejaVuSans-30"/>
     <use x="345.070312" xlink:href="#DejaVuSans-2e"/>
     <use x="376.857422" xlink:href="#DejaVuSans-31"/>
     <use x="440.480469" xlink:href="#DejaVuSans-30"/>
     <use x="504.103516" xlink:href="#DejaVuSans-38"/>
     <use x="567.726562" xlink:href="#DejaVuSans-36"/>
     <use x="631.349609" xlink:href="#DejaVuSans-34"/>
     <use x="694.972656" xlink:href="#DejaVuSans-20"/>
     <use x="726.759766" xlink:href="#DejaVuSans-73"/>
    </g>
   </g>
  </g>
  <g id="axes_2">
   <g id="patch_7">
    <path clip-path="url(#p68b9b34925)" d="M 361.152 307.584 
L 361.152 283.392 
L 361.152 65.664 
L 361.152 41.472 
L 374.4576 41.472 
L 374.4576 65.664 
L 374.4576 283.392 
L 374.4576 307.584 
z
" style="fill:#ffffff;stroke:#ffffff;stroke-linejoin:miter;stroke-width:0.01;"/>
   </g>
   <g id="matplotlib.axis_3"/>
   <g id="matplotlib.axis_4">
    <g id="ytick_5">
     <g id="line2d_10">
      <defs>
       <path d="M 0 0 
L 3.5 0 
" id="md8e74657df" style="stroke:#000000;stroke-width:0.8;"/>
      </defs>
      <g>
       <use style="stroke:#000000;stroke-width:0.8;" x="374.4576" xlink:href="#md8e74657df" y="307.584"/>
      </g>
     </g>
     <g id="text_11">
      <!-- 0.08 -->
      <g transform="translate(381.4576 311.383219)scale(0.1 -0.1)">
       <use xlink:href="#DejaVuSans-30"/>
       <use x="63.623047" xlink:href="#DejaVuSans-2e"/>
       <use x="95.410156" xlink:href="#DejaVuSans-30"/>
       <use x="159.033203" xlink:href="#DejaVuSans-38"/>
      </g>
     </g>
    </g>
    <g id="ytick_6">
     <g id="line2d_11">
      <g>
       <use style="stroke:#000000;stroke-width:0.8;" x="374.4576" xlink:href="#md8e74657df" y="259.2"/>
      </g>
     </g>
     <g id="text_12">
      <!-- 0.24 -->
      <g transform="translate(381.4576 262.999219)scale(0.1 -0.1)">
       <use xlink:href="#DejaVuSans-30"/>
       <use x="63.623047" xlink:href="#DejaVuSans-2e"/>
       <use x="95.410156" xlink:href="#DejaVuSans-32"/>
       <use x="159.033203" xlink:href="#DejaVuSans-34"/>
      </g>
     </g>
    </g>
    <g id="ytick_7">
     <g id="line2d_12">
      <g>
       <use style="stroke:#000000;stroke-width:0.8;" x="374.4576" xlink:href="#md8e74657df" y="210.816"/>
      </g>
     </g>
     <g id="text_13">
      <!-- 0.40 -->
      <g transform="translate(381.4576 214.615219)scale(0.1 -0.1)">
       <use xlink:href="#DejaVuSans-30"/>
       <use x="63.623047" xlink:href="#DejaVuSans-2e"/>
       <use x="95.410156" xlink:href="#DejaVuSans-34"/>
       <use x="159.033203" xlink:href="#DejaVuSans-30"/>
      </g>
     </g>
    </g>
    <g id="ytick_8">
     <g id="line2d_13">
      <g>
       <use style="stroke:#000000;stroke-width:0.8;" x="374.4576" xlink:href="#md8e74657df" y="162.432"/>
      </g>
     </g>
     <g id="text_14">
      <!-- 0.56 -->
      <defs>
       <path d="M 10.796875 72.90625 
L 49.515625 72.90625 
L 49.515625 64.59375 
L 19.828125 64.59375 
L 19.828125 46.734375 
Q 21.96875 47.46875 24.109375 47.828125 
Q 26.265625 48.1875 28.421875 48.1875 
Q 40.625 48.1875 47.75 41.5 
Q 54.890625 34.8125 54.890625 23.390625 
Q 54.890625 11.625 47.5625 5.09375 
Q 40.234375 -1.421875 26.90625 -1.421875 
Q 22.3125 -1.421875 17.546875 -0.640625 
Q 12.796875 0.140625 7.71875 1.703125 
L 7.71875 11.625 
Q 12.109375 9.234375 16.796875 8.0625 
Q 21.484375 6.890625 26.703125 6.890625 
Q 35.15625 6.890625 40.078125 11.328125 
Q 45.015625 15.765625 45.015625 23.390625 
Q 45.015625 31 40.078125 35.4375 
Q 35.15625 39.890625 26.703125 39.890625 
Q 22.75 39.890625 18.8125 39.015625 
Q 14.890625 38.140625 10.796875 36.28125 
z
" id="DejaVuSans-35"/>
      </defs>
      <g transform="translate(381.4576 166.231219)scale(0.1 -0.1)">
       <use xlink:href="#DejaVuSans-30"/>
       <use x="63.623047" xlink:href="#DejaVuSans-2e"/>
       <use x="95.410156" xlink:href="#DejaVuSans-35"/>
       <use x="159.033203" xlink:href="#DejaVuSans-36"/>
      </g>
     </g>
    </g>
    <g id="ytick_9">
     <g id="line2d_14">
      <g>
       <use style="stroke:#000000;stroke-width:0.8;" x="374.4576" xlink:href="#md8e74657df" y="114.048"/>
      </g>
     </g>
     <g id="text_15">
      <!-- 0.72 -->
      <defs>
       <path d="M 8.203125 72.90625 
L 55.078125 72.90625 
L 55.078125 68.703125 
L 28.609375 0 
L 18.3125 0 
L 43.21875 64.59375 
L 8.203125 64.59375 
z
" id="DejaVuSans-37"/>
      </defs>
      <g transform="translate(381.4576 117.847219)scale(0.1 -0.1)">
       <use xlink:href="#DejaVuSans-30"/>
       <use x="63.623047" xlink:href="#DejaVuSans-2e"/>
       <use x="95.410156" xlink:href="#DejaVuSans-37"/>
       <use x="159.033203" xlink:href="#DejaVuSans-32"/>
      </g>
     </g>
    </g>
    <g id="ytick_10">
     <g id="line2d_15">
      <g>
       <use style="stroke:#000000;stroke-width:0.8;" x="374.4576" xlink:href="#md8e74657df" y="65.664"/>
      </g>
     </g>
     <g id="text_16">
      <!-- 0.88 -->
      <g transform="translate(381.4576 69.463219)scale(0.1 -0.1)">
       <use xlink:href="#DejaVuSans-30"/>
       <use x="63.623047" xlink:href="#DejaVuSans-2e"/>
       <use x="95.410156" xlink:href="#DejaVuSans-38"/>
       <use x="159.033203" xlink:href="#DejaVuSans-38"/>
      </g>
     </g>
    </g>
   </g>
   <g id="LineCollection_13">
    <path clip-path="url(#p68b9b34925)" d="M 361.152 307.584 
L 374.4576 307.584 
" style="fill:none;stroke:#000080;stroke-width:1.5;"/>
    <path clip-path="url(#p68b9b34925)" d="M 361.152 283.392 
L 374.4576 283.392 
" style="fill:none;stroke:#0000e8;stroke-width:1.5;"/>
    <path clip-path="url(#p68b9b34925)" d="M 361.152 259.2 
L 374.4576 259.2 
" style="fill:none;stroke:#0038ff;stroke-width:1.5;"/>
    <path clip-path="url(#p68b9b34925)" d="M 361.152 235.008 
L 374.4576 235.008 
" style="fill:none;stroke:#0094ff;stroke-width:1.5;"/>
    <path clip-path="url(#p68b9b34925)" d="M 361.152 210.816 
L 374.4576 210.816 
" style="fill:none;stroke:#0cf4eb;stroke-width:1.5;"/>
    <path clip-path="url(#p68b9b34925)" d="M 361.152 186.624 
L 374.4576 186.624 
" style="fill:none;stroke:#56ffa0;stroke-width:1.5;"/>
    <path clip-path="url(#p68b9b34925)" d="M 361.152 162.432 
L 374.4576 162.432 
" style="fill:none;stroke:#a0ff56;stroke-width:1.5;"/>
    <path clip-path="url(#p68b9b34925)" d="M 361.152 138.24 
L 374.4576 138.24 
" style="fill:none;stroke:#ebff0c;stroke-width:1.5;"/>
    <path clip-path="url(#p68b9b34925)" d="M 361.152 114.048 
L 374.4576 114.048 
" style="fill:none;stroke:#ffab00;stroke-width:1.5;"/>
    <path clip-path="url(#p68b9b34925)" d="M 361.152 89.856 
L 374.4576 89.856 
" style="fill:none;stroke:#ff5500;stroke-width:1.5;"/>
    <path clip-path="url(#p68b9b34925)" d="M 361.152 65.664 
L 374.4576 65.664 
" style="fill:none;stroke:#e80000;stroke-width:1.5;"/>
    <path clip-path="url(#p68b9b34925)" d="M 361.152 41.472 
L 374.4576 41.472 
" style="fill:none;stroke:#800000;stroke-width:1.5;"/>
   </g>
   <g id="patch_8">
    <path d="M 361.152 307.584 
L 361.152 283.392 
L 361.152 65.664 
L 361.152 41.472 
L 374.4576 41.472 
L 374.4576 65.664 
L 374.4576 283.392 
L 374.4576 307.584 
z
" style="fill:none;stroke:#000000;stroke-linejoin:miter;stroke-width:0.8;"/>
   </g>
  </g>
 </g>
 <defs>
  <clipPath id="p71957bc6c6">
   <rect height="237.902989" width="285.696" x="57.6" y="55.576506"/>
  </clipPath>
  <clipPath id="p68b9b34925">
   <rect height="266.112" width="13.3056" x="361.152" y="41.472"/>
  </clipPath>
 </defs>
</svg>
