<?xml version="1.0" encoding="utf-8" standalone="no"?>
<!DOCTYPE svg PUBLIC "-//W3C//DTD SVG 1.1//EN"
  "http://www.w3.org/Graphics/SVG/1.1/DTD/svg11.dtd">
<!-- Created with matplotlib (http://matplotlib.org/) -->
<svg height="345.6pt" version="1.1" viewBox="0 0 460.8 345.6" width="460.8pt" xmlns="http://www.w3.org/2000/svg" xmlns:xlink="http://www.w3.org/1999/xlink">
 <defs>
  <style type="text/css">
*{stroke-linecap:butt;stroke-linejoin:round;}
  </style>
 </defs>
 <g id="figure_1">
  <g id="patch_1">
   <path d="M 0 345.6 
L 460.8 345.6 
L 460.8 0 
L 0 0 
z
" style="fill:#ffffff;"/>
  </g>
  <g id="axes_1">
   <g id="patch_2">
    <path d="M 57.6 293.479494 
L 343.296 293.479494 
L 343.296 55.576506 
L 57.6 55.576506 
z
" style="fill:#ffffff;"/>
   </g>
   <g id="matplotlib.axis_1">
    <g id="xtick_1">
     <g id="line2d_1">
      <defs>
       <path d="M 0 0 
L 0 3.5 
" id="mfb218cba1e" style="stroke:#000000;stroke-width:0.8;"/>
      </defs>
      <g>
       <use style="stroke:#000000;stroke-width:0.8;" x="104.861978" xlink:href="#mfb218cba1e" y="293.479494"/>
      </g>
     </g>
     <g id="text_1">
      <!-- 0.2 -->
      <defs>
       <path d="M 31.78125 66.40625 
Q 24.171875 66.40625 20.328125 58.90625 
Q 16.5 51.421875 16.5 36.375 
Q 16.5 21.390625 20.328125 13.890625 
Q 24.171875 6.390625 31.78125 6.390625 
Q 39.453125 6.390625 43.28125 13.890625 
Q 47.125 21.390625 47.125 36.375 
Q 47.125 51.421875 43.28125 58.90625 
Q 39.453125 66.40625 31.78125 66.40625 
z
M 31.78125 74.21875 
Q 44.046875 74.21875 50.515625 64.515625 
Q 56.984375 54.828125 56.984375 36.375 
Q 56.984375 17.96875 50.515625 8.265625 
Q 44.046875 -1.421875 31.78125 -1.421875 
Q 19.53125 -1.421875 13.0625 8.265625 
Q 6.59375 17.96875 6.59375 36.375 
Q 6.59375 54.828125 13.0625 64.515625 
Q 19.53125 74.21875 31.78125 74.21875 
z
" id="DejaVuSans-30"/>
       <path d="M 10.6875 12.40625 
L 21 12.40625 
L 21 0 
L 10.6875 0 
z
" id="DejaVuSans-2e"/>
       <path d="M 19.1875 8.296875 
L 53.609375 8.296875 
L 53.609375 0 
L 7.328125 0 
L 7.328125 8.296875 
Q 12.9375 14.109375 22.625 23.890625 
Q 32.328125 33.6875 34.8125 36.53125 
Q 39.546875 41.84375 41.421875 45.53125 
Q 43.3125 49.21875 43.3125 52.78125 
Q 43.3125 58.59375 39.234375 62.25 
Q 35.15625 65.921875 28.609375 65.921875 
Q 23.96875 65.921875 18.8125 64.3125 
Q 13.671875 62.703125 7.8125 59.421875 
L 7.8125 69.390625 
Q 13.765625 71.78125 18.9375 73 
Q 24.125 74.21875 28.421875 74.21875 
Q 39.75 74.21875 46.484375 68.546875 
Q 53.21875 62.890625 53.21875 53.421875 
Q 53.21875 48.921875 51.53125 44.890625 
Q 49.859375 40.875 45.40625 35.40625 
Q 44.1875 33.984375 37.640625 27.21875 
Q 31.109375 20.453125 19.1875 8.296875 
z
" id="DejaVuSans-32"/>
      </defs>
      <g transform="translate(96.910415 308.077932)scale(0.1 -0.1)">
       <use xlink:href="#DejaVuSans-30"/>
       <use x="63.623047" xlink:href="#DejaVuSans-2e"/>
       <use x="95.410156" xlink:href="#DejaVuSans-32"/>
      </g>
     </g>
    </g>
    <g id="xtick_2">
     <g id="line2d_2">
      <g>
       <use style="stroke:#000000;stroke-width:0.8;" x="152.654989" xlink:href="#mfb218cba1e" y="293.479494"/>
      </g>
     </g>
     <g id="text_2">
      <!-- 0.4 -->
      <defs>
       <path d="M 37.796875 64.3125 
L 12.890625 25.390625 
L 37.796875 25.390625 
z
M 35.203125 72.90625 
L 47.609375 72.90625 
L 47.609375 25.390625 
L 58.015625 25.390625 
L 58.015625 17.1875 
L 47.609375 17.1875 
L 47.609375 0 
L 37.796875 0 
L 37.796875 17.1875 
L 4.890625 17.1875 
L 4.890625 26.703125 
z
" id="DejaVuSans-34"/>
      </defs>
      <g transform="translate(144.703426 308.077932)scale(0.1 -0.1)">
       <use xlink:href="#DejaVuSans-30"/>
       <use x="63.623047" xlink:href="#DejaVuSans-2e"/>
       <use x="95.410156" xlink:href="#DejaVuSans-34"/>
      </g>
     </g>
    </g>
    <g id="xtick_3">
     <g id="line2d_3">
      <g>
       <use style="stroke:#000000;stroke-width:0.8;" x="200.448" xlink:href="#mfb218cba1e" y="293.479494"/>
      </g>
     </g>
     <g id="text_3">
      <!-- 0.6 -->
      <defs>
       <path d="M 33.015625 40.375 
Q 26.375 40.375 22.484375 35.828125 
Q 18.609375 31.296875 18.609375 23.390625 
Q 18.609375 15.53125 22.484375 10.953125 
Q 26.375 6.390625 33.015625 6.390625 
Q 39.65625 6.390625 43.53125 10.953125 
Q 47.40625 15.53125 47.40625 23.390625 
Q 47.40625 31.296875 43.53125 35.828125 
Q 39.65625 40.375 33.015625 40.375 
z
M 52.59375 71.296875 
L 52.59375 62.3125 
Q 48.875 64.0625 45.09375 64.984375 
Q 41.3125 65.921875 37.59375 65.921875 
Q 27.828125 65.921875 22.671875 59.328125 
Q 17.53125 52.734375 16.796875 39.40625 
Q 19.671875 43.65625 24.015625 45.921875 
Q 28.375 48.1875 33.59375 48.1875 
Q 44.578125 48.1875 50.953125 41.515625 
Q 57.328125 34.859375 57.328125 23.390625 
Q 57.328125 12.15625 50.6875 5.359375 
Q 44.046875 -1.421875 33.015625 -1.421875 
Q 20.359375 -1.421875 13.671875 8.265625 
Q 6.984375 17.96875 6.984375 36.375 
Q 6.984375 53.65625 15.1875 63.9375 
Q 23.390625 74.21875 37.203125 74.21875 
Q 40.921875 74.21875 44.703125 73.484375 
Q 48.484375 72.75 52.59375 71.296875 
z
" id="DejaVuSans-36"/>
      </defs>
      <g transform="translate(192.496438 308.077932)scale(0.1 -0.1)">
       <use xlink:href="#DejaVuSans-30"/>
       <use x="63.623047" xlink:href="#DejaVuSans-2e"/>
       <use x="95.410156" xlink:href="#DejaVuSans-36"/>
      </g>
     </g>
    </g>
    <g id="xtick_4">
     <g id="line2d_4">
      <g>
       <use style="stroke:#000000;stroke-width:0.8;" x="248.241011" xlink:href="#mfb218cba1e" y="293.479494"/>
      </g>
     </g>
     <g id="text_4">
      <!-- 0.8 -->
      <defs>
       <path d="M 31.78125 34.625 
Q 24.75 34.625 20.71875 30.859375 
Q 16.703125 27.09375 16.703125 20.515625 
Q 16.703125 13.921875 20.71875 10.15625 
Q 24.75 6.390625 31.78125 6.390625 
Q 38.8125 6.390625 42.859375 10.171875 
Q 46.921875 13.96875 46.921875 20.515625 
Q 46.921875 27.09375 42.890625 30.859375 
Q 38.875 34.625 31.78125 34.625 
z
M 21.921875 38.8125 
Q 15.578125 40.375 12.03125 44.71875 
Q 8.5 49.078125 8.5 55.328125 
Q 8.5 64.0625 14.71875 69.140625 
Q 20.953125 74.21875 31.78125 74.21875 
Q 42.671875 74.21875 48.875 69.140625 
Q 55.078125 64.0625 55.078125 55.328125 
Q 55.078125 49.078125 51.53125 44.71875 
Q 48 40.375 41.703125 38.8125 
Q 48.828125 37.15625 52.796875 32.3125 
Q 56.78125 27.484375 56.78125 20.515625 
Q 56.78125 9.90625 50.3125 4.234375 
Q 43.84375 -1.421875 31.78125 -1.421875 
Q 19.734375 -1.421875 13.25 4.234375 
Q 6.78125 9.90625 6.78125 20.515625 
Q 6.78125 27.484375 10.78125 32.3125 
Q 14.796875 37.15625 21.921875 38.8125 
z
M 18.3125 54.390625 
Q 18.3125 48.734375 21.84375 45.5625 
Q 25.390625 42.390625 31.78125 42.390625 
Q 38.140625 42.390625 41.71875 45.5625 
Q 45.3125 48.734375 45.3125 54.390625 
Q 45.3125 60.0625 41.71875 63.234375 
Q 38.140625 66.40625 31.78125 66.40625 
Q 25.390625 66.40625 21.84375 63.234375 
Q 18.3125 60.0625 18.3125 54.390625 
z
" id="DejaVuSans-38"/>
      </defs>
      <g transform="translate(240.289449 308.077932)scale(0.1 -0.1)">
       <use xlink:href="#DejaVuSans-30"/>
       <use x="63.623047" xlink:href="#DejaVuSans-2e"/>
       <use x="95.410156" xlink:href="#DejaVuSans-38"/>
      </g>
     </g>
    </g>
    <g id="xtick_5">
     <g id="line2d_5">
      <g>
       <use style="stroke:#000000;stroke-width:0.8;" x="296.034022" xlink:href="#mfb218cba1e" y="293.479494"/>
      </g>
     </g>
     <g id="text_5">
      <!-- 1.0 -->
      <defs>
       <path d="M 12.40625 8.296875 
L 28.515625 8.296875 
L 28.515625 63.921875 
L 10.984375 60.40625 
L 10.984375 69.390625 
L 28.421875 72.90625 
L 38.28125 72.90625 
L 38.28125 8.296875 
L 54.390625 8.296875 
L 54.390625 0 
L 12.40625 0 
z
" id="DejaVuSans-31"/>
      </defs>
      <g transform="translate(288.08246 308.077932)scale(0.1 -0.1)">
       <use xlink:href="#DejaVuSans-31"/>
       <use x="63.623047" xlink:href="#DejaVuSans-2e"/>
       <use x="95.410156" xlink:href="#DejaVuSans-30"/>
      </g>
     </g>
    </g>
   </g>
   <g id="matplotlib.axis_2">
    <g id="ytick_1">
     <g id="line2d_6">
      <defs>
       <path d="M 0 0 
L -3.5 0 
" id="m1af07c7d28" style="stroke:#000000;stroke-width:0.8;"/>
      </defs>
      <g>
       <use style="stroke:#000000;stroke-width:0.8;" x="57.6" xlink:href="#m1af07c7d28" y="246.217517"/>
      </g>
     </g>
     <g id="text_6">
      <!-- 0.2 -->
      <g transform="translate(34.696875 250.016735)scale(0.1 -0.1)">
       <use xlink:href="#DejaVuSans-30"/>
       <use x="63.623047" xlink:href="#DejaVuSans-2e"/>
       <use x="95.410156" xlink:href="#DejaVuSans-32"/>
      </g>
     </g>
    </g>
    <g id="ytick_2">
     <g id="line2d_7">
      <g>
       <use style="stroke:#000000;stroke-width:0.8;" x="57.6" xlink:href="#m1af07c7d28" y="198.424506"/>
      </g>
     </g>
     <g id="text_7">
      <!-- 0.4 -->
      <g transform="translate(34.696875 202.223724)scale(0.1 -0.1)">
       <use xlink:href="#DejaVuSans-30"/>
       <use x="63.623047" xlink:href="#DejaVuSans-2e"/>
       <use x="95.410156" xlink:href="#DejaVuSans-34"/>
      </g>
     </g>
    </g>
    <g id="ytick_3">
     <g id="line2d_8">
      <g>
       <use style="stroke:#000000;stroke-width:0.8;" x="57.6" xlink:href="#m1af07c7d28" y="150.631494"/>
      </g>
     </g>
     <g id="text_8">
      <!-- 0.6 -->
      <g transform="translate(34.696875 154.430713)scale(0.1 -0.1)">
       <use xlink:href="#DejaVuSans-30"/>
       <use x="63.623047" xlink:href="#DejaVuSans-2e"/>
       <use x="95.410156" xlink:href="#DejaVuSans-36"/>
      </g>
     </g>
    </g>
    <g id="ytick_4">
     <g id="line2d_9">
      <g>
       <use style="stroke:#000000;stroke-width:0.8;" x="57.6" xlink:href="#m1af07c7d28" y="102.838483"/>
      </g>
     </g>
     <g id="text_9">
      <!-- 0.8 -->
      <g transform="translate(34.696875 106.637702)scale(0.1 -0.1)">
       <use xlink:href="#DejaVuSans-30"/>
       <use x="63.623047" xlink:href="#DejaVuSans-2e"/>
       <use x="95.410156" xlink:href="#DejaVuSans-38"/>
      </g>
     </g>
    </g>
   </g>
   <g id="LineCollection_1">
    <path clip-path="url(#p1825aa1a8a)" d="M 124.885469 293.479494 
L 124.490507 291.355361 
L 124.12004 290.293294 
L 123.448149 289.091 
L 122.386082 287.882375 
L 121.324015 287.049805 
L 119.199881 286.01749 
L 117.075747 285.442719 
L 114.175377 284.982959 
L 111.765413 284.83446 
L 107.517145 284.807372 
L 100.082677 285.05507 
L 92.648208 285.24108 
L 88.399941 285.155517 
L 84.151673 284.832667 
L 80.965472 284.357458 
L 78.841338 283.869652 
L 76.717204 283.202022 
L 74.593071 282.271964 
L 73.531004 281.675344 
L 72.175299 280.734691 
L 70.952822 279.672625 
L 69.958373 278.610558 
L 69.125981 277.548491 
L 67.81455 275.424357 
L 66.80813 273.300223 
L 66.006016 271.176089 
L 65.034468 267.82844 
L 64.17434 263.741621 
L 63.522322 259.493353 
L 62.910335 254.076457 
L 62.331527 246.74855 
L 61.653258 235.065814 
L 60.786201 215.5362 
L 60.059981 193.645204 
L 59.407342 167.093532 
L 58.760083 130.983257 
L 58.1716 85.314379 
L 57.926416 55.576506 
L 57.926416 55.576506 
" style="fill:none;stroke:#000080;stroke-width:1.5;"/>
   </g>
   <g id="LineCollection_2">
    <path clip-path="url(#p1825aa1a8a)" d="M 286.357431 293.479494 
L 286.742751 291.355361 
L 287.144519 289.231227 
L 287.322987 287.107093 
L 287.302154 283.920892 
L 287.006454 279.575178 
L 284.814144 260.55542 
L 283.132204 249.934751 
L 282.489007 246.74855 
L 281.401737 242.500283 
L 280.291252 239.314082 
L 279.27623 237.189948 
L 278.509918 235.944994 
L 277.447851 234.739143 
L 276.385784 233.919733 
L 275.323717 233.383854 
L 273.718168 232.94168 
L 272.137517 232.740785 
L 268.951316 232.712771 
L 253.020312 233.09862 
L 221.158305 233.446609 
L 208.413502 233.883303 
L 189.296297 234.601607 
L 181.861829 234.617128 
L 175.489428 234.411389 
L 168.054959 233.917094 
L 158.496357 233.009868 
L 145.751554 231.801668 
L 138.317086 231.343447 
L 131.944684 231.169938 
L 124.510216 231.20681 
L 113.889546 231.523815 
L 107.517145 231.884394 
L 104.330944 232.282618 
L 102.20681 232.73466 
L 100.082677 233.44244 
L 97.958543 234.524586 
L 96.896476 235.254367 
L 95.834409 236.144788 
L 94.772342 237.23504 
L 93.204662 239.314082 
L 91.97794 241.438216 
L 91.016546 243.562349 
L 90.250801 245.686483 
L 89.39136 248.872684 
L 88.799834 252.058885 
L 87.787875 258.431286 
L 87.117058 260.55542 
L 86.275807 262.060265 
L 85.21374 263.200762 
L 84.151673 263.892383 
L 83.089606 264.265554 
L 82.027539 264.417113 
L 80.965472 264.364564 
L 79.903405 264.122582 
L 78.841338 263.697687 
L 77.317164 262.679554 
L 76.1647 261.617487 
L 75.252388 260.55542 
L 74.471989 259.493353 
L 73.252247 257.369219 
L 72.265136 255.245086 
L 71.09528 252.058885 
L 69.881557 247.810617 
L 68.912541 243.562349 
L 67.749637 237.189948 
L 66.658296 229.75548 
L 65.636314 221.258944 
L 64.596144 210.638275 
L 63.597011 197.893472 
L 62.609359 181.962468 
L 61.630254 161.783197 
L 60.668351 136.293591 
L 59.742481 104.431584 
L 58.743172 61.948907 
L 58.76898 56.638572 
L 58.792138 55.576506 
L 58.792138 55.576506 
" style="fill:none;stroke:#0000e8;stroke-width:1.5;"/>
   </g>
   <g id="LineCollection_3">
    <path clip-path="url(#p1825aa1a8a)" d="M 290.23912 293.479494 
L 290.628638 287.107093 
L 290.493782 282.858825 
L 289.934877 274.36229 
L 286.753371 231.879613 
L 285.586795 221.258944 
L 284.533414 213.824476 
L 283.570223 208.514141 
L 282.565708 204.265874 
L 281.554256 201.079673 
L 280.634052 198.932123 
L 279.571985 197.253227 
L 278.509918 196.20109 
L 277.447851 195.624976 
L 276.385784 195.398287 
L 275.323717 195.416456 
L 273.199584 195.874661 
L 266.827182 197.751577 
L 263.640981 198.316873 
L 260.454781 198.629255 
L 256.206513 198.799224 
L 247.709978 198.826759 
L 212.66177 198.831082 
L 179.737695 198.963596 
L 148.937755 199.395248 
L 126.634349 199.640377 
L 121.324015 199.473536 
L 117.075747 199.159243 
L 111.765413 198.519041 
L 102.20681 197.191781 
L 99.02061 197.044827 
L 96.896476 197.161139 
L 94.772342 197.523464 
L 92.648208 198.207939 
L 90.524074 199.297872 
L 88.399941 200.870967 
L 87.061242 202.14174 
L 85.173368 204.265874 
L 82.754456 207.452074 
L 79.903405 211.25841 
L 78.493651 212.762409 
L 77.779271 213.40085 
L 76.717204 214.021413 
L 75.655138 214.22918 
L 74.456215 213.824476 
L 73.326777 212.762409 
L 72.468937 211.509638 
L 71.186704 208.514141 
L 70.186205 205.327941 
L 68.95156 200.017606 
L 67.815501 193.645204 
L 66.764902 186.210736 
L 65.682156 176.652134 
L 64.616892 164.969398 
L 63.52487 150.100461 
L 62.457416 132.045323 
L 61.446483 110.803985 
L 60.391834 83.190245 
L 59.611038 58.762706 
L 59.707827 55.576506 
L 59.707827 55.576506 
" style="fill:none;stroke:#0038ff;stroke-width:1.5;"/>
   </g>
   <g id="LineCollection_4">
    <path clip-path="url(#p1825aa1a8a)" d="M 292.424238 293.479494 
L 292.539597 284.982959 
L 292.159634 276.486424 
L 290.534218 243.562349 
L 289.523593 225.507212 
L 288.512118 210.638275 
L 287.536091 198.955539 
L 286.553038 189.396937 
L 285.450285 180.900401 
L 284.586282 175.590067 
L 283.463972 170.279732 
L 282.587197 167.093532 
L 281.696119 164.624785 
L 280.634052 162.620746 
L 279.571985 161.388201 
L 278.509918 160.77318 
L 277.447851 160.640281 
L 276.385784 160.868924 
L 274.630598 161.783197 
L 273.083454 162.845264 
L 268.951316 165.773691 
L 266.521629 167.093532 
L 264.703048 167.843098 
L 262.578914 168.462112 
L 260.454781 168.857873 
L 257.26858 169.144043 
L 253.020312 169.187259 
L 229.65484 168.847811 
L 196.730766 168.778776 
L 121.324015 168.631108 
L 109.641279 168.577362 
L 95.834409 168.377154 
L 92.648208 168.63574 
L 90.524074 169.004582 
L 88.399941 169.595506 
L 86.275807 170.462239 
L 84.151673 171.639506 
L 81.543261 173.465933 
L 78.658454 175.590067 
L 77.779271 176.135473 
L 76.434583 176.652134 
L 75.655138 176.788113 
L 74.593071 176.581462 
L 73.312716 175.590067 
L 72.468937 174.52139 
L 71.403276 172.403866 
L 70.017663 168.155599 
L 68.992798 163.907331 
L 67.818248 157.534929 
L 66.741473 150.100461 
L 65.63324 140.541859 
L 64.540745 128.859123 
L 63.491891 115.052253 
L 62.442241 98.059182 
L 60.72351 65.135108 
L 60.581358 59.824773 
L 60.737291 55.576506 
L 60.737291 55.576506 
" style="fill:none;stroke:#0094ff;stroke-width:1.5;"/>
   </g>
   <g id="LineCollection_5">
    <path clip-path="url(#p1825aa1a8a)" d="M 294.107426 293.479494 
L 294.019409 281.796758 
L 292.896569 250.996818 
L 291.643366 220.196877 
L 290.622007 200.017606 
L 289.63087 184.086602 
L 288.656793 171.341799 
L 287.651471 160.72113 
L 286.644014 152.224595 
L 285.508968 144.790126 
L 284.44594 139.479792 
L 283.63971 136.293591 
L 282.555485 133.10739 
L 281.527323 130.983257 
L 280.634052 129.710306 
L 279.523876 128.859123 
L 278.509918 128.596281 
L 277.291197 128.859123 
L 276.385784 129.325255 
L 275.323717 130.148946 
L 273.199584 132.318463 
L 268.951316 137.055526 
L 266.827182 139.020118 
L 264.703048 140.556412 
L 262.578914 141.666891 
L 260.454781 142.398468 
L 258.330647 142.815681 
L 256.206513 142.987346 
L 253.020312 142.920859 
L 248.772045 142.503603 
L 241.337576 141.683707 
L 237.089309 141.42155 
L 231.778974 141.340483 
L 223.282439 141.507677 
L 211.599703 141.706173 
L 195.668699 141.700193 
L 160.620491 141.699805 
L 90.524074 141.947851 
L 87.337874 142.311004 
L 85.21374 142.714049 
L 82.027539 143.601579 
L 77.779271 144.958868 
L 76.717204 145.135309 
L 75.655138 145.125683 
L 74.517516 144.790126 
L 73.531004 144.164709 
L 72.290451 142.665993 
L 71.170176 140.541859 
L 70.325375 138.417725 
L 69.130434 134.169457 
L 67.829765 127.797056 
L 66.821331 121.424654 
L 65.751363 112.928119 
L 64.588192 101.245383 
L 63.484642 87.438513 
L 61.797597 63.010974 
L 61.74097 59.824773 
L 61.917935 56.638572 
L 61.985107 55.576506 
L 61.985107 55.576506 
" style="fill:none;stroke:#0cf4eb;stroke-width:1.5;"/>
   </g>
   <g id="LineCollection_6">
    <path clip-path="url(#p1825aa1a8a)" d="M 295.653174 293.479494 
L 295.449451 279.672625 
L 294.659302 250.996818 
L 293.528572 215.94861 
L 292.549542 191.521071 
L 291.605876 172.403866 
L 290.633013 156.472862 
L 289.660975 143.728059 
L 288.639024 133.10739 
L 287.594889 124.610855 
L 286.597334 118.238454 
L 285.531673 112.928119 
L 284.738028 109.741918 
L 283.71271 106.555717 
L 282.758186 104.319718 
L 281.418938 102.30745 
L 280.634052 101.509834 
L 279.571985 100.983326 
L 278.509918 100.933945 
L 277.447851 101.293414 
L 276.043212 102.30745 
L 274.960747 103.369517 
L 273.174266 105.493651 
L 267.400436 112.928119 
L 265.765115 114.680668 
L 263.640981 116.541281 
L 261.516848 117.925026 
L 259.392714 118.854056 
L 257.26858 119.379109 
L 255.144446 119.567346 
L 253.020312 119.489436 
L 249.834112 119.027907 
L 245.585844 118.093573 
L 240.275509 116.927891 
L 236.027242 116.237586 
L 231.778974 115.826332 
L 227.530706 115.663555 
L 222.220372 115.71009 
L 212.089912 116.11432 
L 199.916967 116.539612 
L 185.04803 116.79974 
L 159.558424 116.97536 
L 116.01368 117.299059 
L 89.462007 117.675302 
L 84.151673 118.007265 
L 77.779271 118.506376 
L 76.717204 118.438196 
L 75.655138 118.228451 
L 74.593071 117.805724 
L 73.531004 117.076382 
L 72.468937 115.923459 
L 71.313865 113.990186 
L 70.04623 110.803985 
L 69.103652 107.617784 
L 67.940836 102.30745 
L 66.873918 95.935048 
L 65.643937 86.376446 
L 64.424372 74.69371 
L 63.54554 65.135108 
L 63.353676 60.88684 
L 63.438021 58.762706 
L 63.712872 55.576506 
L 63.712872 55.576506 
" style="fill:none;stroke:#56ffa0;stroke-width:1.5;"/>
   </g>
   <g id="LineCollection_7">
    <path clip-path="url(#p1825aa1a8a)" d="M 301.010625 293.479494 
L 300.902437 287.107093 
L 300.582949 280.734691 
L 299.982244 273.300223 
L 298.778386 261.617487 
L 296.789737 244.624416 
L 296.508673 241.438216 
L 295.069681 204.265874 
L 294.061635 175.590067 
L 293.066722 153.286662 
L 292.028589 135.231524 
L 290.994747 121.424654 
L 289.854373 109.741918 
L 288.789573 101.245383 
L 287.763349 94.872981 
L 286.889664 90.624714 
L 285.714384 86.376446 
L 284.496468 83.190245 
L 283.401693 81.066112 
L 282.739218 80.004045 
L 281.696119 78.714378 
L 280.634052 77.716218 
L 279.25542 76.817844 
L 278.509918 76.461158 
L 277.447851 76.122884 
L 276.385784 75.941815 
L 275.323717 75.910073 
L 274.261651 76.020049 
L 273.199584 76.263383 
L 271.717216 76.817844 
L 270.013383 77.801272 
L 268.951316 78.645089 
L 267.889249 79.681467 
L 266.738606 81.066112 
L 265.368179 83.190245 
L 263.640981 86.579276 
L 261.516848 90.729594 
L 260.162029 92.748848 
L 259.274462 93.810914 
L 258.175394 94.872981 
L 256.729755 95.935048 
L 255.144446 96.779089 
L 254.082379 97.189855 
L 251.958245 97.735992 
L 249.834112 98.017501 
L 247.709978 98.111888 
L 244.523777 98.030209 
L 240.275509 97.682945 
L 232.841041 96.817381 
L 219.034171 95.201167 
L 211.599703 94.564156 
L 204.165234 94.162177 
L 195.668699 93.960785 
L 182.923896 93.940684 
L 163.806691 93.886364 
L 147.875688 93.598611 
L 119.199881 92.802756 
L 78.841338 91.558568 
L 76.717204 91.133378 
L 75.437133 90.624714 
L 74.593071 90.155048 
L 73.531004 89.286622 
L 72.468937 88.023211 
L 71.40687 86.224718 
L 70.186786 83.190245 
L 68.980196 78.941978 
L 67.860187 73.631643 
L 66.976942 68.321309 
L 66.523431 64.073041 
L 66.447998 61.948907 
L 66.583527 59.824773 
L 67.040328 56.638572 
L 67.054179 55.576506 
L 67.054179 55.576506 
" style="fill:none;stroke:#a0ff56;stroke-width:1.5;"/>
   </g>
   <g id="LineCollection_8">
    <path clip-path="url(#p1825aa1a8a)" d="M 308.478904 293.479494 
L 308.336949 284.982959 
L 307.955638 276.486424 
L 307.223415 265.865755 
L 306.027686 252.058885 
L 304.232719 234.003747 
L 302.221872 215.94861 
L 300.106938 198.955539 
L 298.042042 184.086602 
L 296.515998 173.465933 
L 294.916722 141.603926 
L 294.00865 123.548788 
L 293.04664 108.679851 
L 292.077553 96.997115 
L 291.254721 89.502339 
L 290.450943 84.252312 
L 289.808402 81.066112 
L 288.979161 77.879911 
L 287.822687 74.69371 
L 286.751358 72.569576 
L 285.944387 71.323611 
L 284.88232 70.052881 
L 283.820253 69.073501 
L 282.758186 68.3085 
L 280.634052 67.258997 
L 278.509918 66.643832 
L 276.385784 66.309932 
L 273.653132 66.197175 
L 272.137517 66.247156 
L 268.951316 66.585933 
L 265.418285 67.259242 
L 262.578914 67.99091 
L 258.182591 69.383375 
L 246.647911 73.368926 
L 243.46171 74.156474 
L 240.128819 74.69371 
L 237.089309 74.902866 
L 233.903108 74.84884 
L 230.716907 74.544886 
L 226.468639 73.826036 
L 222.220372 72.846812 
L 217.253434 71.507509 
L 206.924088 68.321309 
L 199.916967 65.733508 
L 197.792833 64.7872 
L 195.668699 63.667616 
L 194.5733 63.010974 
L 193.172727 61.948907 
L 192.119601 60.88684 
L 191.376971 59.824773 
L 190.898282 58.762706 
L 190.63403 57.700639 
L 190.514497 55.576506 
L 190.514497 55.576506 
" style="fill:none;stroke:#ebff0c;stroke-width:1.5;"/>
   </g>
   <g id="LineCollection_9">
    <path clip-path="url(#p1825aa1a8a)" d="M 316.144685 293.479494 
L 316.021932 283.920892 
L 315.647031 273.300223 
L 314.949201 260.55542 
L 313.765421 243.562349 
L 312.123349 223.383078 
L 310.348597 204.265874 
L 308.561288 187.272803 
L 306.66034 171.341799 
L 304.786214 157.534929 
L 302.937457 145.533491 
L 301.14472 135.231524 
L 299.269177 125.672922 
L 297.392833 117.176387 
L 296.499051 112.928119 
L 293.619688 80.004045 
L 292.928226 75.755777 
L 292.221792 72.569576 
L 291.254721 69.492816 
L 290.758494 68.321309 
L 289.588899 66.197175 
L 288.804894 65.135108 
L 287.824755 64.073041 
L 286.576504 63.010974 
L 284.88232 61.873488 
L 282.758186 60.734776 
L 278.875637 58.762706 
L 277.447851 57.536198 
L 276.907021 56.638572 
L 276.771677 55.576506 
L 276.771677 55.576506 
" style="fill:none;stroke:#ffab00;stroke-width:1.5;"/>
   </g>
   <g id="LineCollection_10">
    <path clip-path="url(#p1825aa1a8a)" d="M 323.955932 293.479494 
L 323.838222 281.796758 
L 323.487403 269.051955 
L 322.815437 253.120952 
L 321.683158 231.879613 
L 320.277219 209.576208 
L 318.714292 188.33487 
L 317.168361 170.279732 
L 315.580617 154.348729 
L 313.977841 140.541859 
L 312.406494 128.859123 
L 310.759145 118.238454 
L 309.052229 108.679851 
L 307.307972 100.183316 
L 305.551769 92.748848 
L 303.813597 86.376446 
L 302.136274 81.066112 
L 300.5833 76.817844 
L 299.244712 73.631643 
L 297.627123 70.329064 
L 296.530943 68.321309 
L 295.712433 65.135108 
L 295.425459 64.073041 
L 294.440922 59.999288 
L 293.843777 57.700639 
L 293.344126 55.576506 
L 293.344126 55.576506 
" style="fill:none;stroke:#ff5500;stroke-width:1.5;"/>
   </g>
   <g id="LineCollection_11">
    <path clip-path="url(#p1825aa1a8a)" d="M 331.866039 293.479494 
L 331.74445 277.548491 
L 331.368155 259.493353 
L 330.566692 232.94168 
L 329.562715 206.390007 
L 328.391253 180.900401 
L 327.210801 159.659063 
L 325.991185 141.603926 
L 324.780986 126.734989 
L 323.429372 112.928119 
L 322.054662 101.083106 
L 320.498341 89.562647 
L 317.196981 66.197175 
L 316.744327 60.720729 
L 316.605739 56.638572 
L 316.602321 55.576506 
L 316.602321 55.576506 
" style="fill:none;stroke:#e80000;stroke-width:1.5;"/>
   </g>
   <g id="LineCollection_12">
    <path clip-path="url(#p1825aa1a8a)" d="M 339.833676 293.479494 
L 339.719189 266.927822 
L 338.885754 193.645204 
L 338.145347 152.224595 
L 337.318249 120.362587 
L 336.19306 90.624714 
L 335.28553 69.383375 
L 335.077398 58.762706 
L 335.06669 55.576506 
L 335.06669 55.576506 
" style="fill:none;stroke:#800000;stroke-width:1.5;"/>
   </g>
   <g id="patch_3">
    <path d="M 57.6 293.479494 
L 57.6 55.576506 
" style="fill:none;stroke:#000000;stroke-linecap:square;stroke-linejoin:miter;stroke-width:0.8;"/>
   </g>
   <g id="patch_4">
    <path d="M 343.296 293.479494 
L 343.296 55.576506 
" style="fill:none;stroke:#000000;stroke-linecap:square;stroke-linejoin:miter;stroke-width:0.8;"/>
   </g>
   <g id="patch_5">
    <path d="M 57.6 293.479494 
L 343.296 293.479494 
" style="fill:none;stroke:#000000;stroke-linecap:square;stroke-linejoin:miter;stroke-width:0.8;"/>
   </g>
   <g id="patch_6">
    <path d="M 57.6 55.576506 
L 343.296 55.576506 
" style="fill:none;stroke:#000000;stroke-linecap:square;stroke-linejoin:miter;stroke-width:0.8;"/>
   </g>
   <g id="text_10">
    <!-- Time:0.09547 s -->
    <defs>
     <path d="M -0.296875 72.90625 
L 61.375 72.90625 
L 61.375 64.59375 
L 35.5 64.59375 
L 35.5 0 
L 25.59375 0 
L 25.59375 64.59375 
L -0.296875 64.59375 
z
" id="DejaVuSans-54"/>
     <path d="M 9.421875 54.6875 
L 18.40625 54.6875 
L 18.40625 0 
L 9.421875 0 
z
M 9.421875 75.984375 
L 18.40625 75.984375 
L 18.40625 64.59375 
L 9.421875 64.59375 
z
" id="DejaVuSans-69"/>
     <path d="M 52 44.1875 
Q 55.375 50.25 60.0625 53.125 
Q 64.75 56 71.09375 56 
Q 79.640625 56 84.28125 50.015625 
Q 88.921875 44.046875 88.921875 33.015625 
L 88.921875 0 
L 79.890625 0 
L 79.890625 32.71875 
Q 79.890625 40.578125 77.09375 44.375 
Q 74.3125 48.1875 68.609375 48.1875 
Q 61.625 48.1875 57.5625 43.546875 
Q 53.515625 38.921875 53.515625 30.90625 
L 53.515625 0 
L 44.484375 0 
L 44.484375 32.71875 
Q 44.484375 40.625 41.703125 44.40625 
Q 38.921875 48.1875 33.109375 48.1875 
Q 26.21875 48.1875 22.15625 43.53125 
Q 18.109375 38.875 18.109375 30.90625 
L 18.109375 0 
L 9.078125 0 
L 9.078125 54.6875 
L 18.109375 54.6875 
L 18.109375 46.1875 
Q 21.1875 51.21875 25.484375 53.609375 
Q 29.78125 56 35.6875 56 
Q 41.65625 56 45.828125 52.96875 
Q 50 49.953125 52 44.1875 
z
" id="DejaVuSans-6d"/>
     <path d="M 56.203125 29.59375 
L 56.203125 25.203125 
L 14.890625 25.203125 
Q 15.484375 15.921875 20.484375 11.0625 
Q 25.484375 6.203125 34.421875 6.203125 
Q 39.59375 6.203125 44.453125 7.46875 
Q 49.3125 8.734375 54.109375 11.28125 
L 54.109375 2.78125 
Q 49.265625 0.734375 44.1875 -0.34375 
Q 39.109375 -1.421875 33.890625 -1.421875 
Q 20.796875 -1.421875 13.15625 6.1875 
Q 5.515625 13.8125 5.515625 26.8125 
Q 5.515625 40.234375 12.765625 48.109375 
Q 20.015625 56 32.328125 56 
Q 43.359375 56 49.78125 48.890625 
Q 56.203125 41.796875 56.203125 29.59375 
z
M 47.21875 32.234375 
Q 47.125 39.59375 43.09375 43.984375 
Q 39.0625 48.390625 32.421875 48.390625 
Q 24.90625 48.390625 20.390625 44.140625 
Q 15.875 39.890625 15.1875 32.171875 
z
" id="DejaVuSans-65"/>
     <path d="M 11.71875 12.40625 
L 22.015625 12.40625 
L 22.015625 0 
L 11.71875 0 
z
M 11.71875 51.703125 
L 22.015625 51.703125 
L 22.015625 39.3125 
L 11.71875 39.3125 
z
" id="DejaVuSans-3a"/>
     <path d="M 10.984375 1.515625 
L 10.984375 10.5 
Q 14.703125 8.734375 18.5 7.8125 
Q 22.3125 6.890625 25.984375 6.890625 
Q 35.75 6.890625 40.890625 13.453125 
Q 46.046875 20.015625 46.78125 33.40625 
Q 43.953125 29.203125 39.59375 26.953125 
Q 35.25 24.703125 29.984375 24.703125 
Q 19.046875 24.703125 12.671875 31.3125 
Q 6.296875 37.9375 6.296875 49.421875 
Q 6.296875 60.640625 12.9375 67.421875 
Q 19.578125 74.21875 30.609375 74.21875 
Q 43.265625 74.21875 49.921875 64.515625 
Q 56.59375 54.828125 56.59375 36.375 
Q 56.59375 19.140625 48.40625 8.859375 
Q 40.234375 -1.421875 26.421875 -1.421875 
Q 22.703125 -1.421875 18.890625 -0.6875 
Q 15.09375 0.046875 10.984375 1.515625 
z
M 30.609375 32.421875 
Q 37.25 32.421875 41.125 36.953125 
Q 45.015625 41.5 45.015625 49.421875 
Q 45.015625 57.28125 41.125 61.84375 
Q 37.25 66.40625 30.609375 66.40625 
Q 23.96875 66.40625 20.09375 61.84375 
Q 16.21875 57.28125 16.21875 49.421875 
Q 16.21875 41.5 20.09375 36.953125 
Q 23.96875 32.421875 30.609375 32.421875 
z
" id="DejaVuSans-39"/>
     <path d="M 10.796875 72.90625 
L 49.515625 72.90625 
L 49.515625 64.59375 
L 19.828125 64.59375 
L 19.828125 46.734375 
Q 21.96875 47.46875 24.109375 47.828125 
Q 26.265625 48.1875 28.421875 48.1875 
Q 40.625 48.1875 47.75 41.5 
Q 54.890625 34.8125 54.890625 23.390625 
Q 54.890625 11.625 47.5625 5.09375 
Q 40.234375 -1.421875 26.90625 -1.421875 
Q 22.3125 -1.421875 17.546875 -0.640625 
Q 12.796875 0.140625 7.71875 1.703125 
L 7.71875 11.625 
Q 12.109375 9.234375 16.796875 8.0625 
Q 21.484375 6.890625 26.703125 6.890625 
Q 35.15625 6.890625 40.078125 11.328125 
Q 45.015625 15.765625 45.015625 23.390625 
Q 45.015625 31 40.078125 35.4375 
Q 35.15625 39.890625 26.703125 39.890625 
Q 22.75 39.890625 18.8125 39.015625 
Q 14.890625 38.140625 10.796875 36.28125 
z
" id="DejaVuSans-35"/>
     <path d="M 8.203125 72.90625 
L 55.078125 72.90625 
L 55.078125 68.703125 
L 28.609375 0 
L 18.3125 0 
L 43.21875 64.59375 
L 8.203125 64.59375 
z
" id="DejaVuSans-37"/>
     <path id="DejaVuSans-20"/>
     <path d="M 44.28125 53.078125 
L 44.28125 44.578125 
Q 40.484375 46.53125 36.375 47.5 
Q 32.28125 48.484375 27.875 48.484375 
Q 21.1875 48.484375 17.84375 46.4375 
Q 14.5 44.390625 14.5 40.28125 
Q 14.5 37.15625 16.890625 35.375 
Q 19.28125 33.59375 26.515625 31.984375 
L 29.59375 31.296875 
Q 39.15625 29.25 43.1875 25.515625 
Q 47.21875 21.78125 47.21875 15.09375 
Q 47.21875 7.46875 41.1875 3.015625 
Q 35.15625 -1.421875 24.609375 -1.421875 
Q 20.21875 -1.421875 15.453125 -0.5625 
Q 10.6875 0.296875 5.421875 2 
L 5.421875 11.28125 
Q 10.40625 8.6875 15.234375 7.390625 
Q 20.0625 6.109375 24.8125 6.109375 
Q 31.15625 6.109375 34.5625 8.28125 
Q 37.984375 10.453125 37.984375 14.40625 
Q 37.984375 18.0625 35.515625 20.015625 
Q 33.0625 21.96875 24.703125 23.78125 
L 21.578125 24.515625 
Q 13.234375 26.265625 9.515625 29.90625 
Q 5.8125 33.546875 5.8125 39.890625 
Q 5.8125 47.609375 11.28125 51.796875 
Q 16.75 56 26.8125 56 
Q 31.78125 56 36.171875 55.265625 
Q 40.578125 54.546875 44.28125 53.078125 
z
" id="DejaVuSans-73"/>
    </defs>
    <g transform="translate(153.717375 49.576506)scale(0.12 -0.12)">
     <use xlink:href="#DejaVuSans-54"/>
     <use x="61.037109" xlink:href="#DejaVuSans-69"/>
     <use x="88.820312" xlink:href="#DejaVuSans-6d"/>
     <use x="186.232422" xlink:href="#DejaVuSans-65"/>
     <use x="247.755859" xlink:href="#DejaVuSans-3a"/>
     <use x="281.447266" xlink:href="#DejaVuSans-30"/>
     <use x="345.070312" xlink:href="#DejaVuSans-2e"/>
     <use x="376.857422" xlink:href="#DejaVuSans-30"/>
     <use x="440.480469" xlink:href="#DejaVuSans-39"/>
     <use x="504.103516" xlink:href="#DejaVuSans-35"/>
     <use x="567.726562" xlink:href="#DejaVuSans-34"/>
     <use x="631.349609" xlink:href="#DejaVuSans-37"/>
     <use x="694.972656" xlink:href="#DejaVuSans-20"/>
     <use x="726.759766" xlink:href="#DejaVuSans-73"/>
    </g>
   </g>
  </g>
  <g id="axes_2">
   <g id="patch_7">
    <path clip-path="url(#pbbce66c487)" d="M 361.152 307.584 
L 361.152 283.392 
L 361.152 65.664 
L 361.152 41.472 
L 374.4576 41.472 
L 374.4576 65.664 
L 374.4576 283.392 
L 374.4576 307.584 
z
" style="fill:#ffffff;stroke:#ffffff;stroke-linejoin:miter;stroke-width:0.01;"/>
   </g>
   <g id="matplotlib.axis_3"/>
   <g id="matplotlib.axis_4">
    <g id="ytick_5">
     <g id="line2d_10">
      <defs>
       <path d="M 0 0 
L 3.5 0 
" id="m40bbd385c3" style="stroke:#000000;stroke-width:0.8;"/>
      </defs>
      <g>
       <use style="stroke:#000000;stroke-width:0.8;" x="374.4576" xlink:href="#m40bbd385c3" y="307.584"/>
      </g>
     </g>
     <g id="text_11">
      <!-- 0.08 -->
      <g transform="translate(381.4576 311.383219)scale(0.1 -0.1)">
       <use xlink:href="#DejaVuSans-30"/>
       <use x="63.623047" xlink:href="#DejaVuSans-2e"/>
       <use x="95.410156" xlink:href="#DejaVuSans-30"/>
       <use x="159.033203" xlink:href="#DejaVuSans-38"/>
      </g>
     </g>
    </g>
    <g id="ytick_6">
     <g id="line2d_11">
      <g>
       <use style="stroke:#000000;stroke-width:0.8;" x="374.4576" xlink:href="#m40bbd385c3" y="259.2"/>
      </g>
     </g>
     <g id="text_12">
      <!-- 0.24 -->
      <g transform="translate(381.4576 262.999219)scale(0.1 -0.1)">
       <use xlink:href="#DejaVuSans-30"/>
       <use x="63.623047" xlink:href="#DejaVuSans-2e"/>
       <use x="95.410156" xlink:href="#DejaVuSans-32"/>
       <use x="159.033203" xlink:href="#DejaVuSans-34"/>
      </g>
     </g>
    </g>
    <g id="ytick_7">
     <g id="line2d_12">
      <g>
       <use style="stroke:#000000;stroke-width:0.8;" x="374.4576" xlink:href="#m40bbd385c3" y="210.816"/>
      </g>
     </g>
     <g id="text_13">
      <!-- 0.40 -->
      <g transform="translate(381.4576 214.615219)scale(0.1 -0.1)">
       <use xlink:href="#DejaVuSans-30"/>
       <use x="63.623047" xlink:href="#DejaVuSans-2e"/>
       <use x="95.410156" xlink:href="#DejaVuSans-34"/>
       <use x="159.033203" xlink:href="#DejaVuSans-30"/>
      </g>
     </g>
    </g>
    <g id="ytick_8">
     <g id="line2d_13">
      <g>
       <use style="stroke:#000000;stroke-width:0.8;" x="374.4576" xlink:href="#m40bbd385c3" y="162.432"/>
      </g>
     </g>
     <g id="text_14">
      <!-- 0.56 -->
      <g transform="translate(381.4576 166.231219)scale(0.1 -0.1)">
       <use xlink:href="#DejaVuSans-30"/>
       <use x="63.623047" xlink:href="#DejaVuSans-2e"/>
       <use x="95.410156" xlink:href="#DejaVuSans-35"/>
       <use x="159.033203" xlink:href="#DejaVuSans-36"/>
      </g>
     </g>
    </g>
    <g id="ytick_9">
     <g id="line2d_14">
      <g>
       <use style="stroke:#000000;stroke-width:0.8;" x="374.4576" xlink:href="#m40bbd385c3" y="114.048"/>
      </g>
     </g>
     <g id="text_15">
      <!-- 0.72 -->
      <g transform="translate(381.4576 117.847219)scale(0.1 -0.1)">
       <use xlink:href="#DejaVuSans-30"/>
       <use x="63.623047" xlink:href="#DejaVuSans-2e"/>
       <use x="95.410156" xlink:href="#DejaVuSans-37"/>
       <use x="159.033203" xlink:href="#DejaVuSans-32"/>
      </g>
     </g>
    </g>
    <g id="ytick_10">
     <g id="line2d_15">
      <g>
       <use style="stroke:#000000;stroke-width:0.8;" x="374.4576" xlink:href="#m40bbd385c3" y="65.664"/>
      </g>
     </g>
     <g id="text_16">
      <!-- 0.88 -->
      <g transform="translate(381.4576 69.463219)scale(0.1 -0.1)">
       <use xlink:href="#DejaVuSans-30"/>
       <use x="63.623047" xlink:href="#DejaVuSans-2e"/>
       <use x="95.410156" xlink:href="#DejaVuSans-38"/>
       <use x="159.033203" xlink:href="#DejaVuSans-38"/>
      </g>
     </g>
    </g>
   </g>
   <g id="LineCollection_13">
    <path clip-path="url(#pbbce66c487)" d="M 361.152 307.584 
L 374.4576 307.584 
" style="fill:none;stroke:#000080;stroke-width:1.5;"/>
    <path clip-path="url(#pbbce66c487)" d="M 361.152 283.392 
L 374.4576 283.392 
" style="fill:none;stroke:#0000e8;stroke-width:1.5;"/>
    <path clip-path="url(#pbbce66c487)" d="M 361.152 259.2 
L 374.4576 259.2 
" style="fill:none;stroke:#0038ff;stroke-width:1.5;"/>
    <path clip-path="url(#pbbce66c487)" d="M 361.152 235.008 
L 374.4576 235.008 
" style="fill:none;stroke:#0094ff;stroke-width:1.5;"/>
    <path clip-path="url(#pbbce66c487)" d="M 361.152 210.816 
L 374.4576 210.816 
" style="fill:none;stroke:#0cf4eb;stroke-width:1.5;"/>
    <path clip-path="url(#pbbce66c487)" d="M 361.152 186.624 
L 374.4576 186.624 
" style="fill:none;stroke:#56ffa0;stroke-width:1.5;"/>
    <path clip-path="url(#pbbce66c487)" d="M 361.152 162.432 
L 374.4576 162.432 
" style="fill:none;stroke:#a0ff56;stroke-width:1.5;"/>
    <path clip-path="url(#pbbce66c487)" d="M 361.152 138.24 
L 374.4576 138.24 
" style="fill:none;stroke:#ebff0c;stroke-width:1.5;"/>
    <path clip-path="url(#pbbce66c487)" d="M 361.152 114.048 
L 374.4576 114.048 
" style="fill:none;stroke:#ffab00;stroke-width:1.5;"/>
    <path clip-path="url(#pbbce66c487)" d="M 361.152 89.856 
L 374.4576 89.856 
" style="fill:none;stroke:#ff5500;stroke-width:1.5;"/>
    <path clip-path="url(#pbbce66c487)" d="M 361.152 65.664 
L 374.4576 65.664 
" style="fill:none;stroke:#e80000;stroke-width:1.5;"/>
    <path clip-path="url(#pbbce66c487)" d="M 361.152 41.472 
L 374.4576 41.472 
" style="fill:none;stroke:#800000;stroke-width:1.5;"/>
   </g>
   <g id="patch_8">
    <path d="M 361.152 307.584 
L 361.152 283.392 
L 361.152 65.664 
L 361.152 41.472 
L 374.4576 41.472 
L 374.4576 65.664 
L 374.4576 283.392 
L 374.4576 307.584 
z
" style="fill:none;stroke:#000000;stroke-linejoin:miter;stroke-width:0.8;"/>
   </g>
  </g>
 </g>
 <defs>
  <clipPath id="p1825aa1a8a">
   <rect height="237.902989" width="285.696" x="57.6" y="55.576506"/>
  </clipPath>
  <clipPath id="pbbce66c487">
   <rect height="266.112" width="13.3056" x="361.152" y="41.472"/>
  </clipPath>
 </defs>
</svg>
