<?xml version="1.0" encoding="utf-8" standalone="no"?>
<!DOCTYPE svg PUBLIC "-//W3C//DTD SVG 1.1//EN"
  "http://www.w3.org/Graphics/SVG/1.1/DTD/svg11.dtd">
<!-- Created with matplotlib (http://matplotlib.org/) -->
<svg height="345.6pt" version="1.1" viewBox="0 0 460.8 345.6" width="460.8pt" xmlns="http://www.w3.org/2000/svg" xmlns:xlink="http://www.w3.org/1999/xlink">
 <defs>
  <style type="text/css">
*{stroke-linecap:butt;stroke-linejoin:round;}
  </style>
 </defs>
 <g id="figure_1">
  <g id="patch_1">
   <path d="M 0 345.6 
L 460.8 345.6 
L 460.8 0 
L 0 0 
z
" style="fill:#ffffff;"/>
  </g>
  <g id="axes_1">
   <g id="patch_2">
    <path d="M 57.6 293.479494 
L 343.296 293.479494 
L 343.296 55.576506 
L 57.6 55.576506 
z
" style="fill:#ffffff;"/>
   </g>
   <g id="matplotlib.axis_1">
    <g id="xtick_1">
     <g id="line2d_1">
      <defs>
       <path d="M 0 0 
L 0 3.5 
" id="m47c504b886" style="stroke:#000000;stroke-width:0.8;"/>
      </defs>
      <g>
       <use style="stroke:#000000;stroke-width:0.8;" x="104.861978" xlink:href="#m47c504b886" y="293.479494"/>
      </g>
     </g>
     <g id="text_1">
      <!-- 0.2 -->
      <defs>
       <path d="M 31.78125 66.40625 
Q 24.171875 66.40625 20.328125 58.90625 
Q 16.5 51.421875 16.5 36.375 
Q 16.5 21.390625 20.328125 13.890625 
Q 24.171875 6.390625 31.78125 6.390625 
Q 39.453125 6.390625 43.28125 13.890625 
Q 47.125 21.390625 47.125 36.375 
Q 47.125 51.421875 43.28125 58.90625 
Q 39.453125 66.40625 31.78125 66.40625 
z
M 31.78125 74.21875 
Q 44.046875 74.21875 50.515625 64.515625 
Q 56.984375 54.828125 56.984375 36.375 
Q 56.984375 17.96875 50.515625 8.265625 
Q 44.046875 -1.421875 31.78125 -1.421875 
Q 19.53125 -1.421875 13.0625 8.265625 
Q 6.59375 17.96875 6.59375 36.375 
Q 6.59375 54.828125 13.0625 64.515625 
Q 19.53125 74.21875 31.78125 74.21875 
z
" id="DejaVuSans-30"/>
       <path d="M 10.6875 12.40625 
L 21 12.40625 
L 21 0 
L 10.6875 0 
z
" id="DejaVuSans-2e"/>
       <path d="M 19.1875 8.296875 
L 53.609375 8.296875 
L 53.609375 0 
L 7.328125 0 
L 7.328125 8.296875 
Q 12.9375 14.109375 22.625 23.890625 
Q 32.328125 33.6875 34.8125 36.53125 
Q 39.546875 41.84375 41.421875 45.53125 
Q 43.3125 49.21875 43.3125 52.78125 
Q 43.3125 58.59375 39.234375 62.25 
Q 35.15625 65.921875 28.609375 65.921875 
Q 23.96875 65.921875 18.8125 64.3125 
Q 13.671875 62.703125 7.8125 59.421875 
L 7.8125 69.390625 
Q 13.765625 71.78125 18.9375 73 
Q 24.125 74.21875 28.421875 74.21875 
Q 39.75 74.21875 46.484375 68.546875 
Q 53.21875 62.890625 53.21875 53.421875 
Q 53.21875 48.921875 51.53125 44.890625 
Q 49.859375 40.875 45.40625 35.40625 
Q 44.1875 33.984375 37.640625 27.21875 
Q 31.109375 20.453125 19.1875 8.296875 
z
" id="DejaVuSans-32"/>
      </defs>
      <g transform="translate(96.910415 308.077932)scale(0.1 -0.1)">
       <use xlink:href="#DejaVuSans-30"/>
       <use x="63.623047" xlink:href="#DejaVuSans-2e"/>
       <use x="95.410156" xlink:href="#DejaVuSans-32"/>
      </g>
     </g>
    </g>
    <g id="xtick_2">
     <g id="line2d_2">
      <g>
       <use style="stroke:#000000;stroke-width:0.8;" x="152.654989" xlink:href="#m47c504b886" y="293.479494"/>
      </g>
     </g>
     <g id="text_2">
      <!-- 0.4 -->
      <defs>
       <path d="M 37.796875 64.3125 
L 12.890625 25.390625 
L 37.796875 25.390625 
z
M 35.203125 72.90625 
L 47.609375 72.90625 
L 47.609375 25.390625 
L 58.015625 25.390625 
L 58.015625 17.1875 
L 47.609375 17.1875 
L 47.609375 0 
L 37.796875 0 
L 37.796875 17.1875 
L 4.890625 17.1875 
L 4.890625 26.703125 
z
" id="DejaVuSans-34"/>
      </defs>
      <g transform="translate(144.703426 308.077932)scale(0.1 -0.1)">
       <use xlink:href="#DejaVuSans-30"/>
       <use x="63.623047" xlink:href="#DejaVuSans-2e"/>
       <use x="95.410156" xlink:href="#DejaVuSans-34"/>
      </g>
     </g>
    </g>
    <g id="xtick_3">
     <g id="line2d_3">
      <g>
       <use style="stroke:#000000;stroke-width:0.8;" x="200.448" xlink:href="#m47c504b886" y="293.479494"/>
      </g>
     </g>
     <g id="text_3">
      <!-- 0.6 -->
      <defs>
       <path d="M 33.015625 40.375 
Q 26.375 40.375 22.484375 35.828125 
Q 18.609375 31.296875 18.609375 23.390625 
Q 18.609375 15.53125 22.484375 10.953125 
Q 26.375 6.390625 33.015625 6.390625 
Q 39.65625 6.390625 43.53125 10.953125 
Q 47.40625 15.53125 47.40625 23.390625 
Q 47.40625 31.296875 43.53125 35.828125 
Q 39.65625 40.375 33.015625 40.375 
z
M 52.59375 71.296875 
L 52.59375 62.3125 
Q 48.875 64.0625 45.09375 64.984375 
Q 41.3125 65.921875 37.59375 65.921875 
Q 27.828125 65.921875 22.671875 59.328125 
Q 17.53125 52.734375 16.796875 39.40625 
Q 19.671875 43.65625 24.015625 45.921875 
Q 28.375 48.1875 33.59375 48.1875 
Q 44.578125 48.1875 50.953125 41.515625 
Q 57.328125 34.859375 57.328125 23.390625 
Q 57.328125 12.15625 50.6875 5.359375 
Q 44.046875 -1.421875 33.015625 -1.421875 
Q 20.359375 -1.421875 13.671875 8.265625 
Q 6.984375 17.96875 6.984375 36.375 
Q 6.984375 53.65625 15.1875 63.9375 
Q 23.390625 74.21875 37.203125 74.21875 
Q 40.921875 74.21875 44.703125 73.484375 
Q 48.484375 72.75 52.59375 71.296875 
z
" id="DejaVuSans-36"/>
      </defs>
      <g transform="translate(192.496438 308.077932)scale(0.1 -0.1)">
       <use xlink:href="#DejaVuSans-30"/>
       <use x="63.623047" xlink:href="#DejaVuSans-2e"/>
       <use x="95.410156" xlink:href="#DejaVuSans-36"/>
      </g>
     </g>
    </g>
    <g id="xtick_4">
     <g id="line2d_4">
      <g>
       <use style="stroke:#000000;stroke-width:0.8;" x="248.241011" xlink:href="#m47c504b886" y="293.479494"/>
      </g>
     </g>
     <g id="text_4">
      <!-- 0.8 -->
      <defs>
       <path d="M 31.78125 34.625 
Q 24.75 34.625 20.71875 30.859375 
Q 16.703125 27.09375 16.703125 20.515625 
Q 16.703125 13.921875 20.71875 10.15625 
Q 24.75 6.390625 31.78125 6.390625 
Q 38.8125 6.390625 42.859375 10.171875 
Q 46.921875 13.96875 46.921875 20.515625 
Q 46.921875 27.09375 42.890625 30.859375 
Q 38.875 34.625 31.78125 34.625 
z
M 21.921875 38.8125 
Q 15.578125 40.375 12.03125 44.71875 
Q 8.5 49.078125 8.5 55.328125 
Q 8.5 64.0625 14.71875 69.140625 
Q 20.953125 74.21875 31.78125 74.21875 
Q 42.671875 74.21875 48.875 69.140625 
Q 55.078125 64.0625 55.078125 55.328125 
Q 55.078125 49.078125 51.53125 44.71875 
Q 48 40.375 41.703125 38.8125 
Q 48.828125 37.15625 52.796875 32.3125 
Q 56.78125 27.484375 56.78125 20.515625 
Q 56.78125 9.90625 50.3125 4.234375 
Q 43.84375 -1.421875 31.78125 -1.421875 
Q 19.734375 -1.421875 13.25 4.234375 
Q 6.78125 9.90625 6.78125 20.515625 
Q 6.78125 27.484375 10.78125 32.3125 
Q 14.796875 37.15625 21.921875 38.8125 
z
M 18.3125 54.390625 
Q 18.3125 48.734375 21.84375 45.5625 
Q 25.390625 42.390625 31.78125 42.390625 
Q 38.140625 42.390625 41.71875 45.5625 
Q 45.3125 48.734375 45.3125 54.390625 
Q 45.3125 60.0625 41.71875 63.234375 
Q 38.140625 66.40625 31.78125 66.40625 
Q 25.390625 66.40625 21.84375 63.234375 
Q 18.3125 60.0625 18.3125 54.390625 
z
" id="DejaVuSans-38"/>
      </defs>
      <g transform="translate(240.289449 308.077932)scale(0.1 -0.1)">
       <use xlink:href="#DejaVuSans-30"/>
       <use x="63.623047" xlink:href="#DejaVuSans-2e"/>
       <use x="95.410156" xlink:href="#DejaVuSans-38"/>
      </g>
     </g>
    </g>
    <g id="xtick_5">
     <g id="line2d_5">
      <g>
       <use style="stroke:#000000;stroke-width:0.8;" x="296.034022" xlink:href="#m47c504b886" y="293.479494"/>
      </g>
     </g>
     <g id="text_5">
      <!-- 1.0 -->
      <defs>
       <path d="M 12.40625 8.296875 
L 28.515625 8.296875 
L 28.515625 63.921875 
L 10.984375 60.40625 
L 10.984375 69.390625 
L 28.421875 72.90625 
L 38.28125 72.90625 
L 38.28125 8.296875 
L 54.390625 8.296875 
L 54.390625 0 
L 12.40625 0 
z
" id="DejaVuSans-31"/>
      </defs>
      <g transform="translate(288.08246 308.077932)scale(0.1 -0.1)">
       <use xlink:href="#DejaVuSans-31"/>
       <use x="63.623047" xlink:href="#DejaVuSans-2e"/>
       <use x="95.410156" xlink:href="#DejaVuSans-30"/>
      </g>
     </g>
    </g>
   </g>
   <g id="matplotlib.axis_2">
    <g id="ytick_1">
     <g id="line2d_6">
      <defs>
       <path d="M 0 0 
L -3.5 0 
" id="m3d3bcc62b7" style="stroke:#000000;stroke-width:0.8;"/>
      </defs>
      <g>
       <use style="stroke:#000000;stroke-width:0.8;" x="57.6" xlink:href="#m3d3bcc62b7" y="246.217517"/>
      </g>
     </g>
     <g id="text_6">
      <!-- 0.2 -->
      <g transform="translate(34.696875 250.016735)scale(0.1 -0.1)">
       <use xlink:href="#DejaVuSans-30"/>
       <use x="63.623047" xlink:href="#DejaVuSans-2e"/>
       <use x="95.410156" xlink:href="#DejaVuSans-32"/>
      </g>
     </g>
    </g>
    <g id="ytick_2">
     <g id="line2d_7">
      <g>
       <use style="stroke:#000000;stroke-width:0.8;" x="57.6" xlink:href="#m3d3bcc62b7" y="198.424506"/>
      </g>
     </g>
     <g id="text_7">
      <!-- 0.4 -->
      <g transform="translate(34.696875 202.223724)scale(0.1 -0.1)">
       <use xlink:href="#DejaVuSans-30"/>
       <use x="63.623047" xlink:href="#DejaVuSans-2e"/>
       <use x="95.410156" xlink:href="#DejaVuSans-34"/>
      </g>
     </g>
    </g>
    <g id="ytick_3">
     <g id="line2d_8">
      <g>
       <use style="stroke:#000000;stroke-width:0.8;" x="57.6" xlink:href="#m3d3bcc62b7" y="150.631494"/>
      </g>
     </g>
     <g id="text_8">
      <!-- 0.6 -->
      <g transform="translate(34.696875 154.430713)scale(0.1 -0.1)">
       <use xlink:href="#DejaVuSans-30"/>
       <use x="63.623047" xlink:href="#DejaVuSans-2e"/>
       <use x="95.410156" xlink:href="#DejaVuSans-36"/>
      </g>
     </g>
    </g>
    <g id="ytick_4">
     <g id="line2d_9">
      <g>
       <use style="stroke:#000000;stroke-width:0.8;" x="57.6" xlink:href="#m3d3bcc62b7" y="102.838483"/>
      </g>
     </g>
     <g id="text_9">
      <!-- 0.8 -->
      <g transform="translate(34.696875 106.637702)scale(0.1 -0.1)">
       <use xlink:href="#DejaVuSans-30"/>
       <use x="63.623047" xlink:href="#DejaVuSans-2e"/>
       <use x="95.410156" xlink:href="#DejaVuSans-38"/>
      </g>
     </g>
    </g>
   </g>
   <g id="LineCollection_1">
    <path clip-path="url(#pf4b58be151)" d="M 118.557676 293.479494 
L 118.137814 291.698815 
L 118.034763 291.355361 
L 117.530487 290.293294 
L 116.725833 289.231227 
L 115.421101 288.16916 
L 113.889546 287.421524 
L 112.82748 287.027432 
L 110.703346 286.538151 
L 107.517145 286.104364 
L 104.330944 285.92876 
L 97.958543 285.847666 
L 90.524074 285.73623 
L 86.275807 285.487483 
L 83.089606 285.124824 
L 79.903405 284.547125 
L 77.610664 283.920892 
L 75.655138 283.203689 
L 73.531004 282.128585 
L 72.468937 281.434027 
L 71.40687 280.600973 
L 70.344803 279.588104 
L 68.717944 277.548491 
L 67.46623 275.424357 
L 66.505071 273.300223 
L 65.738477 271.176089 
L 64.842185 267.989888 
L 63.967982 263.741621 
L 63.21264 258.431286 
L 62.673843 253.120952 
L 62.063354 244.624416 
L 61.397346 231.879613 
L 60.573431 211.700342 
L 59.861749 188.33487 
L 59.243308 160.72113 
L 58.598059 121.424654 
L 57.89898 63.010974 
L 57.91248 55.576506 
L 57.91248 55.576506 
" style="fill:none;stroke:#000080;stroke-width:1.5;"/>
   </g>
   <g id="LineCollection_2">
    <path clip-path="url(#pf4b58be151)" d="M 286.08463 293.479494 
L 286.455617 291.355361 
L 287.006454 288.412245 
L 287.10084 287.107093 
L 287.092177 283.920892 
L 286.868597 280.734691 
L 285.721155 270.114022 
L 283.820253 255.793325 
L 282.256112 247.810617 
L 281.439854 244.624416 
L 280.359498 241.438216 
L 279.388667 239.314082 
L 278.509918 237.863881 
L 277.447851 236.634666 
L 276.385784 235.795568 
L 274.810356 235.065814 
L 274.261651 234.884865 
L 272.137517 234.553055 
L 268.951316 234.494405 
L 248.772045 234.873264 
L 227.530706 235.107243 
L 214.785903 235.497508 
L 189.296297 236.410574 
L 182.923896 236.344065 
L 176.551494 236.054762 
L 170.179093 235.553116 
L 160.620491 234.534978 
L 147.875688 233.166663 
L 141.503286 232.68789 
L 135.130885 232.436868 
L 128.758483 232.435707 
L 122.386082 232.66179 
L 114.951613 233.151119 
L 109.641279 233.672414 
L 106.455078 234.139766 
L 103.268877 234.876696 
L 101.144743 235.639579 
L 100.082677 236.136226 
L 97.958543 237.499511 
L 96.896476 238.410705 
L 95.834409 239.540181 
L 94.460669 241.438216 
L 93.324133 243.562349 
L 92.481625 245.686483 
L 91.873787 247.810617 
L 91.447721 249.934751 
L 91.086061 253.120952 
L 90.524074 259.97763 
L 90.114825 261.617487 
L 89.462007 263.093708 
L 89.074578 263.741621 
L 88.194173 264.803688 
L 86.82502 265.865755 
L 86.275807 266.160177 
L 85.21374 266.583297 
L 84.151673 266.843537 
L 82.811694 266.927822 
L 82.027539 266.887223 
L 80.965472 266.681372 
L 79.903405 266.330387 
L 78.841338 265.833763 
L 77.373713 264.803688 
L 76.230743 263.741621 
L 75.308198 262.679554 
L 74.515537 261.617487 
L 73.275222 259.493353 
L 72.27216 257.369219 
L 71.086426 254.183019 
L 70.131869 250.996818 
L 68.893988 245.686483 
L 67.909499 240.376149 
L 66.797047 232.94168 
L 65.643835 223.383078 
L 64.607747 212.762409 
L 63.609588 200.017606 
L 62.622576 184.086602 
L 61.644908 163.907331 
L 60.685003 138.417725 
L 59.759658 106.555717 
L 58.732784 63.010974 
L 58.715011 57.700639 
L 58.762432 55.576506 
L 58.762432 55.576506 
" style="fill:none;stroke:#0000e8;stroke-width:1.5;"/>
   </g>
   <g id="LineCollection_3">
    <path clip-path="url(#pf4b58be151)" d="M 290.12194 293.479494 
L 290.520035 288.16916 
L 290.491248 284.982959 
L 290.144472 278.610558 
L 288.653796 257.369219 
L 287.278354 239.314082 
L 286.475189 230.817546 
L 285.506994 222.321011 
L 284.424876 214.886543 
L 283.419371 209.576208 
L 282.35039 205.327941 
L 281.694458 203.203807 
L 280.634052 200.751231 
L 279.436426 198.955539 
L 278.225048 197.893472 
L 277.447851 197.476498 
L 276.385784 197.247959 
L 275.323717 197.259989 
L 273.199584 197.697518 
L 266.827182 199.504401 
L 263.640981 200.047263 
L 260.454781 200.347632 
L 256.206513 200.511673 
L 247.709978 200.54173 
L 212.66177 200.564654 
L 183.985963 200.717152 
L 160.620491 201.101051 
L 131.944684 201.508659 
L 124.510216 201.430155 
L 119.199881 201.140668 
L 114.951613 200.709023 
L 109.641279 199.944026 
L 102.817955 198.955539 
L 100.082677 198.756815 
L 97.958543 198.779594 
L 95.834409 199.022592 
L 93.710275 199.560373 
L 91.586141 200.47272 
L 89.462007 201.844072 
L 87.892271 203.203807 
L 86.275807 204.891543 
L 84.151673 207.550692 
L 79.479191 213.824476 
L 78.467921 214.886543 
L 77.779271 215.507438 
L 76.717204 216.13226 
L 75.655138 216.340269 
L 74.477414 215.94861 
L 73.344668 214.886543 
L 72.468937 213.598348 
L 71.204433 210.638275 
L 70.204099 207.452074 
L 68.970657 202.14174 
L 67.835342 195.769338 
L 66.785366 188.33487 
L 65.703772 178.776268 
L 64.640141 167.093532 
L 63.55031 152.224595 
L 62.48439 134.169457 
L 61.427722 111.866052 
L 60.379688 84.252312 
L 59.568376 58.762706 
L 59.663769 55.576506 
L 59.663769 55.576506 
" style="fill:none;stroke:#0038ff;stroke-width:1.5;"/>
   </g>
   <g id="LineCollection_4">
    <path clip-path="url(#pf4b58be151)" d="M 292.354926 293.479494 
L 292.475596 284.982959 
L 292.14416 277.548491 
L 290.346509 241.438216 
L 289.425871 225.507212 
L 288.54727 212.762409 
L 287.57377 201.079673 
L 286.592496 191.521071 
L 285.491096 183.024535 
L 284.424502 176.652134 
L 283.513973 172.403866 
L 282.648175 169.217665 
L 281.397443 166.031465 
L 280.634052 164.605079 
L 279.571985 163.378722 
L 278.509918 162.764164 
L 277.447851 162.626616 
L 276.385784 162.845652 
L 275.323717 163.318533 
L 273.199584 164.688249 
L 269.793612 167.093532 
L 267.889249 168.23804 
L 265.765115 169.242754 
L 263.640981 169.969228 
L 261.516848 170.453807 
L 259.392714 170.746976 
L 256.206513 170.93344 
L 251.958245 170.919702 
L 234.965175 170.613176 
L 107.383643 170.279732 
L 96.896476 170.076767 
L 93.487034 170.279732 
L 91.586141 170.544534 
L 89.462007 171.035686 
L 87.337874 171.78563 
L 85.21374 172.842548 
L 82.666221 174.528 
L 77.779271 178.135244 
L 76.717204 178.620462 
L 75.443947 178.776268 
L 74.593071 178.61499 
L 73.387305 177.714201 
L 72.468937 176.542169 
L 71.40687 174.416201 
L 70.059415 170.279732 
L 69.032729 166.031465 
L 67.858887 159.659063 
L 66.782501 152.224595 
L 65.674748 142.665993 
L 64.581527 130.983257 
L 63.529693 117.176387 
L 62.474889 100.183316 
L 60.761386 67.259242 
L 60.518951 59.824773 
L 60.672485 55.576506 
L 60.672485 55.576506 
" style="fill:none;stroke:#0094ff;stroke-width:1.5;"/>
   </g>
   <g id="LineCollection_5">
    <path clip-path="url(#pf4b58be151)" d="M 294.051998 293.479494 
L 293.966542 281.796758 
L 292.876576 252.058885 
L 291.617869 221.258944 
L 290.645778 202.14174 
L 289.654389 186.210736 
L 288.588793 172.403866 
L 287.560724 161.783197 
L 286.524264 153.286662 
L 285.540662 146.91426 
L 284.484943 141.603926 
L 283.690275 138.417725 
L 282.624926 135.231524 
L 281.631689 133.10739 
L 280.634052 131.68647 
L 279.571985 130.848784 
L 278.509918 130.57201 
L 277.447851 130.750868 
L 276.385784 131.291571 
L 275.323717 132.10622 
L 273.199584 134.247808 
L 268.951316 138.898085 
L 266.827182 140.816169 
L 264.703048 142.312178 
L 262.578914 143.390199 
L 260.454781 144.098162 
L 258.330647 144.500795 
L 256.206513 144.665315 
L 253.020312 144.601826 
L 248.772045 144.206645 
L 241.337576 143.443987 
L 237.089309 143.208043 
L 231.778974 143.142327 
L 222.220372 143.323635 
L 210.537636 143.4714 
L 188.23423 143.420599 
L 145.751554 143.459722 
L 91.586141 143.584765 
L 88.399941 143.884432 
L 85.21374 144.464766 
L 83.089606 145.046636 
L 77.214629 146.91426 
L 76.717204 147.00318 
L 75.32967 146.91426 
L 74.593071 146.716986 
L 73.367399 145.852193 
L 72.442593 144.790126 
L 71.285827 142.665993 
L 70.110155 139.479792 
L 68.976525 135.231524 
L 67.900359 129.92119 
L 66.738719 122.486721 
L 65.688505 113.990186 
L 64.631461 103.369517 
L 63.520161 89.562647 
L 61.709217 63.010974 
L 61.649455 59.824773 
L 61.848268 55.879146 
L 61.867769 55.576506 
L 61.867769 55.576506 
" style="fill:none;stroke:#0cf4eb;stroke-width:1.5;"/>
   </g>
   <g id="LineCollection_6">
    <path clip-path="url(#pf4b58be151)" d="M 295.581186 293.479494 
L 295.352854 277.548491 
L 294.355713 242.500283 
L 293.185359 208.514141 
L 292.066019 183.024535 
L 290.931204 162.845264 
L 289.858677 147.976327 
L 288.777129 136.293591 
L 287.772998 127.797056 
L 286.636425 120.362587 
L 285.581087 115.052253 
L 284.471861 110.803985 
L 283.792867 108.679851 
L 282.758186 106.265959 
L 281.577623 104.431584 
L 280.393567 103.369517 
L 279.571985 102.973535 
L 278.509918 102.933078 
L 277.329528 103.369517 
L 275.884661 104.431584 
L 274.806774 105.493651 
L 273.199584 107.364405 
L 267.889249 114.137906 
L 265.765115 116.419362 
L 263.640981 118.257358 
L 261.516848 119.624702 
L 259.392714 120.540803 
L 257.26858 121.057434 
L 255.144446 121.239536 
L 253.020312 121.158101 
L 250.896178 120.882189 
L 247.709978 120.242226 
L 239.213442 118.366304 
L 236.027242 117.876875 
L 231.778974 117.483766 
L 227.530706 117.355707 
L 222.220372 117.455024 
L 194.606632 118.412025 
L 174.427361 118.578221 
L 111.765413 119.008355 
L 89.462007 119.318857 
L 84.151673 119.665614 
L 77.779271 120.22578 
L 76.717204 120.171127 
L 75.655138 119.974475 
L 74.204731 119.30052 
L 73.531004 118.843304 
L 72.468937 117.697181 
L 71.40687 115.983356 
L 70.153529 112.928119 
L 69.182376 109.741918 
L 67.998442 104.431584 
L 66.765832 96.997115 
L 65.672347 88.50058 
L 64.453208 76.817844 
L 63.382201 65.135108 
L 63.175738 60.88684 
L 63.255952 58.762706 
L 63.538145 55.576506 
L 63.538145 55.576506 
" style="fill:none;stroke:#56ffa0;stroke-width:1.5;"/>
   </g>
   <g id="LineCollection_7">
    <path clip-path="url(#pf4b58be151)" d="M 300.816827 293.479494 
L 300.709241 287.107093 
L 300.388262 280.734691 
L 299.751257 272.955058 
L 298.574816 261.617487 
L 296.481204 242.500283 
L 295.081739 206.390007 
L 294.072931 177.714201 
L 293.078183 155.410796 
L 292.042696 137.355658 
L 291.013904 123.548788 
L 289.876805 111.866052 
L 288.814279 103.369517 
L 287.800563 96.997115 
L 286.692775 91.686781 
L 285.840312 88.50058 
L 284.712712 85.314379 
L 283.731299 83.190245 
L 282.38241 81.066112 
L 281.50102 80.004045 
L 280.302325 78.941978 
L 279.571985 78.441168 
L 278.366375 77.879911 
L 277.447851 77.620295 
L 276.385784 77.493046 
L 275.323717 77.52968 
L 273.761834 77.879911 
L 273.199584 78.082414 
L 271.615815 78.941978 
L 270.274684 80.004045 
L 269.257674 81.066112 
L 268.427051 82.128178 
L 267.09515 84.252312 
L 265.492036 87.438513 
L 263.640981 91.162993 
L 262.578914 92.949981 
L 261.150422 94.872981 
L 260.16225 95.935048 
L 258.928362 96.997115 
L 257.26858 98.070487 
L 255.144446 98.953794 
L 253.020312 99.450208 
L 250.896178 99.673254 
L 247.709978 99.672535 
L 243.46171 99.323303 
L 236.027242 98.375609 
L 225.406572 97.05724 
L 217.972104 96.370089 
L 210.537636 95.929166 
L 203.103167 95.719067 
L 192.482498 95.682205 
L 164.868758 95.711588 
L 146.813621 95.425096 
L 78.841338 93.937181 
L 76.717204 93.55156 
L 75.655138 93.181904 
L 74.593071 92.619865 
L 73.451249 91.686781 
L 72.468937 90.549645 
L 71.282597 88.50058 
L 70.027749 85.314379 
L 69.087005 82.128178 
L 67.920529 76.817844 
L 66.836643 70.445442 
L 66.039949 64.073041 
L 65.988059 60.88684 
L 66.199726 58.762706 
L 66.548923 56.638572 
L 66.575514 55.576506 
L 66.575514 55.576506 
" style="fill:none;stroke:#a0ff56;stroke-width:1.5;"/>
   </g>
   <g id="LineCollection_8">
    <path clip-path="url(#pf4b58be151)" d="M 308.31485 293.479494 
L 308.172767 284.982959 
L 307.79035 276.486424 
L 307.055698 265.865755 
L 305.854842 252.058885 
L 304.046282 234.003747 
L 302.012457 215.94861 
L 299.867079 198.955539 
L 297.76782 184.086602 
L 296.528854 175.590067 
L 294.924898 143.728059 
L 294.019625 125.672922 
L 293.059582 110.803985 
L 292.097089 99.121249 
L 291.172935 90.624714 
L 290.192654 84.267646 
L 289.502724 81.066112 
L 288.615073 77.879911 
L 287.848011 75.755777 
L 286.848881 73.631643 
L 285.455304 71.507509 
L 284.518756 70.445442 
L 283.29319 69.383375 
L 282.758186 69.002327 
L 281.562466 68.321309 
L 279.571985 67.556109 
L 277.447851 67.093958 
L 275.323717 66.902409 
L 273.199584 66.913422 
L 271.07545 67.091548 
L 267.889249 67.629 
L 264.703048 68.439913 
L 261.516848 69.488686 
L 257.26858 71.174773 
L 246.647911 75.565843 
L 243.46171 76.474196 
L 241.337576 76.899069 
L 238.151375 77.251906 
L 234.965175 77.297645 
L 231.778974 77.087051 
L 228.592773 76.676157 
L 223.282439 75.686586 
L 213.723836 73.479057 
L 202.0411 70.738917 
L 194.606632 68.980545 
L 188.092721 67.259242 
L 182.923896 65.508402 
L 180.799762 64.608885 
L 178.675628 63.509256 
L 177.613561 62.851332 
L 176.426618 61.948907 
L 175.402643 60.88684 
L 174.702086 59.824773 
L 174.274901 58.762706 
L 174.066802 57.700639 
L 174.084305 55.576506 
L 174.084305 55.576506 
" style="fill:none;stroke:#ebff0c;stroke-width:1.5;"/>
   </g>
   <g id="LineCollection_9">
    <path clip-path="url(#pf4b58be151)" d="M 316.013991 293.479494 
L 315.891222 283.920892 
L 315.516442 273.300223 
L 314.817615 260.55542 
L 313.707797 244.624416 
L 312.15243 225.507212 
L 310.371926 206.32917 
L 308.589169 189.396937 
L 306.68624 173.465933 
L 304.81097 159.659063 
L 302.937457 147.505487 
L 301.171517 137.355658 
L 299.299505 127.797056 
L 297.427712 119.30052 
L 296.511663 115.052253 
L 294.749374 92.748848 
L 294.08083 85.314379 
L 293.378855 79.639685 
L 292.706921 75.755777 
L 291.959945 72.569576 
L 291.254721 70.315117 
L 290.192654 67.882222 
L 289.130587 66.157183 
L 288.06852 64.8777 
L 287.006454 63.881176 
L 284.88232 62.398358 
L 282.758186 61.293258 
L 278.509918 59.37736 
L 277.312381 58.762706 
L 276.032586 57.700639 
L 275.494104 56.638572 
L 275.458798 55.576506 
L 275.458798 55.576506 
" style="fill:none;stroke:#ffab00;stroke-width:1.5;"/>
   </g>
   <g id="LineCollection_10">
    <path clip-path="url(#pf4b58be151)" d="M 323.861246 293.479494 
L 323.744086 281.796758 
L 323.395382 269.051955 
L 322.724815 253.120952 
L 321.641969 232.94168 
L 320.2243 210.638275 
L 318.733046 190.459004 
L 317.185657 172.403866 
L 315.597125 156.472862 
L 313.994074 142.665993 
L 312.423533 130.983257 
L 310.778211 120.362587 
L 309.075227 110.803985 
L 307.339108 102.30745 
L 305.598411 94.872981 
L 303.885862 88.50058 
L 302.245199 83.190245 
L 300.737862 78.941978 
L 298.981722 74.69371 
L 297.42004 71.507509 
L 296.565056 69.986451 
L 295.922806 67.259242 
L 295.373358 65.135108 
L 294.604215 61.948907 
L 292.758382 55.576506 
L 292.758382 55.576506 
" style="fill:none;stroke:#ff5500;stroke-width:1.5;"/>
   </g>
   <g id="LineCollection_11">
    <path clip-path="url(#pf4b58be151)" d="M 331.808762 293.479494 
L 331.688739 277.548491 
L 331.323317 259.493353 
L 330.620719 236.127881 
L 329.529843 207.452074 
L 328.349213 181.962468 
L 327.157052 160.72113 
L 325.922475 142.665993 
L 324.696521 127.797056 
L 323.439599 115.052253 
L 322.054662 103.143218 
L 320.498357 91.686781 
L 316.544645 64.073041 
L 316.237026 59.824773 
L 316.13833 55.576506 
L 316.13833 55.576506 
" style="fill:none;stroke:#e80000;stroke-width:1.5;"/>
   </g>
   <g id="LineCollection_12">
    <path clip-path="url(#pf4b58be151)" d="M 339.81448 293.479494 
L 339.695897 264.803688 
L 339.298448 225.507212 
L 338.598581 177.714201 
L 337.822368 140.541859 
L 337.181957 118.238454 
L 335.99209 88.50058 
L 335.230621 71.507509 
L 334.967501 60.88684 
L 334.934666 55.576506 
L 334.934666 55.576506 
" style="fill:none;stroke:#800000;stroke-width:1.5;"/>
   </g>
   <g id="patch_3">
    <path d="M 57.6 293.479494 
L 57.6 55.576506 
" style="fill:none;stroke:#000000;stroke-linecap:square;stroke-linejoin:miter;stroke-width:0.8;"/>
   </g>
   <g id="patch_4">
    <path d="M 343.296 293.479494 
L 343.296 55.576506 
" style="fill:none;stroke:#000000;stroke-linecap:square;stroke-linejoin:miter;stroke-width:0.8;"/>
   </g>
   <g id="patch_5">
    <path d="M 57.6 293.479494 
L 343.296 293.479494 
" style="fill:none;stroke:#000000;stroke-linecap:square;stroke-linejoin:miter;stroke-width:0.8;"/>
   </g>
   <g id="patch_6">
    <path d="M 57.6 55.576506 
L 343.296 55.576506 
" style="fill:none;stroke:#000000;stroke-linecap:square;stroke-linejoin:miter;stroke-width:0.8;"/>
   </g>
   <g id="text_10">
    <!-- Time:0.11852 s -->
    <defs>
     <path d="M -0.296875 72.90625 
L 61.375 72.90625 
L 61.375 64.59375 
L 35.5 64.59375 
L 35.5 0 
L 25.59375 0 
L 25.59375 64.59375 
L -0.296875 64.59375 
z
" id="DejaVuSans-54"/>
     <path d="M 9.421875 54.6875 
L 18.40625 54.6875 
L 18.40625 0 
L 9.421875 0 
z
M 9.421875 75.984375 
L 18.40625 75.984375 
L 18.40625 64.59375 
L 9.421875 64.59375 
z
" id="DejaVuSans-69"/>
     <path d="M 52 44.1875 
Q 55.375 50.25 60.0625 53.125 
Q 64.75 56 71.09375 56 
Q 79.640625 56 84.28125 50.015625 
Q 88.921875 44.046875 88.921875 33.015625 
L 88.921875 0 
L 79.890625 0 
L 79.890625 32.71875 
Q 79.890625 40.578125 77.09375 44.375 
Q 74.3125 48.1875 68.609375 48.1875 
Q 61.625 48.1875 57.5625 43.546875 
Q 53.515625 38.921875 53.515625 30.90625 
L 53.515625 0 
L 44.484375 0 
L 44.484375 32.71875 
Q 44.484375 40.625 41.703125 44.40625 
Q 38.921875 48.1875 33.109375 48.1875 
Q 26.21875 48.1875 22.15625 43.53125 
Q 18.109375 38.875 18.109375 30.90625 
L 18.109375 0 
L 9.078125 0 
L 9.078125 54.6875 
L 18.109375 54.6875 
L 18.109375 46.1875 
Q 21.1875 51.21875 25.484375 53.609375 
Q 29.78125 56 35.6875 56 
Q 41.65625 56 45.828125 52.96875 
Q 50 49.953125 52 44.1875 
z
" id="DejaVuSans-6d"/>
     <path d="M 56.203125 29.59375 
L 56.203125 25.203125 
L 14.890625 25.203125 
Q 15.484375 15.921875 20.484375 11.0625 
Q 25.484375 6.203125 34.421875 6.203125 
Q 39.59375 6.203125 44.453125 7.46875 
Q 49.3125 8.734375 54.109375 11.28125 
L 54.109375 2.78125 
Q 49.265625 0.734375 44.1875 -0.34375 
Q 39.109375 -1.421875 33.890625 -1.421875 
Q 20.796875 -1.421875 13.15625 6.1875 
Q 5.515625 13.8125 5.515625 26.8125 
Q 5.515625 40.234375 12.765625 48.109375 
Q 20.015625 56 32.328125 56 
Q 43.359375 56 49.78125 48.890625 
Q 56.203125 41.796875 56.203125 29.59375 
z
M 47.21875 32.234375 
Q 47.125 39.59375 43.09375 43.984375 
Q 39.0625 48.390625 32.421875 48.390625 
Q 24.90625 48.390625 20.390625 44.140625 
Q 15.875 39.890625 15.1875 32.171875 
z
" id="DejaVuSans-65"/>
     <path d="M 11.71875 12.40625 
L 22.015625 12.40625 
L 22.015625 0 
L 11.71875 0 
z
M 11.71875 51.703125 
L 22.015625 51.703125 
L 22.015625 39.3125 
L 11.71875 39.3125 
z
" id="DejaVuSans-3a"/>
     <path d="M 10.796875 72.90625 
L 49.515625 72.90625 
L 49.515625 64.59375 
L 19.828125 64.59375 
L 19.828125 46.734375 
Q 21.96875 47.46875 24.109375 47.828125 
Q 26.265625 48.1875 28.421875 48.1875 
Q 40.625 48.1875 47.75 41.5 
Q 54.890625 34.8125 54.890625 23.390625 
Q 54.890625 11.625 47.5625 5.09375 
Q 40.234375 -1.421875 26.90625 -1.421875 
Q 22.3125 -1.421875 17.546875 -0.640625 
Q 12.796875 0.140625 7.71875 1.703125 
L 7.71875 11.625 
Q 12.109375 9.234375 16.796875 8.0625 
Q 21.484375 6.890625 26.703125 6.890625 
Q 35.15625 6.890625 40.078125 11.328125 
Q 45.015625 15.765625 45.015625 23.390625 
Q 45.015625 31 40.078125 35.4375 
Q 35.15625 39.890625 26.703125 39.890625 
Q 22.75 39.890625 18.8125 39.015625 
Q 14.890625 38.140625 10.796875 36.28125 
z
" id="DejaVuSans-35"/>
     <path id="DejaVuSans-20"/>
     <path d="M 44.28125 53.078125 
L 44.28125 44.578125 
Q 40.484375 46.53125 36.375 47.5 
Q 32.28125 48.484375 27.875 48.484375 
Q 21.1875 48.484375 17.84375 46.4375 
Q 14.5 44.390625 14.5 40.28125 
Q 14.5 37.15625 16.890625 35.375 
Q 19.28125 33.59375 26.515625 31.984375 
L 29.59375 31.296875 
Q 39.15625 29.25 43.1875 25.515625 
Q 47.21875 21.78125 47.21875 15.09375 
Q 47.21875 7.46875 41.1875 3.015625 
Q 35.15625 -1.421875 24.609375 -1.421875 
Q 20.21875 -1.421875 15.453125 -0.5625 
Q 10.6875 0.296875 5.421875 2 
L 5.421875 11.28125 
Q 10.40625 8.6875 15.234375 7.390625 
Q 20.0625 6.109375 24.8125 6.109375 
Q 31.15625 6.109375 34.5625 8.28125 
Q 37.984375 10.453125 37.984375 14.40625 
Q 37.984375 18.0625 35.515625 20.015625 
Q 33.0625 21.96875 24.703125 23.78125 
L 21.578125 24.515625 
Q 13.234375 26.265625 9.515625 29.90625 
Q 5.8125 33.546875 5.8125 39.890625 
Q 5.8125 47.609375 11.28125 51.796875 
Q 16.75 56 26.8125 56 
Q 31.78125 56 36.171875 55.265625 
Q 40.578125 54.546875 44.28125 53.078125 
z
" id="DejaVuSans-73"/>
    </defs>
    <g transform="translate(153.717375 49.576506)scale(0.12 -0.12)">
     <use xlink:href="#DejaVuSans-54"/>
     <use x="61.037109" xlink:href="#DejaVuSans-69"/>
     <use x="88.820312" xlink:href="#DejaVuSans-6d"/>
     <use x="186.232422" xlink:href="#DejaVuSans-65"/>
     <use x="247.755859" xlink:href="#DejaVuSans-3a"/>
     <use x="281.447266" xlink:href="#DejaVuSans-30"/>
     <use x="345.070312" xlink:href="#DejaVuSans-2e"/>
     <use x="376.857422" xlink:href="#DejaVuSans-31"/>
     <use x="440.480469" xlink:href="#DejaVuSans-31"/>
     <use x="504.103516" xlink:href="#DejaVuSans-38"/>
     <use x="567.726562" xlink:href="#DejaVuSans-35"/>
     <use x="631.349609" xlink:href="#DejaVuSans-32"/>
     <use x="694.972656" xlink:href="#DejaVuSans-20"/>
     <use x="726.759766" xlink:href="#DejaVuSans-73"/>
    </g>
   </g>
  </g>
  <g id="axes_2">
   <g id="patch_7">
    <path clip-path="url(#pe30a5137e5)" d="M 361.152 307.584 
L 361.152 283.392 
L 361.152 65.664 
L 361.152 41.472 
L 374.4576 41.472 
L 374.4576 65.664 
L 374.4576 283.392 
L 374.4576 307.584 
z
" style="fill:#ffffff;stroke:#ffffff;stroke-linejoin:miter;stroke-width:0.01;"/>
   </g>
   <g id="matplotlib.axis_3"/>
   <g id="matplotlib.axis_4">
    <g id="ytick_5">
     <g id="line2d_10">
      <defs>
       <path d="M 0 0 
L 3.5 0 
" id="m67fef7bf0f" style="stroke:#000000;stroke-width:0.8;"/>
      </defs>
      <g>
       <use style="stroke:#000000;stroke-width:0.8;" x="374.4576" xlink:href="#m67fef7bf0f" y="307.584"/>
      </g>
     </g>
     <g id="text_11">
      <!-- 0.08 -->
      <g transform="translate(381.4576 311.383219)scale(0.1 -0.1)">
       <use xlink:href="#DejaVuSans-30"/>
       <use x="63.623047" xlink:href="#DejaVuSans-2e"/>
       <use x="95.410156" xlink:href="#DejaVuSans-30"/>
       <use x="159.033203" xlink:href="#DejaVuSans-38"/>
      </g>
     </g>
    </g>
    <g id="ytick_6">
     <g id="line2d_11">
      <g>
       <use style="stroke:#000000;stroke-width:0.8;" x="374.4576" xlink:href="#m67fef7bf0f" y="259.2"/>
      </g>
     </g>
     <g id="text_12">
      <!-- 0.24 -->
      <g transform="translate(381.4576 262.999219)scale(0.1 -0.1)">
       <use xlink:href="#DejaVuSans-30"/>
       <use x="63.623047" xlink:href="#DejaVuSans-2e"/>
       <use x="95.410156" xlink:href="#DejaVuSans-32"/>
       <use x="159.033203" xlink:href="#DejaVuSans-34"/>
      </g>
     </g>
    </g>
    <g id="ytick_7">
     <g id="line2d_12">
      <g>
       <use style="stroke:#000000;stroke-width:0.8;" x="374.4576" xlink:href="#m67fef7bf0f" y="210.816"/>
      </g>
     </g>
     <g id="text_13">
      <!-- 0.40 -->
      <g transform="translate(381.4576 214.615219)scale(0.1 -0.1)">
       <use xlink:href="#DejaVuSans-30"/>
       <use x="63.623047" xlink:href="#DejaVuSans-2e"/>
       <use x="95.410156" xlink:href="#DejaVuSans-34"/>
       <use x="159.033203" xlink:href="#DejaVuSans-30"/>
      </g>
     </g>
    </g>
    <g id="ytick_8">
     <g id="line2d_13">
      <g>
       <use style="stroke:#000000;stroke-width:0.8;" x="374.4576" xlink:href="#m67fef7bf0f" y="162.432"/>
      </g>
     </g>
     <g id="text_14">
      <!-- 0.56 -->
      <g transform="translate(381.4576 166.231219)scale(0.1 -0.1)">
       <use xlink:href="#DejaVuSans-30"/>
       <use x="63.623047" xlink:href="#DejaVuSans-2e"/>
       <use x="95.410156" xlink:href="#DejaVuSans-35"/>
       <use x="159.033203" xlink:href="#DejaVuSans-36"/>
      </g>
     </g>
    </g>
    <g id="ytick_9">
     <g id="line2d_14">
      <g>
       <use style="stroke:#000000;stroke-width:0.8;" x="374.4576" xlink:href="#m67fef7bf0f" y="114.048"/>
      </g>
     </g>
     <g id="text_15">
      <!-- 0.72 -->
      <defs>
       <path d="M 8.203125 72.90625 
L 55.078125 72.90625 
L 55.078125 68.703125 
L 28.609375 0 
L 18.3125 0 
L 43.21875 64.59375 
L 8.203125 64.59375 
z
" id="DejaVuSans-37"/>
      </defs>
      <g transform="translate(381.4576 117.847219)scale(0.1 -0.1)">
       <use xlink:href="#DejaVuSans-30"/>
       <use x="63.623047" xlink:href="#DejaVuSans-2e"/>
       <use x="95.410156" xlink:href="#DejaVuSans-37"/>
       <use x="159.033203" xlink:href="#DejaVuSans-32"/>
      </g>
     </g>
    </g>
    <g id="ytick_10">
     <g id="line2d_15">
      <g>
       <use style="stroke:#000000;stroke-width:0.8;" x="374.4576" xlink:href="#m67fef7bf0f" y="65.664"/>
      </g>
     </g>
     <g id="text_16">
      <!-- 0.88 -->
      <g transform="translate(381.4576 69.463219)scale(0.1 -0.1)">
       <use xlink:href="#DejaVuSans-30"/>
       <use x="63.623047" xlink:href="#DejaVuSans-2e"/>
       <use x="95.410156" xlink:href="#DejaVuSans-38"/>
       <use x="159.033203" xlink:href="#DejaVuSans-38"/>
      </g>
     </g>
    </g>
   </g>
   <g id="LineCollection_13">
    <path clip-path="url(#pe30a5137e5)" d="M 361.152 307.584 
L 374.4576 307.584 
" style="fill:none;stroke:#000080;stroke-width:1.5;"/>
    <path clip-path="url(#pe30a5137e5)" d="M 361.152 283.392 
L 374.4576 283.392 
" style="fill:none;stroke:#0000e8;stroke-width:1.5;"/>
    <path clip-path="url(#pe30a5137e5)" d="M 361.152 259.2 
L 374.4576 259.2 
" style="fill:none;stroke:#0038ff;stroke-width:1.5;"/>
    <path clip-path="url(#pe30a5137e5)" d="M 361.152 235.008 
L 374.4576 235.008 
" style="fill:none;stroke:#0094ff;stroke-width:1.5;"/>
    <path clip-path="url(#pe30a5137e5)" d="M 361.152 210.816 
L 374.4576 210.816 
" style="fill:none;stroke:#0cf4eb;stroke-width:1.5;"/>
    <path clip-path="url(#pe30a5137e5)" d="M 361.152 186.624 
L 374.4576 186.624 
" style="fill:none;stroke:#56ffa0;stroke-width:1.5;"/>
    <path clip-path="url(#pe30a5137e5)" d="M 361.152 162.432 
L 374.4576 162.432 
" style="fill:none;stroke:#a0ff56;stroke-width:1.5;"/>
    <path clip-path="url(#pe30a5137e5)" d="M 361.152 138.24 
L 374.4576 138.24 
" style="fill:none;stroke:#ebff0c;stroke-width:1.5;"/>
    <path clip-path="url(#pe30a5137e5)" d="M 361.152 114.048 
L 374.4576 114.048 
" style="fill:none;stroke:#ffab00;stroke-width:1.5;"/>
    <path clip-path="url(#pe30a5137e5)" d="M 361.152 89.856 
L 374.4576 89.856 
" style="fill:none;stroke:#ff5500;stroke-width:1.5;"/>
    <path clip-path="url(#pe30a5137e5)" d="M 361.152 65.664 
L 374.4576 65.664 
" style="fill:none;stroke:#e80000;stroke-width:1.5;"/>
    <path clip-path="url(#pe30a5137e5)" d="M 361.152 41.472 
L 374.4576 41.472 
" style="fill:none;stroke:#800000;stroke-width:1.5;"/>
   </g>
   <g id="patch_8">
    <path d="M 361.152 307.584 
L 361.152 283.392 
L 361.152 65.664 
L 361.152 41.472 
L 374.4576 41.472 
L 374.4576 65.664 
L 374.4576 283.392 
L 374.4576 307.584 
z
" style="fill:none;stroke:#000000;stroke-linejoin:miter;stroke-width:0.8;"/>
   </g>
  </g>
 </g>
 <defs>
  <clipPath id="pf4b58be151">
   <rect height="237.902989" width="285.696" x="57.6" y="55.576506"/>
  </clipPath>
  <clipPath id="pe30a5137e5">
   <rect height="266.112" width="13.3056" x="361.152" y="41.472"/>
  </clipPath>
 </defs>
</svg>
