<?xml version="1.0" encoding="utf-8" standalone="no"?>
<!DOCTYPE svg PUBLIC "-//W3C//DTD SVG 1.1//EN"
  "http://www.w3.org/Graphics/SVG/1.1/DTD/svg11.dtd">
<!-- Created with matplotlib (http://matplotlib.org/) -->
<svg height="345.6pt" version="1.1" viewBox="0 0 460.8 345.6" width="460.8pt" xmlns="http://www.w3.org/2000/svg" xmlns:xlink="http://www.w3.org/1999/xlink">
 <defs>
  <style type="text/css">
*{stroke-linecap:butt;stroke-linejoin:round;}
  </style>
 </defs>
 <g id="figure_1">
  <g id="patch_1">
   <path d="M 0 345.6 
L 460.8 345.6 
L 460.8 0 
L 0 0 
z
" style="fill:#ffffff;"/>
  </g>
  <g id="axes_1">
   <g id="patch_2">
    <path d="M 57.6 293.479494 
L 343.296 293.479494 
L 343.296 55.576506 
L 57.6 55.576506 
z
" style="fill:#ffffff;"/>
   </g>
   <g id="matplotlib.axis_1">
    <g id="xtick_1">
     <g id="line2d_1">
      <defs>
       <path d="M 0 0 
L 0 3.5 
" id="m432de421df" style="stroke:#000000;stroke-width:0.8;"/>
      </defs>
      <g>
       <use style="stroke:#000000;stroke-width:0.8;" x="104.861978" xlink:href="#m432de421df" y="293.479494"/>
      </g>
     </g>
     <g id="text_1">
      <!-- 0.2 -->
      <defs>
       <path d="M 31.78125 66.40625 
Q 24.171875 66.40625 20.328125 58.90625 
Q 16.5 51.421875 16.5 36.375 
Q 16.5 21.390625 20.328125 13.890625 
Q 24.171875 6.390625 31.78125 6.390625 
Q 39.453125 6.390625 43.28125 13.890625 
Q 47.125 21.390625 47.125 36.375 
Q 47.125 51.421875 43.28125 58.90625 
Q 39.453125 66.40625 31.78125 66.40625 
z
M 31.78125 74.21875 
Q 44.046875 74.21875 50.515625 64.515625 
Q 56.984375 54.828125 56.984375 36.375 
Q 56.984375 17.96875 50.515625 8.265625 
Q 44.046875 -1.421875 31.78125 -1.421875 
Q 19.53125 -1.421875 13.0625 8.265625 
Q 6.59375 17.96875 6.59375 36.375 
Q 6.59375 54.828125 13.0625 64.515625 
Q 19.53125 74.21875 31.78125 74.21875 
z
" id="DejaVuSans-30"/>
       <path d="M 10.6875 12.40625 
L 21 12.40625 
L 21 0 
L 10.6875 0 
z
" id="DejaVuSans-2e"/>
       <path d="M 19.1875 8.296875 
L 53.609375 8.296875 
L 53.609375 0 
L 7.328125 0 
L 7.328125 8.296875 
Q 12.9375 14.109375 22.625 23.890625 
Q 32.328125 33.6875 34.8125 36.53125 
Q 39.546875 41.84375 41.421875 45.53125 
Q 43.3125 49.21875 43.3125 52.78125 
Q 43.3125 58.59375 39.234375 62.25 
Q 35.15625 65.921875 28.609375 65.921875 
Q 23.96875 65.921875 18.8125 64.3125 
Q 13.671875 62.703125 7.8125 59.421875 
L 7.8125 69.390625 
Q 13.765625 71.78125 18.9375 73 
Q 24.125 74.21875 28.421875 74.21875 
Q 39.75 74.21875 46.484375 68.546875 
Q 53.21875 62.890625 53.21875 53.421875 
Q 53.21875 48.921875 51.53125 44.890625 
Q 49.859375 40.875 45.40625 35.40625 
Q 44.1875 33.984375 37.640625 27.21875 
Q 31.109375 20.453125 19.1875 8.296875 
z
" id="DejaVuSans-32"/>
      </defs>
      <g transform="translate(96.910415 308.077932)scale(0.1 -0.1)">
       <use xlink:href="#DejaVuSans-30"/>
       <use x="63.623047" xlink:href="#DejaVuSans-2e"/>
       <use x="95.410156" xlink:href="#DejaVuSans-32"/>
      </g>
     </g>
    </g>
    <g id="xtick_2">
     <g id="line2d_2">
      <g>
       <use style="stroke:#000000;stroke-width:0.8;" x="152.654989" xlink:href="#m432de421df" y="293.479494"/>
      </g>
     </g>
     <g id="text_2">
      <!-- 0.4 -->
      <defs>
       <path d="M 37.796875 64.3125 
L 12.890625 25.390625 
L 37.796875 25.390625 
z
M 35.203125 72.90625 
L 47.609375 72.90625 
L 47.609375 25.390625 
L 58.015625 25.390625 
L 58.015625 17.1875 
L 47.609375 17.1875 
L 47.609375 0 
L 37.796875 0 
L 37.796875 17.1875 
L 4.890625 17.1875 
L 4.890625 26.703125 
z
" id="DejaVuSans-34"/>
      </defs>
      <g transform="translate(144.703426 308.077932)scale(0.1 -0.1)">
       <use xlink:href="#DejaVuSans-30"/>
       <use x="63.623047" xlink:href="#DejaVuSans-2e"/>
       <use x="95.410156" xlink:href="#DejaVuSans-34"/>
      </g>
     </g>
    </g>
    <g id="xtick_3">
     <g id="line2d_3">
      <g>
       <use style="stroke:#000000;stroke-width:0.8;" x="200.448" xlink:href="#m432de421df" y="293.479494"/>
      </g>
     </g>
     <g id="text_3">
      <!-- 0.6 -->
      <defs>
       <path d="M 33.015625 40.375 
Q 26.375 40.375 22.484375 35.828125 
Q 18.609375 31.296875 18.609375 23.390625 
Q 18.609375 15.53125 22.484375 10.953125 
Q 26.375 6.390625 33.015625 6.390625 
Q 39.65625 6.390625 43.53125 10.953125 
Q 47.40625 15.53125 47.40625 23.390625 
Q 47.40625 31.296875 43.53125 35.828125 
Q 39.65625 40.375 33.015625 40.375 
z
M 52.59375 71.296875 
L 52.59375 62.3125 
Q 48.875 64.0625 45.09375 64.984375 
Q 41.3125 65.921875 37.59375 65.921875 
Q 27.828125 65.921875 22.671875 59.328125 
Q 17.53125 52.734375 16.796875 39.40625 
Q 19.671875 43.65625 24.015625 45.921875 
Q 28.375 48.1875 33.59375 48.1875 
Q 44.578125 48.1875 50.953125 41.515625 
Q 57.328125 34.859375 57.328125 23.390625 
Q 57.328125 12.15625 50.6875 5.359375 
Q 44.046875 -1.421875 33.015625 -1.421875 
Q 20.359375 -1.421875 13.671875 8.265625 
Q 6.984375 17.96875 6.984375 36.375 
Q 6.984375 53.65625 15.1875 63.9375 
Q 23.390625 74.21875 37.203125 74.21875 
Q 40.921875 74.21875 44.703125 73.484375 
Q 48.484375 72.75 52.59375 71.296875 
z
" id="DejaVuSans-36"/>
      </defs>
      <g transform="translate(192.496438 308.077932)scale(0.1 -0.1)">
       <use xlink:href="#DejaVuSans-30"/>
       <use x="63.623047" xlink:href="#DejaVuSans-2e"/>
       <use x="95.410156" xlink:href="#DejaVuSans-36"/>
      </g>
     </g>
    </g>
    <g id="xtick_4">
     <g id="line2d_4">
      <g>
       <use style="stroke:#000000;stroke-width:0.8;" x="248.241011" xlink:href="#m432de421df" y="293.479494"/>
      </g>
     </g>
     <g id="text_4">
      <!-- 0.8 -->
      <defs>
       <path d="M 31.78125 34.625 
Q 24.75 34.625 20.71875 30.859375 
Q 16.703125 27.09375 16.703125 20.515625 
Q 16.703125 13.921875 20.71875 10.15625 
Q 24.75 6.390625 31.78125 6.390625 
Q 38.8125 6.390625 42.859375 10.171875 
Q 46.921875 13.96875 46.921875 20.515625 
Q 46.921875 27.09375 42.890625 30.859375 
Q 38.875 34.625 31.78125 34.625 
z
M 21.921875 38.8125 
Q 15.578125 40.375 12.03125 44.71875 
Q 8.5 49.078125 8.5 55.328125 
Q 8.5 64.0625 14.71875 69.140625 
Q 20.953125 74.21875 31.78125 74.21875 
Q 42.671875 74.21875 48.875 69.140625 
Q 55.078125 64.0625 55.078125 55.328125 
Q 55.078125 49.078125 51.53125 44.71875 
Q 48 40.375 41.703125 38.8125 
Q 48.828125 37.15625 52.796875 32.3125 
Q 56.78125 27.484375 56.78125 20.515625 
Q 56.78125 9.90625 50.3125 4.234375 
Q 43.84375 -1.421875 31.78125 -1.421875 
Q 19.734375 -1.421875 13.25 4.234375 
Q 6.78125 9.90625 6.78125 20.515625 
Q 6.78125 27.484375 10.78125 32.3125 
Q 14.796875 37.15625 21.921875 38.8125 
z
M 18.3125 54.390625 
Q 18.3125 48.734375 21.84375 45.5625 
Q 25.390625 42.390625 31.78125 42.390625 
Q 38.140625 42.390625 41.71875 45.5625 
Q 45.3125 48.734375 45.3125 54.390625 
Q 45.3125 60.0625 41.71875 63.234375 
Q 38.140625 66.40625 31.78125 66.40625 
Q 25.390625 66.40625 21.84375 63.234375 
Q 18.3125 60.0625 18.3125 54.390625 
z
" id="DejaVuSans-38"/>
      </defs>
      <g transform="translate(240.289449 308.077932)scale(0.1 -0.1)">
       <use xlink:href="#DejaVuSans-30"/>
       <use x="63.623047" xlink:href="#DejaVuSans-2e"/>
       <use x="95.410156" xlink:href="#DejaVuSans-38"/>
      </g>
     </g>
    </g>
    <g id="xtick_5">
     <g id="line2d_5">
      <g>
       <use style="stroke:#000000;stroke-width:0.8;" x="296.034022" xlink:href="#m432de421df" y="293.479494"/>
      </g>
     </g>
     <g id="text_5">
      <!-- 1.0 -->
      <defs>
       <path d="M 12.40625 8.296875 
L 28.515625 8.296875 
L 28.515625 63.921875 
L 10.984375 60.40625 
L 10.984375 69.390625 
L 28.421875 72.90625 
L 38.28125 72.90625 
L 38.28125 8.296875 
L 54.390625 8.296875 
L 54.390625 0 
L 12.40625 0 
z
" id="DejaVuSans-31"/>
      </defs>
      <g transform="translate(288.08246 308.077932)scale(0.1 -0.1)">
       <use xlink:href="#DejaVuSans-31"/>
       <use x="63.623047" xlink:href="#DejaVuSans-2e"/>
       <use x="95.410156" xlink:href="#DejaVuSans-30"/>
      </g>
     </g>
    </g>
   </g>
   <g id="matplotlib.axis_2">
    <g id="ytick_1">
     <g id="line2d_6">
      <defs>
       <path d="M 0 0 
L -3.5 0 
" id="m0eb0a2b89f" style="stroke:#000000;stroke-width:0.8;"/>
      </defs>
      <g>
       <use style="stroke:#000000;stroke-width:0.8;" x="57.6" xlink:href="#m0eb0a2b89f" y="246.217517"/>
      </g>
     </g>
     <g id="text_6">
      <!-- 0.2 -->
      <g transform="translate(34.696875 250.016735)scale(0.1 -0.1)">
       <use xlink:href="#DejaVuSans-30"/>
       <use x="63.623047" xlink:href="#DejaVuSans-2e"/>
       <use x="95.410156" xlink:href="#DejaVuSans-32"/>
      </g>
     </g>
    </g>
    <g id="ytick_2">
     <g id="line2d_7">
      <g>
       <use style="stroke:#000000;stroke-width:0.8;" x="57.6" xlink:href="#m0eb0a2b89f" y="198.424506"/>
      </g>
     </g>
     <g id="text_7">
      <!-- 0.4 -->
      <g transform="translate(34.696875 202.223724)scale(0.1 -0.1)">
       <use xlink:href="#DejaVuSans-30"/>
       <use x="63.623047" xlink:href="#DejaVuSans-2e"/>
       <use x="95.410156" xlink:href="#DejaVuSans-34"/>
      </g>
     </g>
    </g>
    <g id="ytick_3">
     <g id="line2d_8">
      <g>
       <use style="stroke:#000000;stroke-width:0.8;" x="57.6" xlink:href="#m0eb0a2b89f" y="150.631494"/>
      </g>
     </g>
     <g id="text_8">
      <!-- 0.6 -->
      <g transform="translate(34.696875 154.430713)scale(0.1 -0.1)">
       <use xlink:href="#DejaVuSans-30"/>
       <use x="63.623047" xlink:href="#DejaVuSans-2e"/>
       <use x="95.410156" xlink:href="#DejaVuSans-36"/>
      </g>
     </g>
    </g>
    <g id="ytick_4">
     <g id="line2d_9">
      <g>
       <use style="stroke:#000000;stroke-width:0.8;" x="57.6" xlink:href="#m0eb0a2b89f" y="102.838483"/>
      </g>
     </g>
     <g id="text_9">
      <!-- 0.8 -->
      <g transform="translate(34.696875 106.637702)scale(0.1 -0.1)">
       <use xlink:href="#DejaVuSans-30"/>
       <use x="63.623047" xlink:href="#DejaVuSans-2e"/>
       <use x="95.410156" xlink:href="#DejaVuSans-38"/>
      </g>
     </g>
    </g>
   </g>
   <g id="LineCollection_1">
    <path clip-path="url(#pd5d4295c07)" d="M 116.446728 293.479494 
L 116.01368 291.790333 
L 115.869146 291.355361 
L 115.301003 290.293294 
L 114.376299 289.231227 
L 112.820214 288.16916 
L 110.703346 287.361589 
L 109.641279 287.065841 
L 106.455078 286.572201 
L 103.268877 286.311248 
L 97.958543 286.126474 
L 88.399941 285.820537 
L 84.151673 285.436855 
L 80.965472 284.926983 
L 78.841338 284.445194 
L 76.717204 283.783083 
L 74.551457 282.858825 
L 72.468937 281.617283 
L 71.339403 280.734691 
L 70.232861 279.672625 
L 69.282736 278.563193 
L 67.903471 276.486424 
L 66.832126 274.36229 
L 65.987548 272.238156 
L 65.014295 269.051955 
L 64.079914 264.803688 
L 63.412827 260.55542 
L 62.804951 255.245086 
L 62.216365 247.810617 
L 61.609961 237.189948 
L 60.776252 218.072743 
L 60.044247 195.769338 
L 59.399119 169.217665 
L 58.758705 133.10739 
L 58.173522 87.438513 
L 57.906718 55.576506 
L 57.906718 55.576506 
" style="fill:none;stroke:#000080;stroke-width:1.5;"/>
   </g>
   <g id="LineCollection_2">
    <path clip-path="url(#pd5d4295c07)" d="M 285.975954 293.479494 
L 286.341286 291.355361 
L 286.921486 288.16916 
L 287.041807 286.045026 
L 286.943687 282.858825 
L 286.332584 276.486424 
L 285.349017 267.989888 
L 284.220908 259.493353 
L 283.370121 254.183019 
L 282.309857 248.872684 
L 281.516177 245.686483 
L 280.470466 242.500283 
L 279.550427 240.376149 
L 278.176763 238.252015 
L 277.181778 237.189948 
L 276.385784 236.558404 
L 275.323717 235.993746 
L 274.261651 235.633658 
L 272.137517 235.288441 
L 268.951316 235.216957 
L 245.585844 235.60522 
L 228.592773 235.817203 
L 215.84797 236.209405 
L 191.420431 237.119217 
L 185.04803 237.082128 
L 178.675628 236.819633 
L 172.303227 236.333456 
L 163.806691 235.427126 
L 147.875688 233.636106 
L 141.503286 233.155683 
L 135.130885 232.916769 
L 128.974204 232.94168 
L 123.448149 233.167513 
L 117.075747 233.630993 
L 111.765413 234.18324 
L 107.517145 234.822628 
L 104.330944 235.559069 
L 102.20681 236.278188 
L 100.082677 237.309205 
L 98.67302 238.252015 
L 97.435072 239.314082 
L 96.445023 240.376149 
L 95.628043 241.438216 
L 94.378903 243.562349 
L 93.482107 245.686483 
L 92.853618 247.810617 
L 92.438902 249.934751 
L 92.127792 253.120952 
L 91.84468 259.493353 
L 91.436824 261.617487 
L 91.068839 262.679554 
L 90.524074 263.782151 
L 89.462007 265.180915 
L 88.399941 266.13516 
L 87.120991 266.927822 
L 86.275807 267.277062 
L 85.21374 267.587476 
L 84.151673 267.761658 
L 83.089606 267.798975 
L 82.027539 267.700923 
L 80.965472 267.469761 
L 79.531244 266.927822 
L 78.841338 266.581498 
L 77.740112 265.865755 
L 76.522641 264.803688 
L 75.538086 263.741621 
L 74.043275 261.617487 
L 73.412079 260.55542 
L 71.948093 257.369219 
L 71.158565 255.245086 
L 69.912207 250.996818 
L 68.929614 246.74855 
L 67.937686 241.438216 
L 66.822482 234.003747 
L 65.668216 224.445145 
L 64.629756 213.824476 
L 63.628389 201.079673 
L 62.638554 185.148669 
L 61.658971 164.969398 
L 60.69796 139.479792 
L 59.771573 107.617784 
L 58.72113 63.010974 
L 58.702944 57.700639 
L 58.750139 55.576506 
L 58.750139 55.576506 
" style="fill:none;stroke:#0000e8;stroke-width:1.5;"/>
   </g>
   <g id="LineCollection_3">
    <path clip-path="url(#pd5d4295c07)" d="M 290.07121 293.479494 
L 290.480627 288.16916 
L 290.453179 284.982959 
L 290.100479 278.610558 
L 288.458933 255.245086 
L 287.398442 241.438216 
L 286.515733 231.879613 
L 285.558238 223.383078 
L 284.48986 215.94861 
L 283.502593 210.638275 
L 282.459425 206.390007 
L 281.386595 203.203807 
L 280.381633 201.079673 
L 279.571985 199.822655 
L 278.509918 198.785518 
L 277.447851 198.21525 
L 276.385784 197.986075 
L 275.323717 197.995818 
L 273.199584 198.42557 
L 266.827182 200.204743 
L 263.640981 200.739422 
L 260.454781 201.034411 
L 256.206513 201.196097 
L 247.709978 201.227237 
L 212.66177 201.259353 
L 185.04803 201.426501 
L 162.744625 201.821017 
L 136.192952 202.229245 
L 126.634349 202.224398 
L 121.324015 202.019779 
L 117.075747 201.671322 
L 111.765413 200.982676 
L 102.20681 199.583728 
L 99.02061 199.436076 
L 96.896476 199.564392 
L 94.545564 200.017606 
L 92.648208 200.678147 
L 90.524074 201.827091 
L 88.720049 203.203807 
L 87.337874 204.506092 
L 85.21374 206.960536 
L 82.513386 210.638275 
L 79.903405 214.187017 
L 78.23396 215.94861 
L 77.779271 216.359876 
L 76.592679 217.010677 
L 75.655138 217.194465 
L 74.593071 216.89852 
L 73.488283 215.94861 
L 72.468937 214.444388 
L 71.277604 211.700342 
L 69.996886 207.452074 
L 69.017295 203.203807 
L 67.874051 196.831405 
L 66.818118 189.396937 
L 65.732069 179.838335 
L 64.665194 168.155599 
L 63.5731 153.286662 
L 62.50533 135.231524 
L 61.446204 112.928119 
L 60.396081 85.314379 
L 59.550724 58.762706 
L 59.645539 55.576506 
L 59.645539 55.576506 
" style="fill:none;stroke:#0038ff;stroke-width:1.5;"/>
   </g>
   <g id="LineCollection_4">
    <path clip-path="url(#pd5d4295c07)" d="M 292.327433 293.479494 
L 292.450207 284.982959 
L 292.115724 277.548491 
L 288.813666 217.010677 
L 287.609087 202.14174 
L 286.508702 191.521071 
L 285.539667 184.086602 
L 284.483579 177.714201 
L 283.588941 173.465933 
L 282.748068 170.279732 
L 281.53957 167.093532 
L 280.634052 165.404195 
L 279.571985 164.181022 
L 278.509918 163.567588 
L 277.447851 163.428533 
L 276.385784 163.644419 
L 275.323717 164.111985 
L 273.199584 165.468897 
L 269.309355 168.155599 
L 267.4227 169.217665 
L 265.765115 169.975818 
L 263.640981 170.692978 
L 261.516848 171.171035 
L 259.392714 171.459658 
L 256.206513 171.643502 
L 251.958245 171.629988 
L 234.965175 171.328336 
L 106.455078 170.963725 
L 96.896476 170.778068 
L 93.710275 170.957782 
L 91.152875 171.341799 
L 89.462007 171.751449 
L 87.337874 172.512154 
L 85.21374 173.584126 
L 83.089606 174.978278 
L 77.779271 178.946735 
L 76.717204 179.43973 
L 75.655138 179.640628 
L 74.593071 179.441528 
L 73.531004 178.723743 
L 72.468937 177.364513 
L 71.161988 174.528 
L 70.126879 171.341799 
L 69.087615 167.093532 
L 67.905671 160.72113 
L 66.823319 153.286662 
L 65.7111 143.728059 
L 64.613967 132.045323 
L 63.485899 117.176387 
L 62.43991 100.183316 
L 60.786201 68.294453 
L 60.499089 60.88684 
L 60.543633 57.700639 
L 60.645639 55.576506 
L 60.645639 55.576506 
" style="fill:none;stroke:#0094ff;stroke-width:1.5;"/>
   </g>
   <g id="LineCollection_5">
    <path clip-path="url(#pd5d4295c07)" d="M 294.030138 293.479494 
L 293.945682 281.796758 
L 292.852953 252.058885 
L 291.636778 222.321011 
L 290.667479 203.203807 
L 289.678774 187.272803 
L 288.616624 173.465933 
L 287.593476 162.845264 
L 286.563996 154.348729 
L 285.590187 147.976327 
L 284.548647 142.665993 
L 283.43626 138.417725 
L 282.743547 136.293591 
L 281.696119 134.002297 
L 280.634052 132.490049 
L 279.571985 131.653642 
L 278.509918 131.376505 
L 277.447851 131.554566 
L 276.385784 132.092345 
L 275.110031 133.10739 
L 273.199584 135.033827 
L 268.951316 139.647931 
L 266.752327 141.603926 
L 264.703048 143.027214 
L 262.578914 144.092318 
L 260.454781 144.790405 
L 258.330647 145.18775 
L 256.206513 145.349807 
L 253.020312 145.287085 
L 248.772045 144.899287 
L 241.337576 144.158552 
L 236.027242 143.902382 
L 230.716907 143.880995 
L 200.979033 144.169632 
L 164.868758 144.136811 
L 91.586141 144.28283 
L 88.399941 144.58829 
L 85.21374 145.179751 
L 82.845489 145.852193 
L 77.779271 147.574251 
L 76.717204 147.767556 
L 75.655138 147.769331 
L 74.593071 147.485902 
L 73.531004 146.804415 
L 72.468937 145.598694 
L 71.40687 143.725626 
L 70.203609 140.541859 
L 69.051216 136.293591 
L 67.961592 130.983257 
L 66.789767 123.548788 
L 65.730776 115.052253 
L 64.572838 103.369517 
L 63.471598 89.562647 
L 61.721127 64.073041 
L 61.611467 59.824773 
L 61.82494 55.576506 
L 61.82494 55.576506 
" style="fill:none;stroke:#0cf4eb;stroke-width:1.5;"/>
   </g>
   <g id="LineCollection_6">
    <path clip-path="url(#pd5d4295c07)" d="M 295.553004 293.479494 
L 295.30798 276.486424 
L 294.234928 239.314082 
L 293.116202 207.452074 
L 292.029705 183.024535 
L 290.951629 163.907331 
L 289.883381 149.038394 
L 288.808234 137.355658 
L 287.665532 127.797056 
L 286.688155 121.424654 
L 285.647806 116.11432 
L 284.559117 111.866052 
L 283.460195 108.679851 
L 282.451067 106.555717 
L 281.696119 105.345986 
L 280.634052 104.284697 
L 279.571985 103.77549 
L 278.509918 103.736199 
L 277.447851 104.09314 
L 276.385784 104.776795 
L 274.544973 106.555717 
L 273.199584 108.129501 
L 267.716711 115.052253 
L 265.713987 117.176387 
L 263.640981 118.960124 
L 261.516848 120.3202 
L 259.392714 121.231761 
L 257.26858 121.744988 
L 255.144446 121.925502 
L 253.020312 121.843283 
L 250.105462 121.424654 
L 247.709978 120.927792 
L 239.213442 119.050425 
L 234.965175 118.438191 
L 230.716907 118.127076 
L 226.468639 118.070331 
L 220.096238 118.274712 
L 204.165234 118.951979 
L 192.482498 119.154509 
L 165.930825 119.306864 
L 118.137814 119.631338 
L 89.462007 119.988692 
L 85.21374 120.24653 
L 77.779271 120.927443 
L 76.717204 120.878291 
L 75.655138 120.686785 
L 74.593071 120.279998 
L 73.286215 119.30052 
L 72.356272 118.238454 
L 71.149576 116.11432 
L 70.259115 113.990186 
L 69.011166 109.741918 
L 67.866103 104.431584 
L 66.810253 98.059182 
L 65.705966 89.562647 
L 64.483106 77.879911 
L 63.31413 65.135108 
L 63.101488 60.88684 
L 63.179967 58.762706 
L 63.465314 55.576506 
L 63.465314 55.576506 
" style="fill:none;stroke:#56ffa0;stroke-width:1.5;"/>
   </g>
   <g id="LineCollection_7">
    <path clip-path="url(#pd5d4295c07)" d="M 300.741874 293.479494 
L 300.634341 287.107093 
L 300.312458 280.734691 
L 299.706252 273.300223 
L 298.494817 261.617487 
L 296.452903 242.500283 
L 295.093579 207.452074 
L 294.086202 178.776268 
L 293.093677 156.472862 
L 292.062194 138.417725 
L 291.039378 124.610855 
L 289.908957 112.928119 
L 288.853079 104.431584 
L 287.850619 98.059182 
L 286.765037 92.748848 
L 285.595956 88.50058 
L 284.865415 86.376446 
L 283.820253 84.033727 
L 282.689229 82.128178 
L 281.696119 80.851831 
L 280.634052 79.828701 
L 279.264971 78.941978 
L 278.509918 78.594688 
L 277.447851 78.305104 
L 276.385784 78.201837 
L 275.323717 78.277985 
L 274.261651 78.526552 
L 273.19369 78.941978 
L 271.540396 80.004045 
L 270.378912 81.066112 
L 269.468627 82.128178 
L 268.05024 84.252312 
L 266.827182 86.555735 
L 264.263234 91.686781 
L 262.967719 93.810914 
L 261.516848 95.707631 
L 260.240678 96.997115 
L 258.8834 98.059182 
L 257.26858 99.000685 
L 256.206513 99.448388 
L 254.082379 100.042501 
L 251.958245 100.324704 
L 249.834112 100.388382 
L 246.647911 100.222745 
L 242.399643 99.743129 
L 224.344506 97.435485 
L 217.972104 96.907753 
L 210.537636 96.53833 
L 202.0411 96.383678 
L 189.296297 96.432007 
L 170.179093 96.486956 
L 153.186022 96.290186 
L 118.137814 95.583815 
L 88.399941 95.073746 
L 79.903405 94.958325 
L 77.779271 94.732593 
L 76.717204 94.502739 
L 75.015783 93.810914 
L 74.593071 93.588995 
L 73.521049 92.748848 
L 72.468937 91.543101 
L 71.303698 89.562647 
L 70.034492 86.376446 
L 69.085855 83.190245 
L 67.912024 77.879911 
L 66.81911 71.507509 
L 65.971326 65.135108 
L 65.811199 61.948907 
L 65.896078 59.824773 
L 66.374508 55.576506 
L 66.374508 55.576506 
" style="fill:none;stroke:#a0ff56;stroke-width:1.5;"/>
   </g>
   <g id="LineCollection_8">
    <path clip-path="url(#pd5d4295c07)" d="M 308.251456 293.479494 
L 308.109311 284.982959 
L 307.725999 276.486424 
L 306.989806 265.865755 
L 305.786235 252.058885 
L 303.999524 234.260023 
L 302.05631 217.010677 
L 300.055405 201.079673 
L 297.974727 186.210736 
L 296.488936 175.590067 
L 294.984057 145.852193 
L 294.035897 126.734989 
L 293.079983 111.866052 
L 292.123314 100.183316 
L 291.217432 91.686781 
L 290.267675 85.314379 
L 289.619454 82.128178 
L 288.795098 78.941978 
L 288.06852 76.737315 
L 287.006454 74.316193 
L 285.944387 72.508825 
L 284.88232 71.150961 
L 283.820253 70.107166 
L 282.758186 69.297489 
L 280.919522 68.321309 
L 279.571985 67.840511 
L 277.447851 67.378875 
L 275.323717 67.194678 
L 272.723204 67.259242 
L 271.07545 67.42957 
L 267.889249 68.014229 
L 264.703048 68.891189 
L 261.516848 70.020291 
L 257.975656 71.507509 
L 248.669304 75.755777 
L 245.585844 76.866475 
L 243.46171 77.448001 
L 241.270803 77.879911 
L 239.213442 78.129991 
L 236.027242 78.249612 
L 232.841041 78.098811 
L 229.65484 77.738246 
L 225.406572 77.027492 
L 219.26231 75.755777 
L 206.289368 72.918095 
L 185.04803 68.504904 
L 180.799762 67.411759 
L 178.675628 66.778949 
L 175.489428 65.698029 
L 173.365294 64.839858 
L 171.24116 63.793455 
L 169.911478 63.010974 
L 168.054959 61.460669 
L 167.505984 60.88684 
L 166.80859 59.824773 
L 166.379997 58.762706 
L 166.170023 57.700639 
L 166.182942 55.576506 
L 166.182942 55.576506 
" style="fill:none;stroke:#ebff0c;stroke-width:1.5;"/>
   </g>
   <g id="LineCollection_9">
    <path clip-path="url(#pd5d4295c07)" d="M 315.963361 293.479494 
L 315.840343 283.920892 
L 315.46489 273.300223 
L 314.764515 260.55542 
L 313.651751 244.624416 
L 312.090632 225.507212 
L 310.306763 206.390007 
L 308.506122 189.396937 
L 306.724768 174.528 
L 304.852368 160.72113 
L 302.937457 148.291483 
L 301.221542 138.417725 
L 299.355602 128.859123 
L 297.49061 120.362587 
L 296.534095 116.11432 
L 294.691327 92.748848 
L 294.011586 85.314379 
L 293.351781 80.004045 
L 292.61344 75.755777 
L 291.84894 72.569576 
L 291.173677 70.445442 
L 290.192654 68.17827 
L 288.962411 66.197175 
L 288.06852 65.120099 
L 286.956743 64.073041 
L 284.88232 62.620812 
L 282.758186 61.525096 
L 276.599262 58.762706 
L 275.323717 57.618287 
L 274.865499 56.638572 
L 274.873672 55.576506 
L 274.873672 55.576506 
" style="fill:none;stroke:#ffab00;stroke-width:1.5;"/>
   </g>
   <g id="LineCollection_10">
    <path clip-path="url(#pd5d4295c07)" d="M 323.824014 293.479494 
L 323.706647 281.796758 
L 323.35735 269.051955 
L 322.685084 253.120952 
L 321.598801 232.94168 
L 320.174251 210.638275 
L 318.672787 190.459004 
L 317.113994 172.403866 
L 315.511711 156.472862 
L 313.89293 142.665993 
L 312.306284 130.983257 
L 310.643244 120.362587 
L 308.920797 110.803985 
L 307.163397 102.30745 
L 305.400381 94.872981 
L 303.664773 88.50058 
L 301.87539 82.823603 
L 300.467983 78.941978 
L 298.677666 74.69371 
L 297.077459 71.507509 
L 296.532526 70.445442 
L 295.770459 67.259242 
L 295.265417 65.135108 
L 294.440922 61.876571 
L 292.5121 55.576506 
L 292.5121 55.576506 
" style="fill:none;stroke:#ff5500;stroke-width:1.5;"/>
   </g>
   <g id="LineCollection_11">
    <path clip-path="url(#pd5d4295c07)" d="M 331.785739 293.479494 
L 331.665931 277.548491 
L 331.299816 259.493353 
L 330.594671 236.127881 
L 329.543266 208.514141 
L 328.363196 183.024535 
L 327.17781 161.783197 
L 326.022024 144.790126 
L 324.718666 128.859123 
L 323.468088 116.11432 
L 322.054662 103.932311 
L 320.535448 92.748848 
L 318.41337 78.941978 
L 316.850554 68.321309 
L 316.276081 63.010974 
L 316.012623 58.762706 
L 315.958454 55.576506 
L 315.958454 55.576506 
" style="fill:none;stroke:#e80000;stroke-width:1.5;"/>
   </g>
   <g id="LineCollection_12">
    <path clip-path="url(#pd5d4295c07)" d="M 339.80626 293.479494 
L 339.690077 264.803688 
L 339.275918 224.445145 
L 338.569717 176.652134 
L 338.031035 149.038394 
L 336.909667 110.803985 
L 336.199505 92.748848 
L 335.310565 71.507509 
L 335.025361 59.824773 
L 334.998379 55.576506 
L 334.998379 55.576506 
" style="fill:none;stroke:#800000;stroke-width:1.5;"/>
   </g>
   <g id="patch_3">
    <path d="M 57.6 293.479494 
L 57.6 55.576506 
" style="fill:none;stroke:#000000;stroke-linecap:square;stroke-linejoin:miter;stroke-width:0.8;"/>
   </g>
   <g id="patch_4">
    <path d="M 343.296 293.479494 
L 343.296 55.576506 
" style="fill:none;stroke:#000000;stroke-linecap:square;stroke-linejoin:miter;stroke-width:0.8;"/>
   </g>
   <g id="patch_5">
    <path d="M 57.6 293.479494 
L 343.296 293.479494 
" style="fill:none;stroke:#000000;stroke-linecap:square;stroke-linejoin:miter;stroke-width:0.8;"/>
   </g>
   <g id="patch_6">
    <path d="M 57.6 55.576506 
L 343.296 55.576506 
" style="fill:none;stroke:#000000;stroke-linecap:square;stroke-linejoin:miter;stroke-width:0.8;"/>
   </g>
   <g id="text_10">
    <!-- Time:0.14486 s -->
    <defs>
     <path d="M -0.296875 72.90625 
L 61.375 72.90625 
L 61.375 64.59375 
L 35.5 64.59375 
L 35.5 0 
L 25.59375 0 
L 25.59375 64.59375 
L -0.296875 64.59375 
z
" id="DejaVuSans-54"/>
     <path d="M 9.421875 54.6875 
L 18.40625 54.6875 
L 18.40625 0 
L 9.421875 0 
z
M 9.421875 75.984375 
L 18.40625 75.984375 
L 18.40625 64.59375 
L 9.421875 64.59375 
z
" id="DejaVuSans-69"/>
     <path d="M 52 44.1875 
Q 55.375 50.25 60.0625 53.125 
Q 64.75 56 71.09375 56 
Q 79.640625 56 84.28125 50.015625 
Q 88.921875 44.046875 88.921875 33.015625 
L 88.921875 0 
L 79.890625 0 
L 79.890625 32.71875 
Q 79.890625 40.578125 77.09375 44.375 
Q 74.3125 48.1875 68.609375 48.1875 
Q 61.625 48.1875 57.5625 43.546875 
Q 53.515625 38.921875 53.515625 30.90625 
L 53.515625 0 
L 44.484375 0 
L 44.484375 32.71875 
Q 44.484375 40.625 41.703125 44.40625 
Q 38.921875 48.1875 33.109375 48.1875 
Q 26.21875 48.1875 22.15625 43.53125 
Q 18.109375 38.875 18.109375 30.90625 
L 18.109375 0 
L 9.078125 0 
L 9.078125 54.6875 
L 18.109375 54.6875 
L 18.109375 46.1875 
Q 21.1875 51.21875 25.484375 53.609375 
Q 29.78125 56 35.6875 56 
Q 41.65625 56 45.828125 52.96875 
Q 50 49.953125 52 44.1875 
z
" id="DejaVuSans-6d"/>
     <path d="M 56.203125 29.59375 
L 56.203125 25.203125 
L 14.890625 25.203125 
Q 15.484375 15.921875 20.484375 11.0625 
Q 25.484375 6.203125 34.421875 6.203125 
Q 39.59375 6.203125 44.453125 7.46875 
Q 49.3125 8.734375 54.109375 11.28125 
L 54.109375 2.78125 
Q 49.265625 0.734375 44.1875 -0.34375 
Q 39.109375 -1.421875 33.890625 -1.421875 
Q 20.796875 -1.421875 13.15625 6.1875 
Q 5.515625 13.8125 5.515625 26.8125 
Q 5.515625 40.234375 12.765625 48.109375 
Q 20.015625 56 32.328125 56 
Q 43.359375 56 49.78125 48.890625 
Q 56.203125 41.796875 56.203125 29.59375 
z
M 47.21875 32.234375 
Q 47.125 39.59375 43.09375 43.984375 
Q 39.0625 48.390625 32.421875 48.390625 
Q 24.90625 48.390625 20.390625 44.140625 
Q 15.875 39.890625 15.1875 32.171875 
z
" id="DejaVuSans-65"/>
     <path d="M 11.71875 12.40625 
L 22.015625 12.40625 
L 22.015625 0 
L 11.71875 0 
z
M 11.71875 51.703125 
L 22.015625 51.703125 
L 22.015625 39.3125 
L 11.71875 39.3125 
z
" id="DejaVuSans-3a"/>
     <path id="DejaVuSans-20"/>
     <path d="M 44.28125 53.078125 
L 44.28125 44.578125 
Q 40.484375 46.53125 36.375 47.5 
Q 32.28125 48.484375 27.875 48.484375 
Q 21.1875 48.484375 17.84375 46.4375 
Q 14.5 44.390625 14.5 40.28125 
Q 14.5 37.15625 16.890625 35.375 
Q 19.28125 33.59375 26.515625 31.984375 
L 29.59375 31.296875 
Q 39.15625 29.25 43.1875 25.515625 
Q 47.21875 21.78125 47.21875 15.09375 
Q 47.21875 7.46875 41.1875 3.015625 
Q 35.15625 -1.421875 24.609375 -1.421875 
Q 20.21875 -1.421875 15.453125 -0.5625 
Q 10.6875 0.296875 5.421875 2 
L 5.421875 11.28125 
Q 10.40625 8.6875 15.234375 7.390625 
Q 20.0625 6.109375 24.8125 6.109375 
Q 31.15625 6.109375 34.5625 8.28125 
Q 37.984375 10.453125 37.984375 14.40625 
Q 37.984375 18.0625 35.515625 20.015625 
Q 33.0625 21.96875 24.703125 23.78125 
L 21.578125 24.515625 
Q 13.234375 26.265625 9.515625 29.90625 
Q 5.8125 33.546875 5.8125 39.890625 
Q 5.8125 47.609375 11.28125 51.796875 
Q 16.75 56 26.8125 56 
Q 31.78125 56 36.171875 55.265625 
Q 40.578125 54.546875 44.28125 53.078125 
z
" id="DejaVuSans-73"/>
    </defs>
    <g transform="translate(153.717375 49.576506)scale(0.12 -0.12)">
     <use xlink:href="#DejaVuSans-54"/>
     <use x="61.037109" xlink:href="#DejaVuSans-69"/>
     <use x="88.820312" xlink:href="#DejaVuSans-6d"/>
     <use x="186.232422" xlink:href="#DejaVuSans-65"/>
     <use x="247.755859" xlink:href="#DejaVuSans-3a"/>
     <use x="281.447266" xlink:href="#DejaVuSans-30"/>
     <use x="345.070312" xlink:href="#DejaVuSans-2e"/>
     <use x="376.857422" xlink:href="#DejaVuSans-31"/>
     <use x="440.480469" xlink:href="#DejaVuSans-34"/>
     <use x="504.103516" xlink:href="#DejaVuSans-34"/>
     <use x="567.726562" xlink:href="#DejaVuSans-38"/>
     <use x="631.349609" xlink:href="#DejaVuSans-36"/>
     <use x="694.972656" xlink:href="#DejaVuSans-20"/>
     <use x="726.759766" xlink:href="#DejaVuSans-73"/>
    </g>
   </g>
  </g>
  <g id="axes_2">
   <g id="patch_7">
    <path clip-path="url(#p9b01ca4917)" d="M 361.152 307.584 
L 361.152 283.392 
L 361.152 65.664 
L 361.152 41.472 
L 374.4576 41.472 
L 374.4576 65.664 
L 374.4576 283.392 
L 374.4576 307.584 
z
" style="fill:#ffffff;stroke:#ffffff;stroke-linejoin:miter;stroke-width:0.01;"/>
   </g>
   <g id="matplotlib.axis_3"/>
   <g id="matplotlib.axis_4">
    <g id="ytick_5">
     <g id="line2d_10">
      <defs>
       <path d="M 0 0 
L 3.5 0 
" id="ma01f472dc9" style="stroke:#000000;stroke-width:0.8;"/>
      </defs>
      <g>
       <use style="stroke:#000000;stroke-width:0.8;" x="374.4576" xlink:href="#ma01f472dc9" y="307.584"/>
      </g>
     </g>
     <g id="text_11">
      <!-- 0.08 -->
      <g transform="translate(381.4576 311.383219)scale(0.1 -0.1)">
       <use xlink:href="#DejaVuSans-30"/>
       <use x="63.623047" xlink:href="#DejaVuSans-2e"/>
       <use x="95.410156" xlink:href="#DejaVuSans-30"/>
       <use x="159.033203" xlink:href="#DejaVuSans-38"/>
      </g>
     </g>
    </g>
    <g id="ytick_6">
     <g id="line2d_11">
      <g>
       <use style="stroke:#000000;stroke-width:0.8;" x="374.4576" xlink:href="#ma01f472dc9" y="259.2"/>
      </g>
     </g>
     <g id="text_12">
      <!-- 0.24 -->
      <g transform="translate(381.4576 262.999219)scale(0.1 -0.1)">
       <use xlink:href="#DejaVuSans-30"/>
       <use x="63.623047" xlink:href="#DejaVuSans-2e"/>
       <use x="95.410156" xlink:href="#DejaVuSans-32"/>
       <use x="159.033203" xlink:href="#DejaVuSans-34"/>
      </g>
     </g>
    </g>
    <g id="ytick_7">
     <g id="line2d_12">
      <g>
       <use style="stroke:#000000;stroke-width:0.8;" x="374.4576" xlink:href="#ma01f472dc9" y="210.816"/>
      </g>
     </g>
     <g id="text_13">
      <!-- 0.40 -->
      <g transform="translate(381.4576 214.615219)scale(0.1 -0.1)">
       <use xlink:href="#DejaVuSans-30"/>
       <use x="63.623047" xlink:href="#DejaVuSans-2e"/>
       <use x="95.410156" xlink:href="#DejaVuSans-34"/>
       <use x="159.033203" xlink:href="#DejaVuSans-30"/>
      </g>
     </g>
    </g>
    <g id="ytick_8">
     <g id="line2d_13">
      <g>
       <use style="stroke:#000000;stroke-width:0.8;" x="374.4576" xlink:href="#ma01f472dc9" y="162.432"/>
      </g>
     </g>
     <g id="text_14">
      <!-- 0.56 -->
      <defs>
       <path d="M 10.796875 72.90625 
L 49.515625 72.90625 
L 49.515625 64.59375 
L 19.828125 64.59375 
L 19.828125 46.734375 
Q 21.96875 47.46875 24.109375 47.828125 
Q 26.265625 48.1875 28.421875 48.1875 
Q 40.625 48.1875 47.75 41.5 
Q 54.890625 34.8125 54.890625 23.390625 
Q 54.890625 11.625 47.5625 5.09375 
Q 40.234375 -1.421875 26.90625 -1.421875 
Q 22.3125 -1.421875 17.546875 -0.640625 
Q 12.796875 0.140625 7.71875 1.703125 
L 7.71875 11.625 
Q 12.109375 9.234375 16.796875 8.0625 
Q 21.484375 6.890625 26.703125 6.890625 
Q 35.15625 6.890625 40.078125 11.328125 
Q 45.015625 15.765625 45.015625 23.390625 
Q 45.015625 31 40.078125 35.4375 
Q 35.15625 39.890625 26.703125 39.890625 
Q 22.75 39.890625 18.8125 39.015625 
Q 14.890625 38.140625 10.796875 36.28125 
z
" id="DejaVuSans-35"/>
      </defs>
      <g transform="translate(381.4576 166.231219)scale(0.1 -0.1)">
       <use xlink:href="#DejaVuSans-30"/>
       <use x="63.623047" xlink:href="#DejaVuSans-2e"/>
       <use x="95.410156" xlink:href="#DejaVuSans-35"/>
       <use x="159.033203" xlink:href="#DejaVuSans-36"/>
      </g>
     </g>
    </g>
    <g id="ytick_9">
     <g id="line2d_14">
      <g>
       <use style="stroke:#000000;stroke-width:0.8;" x="374.4576" xlink:href="#ma01f472dc9" y="114.048"/>
      </g>
     </g>
     <g id="text_15">
      <!-- 0.72 -->
      <defs>
       <path d="M 8.203125 72.90625 
L 55.078125 72.90625 
L 55.078125 68.703125 
L 28.609375 0 
L 18.3125 0 
L 43.21875 64.59375 
L 8.203125 64.59375 
z
" id="DejaVuSans-37"/>
      </defs>
      <g transform="translate(381.4576 117.847219)scale(0.1 -0.1)">
       <use xlink:href="#DejaVuSans-30"/>
       <use x="63.623047" xlink:href="#DejaVuSans-2e"/>
       <use x="95.410156" xlink:href="#DejaVuSans-37"/>
       <use x="159.033203" xlink:href="#DejaVuSans-32"/>
      </g>
     </g>
    </g>
    <g id="ytick_10">
     <g id="line2d_15">
      <g>
       <use style="stroke:#000000;stroke-width:0.8;" x="374.4576" xlink:href="#ma01f472dc9" y="65.664"/>
      </g>
     </g>
     <g id="text_16">
      <!-- 0.88 -->
      <g transform="translate(381.4576 69.463219)scale(0.1 -0.1)">
       <use xlink:href="#DejaVuSans-30"/>
       <use x="63.623047" xlink:href="#DejaVuSans-2e"/>
       <use x="95.410156" xlink:href="#DejaVuSans-38"/>
       <use x="159.033203" xlink:href="#DejaVuSans-38"/>
      </g>
     </g>
    </g>
   </g>
   <g id="LineCollection_13">
    <path clip-path="url(#p9b01ca4917)" d="M 361.152 307.584 
L 374.4576 307.584 
" style="fill:none;stroke:#000080;stroke-width:1.5;"/>
    <path clip-path="url(#p9b01ca4917)" d="M 361.152 283.392 
L 374.4576 283.392 
" style="fill:none;stroke:#0000e8;stroke-width:1.5;"/>
    <path clip-path="url(#p9b01ca4917)" d="M 361.152 259.2 
L 374.4576 259.2 
" style="fill:none;stroke:#0038ff;stroke-width:1.5;"/>
    <path clip-path="url(#p9b01ca4917)" d="M 361.152 235.008 
L 374.4576 235.008 
" style="fill:none;stroke:#0094ff;stroke-width:1.5;"/>
    <path clip-path="url(#p9b01ca4917)" d="M 361.152 210.816 
L 374.4576 210.816 
" style="fill:none;stroke:#0cf4eb;stroke-width:1.5;"/>
    <path clip-path="url(#p9b01ca4917)" d="M 361.152 186.624 
L 374.4576 186.624 
" style="fill:none;stroke:#56ffa0;stroke-width:1.5;"/>
    <path clip-path="url(#p9b01ca4917)" d="M 361.152 162.432 
L 374.4576 162.432 
" style="fill:none;stroke:#a0ff56;stroke-width:1.5;"/>
    <path clip-path="url(#p9b01ca4917)" d="M 361.152 138.24 
L 374.4576 138.24 
" style="fill:none;stroke:#ebff0c;stroke-width:1.5;"/>
    <path clip-path="url(#p9b01ca4917)" d="M 361.152 114.048 
L 374.4576 114.048 
" style="fill:none;stroke:#ffab00;stroke-width:1.5;"/>
    <path clip-path="url(#p9b01ca4917)" d="M 361.152 89.856 
L 374.4576 89.856 
" style="fill:none;stroke:#ff5500;stroke-width:1.5;"/>
    <path clip-path="url(#p9b01ca4917)" d="M 361.152 65.664 
L 374.4576 65.664 
" style="fill:none;stroke:#e80000;stroke-width:1.5;"/>
    <path clip-path="url(#p9b01ca4917)" d="M 361.152 41.472 
L 374.4576 41.472 
" style="fill:none;stroke:#800000;stroke-width:1.5;"/>
   </g>
   <g id="patch_8">
    <path d="M 361.152 307.584 
L 361.152 283.392 
L 361.152 65.664 
L 361.152 41.472 
L 374.4576 41.472 
L 374.4576 65.664 
L 374.4576 283.392 
L 374.4576 307.584 
z
" style="fill:none;stroke:#000000;stroke-linejoin:miter;stroke-width:0.8;"/>
   </g>
  </g>
 </g>
 <defs>
  <clipPath id="pd5d4295c07">
   <rect height="237.902989" width="285.696" x="57.6" y="55.576506"/>
  </clipPath>
  <clipPath id="p9b01ca4917">
   <rect height="266.112" width="13.3056" x="361.152" y="41.472"/>
  </clipPath>
 </defs>
</svg>
