<?xml version="1.0" encoding="utf-8" standalone="no"?>
<!DOCTYPE svg PUBLIC "-//W3C//DTD SVG 1.1//EN"
  "http://www.w3.org/Graphics/SVG/1.1/DTD/svg11.dtd">
<!-- Created with matplotlib (http://matplotlib.org/) -->
<svg height="345.6pt" version="1.1" viewBox="0 0 460.8 345.6" width="460.8pt" xmlns="http://www.w3.org/2000/svg" xmlns:xlink="http://www.w3.org/1999/xlink">
 <defs>
  <style type="text/css">
*{stroke-linecap:butt;stroke-linejoin:round;}
  </style>
 </defs>
 <g id="figure_1">
  <g id="patch_1">
   <path d="M 0 345.6 
L 460.8 345.6 
L 460.8 0 
L 0 0 
z
" style="fill:#ffffff;"/>
  </g>
  <g id="axes_1">
   <g id="patch_2">
    <path d="M 57.6 293.479494 
L 343.296 293.479494 
L 343.296 55.576506 
L 57.6 55.576506 
z
" style="fill:#ffffff;"/>
   </g>
   <g id="matplotlib.axis_1">
    <g id="xtick_1">
     <g id="line2d_1">
      <defs>
       <path d="M 0 0 
L 0 3.5 
" id="m8fe3881f6f" style="stroke:#000000;stroke-width:0.8;"/>
      </defs>
      <g>
       <use style="stroke:#000000;stroke-width:0.8;" x="104.861978" xlink:href="#m8fe3881f6f" y="293.479494"/>
      </g>
     </g>
     <g id="text_1">
      <!-- 0.2 -->
      <defs>
       <path d="M 31.78125 66.40625 
Q 24.171875 66.40625 20.328125 58.90625 
Q 16.5 51.421875 16.5 36.375 
Q 16.5 21.390625 20.328125 13.890625 
Q 24.171875 6.390625 31.78125 6.390625 
Q 39.453125 6.390625 43.28125 13.890625 
Q 47.125 21.390625 47.125 36.375 
Q 47.125 51.421875 43.28125 58.90625 
Q 39.453125 66.40625 31.78125 66.40625 
z
M 31.78125 74.21875 
Q 44.046875 74.21875 50.515625 64.515625 
Q 56.984375 54.828125 56.984375 36.375 
Q 56.984375 17.96875 50.515625 8.265625 
Q 44.046875 -1.421875 31.78125 -1.421875 
Q 19.53125 -1.421875 13.0625 8.265625 
Q 6.59375 17.96875 6.59375 36.375 
Q 6.59375 54.828125 13.0625 64.515625 
Q 19.53125 74.21875 31.78125 74.21875 
z
" id="DejaVuSans-30"/>
       <path d="M 10.6875 12.40625 
L 21 12.40625 
L 21 0 
L 10.6875 0 
z
" id="DejaVuSans-2e"/>
       <path d="M 19.1875 8.296875 
L 53.609375 8.296875 
L 53.609375 0 
L 7.328125 0 
L 7.328125 8.296875 
Q 12.9375 14.109375 22.625 23.890625 
Q 32.328125 33.6875 34.8125 36.53125 
Q 39.546875 41.84375 41.421875 45.53125 
Q 43.3125 49.21875 43.3125 52.78125 
Q 43.3125 58.59375 39.234375 62.25 
Q 35.15625 65.921875 28.609375 65.921875 
Q 23.96875 65.921875 18.8125 64.3125 
Q 13.671875 62.703125 7.8125 59.421875 
L 7.8125 69.390625 
Q 13.765625 71.78125 18.9375 73 
Q 24.125 74.21875 28.421875 74.21875 
Q 39.75 74.21875 46.484375 68.546875 
Q 53.21875 62.890625 53.21875 53.421875 
Q 53.21875 48.921875 51.53125 44.890625 
Q 49.859375 40.875 45.40625 35.40625 
Q 44.1875 33.984375 37.640625 27.21875 
Q 31.109375 20.453125 19.1875 8.296875 
z
" id="DejaVuSans-32"/>
      </defs>
      <g transform="translate(96.910415 308.077932)scale(0.1 -0.1)">
       <use xlink:href="#DejaVuSans-30"/>
       <use x="63.623047" xlink:href="#DejaVuSans-2e"/>
       <use x="95.410156" xlink:href="#DejaVuSans-32"/>
      </g>
     </g>
    </g>
    <g id="xtick_2">
     <g id="line2d_2">
      <g>
       <use style="stroke:#000000;stroke-width:0.8;" x="152.654989" xlink:href="#m8fe3881f6f" y="293.479494"/>
      </g>
     </g>
     <g id="text_2">
      <!-- 0.4 -->
      <defs>
       <path d="M 37.796875 64.3125 
L 12.890625 25.390625 
L 37.796875 25.390625 
z
M 35.203125 72.90625 
L 47.609375 72.90625 
L 47.609375 25.390625 
L 58.015625 25.390625 
L 58.015625 17.1875 
L 47.609375 17.1875 
L 47.609375 0 
L 37.796875 0 
L 37.796875 17.1875 
L 4.890625 17.1875 
L 4.890625 26.703125 
z
" id="DejaVuSans-34"/>
      </defs>
      <g transform="translate(144.703426 308.077932)scale(0.1 -0.1)">
       <use xlink:href="#DejaVuSans-30"/>
       <use x="63.623047" xlink:href="#DejaVuSans-2e"/>
       <use x="95.410156" xlink:href="#DejaVuSans-34"/>
      </g>
     </g>
    </g>
    <g id="xtick_3">
     <g id="line2d_3">
      <g>
       <use style="stroke:#000000;stroke-width:0.8;" x="200.448" xlink:href="#m8fe3881f6f" y="293.479494"/>
      </g>
     </g>
     <g id="text_3">
      <!-- 0.6 -->
      <defs>
       <path d="M 33.015625 40.375 
Q 26.375 40.375 22.484375 35.828125 
Q 18.609375 31.296875 18.609375 23.390625 
Q 18.609375 15.53125 22.484375 10.953125 
Q 26.375 6.390625 33.015625 6.390625 
Q 39.65625 6.390625 43.53125 10.953125 
Q 47.40625 15.53125 47.40625 23.390625 
Q 47.40625 31.296875 43.53125 35.828125 
Q 39.65625 40.375 33.015625 40.375 
z
M 52.59375 71.296875 
L 52.59375 62.3125 
Q 48.875 64.0625 45.09375 64.984375 
Q 41.3125 65.921875 37.59375 65.921875 
Q 27.828125 65.921875 22.671875 59.328125 
Q 17.53125 52.734375 16.796875 39.40625 
Q 19.671875 43.65625 24.015625 45.921875 
Q 28.375 48.1875 33.59375 48.1875 
Q 44.578125 48.1875 50.953125 41.515625 
Q 57.328125 34.859375 57.328125 23.390625 
Q 57.328125 12.15625 50.6875 5.359375 
Q 44.046875 -1.421875 33.015625 -1.421875 
Q 20.359375 -1.421875 13.671875 8.265625 
Q 6.984375 17.96875 6.984375 36.375 
Q 6.984375 53.65625 15.1875 63.9375 
Q 23.390625 74.21875 37.203125 74.21875 
Q 40.921875 74.21875 44.703125 73.484375 
Q 48.484375 72.75 52.59375 71.296875 
z
" id="DejaVuSans-36"/>
      </defs>
      <g transform="translate(192.496438 308.077932)scale(0.1 -0.1)">
       <use xlink:href="#DejaVuSans-30"/>
       <use x="63.623047" xlink:href="#DejaVuSans-2e"/>
       <use x="95.410156" xlink:href="#DejaVuSans-36"/>
      </g>
     </g>
    </g>
    <g id="xtick_4">
     <g id="line2d_4">
      <g>
       <use style="stroke:#000000;stroke-width:0.8;" x="248.241011" xlink:href="#m8fe3881f6f" y="293.479494"/>
      </g>
     </g>
     <g id="text_4">
      <!-- 0.8 -->
      <defs>
       <path d="M 31.78125 34.625 
Q 24.75 34.625 20.71875 30.859375 
Q 16.703125 27.09375 16.703125 20.515625 
Q 16.703125 13.921875 20.71875 10.15625 
Q 24.75 6.390625 31.78125 6.390625 
Q 38.8125 6.390625 42.859375 10.171875 
Q 46.921875 13.96875 46.921875 20.515625 
Q 46.921875 27.09375 42.890625 30.859375 
Q 38.875 34.625 31.78125 34.625 
z
M 21.921875 38.8125 
Q 15.578125 40.375 12.03125 44.71875 
Q 8.5 49.078125 8.5 55.328125 
Q 8.5 64.0625 14.71875 69.140625 
Q 20.953125 74.21875 31.78125 74.21875 
Q 42.671875 74.21875 48.875 69.140625 
Q 55.078125 64.0625 55.078125 55.328125 
Q 55.078125 49.078125 51.53125 44.71875 
Q 48 40.375 41.703125 38.8125 
Q 48.828125 37.15625 52.796875 32.3125 
Q 56.78125 27.484375 56.78125 20.515625 
Q 56.78125 9.90625 50.3125 4.234375 
Q 43.84375 -1.421875 31.78125 -1.421875 
Q 19.734375 -1.421875 13.25 4.234375 
Q 6.78125 9.90625 6.78125 20.515625 
Q 6.78125 27.484375 10.78125 32.3125 
Q 14.796875 37.15625 21.921875 38.8125 
z
M 18.3125 54.390625 
Q 18.3125 48.734375 21.84375 45.5625 
Q 25.390625 42.390625 31.78125 42.390625 
Q 38.140625 42.390625 41.71875 45.5625 
Q 45.3125 48.734375 45.3125 54.390625 
Q 45.3125 60.0625 41.71875 63.234375 
Q 38.140625 66.40625 31.78125 66.40625 
Q 25.390625 66.40625 21.84375 63.234375 
Q 18.3125 60.0625 18.3125 54.390625 
z
" id="DejaVuSans-38"/>
      </defs>
      <g transform="translate(240.289449 308.077932)scale(0.1 -0.1)">
       <use xlink:href="#DejaVuSans-30"/>
       <use x="63.623047" xlink:href="#DejaVuSans-2e"/>
       <use x="95.410156" xlink:href="#DejaVuSans-38"/>
      </g>
     </g>
    </g>
    <g id="xtick_5">
     <g id="line2d_5">
      <g>
       <use style="stroke:#000000;stroke-width:0.8;" x="296.034022" xlink:href="#m8fe3881f6f" y="293.479494"/>
      </g>
     </g>
     <g id="text_5">
      <!-- 1.0 -->
      <defs>
       <path d="M 12.40625 8.296875 
L 28.515625 8.296875 
L 28.515625 63.921875 
L 10.984375 60.40625 
L 10.984375 69.390625 
L 28.421875 72.90625 
L 38.28125 72.90625 
L 38.28125 8.296875 
L 54.390625 8.296875 
L 54.390625 0 
L 12.40625 0 
z
" id="DejaVuSans-31"/>
      </defs>
      <g transform="translate(288.08246 308.077932)scale(0.1 -0.1)">
       <use xlink:href="#DejaVuSans-31"/>
       <use x="63.623047" xlink:href="#DejaVuSans-2e"/>
       <use x="95.410156" xlink:href="#DejaVuSans-30"/>
      </g>
     </g>
    </g>
   </g>
   <g id="matplotlib.axis_2">
    <g id="ytick_1">
     <g id="line2d_6">
      <defs>
       <path d="M 0 0 
L -3.5 0 
" id="m43ff49febc" style="stroke:#000000;stroke-width:0.8;"/>
      </defs>
      <g>
       <use style="stroke:#000000;stroke-width:0.8;" x="57.6" xlink:href="#m43ff49febc" y="246.217517"/>
      </g>
     </g>
     <g id="text_6">
      <!-- 0.2 -->
      <g transform="translate(34.696875 250.016735)scale(0.1 -0.1)">
       <use xlink:href="#DejaVuSans-30"/>
       <use x="63.623047" xlink:href="#DejaVuSans-2e"/>
       <use x="95.410156" xlink:href="#DejaVuSans-32"/>
      </g>
     </g>
    </g>
    <g id="ytick_2">
     <g id="line2d_7">
      <g>
       <use style="stroke:#000000;stroke-width:0.8;" x="57.6" xlink:href="#m43ff49febc" y="198.424506"/>
      </g>
     </g>
     <g id="text_7">
      <!-- 0.4 -->
      <g transform="translate(34.696875 202.223724)scale(0.1 -0.1)">
       <use xlink:href="#DejaVuSans-30"/>
       <use x="63.623047" xlink:href="#DejaVuSans-2e"/>
       <use x="95.410156" xlink:href="#DejaVuSans-34"/>
      </g>
     </g>
    </g>
    <g id="ytick_3">
     <g id="line2d_8">
      <g>
       <use style="stroke:#000000;stroke-width:0.8;" x="57.6" xlink:href="#m43ff49febc" y="150.631494"/>
      </g>
     </g>
     <g id="text_8">
      <!-- 0.6 -->
      <g transform="translate(34.696875 154.430713)scale(0.1 -0.1)">
       <use xlink:href="#DejaVuSans-30"/>
       <use x="63.623047" xlink:href="#DejaVuSans-2e"/>
       <use x="95.410156" xlink:href="#DejaVuSans-36"/>
      </g>
     </g>
    </g>
    <g id="ytick_4">
     <g id="line2d_9">
      <g>
       <use style="stroke:#000000;stroke-width:0.8;" x="57.6" xlink:href="#m43ff49febc" y="102.838483"/>
      </g>
     </g>
     <g id="text_9">
      <!-- 0.8 -->
      <g transform="translate(34.696875 106.637702)scale(0.1 -0.1)">
       <use xlink:href="#DejaVuSans-30"/>
       <use x="63.623047" xlink:href="#DejaVuSans-2e"/>
       <use x="95.410156" xlink:href="#DejaVuSans-38"/>
      </g>
     </g>
    </g>
   </g>
   <g id="LineCollection_1">
    <path clip-path="url(#p7f9f02d73f)" d="M 122.191587 293.479494 
L 121.752156 291.355361 
L 121.324015 290.285852 
L 120.684203 289.231227 
L 119.686112 288.16916 
L 118.079547 287.107093 
L 116.01368 286.317506 
L 114.951613 286.019497 
L 112.82748 285.663717 
L 109.641279 285.382138 
L 105.393011 285.294776 
L 88.399941 285.349552 
L 84.151673 285.000654 
L 80.965472 284.522214 
L 78.448562 283.920892 
L 76.717204 283.369305 
L 74.593071 282.446732 
L 72.468937 281.149325 
L 71.40687 280.299422 
L 69.774985 278.610558 
L 68.963497 277.548491 
L 67.675955 275.424357 
L 66.687617 273.300223 
L 65.899677 271.176089 
L 64.981614 267.989888 
L 64.092344 263.741621 
L 63.451537 259.493353 
L 62.859522 254.183019 
L 62.278789 246.74855 
L 61.611708 235.065814 
L 60.732511 214.886543 
L 60.008735 192.583138 
L 59.37083 166.031465 
L 58.718684 128.859123 
L 58.129795 82.128178 
L 57.920985 55.576506 
L 57.920985 55.576506 
" style="fill:none;stroke:#000080;stroke-width:1.5;"/>
   </g>
   <g id="LineCollection_2">
    <path clip-path="url(#p7f9f02d73f)" d="M 286.2501 293.479494 
L 286.629761 291.355361 
L 287.055906 289.231227 
L 287.235579 287.107093 
L 287.21953 283.920892 
L 286.917092 279.672625 
L 284.978934 262.679554 
L 284.380088 258.431286 
L 283.371393 252.058885 
L 282.299659 246.74855 
L 281.491524 243.562349 
L 280.420269 240.376149 
L 279.463086 238.252015 
L 278.509918 236.692651 
L 277.447851 235.477413 
L 276.385784 234.65124 
L 275.013636 234.003747 
L 274.261651 233.762245 
L 272.137517 233.447344 
L 268.951316 233.407271 
L 251.958245 233.786588 
L 223.282439 234.101135 
L 210.537636 234.528696 
L 189.296297 235.31253 
L 182.923896 235.306456 
L 176.086438 235.065814 
L 170.179093 234.665132 
L 161.682558 233.856468 
L 145.751554 232.268704 
L 139.379152 231.858869 
L 133.006751 231.665176 
L 126.634349 231.688592 
L 118.137814 231.974671 
L 109.641279 232.484536 
L 105.393011 232.97842 
L 103.268877 233.405227 
L 101.144743 234.035904 
L 98.895439 235.065814 
L 97.290449 236.127881 
L 95.834409 237.401166 
L 94.223338 239.314082 
L 93.504853 240.376149 
L 92.34741 242.500283 
L 91.451859 244.624416 
L 90.482698 247.810617 
L 89.859817 250.996818 
L 89.351605 255.245086 
L 88.952125 258.431286 
L 88.399941 260.681666 
L 88.027302 261.617487 
L 87.337874 262.820534 
L 86.275807 263.992248 
L 85.084849 264.803688 
L 84.151673 265.17614 
L 83.089606 265.410315 
L 82.027539 265.460165 
L 80.965472 265.335646 
L 79.352816 264.803688 
L 78.841338 264.574669 
L 77.569789 263.741621 
L 76.37784 262.679554 
L 75.425445 261.617487 
L 74.593071 260.523496 
L 73.363408 258.431286 
L 72.351976 256.307152 
L 71.160852 253.120952 
L 69.930475 248.872684 
L 68.951116 244.624416 
L 67.782495 238.252015 
L 66.688713 230.817546 
L 65.664507 222.321011 
L 64.621016 211.700342 
L 63.618095 198.955539 
L 62.627269 183.024535 
L 61.64598 162.845264 
L 60.682677 137.355658 
L 59.755421 105.493651 
L 58.732187 61.948907 
L 58.75748 56.638572 
L 58.780565 55.576506 
L 58.780565 55.576506 
" style="fill:none;stroke:#0000e8;stroke-width:1.5;"/>
   </g>
   <g id="LineCollection_3">
    <path clip-path="url(#p7f9f02d73f)" d="M 290.197968 293.479494 
L 290.59006 287.107093 
L 290.456762 282.858825 
L 289.892946 274.36229 
L 286.795122 232.94168 
L 285.501294 221.258944 
L 284.420456 213.824476 
L 283.418091 208.514141 
L 282.355151 204.265874 
L 281.696119 202.11771 
L 280.634052 199.645566 
L 279.492162 197.893472 
L 278.33871 196.831405 
L 277.447851 196.35069 
L 276.385784 196.123076 
L 275.323717 196.138748 
L 273.199584 196.588746 
L 266.827182 198.437945 
L 263.640981 198.99404 
L 260.454781 199.301869 
L 256.206513 199.469614 
L 247.709978 199.498181 
L 212.66177 199.509462 
L 181.861829 199.646102 
L 154.248089 200.055851 
L 127.696416 200.373492 
L 122.386082 200.236936 
L 117.075747 199.858846 
L 111.765413 199.204383 
L 102.20681 197.855834 
L 99.02061 197.709159 
L 96.427016 197.893472 
L 94.772342 198.198269 
L 92.512984 198.955539 
L 90.497237 200.017606 
L 88.399941 201.595627 
L 86.757364 203.203807 
L 84.937748 205.327941 
L 82.027539 209.257325 
L 79.903405 212.073699 
L 78.225664 213.824476 
L 77.779271 214.224713 
L 76.513724 214.886543 
L 75.655138 215.054421 
L 74.593071 214.761954 
L 73.491517 213.824476 
L 72.468937 212.32598 
L 71.270243 209.576208 
L 69.985713 205.327941 
L 69.004556 201.079673 
L 67.859425 194.707271 
L 66.802026 187.272803 
L 65.714184 177.714201 
L 64.645166 166.031465 
L 63.550416 151.162528 
L 62.480595 133.10739 
L 61.466704 111.866052 
L 60.409817 84.252312 
L 59.594416 58.762706 
L 59.690662 55.576506 
L 59.690662 55.576506 
" style="fill:none;stroke:#0038ff;stroke-width:1.5;"/>
   </g>
   <g id="LineCollection_4">
    <path clip-path="url(#p7f9f02d73f)" d="M 292.396722 293.479494 
L 292.514179 284.982959 
L 292.131219 276.486424 
L 290.395502 241.438216 
L 289.485326 225.507212 
L 288.542894 211.700342 
L 287.572016 200.017606 
L 286.595153 190.459004 
L 285.50052 181.962468 
L 284.442675 175.590067 
L 283.543259 171.341799 
L 282.693789 168.155599 
L 281.472197 164.969398 
L 280.634052 163.395761 
L 279.571985 162.165229 
L 278.509918 161.550353 
L 277.447851 161.415439 
L 276.071839 161.783197 
L 275.323717 162.120445 
L 273.199584 163.510547 
L 269.672451 166.031465 
L 267.889249 167.115827 
L 265.719964 168.155599 
L 263.640981 168.878529 
L 261.516848 169.372846 
L 259.392714 169.672388 
L 256.206513 169.863212 
L 251.958245 169.849032 
L 234.965175 169.534921 
L 147.875688 169.28188 
L 121.324015 169.317992 
L 109.641279 169.263145 
L 95.834409 169.05568 
L 92.648208 169.318057 
L 90.524074 169.693027 
L 88.399941 170.292132 
L 86.275807 171.171597 
L 84.091621 172.403866 
L 82.027539 173.847973 
L 78.198186 176.652134 
L 77.779271 176.91658 
L 76.717204 177.391373 
L 75.655138 177.579857 
L 74.593071 177.375106 
L 73.525726 176.652134 
L 72.468937 175.309138 
L 71.129483 172.403866 
L 70.095525 169.217665 
L 69.055943 164.969398 
L 67.87179 158.596996 
L 66.787862 151.162528 
L 65.674156 141.603926 
L 64.576814 129.92119 
L 63.523014 116.11432 
L 62.4682 99.121249 
L 60.69982 65.135108 
L 60.557057 59.824773 
L 60.712055 55.576506 
L 60.712055 55.576506 
" style="fill:none;stroke:#0094ff;stroke-width:1.5;"/>
   </g>
   <g id="LineCollection_5">
    <path clip-path="url(#p7f9f02d73f)" d="M 294.085164 293.479494 
L 293.998192 281.796758 
L 292.872997 250.996818 
L 291.662427 221.258944 
L 290.643921 201.079673 
L 289.655733 185.148669 
L 288.594381 171.341799 
L 287.570954 160.72113 
L 286.53993 152.224595 
L 285.562894 145.852193 
L 284.516116 140.541859 
L 283.733468 137.355658 
L 282.688129 134.169457 
L 281.696119 131.995674 
L 280.634052 130.480182 
L 279.571985 129.641996 
L 278.509918 129.365514 
L 277.447851 129.546396 
L 276.385784 130.090255 
L 275.24833 130.983257 
L 273.166327 133.10739 
L 268.951316 137.773045 
L 266.827182 139.719341 
L 264.703048 141.240071 
L 262.578914 142.337714 
L 260.454781 143.059854 
L 258.330647 143.471305 
L 256.206513 143.639827 
L 253.020312 143.574641 
L 248.772045 143.166456 
L 241.337576 142.369393 
L 237.089309 142.117817 
L 231.778974 142.043223 
L 222.220372 142.232606 
L 210.537636 142.39895 
L 191.420431 142.365715 
L 155.310156 142.385799 
L 90.524074 142.614015 
L 87.337874 142.984509 
L 85.21374 143.39551 
L 82.027539 144.298585 
L 77.779271 145.679527 
L 76.717204 145.859645 
L 75.65313 145.852193 
L 74.593071 145.566875 
L 73.442443 144.790126 
L 72.468937 143.696551 
L 71.310863 141.603926 
L 70.122331 138.417725 
L 68.980206 134.169457 
L 67.898704 128.859123 
L 66.7337 121.424654 
L 65.682485 112.928119 
L 64.625995 102.30745 
L 63.515667 88.50058 
L 61.763207 63.010974 
L 61.705364 59.824773 
L 61.871611 56.638572 
L 61.939497 55.576506 
L 61.939497 55.576506 
" style="fill:none;stroke:#0cf4eb;stroke-width:1.5;"/>
   </g>
   <g id="LineCollection_6">
    <path clip-path="url(#p7f9f02d73f)" d="M 295.623755 293.479494 
L 295.405912 278.610558 
L 294.515286 246.74855 
L 293.428725 213.824476 
L 292.472304 190.459004 
L 291.566743 172.403866 
L 290.654777 157.534929 
L 289.687793 144.790126 
L 288.673293 134.169457 
L 287.639344 125.672922 
L 286.654548 119.30052 
L 285.605545 113.990186 
L 284.506445 109.741918 
L 283.393354 106.555717 
L 282.3619 104.431584 
L 281.696119 103.357019 
L 280.634052 102.282996 
L 279.571985 101.76288 
L 278.509918 101.71808 
L 277.09896 102.30745 
L 276.385784 102.773671 
L 274.694081 104.431584 
L 273.199584 106.206779 
L 267.889249 113.059426 
L 265.765115 115.358515 
L 263.640981 117.209791 
L 261.516848 118.587266 
L 259.392714 119.511165 
L 257.26858 120.033103 
L 255.144446 120.218484 
L 253.020312 120.138932 
L 250.896178 119.864405 
L 247.709978 119.226806 
L 239.213442 117.360694 
L 234.965175 116.740916 
L 230.716907 116.403879 
L 226.468639 116.308336 
L 221.158305 116.417283 
L 193.544565 117.358125 
L 174.427361 117.547992 
L 101.144743 118.093411 
L 89.462007 118.311645 
L 84.151673 118.648791 
L 77.779271 119.170757 
L 76.717204 119.107717 
L 75.655138 118.903013 
L 74.231859 118.238454 
L 73.531004 117.758959 
L 72.468937 116.608732 
L 71.40687 114.892336 
L 70.163332 111.866052 
L 68.94111 107.617784 
L 68.006005 103.369517 
L 66.774241 95.935048 
L 65.681494 87.438513 
L 64.352688 74.69371 
L 63.482109 65.135108 
L 63.284603 60.88684 
L 63.36735 58.762706 
L 63.645017 55.576506 
L 63.645017 55.576506 
" style="fill:none;stroke:#56ffa0;stroke-width:1.5;"/>
   </g>
   <g id="LineCollection_7">
    <path clip-path="url(#p7f9f02d73f)" d="M 300.92903 293.479494 
L 300.813323 286.893195 
L 300.501553 280.734691 
L 299.900039 273.300223 
L 298.68919 261.558817 
L 296.705076 244.624416 
L 296.524284 242.500283 
L 295.04791 204.265874 
L 294.032505 175.590067 
L 293.028245 153.286662 
L 292.049296 136.293591 
L 291.022237 122.486721 
L 289.889227 110.803985 
L 288.832949 102.30745 
L 287.822772 95.935048 
L 286.710214 90.624714 
L 285.846771 87.438513 
L 284.694771 84.252312 
L 283.68223 82.128178 
L 282.285795 80.004045 
L 281.354801 78.941978 
L 280.089216 77.879911 
L 279.571985 77.528607 
L 277.921914 76.817844 
L 277.447851 76.675386 
L 276.385784 76.518199 
L 275.323717 76.510446 
L 273.560891 76.817844 
L 273.199584 76.920277 
L 271.145739 77.879911 
L 270.013383 78.684351 
L 268.951316 79.637857 
L 267.692286 81.066112 
L 266.275204 83.190245 
L 264.625704 86.376446 
L 262.522152 90.624714 
L 261.197208 92.748848 
L 260.393683 93.810914 
L 259.392714 94.907555 
L 258.212268 95.935048 
L 256.565387 96.997115 
L 255.144446 97.651849 
L 253.020312 98.279669 
L 250.896178 98.604202 
L 248.772045 98.722436 
L 245.585844 98.648358 
L 241.337576 98.28877 
L 232.841041 97.256359 
L 221.631352 95.935048 
L 214.785903 95.322338 
L 207.107245 94.872981 
L 199.916967 94.667254 
L 189.296297 94.614529 
L 163.806691 94.592902 
L 146.813621 94.294267 
L 112.82748 93.409375 
L 85.21374 92.770256 
L 79.903405 92.596482 
L 77.779271 92.33464 
L 76.717204 92.086182 
L 75.618666 91.686781 
L 74.593071 91.126297 
L 73.531004 90.268908 
L 72.160706 88.50058 
L 71.40687 87.238382 
L 70.192761 84.252312 
L 68.97541 80.004045 
L 67.846311 74.69371 
L 66.806686 68.321309 
L 66.326624 64.073041 
L 66.239891 61.948907 
L 66.372995 59.824773 
L 66.850146 56.638572 
L 66.868901 55.576506 
L 66.868901 55.576506 
" style="fill:none;stroke:#a0ff56;stroke-width:1.5;"/>
   </g>
   <g id="LineCollection_8">
    <path clip-path="url(#p7f9f02d73f)" d="M 308.405269 293.479494 
L 308.263582 284.982959 
L 307.883098 276.486424 
L 307.152099 265.865755 
L 305.957254 252.058885 
L 304.158548 234.003747 
L 302.13852 215.94861 
L 300.011546 198.955539 
L 297.933236 184.086602 
L 296.532578 174.528 
L 294.929616 142.665993 
L 294.025705 124.610855 
L 293.06848 109.741918 
L 292.108109 98.059182 
L 291.172658 89.562647 
L 290.350983 84.252312 
L 289.69153 81.066112 
L 288.840209 77.879911 
L 288.06852 75.649828 
L 287.006454 73.350562 
L 285.84896 71.507509 
L 284.88232 70.336967 
L 283.820253 69.339141 
L 282.332079 68.321309 
L 280.634052 67.509843 
L 278.509918 66.885796 
L 276.385784 66.559919 
L 274.261651 66.454253 
L 272.137517 66.524532 
L 268.951316 66.896723 
L 265.765115 67.540312 
L 262.578914 68.411024 
L 258.330647 69.854205 
L 245.585844 74.510448 
L 242.399643 75.261522 
L 239.213442 75.716426 
L 236.027242 75.864046 
L 232.841041 75.739186 
L 229.65484 75.37434 
L 225.406572 74.629534 
L 220.096238 73.399745 
L 210.537636 70.845515 
L 203.103167 68.736788 
L 197.792833 67.096811 
L 193.544565 65.544811 
L 191.420431 64.620589 
L 189.296297 63.510451 
L 188.23423 62.855499 
L 187.025546 61.948907 
L 185.97518 60.88684 
L 185.04803 59.361462 
L 184.791528 58.762706 
L 184.556081 57.700639 
L 184.513121 55.576506 
L 184.513121 55.576506 
" style="fill:none;stroke:#ebff0c;stroke-width:1.5;"/>
   </g>
   <g id="LineCollection_9">
    <path clip-path="url(#p7f9f02d73f)" d="M 316.079241 293.479494 
L 315.957211 283.920892 
L 315.584768 273.300223 
L 314.890753 260.55542 
L 313.788777 244.624416 
L 312.244831 225.507212 
L 310.484987 206.390007 
L 308.713476 189.396937 
L 306.830956 173.465933 
L 304.977865 159.659063 
L 303.204874 147.976327 
L 301.387471 137.355658 
L 299.543639 127.797056 
L 297.627123 118.974651 
L 296.522221 113.990186 
L 293.691668 81.066112 
L 293.04344 76.817844 
L 292.316788 73.314367 
L 291.482565 70.445442 
L 290.629236 68.321309 
L 290.090078 67.259242 
L 289.130587 65.771047 
L 288.06852 64.52008 
L 287.006454 63.539577 
L 284.88232 62.072362 
L 281.696119 60.434995 
L 279.571985 59.419549 
L 278.315055 58.762706 
L 276.997515 57.700639 
L 276.385784 56.505824 
L 276.297581 55.576506 
L 276.297581 55.576506 
" style="fill:none;stroke:#ffab00;stroke-width:1.5;"/>
   </g>
   <g id="LineCollection_10">
    <path clip-path="url(#p7f9f02d73f)" d="M 323.899847 293.479494 
L 323.783201 281.796758 
L 323.437622 269.051955 
L 322.773145 253.120952 
L 321.701551 232.94168 
L 320.296891 210.638275 
L 318.736506 189.396937 
L 317.190847 171.341799 
L 315.603854 155.410796 
L 314.003233 141.603926 
L 312.435815 129.92119 
L 310.795395 119.30052 
L 309.098603 109.741918 
L 307.368522 101.245383 
L 305.631455 93.810914 
L 303.917857 87.438513 
L 302.270488 82.128178 
L 300.751474 77.879911 
L 298.973824 73.631643 
L 297.382941 70.445442 
L 296.565056 69.021016 
L 295.875597 66.197175 
L 295.326113 64.073041 
L 294.440922 60.506912 
L 293.378855 56.511276 
L 293.137728 55.576506 
L 293.137728 55.576506 
" style="fill:none;stroke:#ff5500;stroke-width:1.5;"/>
   </g>
   <g id="LineCollection_11">
    <path clip-path="url(#p7f9f02d73f)" d="M 331.816429 293.479494 
L 331.693476 277.548491 
L 331.313203 258.431286 
L 330.577523 234.003747 
L 329.527125 206.390007 
L 328.348451 180.900401 
L 327.151123 159.659063 
L 325.914611 141.603926 
L 324.68744 126.734989 
L 323.325343 112.928119 
L 321.961406 101.245383 
L 320.380404 89.562647 
L 316.956414 65.135108 
L 316.559527 59.824773 
L 316.463998 55.576506 
L 316.463998 55.576506 
" style="fill:none;stroke:#e80000;stroke-width:1.5;"/>
   </g>
   <g id="LineCollection_12">
    <path clip-path="url(#p7f9f02d73f)" d="M 339.775332 293.479494 
L 339.65382 260.55542 
L 339.116385 210.638275 
L 338.436195 168.155599 
L 337.715385 136.293591 
L 336.922132 110.803985 
L 335.733525 81.066112 
L 335.180577 65.135108 
L 335.06919 55.576506 
L 335.06919 55.576506 
" style="fill:none;stroke:#800000;stroke-width:1.5;"/>
   </g>
   <g id="patch_3">
    <path d="M 57.6 293.479494 
L 57.6 55.576506 
" style="fill:none;stroke:#000000;stroke-linecap:square;stroke-linejoin:miter;stroke-width:0.8;"/>
   </g>
   <g id="patch_4">
    <path d="M 343.296 293.479494 
L 343.296 55.576506 
" style="fill:none;stroke:#000000;stroke-linecap:square;stroke-linejoin:miter;stroke-width:0.8;"/>
   </g>
   <g id="patch_5">
    <path d="M 57.6 293.479494 
L 343.296 293.479494 
" style="fill:none;stroke:#000000;stroke-linecap:square;stroke-linejoin:miter;stroke-width:0.8;"/>
   </g>
   <g id="patch_6">
    <path d="M 57.6 55.576506 
L 343.296 55.576506 
" style="fill:none;stroke:#000000;stroke-linecap:square;stroke-linejoin:miter;stroke-width:0.8;"/>
   </g>
   <g id="text_10">
    <!-- Time:0.10206 s -->
    <defs>
     <path d="M -0.296875 72.90625 
L 61.375 72.90625 
L 61.375 64.59375 
L 35.5 64.59375 
L 35.5 0 
L 25.59375 0 
L 25.59375 64.59375 
L -0.296875 64.59375 
z
" id="DejaVuSans-54"/>
     <path d="M 9.421875 54.6875 
L 18.40625 54.6875 
L 18.40625 0 
L 9.421875 0 
z
M 9.421875 75.984375 
L 18.40625 75.984375 
L 18.40625 64.59375 
L 9.421875 64.59375 
z
" id="DejaVuSans-69"/>
     <path d="M 52 44.1875 
Q 55.375 50.25 60.0625 53.125 
Q 64.75 56 71.09375 56 
Q 79.640625 56 84.28125 50.015625 
Q 88.921875 44.046875 88.921875 33.015625 
L 88.921875 0 
L 79.890625 0 
L 79.890625 32.71875 
Q 79.890625 40.578125 77.09375 44.375 
Q 74.3125 48.1875 68.609375 48.1875 
Q 61.625 48.1875 57.5625 43.546875 
Q 53.515625 38.921875 53.515625 30.90625 
L 53.515625 0 
L 44.484375 0 
L 44.484375 32.71875 
Q 44.484375 40.625 41.703125 44.40625 
Q 38.921875 48.1875 33.109375 48.1875 
Q 26.21875 48.1875 22.15625 43.53125 
Q 18.109375 38.875 18.109375 30.90625 
L 18.109375 0 
L 9.078125 0 
L 9.078125 54.6875 
L 18.109375 54.6875 
L 18.109375 46.1875 
Q 21.1875 51.21875 25.484375 53.609375 
Q 29.78125 56 35.6875 56 
Q 41.65625 56 45.828125 52.96875 
Q 50 49.953125 52 44.1875 
z
" id="DejaVuSans-6d"/>
     <path d="M 56.203125 29.59375 
L 56.203125 25.203125 
L 14.890625 25.203125 
Q 15.484375 15.921875 20.484375 11.0625 
Q 25.484375 6.203125 34.421875 6.203125 
Q 39.59375 6.203125 44.453125 7.46875 
Q 49.3125 8.734375 54.109375 11.28125 
L 54.109375 2.78125 
Q 49.265625 0.734375 44.1875 -0.34375 
Q 39.109375 -1.421875 33.890625 -1.421875 
Q 20.796875 -1.421875 13.15625 6.1875 
Q 5.515625 13.8125 5.515625 26.8125 
Q 5.515625 40.234375 12.765625 48.109375 
Q 20.015625 56 32.328125 56 
Q 43.359375 56 49.78125 48.890625 
Q 56.203125 41.796875 56.203125 29.59375 
z
M 47.21875 32.234375 
Q 47.125 39.59375 43.09375 43.984375 
Q 39.0625 48.390625 32.421875 48.390625 
Q 24.90625 48.390625 20.390625 44.140625 
Q 15.875 39.890625 15.1875 32.171875 
z
" id="DejaVuSans-65"/>
     <path d="M 11.71875 12.40625 
L 22.015625 12.40625 
L 22.015625 0 
L 11.71875 0 
z
M 11.71875 51.703125 
L 22.015625 51.703125 
L 22.015625 39.3125 
L 11.71875 39.3125 
z
" id="DejaVuSans-3a"/>
     <path id="DejaVuSans-20"/>
     <path d="M 44.28125 53.078125 
L 44.28125 44.578125 
Q 40.484375 46.53125 36.375 47.5 
Q 32.28125 48.484375 27.875 48.484375 
Q 21.1875 48.484375 17.84375 46.4375 
Q 14.5 44.390625 14.5 40.28125 
Q 14.5 37.15625 16.890625 35.375 
Q 19.28125 33.59375 26.515625 31.984375 
L 29.59375 31.296875 
Q 39.15625 29.25 43.1875 25.515625 
Q 47.21875 21.78125 47.21875 15.09375 
Q 47.21875 7.46875 41.1875 3.015625 
Q 35.15625 -1.421875 24.609375 -1.421875 
Q 20.21875 -1.421875 15.453125 -0.5625 
Q 10.6875 0.296875 5.421875 2 
L 5.421875 11.28125 
Q 10.40625 8.6875 15.234375 7.390625 
Q 20.0625 6.109375 24.8125 6.109375 
Q 31.15625 6.109375 34.5625 8.28125 
Q 37.984375 10.453125 37.984375 14.40625 
Q 37.984375 18.0625 35.515625 20.015625 
Q 33.0625 21.96875 24.703125 23.78125 
L 21.578125 24.515625 
Q 13.234375 26.265625 9.515625 29.90625 
Q 5.8125 33.546875 5.8125 39.890625 
Q 5.8125 47.609375 11.28125 51.796875 
Q 16.75 56 26.8125 56 
Q 31.78125 56 36.171875 55.265625 
Q 40.578125 54.546875 44.28125 53.078125 
z
" id="DejaVuSans-73"/>
    </defs>
    <g transform="translate(153.717375 49.576506)scale(0.12 -0.12)">
     <use xlink:href="#DejaVuSans-54"/>
     <use x="61.037109" xlink:href="#DejaVuSans-69"/>
     <use x="88.820312" xlink:href="#DejaVuSans-6d"/>
     <use x="186.232422" xlink:href="#DejaVuSans-65"/>
     <use x="247.755859" xlink:href="#DejaVuSans-3a"/>
     <use x="281.447266" xlink:href="#DejaVuSans-30"/>
     <use x="345.070312" xlink:href="#DejaVuSans-2e"/>
     <use x="376.857422" xlink:href="#DejaVuSans-31"/>
     <use x="440.480469" xlink:href="#DejaVuSans-30"/>
     <use x="504.103516" xlink:href="#DejaVuSans-32"/>
     <use x="567.726562" xlink:href="#DejaVuSans-30"/>
     <use x="631.349609" xlink:href="#DejaVuSans-36"/>
     <use x="694.972656" xlink:href="#DejaVuSans-20"/>
     <use x="726.759766" xlink:href="#DejaVuSans-73"/>
    </g>
   </g>
  </g>
  <g id="axes_2">
   <g id="patch_7">
    <path clip-path="url(#p9ad5f0cfe6)" d="M 361.152 307.584 
L 361.152 283.392 
L 361.152 65.664 
L 361.152 41.472 
L 374.4576 41.472 
L 374.4576 65.664 
L 374.4576 283.392 
L 374.4576 307.584 
z
" style="fill:#ffffff;stroke:#ffffff;stroke-linejoin:miter;stroke-width:0.01;"/>
   </g>
   <g id="matplotlib.axis_3"/>
   <g id="matplotlib.axis_4">
    <g id="ytick_5">
     <g id="line2d_10">
      <defs>
       <path d="M 0 0 
L 3.5 0 
" id="m5a79437d91" style="stroke:#000000;stroke-width:0.8;"/>
      </defs>
      <g>
       <use style="stroke:#000000;stroke-width:0.8;" x="374.4576" xlink:href="#m5a79437d91" y="307.584"/>
      </g>
     </g>
     <g id="text_11">
      <!-- 0.08 -->
      <g transform="translate(381.4576 311.383219)scale(0.1 -0.1)">
       <use xlink:href="#DejaVuSans-30"/>
       <use x="63.623047" xlink:href="#DejaVuSans-2e"/>
       <use x="95.410156" xlink:href="#DejaVuSans-30"/>
       <use x="159.033203" xlink:href="#DejaVuSans-38"/>
      </g>
     </g>
    </g>
    <g id="ytick_6">
     <g id="line2d_11">
      <g>
       <use style="stroke:#000000;stroke-width:0.8;" x="374.4576" xlink:href="#m5a79437d91" y="259.2"/>
      </g>
     </g>
     <g id="text_12">
      <!-- 0.24 -->
      <g transform="translate(381.4576 262.999219)scale(0.1 -0.1)">
       <use xlink:href="#DejaVuSans-30"/>
       <use x="63.623047" xlink:href="#DejaVuSans-2e"/>
       <use x="95.410156" xlink:href="#DejaVuSans-32"/>
       <use x="159.033203" xlink:href="#DejaVuSans-34"/>
      </g>
     </g>
    </g>
    <g id="ytick_7">
     <g id="line2d_12">
      <g>
       <use style="stroke:#000000;stroke-width:0.8;" x="374.4576" xlink:href="#m5a79437d91" y="210.816"/>
      </g>
     </g>
     <g id="text_13">
      <!-- 0.40 -->
      <g transform="translate(381.4576 214.615219)scale(0.1 -0.1)">
       <use xlink:href="#DejaVuSans-30"/>
       <use x="63.623047" xlink:href="#DejaVuSans-2e"/>
       <use x="95.410156" xlink:href="#DejaVuSans-34"/>
       <use x="159.033203" xlink:href="#DejaVuSans-30"/>
      </g>
     </g>
    </g>
    <g id="ytick_8">
     <g id="line2d_13">
      <g>
       <use style="stroke:#000000;stroke-width:0.8;" x="374.4576" xlink:href="#m5a79437d91" y="162.432"/>
      </g>
     </g>
     <g id="text_14">
      <!-- 0.56 -->
      <defs>
       <path d="M 10.796875 72.90625 
L 49.515625 72.90625 
L 49.515625 64.59375 
L 19.828125 64.59375 
L 19.828125 46.734375 
Q 21.96875 47.46875 24.109375 47.828125 
Q 26.265625 48.1875 28.421875 48.1875 
Q 40.625 48.1875 47.75 41.5 
Q 54.890625 34.8125 54.890625 23.390625 
Q 54.890625 11.625 47.5625 5.09375 
Q 40.234375 -1.421875 26.90625 -1.421875 
Q 22.3125 -1.421875 17.546875 -0.640625 
Q 12.796875 0.140625 7.71875 1.703125 
L 7.71875 11.625 
Q 12.109375 9.234375 16.796875 8.0625 
Q 21.484375 6.890625 26.703125 6.890625 
Q 35.15625 6.890625 40.078125 11.328125 
Q 45.015625 15.765625 45.015625 23.390625 
Q 45.015625 31 40.078125 35.4375 
Q 35.15625 39.890625 26.703125 39.890625 
Q 22.75 39.890625 18.8125 39.015625 
Q 14.890625 38.140625 10.796875 36.28125 
z
" id="DejaVuSans-35"/>
      </defs>
      <g transform="translate(381.4576 166.231219)scale(0.1 -0.1)">
       <use xlink:href="#DejaVuSans-30"/>
       <use x="63.623047" xlink:href="#DejaVuSans-2e"/>
       <use x="95.410156" xlink:href="#DejaVuSans-35"/>
       <use x="159.033203" xlink:href="#DejaVuSans-36"/>
      </g>
     </g>
    </g>
    <g id="ytick_9">
     <g id="line2d_14">
      <g>
       <use style="stroke:#000000;stroke-width:0.8;" x="374.4576" xlink:href="#m5a79437d91" y="114.048"/>
      </g>
     </g>
     <g id="text_15">
      <!-- 0.72 -->
      <defs>
       <path d="M 8.203125 72.90625 
L 55.078125 72.90625 
L 55.078125 68.703125 
L 28.609375 0 
L 18.3125 0 
L 43.21875 64.59375 
L 8.203125 64.59375 
z
" id="DejaVuSans-37"/>
      </defs>
      <g transform="translate(381.4576 117.847219)scale(0.1 -0.1)">
       <use xlink:href="#DejaVuSans-30"/>
       <use x="63.623047" xlink:href="#DejaVuSans-2e"/>
       <use x="95.410156" xlink:href="#DejaVuSans-37"/>
       <use x="159.033203" xlink:href="#DejaVuSans-32"/>
      </g>
     </g>
    </g>
    <g id="ytick_10">
     <g id="line2d_15">
      <g>
       <use style="stroke:#000000;stroke-width:0.8;" x="374.4576" xlink:href="#m5a79437d91" y="65.664"/>
      </g>
     </g>
     <g id="text_16">
      <!-- 0.88 -->
      <g transform="translate(381.4576 69.463219)scale(0.1 -0.1)">
       <use xlink:href="#DejaVuSans-30"/>
       <use x="63.623047" xlink:href="#DejaVuSans-2e"/>
       <use x="95.410156" xlink:href="#DejaVuSans-38"/>
       <use x="159.033203" xlink:href="#DejaVuSans-38"/>
      </g>
     </g>
    </g>
   </g>
   <g id="LineCollection_13">
    <path clip-path="url(#p9ad5f0cfe6)" d="M 361.152 307.584 
L 374.4576 307.584 
" style="fill:none;stroke:#000080;stroke-width:1.5;"/>
    <path clip-path="url(#p9ad5f0cfe6)" d="M 361.152 283.392 
L 374.4576 283.392 
" style="fill:none;stroke:#0000e8;stroke-width:1.5;"/>
    <path clip-path="url(#p9ad5f0cfe6)" d="M 361.152 259.2 
L 374.4576 259.2 
" style="fill:none;stroke:#0038ff;stroke-width:1.5;"/>
    <path clip-path="url(#p9ad5f0cfe6)" d="M 361.152 235.008 
L 374.4576 235.008 
" style="fill:none;stroke:#0094ff;stroke-width:1.5;"/>
    <path clip-path="url(#p9ad5f0cfe6)" d="M 361.152 210.816 
L 374.4576 210.816 
" style="fill:none;stroke:#0cf4eb;stroke-width:1.5;"/>
    <path clip-path="url(#p9ad5f0cfe6)" d="M 361.152 186.624 
L 374.4576 186.624 
" style="fill:none;stroke:#56ffa0;stroke-width:1.5;"/>
    <path clip-path="url(#p9ad5f0cfe6)" d="M 361.152 162.432 
L 374.4576 162.432 
" style="fill:none;stroke:#a0ff56;stroke-width:1.5;"/>
    <path clip-path="url(#p9ad5f0cfe6)" d="M 361.152 138.24 
L 374.4576 138.24 
" style="fill:none;stroke:#ebff0c;stroke-width:1.5;"/>
    <path clip-path="url(#p9ad5f0cfe6)" d="M 361.152 114.048 
L 374.4576 114.048 
" style="fill:none;stroke:#ffab00;stroke-width:1.5;"/>
    <path clip-path="url(#p9ad5f0cfe6)" d="M 361.152 89.856 
L 374.4576 89.856 
" style="fill:none;stroke:#ff5500;stroke-width:1.5;"/>
    <path clip-path="url(#p9ad5f0cfe6)" d="M 361.152 65.664 
L 374.4576 65.664 
" style="fill:none;stroke:#e80000;stroke-width:1.5;"/>
    <path clip-path="url(#p9ad5f0cfe6)" d="M 361.152 41.472 
L 374.4576 41.472 
" style="fill:none;stroke:#800000;stroke-width:1.5;"/>
   </g>
   <g id="patch_8">
    <path d="M 361.152 307.584 
L 361.152 283.392 
L 361.152 65.664 
L 361.152 41.472 
L 374.4576 41.472 
L 374.4576 65.664 
L 374.4576 283.392 
L 374.4576 307.584 
z
" style="fill:none;stroke:#000000;stroke-linejoin:miter;stroke-width:0.8;"/>
   </g>
  </g>
 </g>
 <defs>
  <clipPath id="p7f9f02d73f">
   <rect height="237.902989" width="285.696" x="57.6" y="55.576506"/>
  </clipPath>
  <clipPath id="p9ad5f0cfe6">
   <rect height="266.112" width="13.3056" x="361.152" y="41.472"/>
  </clipPath>
 </defs>
</svg>
