<?xml version="1.0" encoding="utf-8" standalone="no"?>
<!DOCTYPE svg PUBLIC "-//W3C//DTD SVG 1.1//EN"
  "http://www.w3.org/Graphics/SVG/1.1/DTD/svg11.dtd">
<!-- Created with matplotlib (http://matplotlib.org/) -->
<svg height="345.6pt" version="1.1" viewBox="0 0 460.8 345.6" width="460.8pt" xmlns="http://www.w3.org/2000/svg" xmlns:xlink="http://www.w3.org/1999/xlink">
 <defs>
  <style type="text/css">
*{stroke-linecap:butt;stroke-linejoin:round;}
  </style>
 </defs>
 <g id="figure_1">
  <g id="patch_1">
   <path d="M 0 345.6 
L 460.8 345.6 
L 460.8 0 
L 0 0 
z
" style="fill:#ffffff;"/>
  </g>
  <g id="axes_1">
   <g id="patch_2">
    <path d="M 57.6 293.479494 
L 343.296 293.479494 
L 343.296 55.576506 
L 57.6 55.576506 
z
" style="fill:#ffffff;"/>
   </g>
   <g id="matplotlib.axis_1">
    <g id="xtick_1">
     <g id="line2d_1">
      <defs>
       <path d="M 0 0 
L 0 3.5 
" id="md77e4046c1" style="stroke:#000000;stroke-width:0.8;"/>
      </defs>
      <g>
       <use style="stroke:#000000;stroke-width:0.8;" x="104.861978" xlink:href="#md77e4046c1" y="293.479494"/>
      </g>
     </g>
     <g id="text_1">
      <!-- 0.2 -->
      <defs>
       <path d="M 31.78125 66.40625 
Q 24.171875 66.40625 20.328125 58.90625 
Q 16.5 51.421875 16.5 36.375 
Q 16.5 21.390625 20.328125 13.890625 
Q 24.171875 6.390625 31.78125 6.390625 
Q 39.453125 6.390625 43.28125 13.890625 
Q 47.125 21.390625 47.125 36.375 
Q 47.125 51.421875 43.28125 58.90625 
Q 39.453125 66.40625 31.78125 66.40625 
z
M 31.78125 74.21875 
Q 44.046875 74.21875 50.515625 64.515625 
Q 56.984375 54.828125 56.984375 36.375 
Q 56.984375 17.96875 50.515625 8.265625 
Q 44.046875 -1.421875 31.78125 -1.421875 
Q 19.53125 -1.421875 13.0625 8.265625 
Q 6.59375 17.96875 6.59375 36.375 
Q 6.59375 54.828125 13.0625 64.515625 
Q 19.53125 74.21875 31.78125 74.21875 
z
" id="DejaVuSans-30"/>
       <path d="M 10.6875 12.40625 
L 21 12.40625 
L 21 0 
L 10.6875 0 
z
" id="DejaVuSans-2e"/>
       <path d="M 19.1875 8.296875 
L 53.609375 8.296875 
L 53.609375 0 
L 7.328125 0 
L 7.328125 8.296875 
Q 12.9375 14.109375 22.625 23.890625 
Q 32.328125 33.6875 34.8125 36.53125 
Q 39.546875 41.84375 41.421875 45.53125 
Q 43.3125 49.21875 43.3125 52.78125 
Q 43.3125 58.59375 39.234375 62.25 
Q 35.15625 65.921875 28.609375 65.921875 
Q 23.96875 65.921875 18.8125 64.3125 
Q 13.671875 62.703125 7.8125 59.421875 
L 7.8125 69.390625 
Q 13.765625 71.78125 18.9375 73 
Q 24.125 74.21875 28.421875 74.21875 
Q 39.75 74.21875 46.484375 68.546875 
Q 53.21875 62.890625 53.21875 53.421875 
Q 53.21875 48.921875 51.53125 44.890625 
Q 49.859375 40.875 45.40625 35.40625 
Q 44.1875 33.984375 37.640625 27.21875 
Q 31.109375 20.453125 19.1875 8.296875 
z
" id="DejaVuSans-32"/>
      </defs>
      <g transform="translate(96.910415 308.077932)scale(0.1 -0.1)">
       <use xlink:href="#DejaVuSans-30"/>
       <use x="63.623047" xlink:href="#DejaVuSans-2e"/>
       <use x="95.410156" xlink:href="#DejaVuSans-32"/>
      </g>
     </g>
    </g>
    <g id="xtick_2">
     <g id="line2d_2">
      <g>
       <use style="stroke:#000000;stroke-width:0.8;" x="152.654989" xlink:href="#md77e4046c1" y="293.479494"/>
      </g>
     </g>
     <g id="text_2">
      <!-- 0.4 -->
      <defs>
       <path d="M 37.796875 64.3125 
L 12.890625 25.390625 
L 37.796875 25.390625 
z
M 35.203125 72.90625 
L 47.609375 72.90625 
L 47.609375 25.390625 
L 58.015625 25.390625 
L 58.015625 17.1875 
L 47.609375 17.1875 
L 47.609375 0 
L 37.796875 0 
L 37.796875 17.1875 
L 4.890625 17.1875 
L 4.890625 26.703125 
z
" id="DejaVuSans-34"/>
      </defs>
      <g transform="translate(144.703426 308.077932)scale(0.1 -0.1)">
       <use xlink:href="#DejaVuSans-30"/>
       <use x="63.623047" xlink:href="#DejaVuSans-2e"/>
       <use x="95.410156" xlink:href="#DejaVuSans-34"/>
      </g>
     </g>
    </g>
    <g id="xtick_3">
     <g id="line2d_3">
      <g>
       <use style="stroke:#000000;stroke-width:0.8;" x="200.448" xlink:href="#md77e4046c1" y="293.479494"/>
      </g>
     </g>
     <g id="text_3">
      <!-- 0.6 -->
      <defs>
       <path d="M 33.015625 40.375 
Q 26.375 40.375 22.484375 35.828125 
Q 18.609375 31.296875 18.609375 23.390625 
Q 18.609375 15.53125 22.484375 10.953125 
Q 26.375 6.390625 33.015625 6.390625 
Q 39.65625 6.390625 43.53125 10.953125 
Q 47.40625 15.53125 47.40625 23.390625 
Q 47.40625 31.296875 43.53125 35.828125 
Q 39.65625 40.375 33.015625 40.375 
z
M 52.59375 71.296875 
L 52.59375 62.3125 
Q 48.875 64.0625 45.09375 64.984375 
Q 41.3125 65.921875 37.59375 65.921875 
Q 27.828125 65.921875 22.671875 59.328125 
Q 17.53125 52.734375 16.796875 39.40625 
Q 19.671875 43.65625 24.015625 45.921875 
Q 28.375 48.1875 33.59375 48.1875 
Q 44.578125 48.1875 50.953125 41.515625 
Q 57.328125 34.859375 57.328125 23.390625 
Q 57.328125 12.15625 50.6875 5.359375 
Q 44.046875 -1.421875 33.015625 -1.421875 
Q 20.359375 -1.421875 13.671875 8.265625 
Q 6.984375 17.96875 6.984375 36.375 
Q 6.984375 53.65625 15.1875 63.9375 
Q 23.390625 74.21875 37.203125 74.21875 
Q 40.921875 74.21875 44.703125 73.484375 
Q 48.484375 72.75 52.59375 71.296875 
z
" id="DejaVuSans-36"/>
      </defs>
      <g transform="translate(192.496438 308.077932)scale(0.1 -0.1)">
       <use xlink:href="#DejaVuSans-30"/>
       <use x="63.623047" xlink:href="#DejaVuSans-2e"/>
       <use x="95.410156" xlink:href="#DejaVuSans-36"/>
      </g>
     </g>
    </g>
    <g id="xtick_4">
     <g id="line2d_4">
      <g>
       <use style="stroke:#000000;stroke-width:0.8;" x="248.241011" xlink:href="#md77e4046c1" y="293.479494"/>
      </g>
     </g>
     <g id="text_4">
      <!-- 0.8 -->
      <defs>
       <path d="M 31.78125 34.625 
Q 24.75 34.625 20.71875 30.859375 
Q 16.703125 27.09375 16.703125 20.515625 
Q 16.703125 13.921875 20.71875 10.15625 
Q 24.75 6.390625 31.78125 6.390625 
Q 38.8125 6.390625 42.859375 10.171875 
Q 46.921875 13.96875 46.921875 20.515625 
Q 46.921875 27.09375 42.890625 30.859375 
Q 38.875 34.625 31.78125 34.625 
z
M 21.921875 38.8125 
Q 15.578125 40.375 12.03125 44.71875 
Q 8.5 49.078125 8.5 55.328125 
Q 8.5 64.0625 14.71875 69.140625 
Q 20.953125 74.21875 31.78125 74.21875 
Q 42.671875 74.21875 48.875 69.140625 
Q 55.078125 64.0625 55.078125 55.328125 
Q 55.078125 49.078125 51.53125 44.71875 
Q 48 40.375 41.703125 38.8125 
Q 48.828125 37.15625 52.796875 32.3125 
Q 56.78125 27.484375 56.78125 20.515625 
Q 56.78125 9.90625 50.3125 4.234375 
Q 43.84375 -1.421875 31.78125 -1.421875 
Q 19.734375 -1.421875 13.25 4.234375 
Q 6.78125 9.90625 6.78125 20.515625 
Q 6.78125 27.484375 10.78125 32.3125 
Q 14.796875 37.15625 21.921875 38.8125 
z
M 18.3125 54.390625 
Q 18.3125 48.734375 21.84375 45.5625 
Q 25.390625 42.390625 31.78125 42.390625 
Q 38.140625 42.390625 41.71875 45.5625 
Q 45.3125 48.734375 45.3125 54.390625 
Q 45.3125 60.0625 41.71875 63.234375 
Q 38.140625 66.40625 31.78125 66.40625 
Q 25.390625 66.40625 21.84375 63.234375 
Q 18.3125 60.0625 18.3125 54.390625 
z
" id="DejaVuSans-38"/>
      </defs>
      <g transform="translate(240.289449 308.077932)scale(0.1 -0.1)">
       <use xlink:href="#DejaVuSans-30"/>
       <use x="63.623047" xlink:href="#DejaVuSans-2e"/>
       <use x="95.410156" xlink:href="#DejaVuSans-38"/>
      </g>
     </g>
    </g>
    <g id="xtick_5">
     <g id="line2d_5">
      <g>
       <use style="stroke:#000000;stroke-width:0.8;" x="296.034022" xlink:href="#md77e4046c1" y="293.479494"/>
      </g>
     </g>
     <g id="text_5">
      <!-- 1.0 -->
      <defs>
       <path d="M 12.40625 8.296875 
L 28.515625 8.296875 
L 28.515625 63.921875 
L 10.984375 60.40625 
L 10.984375 69.390625 
L 28.421875 72.90625 
L 38.28125 72.90625 
L 38.28125 8.296875 
L 54.390625 8.296875 
L 54.390625 0 
L 12.40625 0 
z
" id="DejaVuSans-31"/>
      </defs>
      <g transform="translate(288.08246 308.077932)scale(0.1 -0.1)">
       <use xlink:href="#DejaVuSans-31"/>
       <use x="63.623047" xlink:href="#DejaVuSans-2e"/>
       <use x="95.410156" xlink:href="#DejaVuSans-30"/>
      </g>
     </g>
    </g>
   </g>
   <g id="matplotlib.axis_2">
    <g id="ytick_1">
     <g id="line2d_6">
      <defs>
       <path d="M 0 0 
L -3.5 0 
" id="mc0eacd38b8" style="stroke:#000000;stroke-width:0.8;"/>
      </defs>
      <g>
       <use style="stroke:#000000;stroke-width:0.8;" x="57.6" xlink:href="#mc0eacd38b8" y="246.217517"/>
      </g>
     </g>
     <g id="text_6">
      <!-- 0.2 -->
      <g transform="translate(34.696875 250.016735)scale(0.1 -0.1)">
       <use xlink:href="#DejaVuSans-30"/>
       <use x="63.623047" xlink:href="#DejaVuSans-2e"/>
       <use x="95.410156" xlink:href="#DejaVuSans-32"/>
      </g>
     </g>
    </g>
    <g id="ytick_2">
     <g id="line2d_7">
      <g>
       <use style="stroke:#000000;stroke-width:0.8;" x="57.6" xlink:href="#mc0eacd38b8" y="198.424506"/>
      </g>
     </g>
     <g id="text_7">
      <!-- 0.4 -->
      <g transform="translate(34.696875 202.223724)scale(0.1 -0.1)">
       <use xlink:href="#DejaVuSans-30"/>
       <use x="63.623047" xlink:href="#DejaVuSans-2e"/>
       <use x="95.410156" xlink:href="#DejaVuSans-34"/>
      </g>
     </g>
    </g>
    <g id="ytick_3">
     <g id="line2d_8">
      <g>
       <use style="stroke:#000000;stroke-width:0.8;" x="57.6" xlink:href="#mc0eacd38b8" y="150.631494"/>
      </g>
     </g>
     <g id="text_8">
      <!-- 0.6 -->
      <g transform="translate(34.696875 154.430713)scale(0.1 -0.1)">
       <use xlink:href="#DejaVuSans-30"/>
       <use x="63.623047" xlink:href="#DejaVuSans-2e"/>
       <use x="95.410156" xlink:href="#DejaVuSans-36"/>
      </g>
     </g>
    </g>
    <g id="ytick_4">
     <g id="line2d_9">
      <g>
       <use style="stroke:#000000;stroke-width:0.8;" x="57.6" xlink:href="#mc0eacd38b8" y="102.838483"/>
      </g>
     </g>
     <g id="text_9">
      <!-- 0.8 -->
      <g transform="translate(34.696875 106.637702)scale(0.1 -0.1)">
       <use xlink:href="#DejaVuSans-30"/>
       <use x="63.623047" xlink:href="#DejaVuSans-2e"/>
       <use x="95.410156" xlink:href="#DejaVuSans-38"/>
      </g>
     </g>
    </g>
   </g>
   <g id="LineCollection_1">
    <path clip-path="url(#p46bf723e72)" d="M 116.209858 293.479494 
L 115.98229 292.417428 
L 115.62867 291.355361 
L 114.951613 290.177153 
L 113.889546 289.068418 
L 112.524206 288.16916 
L 110.703346 287.474687 
L 108.579212 286.942315 
L 105.393011 286.524279 
L 101.144743 286.258333 
L 86.275807 285.682141 
L 83.089606 285.312141 
L 79.903405 284.723917 
L 77.072035 283.920892 
L 75.655138 283.387907 
L 73.531004 282.323569 
L 72.468937 281.638587 
L 71.314277 280.734691 
L 70.210941 279.672625 
L 69.282736 278.589106 
L 67.887067 276.486424 
L 66.817922 274.36229 
L 65.975044 272.238156 
L 65.003518 269.051955 
L 64.070331 264.803688 
L 63.404554 260.55542 
L 62.797861 255.245086 
L 62.210188 247.810617 
L 61.604987 237.189948 
L 60.772685 218.072743 
L 60.041677 195.769338 
L 59.397345 169.217665 
L 58.75756 133.10739 
L 58.172791 87.438513 
L 57.906068 55.576506 
L 57.906068 55.576506 
" style="fill:none;stroke:#000080;stroke-width:1.5;"/>
   </g>
   <g id="LineCollection_2">
    <path clip-path="url(#p46bf723e72)" d="M 285.963122 293.479494 
L 286.327801 291.355361 
L 286.907404 288.16916 
L 287.031539 286.045026 
L 286.930748 282.858825 
L 286.321431 276.486424 
L 285.336447 267.989888 
L 284.358156 260.55542 
L 283.351762 254.183019 
L 282.286554 248.872684 
L 281.485602 245.686483 
L 280.429597 242.500283 
L 279.494421 240.376149 
L 278.098005 238.252015 
L 277.068161 237.189948 
L 276.385784 236.64884 
L 275.323717 236.082522 
L 274.261651 235.722104 
L 272.137517 235.375994 
L 268.951316 235.303133 
L 245.585844 235.689263 
L 228.592773 235.903231 
L 215.84797 236.299016 
L 191.420431 237.204748 
L 185.04803 237.162865 
L 178.675628 236.8945 
L 172.303227 236.402159 
L 163.806691 235.48868 
L 147.875688 233.690591 
L 141.503286 233.210218 
L 135.130885 232.972994 
L 129.82055 232.982569 
L 123.448149 233.233356 
L 117.075747 233.706369 
L 111.765413 234.272454 
L 107.517145 234.923757 
L 105.393011 235.387791 
L 102.9304 236.127881 
L 101.144743 236.882914 
L 100.082677 237.454302 
L 98.874102 238.252015 
L 97.611551 239.314082 
L 96.602081 240.376149 
L 95.769622 241.438216 
L 94.50741 243.562349 
L 93.601938 245.686483 
L 92.975116 247.810617 
L 92.557047 249.934751 
L 92.253249 253.120952 
L 91.990304 259.493353 
L 91.586141 261.635529 
L 91.228984 262.679554 
L 90.524074 264.036948 
L 89.462007 265.376085 
L 88.399941 266.288655 
L 87.337874 266.95791 
L 86.275807 267.395481 
L 85.21374 267.700356 
L 84.151673 267.868727 
L 83.089606 267.900143 
L 82.027539 267.796271 
L 80.965472 267.559513 
L 79.356313 266.927822 
L 78.841338 266.669116 
L 77.640132 265.865755 
L 76.441903 264.803688 
L 75.47243 263.741621 
L 74.593071 262.596021 
L 73.366996 260.55542 
L 72.336901 258.431286 
L 71.127344 255.245086 
L 70.157685 252.058885 
L 68.908712 246.74855 
L 67.920761 241.438216 
L 66.809023 234.003747 
L 65.657696 224.445145 
L 64.621529 213.824476 
L 63.622015 201.079673 
L 62.633709 185.148669 
L 61.655399 164.969398 
L 60.695435 139.479792 
L 59.769749 107.617784 
L 58.719818 63.010974 
L 58.701584 57.700639 
L 58.748754 55.576506 
L 58.748754 55.576506 
" style="fill:none;stroke:#0000e8;stroke-width:1.5;"/>
   </g>
   <g id="LineCollection_3">
    <path clip-path="url(#p46bf723e72)" d="M 290.065039 293.479494 
L 290.475842 288.16916 
L 290.44855 284.982959 
L 290.095114 278.610558 
L 288.379648 254.183019 
L 287.391744 241.438216 
L 286.507465 231.879613 
L 285.547694 223.383078 
L 284.475985 215.94861 
L 283.483948 210.638275 
L 282.43365 206.390007 
L 281.349747 203.203807 
L 280.326598 201.079673 
L 279.571985 199.909276 
L 278.509918 198.872551 
L 277.447851 198.302494 
L 276.385784 198.073224 
L 275.323717 198.08264 
L 273.199584 198.511304 
L 266.827182 200.287172 
L 263.640981 200.820701 
L 260.454781 201.115142 
L 256.206513 201.276637 
L 247.709978 201.307878 
L 212.66177 201.341013 
L 185.04803 201.51132 
L 162.744625 201.909959 
L 137.255019 202.306651 
L 126.634349 202.31134 
L 121.324015 202.105428 
L 117.075747 201.755945 
L 111.765413 201.065702 
L 102.20681 199.664594 
L 99.02061 199.517047 
L 96.896476 199.645725 
L 94.772342 200.033322 
L 92.648208 200.761789 
L 91.586141 201.278777 
L 89.462007 202.673012 
L 87.672758 204.265874 
L 86.275807 205.762128 
L 84.105133 208.514141 
L 79.377118 214.886543 
L 78.344442 215.94861 
L 77.779271 216.460071 
L 76.717204 217.086647 
L 75.655138 217.294925 
L 74.593071 216.99852 
L 73.420938 215.94861 
L 72.468937 214.543594 
L 71.245335 211.700342 
L 70.237111 208.514141 
L 68.998555 203.203807 
L 67.859413 196.831405 
L 66.806571 189.396937 
L 65.722993 179.838335 
L 64.658111 168.155599 
L 63.56768 153.286662 
L 62.501259 135.231524 
L 61.44318 112.928119 
L 60.393763 85.314379 
L 59.548736 58.762706 
L 59.643486 55.576506 
L 59.643486 55.576506 
" style="fill:none;stroke:#0038ff;stroke-width:1.5;"/>
   </g>
   <g id="LineCollection_4">
    <path clip-path="url(#p46bf723e72)" d="M 292.32394 293.479494 
L 292.446981 284.982959 
L 292.112097 277.548491 
L 288.807736 217.010677 
L 287.601329 202.14174 
L 286.498535 191.521071 
L 285.52637 184.086602 
L 284.465873 177.714201 
L 283.565038 173.465933 
L 282.714694 170.279732 
L 281.489805 167.093532 
L 280.634052 165.498299 
L 279.571985 164.275403 
L 278.509918 163.66184 
L 277.447851 163.52258 
L 276.003512 163.907331 
L 275.323717 164.20508 
L 273.199584 165.56036 
L 269.450104 168.155599 
L 267.595647 169.217665 
L 265.765115 170.061576 
L 263.640981 170.77779 
L 260.956348 171.341799 
L 259.392714 171.543341 
L 256.206513 171.72679 
L 251.958245 171.713325 
L 234.965175 171.412339 
L 106.455078 171.04657 
L 96.896476 170.860043 
L 93.710275 171.040009 
L 91.55408 171.341799 
L 89.462007 171.835185 
L 87.337874 172.597326 
L 85.21374 173.671122 
L 83.089606 175.067397 
L 77.779271 179.042062 
L 76.717204 179.535686 
L 75.655138 179.737085 
L 74.593071 179.538353 
L 73.496541 178.776268 
L 72.468937 177.460826 
L 71.128785 174.528 
L 70.10259 171.341799 
L 69.069259 167.093532 
L 67.891601 160.72113 
L 66.812403 153.286662 
L 65.702629 143.728059 
L 64.6074 132.045323 
L 63.480819 117.176387 
L 62.435891 100.183316 
L 60.784663 68.321309 
L 60.496204 60.88684 
L 60.540646 57.700639 
L 60.642614 55.576506 
L 60.642614 55.576506 
" style="fill:none;stroke:#0094ff;stroke-width:1.5;"/>
   </g>
   <g id="LineCollection_5">
    <path clip-path="url(#p46bf723e72)" d="M 294.027203 293.479494 
L 293.942877 281.796758 
L 292.849801 252.058885 
L 291.633016 222.321011 
L 290.662776 203.203807 
L 289.672753 187.272803 
L 288.608844 173.465933 
L 287.583493 162.845264 
L 286.551148 154.348729 
L 285.573556 147.976327 
L 284.526664 142.665993 
L 283.406321 138.417725 
L 282.701401 136.293591 
L 281.696119 134.095589 
L 280.634052 132.583609 
L 279.571985 131.747105 
L 278.509918 131.470053 
L 277.447851 131.647881 
L 276.385784 132.185616 
L 275.207247 133.10739 
L 273.104914 135.231524 
L 268.951316 139.735043 
L 266.827182 141.632068 
L 264.703048 143.110145 
L 262.578914 144.173718 
L 260.454781 144.870817 
L 258.330647 145.267335 
L 256.206513 145.429007 
L 253.020312 145.366424 
L 248.772045 144.979771 
L 241.337576 144.241551 
L 236.027242 143.986804 
L 230.716907 143.965842 
L 200.979033 144.251946 
L 164.868758 144.2195 
L 99.02061 144.204299 
L 92.648208 144.307457 
L 89.462007 144.542676 
L 86.275807 145.028111 
L 84.151673 145.540577 
L 80.965472 146.591968 
L 77.779271 147.663559 
L 76.717204 147.857366 
L 75.655138 147.85954 
L 74.593071 147.576383 
L 73.531004 146.894472 
L 72.468937 145.688204 
L 71.373045 143.728059 
L 70.178624 140.541859 
L 69.032691 136.293591 
L 67.947533 130.983257 
L 66.778941 123.548788 
L 65.722285 115.052253 
L 64.566074 103.369517 
L 63.466054 89.562647 
L 61.717029 64.073041 
L 61.607184 59.824773 
L 61.820558 55.576506 
L 61.820558 55.576506 
" style="fill:none;stroke:#0cf4eb;stroke-width:1.5;"/>
   </g>
   <g id="LineCollection_6">
    <path clip-path="url(#p46bf723e72)" d="M 295.548956 293.479494 
L 295.305411 276.486424 
L 294.232074 239.314082 
L 293.112696 207.452074 
L 292.025113 183.024535 
L 290.945627 163.907331 
L 289.875629 149.038394 
L 288.798283 137.355658 
L 287.800143 128.859123 
L 286.671798 121.424654 
L 285.626564 116.11432 
L 284.530868 111.866052 
L 283.421322 108.679851 
L 282.394602 106.555717 
L 281.696119 105.437525 
L 280.634052 104.376648 
L 279.571985 103.867765 
L 278.509918 103.828541 
L 277.447851 104.185345 
L 276.385784 104.868306 
L 274.629104 106.555717 
L 273.199584 108.217784 
L 267.790686 115.052253 
L 265.765115 117.211183 
L 263.640981 119.040979 
L 261.516848 120.400204 
L 259.392714 121.310911 
L 257.26858 121.823771 
L 255.144446 122.003921 
L 253.020312 121.921611 
L 250.896178 121.645276 
L 247.709978 121.006234 
L 239.213442 119.129371 
L 234.965175 118.518717 
L 230.716907 118.208345 
L 226.468639 118.153516 
L 220.096238 118.360914 
L 204.165234 119.037352 
L 192.482498 119.237173 
L 164.868758 119.392356 
L 117.075747 119.721068 
L 89.462007 120.067706 
L 84.805576 120.362587 
L 77.779271 121.010153 
L 76.717204 120.961616 
L 75.655138 120.770704 
L 74.590552 120.362587 
L 73.207453 119.30052 
L 72.303665 118.238454 
L 71.112784 116.11432 
L 70.232475 113.990186 
L 68.991221 109.741918 
L 67.850758 104.431584 
L 66.798152 98.059182 
L 65.696139 89.562647 
L 64.474729 77.879911 
L 63.306447 65.135108 
L 63.093103 60.88684 
L 63.171384 58.762706 
L 63.457089 55.576506 
L 63.457089 55.576506 
" style="fill:none;stroke:#56ffa0;stroke-width:1.5;"/>
   </g>
   <g id="LineCollection_7">
    <path clip-path="url(#p46bf723e72)" d="M 300.73026 293.479494 
L 300.62274 287.107093 
L 300.300739 280.734691 
L 299.694334 273.300223 
L 298.482668 261.617487 
L 296.448774 242.500283 
L 295.090697 207.452074 
L 294.082457 178.776268 
L 293.088789 156.472862 
L 292.055845 138.417725 
L 291.031224 124.610855 
L 289.89836 112.928119 
L 288.839436 104.431584 
L 287.833153 98.059182 
L 286.742599 92.748848 
L 285.567233 88.50058 
L 284.829287 86.376446 
L 283.820253 84.113132 
L 282.629268 82.128178 
L 281.696119 80.927163 
L 280.634052 79.903169 
L 279.100113 78.941978 
L 278.509918 78.67137 
L 277.447851 78.385711 
L 276.385784 78.286526 
L 275.323717 78.366799 
L 274.261651 78.619412 
L 273.199584 79.045638 
L 271.692787 80.004045 
L 270.511329 81.066112 
L 269.588657 82.128178 
L 268.159938 84.252312 
L 266.827182 86.765263 
L 264.366457 91.686781 
L 263.076002 93.810914 
L 262.314933 94.872981 
L 261.438201 95.935048 
L 260.385311 96.997115 
L 259.05086 98.059182 
L 257.233391 99.121249 
L 255.144446 99.88424 
L 253.020312 100.302073 
L 250.896178 100.45795 
L 247.709978 100.375334 
L 243.46171 99.942591 
L 222.220372 97.298438 
L 215.84797 96.843102 
L 208.413502 96.551384 
L 199.916967 96.458479 
L 180.799762 96.575169 
L 164.868758 96.53383 
L 145.751554 96.242318 
L 84.151673 95.157893 
L 79.903405 95.063952 
L 77.779271 94.84112 
L 76.717204 94.611682 
L 75.655138 94.2515 
L 74.593071 93.700075 
L 73.424061 92.748848 
L 72.468937 91.656747 
L 71.254305 89.562647 
L 70.331087 87.438513 
L 69.057732 83.190245 
L 67.889476 77.879911 
L 66.800213 71.507509 
L 65.955157 65.135108 
L 65.793517 61.948907 
L 65.877942 59.824773 
L 66.35175 55.576506 
L 66.35175 55.576506 
" style="fill:none;stroke:#a0ff56;stroke-width:1.5;"/>
   </g>
   <g id="LineCollection_8">
    <path clip-path="url(#p46bf723e72)" d="M 308.241042 293.479494 
L 308.098888 284.982959 
L 307.715498 276.486424 
L 306.979199 265.865755 
L 305.775512 252.058885 
L 303.999524 234.36355 
L 302.044574 217.010677 
L 300.042489 201.079673 
L 297.96017 186.210736 
L 296.483572 175.590067 
L 294.979659 145.852193 
L 294.090363 127.797056 
L 293.150533 112.928119 
L 292.114045 100.183316 
L 291.20582 91.686781 
L 290.254602 85.314379 
L 289.604171 82.128178 
L 288.77694 78.941978 
L 288.06852 76.790032 
L 287.006454 74.363421 
L 285.944387 72.55078 
L 284.88232 71.190277 
L 283.820253 70.144003 
L 282.758186 69.33205 
L 280.843461 68.321309 
L 279.571985 67.873572 
L 277.447851 67.41285 
L 275.323717 67.228487 
L 273.199584 67.259324 
L 271.07545 67.469046 
L 267.889249 68.058588 
L 264.703048 68.943097 
L 261.516848 70.081418 
L 258.141854 71.507509 
L 247.709978 76.242018 
L 244.523777 77.288544 
L 241.90281 77.879911 
L 240.275509 78.128832 
L 237.089309 78.349877 
L 233.903108 78.27899 
L 229.920692 77.879911 
L 226.468639 77.324337 
L 221.158305 76.26701 
L 196.730766 71.14965 
L 186.110097 68.962824 
L 180.799762 67.663656 
L 177.613561 66.743699 
L 174.427361 65.654124 
L 172.303227 64.784412 
L 170.179093 63.721233 
L 168.975166 63.010974 
L 167.588867 61.948907 
L 166.572147 60.88684 
L 165.875165 59.824773 
L 165.44581 58.762706 
L 165.234891 57.700639 
L 165.245891 55.576506 
L 165.245891 55.576506 
" style="fill:none;stroke:#ebff0c;stroke-width:1.5;"/>
   </g>
   <g id="LineCollection_9">
    <path clip-path="url(#p46bf723e72)" d="M 315.954871 293.479494 
L 315.831854 283.920892 
L 315.456384 273.300223 
L 314.75595 260.55542 
L 313.643063 244.624416 
L 312.08142 225.507212 
L 310.296622 206.390007 
L 308.494575 189.396937 
L 306.711365 174.528 
L 304.83689 160.72113 
L 302.937457 148.399075 
L 301.201761 138.417725 
L 299.333408 128.859123 
L 297.465905 120.362587 
L 296.525321 116.11432 
L 294.765919 93.810914 
L 294.002758 85.314379 
L 293.341407 80.004045 
L 292.601687 75.755777 
L 291.835043 72.569576 
L 291.157426 70.445442 
L 290.192654 68.214892 
L 288.93781 66.197175 
L 288.053984 65.135108 
L 286.921523 64.073041 
L 284.88232 62.648202 
L 282.758186 61.553728 
L 276.510302 58.762706 
L 275.277365 57.700639 
L 274.785195 56.638572 
L 274.79883 55.576506 
L 274.79883 55.576506 
" style="fill:none;stroke:#ffab00;stroke-width:1.5;"/>
   </g>
   <g id="LineCollection_10">
    <path clip-path="url(#p46bf723e72)" d="M 323.818116 293.479494 
L 323.700738 281.796758 
L 323.351279 269.051955 
L 322.679033 253.120952 
L 321.59239 232.94168 
L 320.167077 210.638275 
L 318.664737 190.459004 
L 317.10345 172.403866 
L 315.499215 156.472862 
L 313.87892 142.665993 
L 312.290164 130.983257 
L 310.624311 120.362587 
L 308.898839 110.803985 
L 307.138526 102.30745 
L 305.372621 94.872981 
L 303.634106 88.50058 
L 301.87539 82.923075 
L 300.431166 78.941978 
L 298.636464 74.69371 
L 297.031285 71.507509 
L 296.51552 70.445442 
L 295.750033 67.259242 
L 295.463344 66.197175 
L 294.7412 63.010974 
L 293.378855 58.56592 
L 292.479093 55.576506 
L 292.479093 55.576506 
" style="fill:none;stroke:#ff5500;stroke-width:1.5;"/>
   </g>
   <g id="LineCollection_11">
    <path clip-path="url(#p46bf723e72)" d="M 331.782568 293.479494 
L 331.66249 277.548491 
L 331.295817 259.493353 
L 330.590984 236.127881 
L 329.539219 208.514141 
L 328.358413 183.024535 
L 327.166 161.783197 
L 325.932193 143.728059 
L 324.707542 128.859123 
L 323.452708 116.11432 
L 322.054662 104.093727 
L 320.511026 92.748848 
L 318.381087 78.941978 
L 316.813399 68.321309 
L 316.237425 63.010974 
L 315.973555 58.762706 
L 315.919312 55.576506 
L 315.919312 55.576506 
" style="fill:none;stroke:#e80000;stroke-width:1.5;"/>
   </g>
   <g id="LineCollection_12">
    <path clip-path="url(#p46bf723e72)" d="M 339.805722 293.479494 
L 339.691766 265.865755 
L 339.300441 226.569279 
L 338.639258 180.900401 
L 337.877243 143.728059 
L 337.070974 116.11432 
L 335.94232 88.50058 
L 335.133268 70.445442 
L 334.890168 59.824773 
L 334.869301 55.576506 
L 334.869301 55.576506 
" style="fill:none;stroke:#800000;stroke-width:1.5;"/>
   </g>
   <g id="patch_3">
    <path d="M 57.6 293.479494 
L 57.6 55.576506 
" style="fill:none;stroke:#000000;stroke-linecap:square;stroke-linejoin:miter;stroke-width:0.8;"/>
   </g>
   <g id="patch_4">
    <path d="M 343.296 293.479494 
L 343.296 55.576506 
" style="fill:none;stroke:#000000;stroke-linecap:square;stroke-linejoin:miter;stroke-width:0.8;"/>
   </g>
   <g id="patch_5">
    <path d="M 57.6 293.479494 
L 343.296 293.479494 
" style="fill:none;stroke:#000000;stroke-linecap:square;stroke-linejoin:miter;stroke-width:0.8;"/>
   </g>
   <g id="patch_6">
    <path d="M 57.6 55.576506 
L 343.296 55.576506 
" style="fill:none;stroke:#000000;stroke-linecap:square;stroke-linejoin:miter;stroke-width:0.8;"/>
   </g>
   <g id="text_10">
    <!-- Time:0.15144 s -->
    <defs>
     <path d="M -0.296875 72.90625 
L 61.375 72.90625 
L 61.375 64.59375 
L 35.5 64.59375 
L 35.5 0 
L 25.59375 0 
L 25.59375 64.59375 
L -0.296875 64.59375 
z
" id="DejaVuSans-54"/>
     <path d="M 9.421875 54.6875 
L 18.40625 54.6875 
L 18.40625 0 
L 9.421875 0 
z
M 9.421875 75.984375 
L 18.40625 75.984375 
L 18.40625 64.59375 
L 9.421875 64.59375 
z
" id="DejaVuSans-69"/>
     <path d="M 52 44.1875 
Q 55.375 50.25 60.0625 53.125 
Q 64.75 56 71.09375 56 
Q 79.640625 56 84.28125 50.015625 
Q 88.921875 44.046875 88.921875 33.015625 
L 88.921875 0 
L 79.890625 0 
L 79.890625 32.71875 
Q 79.890625 40.578125 77.09375 44.375 
Q 74.3125 48.1875 68.609375 48.1875 
Q 61.625 48.1875 57.5625 43.546875 
Q 53.515625 38.921875 53.515625 30.90625 
L 53.515625 0 
L 44.484375 0 
L 44.484375 32.71875 
Q 44.484375 40.625 41.703125 44.40625 
Q 38.921875 48.1875 33.109375 48.1875 
Q 26.21875 48.1875 22.15625 43.53125 
Q 18.109375 38.875 18.109375 30.90625 
L 18.109375 0 
L 9.078125 0 
L 9.078125 54.6875 
L 18.109375 54.6875 
L 18.109375 46.1875 
Q 21.1875 51.21875 25.484375 53.609375 
Q 29.78125 56 35.6875 56 
Q 41.65625 56 45.828125 52.96875 
Q 50 49.953125 52 44.1875 
z
" id="DejaVuSans-6d"/>
     <path d="M 56.203125 29.59375 
L 56.203125 25.203125 
L 14.890625 25.203125 
Q 15.484375 15.921875 20.484375 11.0625 
Q 25.484375 6.203125 34.421875 6.203125 
Q 39.59375 6.203125 44.453125 7.46875 
Q 49.3125 8.734375 54.109375 11.28125 
L 54.109375 2.78125 
Q 49.265625 0.734375 44.1875 -0.34375 
Q 39.109375 -1.421875 33.890625 -1.421875 
Q 20.796875 -1.421875 13.15625 6.1875 
Q 5.515625 13.8125 5.515625 26.8125 
Q 5.515625 40.234375 12.765625 48.109375 
Q 20.015625 56 32.328125 56 
Q 43.359375 56 49.78125 48.890625 
Q 56.203125 41.796875 56.203125 29.59375 
z
M 47.21875 32.234375 
Q 47.125 39.59375 43.09375 43.984375 
Q 39.0625 48.390625 32.421875 48.390625 
Q 24.90625 48.390625 20.390625 44.140625 
Q 15.875 39.890625 15.1875 32.171875 
z
" id="DejaVuSans-65"/>
     <path d="M 11.71875 12.40625 
L 22.015625 12.40625 
L 22.015625 0 
L 11.71875 0 
z
M 11.71875 51.703125 
L 22.015625 51.703125 
L 22.015625 39.3125 
L 11.71875 39.3125 
z
" id="DejaVuSans-3a"/>
     <path d="M 10.796875 72.90625 
L 49.515625 72.90625 
L 49.515625 64.59375 
L 19.828125 64.59375 
L 19.828125 46.734375 
Q 21.96875 47.46875 24.109375 47.828125 
Q 26.265625 48.1875 28.421875 48.1875 
Q 40.625 48.1875 47.75 41.5 
Q 54.890625 34.8125 54.890625 23.390625 
Q 54.890625 11.625 47.5625 5.09375 
Q 40.234375 -1.421875 26.90625 -1.421875 
Q 22.3125 -1.421875 17.546875 -0.640625 
Q 12.796875 0.140625 7.71875 1.703125 
L 7.71875 11.625 
Q 12.109375 9.234375 16.796875 8.0625 
Q 21.484375 6.890625 26.703125 6.890625 
Q 35.15625 6.890625 40.078125 11.328125 
Q 45.015625 15.765625 45.015625 23.390625 
Q 45.015625 31 40.078125 35.4375 
Q 35.15625 39.890625 26.703125 39.890625 
Q 22.75 39.890625 18.8125 39.015625 
Q 14.890625 38.140625 10.796875 36.28125 
z
" id="DejaVuSans-35"/>
     <path id="DejaVuSans-20"/>
     <path d="M 44.28125 53.078125 
L 44.28125 44.578125 
Q 40.484375 46.53125 36.375 47.5 
Q 32.28125 48.484375 27.875 48.484375 
Q 21.1875 48.484375 17.84375 46.4375 
Q 14.5 44.390625 14.5 40.28125 
Q 14.5 37.15625 16.890625 35.375 
Q 19.28125 33.59375 26.515625 31.984375 
L 29.59375 31.296875 
Q 39.15625 29.25 43.1875 25.515625 
Q 47.21875 21.78125 47.21875 15.09375 
Q 47.21875 7.46875 41.1875 3.015625 
Q 35.15625 -1.421875 24.609375 -1.421875 
Q 20.21875 -1.421875 15.453125 -0.5625 
Q 10.6875 0.296875 5.421875 2 
L 5.421875 11.28125 
Q 10.40625 8.6875 15.234375 7.390625 
Q 20.0625 6.109375 24.8125 6.109375 
Q 31.15625 6.109375 34.5625 8.28125 
Q 37.984375 10.453125 37.984375 14.40625 
Q 37.984375 18.0625 35.515625 20.015625 
Q 33.0625 21.96875 24.703125 23.78125 
L 21.578125 24.515625 
Q 13.234375 26.265625 9.515625 29.90625 
Q 5.8125 33.546875 5.8125 39.890625 
Q 5.8125 47.609375 11.28125 51.796875 
Q 16.75 56 26.8125 56 
Q 31.78125 56 36.171875 55.265625 
Q 40.578125 54.546875 44.28125 53.078125 
z
" id="DejaVuSans-73"/>
    </defs>
    <g transform="translate(153.717375 49.576506)scale(0.12 -0.12)">
     <use xlink:href="#DejaVuSans-54"/>
     <use x="61.037109" xlink:href="#DejaVuSans-69"/>
     <use x="88.820312" xlink:href="#DejaVuSans-6d"/>
     <use x="186.232422" xlink:href="#DejaVuSans-65"/>
     <use x="247.755859" xlink:href="#DejaVuSans-3a"/>
     <use x="281.447266" xlink:href="#DejaVuSans-30"/>
     <use x="345.070312" xlink:href="#DejaVuSans-2e"/>
     <use x="376.857422" xlink:href="#DejaVuSans-31"/>
     <use x="440.480469" xlink:href="#DejaVuSans-35"/>
     <use x="504.103516" xlink:href="#DejaVuSans-31"/>
     <use x="567.726562" xlink:href="#DejaVuSans-34"/>
     <use x="631.349609" xlink:href="#DejaVuSans-34"/>
     <use x="694.972656" xlink:href="#DejaVuSans-20"/>
     <use x="726.759766" xlink:href="#DejaVuSans-73"/>
    </g>
   </g>
  </g>
  <g id="axes_2">
   <g id="patch_7">
    <path clip-path="url(#pae4cf6c89a)" d="M 361.152 307.584 
L 361.152 283.392 
L 361.152 65.664 
L 361.152 41.472 
L 374.4576 41.472 
L 374.4576 65.664 
L 374.4576 283.392 
L 374.4576 307.584 
z
" style="fill:#ffffff;stroke:#ffffff;stroke-linejoin:miter;stroke-width:0.01;"/>
   </g>
   <g id="matplotlib.axis_3"/>
   <g id="matplotlib.axis_4">
    <g id="ytick_5">
     <g id="line2d_10">
      <defs>
       <path d="M 0 0 
L 3.5 0 
" id="m06e07cc255" style="stroke:#000000;stroke-width:0.8;"/>
      </defs>
      <g>
       <use style="stroke:#000000;stroke-width:0.8;" x="374.4576" xlink:href="#m06e07cc255" y="307.584"/>
      </g>
     </g>
     <g id="text_11">
      <!-- 0.08 -->
      <g transform="translate(381.4576 311.383219)scale(0.1 -0.1)">
       <use xlink:href="#DejaVuSans-30"/>
       <use x="63.623047" xlink:href="#DejaVuSans-2e"/>
       <use x="95.410156" xlink:href="#DejaVuSans-30"/>
       <use x="159.033203" xlink:href="#DejaVuSans-38"/>
      </g>
     </g>
    </g>
    <g id="ytick_6">
     <g id="line2d_11">
      <g>
       <use style="stroke:#000000;stroke-width:0.8;" x="374.4576" xlink:href="#m06e07cc255" y="259.2"/>
      </g>
     </g>
     <g id="text_12">
      <!-- 0.24 -->
      <g transform="translate(381.4576 262.999219)scale(0.1 -0.1)">
       <use xlink:href="#DejaVuSans-30"/>
       <use x="63.623047" xlink:href="#DejaVuSans-2e"/>
       <use x="95.410156" xlink:href="#DejaVuSans-32"/>
       <use x="159.033203" xlink:href="#DejaVuSans-34"/>
      </g>
     </g>
    </g>
    <g id="ytick_7">
     <g id="line2d_12">
      <g>
       <use style="stroke:#000000;stroke-width:0.8;" x="374.4576" xlink:href="#m06e07cc255" y="210.816"/>
      </g>
     </g>
     <g id="text_13">
      <!-- 0.40 -->
      <g transform="translate(381.4576 214.615219)scale(0.1 -0.1)">
       <use xlink:href="#DejaVuSans-30"/>
       <use x="63.623047" xlink:href="#DejaVuSans-2e"/>
       <use x="95.410156" xlink:href="#DejaVuSans-34"/>
       <use x="159.033203" xlink:href="#DejaVuSans-30"/>
      </g>
     </g>
    </g>
    <g id="ytick_8">
     <g id="line2d_13">
      <g>
       <use style="stroke:#000000;stroke-width:0.8;" x="374.4576" xlink:href="#m06e07cc255" y="162.432"/>
      </g>
     </g>
     <g id="text_14">
      <!-- 0.56 -->
      <g transform="translate(381.4576 166.231219)scale(0.1 -0.1)">
       <use xlink:href="#DejaVuSans-30"/>
       <use x="63.623047" xlink:href="#DejaVuSans-2e"/>
       <use x="95.410156" xlink:href="#DejaVuSans-35"/>
       <use x="159.033203" xlink:href="#DejaVuSans-36"/>
      </g>
     </g>
    </g>
    <g id="ytick_9">
     <g id="line2d_14">
      <g>
       <use style="stroke:#000000;stroke-width:0.8;" x="374.4576" xlink:href="#m06e07cc255" y="114.048"/>
      </g>
     </g>
     <g id="text_15">
      <!-- 0.72 -->
      <defs>
       <path d="M 8.203125 72.90625 
L 55.078125 72.90625 
L 55.078125 68.703125 
L 28.609375 0 
L 18.3125 0 
L 43.21875 64.59375 
L 8.203125 64.59375 
z
" id="DejaVuSans-37"/>
      </defs>
      <g transform="translate(381.4576 117.847219)scale(0.1 -0.1)">
       <use xlink:href="#DejaVuSans-30"/>
       <use x="63.623047" xlink:href="#DejaVuSans-2e"/>
       <use x="95.410156" xlink:href="#DejaVuSans-37"/>
       <use x="159.033203" xlink:href="#DejaVuSans-32"/>
      </g>
     </g>
    </g>
    <g id="ytick_10">
     <g id="line2d_15">
      <g>
       <use style="stroke:#000000;stroke-width:0.8;" x="374.4576" xlink:href="#m06e07cc255" y="65.664"/>
      </g>
     </g>
     <g id="text_16">
      <!-- 0.88 -->
      <g transform="translate(381.4576 69.463219)scale(0.1 -0.1)">
       <use xlink:href="#DejaVuSans-30"/>
       <use x="63.623047" xlink:href="#DejaVuSans-2e"/>
       <use x="95.410156" xlink:href="#DejaVuSans-38"/>
       <use x="159.033203" xlink:href="#DejaVuSans-38"/>
      </g>
     </g>
    </g>
   </g>
   <g id="LineCollection_13">
    <path clip-path="url(#pae4cf6c89a)" d="M 361.152 307.584 
L 374.4576 307.584 
" style="fill:none;stroke:#000080;stroke-width:1.5;"/>
    <path clip-path="url(#pae4cf6c89a)" d="M 361.152 283.392 
L 374.4576 283.392 
" style="fill:none;stroke:#0000e8;stroke-width:1.5;"/>
    <path clip-path="url(#pae4cf6c89a)" d="M 361.152 259.2 
L 374.4576 259.2 
" style="fill:none;stroke:#0038ff;stroke-width:1.5;"/>
    <path clip-path="url(#pae4cf6c89a)" d="M 361.152 235.008 
L 374.4576 235.008 
" style="fill:none;stroke:#0094ff;stroke-width:1.5;"/>
    <path clip-path="url(#pae4cf6c89a)" d="M 361.152 210.816 
L 374.4576 210.816 
" style="fill:none;stroke:#0cf4eb;stroke-width:1.5;"/>
    <path clip-path="url(#pae4cf6c89a)" d="M 361.152 186.624 
L 374.4576 186.624 
" style="fill:none;stroke:#56ffa0;stroke-width:1.5;"/>
    <path clip-path="url(#pae4cf6c89a)" d="M 361.152 162.432 
L 374.4576 162.432 
" style="fill:none;stroke:#a0ff56;stroke-width:1.5;"/>
    <path clip-path="url(#pae4cf6c89a)" d="M 361.152 138.24 
L 374.4576 138.24 
" style="fill:none;stroke:#ebff0c;stroke-width:1.5;"/>
    <path clip-path="url(#pae4cf6c89a)" d="M 361.152 114.048 
L 374.4576 114.048 
" style="fill:none;stroke:#ffab00;stroke-width:1.5;"/>
    <path clip-path="url(#pae4cf6c89a)" d="M 361.152 89.856 
L 374.4576 89.856 
" style="fill:none;stroke:#ff5500;stroke-width:1.5;"/>
    <path clip-path="url(#pae4cf6c89a)" d="M 361.152 65.664 
L 374.4576 65.664 
" style="fill:none;stroke:#e80000;stroke-width:1.5;"/>
    <path clip-path="url(#pae4cf6c89a)" d="M 361.152 41.472 
L 374.4576 41.472 
" style="fill:none;stroke:#800000;stroke-width:1.5;"/>
   </g>
   <g id="patch_8">
    <path d="M 361.152 307.584 
L 361.152 283.392 
L 361.152 65.664 
L 361.152 41.472 
L 374.4576 41.472 
L 374.4576 65.664 
L 374.4576 283.392 
L 374.4576 307.584 
z
" style="fill:none;stroke:#000000;stroke-linejoin:miter;stroke-width:0.8;"/>
   </g>
  </g>
 </g>
 <defs>
  <clipPath id="p46bf723e72">
   <rect height="237.902989" width="285.696" x="57.6" y="55.576506"/>
  </clipPath>
  <clipPath id="pae4cf6c89a">
   <rect height="266.112" width="13.3056" x="361.152" y="41.472"/>
  </clipPath>
 </defs>
</svg>
