<?xml version="1.0" encoding="utf-8" standalone="no"?>
<!DOCTYPE svg PUBLIC "-//W3C//DTD SVG 1.1//EN"
  "http://www.w3.org/Graphics/SVG/1.1/DTD/svg11.dtd">
<!-- Created with matplotlib (http://matplotlib.org/) -->
<svg height="345.6pt" version="1.1" viewBox="0 0 460.8 345.6" width="460.8pt" xmlns="http://www.w3.org/2000/svg" xmlns:xlink="http://www.w3.org/1999/xlink">
 <defs>
  <style type="text/css">
*{stroke-linecap:butt;stroke-linejoin:round;}
  </style>
 </defs>
 <g id="figure_1">
  <g id="patch_1">
   <path d="M 0 345.6 
L 460.8 345.6 
L 460.8 0 
L 0 0 
z
" style="fill:#ffffff;"/>
  </g>
  <g id="axes_1">
   <g id="patch_2">
    <path d="M 57.6 293.479494 
L 343.296 293.479494 
L 343.296 55.576506 
L 57.6 55.576506 
z
" style="fill:#ffffff;"/>
   </g>
   <g id="matplotlib.axis_1">
    <g id="xtick_1">
     <g id="line2d_1">
      <defs>
       <path d="M 0 0 
L 0 3.5 
" id="m9c47aa1c04" style="stroke:#000000;stroke-width:0.8;"/>
      </defs>
      <g>
       <use style="stroke:#000000;stroke-width:0.8;" x="104.861978" xlink:href="#m9c47aa1c04" y="293.479494"/>
      </g>
     </g>
     <g id="text_1">
      <!-- 0.2 -->
      <defs>
       <path d="M 31.78125 66.40625 
Q 24.171875 66.40625 20.328125 58.90625 
Q 16.5 51.421875 16.5 36.375 
Q 16.5 21.390625 20.328125 13.890625 
Q 24.171875 6.390625 31.78125 6.390625 
Q 39.453125 6.390625 43.28125 13.890625 
Q 47.125 21.390625 47.125 36.375 
Q 47.125 51.421875 43.28125 58.90625 
Q 39.453125 66.40625 31.78125 66.40625 
z
M 31.78125 74.21875 
Q 44.046875 74.21875 50.515625 64.515625 
Q 56.984375 54.828125 56.984375 36.375 
Q 56.984375 17.96875 50.515625 8.265625 
Q 44.046875 -1.421875 31.78125 -1.421875 
Q 19.53125 -1.421875 13.0625 8.265625 
Q 6.59375 17.96875 6.59375 36.375 
Q 6.59375 54.828125 13.0625 64.515625 
Q 19.53125 74.21875 31.78125 74.21875 
z
" id="DejaVuSans-30"/>
       <path d="M 10.6875 12.40625 
L 21 12.40625 
L 21 0 
L 10.6875 0 
z
" id="DejaVuSans-2e"/>
       <path d="M 19.1875 8.296875 
L 53.609375 8.296875 
L 53.609375 0 
L 7.328125 0 
L 7.328125 8.296875 
Q 12.9375 14.109375 22.625 23.890625 
Q 32.328125 33.6875 34.8125 36.53125 
Q 39.546875 41.84375 41.421875 45.53125 
Q 43.3125 49.21875 43.3125 52.78125 
Q 43.3125 58.59375 39.234375 62.25 
Q 35.15625 65.921875 28.609375 65.921875 
Q 23.96875 65.921875 18.8125 64.3125 
Q 13.671875 62.703125 7.8125 59.421875 
L 7.8125 69.390625 
Q 13.765625 71.78125 18.9375 73 
Q 24.125 74.21875 28.421875 74.21875 
Q 39.75 74.21875 46.484375 68.546875 
Q 53.21875 62.890625 53.21875 53.421875 
Q 53.21875 48.921875 51.53125 44.890625 
Q 49.859375 40.875 45.40625 35.40625 
Q 44.1875 33.984375 37.640625 27.21875 
Q 31.109375 20.453125 19.1875 8.296875 
z
" id="DejaVuSans-32"/>
      </defs>
      <g transform="translate(96.910415 308.077932)scale(0.1 -0.1)">
       <use xlink:href="#DejaVuSans-30"/>
       <use x="63.623047" xlink:href="#DejaVuSans-2e"/>
       <use x="95.410156" xlink:href="#DejaVuSans-32"/>
      </g>
     </g>
    </g>
    <g id="xtick_2">
     <g id="line2d_2">
      <g>
       <use style="stroke:#000000;stroke-width:0.8;" x="152.654989" xlink:href="#m9c47aa1c04" y="293.479494"/>
      </g>
     </g>
     <g id="text_2">
      <!-- 0.4 -->
      <defs>
       <path d="M 37.796875 64.3125 
L 12.890625 25.390625 
L 37.796875 25.390625 
z
M 35.203125 72.90625 
L 47.609375 72.90625 
L 47.609375 25.390625 
L 58.015625 25.390625 
L 58.015625 17.1875 
L 47.609375 17.1875 
L 47.609375 0 
L 37.796875 0 
L 37.796875 17.1875 
L 4.890625 17.1875 
L 4.890625 26.703125 
z
" id="DejaVuSans-34"/>
      </defs>
      <g transform="translate(144.703426 308.077932)scale(0.1 -0.1)">
       <use xlink:href="#DejaVuSans-30"/>
       <use x="63.623047" xlink:href="#DejaVuSans-2e"/>
       <use x="95.410156" xlink:href="#DejaVuSans-34"/>
      </g>
     </g>
    </g>
    <g id="xtick_3">
     <g id="line2d_3">
      <g>
       <use style="stroke:#000000;stroke-width:0.8;" x="200.448" xlink:href="#m9c47aa1c04" y="293.479494"/>
      </g>
     </g>
     <g id="text_3">
      <!-- 0.6 -->
      <defs>
       <path d="M 33.015625 40.375 
Q 26.375 40.375 22.484375 35.828125 
Q 18.609375 31.296875 18.609375 23.390625 
Q 18.609375 15.53125 22.484375 10.953125 
Q 26.375 6.390625 33.015625 6.390625 
Q 39.65625 6.390625 43.53125 10.953125 
Q 47.40625 15.53125 47.40625 23.390625 
Q 47.40625 31.296875 43.53125 35.828125 
Q 39.65625 40.375 33.015625 40.375 
z
M 52.59375 71.296875 
L 52.59375 62.3125 
Q 48.875 64.0625 45.09375 64.984375 
Q 41.3125 65.921875 37.59375 65.921875 
Q 27.828125 65.921875 22.671875 59.328125 
Q 17.53125 52.734375 16.796875 39.40625 
Q 19.671875 43.65625 24.015625 45.921875 
Q 28.375 48.1875 33.59375 48.1875 
Q 44.578125 48.1875 50.953125 41.515625 
Q 57.328125 34.859375 57.328125 23.390625 
Q 57.328125 12.15625 50.6875 5.359375 
Q 44.046875 -1.421875 33.015625 -1.421875 
Q 20.359375 -1.421875 13.671875 8.265625 
Q 6.984375 17.96875 6.984375 36.375 
Q 6.984375 53.65625 15.1875 63.9375 
Q 23.390625 74.21875 37.203125 74.21875 
Q 40.921875 74.21875 44.703125 73.484375 
Q 48.484375 72.75 52.59375 71.296875 
z
" id="DejaVuSans-36"/>
      </defs>
      <g transform="translate(192.496438 308.077932)scale(0.1 -0.1)">
       <use xlink:href="#DejaVuSans-30"/>
       <use x="63.623047" xlink:href="#DejaVuSans-2e"/>
       <use x="95.410156" xlink:href="#DejaVuSans-36"/>
      </g>
     </g>
    </g>
    <g id="xtick_4">
     <g id="line2d_4">
      <g>
       <use style="stroke:#000000;stroke-width:0.8;" x="248.241011" xlink:href="#m9c47aa1c04" y="293.479494"/>
      </g>
     </g>
     <g id="text_4">
      <!-- 0.8 -->
      <defs>
       <path d="M 31.78125 34.625 
Q 24.75 34.625 20.71875 30.859375 
Q 16.703125 27.09375 16.703125 20.515625 
Q 16.703125 13.921875 20.71875 10.15625 
Q 24.75 6.390625 31.78125 6.390625 
Q 38.8125 6.390625 42.859375 10.171875 
Q 46.921875 13.96875 46.921875 20.515625 
Q 46.921875 27.09375 42.890625 30.859375 
Q 38.875 34.625 31.78125 34.625 
z
M 21.921875 38.8125 
Q 15.578125 40.375 12.03125 44.71875 
Q 8.5 49.078125 8.5 55.328125 
Q 8.5 64.0625 14.71875 69.140625 
Q 20.953125 74.21875 31.78125 74.21875 
Q 42.671875 74.21875 48.875 69.140625 
Q 55.078125 64.0625 55.078125 55.328125 
Q 55.078125 49.078125 51.53125 44.71875 
Q 48 40.375 41.703125 38.8125 
Q 48.828125 37.15625 52.796875 32.3125 
Q 56.78125 27.484375 56.78125 20.515625 
Q 56.78125 9.90625 50.3125 4.234375 
Q 43.84375 -1.421875 31.78125 -1.421875 
Q 19.734375 -1.421875 13.25 4.234375 
Q 6.78125 9.90625 6.78125 20.515625 
Q 6.78125 27.484375 10.78125 32.3125 
Q 14.796875 37.15625 21.921875 38.8125 
z
M 18.3125 54.390625 
Q 18.3125 48.734375 21.84375 45.5625 
Q 25.390625 42.390625 31.78125 42.390625 
Q 38.140625 42.390625 41.71875 45.5625 
Q 45.3125 48.734375 45.3125 54.390625 
Q 45.3125 60.0625 41.71875 63.234375 
Q 38.140625 66.40625 31.78125 66.40625 
Q 25.390625 66.40625 21.84375 63.234375 
Q 18.3125 60.0625 18.3125 54.390625 
z
" id="DejaVuSans-38"/>
      </defs>
      <g transform="translate(240.289449 308.077932)scale(0.1 -0.1)">
       <use xlink:href="#DejaVuSans-30"/>
       <use x="63.623047" xlink:href="#DejaVuSans-2e"/>
       <use x="95.410156" xlink:href="#DejaVuSans-38"/>
      </g>
     </g>
    </g>
    <g id="xtick_5">
     <g id="line2d_5">
      <g>
       <use style="stroke:#000000;stroke-width:0.8;" x="296.034022" xlink:href="#m9c47aa1c04" y="293.479494"/>
      </g>
     </g>
     <g id="text_5">
      <!-- 1.0 -->
      <defs>
       <path d="M 12.40625 8.296875 
L 28.515625 8.296875 
L 28.515625 63.921875 
L 10.984375 60.40625 
L 10.984375 69.390625 
L 28.421875 72.90625 
L 38.28125 72.90625 
L 38.28125 8.296875 
L 54.390625 8.296875 
L 54.390625 0 
L 12.40625 0 
z
" id="DejaVuSans-31"/>
      </defs>
      <g transform="translate(288.08246 308.077932)scale(0.1 -0.1)">
       <use xlink:href="#DejaVuSans-31"/>
       <use x="63.623047" xlink:href="#DejaVuSans-2e"/>
       <use x="95.410156" xlink:href="#DejaVuSans-30"/>
      </g>
     </g>
    </g>
   </g>
   <g id="matplotlib.axis_2">
    <g id="ytick_1">
     <g id="line2d_6">
      <defs>
       <path d="M 0 0 
L -3.5 0 
" id="m9c1606abd9" style="stroke:#000000;stroke-width:0.8;"/>
      </defs>
      <g>
       <use style="stroke:#000000;stroke-width:0.8;" x="57.6" xlink:href="#m9c1606abd9" y="246.217517"/>
      </g>
     </g>
     <g id="text_6">
      <!-- 0.2 -->
      <g transform="translate(34.696875 250.016735)scale(0.1 -0.1)">
       <use xlink:href="#DejaVuSans-30"/>
       <use x="63.623047" xlink:href="#DejaVuSans-2e"/>
       <use x="95.410156" xlink:href="#DejaVuSans-32"/>
      </g>
     </g>
    </g>
    <g id="ytick_2">
     <g id="line2d_7">
      <g>
       <use style="stroke:#000000;stroke-width:0.8;" x="57.6" xlink:href="#m9c1606abd9" y="198.424506"/>
      </g>
     </g>
     <g id="text_7">
      <!-- 0.4 -->
      <g transform="translate(34.696875 202.223724)scale(0.1 -0.1)">
       <use xlink:href="#DejaVuSans-30"/>
       <use x="63.623047" xlink:href="#DejaVuSans-2e"/>
       <use x="95.410156" xlink:href="#DejaVuSans-34"/>
      </g>
     </g>
    </g>
    <g id="ytick_3">
     <g id="line2d_8">
      <g>
       <use style="stroke:#000000;stroke-width:0.8;" x="57.6" xlink:href="#m9c1606abd9" y="150.631494"/>
      </g>
     </g>
     <g id="text_8">
      <!-- 0.6 -->
      <g transform="translate(34.696875 154.430713)scale(0.1 -0.1)">
       <use xlink:href="#DejaVuSans-30"/>
       <use x="63.623047" xlink:href="#DejaVuSans-2e"/>
       <use x="95.410156" xlink:href="#DejaVuSans-36"/>
      </g>
     </g>
    </g>
    <g id="ytick_4">
     <g id="line2d_9">
      <g>
       <use style="stroke:#000000;stroke-width:0.8;" x="57.6" xlink:href="#m9c1606abd9" y="102.838483"/>
      </g>
     </g>
     <g id="text_9">
      <!-- 0.8 -->
      <g transform="translate(34.696875 106.637702)scale(0.1 -0.1)">
       <use xlink:href="#DejaVuSans-30"/>
       <use x="63.623047" xlink:href="#DejaVuSans-2e"/>
       <use x="95.410156" xlink:href="#DejaVuSans-38"/>
      </g>
     </g>
    </g>
   </g>
   <g id="LineCollection_1">
    <path clip-path="url(#p8096bb2932)" d="M 119.05919 293.479494 
L 118.862775 292.417428 
L 118.552288 291.355361 
L 118.057268 290.293294 
L 117.075747 289.046167 
L 116.01368 288.162855 
L 113.836836 287.107093 
L 111.765413 286.566109 
L 109.641279 286.196758 
L 106.455078 285.918103 
L 101.144743 285.793319 
L 89.462007 285.649829 
L 85.21374 285.348196 
L 82.027539 284.921577 
L 78.841338 284.248913 
L 76.717204 283.584687 
L 74.593071 282.672323 
L 72.468937 281.392349 
L 71.40687 280.556793 
L 70.344803 279.54093 
L 68.75387 277.548491 
L 67.496938 275.424357 
L 66.531813 273.300223 
L 65.762101 271.176089 
L 64.862625 267.989888 
L 63.972401 263.663321 
L 63.228066 258.431286 
L 62.598194 252.058885 
L 61.947303 242.500283 
L 61.261022 228.693413 
L 60.469587 208.514141 
L 59.756722 184.086602 
L 59.14603 155.410796 
L 58.513837 115.052253 
L 57.884694 58.762706 
L 57.913728 55.576506 
L 57.913728 55.576506 
" style="fill:none;stroke:#000080;stroke-width:1.5;"/>
   </g>
   <g id="LineCollection_2">
    <path clip-path="url(#p8096bb2932)" d="M 286.108951 293.479494 
L 286.481224 291.355361 
L 287.006454 288.600788 
L 287.120656 287.107093 
L 287.110884 283.920892 
L 286.891856 280.734691 
L 285.611083 269.051955 
L 283.919538 256.307152 
L 283.366862 253.120952 
L 282.29985 247.810617 
L 281.497401 244.624416 
L 280.43671 241.438216 
L 279.494855 239.314082 
L 278.509918 237.689365 
L 277.029051 236.127881 
L 276.385784 235.625082 
L 275.31447 235.065814 
L 274.261651 234.717932 
L 272.137517 234.387765 
L 268.951316 234.331671 
L 249.834112 234.707893 
L 226.468639 234.966781 
L 213.723836 235.370201 
L 190.358364 236.238565 
L 183.985963 236.215888 
L 177.613561 235.975321 
L 171.24116 235.517704 
L 162.744625 234.658334 
L 146.496276 232.94168 
L 140.441219 232.524248 
L 134.068818 232.311139 
L 127.696416 232.343074 
L 120.261948 232.647175 
L 112.82748 233.17538 
L 107.517145 233.773789 
L 104.330944 234.378271 
L 101.994873 235.065814 
L 100.082677 235.887395 
L 99.02061 236.486473 
L 97.958543 237.208932 
L 96.742618 238.252015 
L 95.739243 239.314082 
L 94.216518 241.438216 
L 93.100092 243.562349 
L 92.270485 245.686483 
L 91.586141 248.131058 
L 91.079781 250.996818 
L 90.780207 254.183019 
L 90.481274 258.431286 
L 90.124428 260.55542 
L 89.462007 262.475948 
L 89.371538 262.679554 
L 88.399941 264.151964 
L 87.337874 265.187435 
L 86.275807 265.897219 
L 85.21374 266.33475 
L 84.151673 266.609839 
L 83.089606 266.724297 
L 82.027539 266.68269 
L 80.965472 266.490425 
L 79.289085 265.865755 
L 78.841338 265.650476 
L 77.579765 264.803688 
L 76.394606 263.741621 
L 75.439669 262.679554 
L 74.593071 261.568444 
L 73.363639 259.493353 
L 72.345153 257.369219 
L 71.146685 254.183019 
L 69.912263 249.934751 
L 68.933908 245.686483 
L 67.769864 239.314082 
L 66.682689 231.879613 
L 65.663856 223.383078 
L 64.623422 212.762409 
L 63.621758 200.017606 
L 62.631857 184.086602 
L 61.651787 163.907331 
L 60.689905 138.417725 
L 59.763209 106.555717 
L 58.735304 63.010974 
L 58.717624 57.700639 
L 58.765094 55.576506 
L 58.765094 55.576506 
" style="fill:none;stroke:#0000e8;stroke-width:1.5;"/>
   </g>
   <g id="LineCollection_3">
    <path clip-path="url(#p8096bb2932)" d="M 290.133 293.479494 
L 290.528623 288.16916 
L 290.499523 284.982959 
L 290.154002 278.610558 
L 288.663887 257.369219 
L 287.290462 239.314082 
L 286.490288 230.817546 
L 285.526475 222.321011 
L 284.450771 214.886543 
L 283.45441 209.576208 
L 282.399089 205.327941 
L 281.308182 202.14174 
L 280.272966 200.017606 
L 279.571985 198.924387 
L 278.509918 197.881732 
L 277.447851 197.309391 
L 276.385784 197.080828 
L 275.323717 197.09331 
L 273.199584 197.532646 
L 266.827182 199.345361 
L 263.640981 199.890221 
L 260.454781 200.191399 
L 256.206513 200.356041 
L 247.709978 200.385955 
L 212.66177 200.407522 
L 183.985963 200.554932 
L 160.620491 200.931687 
L 130.882617 201.345361 
L 124.510216 201.266351 
L 119.199881 200.979623 
L 114.951613 200.550379 
L 109.641279 199.788881 
L 103.268877 198.850796 
L 100.082677 198.605628 
L 97.958543 198.628114 
L 95.834409 198.869693 
L 93.710275 199.405275 
L 91.586141 200.314128 
L 89.462007 201.681497 
L 87.71778 203.203807 
L 86.275807 204.720096 
L 84.092995 207.452074 
L 79.314016 213.824476 
L 78.258683 214.886543 
L 77.779271 215.318308 
L 76.685296 215.94861 
L 75.655138 216.150326 
L 74.593071 215.855866 
L 73.472682 214.886543 
L 72.468937 213.410273 
L 71.265831 210.638275 
L 69.985332 206.390007 
L 69.006382 202.14174 
L 67.863288 195.769338 
L 66.807452 188.33487 
L 65.721177 178.776268 
L 64.653773 167.093532 
L 63.560792 152.224595 
L 62.492308 134.169457 
L 61.433622 111.866052 
L 60.384153 84.252312 
L 59.572197 58.762706 
L 59.667716 55.576506 
L 59.667716 55.576506 
" style="fill:none;stroke:#0038ff;stroke-width:1.5;"/>
   </g>
   <g id="LineCollection_4">
    <path clip-path="url(#p8096bb2932)" d="M 292.360614 293.479494 
L 292.480831 284.982959 
L 292.150008 277.548491 
L 290.353357 241.438216 
L 289.434337 225.507212 
L 288.558032 212.762409 
L 287.587837 201.079673 
L 286.486425 190.459004 
L 285.51583 183.024535 
L 284.457697 176.652134 
L 283.559007 172.403866 
L 282.711289 169.217665 
L 281.491938 166.031465 
L 280.634052 164.425802 
L 279.571985 163.198617 
L 278.509918 162.584107 
L 277.447851 162.446804 
L 275.988214 162.845264 
L 275.323717 163.140341 
L 273.199584 164.513036 
L 269.528075 167.093532 
L 267.723261 168.155599 
L 265.392725 169.217665 
L 263.640981 169.806089 
L 261.516848 170.291622 
L 259.392714 170.585846 
L 256.206513 170.773024 
L 251.958245 170.759215 
L 234.965175 170.45176 
L 107.517145 170.127479 
L 96.896476 169.923062 
L 93.710275 170.099773 
L 91.586141 170.389139 
L 89.462007 170.878816 
L 87.337874 171.626002 
L 85.21374 172.679372 
L 83.089606 174.050016 
L 77.779271 177.955107 
L 76.717204 178.438872 
L 75.655138 178.633378 
L 74.593071 178.431198 
L 73.531004 177.713734 
L 72.468937 176.358767 
L 71.138444 173.465933 
L 70.106041 170.279732 
L 69.068038 166.031465 
L 67.886029 159.659063 
L 66.803627 152.224595 
L 65.691206 142.665993 
L 64.594338 130.983257 
L 63.539701 117.176387 
L 62.482766 100.183316 
L 60.76684 67.259242 
L 60.524544 59.824773 
L 60.678295 55.576506 
L 60.678295 55.576506 
" style="fill:none;stroke:#0094ff;stroke-width:1.5;"/>
   </g>
   <g id="LineCollection_5">
    <path clip-path="url(#p8096bb2932)" d="M 294.056137 293.479494 
L 293.970485 281.796758 
L 292.88127 252.058885 
L 291.624022 221.258944 
L 290.653841 202.14174 
L 289.665045 186.210736 
L 288.602881 172.403866 
L 287.579088 161.783197 
L 286.548183 153.286662 
L 285.571888 146.91426 
L 284.526504 141.603926 
L 283.408102 137.355658 
L 282.705223 135.231524 
L 281.696119 133.021908 
L 280.634052 131.507671 
L 279.571985 130.670042 
L 278.509918 130.39305 
L 277.447851 130.572366 
L 276.385784 131.113156 
L 275.202346 132.045323 
L 273.114803 134.169457 
L 268.951316 138.731317 
L 266.827182 140.65341 
L 264.703048 142.153149 
L 262.578914 143.233969 
L 260.454781 143.943707 
L 258.330647 144.347806 
L 256.206513 144.51296 
L 253.020312 144.44907 
L 248.772045 144.051536 
L 241.337576 143.28385 
L 237.089309 143.045519 
L 231.778974 142.978652 
L 222.220372 143.161606 
L 210.537636 143.312426 
L 188.23423 143.263056 
L 146.813621 143.301917 
L 91.586141 143.429844 
L 88.395932 143.728059 
L 85.21374 144.305537 
L 83.089606 144.884313 
L 77.779271 146.644697 
L 76.717204 146.831259 
L 75.655138 146.828544 
L 74.593071 146.54368 
L 73.520706 145.852193 
L 72.468937 144.66413 
L 71.353333 142.665993 
L 70.158778 139.479792 
L 69.012673 135.231524 
L 67.927863 129.92119 
L 66.759951 122.486721 
L 65.705177 113.990186 
L 64.644747 103.369517 
L 63.530948 89.562647 
L 61.717141 63.010974 
L 61.657667 59.824773 
L 61.848268 56.043119 
L 61.878317 55.576506 
L 61.878317 55.576506 
" style="fill:none;stroke:#0cf4eb;stroke-width:1.5;"/>
   </g>
   <g id="LineCollection_6">
    <path clip-path="url(#p8096bb2932)" d="M 295.585793 293.479494 
L 295.355812 277.548491 
L 294.359615 242.500283 
L 293.190807 208.514141 
L 292.073673 183.024535 
L 290.941677 162.845264 
L 289.872529 147.976327 
L 288.795249 136.293591 
L 287.796375 127.797056 
L 286.667019 120.362587 
L 285.621187 115.052253 
L 284.525588 110.803985 
L 283.416916 107.617784 
L 282.392013 105.493651 
L 281.696119 104.375147 
L 280.634052 103.308408 
L 279.571985 102.79491 
L 278.509918 102.753994 
L 277.447851 103.113278 
L 276.385784 103.803308 
L 274.645802 105.493651 
L 273.199584 107.194118 
L 267.87936 113.990186 
L 265.765115 116.262993 
L 263.640981 118.103299 
L 261.516848 119.471816 
L 259.392714 120.389006 
L 257.26858 120.906706 
L 255.144446 121.089346 
L 253.020312 121.008038 
L 250.896178 120.73194 
L 247.709978 120.092405 
L 239.213442 118.215561 
L 234.965175 117.599732 
L 230.716907 117.274575 
L 226.468639 117.198766 
L 221.158305 117.334125 
L 198.8549 118.180993 
L 183.985963 118.365997 
L 89.462007 119.165464 
L 84.151673 119.51032 
L 77.779271 120.064165 
L 76.717204 120.008144 
L 75.655138 119.810152 
L 74.449556 119.30052 
L 73.531004 118.676935 
L 72.249859 117.176387 
L 71.40687 115.816146 
L 70.206115 112.928119 
L 68.972172 108.679851 
L 68.028612 104.431584 
L 66.789642 96.997115 
L 65.691581 88.50058 
L 64.469503 76.817844 
L 63.39689 65.135108 
L 63.191757 60.88684 
L 63.272349 58.762706 
L 63.553874 55.576506 
L 63.553874 55.576506 
" style="fill:none;stroke:#56ffa0;stroke-width:1.5;"/>
   </g>
   <g id="LineCollection_7">
    <path clip-path="url(#p8096bb2932)" d="M 300.825869 293.479494 
L 300.718331 287.107093 
L 300.39774 280.734691 
L 299.751257 272.844994 
L 298.586838 261.617487 
L 296.441928 241.438216 
L 295.119127 207.452074 
L 294.120917 178.776268 
L 293.086178 155.410796 
L 292.053413 137.355658 
L 291.028071 123.548788 
L 289.89574 111.866052 
L 288.839167 103.369517 
L 287.832868 96.997115 
L 286.734634 91.686781 
L 285.893207 88.50058 
L 284.780294 85.314379 
L 283.817419 83.190245 
L 282.493799 81.066112 
L 281.647718 80.004045 
L 280.503358 78.941978 
L 279.571985 78.300161 
L 278.509918 77.782192 
L 277.447851 77.476182 
L 276.385784 77.34178 
L 275.323717 77.371213 
L 274.261651 77.556781 
L 273.199584 77.890743 
L 271.295949 78.941978 
L 270.000809 80.004045 
L 268.951316 81.138687 
L 267.498854 83.190245 
L 266.32096 85.314379 
L 263.133764 91.686781 
L 261.756856 93.810914 
L 260.454781 95.376949 
L 259.392714 96.388491 
L 258.330647 97.205877 
L 256.866521 98.059182 
L 255.144446 98.765161 
L 253.020312 99.281876 
L 250.896178 99.518393 
L 247.709978 99.534863 
L 243.46171 99.202821 
L 236.027242 98.271103 
L 225.406572 96.951751 
L 217.972104 96.252424 
L 210.537636 95.796066 
L 203.103167 95.571488 
L 193.544565 95.518531 
L 162.744625 95.523483 
L 143.62742 95.187526 
L 78.841338 93.72173 
L 76.717204 93.332019 
L 75.251658 92.748848 
L 74.593071 92.396177 
L 73.531004 91.553943 
L 72.468937 90.321223 
L 71.380577 88.50058 
L 70.101167 85.314379 
L 69.142541 82.128178 
L 67.964958 76.817844 
L 66.72511 69.383375 
L 66.071783 64.073041 
L 66.022355 60.88684 
L 66.248035 58.762706 
L 66.59339 56.638572 
L 66.618822 55.576506 
L 66.618822 55.576506 
" style="fill:none;stroke:#a0ff56;stroke-width:1.5;"/>
   </g>
   <g id="LineCollection_8">
    <path clip-path="url(#p8096bb2932)" d="M 308.316543 293.479494 
L 308.174729 284.982959 
L 307.793265 276.486424 
L 307.060894 265.865755 
L 305.863466 252.058885 
L 304.058072 234.003747 
L 302.026957 215.94861 
L 299.884581 198.955539 
L 297.78836 184.086602 
L 296.536367 175.590067 
L 294.93146 143.728059 
L 294.028338 125.672922 
L 293.071353 110.803985 
L 292.112867 99.121249 
L 291.193336 90.624714 
L 290.213419 84.252312 
L 289.530426 81.066112 
L 288.648323 77.879911 
L 287.887437 75.755777 
L 286.896524 73.631643 
L 285.51448 71.507509 
L 284.59053 70.445442 
L 283.382402 69.383375 
L 282.758186 68.937705 
L 281.696119 68.319067 
L 279.571985 67.493452 
L 277.447851 67.032315 
L 275.323717 66.837711 
L 273.199584 66.844651 
L 271.07545 67.017473 
L 267.889249 67.54322 
L 264.703048 68.339237 
L 261.478472 69.383375 
L 257.26858 71.028532 
L 247.709978 74.987454 
L 244.523777 75.986201 
L 241.337576 76.674839 
L 239.213442 76.949307 
L 236.027242 77.095244 
L 232.841041 76.967636 
L 229.65484 76.615104 
L 225.406572 75.896146 
L 220.096238 74.75138 
L 213.723836 73.219147 
L 191.420431 67.723037 
L 187.172164 66.433692 
L 185.04803 65.67463 
L 182.923896 64.812202 
L 180.799762 63.769604 
L 179.494639 63.010974 
L 177.613561 61.463267 
L 177.054683 60.88684 
L 176.348437 59.824773 
L 175.91561 58.762706 
L 175.704414 57.700639 
L 175.716822 55.576506 
L 175.716822 55.576506 
" style="fill:none;stroke:#ebff0c;stroke-width:1.5;"/>
   </g>
   <g id="LineCollection_9">
    <path clip-path="url(#p8096bb2932)" d="M 316.005489 293.479494 
L 315.882961 283.920892 
L 315.510273 273.300223 
L 314.816959 260.55542 
L 313.712872 244.624416 
L 312.160817 225.507212 
L 310.371926 206.2158 
L 308.602693 189.396937 
L 306.701874 173.465933 
L 304.828829 159.659063 
L 302.937457 147.379837 
L 301.195224 137.355658 
L 299.32708 127.797056 
L 297.459815 119.30052 
L 296.523373 115.052253 
L 294.677825 91.686781 
L 293.980351 84.252312 
L 293.28967 78.941978 
L 292.506731 74.69371 
L 291.674835 71.507509 
L 290.918079 69.383375 
L 289.878816 67.259242 
L 289.130587 66.098791 
L 288.06852 64.823196 
L 287.006454 63.828741 
L 284.88232 62.34774 
L 281.939457 60.88684 
L 280.634052 60.283858 
L 278.509918 59.295091 
L 277.447851 58.738236 
L 276.190734 57.700639 
L 275.638177 56.638572 
L 275.592355 55.576506 
L 275.592355 55.576506 
" style="fill:none;stroke:#ffab00;stroke-width:1.5;"/>
   </g>
   <g id="LineCollection_10">
    <path clip-path="url(#p8096bb2932)" d="M 323.839868 293.479494 
L 323.721849 281.796758 
L 323.341724 267.989888 
L 322.670463 252.058885 
L 321.581973 231.879613 
L 320.157044 209.576208 
L 318.655482 189.396937 
L 317.09408 171.341799 
L 315.488913 155.410796 
L 313.867996 141.603926 
L 312.278766 129.92119 
L 310.613399 119.30052 
L 308.889276 109.741918 
L 307.130053 101.245383 
L 305.362826 93.810914 
L 303.618238 87.438513 
L 301.87539 81.944669 
L 300.385577 77.879911 
L 298.68919 73.906295 
L 297.497619 71.507509 
L 296.565056 69.844303 
L 295.958175 67.259242 
L 295.172888 64.073041 
L 294.334078 60.88684 
L 292.819041 55.576506 
L 292.819041 55.576506 
" style="fill:none;stroke:#ff5500;stroke-width:1.5;"/>
   </g>
   <g id="LineCollection_11">
    <path clip-path="url(#p8096bb2932)" d="M 331.774265 293.479494 
L 331.645639 277.548491 
L 331.229498 256.307152 
L 330.544613 234.003747 
L 329.441492 205.327941 
L 328.239578 179.838335 
L 327.01684 158.596996 
L 325.831679 141.603926 
L 324.584578 126.734989 
L 323.310942 113.990186 
L 321.937867 102.30745 
L 320.344275 90.624714 
L 316.689288 65.135108 
L 316.280776 59.824773 
L 316.182963 55.576506 
L 316.182963 55.576506 
" style="fill:none;stroke:#e80000;stroke-width:1.5;"/>
   </g>
   <g id="LineCollection_12">
    <path clip-path="url(#p8096bb2932)" d="M 339.774141 293.479494 
L 339.673189 273.300223 
L 339.454956 239.314082 
L 338.630101 179.838335 
L 337.908149 144.790126 
L 337.205361 120.362587 
L 336.356653 98.059182 
L 335.051995 65.135108 
L 334.944874 55.576506 
L 334.944874 55.576506 
" style="fill:none;stroke:#800000;stroke-width:1.5;"/>
   </g>
   <g id="patch_3">
    <path d="M 57.6 293.479494 
L 57.6 55.576506 
" style="fill:none;stroke:#000000;stroke-linecap:square;stroke-linejoin:miter;stroke-width:0.8;"/>
   </g>
   <g id="patch_4">
    <path d="M 343.296 293.479494 
L 343.296 55.576506 
" style="fill:none;stroke:#000000;stroke-linecap:square;stroke-linejoin:miter;stroke-width:0.8;"/>
   </g>
   <g id="patch_5">
    <path d="M 57.6 293.479494 
L 343.296 293.479494 
" style="fill:none;stroke:#000000;stroke-linecap:square;stroke-linejoin:miter;stroke-width:0.8;"/>
   </g>
   <g id="patch_6">
    <path d="M 57.6 55.576506 
L 343.296 55.576506 
" style="fill:none;stroke:#000000;stroke-linecap:square;stroke-linejoin:miter;stroke-width:0.8;"/>
   </g>
   <g id="text_10">
    <!-- Time:0.11523 s -->
    <defs>
     <path d="M -0.296875 72.90625 
L 61.375 72.90625 
L 61.375 64.59375 
L 35.5 64.59375 
L 35.5 0 
L 25.59375 0 
L 25.59375 64.59375 
L -0.296875 64.59375 
z
" id="DejaVuSans-54"/>
     <path d="M 9.421875 54.6875 
L 18.40625 54.6875 
L 18.40625 0 
L 9.421875 0 
z
M 9.421875 75.984375 
L 18.40625 75.984375 
L 18.40625 64.59375 
L 9.421875 64.59375 
z
" id="DejaVuSans-69"/>
     <path d="M 52 44.1875 
Q 55.375 50.25 60.0625 53.125 
Q 64.75 56 71.09375 56 
Q 79.640625 56 84.28125 50.015625 
Q 88.921875 44.046875 88.921875 33.015625 
L 88.921875 0 
L 79.890625 0 
L 79.890625 32.71875 
Q 79.890625 40.578125 77.09375 44.375 
Q 74.3125 48.1875 68.609375 48.1875 
Q 61.625 48.1875 57.5625 43.546875 
Q 53.515625 38.921875 53.515625 30.90625 
L 53.515625 0 
L 44.484375 0 
L 44.484375 32.71875 
Q 44.484375 40.625 41.703125 44.40625 
Q 38.921875 48.1875 33.109375 48.1875 
Q 26.21875 48.1875 22.15625 43.53125 
Q 18.109375 38.875 18.109375 30.90625 
L 18.109375 0 
L 9.078125 0 
L 9.078125 54.6875 
L 18.109375 54.6875 
L 18.109375 46.1875 
Q 21.1875 51.21875 25.484375 53.609375 
Q 29.78125 56 35.6875 56 
Q 41.65625 56 45.828125 52.96875 
Q 50 49.953125 52 44.1875 
z
" id="DejaVuSans-6d"/>
     <path d="M 56.203125 29.59375 
L 56.203125 25.203125 
L 14.890625 25.203125 
Q 15.484375 15.921875 20.484375 11.0625 
Q 25.484375 6.203125 34.421875 6.203125 
Q 39.59375 6.203125 44.453125 7.46875 
Q 49.3125 8.734375 54.109375 11.28125 
L 54.109375 2.78125 
Q 49.265625 0.734375 44.1875 -0.34375 
Q 39.109375 -1.421875 33.890625 -1.421875 
Q 20.796875 -1.421875 13.15625 6.1875 
Q 5.515625 13.8125 5.515625 26.8125 
Q 5.515625 40.234375 12.765625 48.109375 
Q 20.015625 56 32.328125 56 
Q 43.359375 56 49.78125 48.890625 
Q 56.203125 41.796875 56.203125 29.59375 
z
M 47.21875 32.234375 
Q 47.125 39.59375 43.09375 43.984375 
Q 39.0625 48.390625 32.421875 48.390625 
Q 24.90625 48.390625 20.390625 44.140625 
Q 15.875 39.890625 15.1875 32.171875 
z
" id="DejaVuSans-65"/>
     <path d="M 11.71875 12.40625 
L 22.015625 12.40625 
L 22.015625 0 
L 11.71875 0 
z
M 11.71875 51.703125 
L 22.015625 51.703125 
L 22.015625 39.3125 
L 11.71875 39.3125 
z
" id="DejaVuSans-3a"/>
     <path d="M 10.796875 72.90625 
L 49.515625 72.90625 
L 49.515625 64.59375 
L 19.828125 64.59375 
L 19.828125 46.734375 
Q 21.96875 47.46875 24.109375 47.828125 
Q 26.265625 48.1875 28.421875 48.1875 
Q 40.625 48.1875 47.75 41.5 
Q 54.890625 34.8125 54.890625 23.390625 
Q 54.890625 11.625 47.5625 5.09375 
Q 40.234375 -1.421875 26.90625 -1.421875 
Q 22.3125 -1.421875 17.546875 -0.640625 
Q 12.796875 0.140625 7.71875 1.703125 
L 7.71875 11.625 
Q 12.109375 9.234375 16.796875 8.0625 
Q 21.484375 6.890625 26.703125 6.890625 
Q 35.15625 6.890625 40.078125 11.328125 
Q 45.015625 15.765625 45.015625 23.390625 
Q 45.015625 31 40.078125 35.4375 
Q 35.15625 39.890625 26.703125 39.890625 
Q 22.75 39.890625 18.8125 39.015625 
Q 14.890625 38.140625 10.796875 36.28125 
z
" id="DejaVuSans-35"/>
     <path d="M 40.578125 39.3125 
Q 47.65625 37.796875 51.625 33 
Q 55.609375 28.21875 55.609375 21.1875 
Q 55.609375 10.40625 48.1875 4.484375 
Q 40.765625 -1.421875 27.09375 -1.421875 
Q 22.515625 -1.421875 17.65625 -0.515625 
Q 12.796875 0.390625 7.625 2.203125 
L 7.625 11.71875 
Q 11.71875 9.328125 16.59375 8.109375 
Q 21.484375 6.890625 26.8125 6.890625 
Q 36.078125 6.890625 40.9375 10.546875 
Q 45.796875 14.203125 45.796875 21.1875 
Q 45.796875 27.640625 41.28125 31.265625 
Q 36.765625 34.90625 28.71875 34.90625 
L 20.21875 34.90625 
L 20.21875 43.015625 
L 29.109375 43.015625 
Q 36.375 43.015625 40.234375 45.921875 
Q 44.09375 48.828125 44.09375 54.296875 
Q 44.09375 59.90625 40.109375 62.90625 
Q 36.140625 65.921875 28.71875 65.921875 
Q 24.65625 65.921875 20.015625 65.03125 
Q 15.375 64.15625 9.8125 62.3125 
L 9.8125 71.09375 
Q 15.4375 72.65625 20.34375 73.4375 
Q 25.25 74.21875 29.59375 74.21875 
Q 40.828125 74.21875 47.359375 69.109375 
Q 53.90625 64.015625 53.90625 55.328125 
Q 53.90625 49.265625 50.4375 45.09375 
Q 46.96875 40.921875 40.578125 39.3125 
z
" id="DejaVuSans-33"/>
     <path id="DejaVuSans-20"/>
     <path d="M 44.28125 53.078125 
L 44.28125 44.578125 
Q 40.484375 46.53125 36.375 47.5 
Q 32.28125 48.484375 27.875 48.484375 
Q 21.1875 48.484375 17.84375 46.4375 
Q 14.5 44.390625 14.5 40.28125 
Q 14.5 37.15625 16.890625 35.375 
Q 19.28125 33.59375 26.515625 31.984375 
L 29.59375 31.296875 
Q 39.15625 29.25 43.1875 25.515625 
Q 47.21875 21.78125 47.21875 15.09375 
Q 47.21875 7.46875 41.1875 3.015625 
Q 35.15625 -1.421875 24.609375 -1.421875 
Q 20.21875 -1.421875 15.453125 -0.5625 
Q 10.6875 0.296875 5.421875 2 
L 5.421875 11.28125 
Q 10.40625 8.6875 15.234375 7.390625 
Q 20.0625 6.109375 24.8125 6.109375 
Q 31.15625 6.109375 34.5625 8.28125 
Q 37.984375 10.453125 37.984375 14.40625 
Q 37.984375 18.0625 35.515625 20.015625 
Q 33.0625 21.96875 24.703125 23.78125 
L 21.578125 24.515625 
Q 13.234375 26.265625 9.515625 29.90625 
Q 5.8125 33.546875 5.8125 39.890625 
Q 5.8125 47.609375 11.28125 51.796875 
Q 16.75 56 26.8125 56 
Q 31.78125 56 36.171875 55.265625 
Q 40.578125 54.546875 44.28125 53.078125 
z
" id="DejaVuSans-73"/>
    </defs>
    <g transform="translate(153.717375 49.576506)scale(0.12 -0.12)">
     <use xlink:href="#DejaVuSans-54"/>
     <use x="61.037109" xlink:href="#DejaVuSans-69"/>
     <use x="88.820312" xlink:href="#DejaVuSans-6d"/>
     <use x="186.232422" xlink:href="#DejaVuSans-65"/>
     <use x="247.755859" xlink:href="#DejaVuSans-3a"/>
     <use x="281.447266" xlink:href="#DejaVuSans-30"/>
     <use x="345.070312" xlink:href="#DejaVuSans-2e"/>
     <use x="376.857422" xlink:href="#DejaVuSans-31"/>
     <use x="440.480469" xlink:href="#DejaVuSans-31"/>
     <use x="504.103516" xlink:href="#DejaVuSans-35"/>
     <use x="567.726562" xlink:href="#DejaVuSans-32"/>
     <use x="631.349609" xlink:href="#DejaVuSans-33"/>
     <use x="694.972656" xlink:href="#DejaVuSans-20"/>
     <use x="726.759766" xlink:href="#DejaVuSans-73"/>
    </g>
   </g>
  </g>
  <g id="axes_2">
   <g id="patch_7">
    <path clip-path="url(#pfcb02d4327)" d="M 361.152 307.584 
L 361.152 283.392 
L 361.152 65.664 
L 361.152 41.472 
L 374.4576 41.472 
L 374.4576 65.664 
L 374.4576 283.392 
L 374.4576 307.584 
z
" style="fill:#ffffff;stroke:#ffffff;stroke-linejoin:miter;stroke-width:0.01;"/>
   </g>
   <g id="matplotlib.axis_3"/>
   <g id="matplotlib.axis_4">
    <g id="ytick_5">
     <g id="line2d_10">
      <defs>
       <path d="M 0 0 
L 3.5 0 
" id="m739949fd49" style="stroke:#000000;stroke-width:0.8;"/>
      </defs>
      <g>
       <use style="stroke:#000000;stroke-width:0.8;" x="374.4576" xlink:href="#m739949fd49" y="307.584"/>
      </g>
     </g>
     <g id="text_11">
      <!-- 0.08 -->
      <g transform="translate(381.4576 311.383219)scale(0.1 -0.1)">
       <use xlink:href="#DejaVuSans-30"/>
       <use x="63.623047" xlink:href="#DejaVuSans-2e"/>
       <use x="95.410156" xlink:href="#DejaVuSans-30"/>
       <use x="159.033203" xlink:href="#DejaVuSans-38"/>
      </g>
     </g>
    </g>
    <g id="ytick_6">
     <g id="line2d_11">
      <g>
       <use style="stroke:#000000;stroke-width:0.8;" x="374.4576" xlink:href="#m739949fd49" y="259.2"/>
      </g>
     </g>
     <g id="text_12">
      <!-- 0.24 -->
      <g transform="translate(381.4576 262.999219)scale(0.1 -0.1)">
       <use xlink:href="#DejaVuSans-30"/>
       <use x="63.623047" xlink:href="#DejaVuSans-2e"/>
       <use x="95.410156" xlink:href="#DejaVuSans-32"/>
       <use x="159.033203" xlink:href="#DejaVuSans-34"/>
      </g>
     </g>
    </g>
    <g id="ytick_7">
     <g id="line2d_12">
      <g>
       <use style="stroke:#000000;stroke-width:0.8;" x="374.4576" xlink:href="#m739949fd49" y="210.816"/>
      </g>
     </g>
     <g id="text_13">
      <!-- 0.40 -->
      <g transform="translate(381.4576 214.615219)scale(0.1 -0.1)">
       <use xlink:href="#DejaVuSans-30"/>
       <use x="63.623047" xlink:href="#DejaVuSans-2e"/>
       <use x="95.410156" xlink:href="#DejaVuSans-34"/>
       <use x="159.033203" xlink:href="#DejaVuSans-30"/>
      </g>
     </g>
    </g>
    <g id="ytick_8">
     <g id="line2d_13">
      <g>
       <use style="stroke:#000000;stroke-width:0.8;" x="374.4576" xlink:href="#m739949fd49" y="162.432"/>
      </g>
     </g>
     <g id="text_14">
      <!-- 0.56 -->
      <g transform="translate(381.4576 166.231219)scale(0.1 -0.1)">
       <use xlink:href="#DejaVuSans-30"/>
       <use x="63.623047" xlink:href="#DejaVuSans-2e"/>
       <use x="95.410156" xlink:href="#DejaVuSans-35"/>
       <use x="159.033203" xlink:href="#DejaVuSans-36"/>
      </g>
     </g>
    </g>
    <g id="ytick_9">
     <g id="line2d_14">
      <g>
       <use style="stroke:#000000;stroke-width:0.8;" x="374.4576" xlink:href="#m739949fd49" y="114.048"/>
      </g>
     </g>
     <g id="text_15">
      <!-- 0.72 -->
      <defs>
       <path d="M 8.203125 72.90625 
L 55.078125 72.90625 
L 55.078125 68.703125 
L 28.609375 0 
L 18.3125 0 
L 43.21875 64.59375 
L 8.203125 64.59375 
z
" id="DejaVuSans-37"/>
      </defs>
      <g transform="translate(381.4576 117.847219)scale(0.1 -0.1)">
       <use xlink:href="#DejaVuSans-30"/>
       <use x="63.623047" xlink:href="#DejaVuSans-2e"/>
       <use x="95.410156" xlink:href="#DejaVuSans-37"/>
       <use x="159.033203" xlink:href="#DejaVuSans-32"/>
      </g>
     </g>
    </g>
    <g id="ytick_10">
     <g id="line2d_15">
      <g>
       <use style="stroke:#000000;stroke-width:0.8;" x="374.4576" xlink:href="#m739949fd49" y="65.664"/>
      </g>
     </g>
     <g id="text_16">
      <!-- 0.88 -->
      <g transform="translate(381.4576 69.463219)scale(0.1 -0.1)">
       <use xlink:href="#DejaVuSans-30"/>
       <use x="63.623047" xlink:href="#DejaVuSans-2e"/>
       <use x="95.410156" xlink:href="#DejaVuSans-38"/>
       <use x="159.033203" xlink:href="#DejaVuSans-38"/>
      </g>
     </g>
    </g>
   </g>
   <g id="LineCollection_13">
    <path clip-path="url(#pfcb02d4327)" d="M 361.152 307.584 
L 374.4576 307.584 
" style="fill:none;stroke:#000080;stroke-width:1.5;"/>
    <path clip-path="url(#pfcb02d4327)" d="M 361.152 283.392 
L 374.4576 283.392 
" style="fill:none;stroke:#0000e8;stroke-width:1.5;"/>
    <path clip-path="url(#pfcb02d4327)" d="M 361.152 259.2 
L 374.4576 259.2 
" style="fill:none;stroke:#0038ff;stroke-width:1.5;"/>
    <path clip-path="url(#pfcb02d4327)" d="M 361.152 235.008 
L 374.4576 235.008 
" style="fill:none;stroke:#0094ff;stroke-width:1.5;"/>
    <path clip-path="url(#pfcb02d4327)" d="M 361.152 210.816 
L 374.4576 210.816 
" style="fill:none;stroke:#0cf4eb;stroke-width:1.5;"/>
    <path clip-path="url(#pfcb02d4327)" d="M 361.152 186.624 
L 374.4576 186.624 
" style="fill:none;stroke:#56ffa0;stroke-width:1.5;"/>
    <path clip-path="url(#pfcb02d4327)" d="M 361.152 162.432 
L 374.4576 162.432 
" style="fill:none;stroke:#a0ff56;stroke-width:1.5;"/>
    <path clip-path="url(#pfcb02d4327)" d="M 361.152 138.24 
L 374.4576 138.24 
" style="fill:none;stroke:#ebff0c;stroke-width:1.5;"/>
    <path clip-path="url(#pfcb02d4327)" d="M 361.152 114.048 
L 374.4576 114.048 
" style="fill:none;stroke:#ffab00;stroke-width:1.5;"/>
    <path clip-path="url(#pfcb02d4327)" d="M 361.152 89.856 
L 374.4576 89.856 
" style="fill:none;stroke:#ff5500;stroke-width:1.5;"/>
    <path clip-path="url(#pfcb02d4327)" d="M 361.152 65.664 
L 374.4576 65.664 
" style="fill:none;stroke:#e80000;stroke-width:1.5;"/>
    <path clip-path="url(#pfcb02d4327)" d="M 361.152 41.472 
L 374.4576 41.472 
" style="fill:none;stroke:#800000;stroke-width:1.5;"/>
   </g>
   <g id="patch_8">
    <path d="M 361.152 307.584 
L 361.152 283.392 
L 361.152 65.664 
L 361.152 41.472 
L 374.4576 41.472 
L 374.4576 65.664 
L 374.4576 283.392 
L 374.4576 307.584 
z
" style="fill:none;stroke:#000000;stroke-linejoin:miter;stroke-width:0.8;"/>
   </g>
  </g>
 </g>
 <defs>
  <clipPath id="p8096bb2932">
   <rect height="237.902989" width="285.696" x="57.6" y="55.576506"/>
  </clipPath>
  <clipPath id="pfcb02d4327">
   <rect height="266.112" width="13.3056" x="361.152" y="41.472"/>
  </clipPath>
 </defs>
</svg>
