<?xml version="1.0" encoding="utf-8" standalone="no"?>
<!DOCTYPE svg PUBLIC "-//W3C//DTD SVG 1.1//EN"
  "http://www.w3.org/Graphics/SVG/1.1/DTD/svg11.dtd">
<!-- Created with matplotlib (http://matplotlib.org/) -->
<svg height="345.6pt" version="1.1" viewBox="0 0 460.8 345.6" width="460.8pt" xmlns="http://www.w3.org/2000/svg" xmlns:xlink="http://www.w3.org/1999/xlink">
 <defs>
  <style type="text/css">
*{stroke-linecap:butt;stroke-linejoin:round;}
  </style>
 </defs>
 <g id="figure_1">
  <g id="patch_1">
   <path d="M 0 345.6 
L 460.8 345.6 
L 460.8 0 
L 0 0 
z
" style="fill:#ffffff;"/>
  </g>
  <g id="axes_1">
   <g id="patch_2">
    <path d="M 57.6 293.479494 
L 343.296 293.479494 
L 343.296 55.576506 
L 57.6 55.576506 
z
" style="fill:#ffffff;"/>
   </g>
   <g id="matplotlib.axis_1">
    <g id="xtick_1">
     <g id="line2d_1">
      <defs>
       <path d="M 0 0 
L 0 3.5 
" id="md6c817cf07" style="stroke:#000000;stroke-width:0.8;"/>
      </defs>
      <g>
       <use style="stroke:#000000;stroke-width:0.8;" x="104.861978" xlink:href="#md6c817cf07" y="293.479494"/>
      </g>
     </g>
     <g id="text_1">
      <!-- 0.2 -->
      <defs>
       <path d="M 31.78125 66.40625 
Q 24.171875 66.40625 20.328125 58.90625 
Q 16.5 51.421875 16.5 36.375 
Q 16.5 21.390625 20.328125 13.890625 
Q 24.171875 6.390625 31.78125 6.390625 
Q 39.453125 6.390625 43.28125 13.890625 
Q 47.125 21.390625 47.125 36.375 
Q 47.125 51.421875 43.28125 58.90625 
Q 39.453125 66.40625 31.78125 66.40625 
z
M 31.78125 74.21875 
Q 44.046875 74.21875 50.515625 64.515625 
Q 56.984375 54.828125 56.984375 36.375 
Q 56.984375 17.96875 50.515625 8.265625 
Q 44.046875 -1.421875 31.78125 -1.421875 
Q 19.53125 -1.421875 13.0625 8.265625 
Q 6.59375 17.96875 6.59375 36.375 
Q 6.59375 54.828125 13.0625 64.515625 
Q 19.53125 74.21875 31.78125 74.21875 
z
" id="DejaVuSans-30"/>
       <path d="M 10.6875 12.40625 
L 21 12.40625 
L 21 0 
L 10.6875 0 
z
" id="DejaVuSans-2e"/>
       <path d="M 19.1875 8.296875 
L 53.609375 8.296875 
L 53.609375 0 
L 7.328125 0 
L 7.328125 8.296875 
Q 12.9375 14.109375 22.625 23.890625 
Q 32.328125 33.6875 34.8125 36.53125 
Q 39.546875 41.84375 41.421875 45.53125 
Q 43.3125 49.21875 43.3125 52.78125 
Q 43.3125 58.59375 39.234375 62.25 
Q 35.15625 65.921875 28.609375 65.921875 
Q 23.96875 65.921875 18.8125 64.3125 
Q 13.671875 62.703125 7.8125 59.421875 
L 7.8125 69.390625 
Q 13.765625 71.78125 18.9375 73 
Q 24.125 74.21875 28.421875 74.21875 
Q 39.75 74.21875 46.484375 68.546875 
Q 53.21875 62.890625 53.21875 53.421875 
Q 53.21875 48.921875 51.53125 44.890625 
Q 49.859375 40.875 45.40625 35.40625 
Q 44.1875 33.984375 37.640625 27.21875 
Q 31.109375 20.453125 19.1875 8.296875 
z
" id="DejaVuSans-32"/>
      </defs>
      <g transform="translate(96.910415 308.077932)scale(0.1 -0.1)">
       <use xlink:href="#DejaVuSans-30"/>
       <use x="63.623047" xlink:href="#DejaVuSans-2e"/>
       <use x="95.410156" xlink:href="#DejaVuSans-32"/>
      </g>
     </g>
    </g>
    <g id="xtick_2">
     <g id="line2d_2">
      <g>
       <use style="stroke:#000000;stroke-width:0.8;" x="152.654989" xlink:href="#md6c817cf07" y="293.479494"/>
      </g>
     </g>
     <g id="text_2">
      <!-- 0.4 -->
      <defs>
       <path d="M 37.796875 64.3125 
L 12.890625 25.390625 
L 37.796875 25.390625 
z
M 35.203125 72.90625 
L 47.609375 72.90625 
L 47.609375 25.390625 
L 58.015625 25.390625 
L 58.015625 17.1875 
L 47.609375 17.1875 
L 47.609375 0 
L 37.796875 0 
L 37.796875 17.1875 
L 4.890625 17.1875 
L 4.890625 26.703125 
z
" id="DejaVuSans-34"/>
      </defs>
      <g transform="translate(144.703426 308.077932)scale(0.1 -0.1)">
       <use xlink:href="#DejaVuSans-30"/>
       <use x="63.623047" xlink:href="#DejaVuSans-2e"/>
       <use x="95.410156" xlink:href="#DejaVuSans-34"/>
      </g>
     </g>
    </g>
    <g id="xtick_3">
     <g id="line2d_3">
      <g>
       <use style="stroke:#000000;stroke-width:0.8;" x="200.448" xlink:href="#md6c817cf07" y="293.479494"/>
      </g>
     </g>
     <g id="text_3">
      <!-- 0.6 -->
      <defs>
       <path d="M 33.015625 40.375 
Q 26.375 40.375 22.484375 35.828125 
Q 18.609375 31.296875 18.609375 23.390625 
Q 18.609375 15.53125 22.484375 10.953125 
Q 26.375 6.390625 33.015625 6.390625 
Q 39.65625 6.390625 43.53125 10.953125 
Q 47.40625 15.53125 47.40625 23.390625 
Q 47.40625 31.296875 43.53125 35.828125 
Q 39.65625 40.375 33.015625 40.375 
z
M 52.59375 71.296875 
L 52.59375 62.3125 
Q 48.875 64.0625 45.09375 64.984375 
Q 41.3125 65.921875 37.59375 65.921875 
Q 27.828125 65.921875 22.671875 59.328125 
Q 17.53125 52.734375 16.796875 39.40625 
Q 19.671875 43.65625 24.015625 45.921875 
Q 28.375 48.1875 33.59375 48.1875 
Q 44.578125 48.1875 50.953125 41.515625 
Q 57.328125 34.859375 57.328125 23.390625 
Q 57.328125 12.15625 50.6875 5.359375 
Q 44.046875 -1.421875 33.015625 -1.421875 
Q 20.359375 -1.421875 13.671875 8.265625 
Q 6.984375 17.96875 6.984375 36.375 
Q 6.984375 53.65625 15.1875 63.9375 
Q 23.390625 74.21875 37.203125 74.21875 
Q 40.921875 74.21875 44.703125 73.484375 
Q 48.484375 72.75 52.59375 71.296875 
z
" id="DejaVuSans-36"/>
      </defs>
      <g transform="translate(192.496438 308.077932)scale(0.1 -0.1)">
       <use xlink:href="#DejaVuSans-30"/>
       <use x="63.623047" xlink:href="#DejaVuSans-2e"/>
       <use x="95.410156" xlink:href="#DejaVuSans-36"/>
      </g>
     </g>
    </g>
    <g id="xtick_4">
     <g id="line2d_4">
      <g>
       <use style="stroke:#000000;stroke-width:0.8;" x="248.241011" xlink:href="#md6c817cf07" y="293.479494"/>
      </g>
     </g>
     <g id="text_4">
      <!-- 0.8 -->
      <defs>
       <path d="M 31.78125 34.625 
Q 24.75 34.625 20.71875 30.859375 
Q 16.703125 27.09375 16.703125 20.515625 
Q 16.703125 13.921875 20.71875 10.15625 
Q 24.75 6.390625 31.78125 6.390625 
Q 38.8125 6.390625 42.859375 10.171875 
Q 46.921875 13.96875 46.921875 20.515625 
Q 46.921875 27.09375 42.890625 30.859375 
Q 38.875 34.625 31.78125 34.625 
z
M 21.921875 38.8125 
Q 15.578125 40.375 12.03125 44.71875 
Q 8.5 49.078125 8.5 55.328125 
Q 8.5 64.0625 14.71875 69.140625 
Q 20.953125 74.21875 31.78125 74.21875 
Q 42.671875 74.21875 48.875 69.140625 
Q 55.078125 64.0625 55.078125 55.328125 
Q 55.078125 49.078125 51.53125 44.71875 
Q 48 40.375 41.703125 38.8125 
Q 48.828125 37.15625 52.796875 32.3125 
Q 56.78125 27.484375 56.78125 20.515625 
Q 56.78125 9.90625 50.3125 4.234375 
Q 43.84375 -1.421875 31.78125 -1.421875 
Q 19.734375 -1.421875 13.25 4.234375 
Q 6.78125 9.90625 6.78125 20.515625 
Q 6.78125 27.484375 10.78125 32.3125 
Q 14.796875 37.15625 21.921875 38.8125 
z
M 18.3125 54.390625 
Q 18.3125 48.734375 21.84375 45.5625 
Q 25.390625 42.390625 31.78125 42.390625 
Q 38.140625 42.390625 41.71875 45.5625 
Q 45.3125 48.734375 45.3125 54.390625 
Q 45.3125 60.0625 41.71875 63.234375 
Q 38.140625 66.40625 31.78125 66.40625 
Q 25.390625 66.40625 21.84375 63.234375 
Q 18.3125 60.0625 18.3125 54.390625 
z
" id="DejaVuSans-38"/>
      </defs>
      <g transform="translate(240.289449 308.077932)scale(0.1 -0.1)">
       <use xlink:href="#DejaVuSans-30"/>
       <use x="63.623047" xlink:href="#DejaVuSans-2e"/>
       <use x="95.410156" xlink:href="#DejaVuSans-38"/>
      </g>
     </g>
    </g>
    <g id="xtick_5">
     <g id="line2d_5">
      <g>
       <use style="stroke:#000000;stroke-width:0.8;" x="296.034022" xlink:href="#md6c817cf07" y="293.479494"/>
      </g>
     </g>
     <g id="text_5">
      <!-- 1.0 -->
      <defs>
       <path d="M 12.40625 8.296875 
L 28.515625 8.296875 
L 28.515625 63.921875 
L 10.984375 60.40625 
L 10.984375 69.390625 
L 28.421875 72.90625 
L 38.28125 72.90625 
L 38.28125 8.296875 
L 54.390625 8.296875 
L 54.390625 0 
L 12.40625 0 
z
" id="DejaVuSans-31"/>
      </defs>
      <g transform="translate(288.08246 308.077932)scale(0.1 -0.1)">
       <use xlink:href="#DejaVuSans-31"/>
       <use x="63.623047" xlink:href="#DejaVuSans-2e"/>
       <use x="95.410156" xlink:href="#DejaVuSans-30"/>
      </g>
     </g>
    </g>
   </g>
   <g id="matplotlib.axis_2">
    <g id="ytick_1">
     <g id="line2d_6">
      <defs>
       <path d="M 0 0 
L -3.5 0 
" id="m2262beb62d" style="stroke:#000000;stroke-width:0.8;"/>
      </defs>
      <g>
       <use style="stroke:#000000;stroke-width:0.8;" x="57.6" xlink:href="#m2262beb62d" y="246.217517"/>
      </g>
     </g>
     <g id="text_6">
      <!-- 0.2 -->
      <g transform="translate(34.696875 250.016735)scale(0.1 -0.1)">
       <use xlink:href="#DejaVuSans-30"/>
       <use x="63.623047" xlink:href="#DejaVuSans-2e"/>
       <use x="95.410156" xlink:href="#DejaVuSans-32"/>
      </g>
     </g>
    </g>
    <g id="ytick_2">
     <g id="line2d_7">
      <g>
       <use style="stroke:#000000;stroke-width:0.8;" x="57.6" xlink:href="#m2262beb62d" y="198.424506"/>
      </g>
     </g>
     <g id="text_7">
      <!-- 0.4 -->
      <g transform="translate(34.696875 202.223724)scale(0.1 -0.1)">
       <use xlink:href="#DejaVuSans-30"/>
       <use x="63.623047" xlink:href="#DejaVuSans-2e"/>
       <use x="95.410156" xlink:href="#DejaVuSans-34"/>
      </g>
     </g>
    </g>
    <g id="ytick_3">
     <g id="line2d_8">
      <g>
       <use style="stroke:#000000;stroke-width:0.8;" x="57.6" xlink:href="#m2262beb62d" y="150.631494"/>
      </g>
     </g>
     <g id="text_8">
      <!-- 0.6 -->
      <g transform="translate(34.696875 154.430713)scale(0.1 -0.1)">
       <use xlink:href="#DejaVuSans-30"/>
       <use x="63.623047" xlink:href="#DejaVuSans-2e"/>
       <use x="95.410156" xlink:href="#DejaVuSans-36"/>
      </g>
     </g>
    </g>
    <g id="ytick_4">
     <g id="line2d_9">
      <g>
       <use style="stroke:#000000;stroke-width:0.8;" x="57.6" xlink:href="#m2262beb62d" y="102.838483"/>
      </g>
     </g>
     <g id="text_9">
      <!-- 0.8 -->
      <g transform="translate(34.696875 106.637702)scale(0.1 -0.1)">
       <use xlink:href="#DejaVuSans-30"/>
       <use x="63.623047" xlink:href="#DejaVuSans-2e"/>
       <use x="95.410156" xlink:href="#DejaVuSans-38"/>
      </g>
     </g>
    </g>
   </g>
   <g id="LineCollection_1">
    <path clip-path="url(#p28708072d2)" d="M 172.804264 293.479494 
L 172.76074 292.417428 
L 172.564772 291.355361 
L 172.191411 290.293294 
L 171.24116 288.716219 
L 170.841789 288.16916 
L 169.117026 286.47013 
L 168.054959 285.612002 
L 165.930825 284.132347 
L 164.868758 283.482788 
L 161.864895 281.796758 
L 157.403725 279.672625 
L 153.186022 278.001046 
L 149.999822 276.949613 
L 146.813621 276.10976 
L 143.15873 275.424357 
L 140.441219 275.132263 
L 137.255019 275.007932 
L 134.068818 275.112489 
L 130.866167 275.424357 
L 126.634349 276.130326 
L 122.386082 277.066198 
L 116.01368 278.689136 
L 108.579212 280.58098 
L 102.946918 281.796758 
L 99.02061 282.483745 
L 94.772342 283.023234 
L 90.524074 283.33147 
L 87.337874 283.371456 
L 84.151673 283.208654 
L 80.965472 282.778993 
L 78.841338 282.295247 
L 76.717204 281.592016 
L 74.593071 280.586503 
L 73.172558 279.672625 
L 71.86795 278.610558 
L 70.817171 277.548491 
L 69.944191 276.486424 
L 68.563187 274.36229 
L 67.508536 272.238156 
L 66.671881 270.114022 
L 65.694018 266.927822 
L 64.943894 263.741621 
L 64.195012 259.493353 
L 63.510432 254.183019 
L 62.818068 246.74855 
L 62.04067 235.065814 
L 61.269291 220.196877 
L 60.49418 201.079673 
L 59.791666 177.714201 
L 59.158557 149.038394 
L 58.538551 110.803985 
L 57.94148 58.762706 
L 57.972197 55.576506 
L 57.972197 55.576506 
" style="fill:none;stroke:#000080;stroke-width:1.5;"/>
   </g>
   <g id="LineCollection_2">
    <path clip-path="url(#p28708072d2)" d="M 287.231976 293.479494 
L 287.562711 291.355361 
L 287.919129 289.231227 
L 288.082492 287.107093 
L 288.023691 283.920892 
L 287.570538 278.610558 
L 285.913465 262.679554 
L 283.820253 246.96846 
L 282.274657 239.314082 
L 281.426612 236.127881 
L 280.285768 232.94168 
L 279.226485 230.817546 
L 278.509918 229.694961 
L 277.447851 228.545371 
L 276.0646 227.631346 
L 275.323717 227.294283 
L 274.261651 227.004804 
L 272.137517 226.786177 
L 268.951316 226.858133 
L 259.392714 227.282763 
L 249.834112 227.407315 
L 209.475569 227.738899 
L 195.668699 228.187856 
L 179.737695 228.710869 
L 171.24116 228.74315 
L 163.806691 228.546907 
L 154.248089 228.048457 
L 136.192952 227.049208 
L 118.137814 226.19978 
L 110.520049 225.507212 
L 106.455078 225.176667 
L 103.268877 225.145162 
L 101.144743 225.354718 
L 99.02061 225.852915 
L 96.896476 226.737781 
L 95.449498 227.631346 
L 94.100873 228.693413 
L 92.648208 230.117118 
L 91.209348 231.879613 
L 89.759786 234.003747 
L 88.399941 236.341512 
L 86.911165 239.314082 
L 85.037917 243.562349 
L 82.743173 248.872684 
L 81.595892 250.996818 
L 80.857256 252.058885 
L 79.741087 253.120952 
L 78.841338 253.597871 
L 77.779271 253.715008 
L 76.717204 253.420393 
L 75.655138 252.730411 
L 74.593071 251.635348 
L 73.446365 249.934751 
L 72.367001 247.810617 
L 71.146253 244.624416 
L 69.900091 240.376149 
L 68.906023 236.127881 
L 67.888631 230.817546 
L 66.73673 223.383078 
L 65.67432 214.886543 
L 64.609661 204.265874 
L 63.595343 191.521071 
L 62.594346 175.590067 
L 61.601256 155.410796 
L 60.627159 129.92119 
L 59.724134 99.045348 
L 58.823552 58.762706 
L 58.889503 55.576506 
L 58.889503 55.576506 
" style="fill:none;stroke:#0000e8;stroke-width:1.5;"/>
   </g>
   <g id="LineCollection_3">
    <path clip-path="url(#p28708072d2)" d="M 290.59487 293.479494 
L 290.96242 287.107093 
L 290.81384 282.858825 
L 289.984236 270.114022 
L 286.996095 228.693413 
L 285.49735 214.886543 
L 284.439017 207.452074 
L 283.473481 202.14174 
L 282.470442 197.893472 
L 281.462227 194.707271 
L 280.555945 192.583138 
L 279.571985 190.978332 
L 278.509918 189.897088 
L 277.447851 189.314136 
L 276.385784 189.099117 
L 275.323717 189.143046 
L 273.199584 189.679519 
L 266.827182 191.808686 
L 263.640981 192.452327 
L 260.454781 192.809548 
L 256.206513 193.002497 
L 248.772045 193.027596 
L 220.096238 192.994508 
L 155.310156 193.109082 
L 137.255019 193.354704 
L 124.510216 193.51021 
L 119.199881 193.355299 
L 113.889546 192.951563 
L 107.517145 192.189469 
L 102.20681 191.591053 
L 99.02061 191.452099 
L 96.896476 191.543683 
L 94.772342 191.852032 
L 92.648208 192.445886 
L 90.524074 193.404755 
L 88.531767 194.707271 
L 87.248246 195.769338 
L 85.151467 197.893472 
L 82.536824 201.079673 
L 79.903405 204.381808 
L 78.841338 205.524149 
L 77.779271 206.440023 
L 76.717204 207.045418 
L 75.655138 207.252791 
L 74.593071 206.976754 
L 73.531004 206.129036 
L 72.304627 204.265874 
L 71.338586 202.14174 
L 70.012655 197.893472 
L 69.007397 193.645204 
L 67.840491 187.272803 
L 66.766276 179.838335 
L 65.662341 170.279732 
L 64.578034 158.596996 
L 63.539705 144.790126 
L 62.504558 127.797056 
L 61.471421 106.555717 
L 60.360561 77.879911 
L 59.754456 58.762706 
L 59.868058 55.576506 
L 59.868058 55.576506 
" style="fill:none;stroke:#0038ff;stroke-width:1.5;"/>
   </g>
   <g id="LineCollection_4">
    <path clip-path="url(#p28708072d2)" d="M 292.659912 293.479494 
L 292.757273 284.982959 
L 292.316788 274.855757 
L 291.277282 253.120952 
L 290.216287 231.879613 
L 289.405467 218.072743 
L 288.459518 204.265874 
L 287.491386 192.583138 
L 286.520677 183.024535 
L 285.59033 175.590067 
L 284.587687 169.217665 
L 283.491304 163.907331 
L 282.644363 160.72113 
L 281.429242 157.534929 
L 280.634052 156.019833 
L 279.571985 154.778919 
L 278.509918 154.172459 
L 277.447851 154.063399 
L 276.347368 154.348729 
L 275.323717 154.864149 
L 273.097866 156.472862 
L 268.951316 159.671742 
L 266.827182 160.966557 
L 264.703048 161.94578 
L 262.578914 162.632488 
L 260.454781 163.074261 
L 258.330647 163.32583 
L 255.144446 163.457301 
L 249.834112 163.352054 
L 239.213442 163.06996 
L 227.530706 163.069306 
L 204.165234 163.043841 
L 123.448149 162.837844 
L 107.517145 162.755768 
L 95.834409 162.638801 
L 92.648208 162.863607 
L 90.524074 163.186692 
L 88.399941 163.70636 
L 86.275807 164.474391 
L 84.151673 165.523622 
L 81.645738 167.093532 
L 78.414797 169.217665 
L 77.779271 169.575325 
L 76.717204 169.995834 
L 75.655138 170.151671 
L 74.593071 169.939898 
L 73.50853 169.217665 
L 72.468937 167.948077 
L 71.40687 165.918405 
L 70.009668 161.783197 
L 68.955651 157.534929 
L 67.928072 152.224595 
L 66.798405 144.790126 
L 65.650507 135.231524 
L 64.623327 124.610855 
L 63.545676 110.803985 
L 62.481522 93.810914 
L 60.811754 61.948907 
L 60.805947 58.762706 
L 60.979504 55.576506 
L 60.979504 55.576506 
" style="fill:none;stroke:#0094ff;stroke-width:1.5;"/>
   </g>
   <g id="LineCollection_5">
    <path clip-path="url(#p28708072d2)" d="M 294.295808 293.479494 
L 294.164827 280.734691 
L 292.664105 239.314082 
L 291.558783 212.762409 
L 290.591071 193.645204 
L 289.609699 177.714201 
L 288.645198 164.969398 
L 287.648704 154.348729 
L 286.649031 145.852193 
L 285.521564 138.417725 
L 284.465366 133.10739 
L 283.666529 129.92119 
L 282.593265 126.734989 
L 281.582693 124.610855 
L 280.634052 123.264613 
L 279.571985 122.436125 
L 278.509918 122.174335 
L 277.237193 122.486721 
L 276.385784 122.942599 
L 275.323717 123.793933 
L 273.199584 126.042239 
L 268.951316 131.033435 
L 266.827182 133.144369 
L 264.703048 134.814555 
L 262.578914 136.033308 
L 260.454781 136.843745 
L 258.330647 137.309954 
L 256.206513 137.502946 
L 254.082379 137.488731 
L 250.896178 137.208786 
L 237.089309 135.509817 
L 232.841041 135.357338 
L 227.530706 135.39822 
L 202.0411 135.947595 
L 155.310156 136.073264 
L 90.524074 136.446788 
L 87.337874 136.758189 
L 84.029845 137.355658 
L 80.965472 138.176524 
L 77.779271 139.033166 
L 76.717204 139.173506 
L 75.655138 139.142069 
L 74.593071 138.851969 
L 73.531004 138.197182 
L 72.468937 137.054927 
L 71.385023 135.231524 
L 70.137873 132.045323 
L 68.958989 127.797056 
L 67.857362 122.486721 
L 66.82918 116.11432 
L 65.750597 107.617784 
L 64.58847 95.935048 
L 63.484257 82.128178 
L 62.105455 61.948907 
L 62.131291 58.762706 
L 62.364086 55.576506 
L 62.364086 55.576506 
" style="fill:none;stroke:#0cf4eb;stroke-width:1.5;"/>
   </g>
   <g id="LineCollection_6">
    <path clip-path="url(#p28708072d2)" d="M 295.897909 293.479494 
L 295.740832 281.796758 
L 294.915017 254.183019 
L 293.653811 213.824476 
L 292.623701 187.272803 
L 291.65287 167.093532 
L 290.699747 151.162528 
L 289.747853 138.417725 
L 288.747231 127.797056 
L 287.729659 119.30052 
L 286.58126 111.866052 
L 285.520869 106.555717 
L 284.414024 102.30745 
L 283.736661 100.183316 
L 282.758186 97.815942 
L 281.655645 95.935048 
L 280.634052 94.764874 
L 279.571985 94.084104 
L 278.509918 93.883787 
L 277.447851 94.122525 
L 276.271906 94.872981 
L 275.183685 95.935048 
L 273.542337 98.059182 
L 272.106819 100.183316 
L 268.951316 104.893031 
L 266.827182 107.647655 
L 264.703048 109.901993 
L 262.578914 111.631848 
L 261.516848 112.305457 
L 259.392714 113.299728 
L 257.26858 113.877152 
L 255.144446 114.11294 
L 253.020312 114.08615 
L 249.834112 113.719029 
L 244.523777 112.737942 
L 239.213442 111.796932 
L 233.903108 111.118019 
L 228.592773 110.704677 
L 222.220372 110.484922 
L 214.785903 110.469169 
L 204.165234 110.680891 
L 171.24116 111.484974 
L 149.999822 111.64042 
L 112.82748 111.920062 
L 90.524074 112.295795 
L 84.151673 112.628902 
L 78.841338 112.963016 
L 76.717204 112.826891 
L 75.655138 112.570953 
L 74.263445 111.866052 
L 73.531004 111.333328 
L 72.225276 109.741918 
L 71.40687 108.390096 
L 70.218161 105.493651 
L 68.997885 101.245383 
L 67.876533 95.935048 
L 66.841548 89.562647 
L 65.634321 80.004045 
L 64.30157 67.259242 
L 63.958069 63.010974 
L 63.95283 59.824773 
L 64.173777 57.700639 
L 64.374168 55.576506 
L 64.374168 55.576506 
" style="fill:none;stroke:#56ffa0;stroke-width:1.5;"/>
   </g>
   <g id="LineCollection_7">
    <path clip-path="url(#p28708072d2)" d="M 301.668669 293.479494 
L 301.523102 286.045026 
L 301.175499 279.672625 
L 300.460873 271.176089 
L 299.121694 258.431286 
L 296.867474 239.314082 
L 296.533823 236.127881 
L 295.122586 200.017606 
L 294.097736 170.279732 
L 293.119418 147.976327 
L 292.096059 129.92119 
L 291.079309 116.11432 
L 289.973117 104.431584 
L 288.936428 95.935048 
L 287.889302 89.562647 
L 286.937842 85.314379 
L 285.944387 82.03374 
L 284.628122 78.941978 
L 283.368339 76.817844 
L 282.563202 75.755777 
L 281.546578 74.69371 
L 280.158098 73.631643 
L 279.571985 73.274289 
L 277.927527 72.569576 
L 276.385784 72.191615 
L 274.261651 72.043537 
L 272.137517 72.245633 
L 270.013383 72.75927 
L 267.76271 73.631643 
L 265.765115 74.710008 
L 263.640981 76.222085 
L 261.76492 77.879911 
L 259.845258 80.004045 
L 257.507032 83.190245 
L 255.317136 86.376446 
L 254.082379 87.939696 
L 252.454345 89.562647 
L 250.896178 90.719871 
L 248.772045 91.808533 
L 246.647911 92.511903 
L 244.523777 92.955415 
L 241.337576 93.288458 
L 238.151375 93.357763 
L 233.903108 93.181598 
L 228.592773 92.687479 
L 220.996224 91.686781 
L 206.289368 89.65736 
L 198.8549 88.908907 
L 191.420431 88.420395 
L 182.923896 88.111706 
L 162.744625 87.733062 
L 148.937755 87.316597 
L 134.068818 86.631075 
L 116.01368 85.566386 
L 97.261528 84.252312 
L 83.089606 83.049279 
L 79.903405 82.630075 
L 77.659483 82.128178 
L 76.717204 81.805294 
L 75.292264 81.066112 
L 74.593071 80.592963 
L 73.531004 79.576977 
L 72.341439 77.879911 
L 71.295525 75.755777 
L 70.200742 72.569576 
L 69.196101 68.321309 
L 68.778441 65.135108 
L 68.673437 63.010974 
L 68.809887 60.88684 
L 69.526474 56.638572 
L 69.47855 55.576506 
L 69.47855 55.576506 
" style="fill:none;stroke:#a0ff56;stroke-width:1.5;"/>
   </g>
   <g id="LineCollection_8">
    <path clip-path="url(#p28708072d2)" d="M 309.036483 293.479494 
L 308.89676 284.982959 
L 308.521302 276.486424 
L 307.800829 265.865755 
L 306.624389 252.058885 
L 304.759381 232.94168 
L 302.679943 213.824476 
L 300.492547 195.769338 
L 298.336205 179.838335 
L 296.459007 166.031465 
L 294.96624 136.293591 
L 294.068817 118.238454 
L 293.125836 103.369517 
L 292.25241 92.748848 
L 291.523039 86.376446 
L 290.863884 82.128178 
L 289.959657 77.879911 
L 289.003815 74.69371 
L 288.06852 72.406616 
L 286.984124 70.445442 
L 285.944387 69.046069 
L 284.88232 67.948239 
L 283.820253 67.09298 
L 282.322334 66.197175 
L 280.634052 65.469763 
L 278.509918 64.862098 
L 276.385784 64.491242 
L 273.199584 64.239165 
L 270.013383 64.245156 
L 265.765115 64.527959 
L 260.454781 65.177068 
L 250.896178 66.364589 
L 247.709978 66.501133 
L 244.523777 66.364342 
L 242.399643 66.048677 
L 240.275509 65.476389 
L 239.213442 65.092783 
L 237.089309 63.901059 
L 236.017448 63.010974 
L 234.965175 61.587844 
L 234.596389 60.88684 
L 234.272115 59.824773 
L 234.125923 58.762706 
L 234.174085 56.638572 
L 234.275499 55.576506 
L 234.275499 55.576506 
" style="fill:none;stroke:#ebff0c;stroke-width:1.5;"/>
   </g>
   <g id="LineCollection_9">
    <path clip-path="url(#p28708072d2)" d="M 316.589812 293.479494 
L 316.468863 283.920892 
L 316.099551 273.300223 
L 315.412546 260.55542 
L 314.252491 243.562349 
L 312.568288 222.321011 
L 310.751432 202.14174 
L 308.912428 184.086602 
L 307.073247 168.155599 
L 305.26408 154.348729 
L 303.363314 141.603926 
L 301.563054 130.983257 
L 299.732331 121.424654 
L 297.901577 112.928119 
L 296.502525 106.555717 
L 294.172696 80.004045 
L 293.385834 74.69371 
L 292.70299 71.507509 
L 292.099871 69.383375 
L 291.254721 67.162157 
L 290.160312 65.135108 
L 289.130587 63.74078 
L 288.06852 62.618359 
L 285.944387 60.918744 
L 282.701242 58.762706 
L 281.410017 57.700639 
L 280.613442 56.638572 
L 280.235374 55.576506 
L 280.235374 55.576506 
" style="fill:none;stroke:#ffab00;stroke-width:1.5;"/>
   </g>
   <g id="LineCollection_10">
    <path clip-path="url(#p28708072d2)" d="M 324.279668 293.479494 
L 324.163351 281.796758 
L 323.817487 269.051955 
L 323.116729 252.260164 
L 321.994853 230.817546 
L 320.561598 207.452074 
L 318.970677 185.148669 
L 317.38073 166.031465 
L 315.834555 150.100461 
L 314.274012 136.293591 
L 312.743211 124.610855 
L 311.137161 113.990186 
L 309.469505 104.431584 
L 307.756424 95.935048 
L 306.016575 88.50058 
L 304.278618 82.128178 
L 302.589801 76.817844 
L 300.813323 72.044903 
L 299.180892 68.321309 
L 297.531223 65.135108 
L 296.565056 63.520098 
L 295.220688 57.700639 
L 294.97318 55.576506 
L 294.97318 55.576506 
" style="fill:none;stroke:#ff5500;stroke-width:1.5;"/>
   </g>
   <g id="LineCollection_11">
    <path clip-path="url(#p28708072d2)" d="M 332.062465 293.479494 
L 331.942249 277.548491 
L 331.571205 259.493353 
L 330.756024 231.879613 
L 329.69748 203.203807 
L 328.507751 176.652134 
L 327.293792 154.348729 
L 326.093924 136.293591 
L 324.899479 121.424654 
L 323.566434 107.617784 
L 322.103986 94.872981 
L 320.284269 81.066112 
L 318.785745 69.383375 
L 318.193957 63.010974 
L 317.952456 57.700639 
L 317.934784 55.576506 
L 317.934784 55.576506 
" style="fill:none;stroke:#e80000;stroke-width:1.5;"/>
   </g>
   <g id="LineCollection_12">
    <path clip-path="url(#p28708072d2)" d="M 339.899144 293.479494 
L 339.786018 266.927822 
L 338.73885 177.714201 
L 338.051589 141.603926 
L 337.383607 116.11432 
L 336.24934 85.314379 
L 335.65743 69.383375 
L 335.467602 58.762706 
L 335.457832 55.576506 
L 335.457832 55.576506 
" style="fill:none;stroke:#800000;stroke-width:1.5;"/>
   </g>
   <g id="patch_3">
    <path d="M 57.6 293.479494 
L 57.6 55.576506 
" style="fill:none;stroke:#000000;stroke-linecap:square;stroke-linejoin:miter;stroke-width:0.8;"/>
   </g>
   <g id="patch_4">
    <path d="M 343.296 293.479494 
L 343.296 55.576506 
" style="fill:none;stroke:#000000;stroke-linecap:square;stroke-linejoin:miter;stroke-width:0.8;"/>
   </g>
   <g id="patch_5">
    <path d="M 57.6 293.479494 
L 343.296 293.479494 
" style="fill:none;stroke:#000000;stroke-linecap:square;stroke-linejoin:miter;stroke-width:0.8;"/>
   </g>
   <g id="patch_6">
    <path d="M 57.6 55.576506 
L 343.296 55.576506 
" style="fill:none;stroke:#000000;stroke-linecap:square;stroke-linejoin:miter;stroke-width:0.8;"/>
   </g>
   <g id="text_10">
    <!-- Time:0.06914 s -->
    <defs>
     <path d="M -0.296875 72.90625 
L 61.375 72.90625 
L 61.375 64.59375 
L 35.5 64.59375 
L 35.5 0 
L 25.59375 0 
L 25.59375 64.59375 
L -0.296875 64.59375 
z
" id="DejaVuSans-54"/>
     <path d="M 9.421875 54.6875 
L 18.40625 54.6875 
L 18.40625 0 
L 9.421875 0 
z
M 9.421875 75.984375 
L 18.40625 75.984375 
L 18.40625 64.59375 
L 9.421875 64.59375 
z
" id="DejaVuSans-69"/>
     <path d="M 52 44.1875 
Q 55.375 50.25 60.0625 53.125 
Q 64.75 56 71.09375 56 
Q 79.640625 56 84.28125 50.015625 
Q 88.921875 44.046875 88.921875 33.015625 
L 88.921875 0 
L 79.890625 0 
L 79.890625 32.71875 
Q 79.890625 40.578125 77.09375 44.375 
Q 74.3125 48.1875 68.609375 48.1875 
Q 61.625 48.1875 57.5625 43.546875 
Q 53.515625 38.921875 53.515625 30.90625 
L 53.515625 0 
L 44.484375 0 
L 44.484375 32.71875 
Q 44.484375 40.625 41.703125 44.40625 
Q 38.921875 48.1875 33.109375 48.1875 
Q 26.21875 48.1875 22.15625 43.53125 
Q 18.109375 38.875 18.109375 30.90625 
L 18.109375 0 
L 9.078125 0 
L 9.078125 54.6875 
L 18.109375 54.6875 
L 18.109375 46.1875 
Q 21.1875 51.21875 25.484375 53.609375 
Q 29.78125 56 35.6875 56 
Q 41.65625 56 45.828125 52.96875 
Q 50 49.953125 52 44.1875 
z
" id="DejaVuSans-6d"/>
     <path d="M 56.203125 29.59375 
L 56.203125 25.203125 
L 14.890625 25.203125 
Q 15.484375 15.921875 20.484375 11.0625 
Q 25.484375 6.203125 34.421875 6.203125 
Q 39.59375 6.203125 44.453125 7.46875 
Q 49.3125 8.734375 54.109375 11.28125 
L 54.109375 2.78125 
Q 49.265625 0.734375 44.1875 -0.34375 
Q 39.109375 -1.421875 33.890625 -1.421875 
Q 20.796875 -1.421875 13.15625 6.1875 
Q 5.515625 13.8125 5.515625 26.8125 
Q 5.515625 40.234375 12.765625 48.109375 
Q 20.015625 56 32.328125 56 
Q 43.359375 56 49.78125 48.890625 
Q 56.203125 41.796875 56.203125 29.59375 
z
M 47.21875 32.234375 
Q 47.125 39.59375 43.09375 43.984375 
Q 39.0625 48.390625 32.421875 48.390625 
Q 24.90625 48.390625 20.390625 44.140625 
Q 15.875 39.890625 15.1875 32.171875 
z
" id="DejaVuSans-65"/>
     <path d="M 11.71875 12.40625 
L 22.015625 12.40625 
L 22.015625 0 
L 11.71875 0 
z
M 11.71875 51.703125 
L 22.015625 51.703125 
L 22.015625 39.3125 
L 11.71875 39.3125 
z
" id="DejaVuSans-3a"/>
     <path d="M 10.984375 1.515625 
L 10.984375 10.5 
Q 14.703125 8.734375 18.5 7.8125 
Q 22.3125 6.890625 25.984375 6.890625 
Q 35.75 6.890625 40.890625 13.453125 
Q 46.046875 20.015625 46.78125 33.40625 
Q 43.953125 29.203125 39.59375 26.953125 
Q 35.25 24.703125 29.984375 24.703125 
Q 19.046875 24.703125 12.671875 31.3125 
Q 6.296875 37.9375 6.296875 49.421875 
Q 6.296875 60.640625 12.9375 67.421875 
Q 19.578125 74.21875 30.609375 74.21875 
Q 43.265625 74.21875 49.921875 64.515625 
Q 56.59375 54.828125 56.59375 36.375 
Q 56.59375 19.140625 48.40625 8.859375 
Q 40.234375 -1.421875 26.421875 -1.421875 
Q 22.703125 -1.421875 18.890625 -0.6875 
Q 15.09375 0.046875 10.984375 1.515625 
z
M 30.609375 32.421875 
Q 37.25 32.421875 41.125 36.953125 
Q 45.015625 41.5 45.015625 49.421875 
Q 45.015625 57.28125 41.125 61.84375 
Q 37.25 66.40625 30.609375 66.40625 
Q 23.96875 66.40625 20.09375 61.84375 
Q 16.21875 57.28125 16.21875 49.421875 
Q 16.21875 41.5 20.09375 36.953125 
Q 23.96875 32.421875 30.609375 32.421875 
z
" id="DejaVuSans-39"/>
     <path id="DejaVuSans-20"/>
     <path d="M 44.28125 53.078125 
L 44.28125 44.578125 
Q 40.484375 46.53125 36.375 47.5 
Q 32.28125 48.484375 27.875 48.484375 
Q 21.1875 48.484375 17.84375 46.4375 
Q 14.5 44.390625 14.5 40.28125 
Q 14.5 37.15625 16.890625 35.375 
Q 19.28125 33.59375 26.515625 31.984375 
L 29.59375 31.296875 
Q 39.15625 29.25 43.1875 25.515625 
Q 47.21875 21.78125 47.21875 15.09375 
Q 47.21875 7.46875 41.1875 3.015625 
Q 35.15625 -1.421875 24.609375 -1.421875 
Q 20.21875 -1.421875 15.453125 -0.5625 
Q 10.6875 0.296875 5.421875 2 
L 5.421875 11.28125 
Q 10.40625 8.6875 15.234375 7.390625 
Q 20.0625 6.109375 24.8125 6.109375 
Q 31.15625 6.109375 34.5625 8.28125 
Q 37.984375 10.453125 37.984375 14.40625 
Q 37.984375 18.0625 35.515625 20.015625 
Q 33.0625 21.96875 24.703125 23.78125 
L 21.578125 24.515625 
Q 13.234375 26.265625 9.515625 29.90625 
Q 5.8125 33.546875 5.8125 39.890625 
Q 5.8125 47.609375 11.28125 51.796875 
Q 16.75 56 26.8125 56 
Q 31.78125 56 36.171875 55.265625 
Q 40.578125 54.546875 44.28125 53.078125 
z
" id="DejaVuSans-73"/>
    </defs>
    <g transform="translate(153.717375 49.576506)scale(0.12 -0.12)">
     <use xlink:href="#DejaVuSans-54"/>
     <use x="61.037109" xlink:href="#DejaVuSans-69"/>
     <use x="88.820312" xlink:href="#DejaVuSans-6d"/>
     <use x="186.232422" xlink:href="#DejaVuSans-65"/>
     <use x="247.755859" xlink:href="#DejaVuSans-3a"/>
     <use x="281.447266" xlink:href="#DejaVuSans-30"/>
     <use x="345.070312" xlink:href="#DejaVuSans-2e"/>
     <use x="376.857422" xlink:href="#DejaVuSans-30"/>
     <use x="440.480469" xlink:href="#DejaVuSans-36"/>
     <use x="504.103516" xlink:href="#DejaVuSans-39"/>
     <use x="567.726562" xlink:href="#DejaVuSans-31"/>
     <use x="631.349609" xlink:href="#DejaVuSans-34"/>
     <use x="694.972656" xlink:href="#DejaVuSans-20"/>
     <use x="726.759766" xlink:href="#DejaVuSans-73"/>
    </g>
   </g>
  </g>
  <g id="axes_2">
   <g id="patch_7">
    <path clip-path="url(#p692a1dc3c6)" d="M 361.152 307.584 
L 361.152 283.392 
L 361.152 65.664 
L 361.152 41.472 
L 374.4576 41.472 
L 374.4576 65.664 
L 374.4576 283.392 
L 374.4576 307.584 
z
" style="fill:#ffffff;stroke:#ffffff;stroke-linejoin:miter;stroke-width:0.01;"/>
   </g>
   <g id="matplotlib.axis_3"/>
   <g id="matplotlib.axis_4">
    <g id="ytick_5">
     <g id="line2d_10">
      <defs>
       <path d="M 0 0 
L 3.5 0 
" id="m0496aea932" style="stroke:#000000;stroke-width:0.8;"/>
      </defs>
      <g>
       <use style="stroke:#000000;stroke-width:0.8;" x="374.4576" xlink:href="#m0496aea932" y="307.584"/>
      </g>
     </g>
     <g id="text_11">
      <!-- 0.08 -->
      <g transform="translate(381.4576 311.383219)scale(0.1 -0.1)">
       <use xlink:href="#DejaVuSans-30"/>
       <use x="63.623047" xlink:href="#DejaVuSans-2e"/>
       <use x="95.410156" xlink:href="#DejaVuSans-30"/>
       <use x="159.033203" xlink:href="#DejaVuSans-38"/>
      </g>
     </g>
    </g>
    <g id="ytick_6">
     <g id="line2d_11">
      <g>
       <use style="stroke:#000000;stroke-width:0.8;" x="374.4576" xlink:href="#m0496aea932" y="259.2"/>
      </g>
     </g>
     <g id="text_12">
      <!-- 0.24 -->
      <g transform="translate(381.4576 262.999219)scale(0.1 -0.1)">
       <use xlink:href="#DejaVuSans-30"/>
       <use x="63.623047" xlink:href="#DejaVuSans-2e"/>
       <use x="95.410156" xlink:href="#DejaVuSans-32"/>
       <use x="159.033203" xlink:href="#DejaVuSans-34"/>
      </g>
     </g>
    </g>
    <g id="ytick_7">
     <g id="line2d_12">
      <g>
       <use style="stroke:#000000;stroke-width:0.8;" x="374.4576" xlink:href="#m0496aea932" y="210.816"/>
      </g>
     </g>
     <g id="text_13">
      <!-- 0.40 -->
      <g transform="translate(381.4576 214.615219)scale(0.1 -0.1)">
       <use xlink:href="#DejaVuSans-30"/>
       <use x="63.623047" xlink:href="#DejaVuSans-2e"/>
       <use x="95.410156" xlink:href="#DejaVuSans-34"/>
       <use x="159.033203" xlink:href="#DejaVuSans-30"/>
      </g>
     </g>
    </g>
    <g id="ytick_8">
     <g id="line2d_13">
      <g>
       <use style="stroke:#000000;stroke-width:0.8;" x="374.4576" xlink:href="#m0496aea932" y="162.432"/>
      </g>
     </g>
     <g id="text_14">
      <!-- 0.56 -->
      <defs>
       <path d="M 10.796875 72.90625 
L 49.515625 72.90625 
L 49.515625 64.59375 
L 19.828125 64.59375 
L 19.828125 46.734375 
Q 21.96875 47.46875 24.109375 47.828125 
Q 26.265625 48.1875 28.421875 48.1875 
Q 40.625 48.1875 47.75 41.5 
Q 54.890625 34.8125 54.890625 23.390625 
Q 54.890625 11.625 47.5625 5.09375 
Q 40.234375 -1.421875 26.90625 -1.421875 
Q 22.3125 -1.421875 17.546875 -0.640625 
Q 12.796875 0.140625 7.71875 1.703125 
L 7.71875 11.625 
Q 12.109375 9.234375 16.796875 8.0625 
Q 21.484375 6.890625 26.703125 6.890625 
Q 35.15625 6.890625 40.078125 11.328125 
Q 45.015625 15.765625 45.015625 23.390625 
Q 45.015625 31 40.078125 35.4375 
Q 35.15625 39.890625 26.703125 39.890625 
Q 22.75 39.890625 18.8125 39.015625 
Q 14.890625 38.140625 10.796875 36.28125 
z
" id="DejaVuSans-35"/>
      </defs>
      <g transform="translate(381.4576 166.231219)scale(0.1 -0.1)">
       <use xlink:href="#DejaVuSans-30"/>
       <use x="63.623047" xlink:href="#DejaVuSans-2e"/>
       <use x="95.410156" xlink:href="#DejaVuSans-35"/>
       <use x="159.033203" xlink:href="#DejaVuSans-36"/>
      </g>
     </g>
    </g>
    <g id="ytick_9">
     <g id="line2d_14">
      <g>
       <use style="stroke:#000000;stroke-width:0.8;" x="374.4576" xlink:href="#m0496aea932" y="114.048"/>
      </g>
     </g>
     <g id="text_15">
      <!-- 0.72 -->
      <defs>
       <path d="M 8.203125 72.90625 
L 55.078125 72.90625 
L 55.078125 68.703125 
L 28.609375 0 
L 18.3125 0 
L 43.21875 64.59375 
L 8.203125 64.59375 
z
" id="DejaVuSans-37"/>
      </defs>
      <g transform="translate(381.4576 117.847219)scale(0.1 -0.1)">
       <use xlink:href="#DejaVuSans-30"/>
       <use x="63.623047" xlink:href="#DejaVuSans-2e"/>
       <use x="95.410156" xlink:href="#DejaVuSans-37"/>
       <use x="159.033203" xlink:href="#DejaVuSans-32"/>
      </g>
     </g>
    </g>
    <g id="ytick_10">
     <g id="line2d_15">
      <g>
       <use style="stroke:#000000;stroke-width:0.8;" x="374.4576" xlink:href="#m0496aea932" y="65.664"/>
      </g>
     </g>
     <g id="text_16">
      <!-- 0.88 -->
      <g transform="translate(381.4576 69.463219)scale(0.1 -0.1)">
       <use xlink:href="#DejaVuSans-30"/>
       <use x="63.623047" xlink:href="#DejaVuSans-2e"/>
       <use x="95.410156" xlink:href="#DejaVuSans-38"/>
       <use x="159.033203" xlink:href="#DejaVuSans-38"/>
      </g>
     </g>
    </g>
   </g>
   <g id="LineCollection_13">
    <path clip-path="url(#p692a1dc3c6)" d="M 361.152 307.584 
L 374.4576 307.584 
" style="fill:none;stroke:#000080;stroke-width:1.5;"/>
    <path clip-path="url(#p692a1dc3c6)" d="M 361.152 283.392 
L 374.4576 283.392 
" style="fill:none;stroke:#0000e8;stroke-width:1.5;"/>
    <path clip-path="url(#p692a1dc3c6)" d="M 361.152 259.2 
L 374.4576 259.2 
" style="fill:none;stroke:#0038ff;stroke-width:1.5;"/>
    <path clip-path="url(#p692a1dc3c6)" d="M 361.152 235.008 
L 374.4576 235.008 
" style="fill:none;stroke:#0094ff;stroke-width:1.5;"/>
    <path clip-path="url(#p692a1dc3c6)" d="M 361.152 210.816 
L 374.4576 210.816 
" style="fill:none;stroke:#0cf4eb;stroke-width:1.5;"/>
    <path clip-path="url(#p692a1dc3c6)" d="M 361.152 186.624 
L 374.4576 186.624 
" style="fill:none;stroke:#56ffa0;stroke-width:1.5;"/>
    <path clip-path="url(#p692a1dc3c6)" d="M 361.152 162.432 
L 374.4576 162.432 
" style="fill:none;stroke:#a0ff56;stroke-width:1.5;"/>
    <path clip-path="url(#p692a1dc3c6)" d="M 361.152 138.24 
L 374.4576 138.24 
" style="fill:none;stroke:#ebff0c;stroke-width:1.5;"/>
    <path clip-path="url(#p692a1dc3c6)" d="M 361.152 114.048 
L 374.4576 114.048 
" style="fill:none;stroke:#ffab00;stroke-width:1.5;"/>
    <path clip-path="url(#p692a1dc3c6)" d="M 361.152 89.856 
L 374.4576 89.856 
" style="fill:none;stroke:#ff5500;stroke-width:1.5;"/>
    <path clip-path="url(#p692a1dc3c6)" d="M 361.152 65.664 
L 374.4576 65.664 
" style="fill:none;stroke:#e80000;stroke-width:1.5;"/>
    <path clip-path="url(#p692a1dc3c6)" d="M 361.152 41.472 
L 374.4576 41.472 
" style="fill:none;stroke:#800000;stroke-width:1.5;"/>
   </g>
   <g id="patch_8">
    <path d="M 361.152 307.584 
L 361.152 283.392 
L 361.152 65.664 
L 361.152 41.472 
L 374.4576 41.472 
L 374.4576 65.664 
L 374.4576 283.392 
L 374.4576 307.584 
z
" style="fill:none;stroke:#000000;stroke-linejoin:miter;stroke-width:0.8;"/>
   </g>
  </g>
 </g>
 <defs>
  <clipPath id="p28708072d2">
   <rect height="237.902989" width="285.696" x="57.6" y="55.576506"/>
  </clipPath>
  <clipPath id="p692a1dc3c6">
   <rect height="266.112" width="13.3056" x="361.152" y="41.472"/>
  </clipPath>
 </defs>
</svg>
