<?xml version="1.0" encoding="utf-8" standalone="no"?>
<!DOCTYPE svg PUBLIC "-//W3C//DTD SVG 1.1//EN"
  "http://www.w3.org/Graphics/SVG/1.1/DTD/svg11.dtd">
<!-- Created with matplotlib (http://matplotlib.org/) -->
<svg height="345.6pt" version="1.1" viewBox="0 0 460.8 345.6" width="460.8pt" xmlns="http://www.w3.org/2000/svg" xmlns:xlink="http://www.w3.org/1999/xlink">
 <defs>
  <style type="text/css">
*{stroke-linecap:butt;stroke-linejoin:round;}
  </style>
 </defs>
 <g id="figure_1">
  <g id="patch_1">
   <path d="M 0 345.6 
L 460.8 345.6 
L 460.8 0 
L 0 0 
z
" style="fill:#ffffff;"/>
  </g>
  <g id="axes_1">
   <g id="patch_2">
    <path d="M 57.6 293.479494 
L 343.296 293.479494 
L 343.296 55.576506 
L 57.6 55.576506 
z
" style="fill:#ffffff;"/>
   </g>
   <g id="matplotlib.axis_1">
    <g id="xtick_1">
     <g id="line2d_1">
      <defs>
       <path d="M 0 0 
L 0 3.5 
" id="mb943c79467" style="stroke:#000000;stroke-width:0.8;"/>
      </defs>
      <g>
       <use style="stroke:#000000;stroke-width:0.8;" x="104.861978" xlink:href="#mb943c79467" y="293.479494"/>
      </g>
     </g>
     <g id="text_1">
      <!-- 0.2 -->
      <defs>
       <path d="M 31.78125 66.40625 
Q 24.171875 66.40625 20.328125 58.90625 
Q 16.5 51.421875 16.5 36.375 
Q 16.5 21.390625 20.328125 13.890625 
Q 24.171875 6.390625 31.78125 6.390625 
Q 39.453125 6.390625 43.28125 13.890625 
Q 47.125 21.390625 47.125 36.375 
Q 47.125 51.421875 43.28125 58.90625 
Q 39.453125 66.40625 31.78125 66.40625 
z
M 31.78125 74.21875 
Q 44.046875 74.21875 50.515625 64.515625 
Q 56.984375 54.828125 56.984375 36.375 
Q 56.984375 17.96875 50.515625 8.265625 
Q 44.046875 -1.421875 31.78125 -1.421875 
Q 19.53125 -1.421875 13.0625 8.265625 
Q 6.59375 17.96875 6.59375 36.375 
Q 6.59375 54.828125 13.0625 64.515625 
Q 19.53125 74.21875 31.78125 74.21875 
z
" id="DejaVuSans-30"/>
       <path d="M 10.6875 12.40625 
L 21 12.40625 
L 21 0 
L 10.6875 0 
z
" id="DejaVuSans-2e"/>
       <path d="M 19.1875 8.296875 
L 53.609375 8.296875 
L 53.609375 0 
L 7.328125 0 
L 7.328125 8.296875 
Q 12.9375 14.109375 22.625 23.890625 
Q 32.328125 33.6875 34.8125 36.53125 
Q 39.546875 41.84375 41.421875 45.53125 
Q 43.3125 49.21875 43.3125 52.78125 
Q 43.3125 58.59375 39.234375 62.25 
Q 35.15625 65.921875 28.609375 65.921875 
Q 23.96875 65.921875 18.8125 64.3125 
Q 13.671875 62.703125 7.8125 59.421875 
L 7.8125 69.390625 
Q 13.765625 71.78125 18.9375 73 
Q 24.125 74.21875 28.421875 74.21875 
Q 39.75 74.21875 46.484375 68.546875 
Q 53.21875 62.890625 53.21875 53.421875 
Q 53.21875 48.921875 51.53125 44.890625 
Q 49.859375 40.875 45.40625 35.40625 
Q 44.1875 33.984375 37.640625 27.21875 
Q 31.109375 20.453125 19.1875 8.296875 
z
" id="DejaVuSans-32"/>
      </defs>
      <g transform="translate(96.910415 308.077932)scale(0.1 -0.1)">
       <use xlink:href="#DejaVuSans-30"/>
       <use x="63.623047" xlink:href="#DejaVuSans-2e"/>
       <use x="95.410156" xlink:href="#DejaVuSans-32"/>
      </g>
     </g>
    </g>
    <g id="xtick_2">
     <g id="line2d_2">
      <g>
       <use style="stroke:#000000;stroke-width:0.8;" x="152.654989" xlink:href="#mb943c79467" y="293.479494"/>
      </g>
     </g>
     <g id="text_2">
      <!-- 0.4 -->
      <defs>
       <path d="M 37.796875 64.3125 
L 12.890625 25.390625 
L 37.796875 25.390625 
z
M 35.203125 72.90625 
L 47.609375 72.90625 
L 47.609375 25.390625 
L 58.015625 25.390625 
L 58.015625 17.1875 
L 47.609375 17.1875 
L 47.609375 0 
L 37.796875 0 
L 37.796875 17.1875 
L 4.890625 17.1875 
L 4.890625 26.703125 
z
" id="DejaVuSans-34"/>
      </defs>
      <g transform="translate(144.703426 308.077932)scale(0.1 -0.1)">
       <use xlink:href="#DejaVuSans-30"/>
       <use x="63.623047" xlink:href="#DejaVuSans-2e"/>
       <use x="95.410156" xlink:href="#DejaVuSans-34"/>
      </g>
     </g>
    </g>
    <g id="xtick_3">
     <g id="line2d_3">
      <g>
       <use style="stroke:#000000;stroke-width:0.8;" x="200.448" xlink:href="#mb943c79467" y="293.479494"/>
      </g>
     </g>
     <g id="text_3">
      <!-- 0.6 -->
      <defs>
       <path d="M 33.015625 40.375 
Q 26.375 40.375 22.484375 35.828125 
Q 18.609375 31.296875 18.609375 23.390625 
Q 18.609375 15.53125 22.484375 10.953125 
Q 26.375 6.390625 33.015625 6.390625 
Q 39.65625 6.390625 43.53125 10.953125 
Q 47.40625 15.53125 47.40625 23.390625 
Q 47.40625 31.296875 43.53125 35.828125 
Q 39.65625 40.375 33.015625 40.375 
z
M 52.59375 71.296875 
L 52.59375 62.3125 
Q 48.875 64.0625 45.09375 64.984375 
Q 41.3125 65.921875 37.59375 65.921875 
Q 27.828125 65.921875 22.671875 59.328125 
Q 17.53125 52.734375 16.796875 39.40625 
Q 19.671875 43.65625 24.015625 45.921875 
Q 28.375 48.1875 33.59375 48.1875 
Q 44.578125 48.1875 50.953125 41.515625 
Q 57.328125 34.859375 57.328125 23.390625 
Q 57.328125 12.15625 50.6875 5.359375 
Q 44.046875 -1.421875 33.015625 -1.421875 
Q 20.359375 -1.421875 13.671875 8.265625 
Q 6.984375 17.96875 6.984375 36.375 
Q 6.984375 53.65625 15.1875 63.9375 
Q 23.390625 74.21875 37.203125 74.21875 
Q 40.921875 74.21875 44.703125 73.484375 
Q 48.484375 72.75 52.59375 71.296875 
z
" id="DejaVuSans-36"/>
      </defs>
      <g transform="translate(192.496438 308.077932)scale(0.1 -0.1)">
       <use xlink:href="#DejaVuSans-30"/>
       <use x="63.623047" xlink:href="#DejaVuSans-2e"/>
       <use x="95.410156" xlink:href="#DejaVuSans-36"/>
      </g>
     </g>
    </g>
    <g id="xtick_4">
     <g id="line2d_4">
      <g>
       <use style="stroke:#000000;stroke-width:0.8;" x="248.241011" xlink:href="#mb943c79467" y="293.479494"/>
      </g>
     </g>
     <g id="text_4">
      <!-- 0.8 -->
      <defs>
       <path d="M 31.78125 34.625 
Q 24.75 34.625 20.71875 30.859375 
Q 16.703125 27.09375 16.703125 20.515625 
Q 16.703125 13.921875 20.71875 10.15625 
Q 24.75 6.390625 31.78125 6.390625 
Q 38.8125 6.390625 42.859375 10.171875 
Q 46.921875 13.96875 46.921875 20.515625 
Q 46.921875 27.09375 42.890625 30.859375 
Q 38.875 34.625 31.78125 34.625 
z
M 21.921875 38.8125 
Q 15.578125 40.375 12.03125 44.71875 
Q 8.5 49.078125 8.5 55.328125 
Q 8.5 64.0625 14.71875 69.140625 
Q 20.953125 74.21875 31.78125 74.21875 
Q 42.671875 74.21875 48.875 69.140625 
Q 55.078125 64.0625 55.078125 55.328125 
Q 55.078125 49.078125 51.53125 44.71875 
Q 48 40.375 41.703125 38.8125 
Q 48.828125 37.15625 52.796875 32.3125 
Q 56.78125 27.484375 56.78125 20.515625 
Q 56.78125 9.90625 50.3125 4.234375 
Q 43.84375 -1.421875 31.78125 -1.421875 
Q 19.734375 -1.421875 13.25 4.234375 
Q 6.78125 9.90625 6.78125 20.515625 
Q 6.78125 27.484375 10.78125 32.3125 
Q 14.796875 37.15625 21.921875 38.8125 
z
M 18.3125 54.390625 
Q 18.3125 48.734375 21.84375 45.5625 
Q 25.390625 42.390625 31.78125 42.390625 
Q 38.140625 42.390625 41.71875 45.5625 
Q 45.3125 48.734375 45.3125 54.390625 
Q 45.3125 60.0625 41.71875 63.234375 
Q 38.140625 66.40625 31.78125 66.40625 
Q 25.390625 66.40625 21.84375 63.234375 
Q 18.3125 60.0625 18.3125 54.390625 
z
" id="DejaVuSans-38"/>
      </defs>
      <g transform="translate(240.289449 308.077932)scale(0.1 -0.1)">
       <use xlink:href="#DejaVuSans-30"/>
       <use x="63.623047" xlink:href="#DejaVuSans-2e"/>
       <use x="95.410156" xlink:href="#DejaVuSans-38"/>
      </g>
     </g>
    </g>
    <g id="xtick_5">
     <g id="line2d_5">
      <g>
       <use style="stroke:#000000;stroke-width:0.8;" x="296.034022" xlink:href="#mb943c79467" y="293.479494"/>
      </g>
     </g>
     <g id="text_5">
      <!-- 1.0 -->
      <defs>
       <path d="M 12.40625 8.296875 
L 28.515625 8.296875 
L 28.515625 63.921875 
L 10.984375 60.40625 
L 10.984375 69.390625 
L 28.421875 72.90625 
L 38.28125 72.90625 
L 38.28125 8.296875 
L 54.390625 8.296875 
L 54.390625 0 
L 12.40625 0 
z
" id="DejaVuSans-31"/>
      </defs>
      <g transform="translate(288.08246 308.077932)scale(0.1 -0.1)">
       <use xlink:href="#DejaVuSans-31"/>
       <use x="63.623047" xlink:href="#DejaVuSans-2e"/>
       <use x="95.410156" xlink:href="#DejaVuSans-30"/>
      </g>
     </g>
    </g>
   </g>
   <g id="matplotlib.axis_2">
    <g id="ytick_1">
     <g id="line2d_6">
      <defs>
       <path d="M 0 0 
L -3.5 0 
" id="m1689fd04a4" style="stroke:#000000;stroke-width:0.8;"/>
      </defs>
      <g>
       <use style="stroke:#000000;stroke-width:0.8;" x="57.6" xlink:href="#m1689fd04a4" y="246.217517"/>
      </g>
     </g>
     <g id="text_6">
      <!-- 0.2 -->
      <g transform="translate(34.696875 250.016735)scale(0.1 -0.1)">
       <use xlink:href="#DejaVuSans-30"/>
       <use x="63.623047" xlink:href="#DejaVuSans-2e"/>
       <use x="95.410156" xlink:href="#DejaVuSans-32"/>
      </g>
     </g>
    </g>
    <g id="ytick_2">
     <g id="line2d_7">
      <g>
       <use style="stroke:#000000;stroke-width:0.8;" x="57.6" xlink:href="#m1689fd04a4" y="198.424506"/>
      </g>
     </g>
     <g id="text_7">
      <!-- 0.4 -->
      <g transform="translate(34.696875 202.223724)scale(0.1 -0.1)">
       <use xlink:href="#DejaVuSans-30"/>
       <use x="63.623047" xlink:href="#DejaVuSans-2e"/>
       <use x="95.410156" xlink:href="#DejaVuSans-34"/>
      </g>
     </g>
    </g>
    <g id="ytick_3">
     <g id="line2d_8">
      <g>
       <use style="stroke:#000000;stroke-width:0.8;" x="57.6" xlink:href="#m1689fd04a4" y="150.631494"/>
      </g>
     </g>
     <g id="text_8">
      <!-- 0.6 -->
      <g transform="translate(34.696875 154.430713)scale(0.1 -0.1)">
       <use xlink:href="#DejaVuSans-30"/>
       <use x="63.623047" xlink:href="#DejaVuSans-2e"/>
       <use x="95.410156" xlink:href="#DejaVuSans-36"/>
      </g>
     </g>
    </g>
    <g id="ytick_4">
     <g id="line2d_9">
      <g>
       <use style="stroke:#000000;stroke-width:0.8;" x="57.6" xlink:href="#m1689fd04a4" y="102.838483"/>
      </g>
     </g>
     <g id="text_9">
      <!-- 0.8 -->
      <g transform="translate(34.696875 106.637702)scale(0.1 -0.1)">
       <use xlink:href="#DejaVuSans-30"/>
       <use x="63.623047" xlink:href="#DejaVuSans-2e"/>
       <use x="95.410156" xlink:href="#DejaVuSans-38"/>
      </g>
     </g>
    </g>
   </g>
   <g id="LineCollection_1">
    <path clip-path="url(#pf4b9af27f3)" d="M 278.509125 293.479494 
L 278.971127 291.355361 
L 279.945756 288.16916 
L 280.283712 286.045026 
L 280.248696 283.920892 
L 279.88279 281.796758 
L 279.571985 280.592937 
L 278.509918 278.071922 
L 277.447851 276.370732 
L 276.385784 275.145752 
L 275.323717 274.227399 
L 273.821501 273.300223 
L 272.137517 272.551326 
L 270.013383 271.892781 
L 266.76074 271.176089 
L 261.516848 270.346079 
L 255.144446 269.561411 
L 246.647911 268.737693 
L 237.089309 268.048742 
L 227.530706 267.586625 
L 214.785903 267.218414 
L 198.8549 266.76988 
L 191.420431 266.343972 
L 185.04803 265.756941 
L 179.737695 265.081303 
L 173.365294 264.020853 
L 165.930825 262.478729 
L 148.937755 258.76968 
L 144.689487 258.163049 
L 141.503286 257.904144 
L 138.317086 257.864041 
L 135.130885 258.103099 
L 133.006751 258.449287 
L 130.882617 258.979728 
L 128.758483 259.702376 
L 126.634349 260.634093 
L 124.510216 261.769583 
L 121.324015 263.794214 
L 116.01368 267.601968 
L 112.484958 270.114022 
L 108.579212 272.632582 
L 105.393011 274.439578 
L 102.20681 275.990845 
L 99.02061 277.28827 
L 95.834409 278.331024 
L 92.648208 279.119699 
L 89.243162 279.672625 
L 86.275807 279.893979 
L 84.151673 279.881616 
L 81.811041 279.672625 
L 79.903405 279.325456 
L 77.552935 278.610558 
L 75.655138 277.738336 
L 74.593071 277.093063 
L 73.531004 276.313082 
L 72.468937 275.363257 
L 71.40687 274.200203 
L 70.008449 272.238156 
L 68.841357 270.114022 
L 67.914819 267.989888 
L 66.833936 264.803688 
L 65.998889 261.617487 
L 65.034468 256.696914 
L 64.229972 250.996818 
L 63.548377 244.624416 
L 62.751114 235.065814 
L 61.78658 220.196877 
L 60.948168 203.203807 
L 60.275456 185.148669 
L 59.586781 160.72113 
L 58.929823 128.859123 
L 58.366554 90.624714 
L 58.032675 56.638572 
L 58.044232 55.576506 
L 58.044232 55.576506 
" style="fill:none;stroke:#000080;stroke-width:1.5;"/>
   </g>
   <g id="LineCollection_2">
    <path clip-path="url(#pf4b9af27f3)" d="M 288.320214 293.479494 
L 288.993113 287.107093 
L 288.898218 283.920892 
L 288.375746 277.548491 
L 287.006454 263.326597 
L 284.573364 242.500283 
L 283.367708 235.065814 
L 282.504532 230.817546 
L 281.374411 226.569279 
L 280.634052 224.331137 
L 279.571985 221.994428 
L 278.369032 220.196877 
L 277.312745 219.13481 
L 276.385784 218.504387 
L 275.323717 218.065862 
L 274.261651 217.830541 
L 272.137517 217.723495 
L 268.951316 217.940458 
L 262.578914 218.430609 
L 256.206513 218.648259 
L 243.46171 218.780051 
L 183.985963 219.218253 
L 153.186022 219.858526 
L 140.441219 219.868946 
L 133.006751 219.665778 
L 127.696416 219.305739 
L 123.448149 218.822324 
L 118.880266 218.072743 
L 113.883767 217.010677 
L 107.517145 215.617959 
L 104.330944 215.179196 
L 102.20681 215.106733 
L 100.082677 215.291735 
L 97.958543 215.810433 
L 96.896476 216.222138 
L 95.40077 217.010677 
L 93.710275 218.183987 
L 91.586141 220.183575 
L 89.80962 222.321011 
L 88.28984 224.445145 
L 86.275807 227.63664 
L 80.965472 236.399093 
L 79.41961 238.252015 
L 78.841338 238.833847 
L 77.779271 239.553434 
L 76.717204 239.873805 
L 75.655138 239.752216 
L 74.593071 239.151008 
L 73.531004 238.029474 
L 72.375937 236.127881 
L 71.04077 232.94168 
L 70.023191 229.75548 
L 68.948815 225.507212 
L 67.874391 220.196877 
L 66.833309 213.824476 
L 65.723201 205.327941 
L 64.626265 194.707271 
L 63.586186 181.962468 
L 62.560079 166.031465 
L 61.589231 146.91426 
L 60.661321 123.548788 
L 59.797759 94.872981 
L 58.965089 59.824773 
L 59.042075 55.576506 
L 59.042075 55.576506 
" style="fill:none;stroke:#0000e8;stroke-width:1.5;"/>
   </g>
   <g id="LineCollection_3">
    <path clip-path="url(#pf4b9af27f3)" d="M 291.14916 293.479494 
L 291.444244 288.16916 
L 291.353727 283.920892 
L 290.967622 277.548491 
L 289.276373 250.996818 
L 288.267979 236.127881 
L 287.439534 225.507212 
L 286.476542 214.886543 
L 285.415401 205.327941 
L 284.374061 197.893472 
L 283.43063 192.583138 
L 282.460138 188.33487 
L 281.497218 185.148669 
L 280.634052 182.991621 
L 279.280147 180.900401 
L 278.509918 180.107755 
L 277.447851 179.539512 
L 276.385784 179.363376 
L 275.323717 179.464754 
L 273.199584 180.149266 
L 267.889249 182.366211 
L 265.741385 183.024535 
L 263.640981 183.494102 
L 260.454781 183.927505 
L 257.26858 184.126557 
L 251.958245 184.193368 
L 202.0411 184.078026 
L 136.192952 184.122074 
L 120.261948 184.29697 
L 114.417409 184.086602 
L 109.641279 183.735286 
L 100.082677 182.991241 
L 96.896476 183.043671 
L 94.772342 183.287614 
L 92.648208 183.770067 
L 90.524074 184.561616 
L 88.399941 185.732618 
L 86.275807 187.335001 
L 84.124356 189.396937 
L 78.841338 195.129143 
L 77.779271 195.977375 
L 76.717204 196.54617 
L 75.655138 196.747192 
L 74.593071 196.492892 
L 73.531004 195.692226 
L 72.468937 194.253641 
L 71.21237 191.521071 
L 70.155886 188.33487 
L 69.086521 184.086602 
L 67.864365 177.714201 
L 66.747635 170.279732 
L 65.719124 161.783197 
L 64.581332 150.100461 
L 63.503667 136.293591 
L 62.505605 120.362587 
L 61.505688 100.183316 
L 60.066446 64.073041 
L 60.001082 58.762706 
L 60.120653 55.576506 
L 60.120653 55.576506 
" style="fill:none;stroke:#0038ff;stroke-width:1.5;"/>
   </g>
   <g id="LineCollection_4">
    <path clip-path="url(#pf4b9af27f3)" d="M 293.025577 293.479494 
L 293.095488 284.982959 
L 292.683112 275.424357 
L 289.722501 214.886543 
L 288.565297 196.831405 
L 287.555894 184.086602 
L 286.510195 173.465933 
L 285.448724 164.969398 
L 284.425375 158.596996 
L 283.560312 154.348729 
L 282.386703 150.100461 
L 281.612038 147.976327 
L 280.425878 145.852193 
L 279.441069 144.790126 
L 278.509918 144.28303 
L 277.447851 144.219899 
L 275.975982 144.790126 
L 275.323717 145.166795 
L 273.175638 146.91426 
L 268.951316 150.608883 
L 266.590579 152.224595 
L 264.530841 153.286662 
L 262.578914 154.011977 
L 260.454781 154.52718 
L 258.330647 154.821189 
L 255.144446 154.969578 
L 250.896178 154.865931 
L 239.213442 154.413641 
L 230.716907 154.410399 
L 209.475569 154.50018 
L 102.20681 153.994287 
L 95.834409 153.98902 
L 92.648208 154.166771 
L 90.524074 154.426629 
L 88.399941 154.852315 
L 86.275807 155.487747 
L 83.939106 156.472862 
L 81.937074 157.534929 
L 77.779271 159.852636 
L 76.717204 160.221797 
L 75.655138 160.356216 
L 74.593071 160.158911 
L 73.531004 159.52022 
L 72.468937 158.323507 
L 71.40687 156.441375 
L 70.213671 153.286662 
L 69.054027 149.038394 
L 67.953527 143.728059 
L 66.768376 136.293591 
L 65.701985 127.797056 
L 64.640283 117.176387 
L 63.622751 104.431584 
L 62.543615 87.438513 
L 61.16361 60.88684 
L 61.243463 57.700639 
L 61.367522 55.576506 
L 61.367522 55.576506 
" style="fill:none;stroke:#0094ff;stroke-width:1.5;"/>
   </g>
   <g id="LineCollection_5">
    <path clip-path="url(#pf4b9af27f3)" d="M 294.57707 293.479494 
L 294.440922 280.609571 
L 293.017246 240.376149 
L 291.615985 205.327941 
L 290.566294 184.086602 
L 289.597845 168.155599 
L 288.643665 155.410796 
L 287.654811 144.790126 
L 286.659078 136.293591 
L 285.531125 128.859123 
L 284.470845 123.548788 
L 283.666537 120.362587 
L 282.580438 117.176387 
L 281.543086 115.052253 
L 280.634052 113.790363 
L 279.571985 112.999695 
L 278.509918 112.780016 
L 277.447851 113.026444 
L 275.980924 113.990186 
L 274.842275 115.052253 
L 273.199584 116.90286 
L 268.670157 122.486721 
L 266.653626 124.610855 
L 264.703048 126.288234 
L 262.578914 127.653826 
L 260.454781 128.576442 
L 258.330647 129.115049 
L 256.206513 129.340152 
L 254.082379 129.322026 
L 250.896178 128.981009 
L 245.585844 128.030963 
L 240.275509 127.126901 
L 236.027242 126.644359 
L 231.778974 126.405659 
L 226.468639 126.369746 
L 217.972104 126.611134 
L 196.730766 127.289597 
L 178.675628 127.614125 
L 134.068818 128.056625 
L 89.462007 128.644405 
L 86.275807 128.961352 
L 83.089606 129.4969 
L 77.779271 130.623472 
L 76.717204 130.709837 
L 75.655138 130.640853 
L 74.593071 130.335977 
L 73.531004 129.694624 
L 72.468937 128.59659 
L 71.335166 126.734989 
L 70.064334 123.548788 
L 69.123516 120.362587 
L 67.966106 115.052253 
L 66.908003 108.679851 
L 65.70265 99.121249 
L 64.655948 88.50058 
L 62.910335 66.945057 
L 62.66599 61.948907 
L 62.71618 58.762706 
L 62.951502 55.576506 
L 62.951502 55.576506 
" style="fill:none;stroke:#0cf4eb;stroke-width:1.5;"/>
   </g>
   <g id="LineCollection_6">
    <path clip-path="url(#pf4b9af27f3)" d="M 296.278399 293.479494 
L 296.127035 281.796758 
L 295.57805 267.989888 
L 295.344427 260.55542 
L 293.845574 210.638275 
L 292.744391 180.900401 
L 291.760681 159.659063 
L 290.770222 142.665993 
L 289.742935 128.859123 
L 288.732956 118.238454 
L 287.714518 109.741918 
L 286.580406 102.30745 
L 285.536965 96.997115 
L 284.447198 92.748848 
L 283.368485 89.562647 
L 282.442459 87.438513 
L 281.204898 85.314379 
L 280.408328 84.252312 
L 279.341357 83.190245 
L 278.509918 82.570198 
L 277.447851 82.056549 
L 276.385784 81.821705 
L 275.323717 81.839134 
L 274.241059 82.128178 
L 273.199584 82.731905 
L 272.137517 83.72467 
L 271.03537 85.314379 
L 270.013383 87.471636 
L 266.62907 95.935048 
L 265.465793 98.059182 
L 264.00959 100.183316 
L 262.578914 101.82029 
L 261.516848 102.794044 
L 260.454781 103.598429 
L 258.330647 104.779842 
L 256.206513 105.522091 
L 254.082379 105.939206 
L 251.958245 106.133755 
L 248.772045 106.163052 
L 243.46171 105.88643 
L 227.530706 104.652605 
L 209.475569 103.271772 
L 202.0411 102.937376 
L 194.606632 102.837068 
L 186.110097 102.959507 
L 154.248089 103.650898 
L 134.068818 103.684841 
L 105.393011 103.752477 
L 91.586141 103.978412 
L 83.089606 104.331763 
L 79.903405 104.427145 
L 77.779271 104.307342 
L 76.717204 104.114815 
L 75.655138 103.772695 
L 74.593071 103.212551 
L 73.502638 102.30745 
L 72.468937 101.041014 
L 71.389291 99.121249 
L 70.17092 95.935048 
L 69.014703 91.686781 
L 67.939838 86.376446 
L 66.798217 78.941978 
L 65.638353 69.383375 
L 65.143421 64.073041 
L 65.06686 61.948907 
L 65.165511 59.824773 
L 65.646177 55.576506 
L 65.646177 55.576506 
" style="fill:none;stroke:#56ffa0;stroke-width:1.5;"/>
   </g>
   <g id="LineCollection_7">
    <path clip-path="url(#pf4b9af27f3)" d="M 302.694095 293.479494 
L 302.549237 286.045026 
L 302.211188 279.672625 
L 301.515655 271.176089 
L 300.198895 258.431286 
L 297.855706 238.252015 
L 296.513936 226.569279 
L 295.178025 192.583138 
L 294.140087 161.783197 
L 293.176567 139.479792 
L 292.162785 121.424654 
L 291.077465 106.555717 
L 290.076873 95.935048 
L 289.108335 88.50058 
L 288.06852 83.084107 
L 287.006454 79.288407 
L 285.944387 76.562721 
L 284.88232 74.534539 
L 283.461547 72.569576 
L 282.440988 71.507509 
L 281.090098 70.445442 
L 279.571985 69.587212 
L 278.509918 69.158868 
L 276.385784 68.611165 
L 274.261651 68.371218 
L 272.137517 68.383077 
L 270.013383 68.601949 
L 267.889249 68.992295 
L 265.765115 69.539457 
L 262.578914 70.655913 
L 259.392714 72.110947 
L 256.614933 73.631643 
L 253.020312 75.963224 
L 247.438527 80.004045 
L 244.523777 82.019539 
L 241.337576 83.828685 
L 239.213442 84.744296 
L 237.089309 85.432817 
L 234.965175 85.916282 
L 232.841041 86.227513 
L 229.65484 86.424896 
L 226.468639 86.366337 
L 223.282439 86.10723 
L 219.034171 85.542111 
L 213.723836 84.598281 
L 191.420431 80.3753 
L 183.985963 79.362452 
L 174.427361 78.327971 
L 152.123955 76.052651 
L 144.689487 75.052494 
L 138.317086 74.012908 
L 133.006751 72.976424 
L 128.758483 71.99973 
L 124.510216 70.845602 
L 121.324015 69.812885 
L 119.199881 69.012168 
L 117.075747 68.084022 
L 114.951613 66.948774 
L 113.757396 66.197175 
L 112.427225 65.135108 
L 111.420936 64.073041 
L 110.70003 63.010974 
L 110.224634 61.948907 
L 109.955489 60.88684 
L 109.849667 59.824773 
L 109.942361 57.700639 
L 110.092217 55.576506 
L 110.092217 55.576506 
" style="fill:none;stroke:#a0ff56;stroke-width:1.5;"/>
   </g>
   <g id="LineCollection_8">
    <path clip-path="url(#pf4b9af27f3)" d="M 309.906579 293.479494 
L 309.769158 284.982959 
L 309.40085 276.486424 
L 308.693291 265.865755 
L 307.44057 250.996818 
L 305.504506 230.817546 
L 303.258981 209.576208 
L 301.024035 190.459004 
L 298.952478 174.528 
L 296.951745 160.72113 
L 296.5289 157.534929 
L 294.781036 122.486721 
L 293.887476 105.493651 
L 293.098497 93.810914 
L 292.316788 85.6106 
L 291.681723 81.066112 
L 291.098654 77.879911 
L 290.192654 74.248193 
L 289.226612 71.507509 
L 288.744535 70.445442 
L 287.518782 68.321309 
L 286.703492 67.259242 
L 285.670336 66.197175 
L 284.304265 65.135108 
L 282.758186 64.237932 
L 280.634052 63.363856 
L 278.509918 62.747709 
L 275.323717 62.122887 
L 270.013383 61.44494 
L 265.392215 60.88684 
L 263.640981 60.485148 
L 261.516848 59.745111 
L 260.341079 58.762706 
L 260.058368 57.700639 
L 260.454781 56.513839 
L 261.063462 55.576506 
L 261.063462 55.576506 
" style="fill:none;stroke:#ebff0c;stroke-width:1.5;"/>
   </g>
   <g id="LineCollection_9">
    <path clip-path="url(#pf4b9af27f3)" d="M 317.286881 293.479494 
L 317.167568 283.920892 
L 316.803519 273.300223 
L 316.127184 260.55542 
L 314.990628 243.562349 
L 313.192783 220.196877 
L 311.261978 197.893472 
L 309.396592 178.776268 
L 307.637563 162.845264 
L 305.909757 149.038394 
L 304.094383 136.293591 
L 302.374114 125.672922 
L 300.623824 116.11432 
L 298.68919 106.800157 
L 296.874137 99.121249 
L 296.565056 97.913811 
L 295.637337 88.50058 
L 295.349872 85.314379 
L 294.756966 78.941978 
L 294.036677 73.631643 
L 293.378855 70.25584 
L 292.533181 67.259242 
L 291.668066 65.135108 
L 291.110374 64.073041 
L 290.192654 62.661126 
L 288.660013 60.88684 
L 287.006454 59.257135 
L 285.944387 58.219562 
L 285.420334 57.700639 
L 284.645478 56.638572 
L 284.121375 55.576506 
L 284.121375 55.576506 
" style="fill:none;stroke:#ffab00;stroke-width:1.5;"/>
   </g>
   <g id="LineCollection_10">
    <path clip-path="url(#pf4b9af27f3)" d="M 324.788894 293.479494 
L 324.673975 281.796758 
L 324.332236 269.051955 
L 323.633898 252.058885 
L 322.437129 228.693413 
L 320.856537 202.14174 
L 319.248471 178.776268 
L 317.718167 159.659063 
L 316.230196 143.728059 
L 314.726245 129.92119 
L 313.246875 118.238454 
L 311.687123 107.617784 
L 310.052102 98.059182 
L 308.578231 90.624714 
L 306.868677 83.190245 
L 305.061591 76.467305 
L 303.187666 70.445442 
L 300.813323 63.602423 
L 299.751257 60.377691 
L 299.306306 58.762706 
L 298.975113 56.638572 
L 298.949348 55.576506 
L 298.949348 55.576506 
" style="fill:none;stroke:#ff5500;stroke-width:1.5;"/>
   </g>
   <g id="LineCollection_11">
    <path clip-path="url(#pf4b9af27f3)" d="M 332.372663 293.479494 
L 332.25371 277.548491 
L 331.887919 259.493353 
L 331.060549 230.817546 
L 329.968299 200.017606 
L 328.747494 171.341799 
L 327.591824 149.038394 
L 326.378761 129.92119 
L 325.226572 115.052253 
L 323.942051 101.245383 
L 322.417758 87.438513 
L 320.252156 68.321309 
L 319.787542 61.948907 
L 319.628603 56.638572 
L 319.626097 55.576506 
L 319.626097 55.576506 
" style="fill:none;stroke:#e80000;stroke-width:1.5;"/>
   </g>
   <g id="LineCollection_12">
    <path clip-path="url(#pf4b9af27f3)" d="M 340.003731 293.479494 
L 339.890837 266.927822 
L 338.692766 163.907331 
L 337.970407 126.734989 
L 337.256697 101.245383 
L 336.514495 81.066112 
L 336.074636 66.197175 
L 335.967933 55.576506 
L 335.967933 55.576506 
" style="fill:none;stroke:#800000;stroke-width:1.5;"/>
   </g>
   <g id="patch_3">
    <path d="M 57.6 293.479494 
L 57.6 55.576506 
" style="fill:none;stroke:#000000;stroke-linecap:square;stroke-linejoin:miter;stroke-width:0.8;"/>
   </g>
   <g id="patch_4">
    <path d="M 343.296 293.479494 
L 343.296 55.576506 
" style="fill:none;stroke:#000000;stroke-linecap:square;stroke-linejoin:miter;stroke-width:0.8;"/>
   </g>
   <g id="patch_5">
    <path d="M 57.6 293.479494 
L 343.296 293.479494 
" style="fill:none;stroke:#000000;stroke-linecap:square;stroke-linejoin:miter;stroke-width:0.8;"/>
   </g>
   <g id="patch_6">
    <path d="M 57.6 55.576506 
L 343.296 55.576506 
" style="fill:none;stroke:#000000;stroke-linecap:square;stroke-linejoin:miter;stroke-width:0.8;"/>
   </g>
   <g id="text_10">
    <!-- Time:0.05267 s -->
    <defs>
     <path d="M -0.296875 72.90625 
L 61.375 72.90625 
L 61.375 64.59375 
L 35.5 64.59375 
L 35.5 0 
L 25.59375 0 
L 25.59375 64.59375 
L -0.296875 64.59375 
z
" id="DejaVuSans-54"/>
     <path d="M 9.421875 54.6875 
L 18.40625 54.6875 
L 18.40625 0 
L 9.421875 0 
z
M 9.421875 75.984375 
L 18.40625 75.984375 
L 18.40625 64.59375 
L 9.421875 64.59375 
z
" id="DejaVuSans-69"/>
     <path d="M 52 44.1875 
Q 55.375 50.25 60.0625 53.125 
Q 64.75 56 71.09375 56 
Q 79.640625 56 84.28125 50.015625 
Q 88.921875 44.046875 88.921875 33.015625 
L 88.921875 0 
L 79.890625 0 
L 79.890625 32.71875 
Q 79.890625 40.578125 77.09375 44.375 
Q 74.3125 48.1875 68.609375 48.1875 
Q 61.625 48.1875 57.5625 43.546875 
Q 53.515625 38.921875 53.515625 30.90625 
L 53.515625 0 
L 44.484375 0 
L 44.484375 32.71875 
Q 44.484375 40.625 41.703125 44.40625 
Q 38.921875 48.1875 33.109375 48.1875 
Q 26.21875 48.1875 22.15625 43.53125 
Q 18.109375 38.875 18.109375 30.90625 
L 18.109375 0 
L 9.078125 0 
L 9.078125 54.6875 
L 18.109375 54.6875 
L 18.109375 46.1875 
Q 21.1875 51.21875 25.484375 53.609375 
Q 29.78125 56 35.6875 56 
Q 41.65625 56 45.828125 52.96875 
Q 50 49.953125 52 44.1875 
z
" id="DejaVuSans-6d"/>
     <path d="M 56.203125 29.59375 
L 56.203125 25.203125 
L 14.890625 25.203125 
Q 15.484375 15.921875 20.484375 11.0625 
Q 25.484375 6.203125 34.421875 6.203125 
Q 39.59375 6.203125 44.453125 7.46875 
Q 49.3125 8.734375 54.109375 11.28125 
L 54.109375 2.78125 
Q 49.265625 0.734375 44.1875 -0.34375 
Q 39.109375 -1.421875 33.890625 -1.421875 
Q 20.796875 -1.421875 13.15625 6.1875 
Q 5.515625 13.8125 5.515625 26.8125 
Q 5.515625 40.234375 12.765625 48.109375 
Q 20.015625 56 32.328125 56 
Q 43.359375 56 49.78125 48.890625 
Q 56.203125 41.796875 56.203125 29.59375 
z
M 47.21875 32.234375 
Q 47.125 39.59375 43.09375 43.984375 
Q 39.0625 48.390625 32.421875 48.390625 
Q 24.90625 48.390625 20.390625 44.140625 
Q 15.875 39.890625 15.1875 32.171875 
z
" id="DejaVuSans-65"/>
     <path d="M 11.71875 12.40625 
L 22.015625 12.40625 
L 22.015625 0 
L 11.71875 0 
z
M 11.71875 51.703125 
L 22.015625 51.703125 
L 22.015625 39.3125 
L 11.71875 39.3125 
z
" id="DejaVuSans-3a"/>
     <path d="M 10.796875 72.90625 
L 49.515625 72.90625 
L 49.515625 64.59375 
L 19.828125 64.59375 
L 19.828125 46.734375 
Q 21.96875 47.46875 24.109375 47.828125 
Q 26.265625 48.1875 28.421875 48.1875 
Q 40.625 48.1875 47.75 41.5 
Q 54.890625 34.8125 54.890625 23.390625 
Q 54.890625 11.625 47.5625 5.09375 
Q 40.234375 -1.421875 26.90625 -1.421875 
Q 22.3125 -1.421875 17.546875 -0.640625 
Q 12.796875 0.140625 7.71875 1.703125 
L 7.71875 11.625 
Q 12.109375 9.234375 16.796875 8.0625 
Q 21.484375 6.890625 26.703125 6.890625 
Q 35.15625 6.890625 40.078125 11.328125 
Q 45.015625 15.765625 45.015625 23.390625 
Q 45.015625 31 40.078125 35.4375 
Q 35.15625 39.890625 26.703125 39.890625 
Q 22.75 39.890625 18.8125 39.015625 
Q 14.890625 38.140625 10.796875 36.28125 
z
" id="DejaVuSans-35"/>
     <path d="M 8.203125 72.90625 
L 55.078125 72.90625 
L 55.078125 68.703125 
L 28.609375 0 
L 18.3125 0 
L 43.21875 64.59375 
L 8.203125 64.59375 
z
" id="DejaVuSans-37"/>
     <path id="DejaVuSans-20"/>
     <path d="M 44.28125 53.078125 
L 44.28125 44.578125 
Q 40.484375 46.53125 36.375 47.5 
Q 32.28125 48.484375 27.875 48.484375 
Q 21.1875 48.484375 17.84375 46.4375 
Q 14.5 44.390625 14.5 40.28125 
Q 14.5 37.15625 16.890625 35.375 
Q 19.28125 33.59375 26.515625 31.984375 
L 29.59375 31.296875 
Q 39.15625 29.25 43.1875 25.515625 
Q 47.21875 21.78125 47.21875 15.09375 
Q 47.21875 7.46875 41.1875 3.015625 
Q 35.15625 -1.421875 24.609375 -1.421875 
Q 20.21875 -1.421875 15.453125 -0.5625 
Q 10.6875 0.296875 5.421875 2 
L 5.421875 11.28125 
Q 10.40625 8.6875 15.234375 7.390625 
Q 20.0625 6.109375 24.8125 6.109375 
Q 31.15625 6.109375 34.5625 8.28125 
Q 37.984375 10.453125 37.984375 14.40625 
Q 37.984375 18.0625 35.515625 20.015625 
Q 33.0625 21.96875 24.703125 23.78125 
L 21.578125 24.515625 
Q 13.234375 26.265625 9.515625 29.90625 
Q 5.8125 33.546875 5.8125 39.890625 
Q 5.8125 47.609375 11.28125 51.796875 
Q 16.75 56 26.8125 56 
Q 31.78125 56 36.171875 55.265625 
Q 40.578125 54.546875 44.28125 53.078125 
z
" id="DejaVuSans-73"/>
    </defs>
    <g transform="translate(153.717375 49.576506)scale(0.12 -0.12)">
     <use xlink:href="#DejaVuSans-54"/>
     <use x="61.037109" xlink:href="#DejaVuSans-69"/>
     <use x="88.820312" xlink:href="#DejaVuSans-6d"/>
     <use x="186.232422" xlink:href="#DejaVuSans-65"/>
     <use x="247.755859" xlink:href="#DejaVuSans-3a"/>
     <use x="281.447266" xlink:href="#DejaVuSans-30"/>
     <use x="345.070312" xlink:href="#DejaVuSans-2e"/>
     <use x="376.857422" xlink:href="#DejaVuSans-30"/>
     <use x="440.480469" xlink:href="#DejaVuSans-35"/>
     <use x="504.103516" xlink:href="#DejaVuSans-32"/>
     <use x="567.726562" xlink:href="#DejaVuSans-36"/>
     <use x="631.349609" xlink:href="#DejaVuSans-37"/>
     <use x="694.972656" xlink:href="#DejaVuSans-20"/>
     <use x="726.759766" xlink:href="#DejaVuSans-73"/>
    </g>
   </g>
  </g>
  <g id="axes_2">
   <g id="patch_7">
    <path clip-path="url(#p51e60fdad0)" d="M 361.152 307.584 
L 361.152 283.392 
L 361.152 65.664 
L 361.152 41.472 
L 374.4576 41.472 
L 374.4576 65.664 
L 374.4576 283.392 
L 374.4576 307.584 
z
" style="fill:#ffffff;stroke:#ffffff;stroke-linejoin:miter;stroke-width:0.01;"/>
   </g>
   <g id="matplotlib.axis_3"/>
   <g id="matplotlib.axis_4">
    <g id="ytick_5">
     <g id="line2d_10">
      <defs>
       <path d="M 0 0 
L 3.5 0 
" id="mf916f23131" style="stroke:#000000;stroke-width:0.8;"/>
      </defs>
      <g>
       <use style="stroke:#000000;stroke-width:0.8;" x="374.4576" xlink:href="#mf916f23131" y="307.584"/>
      </g>
     </g>
     <g id="text_11">
      <!-- 0.08 -->
      <g transform="translate(381.4576 311.383219)scale(0.1 -0.1)">
       <use xlink:href="#DejaVuSans-30"/>
       <use x="63.623047" xlink:href="#DejaVuSans-2e"/>
       <use x="95.410156" xlink:href="#DejaVuSans-30"/>
       <use x="159.033203" xlink:href="#DejaVuSans-38"/>
      </g>
     </g>
    </g>
    <g id="ytick_6">
     <g id="line2d_11">
      <g>
       <use style="stroke:#000000;stroke-width:0.8;" x="374.4576" xlink:href="#mf916f23131" y="259.2"/>
      </g>
     </g>
     <g id="text_12">
      <!-- 0.24 -->
      <g transform="translate(381.4576 262.999219)scale(0.1 -0.1)">
       <use xlink:href="#DejaVuSans-30"/>
       <use x="63.623047" xlink:href="#DejaVuSans-2e"/>
       <use x="95.410156" xlink:href="#DejaVuSans-32"/>
       <use x="159.033203" xlink:href="#DejaVuSans-34"/>
      </g>
     </g>
    </g>
    <g id="ytick_7">
     <g id="line2d_12">
      <g>
       <use style="stroke:#000000;stroke-width:0.8;" x="374.4576" xlink:href="#mf916f23131" y="210.816"/>
      </g>
     </g>
     <g id="text_13">
      <!-- 0.40 -->
      <g transform="translate(381.4576 214.615219)scale(0.1 -0.1)">
       <use xlink:href="#DejaVuSans-30"/>
       <use x="63.623047" xlink:href="#DejaVuSans-2e"/>
       <use x="95.410156" xlink:href="#DejaVuSans-34"/>
       <use x="159.033203" xlink:href="#DejaVuSans-30"/>
      </g>
     </g>
    </g>
    <g id="ytick_8">
     <g id="line2d_13">
      <g>
       <use style="stroke:#000000;stroke-width:0.8;" x="374.4576" xlink:href="#mf916f23131" y="162.432"/>
      </g>
     </g>
     <g id="text_14">
      <!-- 0.56 -->
      <g transform="translate(381.4576 166.231219)scale(0.1 -0.1)">
       <use xlink:href="#DejaVuSans-30"/>
       <use x="63.623047" xlink:href="#DejaVuSans-2e"/>
       <use x="95.410156" xlink:href="#DejaVuSans-35"/>
       <use x="159.033203" xlink:href="#DejaVuSans-36"/>
      </g>
     </g>
    </g>
    <g id="ytick_9">
     <g id="line2d_14">
      <g>
       <use style="stroke:#000000;stroke-width:0.8;" x="374.4576" xlink:href="#mf916f23131" y="114.048"/>
      </g>
     </g>
     <g id="text_15">
      <!-- 0.72 -->
      <g transform="translate(381.4576 117.847219)scale(0.1 -0.1)">
       <use xlink:href="#DejaVuSans-30"/>
       <use x="63.623047" xlink:href="#DejaVuSans-2e"/>
       <use x="95.410156" xlink:href="#DejaVuSans-37"/>
       <use x="159.033203" xlink:href="#DejaVuSans-32"/>
      </g>
     </g>
    </g>
    <g id="ytick_10">
     <g id="line2d_15">
      <g>
       <use style="stroke:#000000;stroke-width:0.8;" x="374.4576" xlink:href="#mf916f23131" y="65.664"/>
      </g>
     </g>
     <g id="text_16">
      <!-- 0.88 -->
      <g transform="translate(381.4576 69.463219)scale(0.1 -0.1)">
       <use xlink:href="#DejaVuSans-30"/>
       <use x="63.623047" xlink:href="#DejaVuSans-2e"/>
       <use x="95.410156" xlink:href="#DejaVuSans-38"/>
       <use x="159.033203" xlink:href="#DejaVuSans-38"/>
      </g>
     </g>
    </g>
   </g>
   <g id="LineCollection_13">
    <path clip-path="url(#p51e60fdad0)" d="M 361.152 307.584 
L 374.4576 307.584 
" style="fill:none;stroke:#000080;stroke-width:1.5;"/>
    <path clip-path="url(#p51e60fdad0)" d="M 361.152 283.392 
L 374.4576 283.392 
" style="fill:none;stroke:#0000e8;stroke-width:1.5;"/>
    <path clip-path="url(#p51e60fdad0)" d="M 361.152 259.2 
L 374.4576 259.2 
" style="fill:none;stroke:#0038ff;stroke-width:1.5;"/>
    <path clip-path="url(#p51e60fdad0)" d="M 361.152 235.008 
L 374.4576 235.008 
" style="fill:none;stroke:#0094ff;stroke-width:1.5;"/>
    <path clip-path="url(#p51e60fdad0)" d="M 361.152 210.816 
L 374.4576 210.816 
" style="fill:none;stroke:#0cf4eb;stroke-width:1.5;"/>
    <path clip-path="url(#p51e60fdad0)" d="M 361.152 186.624 
L 374.4576 186.624 
" style="fill:none;stroke:#56ffa0;stroke-width:1.5;"/>
    <path clip-path="url(#p51e60fdad0)" d="M 361.152 162.432 
L 374.4576 162.432 
" style="fill:none;stroke:#a0ff56;stroke-width:1.5;"/>
    <path clip-path="url(#p51e60fdad0)" d="M 361.152 138.24 
L 374.4576 138.24 
" style="fill:none;stroke:#ebff0c;stroke-width:1.5;"/>
    <path clip-path="url(#p51e60fdad0)" d="M 361.152 114.048 
L 374.4576 114.048 
" style="fill:none;stroke:#ffab00;stroke-width:1.5;"/>
    <path clip-path="url(#p51e60fdad0)" d="M 361.152 89.856 
L 374.4576 89.856 
" style="fill:none;stroke:#ff5500;stroke-width:1.5;"/>
    <path clip-path="url(#p51e60fdad0)" d="M 361.152 65.664 
L 374.4576 65.664 
" style="fill:none;stroke:#e80000;stroke-width:1.5;"/>
    <path clip-path="url(#p51e60fdad0)" d="M 361.152 41.472 
L 374.4576 41.472 
" style="fill:none;stroke:#800000;stroke-width:1.5;"/>
   </g>
   <g id="patch_8">
    <path d="M 361.152 307.584 
L 361.152 283.392 
L 361.152 65.664 
L 361.152 41.472 
L 374.4576 41.472 
L 374.4576 65.664 
L 374.4576 283.392 
L 374.4576 307.584 
z
" style="fill:none;stroke:#000000;stroke-linejoin:miter;stroke-width:0.8;"/>
   </g>
  </g>
 </g>
 <defs>
  <clipPath id="pf4b9af27f3">
   <rect height="237.902989" width="285.696" x="57.6" y="55.576506"/>
  </clipPath>
  <clipPath id="p51e60fdad0">
   <rect height="266.112" width="13.3056" x="361.152" y="41.472"/>
  </clipPath>
 </defs>
</svg>
