<?xml version="1.0" encoding="utf-8" standalone="no"?>
<!DOCTYPE svg PUBLIC "-//W3C//DTD SVG 1.1//EN"
  "http://www.w3.org/Graphics/SVG/1.1/DTD/svg11.dtd">
<!-- Created with matplotlib (http://matplotlib.org/) -->
<svg height="345.6pt" version="1.1" viewBox="0 0 460.8 345.6" width="460.8pt" xmlns="http://www.w3.org/2000/svg" xmlns:xlink="http://www.w3.org/1999/xlink">
 <defs>
  <style type="text/css">
*{stroke-linecap:butt;stroke-linejoin:round;}
  </style>
 </defs>
 <g id="figure_1">
  <g id="patch_1">
   <path d="M 0 345.6 
L 460.8 345.6 
L 460.8 0 
L 0 0 
z
" style="fill:#ffffff;"/>
  </g>
  <g id="axes_1">
   <g id="patch_2">
    <path d="M 57.6 293.479494 
L 343.296 293.479494 
L 343.296 55.576506 
L 57.6 55.576506 
z
" style="fill:#ffffff;"/>
   </g>
   <g id="matplotlib.axis_1">
    <g id="xtick_1">
     <g id="line2d_1">
      <defs>
       <path d="M 0 0 
L 0 3.5 
" id="mb59219e148" style="stroke:#000000;stroke-width:0.8;"/>
      </defs>
      <g>
       <use style="stroke:#000000;stroke-width:0.8;" x="104.861978" xlink:href="#mb59219e148" y="293.479494"/>
      </g>
     </g>
     <g id="text_1">
      <!-- 0.2 -->
      <defs>
       <path d="M 31.78125 66.40625 
Q 24.171875 66.40625 20.328125 58.90625 
Q 16.5 51.421875 16.5 36.375 
Q 16.5 21.390625 20.328125 13.890625 
Q 24.171875 6.390625 31.78125 6.390625 
Q 39.453125 6.390625 43.28125 13.890625 
Q 47.125 21.390625 47.125 36.375 
Q 47.125 51.421875 43.28125 58.90625 
Q 39.453125 66.40625 31.78125 66.40625 
z
M 31.78125 74.21875 
Q 44.046875 74.21875 50.515625 64.515625 
Q 56.984375 54.828125 56.984375 36.375 
Q 56.984375 17.96875 50.515625 8.265625 
Q 44.046875 -1.421875 31.78125 -1.421875 
Q 19.53125 -1.421875 13.0625 8.265625 
Q 6.59375 17.96875 6.59375 36.375 
Q 6.59375 54.828125 13.0625 64.515625 
Q 19.53125 74.21875 31.78125 74.21875 
z
" id="DejaVuSans-30"/>
       <path d="M 10.6875 12.40625 
L 21 12.40625 
L 21 0 
L 10.6875 0 
z
" id="DejaVuSans-2e"/>
       <path d="M 19.1875 8.296875 
L 53.609375 8.296875 
L 53.609375 0 
L 7.328125 0 
L 7.328125 8.296875 
Q 12.9375 14.109375 22.625 23.890625 
Q 32.328125 33.6875 34.8125 36.53125 
Q 39.546875 41.84375 41.421875 45.53125 
Q 43.3125 49.21875 43.3125 52.78125 
Q 43.3125 58.59375 39.234375 62.25 
Q 35.15625 65.921875 28.609375 65.921875 
Q 23.96875 65.921875 18.8125 64.3125 
Q 13.671875 62.703125 7.8125 59.421875 
L 7.8125 69.390625 
Q 13.765625 71.78125 18.9375 73 
Q 24.125 74.21875 28.421875 74.21875 
Q 39.75 74.21875 46.484375 68.546875 
Q 53.21875 62.890625 53.21875 53.421875 
Q 53.21875 48.921875 51.53125 44.890625 
Q 49.859375 40.875 45.40625 35.40625 
Q 44.1875 33.984375 37.640625 27.21875 
Q 31.109375 20.453125 19.1875 8.296875 
z
" id="DejaVuSans-32"/>
      </defs>
      <g transform="translate(96.910415 308.077932)scale(0.1 -0.1)">
       <use xlink:href="#DejaVuSans-30"/>
       <use x="63.623047" xlink:href="#DejaVuSans-2e"/>
       <use x="95.410156" xlink:href="#DejaVuSans-32"/>
      </g>
     </g>
    </g>
    <g id="xtick_2">
     <g id="line2d_2">
      <g>
       <use style="stroke:#000000;stroke-width:0.8;" x="152.654989" xlink:href="#mb59219e148" y="293.479494"/>
      </g>
     </g>
     <g id="text_2">
      <!-- 0.4 -->
      <defs>
       <path d="M 37.796875 64.3125 
L 12.890625 25.390625 
L 37.796875 25.390625 
z
M 35.203125 72.90625 
L 47.609375 72.90625 
L 47.609375 25.390625 
L 58.015625 25.390625 
L 58.015625 17.1875 
L 47.609375 17.1875 
L 47.609375 0 
L 37.796875 0 
L 37.796875 17.1875 
L 4.890625 17.1875 
L 4.890625 26.703125 
z
" id="DejaVuSans-34"/>
      </defs>
      <g transform="translate(144.703426 308.077932)scale(0.1 -0.1)">
       <use xlink:href="#DejaVuSans-30"/>
       <use x="63.623047" xlink:href="#DejaVuSans-2e"/>
       <use x="95.410156" xlink:href="#DejaVuSans-34"/>
      </g>
     </g>
    </g>
    <g id="xtick_3">
     <g id="line2d_3">
      <g>
       <use style="stroke:#000000;stroke-width:0.8;" x="200.448" xlink:href="#mb59219e148" y="293.479494"/>
      </g>
     </g>
     <g id="text_3">
      <!-- 0.6 -->
      <defs>
       <path d="M 33.015625 40.375 
Q 26.375 40.375 22.484375 35.828125 
Q 18.609375 31.296875 18.609375 23.390625 
Q 18.609375 15.53125 22.484375 10.953125 
Q 26.375 6.390625 33.015625 6.390625 
Q 39.65625 6.390625 43.53125 10.953125 
Q 47.40625 15.53125 47.40625 23.390625 
Q 47.40625 31.296875 43.53125 35.828125 
Q 39.65625 40.375 33.015625 40.375 
z
M 52.59375 71.296875 
L 52.59375 62.3125 
Q 48.875 64.0625 45.09375 64.984375 
Q 41.3125 65.921875 37.59375 65.921875 
Q 27.828125 65.921875 22.671875 59.328125 
Q 17.53125 52.734375 16.796875 39.40625 
Q 19.671875 43.65625 24.015625 45.921875 
Q 28.375 48.1875 33.59375 48.1875 
Q 44.578125 48.1875 50.953125 41.515625 
Q 57.328125 34.859375 57.328125 23.390625 
Q 57.328125 12.15625 50.6875 5.359375 
Q 44.046875 -1.421875 33.015625 -1.421875 
Q 20.359375 -1.421875 13.671875 8.265625 
Q 6.984375 17.96875 6.984375 36.375 
Q 6.984375 53.65625 15.1875 63.9375 
Q 23.390625 74.21875 37.203125 74.21875 
Q 40.921875 74.21875 44.703125 73.484375 
Q 48.484375 72.75 52.59375 71.296875 
z
" id="DejaVuSans-36"/>
      </defs>
      <g transform="translate(192.496438 308.077932)scale(0.1 -0.1)">
       <use xlink:href="#DejaVuSans-30"/>
       <use x="63.623047" xlink:href="#DejaVuSans-2e"/>
       <use x="95.410156" xlink:href="#DejaVuSans-36"/>
      </g>
     </g>
    </g>
    <g id="xtick_4">
     <g id="line2d_4">
      <g>
       <use style="stroke:#000000;stroke-width:0.8;" x="248.241011" xlink:href="#mb59219e148" y="293.479494"/>
      </g>
     </g>
     <g id="text_4">
      <!-- 0.8 -->
      <defs>
       <path d="M 31.78125 34.625 
Q 24.75 34.625 20.71875 30.859375 
Q 16.703125 27.09375 16.703125 20.515625 
Q 16.703125 13.921875 20.71875 10.15625 
Q 24.75 6.390625 31.78125 6.390625 
Q 38.8125 6.390625 42.859375 10.171875 
Q 46.921875 13.96875 46.921875 20.515625 
Q 46.921875 27.09375 42.890625 30.859375 
Q 38.875 34.625 31.78125 34.625 
z
M 21.921875 38.8125 
Q 15.578125 40.375 12.03125 44.71875 
Q 8.5 49.078125 8.5 55.328125 
Q 8.5 64.0625 14.71875 69.140625 
Q 20.953125 74.21875 31.78125 74.21875 
Q 42.671875 74.21875 48.875 69.140625 
Q 55.078125 64.0625 55.078125 55.328125 
Q 55.078125 49.078125 51.53125 44.71875 
Q 48 40.375 41.703125 38.8125 
Q 48.828125 37.15625 52.796875 32.3125 
Q 56.78125 27.484375 56.78125 20.515625 
Q 56.78125 9.90625 50.3125 4.234375 
Q 43.84375 -1.421875 31.78125 -1.421875 
Q 19.734375 -1.421875 13.25 4.234375 
Q 6.78125 9.90625 6.78125 20.515625 
Q 6.78125 27.484375 10.78125 32.3125 
Q 14.796875 37.15625 21.921875 38.8125 
z
M 18.3125 54.390625 
Q 18.3125 48.734375 21.84375 45.5625 
Q 25.390625 42.390625 31.78125 42.390625 
Q 38.140625 42.390625 41.71875 45.5625 
Q 45.3125 48.734375 45.3125 54.390625 
Q 45.3125 60.0625 41.71875 63.234375 
Q 38.140625 66.40625 31.78125 66.40625 
Q 25.390625 66.40625 21.84375 63.234375 
Q 18.3125 60.0625 18.3125 54.390625 
z
" id="DejaVuSans-38"/>
      </defs>
      <g transform="translate(240.289449 308.077932)scale(0.1 -0.1)">
       <use xlink:href="#DejaVuSans-30"/>
       <use x="63.623047" xlink:href="#DejaVuSans-2e"/>
       <use x="95.410156" xlink:href="#DejaVuSans-38"/>
      </g>
     </g>
    </g>
    <g id="xtick_5">
     <g id="line2d_5">
      <g>
       <use style="stroke:#000000;stroke-width:0.8;" x="296.034022" xlink:href="#mb59219e148" y="293.479494"/>
      </g>
     </g>
     <g id="text_5">
      <!-- 1.0 -->
      <defs>
       <path d="M 12.40625 8.296875 
L 28.515625 8.296875 
L 28.515625 63.921875 
L 10.984375 60.40625 
L 10.984375 69.390625 
L 28.421875 72.90625 
L 38.28125 72.90625 
L 38.28125 8.296875 
L 54.390625 8.296875 
L 54.390625 0 
L 12.40625 0 
z
" id="DejaVuSans-31"/>
      </defs>
      <g transform="translate(288.08246 308.077932)scale(0.1 -0.1)">
       <use xlink:href="#DejaVuSans-31"/>
       <use x="63.623047" xlink:href="#DejaVuSans-2e"/>
       <use x="95.410156" xlink:href="#DejaVuSans-30"/>
      </g>
     </g>
    </g>
   </g>
   <g id="matplotlib.axis_2">
    <g id="ytick_1">
     <g id="line2d_6">
      <defs>
       <path d="M 0 0 
L -3.5 0 
" id="m6ad9f85073" style="stroke:#000000;stroke-width:0.8;"/>
      </defs>
      <g>
       <use style="stroke:#000000;stroke-width:0.8;" x="57.6" xlink:href="#m6ad9f85073" y="246.217517"/>
      </g>
     </g>
     <g id="text_6">
      <!-- 0.2 -->
      <g transform="translate(34.696875 250.016735)scale(0.1 -0.1)">
       <use xlink:href="#DejaVuSans-30"/>
       <use x="63.623047" xlink:href="#DejaVuSans-2e"/>
       <use x="95.410156" xlink:href="#DejaVuSans-32"/>
      </g>
     </g>
    </g>
    <g id="ytick_2">
     <g id="line2d_7">
      <g>
       <use style="stroke:#000000;stroke-width:0.8;" x="57.6" xlink:href="#m6ad9f85073" y="198.424506"/>
      </g>
     </g>
     <g id="text_7">
      <!-- 0.4 -->
      <g transform="translate(34.696875 202.223724)scale(0.1 -0.1)">
       <use xlink:href="#DejaVuSans-30"/>
       <use x="63.623047" xlink:href="#DejaVuSans-2e"/>
       <use x="95.410156" xlink:href="#DejaVuSans-34"/>
      </g>
     </g>
    </g>
    <g id="ytick_3">
     <g id="line2d_8">
      <g>
       <use style="stroke:#000000;stroke-width:0.8;" x="57.6" xlink:href="#m6ad9f85073" y="150.631494"/>
      </g>
     </g>
     <g id="text_8">
      <!-- 0.6 -->
      <g transform="translate(34.696875 154.430713)scale(0.1 -0.1)">
       <use xlink:href="#DejaVuSans-30"/>
       <use x="63.623047" xlink:href="#DejaVuSans-2e"/>
       <use x="95.410156" xlink:href="#DejaVuSans-36"/>
      </g>
     </g>
    </g>
    <g id="ytick_4">
     <g id="line2d_9">
      <g>
       <use style="stroke:#000000;stroke-width:0.8;" x="57.6" xlink:href="#m6ad9f85073" y="102.838483"/>
      </g>
     </g>
     <g id="text_9">
      <!-- 0.8 -->
      <g transform="translate(34.696875 106.637702)scale(0.1 -0.1)">
       <use xlink:href="#DejaVuSans-30"/>
       <use x="63.623047" xlink:href="#DejaVuSans-2e"/>
       <use x="95.410156" xlink:href="#DejaVuSans-38"/>
      </g>
     </g>
    </g>
   </g>
   <g id="LineCollection_1">
    <path clip-path="url(#p406ffca51e)" d="M 115.898781 293.479494 
L 115.671573 292.417428 
L 115.309484 291.355361 
L 114.721084 290.293294 
L 113.760209 289.231227 
L 112.131168 288.16916 
L 110.703346 287.624456 
L 108.579212 287.041332 
L 105.393011 286.602383 
L 101.144743 286.316746 
L 85.21374 285.605187 
L 82.027539 285.168074 
L 78.841338 284.48843 
L 76.717204 283.82687 
L 74.463927 282.858825 
L 72.468937 281.667043 
L 71.280709 280.734691 
L 70.181636 279.672625 
L 69.272857 278.610558 
L 67.865103 276.486424 
L 66.798894 274.36229 
L 65.958289 272.238156 
L 64.989074 269.051955 
L 64.057484 264.803688 
L 63.393461 260.55542 
L 62.788351 255.245086 
L 62.201895 247.810617 
L 61.598291 237.189948 
L 60.767853 218.072743 
L 60.038169 195.769338 
L 59.394905 169.217665 
L 58.755965 133.10739 
L 58.171767 87.438513 
L 57.905164 55.576506 
L 57.905164 55.576506 
" style="fill:none;stroke:#000080;stroke-width:1.5;"/>
   </g>
   <g id="LineCollection_2">
    <path clip-path="url(#p406ffca51e)" d="M 285.946086 293.479494 
L 286.309908 291.355361 
L 286.888732 288.16916 
L 287.017917 286.045026 
L 286.913562 282.858825 
L 286.306573 276.486424 
L 285.319649 267.989888 
L 284.338192 260.55542 
L 283.327147 254.183019 
L 282.504951 249.934751 
L 281.444563 245.686483 
L 280.37472 242.500283 
L 279.419192 240.376149 
L 278.509918 238.862585 
L 277.447851 237.620379 
L 276.385784 236.770271 
L 275.107618 236.127881 
L 274.261651 235.840879 
L 272.137517 235.493575 
L 268.951316 235.418857 
L 244.523777 235.809349 
L 227.530706 236.042437 
L 215.84797 236.418848 
L 191.420431 237.319499 
L 185.04803 237.271004 
L 178.675628 236.994771 
L 172.303227 236.494282 
L 163.806691 235.571341 
L 147.875688 233.763817 
L 141.503286 233.283461 
L 135.130885 233.048728 
L 129.82055 233.062492 
L 123.448149 233.321412 
L 117.075747 233.806979 
L 111.765413 234.391351 
L 107.479482 235.065814 
L 104.330944 235.828957 
L 102.20681 236.579559 
L 100.082677 237.647097 
L 99.02061 238.347723 
L 97.84648 239.314082 
L 96.811112 240.376149 
L 95.834409 241.628927 
L 94.678337 243.562349 
L 93.710275 245.847303 
L 93.136621 247.810617 
L 92.648208 250.462605 
L 92.419924 253.120952 
L 92.183691 259.493353 
L 91.794799 261.617487 
L 91.441639 262.679554 
L 90.524074 264.376113 
L 90.22527 264.803688 
L 89.224716 265.865755 
L 87.717335 266.927822 
L 86.275807 267.552998 
L 85.21374 267.850559 
L 84.151673 268.008474 
L 82.675979 267.989888 
L 82.027539 267.92327 
L 80.965472 267.679099 
L 79.123479 266.927822 
L 78.841338 266.785957 
L 77.506927 265.865755 
L 76.334268 264.803688 
L 75.384859 263.741621 
L 74.571345 262.679554 
L 73.3068 260.55542 
L 72.286753 258.431286 
L 71.085596 255.245086 
L 70.123197 252.058885 
L 68.880697 246.74855 
L 67.898037 241.438216 
L 66.790909 234.003747 
L 65.643488 224.445145 
L 64.610376 213.824476 
L 63.613337 201.079673 
L 62.627081 185.148669 
L 61.650483 164.969398 
L 60.691929 139.479792 
L 59.767196 107.617784 
L 58.717986 63.010974 
L 58.699689 57.700639 
L 58.746823 55.576506 
L 58.746823 55.576506 
" style="fill:none;stroke:#0000e8;stroke-width:1.5;"/>
   </g>
   <g id="LineCollection_3">
    <path clip-path="url(#p406ffca51e)" d="M 290.056643 293.479494 
L 290.469341 288.16916 
L 290.442251 284.982959 
L 290.08779 278.610558 
L 288.371925 254.183019 
L 287.382575 241.438216 
L 286.496173 231.879613 
L 285.533333 223.383078 
L 284.457132 215.94861 
L 283.458651 210.638275 
L 282.398714 206.390007 
L 281.299819 203.203807 
L 280.634052 201.678698 
L 279.563127 200.017606 
L 278.446087 198.955539 
L 277.447851 198.420421 
L 276.385784 198.191041 
L 275.323717 198.200034 
L 273.199584 198.62726 
L 266.827182 200.398664 
L 263.640981 200.93062 
L 260.454781 201.224482 
L 256.206513 201.385509 
L 247.709978 201.416849 
L 212.66177 201.451224 
L 186.110097 201.612249 
L 164.868758 201.987042 
L 138.317086 202.414683 
L 127.696416 202.446686 
L 122.386082 202.281218 
L 117.075747 201.870287 
L 111.765413 201.178268 
L 102.20681 199.773698 
L 99.02061 199.626215 
L 96.896476 199.755323 
L 94.772342 200.144798 
L 92.648208 200.874373 
L 91.586141 201.393255 
L 89.462007 202.790227 
L 87.796132 204.265874 
L 86.275807 205.885417 
L 84.151673 208.578106 
L 79.494402 214.886543 
L 78.49303 215.94861 
L 77.779271 216.595026 
L 76.717204 217.22214 
L 75.655138 217.430393 
L 74.446459 217.010677 
L 73.329946 215.94861 
L 72.468937 214.677725 
L 71.201659 211.700342 
L 70.204103 208.514141 
L 68.97311 203.203807 
L 67.839495 196.831405 
L 66.79082 189.396937 
L 65.710575 179.838335 
L 64.648382 168.155599 
L 63.560198 153.286662 
L 62.495604 135.231524 
L 61.43895 112.928119 
L 60.390511 85.314379 
L 59.545963 58.762706 
L 59.640623 55.576506 
L 59.640623 55.576506 
" style="fill:none;stroke:#0038ff;stroke-width:1.5;"/>
   </g>
   <g id="LineCollection_4">
    <path clip-path="url(#p406ffca51e)" d="M 292.319016 293.479494 
L 292.442434 284.982959 
L 292.10697 277.548491 
L 288.877459 218.072743 
L 287.68951 203.203807 
L 286.609765 192.583138 
L 285.508167 184.086602 
L 284.441669 177.714201 
L 283.532378 173.465933 
L 282.669088 170.279732 
L 281.421755 167.093532 
L 280.634052 165.626765 
L 279.571985 164.404339 
L 278.509918 163.790695 
L 277.447851 163.651244 
L 276.292756 163.907331 
L 275.323717 164.332583 
L 273.199584 165.68571 
L 269.642842 168.155599 
L 267.832467 169.217665 
L 265.492416 170.279732 
L 263.640981 170.894004 
L 261.516848 171.369984 
L 259.392714 171.657957 
L 256.206513 171.840844 
L 251.958245 171.82743 
L 234.965175 171.527421 
L 106.455078 171.159166 
L 96.896476 170.971349 
L 93.710275 171.151591 
L 91.586141 171.447685 
L 89.462007 171.948714 
L 87.337874 172.712757 
L 85.21374 173.788995 
L 83.089606 175.188141 
L 77.779271 179.171403 
L 76.717204 179.66596 
L 75.495013 179.838335 
L 74.593071 179.670016 
L 73.39373 178.776268 
L 72.468937 177.592076 
L 71.40687 175.457453 
L 70.06939 171.341799 
L 69.044121 167.093532 
L 67.87228 160.72113 
L 66.797365 153.286662 
L 65.690911 143.728059 
L 64.598271 132.045323 
L 63.473722 117.176387 
L 62.430257 100.183316 
L 60.780676 68.321309 
L 60.492178 60.88684 
L 60.536481 57.700639 
L 60.638396 55.576506 
L 60.638396 55.576506 
" style="fill:none;stroke:#0094ff;stroke-width:1.5;"/>
   </g>
   <g id="LineCollection_5">
    <path clip-path="url(#p406ffca51e)" d="M 294.022884 293.479494 
L 293.93875 281.796758 
L 292.845206 252.058885 
L 291.627615 222.321011 
L 290.656101 203.203807 
L 289.664298 187.272803 
L 288.597998 173.465933 
L 287.569628 162.845264 
L 286.533336 154.348729 
L 285.550515 147.976327 
L 284.496201 142.665993 
L 283.704166 139.479792 
L 282.642902 136.293591 
L 281.65743 134.169457 
L 280.634052 132.713504 
L 279.571985 131.877015 
L 278.509918 131.600219 
L 277.447851 131.777842 
L 276.385784 132.315614 
L 275.323717 133.125618 
L 273.199584 135.252258 
L 268.951316 139.856638 
L 266.827182 141.75062 
L 264.703048 143.225841 
L 262.578914 144.287234 
L 260.454781 144.982912 
L 258.330647 145.378231 
L 256.206513 145.539316 
L 253.020312 145.476842 
L 248.772045 145.091646 
L 241.337576 144.356658 
L 236.027242 144.103758 
L 229.65484 144.097331 
L 206.289368 144.382731 
L 144.689487 144.361113 
L 91.586141 144.476799 
L 88.356727 144.790126 
L 85.21374 145.378669 
L 83.089606 145.974014 
L 77.779271 147.78544 
L 76.717204 147.98006 
L 75.630377 147.976327 
L 74.593071 147.700249 
L 73.439585 146.91426 
L 72.468937 145.811125 
L 71.325194 143.728059 
L 70.144163 140.541859 
L 69.007066 136.293591 
L 67.928024 130.983257 
L 66.763863 123.548788 
L 65.710418 115.052253 
L 64.556595 103.369517 
L 63.458272 89.562647 
L 61.711301 64.073041 
L 61.601208 59.824773 
L 61.814448 55.576506 
L 61.814448 55.576506 
" style="fill:none;stroke:#0cf4eb;stroke-width:1.5;"/>
   </g>
   <g id="LineCollection_6">
    <path clip-path="url(#p406ffca51e)" d="M 295.542705 293.479494 
L 295.30146 276.486424 
L 294.227788 239.314082 
L 293.107506 207.452074 
L 292.01846 183.024535 
L 290.937018 163.907331 
L 289.864563 149.038394 
L 288.784122 137.355658 
L 287.782163 128.859123 
L 286.648602 121.424654 
L 285.596477 116.11432 
L 284.490899 111.866052 
L 283.817093 109.741918 
L 282.758186 107.275807 
L 281.62379 105.493651 
L 280.479075 104.431584 
L 279.571985 103.997785 
L 278.509918 103.958721 
L 277.267932 104.431584 
L 276.385784 104.997516 
L 274.748158 106.555717 
L 273.199584 108.342749 
L 267.889249 115.059344 
L 265.765115 117.327632 
L 263.640981 119.155446 
L 261.516848 120.513675 
L 259.386414 121.424654 
L 257.26858 121.935151 
L 255.144446 122.114737 
L 253.020312 122.032242 
L 250.896178 121.75603 
L 247.709978 121.116849 
L 239.213442 119.240237 
L 234.965175 118.631449 
L 230.716907 118.322883 
L 226.468639 118.269585 
L 220.096238 118.48041 
L 204.165234 119.155893 
L 192.482498 119.352591 
L 164.868758 119.504641 
L 117.075747 119.832166 
L 89.462007 120.176754 
L 85.21374 120.435802 
L 77.779271 121.124478 
L 76.717204 121.07688 
L 75.655138 120.886899 
L 74.416287 120.362587 
L 73.531004 119.766231 
L 72.230486 118.238454 
L 71.40687 116.911297 
L 70.19529 113.990186 
L 68.963323 109.741918 
L 68.020802 105.493651 
L 66.781174 98.059182 
L 65.682341 89.562647 
L 64.46297 77.879911 
L 63.295699 65.135108 
L 63.081392 60.88684 
L 63.159405 58.762706 
L 63.445615 55.576506 
L 63.445615 55.576506 
" style="fill:none;stroke:#56ffa0;stroke-width:1.5;"/>
   </g>
   <g id="LineCollection_7">
    <path clip-path="url(#p406ffca51e)" d="M 300.711327 293.479494 
L 300.603858 287.107093 
L 300.281733 280.734691 
L 299.675142 273.300223 
L 298.463367 261.617487 
L 296.486434 243.562349 
L 295.086199 207.452074 
L 294.07678 178.776268 
L 293.08143 156.472862 
L 292.046327 138.417725 
L 291.019107 124.610855 
L 289.882806 112.928119 
L 288.819657 104.431584 
L 287.8081 98.059182 
L 286.710722 92.748848 
L 285.875246 89.562647 
L 284.778558 86.376446 
L 283.820253 84.22384 
L 282.545734 82.128178 
L 281.696119 81.031469 
L 280.63112 80.004045 
L 279.571985 79.275831 
L 278.509918 78.77679 
L 277.447851 78.496313 
L 276.385784 78.402529 
L 275.323717 78.488269 
L 273.760337 78.941978 
L 273.199584 79.19162 
L 271.900063 80.004045 
L 270.691491 81.066112 
L 269.752029 82.128178 
L 268.309373 84.252312 
L 266.827182 87.049769 
L 263.898201 92.748848 
L 262.578914 94.737569 
L 261.516848 96.037891 
L 260.454781 97.108283 
L 259.283642 98.059182 
L 257.518743 99.121249 
L 256.206513 99.682591 
L 254.082379 100.257693 
L 251.958245 100.522169 
L 249.834112 100.572582 
L 246.647911 100.390243 
L 242.399643 99.894599 
L 225.406572 97.683801 
L 219.034171 97.135924 
L 212.66177 96.787402 
L 205.227301 96.600141 
L 194.606632 96.592554 
L 168.054959 96.678464 
L 149.999822 96.441418 
L 78.841338 95.129653 
L 76.717204 94.764325 
L 75.655138 94.40455 
L 74.536106 93.810914 
L 73.287805 92.748848 
L 72.391369 91.686781 
L 71.184898 89.562647 
L 70.280078 87.438513 
L 69.018218 83.190245 
L 67.857811 77.879911 
L 66.773708 71.507509 
L 65.932527 65.135108 
L 65.768796 61.948907 
L 65.852606 59.824773 
L 66.31998 55.576506 
L 66.31998 55.576506 
" style="fill:none;stroke:#a0ff56;stroke-width:1.5;"/>
   </g>
   <g id="LineCollection_8">
    <path clip-path="url(#p406ffca51e)" d="M 308.22293 293.479494 
L 308.080787 284.982959 
L 307.697413 276.486424 
L 306.961228 265.865755 
L 305.757548 252.058885 
L 303.999524 234.539736 
L 302.024473 217.010677 
L 300.020906 201.079673 
L 297.936411 186.210736 
L 296.53191 176.652134 
L 294.925854 144.790126 
L 294.021182 126.734989 
L 293.061505 111.866052 
L 292.100146 100.183316 
L 291.188809 91.686781 
L 290.235747 85.314379 
L 289.58228 82.128178 
L 288.751092 78.941978 
L 288.049505 76.817844 
L 287.006454 74.429953 
L 285.914475 72.569576 
L 284.88232 71.245225 
L 283.820253 70.195308 
L 282.758186 69.380035 
L 280.738061 68.321309 
L 279.571985 67.91912 
L 277.447851 67.459472 
L 275.323717 67.275443 
L 273.199584 67.309995 
L 271.07545 67.522844 
L 267.889249 68.118953 
L 264.703048 69.013663 
L 261.516848 70.164494 
L 258.330647 71.524121 
L 247.709978 76.389299 
L 244.523777 77.440443 
L 242.399643 77.94299 
L 240.275509 78.278236 
L 237.089309 78.496209 
L 233.903108 78.421431 
L 230.716907 78.120952 
L 226.468639 77.46576 
L 220.096238 76.186087 
L 199.916967 71.975323 
L 186.110097 69.25672 
L 179.737695 67.733462 
L 176.551494 66.827104 
L 173.365294 65.754358 
L 171.24116 64.906221 
L 169.117026 63.873714 
L 166.992892 62.506432 
L 165.930825 61.597714 
L 165.250547 60.88684 
L 164.551694 59.824773 
L 164.121338 58.762706 
L 163.908852 57.700639 
L 163.916196 55.576506 
L 163.916196 55.576506 
" style="fill:none;stroke:#ebff0c;stroke-width:1.5;"/>
   </g>
   <g id="LineCollection_9">
    <path clip-path="url(#p406ffca51e)" d="M 315.938202 293.479494 
L 315.815157 283.920892 
L 315.43993 273.300223 
L 314.740034 260.55542 
L 313.626585 244.624416 
L 312.062621 225.507212 
L 310.276451 206.390007 
L 308.472943 189.396937 
L 306.686967 174.528 
L 304.808553 160.72113 
L 302.937457 148.597665 
L 301.165364 138.417725 
L 299.293538 128.859123 
L 297.423004 120.362587 
L 296.510375 116.11432 
L 294.834325 94.872981 
L 294.101241 86.376446 
L 293.326187 80.004045 
L 292.584638 75.755777 
L 291.815045 72.569576 
L 291.134172 70.445442 
L 290.192654 68.266891 
L 288.903089 66.197175 
L 288.012912 65.135108 
L 286.872242 64.073041 
L 284.88232 62.686266 
L 282.758186 61.593342 
L 276.385784 58.760547 
L 275.156679 57.700639 
L 274.675364 56.638572 
L 274.696443 55.576506 
L 274.696443 55.576506 
" style="fill:none;stroke:#ffab00;stroke-width:1.5;"/>
   </g>
   <g id="LineCollection_10">
    <path clip-path="url(#p406ffca51e)" d="M 323.801766 293.479494 
L 323.683484 281.796758 
L 323.33524 269.051955 
L 322.665755 253.120952 
L 321.575351 232.94168 
L 320.147452 210.638275 
L 318.644864 190.459004 
L 317.080627 172.403866 
L 315.471134 156.472862 
L 313.845146 142.665993 
L 312.252052 130.983257 
L 310.583813 120.362587 
L 308.856796 110.803985 
L 307.094693 102.30745 
L 305.326526 94.872981 
L 303.58537 88.50058 
L 301.87539 83.075973 
L 300.375621 78.941978 
L 298.575384 74.69371 
L 296.963609 71.507509 
L 296.565056 70.804172 
L 295.720496 67.259242 
L 295.444183 66.197175 
L 294.71642 63.010974 
L 293.73873 59.824773 
L 292.432767 55.576506 
L 292.432767 55.576506 
" style="fill:none;stroke:#ff5500;stroke-width:1.5;"/>
   </g>
   <g id="LineCollection_11">
    <path clip-path="url(#p406ffca51e)" d="M 331.761301 293.479494 
L 331.633637 277.548491 
L 331.229084 257.369219 
L 330.539531 235.065814 
L 329.386859 205.327941 
L 328.23072 180.900401 
L 327.007038 159.659063 
L 325.818026 142.665993 
L 324.56975 127.797056 
L 323.183732 113.990186 
L 321.789112 102.30745 
L 320.159882 90.624714 
L 316.400153 65.135108 
L 316.038972 60.88684 
L 315.881732 56.638572 
L 315.878084 55.576506 
L 315.878084 55.576506 
" style="fill:none;stroke:#e80000;stroke-width:1.5;"/>
   </g>
   <g id="LineCollection_12">
    <path clip-path="url(#p406ffca51e)" d="M 339.773323 293.479494 
L 339.674664 272.238156 
L 339.34655 231.879613 
L 338.681471 184.086602 
L 337.953907 147.976327 
L 337.174618 120.362587 
L 336.465858 101.245383 
L 334.967282 65.135108 
L 334.856323 55.576506 
L 334.856323 55.576506 
" style="fill:none;stroke:#800000;stroke-width:1.5;"/>
   </g>
   <g id="patch_3">
    <path d="M 57.6 293.479494 
L 57.6 55.576506 
" style="fill:none;stroke:#000000;stroke-linecap:square;stroke-linejoin:miter;stroke-width:0.8;"/>
   </g>
   <g id="patch_4">
    <path d="M 343.296 293.479494 
L 343.296 55.576506 
" style="fill:none;stroke:#000000;stroke-linecap:square;stroke-linejoin:miter;stroke-width:0.8;"/>
   </g>
   <g id="patch_5">
    <path d="M 57.6 293.479494 
L 343.296 293.479494 
" style="fill:none;stroke:#000000;stroke-linecap:square;stroke-linejoin:miter;stroke-width:0.8;"/>
   </g>
   <g id="patch_6">
    <path d="M 57.6 55.576506 
L 343.296 55.576506 
" style="fill:none;stroke:#000000;stroke-linecap:square;stroke-linejoin:miter;stroke-width:0.8;"/>
   </g>
   <g id="text_10">
    <!-- Time:0.16461 s -->
    <defs>
     <path d="M -0.296875 72.90625 
L 61.375 72.90625 
L 61.375 64.59375 
L 35.5 64.59375 
L 35.5 0 
L 25.59375 0 
L 25.59375 64.59375 
L -0.296875 64.59375 
z
" id="DejaVuSans-54"/>
     <path d="M 9.421875 54.6875 
L 18.40625 54.6875 
L 18.40625 0 
L 9.421875 0 
z
M 9.421875 75.984375 
L 18.40625 75.984375 
L 18.40625 64.59375 
L 9.421875 64.59375 
z
" id="DejaVuSans-69"/>
     <path d="M 52 44.1875 
Q 55.375 50.25 60.0625 53.125 
Q 64.75 56 71.09375 56 
Q 79.640625 56 84.28125 50.015625 
Q 88.921875 44.046875 88.921875 33.015625 
L 88.921875 0 
L 79.890625 0 
L 79.890625 32.71875 
Q 79.890625 40.578125 77.09375 44.375 
Q 74.3125 48.1875 68.609375 48.1875 
Q 61.625 48.1875 57.5625 43.546875 
Q 53.515625 38.921875 53.515625 30.90625 
L 53.515625 0 
L 44.484375 0 
L 44.484375 32.71875 
Q 44.484375 40.625 41.703125 44.40625 
Q 38.921875 48.1875 33.109375 48.1875 
Q 26.21875 48.1875 22.15625 43.53125 
Q 18.109375 38.875 18.109375 30.90625 
L 18.109375 0 
L 9.078125 0 
L 9.078125 54.6875 
L 18.109375 54.6875 
L 18.109375 46.1875 
Q 21.1875 51.21875 25.484375 53.609375 
Q 29.78125 56 35.6875 56 
Q 41.65625 56 45.828125 52.96875 
Q 50 49.953125 52 44.1875 
z
" id="DejaVuSans-6d"/>
     <path d="M 56.203125 29.59375 
L 56.203125 25.203125 
L 14.890625 25.203125 
Q 15.484375 15.921875 20.484375 11.0625 
Q 25.484375 6.203125 34.421875 6.203125 
Q 39.59375 6.203125 44.453125 7.46875 
Q 49.3125 8.734375 54.109375 11.28125 
L 54.109375 2.78125 
Q 49.265625 0.734375 44.1875 -0.34375 
Q 39.109375 -1.421875 33.890625 -1.421875 
Q 20.796875 -1.421875 13.15625 6.1875 
Q 5.515625 13.8125 5.515625 26.8125 
Q 5.515625 40.234375 12.765625 48.109375 
Q 20.015625 56 32.328125 56 
Q 43.359375 56 49.78125 48.890625 
Q 56.203125 41.796875 56.203125 29.59375 
z
M 47.21875 32.234375 
Q 47.125 39.59375 43.09375 43.984375 
Q 39.0625 48.390625 32.421875 48.390625 
Q 24.90625 48.390625 20.390625 44.140625 
Q 15.875 39.890625 15.1875 32.171875 
z
" id="DejaVuSans-65"/>
     <path d="M 11.71875 12.40625 
L 22.015625 12.40625 
L 22.015625 0 
L 11.71875 0 
z
M 11.71875 51.703125 
L 22.015625 51.703125 
L 22.015625 39.3125 
L 11.71875 39.3125 
z
" id="DejaVuSans-3a"/>
     <path id="DejaVuSans-20"/>
     <path d="M 44.28125 53.078125 
L 44.28125 44.578125 
Q 40.484375 46.53125 36.375 47.5 
Q 32.28125 48.484375 27.875 48.484375 
Q 21.1875 48.484375 17.84375 46.4375 
Q 14.5 44.390625 14.5 40.28125 
Q 14.5 37.15625 16.890625 35.375 
Q 19.28125 33.59375 26.515625 31.984375 
L 29.59375 31.296875 
Q 39.15625 29.25 43.1875 25.515625 
Q 47.21875 21.78125 47.21875 15.09375 
Q 47.21875 7.46875 41.1875 3.015625 
Q 35.15625 -1.421875 24.609375 -1.421875 
Q 20.21875 -1.421875 15.453125 -0.5625 
Q 10.6875 0.296875 5.421875 2 
L 5.421875 11.28125 
Q 10.40625 8.6875 15.234375 7.390625 
Q 20.0625 6.109375 24.8125 6.109375 
Q 31.15625 6.109375 34.5625 8.28125 
Q 37.984375 10.453125 37.984375 14.40625 
Q 37.984375 18.0625 35.515625 20.015625 
Q 33.0625 21.96875 24.703125 23.78125 
L 21.578125 24.515625 
Q 13.234375 26.265625 9.515625 29.90625 
Q 5.8125 33.546875 5.8125 39.890625 
Q 5.8125 47.609375 11.28125 51.796875 
Q 16.75 56 26.8125 56 
Q 31.78125 56 36.171875 55.265625 
Q 40.578125 54.546875 44.28125 53.078125 
z
" id="DejaVuSans-73"/>
    </defs>
    <g transform="translate(153.717375 49.576506)scale(0.12 -0.12)">
     <use xlink:href="#DejaVuSans-54"/>
     <use x="61.037109" xlink:href="#DejaVuSans-69"/>
     <use x="88.820312" xlink:href="#DejaVuSans-6d"/>
     <use x="186.232422" xlink:href="#DejaVuSans-65"/>
     <use x="247.755859" xlink:href="#DejaVuSans-3a"/>
     <use x="281.447266" xlink:href="#DejaVuSans-30"/>
     <use x="345.070312" xlink:href="#DejaVuSans-2e"/>
     <use x="376.857422" xlink:href="#DejaVuSans-31"/>
     <use x="440.480469" xlink:href="#DejaVuSans-36"/>
     <use x="504.103516" xlink:href="#DejaVuSans-34"/>
     <use x="567.726562" xlink:href="#DejaVuSans-36"/>
     <use x="631.349609" xlink:href="#DejaVuSans-31"/>
     <use x="694.972656" xlink:href="#DejaVuSans-20"/>
     <use x="726.759766" xlink:href="#DejaVuSans-73"/>
    </g>
   </g>
  </g>
  <g id="axes_2">
   <g id="patch_7">
    <path clip-path="url(#pcb2ee372a1)" d="M 361.152 307.584 
L 361.152 283.392 
L 361.152 65.664 
L 361.152 41.472 
L 374.4576 41.472 
L 374.4576 65.664 
L 374.4576 283.392 
L 374.4576 307.584 
z
" style="fill:#ffffff;stroke:#ffffff;stroke-linejoin:miter;stroke-width:0.01;"/>
   </g>
   <g id="matplotlib.axis_3"/>
   <g id="matplotlib.axis_4">
    <g id="ytick_5">
     <g id="line2d_10">
      <defs>
       <path d="M 0 0 
L 3.5 0 
" id="ma312208571" style="stroke:#000000;stroke-width:0.8;"/>
      </defs>
      <g>
       <use style="stroke:#000000;stroke-width:0.8;" x="374.4576" xlink:href="#ma312208571" y="307.584"/>
      </g>
     </g>
     <g id="text_11">
      <!-- 0.08 -->
      <g transform="translate(381.4576 311.383219)scale(0.1 -0.1)">
       <use xlink:href="#DejaVuSans-30"/>
       <use x="63.623047" xlink:href="#DejaVuSans-2e"/>
       <use x="95.410156" xlink:href="#DejaVuSans-30"/>
       <use x="159.033203" xlink:href="#DejaVuSans-38"/>
      </g>
     </g>
    </g>
    <g id="ytick_6">
     <g id="line2d_11">
      <g>
       <use style="stroke:#000000;stroke-width:0.8;" x="374.4576" xlink:href="#ma312208571" y="259.2"/>
      </g>
     </g>
     <g id="text_12">
      <!-- 0.24 -->
      <g transform="translate(381.4576 262.999219)scale(0.1 -0.1)">
       <use xlink:href="#DejaVuSans-30"/>
       <use x="63.623047" xlink:href="#DejaVuSans-2e"/>
       <use x="95.410156" xlink:href="#DejaVuSans-32"/>
       <use x="159.033203" xlink:href="#DejaVuSans-34"/>
      </g>
     </g>
    </g>
    <g id="ytick_7">
     <g id="line2d_12">
      <g>
       <use style="stroke:#000000;stroke-width:0.8;" x="374.4576" xlink:href="#ma312208571" y="210.816"/>
      </g>
     </g>
     <g id="text_13">
      <!-- 0.40 -->
      <g transform="translate(381.4576 214.615219)scale(0.1 -0.1)">
       <use xlink:href="#DejaVuSans-30"/>
       <use x="63.623047" xlink:href="#DejaVuSans-2e"/>
       <use x="95.410156" xlink:href="#DejaVuSans-34"/>
       <use x="159.033203" xlink:href="#DejaVuSans-30"/>
      </g>
     </g>
    </g>
    <g id="ytick_8">
     <g id="line2d_13">
      <g>
       <use style="stroke:#000000;stroke-width:0.8;" x="374.4576" xlink:href="#ma312208571" y="162.432"/>
      </g>
     </g>
     <g id="text_14">
      <!-- 0.56 -->
      <defs>
       <path d="M 10.796875 72.90625 
L 49.515625 72.90625 
L 49.515625 64.59375 
L 19.828125 64.59375 
L 19.828125 46.734375 
Q 21.96875 47.46875 24.109375 47.828125 
Q 26.265625 48.1875 28.421875 48.1875 
Q 40.625 48.1875 47.75 41.5 
Q 54.890625 34.8125 54.890625 23.390625 
Q 54.890625 11.625 47.5625 5.09375 
Q 40.234375 -1.421875 26.90625 -1.421875 
Q 22.3125 -1.421875 17.546875 -0.640625 
Q 12.796875 0.140625 7.71875 1.703125 
L 7.71875 11.625 
Q 12.109375 9.234375 16.796875 8.0625 
Q 21.484375 6.890625 26.703125 6.890625 
Q 35.15625 6.890625 40.078125 11.328125 
Q 45.015625 15.765625 45.015625 23.390625 
Q 45.015625 31 40.078125 35.4375 
Q 35.15625 39.890625 26.703125 39.890625 
Q 22.75 39.890625 18.8125 39.015625 
Q 14.890625 38.140625 10.796875 36.28125 
z
" id="DejaVuSans-35"/>
      </defs>
      <g transform="translate(381.4576 166.231219)scale(0.1 -0.1)">
       <use xlink:href="#DejaVuSans-30"/>
       <use x="63.623047" xlink:href="#DejaVuSans-2e"/>
       <use x="95.410156" xlink:href="#DejaVuSans-35"/>
       <use x="159.033203" xlink:href="#DejaVuSans-36"/>
      </g>
     </g>
    </g>
    <g id="ytick_9">
     <g id="line2d_14">
      <g>
       <use style="stroke:#000000;stroke-width:0.8;" x="374.4576" xlink:href="#ma312208571" y="114.048"/>
      </g>
     </g>
     <g id="text_15">
      <!-- 0.72 -->
      <defs>
       <path d="M 8.203125 72.90625 
L 55.078125 72.90625 
L 55.078125 68.703125 
L 28.609375 0 
L 18.3125 0 
L 43.21875 64.59375 
L 8.203125 64.59375 
z
" id="DejaVuSans-37"/>
      </defs>
      <g transform="translate(381.4576 117.847219)scale(0.1 -0.1)">
       <use xlink:href="#DejaVuSans-30"/>
       <use x="63.623047" xlink:href="#DejaVuSans-2e"/>
       <use x="95.410156" xlink:href="#DejaVuSans-37"/>
       <use x="159.033203" xlink:href="#DejaVuSans-32"/>
      </g>
     </g>
    </g>
    <g id="ytick_10">
     <g id="line2d_15">
      <g>
       <use style="stroke:#000000;stroke-width:0.8;" x="374.4576" xlink:href="#ma312208571" y="65.664"/>
      </g>
     </g>
     <g id="text_16">
      <!-- 0.88 -->
      <g transform="translate(381.4576 69.463219)scale(0.1 -0.1)">
       <use xlink:href="#DejaVuSans-30"/>
       <use x="63.623047" xlink:href="#DejaVuSans-2e"/>
       <use x="95.410156" xlink:href="#DejaVuSans-38"/>
       <use x="159.033203" xlink:href="#DejaVuSans-38"/>
      </g>
     </g>
    </g>
   </g>
   <g id="LineCollection_13">
    <path clip-path="url(#pcb2ee372a1)" d="M 361.152 307.584 
L 374.4576 307.584 
" style="fill:none;stroke:#000080;stroke-width:1.5;"/>
    <path clip-path="url(#pcb2ee372a1)" d="M 361.152 283.392 
L 374.4576 283.392 
" style="fill:none;stroke:#0000e8;stroke-width:1.5;"/>
    <path clip-path="url(#pcb2ee372a1)" d="M 361.152 259.2 
L 374.4576 259.2 
" style="fill:none;stroke:#0038ff;stroke-width:1.5;"/>
    <path clip-path="url(#pcb2ee372a1)" d="M 361.152 235.008 
L 374.4576 235.008 
" style="fill:none;stroke:#0094ff;stroke-width:1.5;"/>
    <path clip-path="url(#pcb2ee372a1)" d="M 361.152 210.816 
L 374.4576 210.816 
" style="fill:none;stroke:#0cf4eb;stroke-width:1.5;"/>
    <path clip-path="url(#pcb2ee372a1)" d="M 361.152 186.624 
L 374.4576 186.624 
" style="fill:none;stroke:#56ffa0;stroke-width:1.5;"/>
    <path clip-path="url(#pcb2ee372a1)" d="M 361.152 162.432 
L 374.4576 162.432 
" style="fill:none;stroke:#a0ff56;stroke-width:1.5;"/>
    <path clip-path="url(#pcb2ee372a1)" d="M 361.152 138.24 
L 374.4576 138.24 
" style="fill:none;stroke:#ebff0c;stroke-width:1.5;"/>
    <path clip-path="url(#pcb2ee372a1)" d="M 361.152 114.048 
L 374.4576 114.048 
" style="fill:none;stroke:#ffab00;stroke-width:1.5;"/>
    <path clip-path="url(#pcb2ee372a1)" d="M 361.152 89.856 
L 374.4576 89.856 
" style="fill:none;stroke:#ff5500;stroke-width:1.5;"/>
    <path clip-path="url(#pcb2ee372a1)" d="M 361.152 65.664 
L 374.4576 65.664 
" style="fill:none;stroke:#e80000;stroke-width:1.5;"/>
    <path clip-path="url(#pcb2ee372a1)" d="M 361.152 41.472 
L 374.4576 41.472 
" style="fill:none;stroke:#800000;stroke-width:1.5;"/>
   </g>
   <g id="patch_8">
    <path d="M 361.152 307.584 
L 361.152 283.392 
L 361.152 65.664 
L 361.152 41.472 
L 374.4576 41.472 
L 374.4576 65.664 
L 374.4576 283.392 
L 374.4576 307.584 
z
" style="fill:none;stroke:#000000;stroke-linejoin:miter;stroke-width:0.8;"/>
   </g>
  </g>
 </g>
 <defs>
  <clipPath id="p406ffca51e">
   <rect height="237.902989" width="285.696" x="57.6" y="55.576506"/>
  </clipPath>
  <clipPath id="pcb2ee372a1">
   <rect height="266.112" width="13.3056" x="361.152" y="41.472"/>
  </clipPath>
 </defs>
</svg>
