<?xml version="1.0" encoding="utf-8" standalone="no"?>
<!DOCTYPE svg PUBLIC "-//W3C//DTD SVG 1.1//EN"
  "http://www.w3.org/Graphics/SVG/1.1/DTD/svg11.dtd">
<!-- Created with matplotlib (http://matplotlib.org/) -->
<svg height="345.6pt" version="1.1" viewBox="0 0 460.8 345.6" width="460.8pt" xmlns="http://www.w3.org/2000/svg" xmlns:xlink="http://www.w3.org/1999/xlink">
 <defs>
  <style type="text/css">
*{stroke-linecap:butt;stroke-linejoin:round;}
  </style>
 </defs>
 <g id="figure_1">
  <g id="patch_1">
   <path d="M 0 345.6 
L 460.8 345.6 
L 460.8 0 
L 0 0 
z
" style="fill:#ffffff;"/>
  </g>
  <g id="axes_1">
   <g id="patch_2">
    <path d="M 57.6 293.479494 
L 343.296 293.479494 
L 343.296 55.576506 
L 57.6 55.576506 
z
" style="fill:#ffffff;"/>
   </g>
   <g id="matplotlib.axis_1">
    <g id="xtick_1">
     <g id="line2d_1">
      <defs>
       <path d="M 0 0 
L 0 3.5 
" id="mf7097e2701" style="stroke:#000000;stroke-width:0.8;"/>
      </defs>
      <g>
       <use style="stroke:#000000;stroke-width:0.8;" x="104.861978" xlink:href="#mf7097e2701" y="293.479494"/>
      </g>
     </g>
     <g id="text_1">
      <!-- 0.2 -->
      <defs>
       <path d="M 31.78125 66.40625 
Q 24.171875 66.40625 20.328125 58.90625 
Q 16.5 51.421875 16.5 36.375 
Q 16.5 21.390625 20.328125 13.890625 
Q 24.171875 6.390625 31.78125 6.390625 
Q 39.453125 6.390625 43.28125 13.890625 
Q 47.125 21.390625 47.125 36.375 
Q 47.125 51.421875 43.28125 58.90625 
Q 39.453125 66.40625 31.78125 66.40625 
z
M 31.78125 74.21875 
Q 44.046875 74.21875 50.515625 64.515625 
Q 56.984375 54.828125 56.984375 36.375 
Q 56.984375 17.96875 50.515625 8.265625 
Q 44.046875 -1.421875 31.78125 -1.421875 
Q 19.53125 -1.421875 13.0625 8.265625 
Q 6.59375 17.96875 6.59375 36.375 
Q 6.59375 54.828125 13.0625 64.515625 
Q 19.53125 74.21875 31.78125 74.21875 
z
" id="DejaVuSans-30"/>
       <path d="M 10.6875 12.40625 
L 21 12.40625 
L 21 0 
L 10.6875 0 
z
" id="DejaVuSans-2e"/>
       <path d="M 19.1875 8.296875 
L 53.609375 8.296875 
L 53.609375 0 
L 7.328125 0 
L 7.328125 8.296875 
Q 12.9375 14.109375 22.625 23.890625 
Q 32.328125 33.6875 34.8125 36.53125 
Q 39.546875 41.84375 41.421875 45.53125 
Q 43.3125 49.21875 43.3125 52.78125 
Q 43.3125 58.59375 39.234375 62.25 
Q 35.15625 65.921875 28.609375 65.921875 
Q 23.96875 65.921875 18.8125 64.3125 
Q 13.671875 62.703125 7.8125 59.421875 
L 7.8125 69.390625 
Q 13.765625 71.78125 18.9375 73 
Q 24.125 74.21875 28.421875 74.21875 
Q 39.75 74.21875 46.484375 68.546875 
Q 53.21875 62.890625 53.21875 53.421875 
Q 53.21875 48.921875 51.53125 44.890625 
Q 49.859375 40.875 45.40625 35.40625 
Q 44.1875 33.984375 37.640625 27.21875 
Q 31.109375 20.453125 19.1875 8.296875 
z
" id="DejaVuSans-32"/>
      </defs>
      <g transform="translate(96.910415 308.077932)scale(0.1 -0.1)">
       <use xlink:href="#DejaVuSans-30"/>
       <use x="63.623047" xlink:href="#DejaVuSans-2e"/>
       <use x="95.410156" xlink:href="#DejaVuSans-32"/>
      </g>
     </g>
    </g>
    <g id="xtick_2">
     <g id="line2d_2">
      <g>
       <use style="stroke:#000000;stroke-width:0.8;" x="152.654989" xlink:href="#mf7097e2701" y="293.479494"/>
      </g>
     </g>
     <g id="text_2">
      <!-- 0.4 -->
      <defs>
       <path d="M 37.796875 64.3125 
L 12.890625 25.390625 
L 37.796875 25.390625 
z
M 35.203125 72.90625 
L 47.609375 72.90625 
L 47.609375 25.390625 
L 58.015625 25.390625 
L 58.015625 17.1875 
L 47.609375 17.1875 
L 47.609375 0 
L 37.796875 0 
L 37.796875 17.1875 
L 4.890625 17.1875 
L 4.890625 26.703125 
z
" id="DejaVuSans-34"/>
      </defs>
      <g transform="translate(144.703426 308.077932)scale(0.1 -0.1)">
       <use xlink:href="#DejaVuSans-30"/>
       <use x="63.623047" xlink:href="#DejaVuSans-2e"/>
       <use x="95.410156" xlink:href="#DejaVuSans-34"/>
      </g>
     </g>
    </g>
    <g id="xtick_3">
     <g id="line2d_3">
      <g>
       <use style="stroke:#000000;stroke-width:0.8;" x="200.448" xlink:href="#mf7097e2701" y="293.479494"/>
      </g>
     </g>
     <g id="text_3">
      <!-- 0.6 -->
      <defs>
       <path d="M 33.015625 40.375 
Q 26.375 40.375 22.484375 35.828125 
Q 18.609375 31.296875 18.609375 23.390625 
Q 18.609375 15.53125 22.484375 10.953125 
Q 26.375 6.390625 33.015625 6.390625 
Q 39.65625 6.390625 43.53125 10.953125 
Q 47.40625 15.53125 47.40625 23.390625 
Q 47.40625 31.296875 43.53125 35.828125 
Q 39.65625 40.375 33.015625 40.375 
z
M 52.59375 71.296875 
L 52.59375 62.3125 
Q 48.875 64.0625 45.09375 64.984375 
Q 41.3125 65.921875 37.59375 65.921875 
Q 27.828125 65.921875 22.671875 59.328125 
Q 17.53125 52.734375 16.796875 39.40625 
Q 19.671875 43.65625 24.015625 45.921875 
Q 28.375 48.1875 33.59375 48.1875 
Q 44.578125 48.1875 50.953125 41.515625 
Q 57.328125 34.859375 57.328125 23.390625 
Q 57.328125 12.15625 50.6875 5.359375 
Q 44.046875 -1.421875 33.015625 -1.421875 
Q 20.359375 -1.421875 13.671875 8.265625 
Q 6.984375 17.96875 6.984375 36.375 
Q 6.984375 53.65625 15.1875 63.9375 
Q 23.390625 74.21875 37.203125 74.21875 
Q 40.921875 74.21875 44.703125 73.484375 
Q 48.484375 72.75 52.59375 71.296875 
z
" id="DejaVuSans-36"/>
      </defs>
      <g transform="translate(192.496438 308.077932)scale(0.1 -0.1)">
       <use xlink:href="#DejaVuSans-30"/>
       <use x="63.623047" xlink:href="#DejaVuSans-2e"/>
       <use x="95.410156" xlink:href="#DejaVuSans-36"/>
      </g>
     </g>
    </g>
    <g id="xtick_4">
     <g id="line2d_4">
      <g>
       <use style="stroke:#000000;stroke-width:0.8;" x="248.241011" xlink:href="#mf7097e2701" y="293.479494"/>
      </g>
     </g>
     <g id="text_4">
      <!-- 0.8 -->
      <defs>
       <path d="M 31.78125 34.625 
Q 24.75 34.625 20.71875 30.859375 
Q 16.703125 27.09375 16.703125 20.515625 
Q 16.703125 13.921875 20.71875 10.15625 
Q 24.75 6.390625 31.78125 6.390625 
Q 38.8125 6.390625 42.859375 10.171875 
Q 46.921875 13.96875 46.921875 20.515625 
Q 46.921875 27.09375 42.890625 30.859375 
Q 38.875 34.625 31.78125 34.625 
z
M 21.921875 38.8125 
Q 15.578125 40.375 12.03125 44.71875 
Q 8.5 49.078125 8.5 55.328125 
Q 8.5 64.0625 14.71875 69.140625 
Q 20.953125 74.21875 31.78125 74.21875 
Q 42.671875 74.21875 48.875 69.140625 
Q 55.078125 64.0625 55.078125 55.328125 
Q 55.078125 49.078125 51.53125 44.71875 
Q 48 40.375 41.703125 38.8125 
Q 48.828125 37.15625 52.796875 32.3125 
Q 56.78125 27.484375 56.78125 20.515625 
Q 56.78125 9.90625 50.3125 4.234375 
Q 43.84375 -1.421875 31.78125 -1.421875 
Q 19.734375 -1.421875 13.25 4.234375 
Q 6.78125 9.90625 6.78125 20.515625 
Q 6.78125 27.484375 10.78125 32.3125 
Q 14.796875 37.15625 21.921875 38.8125 
z
M 18.3125 54.390625 
Q 18.3125 48.734375 21.84375 45.5625 
Q 25.390625 42.390625 31.78125 42.390625 
Q 38.140625 42.390625 41.71875 45.5625 
Q 45.3125 48.734375 45.3125 54.390625 
Q 45.3125 60.0625 41.71875 63.234375 
Q 38.140625 66.40625 31.78125 66.40625 
Q 25.390625 66.40625 21.84375 63.234375 
Q 18.3125 60.0625 18.3125 54.390625 
z
" id="DejaVuSans-38"/>
      </defs>
      <g transform="translate(240.289449 308.077932)scale(0.1 -0.1)">
       <use xlink:href="#DejaVuSans-30"/>
       <use x="63.623047" xlink:href="#DejaVuSans-2e"/>
       <use x="95.410156" xlink:href="#DejaVuSans-38"/>
      </g>
     </g>
    </g>
    <g id="xtick_5">
     <g id="line2d_5">
      <g>
       <use style="stroke:#000000;stroke-width:0.8;" x="296.034022" xlink:href="#mf7097e2701" y="293.479494"/>
      </g>
     </g>
     <g id="text_5">
      <!-- 1.0 -->
      <defs>
       <path d="M 12.40625 8.296875 
L 28.515625 8.296875 
L 28.515625 63.921875 
L 10.984375 60.40625 
L 10.984375 69.390625 
L 28.421875 72.90625 
L 38.28125 72.90625 
L 38.28125 8.296875 
L 54.390625 8.296875 
L 54.390625 0 
L 12.40625 0 
z
" id="DejaVuSans-31"/>
      </defs>
      <g transform="translate(288.08246 308.077932)scale(0.1 -0.1)">
       <use xlink:href="#DejaVuSans-31"/>
       <use x="63.623047" xlink:href="#DejaVuSans-2e"/>
       <use x="95.410156" xlink:href="#DejaVuSans-30"/>
      </g>
     </g>
    </g>
   </g>
   <g id="matplotlib.axis_2">
    <g id="ytick_1">
     <g id="line2d_6">
      <defs>
       <path d="M 0 0 
L -3.5 0 
" id="m8ecdd7a483" style="stroke:#000000;stroke-width:0.8;"/>
      </defs>
      <g>
       <use style="stroke:#000000;stroke-width:0.8;" x="57.6" xlink:href="#m8ecdd7a483" y="246.217517"/>
      </g>
     </g>
     <g id="text_6">
      <!-- 0.2 -->
      <g transform="translate(34.696875 250.016735)scale(0.1 -0.1)">
       <use xlink:href="#DejaVuSans-30"/>
       <use x="63.623047" xlink:href="#DejaVuSans-2e"/>
       <use x="95.410156" xlink:href="#DejaVuSans-32"/>
      </g>
     </g>
    </g>
    <g id="ytick_2">
     <g id="line2d_7">
      <g>
       <use style="stroke:#000000;stroke-width:0.8;" x="57.6" xlink:href="#m8ecdd7a483" y="198.424506"/>
      </g>
     </g>
     <g id="text_7">
      <!-- 0.4 -->
      <g transform="translate(34.696875 202.223724)scale(0.1 -0.1)">
       <use xlink:href="#DejaVuSans-30"/>
       <use x="63.623047" xlink:href="#DejaVuSans-2e"/>
       <use x="95.410156" xlink:href="#DejaVuSans-34"/>
      </g>
     </g>
    </g>
    <g id="ytick_3">
     <g id="line2d_8">
      <g>
       <use style="stroke:#000000;stroke-width:0.8;" x="57.6" xlink:href="#m8ecdd7a483" y="150.631494"/>
      </g>
     </g>
     <g id="text_8">
      <!-- 0.6 -->
      <g transform="translate(34.696875 154.430713)scale(0.1 -0.1)">
       <use xlink:href="#DejaVuSans-30"/>
       <use x="63.623047" xlink:href="#DejaVuSans-2e"/>
       <use x="95.410156" xlink:href="#DejaVuSans-36"/>
      </g>
     </g>
    </g>
    <g id="ytick_4">
     <g id="line2d_9">
      <g>
       <use style="stroke:#000000;stroke-width:0.8;" x="57.6" xlink:href="#m8ecdd7a483" y="102.838483"/>
      </g>
     </g>
     <g id="text_9">
      <!-- 0.8 -->
      <g transform="translate(34.696875 106.637702)scale(0.1 -0.1)">
       <use xlink:href="#DejaVuSans-30"/>
       <use x="63.623047" xlink:href="#DejaVuSans-2e"/>
       <use x="95.410156" xlink:href="#DejaVuSans-38"/>
      </g>
     </g>
    </g>
   </g>
   <g id="LineCollection_1">
    <path clip-path="url(#p42d1446d19)" d="M 192.172993 293.479494 
L 192.037272 292.417428 
L 191.420431 290.858389 
L 191.112425 290.293294 
L 190.264236 289.231227 
L 189.132189 288.16916 
L 187.172164 286.781173 
L 185.04803 285.55041 
L 182.923896 284.483463 
L 179.303195 282.858825 
L 168.054959 278.526787 
L 158.496357 275.223642 
L 153.186022 273.70567 
L 149.999822 272.983174 
L 146.813621 272.443475 
L 143.62742 272.11345 
L 140.441219 272.013096 
L 137.255019 272.139502 
L 134.068818 272.496143 
L 130.882617 273.055686 
L 127.696416 273.794467 
L 123.448149 274.984469 
L 117.075747 277.001776 
L 108.579212 279.607178 
L 104.254889 280.734691 
L 100.082677 281.639651 
L 95.834409 282.342225 
L 91.586141 282.782523 
L 88.399941 282.923961 
L 85.14052 282.858825 
L 82.027539 282.551998 
L 79.903405 282.158815 
L 77.779271 281.567992 
L 75.655138 280.714082 
L 73.531004 279.480602 
L 72.399452 278.610558 
L 71.277619 277.548491 
L 70.344803 276.482213 
L 68.904928 274.36229 
L 67.80315 272.238156 
L 66.929402 270.114022 
L 65.914514 266.927822 
L 65.034468 263.241123 
L 64.367349 259.493353 
L 63.655506 254.183019 
L 62.910335 246.410445 
L 62.136334 235.065814 
L 61.339664 220.196877 
L 60.543791 201.079673 
L 59.826738 177.714201 
L 59.20235 150.100461 
L 58.567558 111.866052 
L 57.949283 59.824773 
L 57.982555 55.576506 
L 57.982555 55.576506 
" style="fill:none;stroke:#000080;stroke-width:1.5;"/>
   </g>
   <g id="LineCollection_2">
    <path clip-path="url(#p42d1446d19)" d="M 287.400615 293.479494 
L 287.73752 291.355361 
L 288.090694 289.231227 
L 288.215098 287.107093 
L 288.160246 283.920892 
L 287.824162 279.672625 
L 285.830765 260.55542 
L 283.998995 246.74855 
L 283.450544 243.562349 
L 282.361663 238.252015 
L 281.539498 235.065814 
L 280.436093 231.879613 
L 279.433347 229.75548 
L 278.509918 228.313588 
L 277.447851 227.171532 
L 276.385784 226.414127 
L 275.323717 225.937038 
L 274.261651 225.65579 
L 272.137517 225.454692 
L 268.951316 225.548147 
L 260.454781 225.973172 
L 251.958245 226.11826 
L 227.530706 226.203383 
L 210.537636 226.383622 
L 196.730766 226.766506 
L 175.489428 227.419937 
L 166.992892 227.399205 
L 158.496357 227.135077 
L 126.634349 225.626372 
L 120.261948 225.205905 
L 113.889546 224.550662 
L 106.455078 223.694152 
L 103.268877 223.588262 
L 101.144743 223.75555 
L 99.02061 224.211064 
L 97.958543 224.577051 
L 95.834409 225.651144 
L 94.544603 226.569279 
L 93.330304 227.631346 
L 92.301256 228.693413 
L 90.524074 230.900769 
L 88.532948 234.003747 
L 87.337874 236.168481 
L 85.21374 240.525704 
L 82.027539 247.239575 
L 80.965472 248.983617 
L 79.903405 250.271049 
L 78.841338 251.062805 
L 77.779271 251.383637 
L 76.717204 251.258439 
L 75.655138 250.70446 
L 74.593071 249.71539 
L 73.292893 247.810617 
L 72.223412 245.686483 
L 71.015866 242.500283 
L 70.057802 239.314082 
L 68.803794 234.003747 
L 67.797099 228.693413 
L 66.654723 221.258944 
L 65.602988 212.762409 
L 64.643583 203.203807 
L 63.619155 190.459004 
L 62.609556 174.528 
L 61.608874 154.348729 
L 60.664185 129.92119 
L 59.781481 100.183316 
L 58.844336 60.88684 
L 58.911485 55.576506 
L 58.911485 55.576506 
" style="fill:none;stroke:#0000e8;stroke-width:1.5;"/>
   </g>
   <g id="LineCollection_3">
    <path clip-path="url(#p42d1446d19)" d="M 290.675997 293.479494 
L 291.038649 287.107093 
L 290.886885 282.858825 
L 289.988751 269.051955 
L 287.006454 227.541582 
L 285.527171 213.824476 
L 284.483314 206.390007 
L 283.538375 201.079673 
L 282.566138 196.831405 
L 281.605177 193.645204 
L 280.634052 191.286458 
L 279.432052 189.396937 
L 278.292367 188.33487 
L 277.447851 187.873167 
L 276.385784 187.662115 
L 275.323717 187.713274 
L 273.199584 188.269402 
L 267.889249 190.161477 
L 265.765115 190.719045 
L 262.578914 191.273616 
L 259.392714 191.564351 
L 255.144446 191.707194 
L 245.585844 191.694744 
L 220.096238 191.674109 
L 148.937755 191.797328 
L 131.944684 192.084924 
L 123.448149 192.141919 
L 118.137814 191.964827 
L 112.648793 191.521071 
L 100.082677 190.223142 
L 97.958543 190.228057 
L 95.550037 190.459004 
L 93.710275 190.839096 
L 91.586141 191.58213 
L 89.462007 192.720525 
L 87.337874 194.321382 
L 85.21374 196.409091 
L 83.052824 198.955539 
L 79.573456 203.203807 
L 78.510519 204.265874 
L 77.779271 204.891513 
L 76.717204 205.492074 
L 75.655138 205.699786 
L 74.46882 205.327941 
L 73.531004 204.586601 
L 72.468937 203.086014 
L 71.132841 200.017606 
L 70.123955 196.831405 
L 69.090079 192.583138 
L 67.900995 186.210736 
L 66.810017 178.776268 
L 65.692287 169.217665 
L 64.596647 157.534929 
L 63.549416 143.728059 
L 62.507956 126.734989 
L 61.517351 106.555717 
L 60.396034 77.879911 
L 59.790122 58.762706 
L 59.904577 55.576506 
L 59.904577 55.576506 
" style="fill:none;stroke:#0038ff;stroke-width:1.5;"/>
   </g>
   <g id="LineCollection_4">
    <path clip-path="url(#p42d1446d19)" d="M 292.713302 293.479494 
L 292.806611 284.982959 
L 292.393031 275.424357 
L 289.920568 225.507212 
L 288.631775 205.327941 
L 287.517514 191.521071 
L 286.558238 181.962468 
L 285.488756 173.465933 
L 284.459756 167.093532 
L 283.592538 162.845264 
L 282.415678 158.596996 
L 281.645328 156.472862 
L 280.474089 154.348729 
L 279.554346 153.286662 
L 278.509918 152.694475 
L 277.447851 152.591927 
L 276.385784 152.867546 
L 275.323717 153.413954 
L 273.199584 154.96942 
L 270.013383 157.541282 
L 267.889249 159.014739 
L 265.765115 160.175596 
L 263.640981 161.022013 
L 261.516848 161.592511 
L 259.392714 161.940577 
L 256.206513 162.164184 
L 251.958245 162.143172 
L 236.027242 161.759044 
L 110.703346 161.516491 
L 94.772342 161.404187 
L 91.586141 161.710332 
L 89.462007 162.112789 
L 87.040052 162.845264 
L 85.21374 163.615379 
L 82.776273 164.969398 
L 77.69428 168.155599 
L 76.717204 168.535385 
L 75.655138 168.68716 
L 74.593071 168.475803 
L 73.531004 167.788553 
L 72.220101 166.031465 
L 71.190386 163.907331 
L 70.098304 160.72113 
L 69.016027 156.472862 
L 67.968543 151.162528 
L 66.823595 143.728059 
L 65.664573 134.169457 
L 64.630676 123.548788 
L 63.549423 109.741918 
L 62.484068 92.748848 
L 60.865532 61.948907 
L 60.861886 58.762706 
L 61.035864 55.576506 
L 61.035864 55.576506 
" style="fill:none;stroke:#0094ff;stroke-width:1.5;"/>
   </g>
   <g id="LineCollection_5">
    <path clip-path="url(#p42d1446d19)" d="M 294.338199 293.479494 
L 294.205446 280.734691 
L 292.710684 239.314082 
L 291.568458 211.700342 
L 290.547729 191.521071 
L 289.559505 175.590067 
L 288.585138 162.845264 
L 287.574589 152.224595 
L 286.555297 143.728059 
L 285.589003 137.355658 
L 284.55392 132.045323 
L 283.447472 127.797056 
L 282.758186 125.668388 
L 281.696119 123.345762 
L 280.634052 121.840613 
L 279.571985 121.017763 
L 278.509918 120.760888 
L 277.447851 120.966518 
L 276.385784 121.540387 
L 275.235963 122.486721 
L 273.199584 124.661815 
L 268.745707 129.92119 
L 266.591857 132.045323 
L 264.703048 133.540462 
L 262.578914 134.782929 
L 260.454781 135.610673 
L 258.330647 136.087993 
L 256.206513 136.28503 
L 254.082379 136.269634 
L 250.896178 135.979383 
L 244.523777 135.024019 
L 239.213442 134.358892 
L 234.965175 134.074458 
L 230.716907 134.001523 
L 224.344506 134.134741 
L 207.351435 134.593457 
L 191.420431 134.70669 
L 93.710275 135.113306 
L 89.462007 135.327979 
L 86.275807 135.703744 
L 83.089606 136.349011 
L 77.779271 137.749978 
L 76.717204 137.88295 
L 75.655138 137.8467 
L 74.267518 137.355658 
L 73.531004 136.904657 
L 72.468937 135.771067 
L 71.40687 134.014413 
L 70.194232 130.983257 
L 68.995973 126.734989 
L 67.882194 121.424654 
L 66.846734 115.052253 
L 65.76413 106.555717 
L 64.600436 94.872981 
L 63.414943 80.004045 
L 62.22689 63.010974 
L 62.175524 59.824773 
L 62.448541 55.576506 
L 62.448541 55.576506 
" style="fill:none;stroke:#0cf4eb;stroke-width:1.5;"/>
   </g>
   <g id="LineCollection_6">
    <path clip-path="url(#p42d1446d19)" d="M 295.9525 293.479494 
L 295.796418 281.796758 
L 294.80011 248.872684 
L 293.588532 210.638275 
L 292.591354 185.148669 
L 291.614756 164.969398 
L 290.652843 149.038394 
L 289.688039 136.293591 
L 288.669071 125.672922 
L 287.628686 117.176387 
L 286.643531 110.803985 
L 285.60462 105.493651 
L 284.529296 101.245383 
L 283.463721 98.059182 
L 282.528194 95.935048 
L 281.696119 94.467575 
L 280.634052 93.199771 
L 279.571985 92.453527 
L 278.509918 92.177057 
L 277.447851 92.340454 
L 276.385784 92.922003 
L 275.323717 93.889579 
L 273.739549 95.935048 
L 272.137517 98.382533 
L 268.951316 103.3753 
L 266.827182 106.229212 
L 265.615967 107.617784 
L 263.640981 109.507876 
L 261.850207 110.803985 
L 260.454781 111.585532 
L 258.330647 112.386305 
L 256.206513 112.805006 
L 254.082379 112.922463 
L 251.958245 112.819548 
L 248.772045 112.409109 
L 236.027242 110.37355 
L 230.716907 109.860527 
L 224.344506 109.508616 
L 216.910037 109.348313 
L 207.351435 109.396616 
L 194.606632 109.714625 
L 173.365294 110.252624 
L 155.310156 110.431505 
L 106.455078 110.795276 
L 90.524074 111.098888 
L 84.151673 111.423805 
L 78.841338 111.726372 
L 76.717204 111.569355 
L 75.655138 111.301997 
L 74.566522 110.803985 
L 73.266293 109.741918 
L 72.373596 108.679851 
L 71.188123 106.555717 
L 70.302548 104.431584 
L 69.066343 100.183316 
L 67.934162 94.872981 
L 66.891508 88.50058 
L 65.678828 78.941978 
L 64.354132 66.197175 
L 64.080802 61.948907 
L 64.12128 59.824773 
L 64.539149 55.576506 
L 64.539149 55.576506 
" style="fill:none;stroke:#56ffa0;stroke-width:1.5;"/>
   </g>
   <g id="LineCollection_7">
    <path clip-path="url(#p42d1446d19)" d="M 301.813097 293.479494 
L 301.667998 286.045026 
L 301.322824 279.672625 
L 300.612632 271.176089 
L 299.280143 258.431286 
L 297.035732 239.314082 
L 296.546301 235.065814 
L 295.099323 197.893472 
L 294.070051 168.155599 
L 293.084309 145.852193 
L 292.119351 128.859123 
L 291.109001 115.052253 
L 290.013244 103.369517 
L 288.981507 94.872981 
L 287.922654 88.50058 
L 286.943399 84.252312 
L 285.942649 81.066112 
L 284.88232 78.572431 
L 283.820253 76.680103 
L 282.256051 74.69371 
L 281.104011 73.631643 
L 280.634052 73.267913 
L 279.499963 72.569576 
L 278.509918 72.126494 
L 276.385784 71.531941 
L 274.261651 71.366006 
L 272.137517 71.519846 
L 270.013383 71.981507 
L 267.889249 72.69285 
L 265.765115 73.684194 
L 263.640981 74.984826 
L 261.516848 76.608503 
L 260.114288 77.879911 
L 258.137286 80.004045 
L 255.619611 83.190245 
L 253.996127 85.314379 
L 251.958245 87.610066 
L 250.896178 88.562904 
L 249.50924 89.562647 
L 247.709978 90.537894 
L 246.647911 90.968617 
L 244.165139 91.686781 
L 242.399643 92.006581 
L 239.213442 92.306296 
L 236.027242 92.353911 
L 231.778974 92.151648 
L 226.468639 91.620061 
L 219.034171 90.58028 
L 204.797901 88.50058 
L 198.8549 87.830422 
L 191.420431 87.233607 
L 183.985963 86.862822 
L 172.303227 86.536059 
L 154.248089 86.031144 
L 140.441219 85.399312 
L 126.634349 84.549608 
L 110.703346 83.363024 
L 96.666116 82.128178 
L 85.21374 80.916108 
L 80.965472 80.319717 
L 78.841338 79.883936 
L 76.717204 79.175922 
L 75.655138 78.626156 
L 74.593071 77.86385 
L 73.531004 76.774437 
L 72.220386 74.69371 
L 71.273397 72.569576 
L 70.287545 69.383375 
L 69.706379 66.197175 
L 69.491324 64.073041 
L 69.533876 61.948907 
L 69.866109 59.824773 
L 70.344803 57.095865 
L 70.405326 56.638572 
L 70.330377 55.576506 
L 70.330377 55.576506 
" style="fill:none;stroke:#a0ff56;stroke-width:1.5;"/>
   </g>
   <g id="LineCollection_8">
    <path clip-path="url(#p42d1446d19)" d="M 309.155115 293.479494 
L 309.016452 284.982959 
L 308.644106 276.486424 
L 307.929431 265.865755 
L 306.761227 252.058885 
L 304.906341 232.94168 
L 302.719161 212.762409 
L 300.537893 194.707271 
L 298.389788 178.776268 
L 296.479684 164.969398 
L 294.936011 134.169457 
L 294.028666 116.11432 
L 293.073392 101.245383 
L 292.273321 91.686781 
L 291.52333 85.314379 
L 290.834096 81.066112 
L 290.155919 77.879911 
L 289.130587 74.407681 
L 288.06852 71.859336 
L 287.006454 70.000348 
L 285.680669 68.321309 
L 284.541499 67.259242 
L 282.998448 66.197175 
L 281.696119 65.539288 
L 279.571985 64.784315 
L 277.447851 64.302294 
L 274.261651 63.914253 
L 271.07545 63.799216 
L 266.827182 63.931787 
L 260.454781 64.450983 
L 254.082379 64.963489 
L 250.896178 65.011665 
L 248.772045 64.872009 
L 246.647911 64.532419 
L 244.523777 63.899231 
L 242.838376 63.010974 
L 241.693804 61.948907 
L 241.054158 60.88684 
L 240.75105 59.824773 
L 240.696825 58.762706 
L 240.829675 57.700639 
L 241.469039 55.576506 
L 241.469039 55.576506 
" style="fill:none;stroke:#ebff0c;stroke-width:1.5;"/>
   </g>
   <g id="LineCollection_9">
    <path clip-path="url(#p42d1446d19)" d="M 316.678039 293.479494 
L 316.558269 283.920892 
L 316.193856 273.300223 
L 315.516937 260.55542 
L 314.36784 243.562349 
L 312.692276 222.321011 
L 310.889425 202.14174 
L 309.069924 184.086602 
L 307.185725 167.603278 
L 305.467854 154.348729 
L 303.594351 141.603926 
L 301.821905 130.983257 
L 300.021606 121.424654 
L 297.983087 111.866052 
L 296.531342 105.493651 
L 294.285718 80.004045 
L 293.517861 74.69371 
L 292.857211 71.507509 
L 292.278196 69.383375 
L 291.254721 66.701745 
L 290.192654 64.78251 
L 288.796495 63.010974 
L 287.701533 61.948907 
L 285.944387 60.542233 
L 283.365561 58.762706 
L 282.113109 57.700639 
L 281.30197 56.638572 
L 280.893154 55.576506 
L 280.893154 55.576506 
" style="fill:none;stroke:#ffab00;stroke-width:1.5;"/>
   </g>
   <g id="LineCollection_10">
    <path clip-path="url(#p42d1446d19)" d="M 324.332558 293.479494 
L 324.21669 281.796758 
L 323.844825 267.989888 
L 323.141791 250.996818 
L 322.024822 229.75548 
L 320.518618 205.327941 
L 318.920769 183.024535 
L 317.417571 164.969398 
L 315.875839 149.038394 
L 314.319509 135.231524 
L 312.793209 123.548788 
L 311.192276 112.928119 
L 309.529223 103.369517 
L 307.818433 94.872981 
L 306.076972 87.438513 
L 304.333653 81.066112 
L 302.638202 75.755777 
L 300.813323 70.87334 
L 299.228968 67.259242 
L 297.605076 64.073041 
L 296.48298 61.948907 
L 295.492368 57.700639 
L 295.294066 55.576506 
L 295.294066 55.576506 
" style="fill:none;stroke:#ff5500;stroke-width:1.5;"/>
   </g>
   <g id="LineCollection_11">
    <path clip-path="url(#p42d1446d19)" d="M 332.075646 293.479494 
L 331.949059 277.548491 
L 331.543454 256.307152 
L 330.848776 232.94168 
L 329.713633 202.14174 
L 328.52722 175.590067 
L 327.312723 153.286662 
L 326.112594 135.231524 
L 324.918242 120.362587 
L 323.588779 106.555717 
L 322.136047 93.810914 
L 320.070313 77.879911 
L 318.868461 67.818285 
L 318.455833 63.010974 
L 318.22071 57.700639 
L 318.203507 55.576506 
L 318.203507 55.576506 
" style="fill:none;stroke:#e80000;stroke-width:1.5;"/>
   </g>
   <g id="LineCollection_12">
    <path clip-path="url(#p42d1446d19)" d="M 339.870861 293.479494 
L 339.785997 275.424357 
L 339.514369 235.065814 
L 338.384694 156.472862 
L 337.673314 125.672922 
L 336.894175 101.245383 
L 335.593902 63.010974 
L 335.537196 55.576506 
L 335.537196 55.576506 
" style="fill:none;stroke:#800000;stroke-width:1.5;"/>
   </g>
   <g id="patch_3">
    <path d="M 57.6 293.479494 
L 57.6 55.576506 
" style="fill:none;stroke:#000000;stroke-linecap:square;stroke-linejoin:miter;stroke-width:0.8;"/>
   </g>
   <g id="patch_4">
    <path d="M 343.296 293.479494 
L 343.296 55.576506 
" style="fill:none;stroke:#000000;stroke-linecap:square;stroke-linejoin:miter;stroke-width:0.8;"/>
   </g>
   <g id="patch_5">
    <path d="M 57.6 293.479494 
L 343.296 293.479494 
" style="fill:none;stroke:#000000;stroke-linecap:square;stroke-linejoin:miter;stroke-width:0.8;"/>
   </g>
   <g id="patch_6">
    <path d="M 57.6 55.576506 
L 343.296 55.576506 
" style="fill:none;stroke:#000000;stroke-linecap:square;stroke-linejoin:miter;stroke-width:0.8;"/>
   </g>
   <g id="text_10">
    <!-- Time:0.06584 s -->
    <defs>
     <path d="M -0.296875 72.90625 
L 61.375 72.90625 
L 61.375 64.59375 
L 35.5 64.59375 
L 35.5 0 
L 25.59375 0 
L 25.59375 64.59375 
L -0.296875 64.59375 
z
" id="DejaVuSans-54"/>
     <path d="M 9.421875 54.6875 
L 18.40625 54.6875 
L 18.40625 0 
L 9.421875 0 
z
M 9.421875 75.984375 
L 18.40625 75.984375 
L 18.40625 64.59375 
L 9.421875 64.59375 
z
" id="DejaVuSans-69"/>
     <path d="M 52 44.1875 
Q 55.375 50.25 60.0625 53.125 
Q 64.75 56 71.09375 56 
Q 79.640625 56 84.28125 50.015625 
Q 88.921875 44.046875 88.921875 33.015625 
L 88.921875 0 
L 79.890625 0 
L 79.890625 32.71875 
Q 79.890625 40.578125 77.09375 44.375 
Q 74.3125 48.1875 68.609375 48.1875 
Q 61.625 48.1875 57.5625 43.546875 
Q 53.515625 38.921875 53.515625 30.90625 
L 53.515625 0 
L 44.484375 0 
L 44.484375 32.71875 
Q 44.484375 40.625 41.703125 44.40625 
Q 38.921875 48.1875 33.109375 48.1875 
Q 26.21875 48.1875 22.15625 43.53125 
Q 18.109375 38.875 18.109375 30.90625 
L 18.109375 0 
L 9.078125 0 
L 9.078125 54.6875 
L 18.109375 54.6875 
L 18.109375 46.1875 
Q 21.1875 51.21875 25.484375 53.609375 
Q 29.78125 56 35.6875 56 
Q 41.65625 56 45.828125 52.96875 
Q 50 49.953125 52 44.1875 
z
" id="DejaVuSans-6d"/>
     <path d="M 56.203125 29.59375 
L 56.203125 25.203125 
L 14.890625 25.203125 
Q 15.484375 15.921875 20.484375 11.0625 
Q 25.484375 6.203125 34.421875 6.203125 
Q 39.59375 6.203125 44.453125 7.46875 
Q 49.3125 8.734375 54.109375 11.28125 
L 54.109375 2.78125 
Q 49.265625 0.734375 44.1875 -0.34375 
Q 39.109375 -1.421875 33.890625 -1.421875 
Q 20.796875 -1.421875 13.15625 6.1875 
Q 5.515625 13.8125 5.515625 26.8125 
Q 5.515625 40.234375 12.765625 48.109375 
Q 20.015625 56 32.328125 56 
Q 43.359375 56 49.78125 48.890625 
Q 56.203125 41.796875 56.203125 29.59375 
z
M 47.21875 32.234375 
Q 47.125 39.59375 43.09375 43.984375 
Q 39.0625 48.390625 32.421875 48.390625 
Q 24.90625 48.390625 20.390625 44.140625 
Q 15.875 39.890625 15.1875 32.171875 
z
" id="DejaVuSans-65"/>
     <path d="M 11.71875 12.40625 
L 22.015625 12.40625 
L 22.015625 0 
L 11.71875 0 
z
M 11.71875 51.703125 
L 22.015625 51.703125 
L 22.015625 39.3125 
L 11.71875 39.3125 
z
" id="DejaVuSans-3a"/>
     <path d="M 10.796875 72.90625 
L 49.515625 72.90625 
L 49.515625 64.59375 
L 19.828125 64.59375 
L 19.828125 46.734375 
Q 21.96875 47.46875 24.109375 47.828125 
Q 26.265625 48.1875 28.421875 48.1875 
Q 40.625 48.1875 47.75 41.5 
Q 54.890625 34.8125 54.890625 23.390625 
Q 54.890625 11.625 47.5625 5.09375 
Q 40.234375 -1.421875 26.90625 -1.421875 
Q 22.3125 -1.421875 17.546875 -0.640625 
Q 12.796875 0.140625 7.71875 1.703125 
L 7.71875 11.625 
Q 12.109375 9.234375 16.796875 8.0625 
Q 21.484375 6.890625 26.703125 6.890625 
Q 35.15625 6.890625 40.078125 11.328125 
Q 45.015625 15.765625 45.015625 23.390625 
Q 45.015625 31 40.078125 35.4375 
Q 35.15625 39.890625 26.703125 39.890625 
Q 22.75 39.890625 18.8125 39.015625 
Q 14.890625 38.140625 10.796875 36.28125 
z
" id="DejaVuSans-35"/>
     <path id="DejaVuSans-20"/>
     <path d="M 44.28125 53.078125 
L 44.28125 44.578125 
Q 40.484375 46.53125 36.375 47.5 
Q 32.28125 48.484375 27.875 48.484375 
Q 21.1875 48.484375 17.84375 46.4375 
Q 14.5 44.390625 14.5 40.28125 
Q 14.5 37.15625 16.890625 35.375 
Q 19.28125 33.59375 26.515625 31.984375 
L 29.59375 31.296875 
Q 39.15625 29.25 43.1875 25.515625 
Q 47.21875 21.78125 47.21875 15.09375 
Q 47.21875 7.46875 41.1875 3.015625 
Q 35.15625 -1.421875 24.609375 -1.421875 
Q 20.21875 -1.421875 15.453125 -0.5625 
Q 10.6875 0.296875 5.421875 2 
L 5.421875 11.28125 
Q 10.40625 8.6875 15.234375 7.390625 
Q 20.0625 6.109375 24.8125 6.109375 
Q 31.15625 6.109375 34.5625 8.28125 
Q 37.984375 10.453125 37.984375 14.40625 
Q 37.984375 18.0625 35.515625 20.015625 
Q 33.0625 21.96875 24.703125 23.78125 
L 21.578125 24.515625 
Q 13.234375 26.265625 9.515625 29.90625 
Q 5.8125 33.546875 5.8125 39.890625 
Q 5.8125 47.609375 11.28125 51.796875 
Q 16.75 56 26.8125 56 
Q 31.78125 56 36.171875 55.265625 
Q 40.578125 54.546875 44.28125 53.078125 
z
" id="DejaVuSans-73"/>
    </defs>
    <g transform="translate(153.717375 49.576506)scale(0.12 -0.12)">
     <use xlink:href="#DejaVuSans-54"/>
     <use x="61.037109" xlink:href="#DejaVuSans-69"/>
     <use x="88.820312" xlink:href="#DejaVuSans-6d"/>
     <use x="186.232422" xlink:href="#DejaVuSans-65"/>
     <use x="247.755859" xlink:href="#DejaVuSans-3a"/>
     <use x="281.447266" xlink:href="#DejaVuSans-30"/>
     <use x="345.070312" xlink:href="#DejaVuSans-2e"/>
     <use x="376.857422" xlink:href="#DejaVuSans-30"/>
     <use x="440.480469" xlink:href="#DejaVuSans-36"/>
     <use x="504.103516" xlink:href="#DejaVuSans-35"/>
     <use x="567.726562" xlink:href="#DejaVuSans-38"/>
     <use x="631.349609" xlink:href="#DejaVuSans-34"/>
     <use x="694.972656" xlink:href="#DejaVuSans-20"/>
     <use x="726.759766" xlink:href="#DejaVuSans-73"/>
    </g>
   </g>
  </g>
  <g id="axes_2">
   <g id="patch_7">
    <path clip-path="url(#p398bf7f6ca)" d="M 361.152 307.584 
L 361.152 283.392 
L 361.152 65.664 
L 361.152 41.472 
L 374.4576 41.472 
L 374.4576 65.664 
L 374.4576 283.392 
L 374.4576 307.584 
z
" style="fill:#ffffff;stroke:#ffffff;stroke-linejoin:miter;stroke-width:0.01;"/>
   </g>
   <g id="matplotlib.axis_3"/>
   <g id="matplotlib.axis_4">
    <g id="ytick_5">
     <g id="line2d_10">
      <defs>
       <path d="M 0 0 
L 3.5 0 
" id="mff52747d45" style="stroke:#000000;stroke-width:0.8;"/>
      </defs>
      <g>
       <use style="stroke:#000000;stroke-width:0.8;" x="374.4576" xlink:href="#mff52747d45" y="307.584"/>
      </g>
     </g>
     <g id="text_11">
      <!-- 0.08 -->
      <g transform="translate(381.4576 311.383219)scale(0.1 -0.1)">
       <use xlink:href="#DejaVuSans-30"/>
       <use x="63.623047" xlink:href="#DejaVuSans-2e"/>
       <use x="95.410156" xlink:href="#DejaVuSans-30"/>
       <use x="159.033203" xlink:href="#DejaVuSans-38"/>
      </g>
     </g>
    </g>
    <g id="ytick_6">
     <g id="line2d_11">
      <g>
       <use style="stroke:#000000;stroke-width:0.8;" x="374.4576" xlink:href="#mff52747d45" y="259.2"/>
      </g>
     </g>
     <g id="text_12">
      <!-- 0.24 -->
      <g transform="translate(381.4576 262.999219)scale(0.1 -0.1)">
       <use xlink:href="#DejaVuSans-30"/>
       <use x="63.623047" xlink:href="#DejaVuSans-2e"/>
       <use x="95.410156" xlink:href="#DejaVuSans-32"/>
       <use x="159.033203" xlink:href="#DejaVuSans-34"/>
      </g>
     </g>
    </g>
    <g id="ytick_7">
     <g id="line2d_12">
      <g>
       <use style="stroke:#000000;stroke-width:0.8;" x="374.4576" xlink:href="#mff52747d45" y="210.816"/>
      </g>
     </g>
     <g id="text_13">
      <!-- 0.40 -->
      <g transform="translate(381.4576 214.615219)scale(0.1 -0.1)">
       <use xlink:href="#DejaVuSans-30"/>
       <use x="63.623047" xlink:href="#DejaVuSans-2e"/>
       <use x="95.410156" xlink:href="#DejaVuSans-34"/>
       <use x="159.033203" xlink:href="#DejaVuSans-30"/>
      </g>
     </g>
    </g>
    <g id="ytick_8">
     <g id="line2d_13">
      <g>
       <use style="stroke:#000000;stroke-width:0.8;" x="374.4576" xlink:href="#mff52747d45" y="162.432"/>
      </g>
     </g>
     <g id="text_14">
      <!-- 0.56 -->
      <g transform="translate(381.4576 166.231219)scale(0.1 -0.1)">
       <use xlink:href="#DejaVuSans-30"/>
       <use x="63.623047" xlink:href="#DejaVuSans-2e"/>
       <use x="95.410156" xlink:href="#DejaVuSans-35"/>
       <use x="159.033203" xlink:href="#DejaVuSans-36"/>
      </g>
     </g>
    </g>
    <g id="ytick_9">
     <g id="line2d_14">
      <g>
       <use style="stroke:#000000;stroke-width:0.8;" x="374.4576" xlink:href="#mff52747d45" y="114.048"/>
      </g>
     </g>
     <g id="text_15">
      <!-- 0.72 -->
      <defs>
       <path d="M 8.203125 72.90625 
L 55.078125 72.90625 
L 55.078125 68.703125 
L 28.609375 0 
L 18.3125 0 
L 43.21875 64.59375 
L 8.203125 64.59375 
z
" id="DejaVuSans-37"/>
      </defs>
      <g transform="translate(381.4576 117.847219)scale(0.1 -0.1)">
       <use xlink:href="#DejaVuSans-30"/>
       <use x="63.623047" xlink:href="#DejaVuSans-2e"/>
       <use x="95.410156" xlink:href="#DejaVuSans-37"/>
       <use x="159.033203" xlink:href="#DejaVuSans-32"/>
      </g>
     </g>
    </g>
    <g id="ytick_10">
     <g id="line2d_15">
      <g>
       <use style="stroke:#000000;stroke-width:0.8;" x="374.4576" xlink:href="#mff52747d45" y="65.664"/>
      </g>
     </g>
     <g id="text_16">
      <!-- 0.88 -->
      <g transform="translate(381.4576 69.463219)scale(0.1 -0.1)">
       <use xlink:href="#DejaVuSans-30"/>
       <use x="63.623047" xlink:href="#DejaVuSans-2e"/>
       <use x="95.410156" xlink:href="#DejaVuSans-38"/>
       <use x="159.033203" xlink:href="#DejaVuSans-38"/>
      </g>
     </g>
    </g>
   </g>
   <g id="LineCollection_13">
    <path clip-path="url(#p398bf7f6ca)" d="M 361.152 307.584 
L 374.4576 307.584 
" style="fill:none;stroke:#000080;stroke-width:1.5;"/>
    <path clip-path="url(#p398bf7f6ca)" d="M 361.152 283.392 
L 374.4576 283.392 
" style="fill:none;stroke:#0000e8;stroke-width:1.5;"/>
    <path clip-path="url(#p398bf7f6ca)" d="M 361.152 259.2 
L 374.4576 259.2 
" style="fill:none;stroke:#0038ff;stroke-width:1.5;"/>
    <path clip-path="url(#p398bf7f6ca)" d="M 361.152 235.008 
L 374.4576 235.008 
" style="fill:none;stroke:#0094ff;stroke-width:1.5;"/>
    <path clip-path="url(#p398bf7f6ca)" d="M 361.152 210.816 
L 374.4576 210.816 
" style="fill:none;stroke:#0cf4eb;stroke-width:1.5;"/>
    <path clip-path="url(#p398bf7f6ca)" d="M 361.152 186.624 
L 374.4576 186.624 
" style="fill:none;stroke:#56ffa0;stroke-width:1.5;"/>
    <path clip-path="url(#p398bf7f6ca)" d="M 361.152 162.432 
L 374.4576 162.432 
" style="fill:none;stroke:#a0ff56;stroke-width:1.5;"/>
    <path clip-path="url(#p398bf7f6ca)" d="M 361.152 138.24 
L 374.4576 138.24 
" style="fill:none;stroke:#ebff0c;stroke-width:1.5;"/>
    <path clip-path="url(#p398bf7f6ca)" d="M 361.152 114.048 
L 374.4576 114.048 
" style="fill:none;stroke:#ffab00;stroke-width:1.5;"/>
    <path clip-path="url(#p398bf7f6ca)" d="M 361.152 89.856 
L 374.4576 89.856 
" style="fill:none;stroke:#ff5500;stroke-width:1.5;"/>
    <path clip-path="url(#p398bf7f6ca)" d="M 361.152 65.664 
L 374.4576 65.664 
" style="fill:none;stroke:#e80000;stroke-width:1.5;"/>
    <path clip-path="url(#p398bf7f6ca)" d="M 361.152 41.472 
L 374.4576 41.472 
" style="fill:none;stroke:#800000;stroke-width:1.5;"/>
   </g>
   <g id="patch_8">
    <path d="M 361.152 307.584 
L 361.152 283.392 
L 361.152 65.664 
L 361.152 41.472 
L 374.4576 41.472 
L 374.4576 65.664 
L 374.4576 283.392 
L 374.4576 307.584 
z
" style="fill:none;stroke:#000000;stroke-linejoin:miter;stroke-width:0.8;"/>
   </g>
  </g>
 </g>
 <defs>
  <clipPath id="p42d1446d19">
   <rect height="237.902989" width="285.696" x="57.6" y="55.576506"/>
  </clipPath>
  <clipPath id="p398bf7f6ca">
   <rect height="266.112" width="13.3056" x="361.152" y="41.472"/>
  </clipPath>
 </defs>
</svg>
