<?xml version="1.0" encoding="utf-8" standalone="no"?>
<!DOCTYPE svg PUBLIC "-//W3C//DTD SVG 1.1//EN"
  "http://www.w3.org/Graphics/SVG/1.1/DTD/svg11.dtd">
<!-- Created with matplotlib (http://matplotlib.org/) -->
<svg height="345.6pt" version="1.1" viewBox="0 0 460.8 345.6" width="460.8pt" xmlns="http://www.w3.org/2000/svg" xmlns:xlink="http://www.w3.org/1999/xlink">
 <defs>
  <style type="text/css">
*{stroke-linecap:butt;stroke-linejoin:round;}
  </style>
 </defs>
 <g id="figure_1">
  <g id="patch_1">
   <path d="M 0 345.6 
L 460.8 345.6 
L 460.8 0 
L 0 0 
z
" style="fill:#ffffff;"/>
  </g>
  <g id="axes_1">
   <g id="patch_2">
    <path d="M 57.6 293.479494 
L 343.296 293.479494 
L 343.296 55.576506 
L 57.6 55.576506 
z
" style="fill:#ffffff;"/>
   </g>
   <g id="matplotlib.axis_1">
    <g id="xtick_1">
     <g id="line2d_1">
      <defs>
       <path d="M 0 0 
L 0 3.5 
" id="md2691b3568" style="stroke:#000000;stroke-width:0.8;"/>
      </defs>
      <g>
       <use style="stroke:#000000;stroke-width:0.8;" x="104.861978" xlink:href="#md2691b3568" y="293.479494"/>
      </g>
     </g>
     <g id="text_1">
      <!-- 0.2 -->
      <defs>
       <path d="M 31.78125 66.40625 
Q 24.171875 66.40625 20.328125 58.90625 
Q 16.5 51.421875 16.5 36.375 
Q 16.5 21.390625 20.328125 13.890625 
Q 24.171875 6.390625 31.78125 6.390625 
Q 39.453125 6.390625 43.28125 13.890625 
Q 47.125 21.390625 47.125 36.375 
Q 47.125 51.421875 43.28125 58.90625 
Q 39.453125 66.40625 31.78125 66.40625 
z
M 31.78125 74.21875 
Q 44.046875 74.21875 50.515625 64.515625 
Q 56.984375 54.828125 56.984375 36.375 
Q 56.984375 17.96875 50.515625 8.265625 
Q 44.046875 -1.421875 31.78125 -1.421875 
Q 19.53125 -1.421875 13.0625 8.265625 
Q 6.59375 17.96875 6.59375 36.375 
Q 6.59375 54.828125 13.0625 64.515625 
Q 19.53125 74.21875 31.78125 74.21875 
z
" id="DejaVuSans-30"/>
       <path d="M 10.6875 12.40625 
L 21 12.40625 
L 21 0 
L 10.6875 0 
z
" id="DejaVuSans-2e"/>
       <path d="M 19.1875 8.296875 
L 53.609375 8.296875 
L 53.609375 0 
L 7.328125 0 
L 7.328125 8.296875 
Q 12.9375 14.109375 22.625 23.890625 
Q 32.328125 33.6875 34.8125 36.53125 
Q 39.546875 41.84375 41.421875 45.53125 
Q 43.3125 49.21875 43.3125 52.78125 
Q 43.3125 58.59375 39.234375 62.25 
Q 35.15625 65.921875 28.609375 65.921875 
Q 23.96875 65.921875 18.8125 64.3125 
Q 13.671875 62.703125 7.8125 59.421875 
L 7.8125 69.390625 
Q 13.765625 71.78125 18.9375 73 
Q 24.125 74.21875 28.421875 74.21875 
Q 39.75 74.21875 46.484375 68.546875 
Q 53.21875 62.890625 53.21875 53.421875 
Q 53.21875 48.921875 51.53125 44.890625 
Q 49.859375 40.875 45.40625 35.40625 
Q 44.1875 33.984375 37.640625 27.21875 
Q 31.109375 20.453125 19.1875 8.296875 
z
" id="DejaVuSans-32"/>
      </defs>
      <g transform="translate(96.910415 308.077932)scale(0.1 -0.1)">
       <use xlink:href="#DejaVuSans-30"/>
       <use x="63.623047" xlink:href="#DejaVuSans-2e"/>
       <use x="95.410156" xlink:href="#DejaVuSans-32"/>
      </g>
     </g>
    </g>
    <g id="xtick_2">
     <g id="line2d_2">
      <g>
       <use style="stroke:#000000;stroke-width:0.8;" x="152.654989" xlink:href="#md2691b3568" y="293.479494"/>
      </g>
     </g>
     <g id="text_2">
      <!-- 0.4 -->
      <defs>
       <path d="M 37.796875 64.3125 
L 12.890625 25.390625 
L 37.796875 25.390625 
z
M 35.203125 72.90625 
L 47.609375 72.90625 
L 47.609375 25.390625 
L 58.015625 25.390625 
L 58.015625 17.1875 
L 47.609375 17.1875 
L 47.609375 0 
L 37.796875 0 
L 37.796875 17.1875 
L 4.890625 17.1875 
L 4.890625 26.703125 
z
" id="DejaVuSans-34"/>
      </defs>
      <g transform="translate(144.703426 308.077932)scale(0.1 -0.1)">
       <use xlink:href="#DejaVuSans-30"/>
       <use x="63.623047" xlink:href="#DejaVuSans-2e"/>
       <use x="95.410156" xlink:href="#DejaVuSans-34"/>
      </g>
     </g>
    </g>
    <g id="xtick_3">
     <g id="line2d_3">
      <g>
       <use style="stroke:#000000;stroke-width:0.8;" x="200.448" xlink:href="#md2691b3568" y="293.479494"/>
      </g>
     </g>
     <g id="text_3">
      <!-- 0.6 -->
      <defs>
       <path d="M 33.015625 40.375 
Q 26.375 40.375 22.484375 35.828125 
Q 18.609375 31.296875 18.609375 23.390625 
Q 18.609375 15.53125 22.484375 10.953125 
Q 26.375 6.390625 33.015625 6.390625 
Q 39.65625 6.390625 43.53125 10.953125 
Q 47.40625 15.53125 47.40625 23.390625 
Q 47.40625 31.296875 43.53125 35.828125 
Q 39.65625 40.375 33.015625 40.375 
z
M 52.59375 71.296875 
L 52.59375 62.3125 
Q 48.875 64.0625 45.09375 64.984375 
Q 41.3125 65.921875 37.59375 65.921875 
Q 27.828125 65.921875 22.671875 59.328125 
Q 17.53125 52.734375 16.796875 39.40625 
Q 19.671875 43.65625 24.015625 45.921875 
Q 28.375 48.1875 33.59375 48.1875 
Q 44.578125 48.1875 50.953125 41.515625 
Q 57.328125 34.859375 57.328125 23.390625 
Q 57.328125 12.15625 50.6875 5.359375 
Q 44.046875 -1.421875 33.015625 -1.421875 
Q 20.359375 -1.421875 13.671875 8.265625 
Q 6.984375 17.96875 6.984375 36.375 
Q 6.984375 53.65625 15.1875 63.9375 
Q 23.390625 74.21875 37.203125 74.21875 
Q 40.921875 74.21875 44.703125 73.484375 
Q 48.484375 72.75 52.59375 71.296875 
z
" id="DejaVuSans-36"/>
      </defs>
      <g transform="translate(192.496438 308.077932)scale(0.1 -0.1)">
       <use xlink:href="#DejaVuSans-30"/>
       <use x="63.623047" xlink:href="#DejaVuSans-2e"/>
       <use x="95.410156" xlink:href="#DejaVuSans-36"/>
      </g>
     </g>
    </g>
    <g id="xtick_4">
     <g id="line2d_4">
      <g>
       <use style="stroke:#000000;stroke-width:0.8;" x="248.241011" xlink:href="#md2691b3568" y="293.479494"/>
      </g>
     </g>
     <g id="text_4">
      <!-- 0.8 -->
      <defs>
       <path d="M 31.78125 34.625 
Q 24.75 34.625 20.71875 30.859375 
Q 16.703125 27.09375 16.703125 20.515625 
Q 16.703125 13.921875 20.71875 10.15625 
Q 24.75 6.390625 31.78125 6.390625 
Q 38.8125 6.390625 42.859375 10.171875 
Q 46.921875 13.96875 46.921875 20.515625 
Q 46.921875 27.09375 42.890625 30.859375 
Q 38.875 34.625 31.78125 34.625 
z
M 21.921875 38.8125 
Q 15.578125 40.375 12.03125 44.71875 
Q 8.5 49.078125 8.5 55.328125 
Q 8.5 64.0625 14.71875 69.140625 
Q 20.953125 74.21875 31.78125 74.21875 
Q 42.671875 74.21875 48.875 69.140625 
Q 55.078125 64.0625 55.078125 55.328125 
Q 55.078125 49.078125 51.53125 44.71875 
Q 48 40.375 41.703125 38.8125 
Q 48.828125 37.15625 52.796875 32.3125 
Q 56.78125 27.484375 56.78125 20.515625 
Q 56.78125 9.90625 50.3125 4.234375 
Q 43.84375 -1.421875 31.78125 -1.421875 
Q 19.734375 -1.421875 13.25 4.234375 
Q 6.78125 9.90625 6.78125 20.515625 
Q 6.78125 27.484375 10.78125 32.3125 
Q 14.796875 37.15625 21.921875 38.8125 
z
M 18.3125 54.390625 
Q 18.3125 48.734375 21.84375 45.5625 
Q 25.390625 42.390625 31.78125 42.390625 
Q 38.140625 42.390625 41.71875 45.5625 
Q 45.3125 48.734375 45.3125 54.390625 
Q 45.3125 60.0625 41.71875 63.234375 
Q 38.140625 66.40625 31.78125 66.40625 
Q 25.390625 66.40625 21.84375 63.234375 
Q 18.3125 60.0625 18.3125 54.390625 
z
" id="DejaVuSans-38"/>
      </defs>
      <g transform="translate(240.289449 308.077932)scale(0.1 -0.1)">
       <use xlink:href="#DejaVuSans-30"/>
       <use x="63.623047" xlink:href="#DejaVuSans-2e"/>
       <use x="95.410156" xlink:href="#DejaVuSans-38"/>
      </g>
     </g>
    </g>
    <g id="xtick_5">
     <g id="line2d_5">
      <g>
       <use style="stroke:#000000;stroke-width:0.8;" x="296.034022" xlink:href="#md2691b3568" y="293.479494"/>
      </g>
     </g>
     <g id="text_5">
      <!-- 1.0 -->
      <defs>
       <path d="M 12.40625 8.296875 
L 28.515625 8.296875 
L 28.515625 63.921875 
L 10.984375 60.40625 
L 10.984375 69.390625 
L 28.421875 72.90625 
L 38.28125 72.90625 
L 38.28125 8.296875 
L 54.390625 8.296875 
L 54.390625 0 
L 12.40625 0 
z
" id="DejaVuSans-31"/>
      </defs>
      <g transform="translate(288.08246 308.077932)scale(0.1 -0.1)">
       <use xlink:href="#DejaVuSans-31"/>
       <use x="63.623047" xlink:href="#DejaVuSans-2e"/>
       <use x="95.410156" xlink:href="#DejaVuSans-30"/>
      </g>
     </g>
    </g>
   </g>
   <g id="matplotlib.axis_2">
    <g id="ytick_1">
     <g id="line2d_6">
      <defs>
       <path d="M 0 0 
L -3.5 0 
" id="me2c7507d52" style="stroke:#000000;stroke-width:0.8;"/>
      </defs>
      <g>
       <use style="stroke:#000000;stroke-width:0.8;" x="57.6" xlink:href="#me2c7507d52" y="246.217517"/>
      </g>
     </g>
     <g id="text_6">
      <!-- 0.2 -->
      <g transform="translate(34.696875 250.016735)scale(0.1 -0.1)">
       <use xlink:href="#DejaVuSans-30"/>
       <use x="63.623047" xlink:href="#DejaVuSans-2e"/>
       <use x="95.410156" xlink:href="#DejaVuSans-32"/>
      </g>
     </g>
    </g>
    <g id="ytick_2">
     <g id="line2d_7">
      <g>
       <use style="stroke:#000000;stroke-width:0.8;" x="57.6" xlink:href="#me2c7507d52" y="198.424506"/>
      </g>
     </g>
     <g id="text_7">
      <!-- 0.4 -->
      <g transform="translate(34.696875 202.223724)scale(0.1 -0.1)">
       <use xlink:href="#DejaVuSans-30"/>
       <use x="63.623047" xlink:href="#DejaVuSans-2e"/>
       <use x="95.410156" xlink:href="#DejaVuSans-34"/>
      </g>
     </g>
    </g>
    <g id="ytick_3">
     <g id="line2d_8">
      <g>
       <use style="stroke:#000000;stroke-width:0.8;" x="57.6" xlink:href="#me2c7507d52" y="150.631494"/>
      </g>
     </g>
     <g id="text_8">
      <!-- 0.6 -->
      <g transform="translate(34.696875 154.430713)scale(0.1 -0.1)">
       <use xlink:href="#DejaVuSans-30"/>
       <use x="63.623047" xlink:href="#DejaVuSans-2e"/>
       <use x="95.410156" xlink:href="#DejaVuSans-36"/>
      </g>
     </g>
    </g>
    <g id="ytick_4">
     <g id="line2d_9">
      <g>
       <use style="stroke:#000000;stroke-width:0.8;" x="57.6" xlink:href="#me2c7507d52" y="102.838483"/>
      </g>
     </g>
     <g id="text_9">
      <!-- 0.8 -->
      <g transform="translate(34.696875 106.637702)scale(0.1 -0.1)">
       <use xlink:href="#DejaVuSans-30"/>
       <use x="63.623047" xlink:href="#DejaVuSans-2e"/>
       <use x="95.410156" xlink:href="#DejaVuSans-38"/>
      </g>
     </g>
    </g>
   </g>
   <g id="LineCollection_1">
    <path clip-path="url(#p919373f32d)" d="M 117.458556 293.479494 
L 117.075747 291.885106 
L 116.90858 291.355361 
L 116.371899 290.293294 
L 115.508065 289.231227 
L 113.889546 288.075959 
L 111.449379 287.107093 
L 109.641279 286.722633 
L 106.455078 286.302676 
L 102.20681 286.057236 
L 94.772342 285.944532 
L 88.399941 285.731625 
L 84.151673 285.354277 
L 80.965472 284.850037 
L 78.841338 284.367149 
L 76.717204 283.704118 
L 74.593071 282.797702 
L 72.468937 281.527639 
L 71.40687 280.700212 
L 70.325268 279.672625 
L 69.282736 278.454058 
L 67.972668 276.486424 
L 66.892054 274.36229 
L 66.040307 272.238156 
L 65.034468 268.952439 
L 64.120349 264.803688 
L 63.447735 260.55542 
L 62.834865 255.245086 
L 62.242426 247.810617 
L 61.630958 237.189948 
L 60.786201 217.937545 
L 60.055138 195.769338 
L 59.406642 169.217665 
L 58.763579 133.10739 
L 58.176699 87.438513 
L 57.909575 55.576506 
L 57.909575 55.576506 
" style="fill:none;stroke:#000080;stroke-width:1.5;"/>
   </g>
   <g id="LineCollection_2">
    <path clip-path="url(#p919373f32d)" d="M 286.029089 293.479494 
L 286.397202 291.355361 
L 286.979962 288.16916 
L 287.084426 286.045026 
L 286.997332 282.858825 
L 286.378742 276.486424 
L 285.272749 266.927822 
L 284.281903 259.493353 
L 283.446205 254.183019 
L 282.406515 248.872684 
L 281.308753 244.624416 
L 280.634052 242.48604 
L 279.571985 240.024044 
L 278.504115 238.252015 
L 277.447851 237.025361 
L 276.286143 236.127881 
L 275.323717 235.623381 
L 274.261651 235.264551 
L 272.137517 234.925408 
L 268.951316 234.860783 
L 246.647911 235.246882 
L 227.530706 235.480266 
L 214.785903 235.880646 
L 190.358364 236.771318 
L 183.985963 236.7189 
L 177.613561 236.442139 
L 171.24116 235.947323 
L 162.744625 235.044629 
L 147.875688 233.405839 
L 141.503286 232.925678 
L 135.130885 232.681252 
L 128.758483 232.69577 
L 122.386082 232.949089 
L 114.951613 233.49682 
L 109.641279 234.074854 
L 106.455078 234.593951 
L 104.330944 235.074726 
L 102.20681 235.756422 
L 100.082677 236.730953 
L 99.02061 237.373999 
L 97.848697 238.252015 
L 96.719362 239.314082 
L 95.796256 240.376149 
L 94.397931 242.500283 
L 93.382202 244.624416 
L 92.641147 246.74855 
L 92.135639 248.872684 
L 91.800351 250.996818 
L 91.549899 254.183019 
L 91.239491 259.493353 
L 90.791373 261.617487 
L 90.399277 262.679554 
L 89.462007 264.265262 
L 89.035933 264.803688 
L 87.859826 265.865755 
L 87.337874 266.206023 
L 85.830512 266.927822 
L 85.21374 267.117527 
L 84.151673 267.315637 
L 83.089606 267.377263 
L 82.027539 267.303205 
L 80.459113 266.927822 
L 79.903405 266.735295 
L 78.295117 265.865755 
L 77.779271 265.526489 
L 76.717204 264.643113 
L 75.655138 263.524509 
L 74.274894 261.617487 
L 73.075256 259.493353 
L 72.107065 257.369219 
L 70.950109 254.183019 
L 70.019992 250.996818 
L 69.017566 246.74855 
L 67.836518 240.376149 
L 66.739085 232.94168 
L 65.598545 223.383078 
L 64.572323 212.762409 
L 63.582134 200.017606 
L 62.601711 184.086602 
L 61.629539 163.907331 
L 60.674132 138.417725 
L 59.751715 106.555717 
L 58.726908 63.010974 
L 58.708929 57.700639 
L 58.756237 55.576506 
L 58.756237 55.576506 
" style="fill:none;stroke:#0000e8;stroke-width:1.5;"/>
   </g>
   <g id="LineCollection_3">
    <path clip-path="url(#p919373f32d)" d="M 290.095669 293.479494 
L 290.499637 288.16916 
L 290.471525 284.982959 
L 290.121651 278.610558 
L 288.555297 256.307152 
L 287.33765 240.376149 
L 286.440116 230.817546 
L 285.462134 222.321011 
L 284.546362 215.94861 
L 283.578879 210.638275 
L 282.56527 206.390007 
L 281.538308 203.203807 
L 280.608515 201.079673 
L 279.571985 199.462757 
L 278.509918 198.423342 
L 277.447851 197.851839 
L 276.385784 197.62313 
L 275.323717 197.633946 
L 273.199584 198.067394 
L 266.827182 199.860091 
L 263.640981 200.399021 
L 260.454781 200.696635 
L 256.206513 200.859266 
L 247.709978 200.889771 
L 212.66177 200.917035 
L 184.270523 201.079673 
L 162.744625 201.447521 
L 135.130885 201.867367 
L 126.634349 201.858911 
L 121.324015 201.659316 
L 117.075747 201.315058 
L 111.765413 200.633008 
L 102.20681 199.243077 
L 99.02061 199.095034 
L 96.896476 199.221889 
L 94.772342 199.606267 
L 92.648208 200.32614 
L 90.524074 201.466911 
L 89.462007 202.219369 
L 87.337874 204.128304 
L 85.359393 206.390007 
L 83.745791 208.514141 
L 79.855988 213.824476 
L 78.841338 214.979988 
L 77.763361 215.94861 
L 76.717204 216.565603 
L 75.655138 216.77334 
L 74.593071 216.478263 
L 73.531004 215.593143 
L 72.377461 213.824476 
L 71.40687 211.680003 
L 70.098926 207.452074 
L 68.889774 202.14174 
L 67.935905 196.831405 
L 66.735572 188.33487 
L 65.664661 178.776268 
L 64.609643 167.093532 
L 63.526996 152.224595 
L 62.466863 134.169457 
L 61.414595 111.866052 
L 60.369418 84.252312 
L 59.559479 58.762706 
L 59.654581 55.576506 
L 59.654581 55.576506 
" style="fill:none;stroke:#0038ff;stroke-width:1.5;"/>
   </g>
   <g id="LineCollection_4">
    <path clip-path="url(#p919373f32d)" d="M 292.340357 293.479494 
L 292.462136 284.982959 
L 292.129074 277.548491 
L 290.221492 239.314082 
L 289.405622 225.507212 
L 288.521969 212.762409 
L 287.541111 201.079673 
L 286.549838 191.521071 
L 285.59392 184.086602 
L 284.556327 177.714201 
L 283.411382 172.403866 
L 282.504518 169.217665 
L 281.696119 166.998697 
L 280.598862 164.969398 
L 279.571985 163.785739 
L 278.509918 163.171968 
L 277.447851 163.033401 
L 276.385784 163.2511 
L 275.014726 163.907331 
L 273.199584 165.083948 
L 270.013383 167.336724 
L 267.889249 168.615605 
L 265.765115 169.614489 
L 263.640981 170.335574 
L 261.516848 170.817463 
L 259.392714 171.108045 
L 256.206513 171.292742 
L 251.958245 171.279192 
L 234.965175 170.975816 
L 106.455078 170.614317 
L 96.896476 170.432142 
L 93.710275 170.610785 
L 91.586141 170.903561 
L 89.462007 171.39814 
L 87.337874 172.153866 
L 85.21374 173.218364 
L 83.089606 174.602502 
L 77.779271 178.546172 
L 76.717204 179.035335 
L 75.655138 179.234105 
L 74.593071 179.033427 
L 73.531004 178.31648 
L 72.316691 176.652134 
L 71.302098 174.528 
L 70.229418 171.341799 
L 68.953588 166.031465 
L 67.798286 159.659063 
L 66.735524 152.224595 
L 65.638304 142.665993 
L 64.553235 130.983257 
L 63.507539 117.176387 
L 62.457202 100.183316 
L 60.748653 67.259242 
L 60.50592 59.824773 
L 60.658957 55.576506 
L 60.658957 55.576506 
" style="fill:none;stroke:#0094ff;stroke-width:1.5;"/>
   </g>
   <g id="LineCollection_5">
    <path clip-path="url(#p919373f32d)" d="M 294.040023 293.479494 
L 293.955123 281.796758 
L 292.863958 252.058885 
L 291.650802 222.321011 
L 290.626422 202.14174 
L 289.629258 186.210736 
L 288.647858 173.465933 
L 287.634053 162.845264 
L 286.616746 154.348729 
L 285.658986 147.976327 
L 284.640172 142.665993 
L 283.561546 138.417725 
L 282.440943 135.231524 
L 281.696119 133.608053 
L 280.57301 132.045323 
L 279.571985 131.257518 
L 278.489604 130.983257 
L 277.447851 131.158775 
L 275.934256 132.045323 
L 274.697378 133.10739 
L 273.199584 134.647152 
L 268.951316 139.278359 
L 266.827182 141.186936 
L 264.703048 142.674057 
L 262.578914 143.745329 
L 260.454781 144.448808 
L 258.330647 144.84804 
L 256.206513 145.011658 
L 253.020312 144.948409 
L 248.772045 144.557289 
L 241.337576 143.805767 
L 237.089309 143.574933 
L 231.778974 143.512128 
L 221.158305 143.712691 
L 209.475569 143.835169 
L 108.579212 143.823874 
L 93.710275 143.839992 
L 89.462007 144.113611 
L 86.275807 144.593088 
L 84.151673 145.099792 
L 80.965472 146.139531 
L 77.779271 147.198732 
L 76.717204 147.389896 
L 75.655138 147.389951 
L 74.295129 146.91426 
L 73.531004 146.425556 
L 72.224447 144.790126 
L 71.136187 142.665993 
L 70.308923 140.541859 
L 69.129372 136.293591 
L 67.839808 129.92119 
L 66.835622 123.548788 
L 65.651668 113.990186 
L 64.601823 103.369517 
L 63.495619 89.562647 
L 61.739163 64.073041 
L 61.630314 59.824773 
L 61.844223 55.576506 
L 61.844223 55.576506 
" style="fill:none;stroke:#0cf4eb;stroke-width:1.5;"/>
   </g>
   <g id="LineCollection_6">
    <path clip-path="url(#p919373f32d)" d="M 295.565046 293.479494 
L 295.342727 277.548491 
L 294.344767 242.500283 
L 293.171564 208.514141 
L 292.047311 183.024535 
L 290.975143 163.907331 
L 289.914279 149.038394 
L 288.848506 137.355658 
L 287.71814 127.797056 
L 286.755926 121.424654 
L 285.736524 116.11432 
L 284.677818 111.866052 
L 283.624207 108.679851 
L 282.689813 106.555717 
L 281.696119 104.955943 
L 280.634052 103.892553 
L 279.571985 103.381947 
L 278.430099 103.369517 
L 277.447851 103.70036 
L 276.336323 104.431584 
L 275.176541 105.493651 
L 273.199584 107.754722 
L 267.401901 115.052253 
L 265.765115 116.780097 
L 263.640981 118.614126 
L 261.516848 119.977463 
L 259.392714 120.890996 
L 257.26858 121.405069 
L 255.144446 121.586483 
L 253.020312 121.504324 
L 249.834112 121.037963 
L 245.585844 120.092941 
L 240.275509 118.911438 
L 236.027242 118.221815 
L 231.778974 117.83511 
L 227.530706 117.714785 
L 222.220372 117.823209 
L 196.730766 118.745864 
L 178.675628 118.906678 
L 106.455078 119.400316 
L 89.462007 119.657428 
L 84.151673 120.007266 
L 77.779271 120.58028 
L 76.717204 120.528362 
L 75.655138 120.334184 
L 74.593071 119.925518 
L 73.531004 119.207348 
L 72.468937 118.062634 
L 71.304926 116.11432 
L 70.037998 112.928119 
L 69.095856 109.741918 
L 67.931565 104.431584 
L 66.86217 98.059182 
L 65.748455 89.562647 
L 64.415467 76.817844 
L 63.3479 65.135108 
L 63.13835 60.88684 
L 63.217697 58.762706 
L 63.501475 55.576506 
L 63.501475 55.576506 
" style="fill:none;stroke:#56ffa0;stroke-width:1.5;"/>
   </g>
   <g id="LineCollection_7">
    <path clip-path="url(#p919373f32d)" d="M 300.771179 293.479494 
L 300.663754 287.107093 
L 300.34256 280.734691 
L 299.737657 273.300223 
L 298.528799 261.617487 
L 296.465809 242.500283 
L 295.070473 206.390007 
L 294.057665 177.714201 
L 293.057767 155.410796 
L 292.015743 137.355658 
L 290.978888 123.548788 
L 289.951377 112.928119 
L 288.908629 104.431584 
L 287.724082 96.997115 
L 286.858482 92.748848 
L 285.716498 88.50058 
L 284.55507 85.314379 
L 283.530813 83.190245 
L 282.758186 81.891351 
L 281.696119 80.52821 
L 280.634052 79.507689 
L 279.571985 78.763457 
L 278.509918 78.262019 
L 276.791867 77.879911 
L 276.385784 77.836426 
L 275.323717 77.889482 
L 274.261651 78.119503 
L 272.366886 78.941978 
L 272.137517 79.07684 
L 270.889426 80.004045 
L 269.810683 81.066112 
L 268.94084 82.128178 
L 267.575405 84.252312 
L 265.949407 87.438513 
L 263.816027 91.686781 
L 262.493586 93.810914 
L 261.516848 95.091453 
L 260.454781 96.243039 
L 259.392714 97.183174 
L 258.133999 98.059182 
L 256.206513 99.018679 
L 255.144446 99.380133 
L 253.020312 99.839169 
L 250.896178 100.032396 
L 247.709978 99.993307 
L 243.46171 99.605311 
L 234.965175 98.475973 
L 226.468639 97.417865 
L 219.034171 96.720751 
L 211.599703 96.279328 
L 204.165234 96.071565 
L 194.606632 96.036665 
L 164.868758 96.084459 
L 145.751554 95.783868 
L 78.841338 94.411949 
L 76.717204 94.035483 
L 75.655138 93.671188 
L 74.1299 92.748848 
L 73.531004 92.275923 
L 72.20952 90.624714 
L 71.40687 89.304467 
L 70.19464 86.376446 
L 68.959944 82.128178 
L 68.01021 77.879911 
L 66.749939 70.445442 
L 66.042278 65.135108 
L 65.888826 61.948907 
L 65.975705 59.824773 
L 66.281952 57.700639 
L 66.445098 56.638572 
L 66.474414 55.576506 
L 66.474414 55.576506 
" style="fill:none;stroke:#a0ff56;stroke-width:1.5;"/>
   </g>
   <g id="LineCollection_8">
    <path clip-path="url(#p919373f32d)" d="M 308.272629 293.479494 
L 308.130818 284.982959 
L 307.748681 276.486424 
L 307.014808 265.865755 
L 305.815043 252.058885 
L 304.11868 235.065814 
L 302.094949 217.010677 
L 299.958522 200.017606 
L 297.867695 185.148669 
L 296.507415 175.590067 
L 294.953126 144.790126 
L 294.056266 126.734989 
L 293.107017 111.866052 
L 292.057285 99.121249 
L 291.122862 90.624714 
L 290.192654 84.587494 
L 289.436312 81.066112 
L 288.868967 78.941978 
L 287.754466 75.755777 
L 286.736355 73.631643 
L 285.944387 72.334413 
L 284.88232 70.986583 
L 283.820253 69.95234 
L 282.758186 69.151541 
L 281.240395 68.321309 
L 279.571985 67.699212 
L 277.447851 67.234029 
L 275.323717 67.048706 
L 273.199584 67.068337 
L 271.06588 67.259242 
L 267.889249 67.820822 
L 264.703048 68.664346 
L 261.516848 69.752825 
L 257.24963 71.507509 
L 248.772045 75.257579 
L 245.585844 76.384213 
L 242.399643 77.193908 
L 240.275509 77.539499 
L 237.089309 77.780562 
L 233.903108 77.724732 
L 230.716907 77.430813 
L 226.468639 76.784248 
L 220.096238 75.467352 
L 194.606632 69.807384 
L 188.188055 68.321309 
L 181.861829 66.520033 
L 179.737695 65.785493 
L 177.613561 64.949491 
L 175.489428 63.937301 
L 173.365294 62.601103 
L 172.303227 61.731871 
L 171.24116 60.505163 
L 170.794098 59.824773 
L 170.368003 58.762706 
L 170.161111 57.700639 
L 170.180068 55.576506 
L 170.180068 55.576506 
" style="fill:none;stroke:#ebff0c;stroke-width:1.5;"/>
   </g>
   <g id="LineCollection_9">
    <path clip-path="url(#p919373f32d)" d="M 315.976216 293.479494 
L 315.85374 283.920892 
L 315.479999 273.300223 
L 314.783034 260.55542 
L 313.674935 244.624416 
L 312.11823 225.507212 
L 310.339256 206.390007 
L 308.543596 189.396937 
L 306.767114 174.528 
L 304.900447 160.72113 
L 303.114301 149.038394 
L 301.283605 138.417725 
L 299.426298 128.859123 
L 297.570891 120.362587 
L 296.562968 116.11432 
L 293.675764 82.128178 
L 293.052257 77.879911 
L 292.184922 73.631643 
L 291.236976 70.445442 
L 290.192654 68.033977 
L 289.059808 66.197175 
L 288.06852 65.001041 
L 287.006454 63.999022 
L 284.88232 62.510772 
L 282.758186 61.410047 
L 277.447851 59.014423 
L 276.953072 58.762706 
L 275.695475 57.700639 
L 275.181383 56.638572 
L 275.167337 55.576506 
L 275.167337 55.576506 
" style="fill:none;stroke:#ffab00;stroke-width:1.5;"/>
   </g>
   <g id="LineCollection_10">
    <path clip-path="url(#p919373f32d)" d="M 323.830035 293.479494 
L 323.713389 281.796758 
L 323.366311 269.051955 
L 322.698557 253.120952 
L 321.61574 232.94168 
L 320.194848 210.638275 
L 318.698408 190.459004 
L 317.142434 172.403866 
L 315.543794 156.472862 
L 313.930595 142.665993 
L 312.350407 130.983257 
L 310.695217 120.362587 
L 308.982261 110.803985 
L 307.185725 102.079827 
L 305.485353 94.872981 
L 303.762643 88.50058 
L 302.111107 83.190245 
L 300.592453 78.941978 
L 298.820004 74.69371 
L 297.239396 71.507509 
L 296.565056 70.31174 
L 295.843299 67.259242 
L 295.317298 65.135108 
L 294.440922 61.62581 
L 292.632331 55.576506 
L 292.632331 55.576506 
" style="fill:none;stroke:#ff5500;stroke-width:1.5;"/>
   </g>
   <g id="LineCollection_11">
    <path clip-path="url(#p919373f32d)" d="M 331.787587 293.479494 
L 331.66852 277.548491 
L 331.30514 259.493353 
L 330.601837 236.127881 
L 329.48913 207.018229 
L 328.323123 181.962468 
L 327.122268 160.72113 
L 325.877575 142.665993 
L 324.642091 127.797056 
L 323.376839 115.052253 
L 322.011822 103.369517 
L 320.418484 91.686781 
L 317.806394 74.662205 
L 316.744327 66.896311 
L 316.264096 61.948907 
L 316.055329 57.700639 
L 316.033821 55.576506 
L 316.033821 55.576506 
" style="fill:none;stroke:#e80000;stroke-width:1.5;"/>
   </g>
   <g id="LineCollection_12">
    <path clip-path="url(#p919373f32d)" d="M 339.806927 293.479494 
L 339.692833 265.865755 
L 339.341747 230.817546 
L 338.511667 173.465933 
L 337.882822 143.728059 
L 337.076494 116.11432 
L 335.905212 87.438513 
L 335.161122 70.445442 
L 334.92128 59.824773 
L 334.900691 55.576506 
L 334.900691 55.576506 
" style="fill:none;stroke:#800000;stroke-width:1.5;"/>
   </g>
   <g id="patch_3">
    <path d="M 57.6 293.479494 
L 57.6 55.576506 
" style="fill:none;stroke:#000000;stroke-linecap:square;stroke-linejoin:miter;stroke-width:0.8;"/>
   </g>
   <g id="patch_4">
    <path d="M 343.296 293.479494 
L 343.296 55.576506 
" style="fill:none;stroke:#000000;stroke-linecap:square;stroke-linejoin:miter;stroke-width:0.8;"/>
   </g>
   <g id="patch_5">
    <path d="M 57.6 293.479494 
L 343.296 293.479494 
" style="fill:none;stroke:#000000;stroke-linecap:square;stroke-linejoin:miter;stroke-width:0.8;"/>
   </g>
   <g id="patch_6">
    <path d="M 57.6 55.576506 
L 343.296 55.576506 
" style="fill:none;stroke:#000000;stroke-linecap:square;stroke-linejoin:miter;stroke-width:0.8;"/>
   </g>
   <g id="text_10">
    <!-- Time:0.12840 s -->
    <defs>
     <path d="M -0.296875 72.90625 
L 61.375 72.90625 
L 61.375 64.59375 
L 35.5 64.59375 
L 35.5 0 
L 25.59375 0 
L 25.59375 64.59375 
L -0.296875 64.59375 
z
" id="DejaVuSans-54"/>
     <path d="M 9.421875 54.6875 
L 18.40625 54.6875 
L 18.40625 0 
L 9.421875 0 
z
M 9.421875 75.984375 
L 18.40625 75.984375 
L 18.40625 64.59375 
L 9.421875 64.59375 
z
" id="DejaVuSans-69"/>
     <path d="M 52 44.1875 
Q 55.375 50.25 60.0625 53.125 
Q 64.75 56 71.09375 56 
Q 79.640625 56 84.28125 50.015625 
Q 88.921875 44.046875 88.921875 33.015625 
L 88.921875 0 
L 79.890625 0 
L 79.890625 32.71875 
Q 79.890625 40.578125 77.09375 44.375 
Q 74.3125 48.1875 68.609375 48.1875 
Q 61.625 48.1875 57.5625 43.546875 
Q 53.515625 38.921875 53.515625 30.90625 
L 53.515625 0 
L 44.484375 0 
L 44.484375 32.71875 
Q 44.484375 40.625 41.703125 44.40625 
Q 38.921875 48.1875 33.109375 48.1875 
Q 26.21875 48.1875 22.15625 43.53125 
Q 18.109375 38.875 18.109375 30.90625 
L 18.109375 0 
L 9.078125 0 
L 9.078125 54.6875 
L 18.109375 54.6875 
L 18.109375 46.1875 
Q 21.1875 51.21875 25.484375 53.609375 
Q 29.78125 56 35.6875 56 
Q 41.65625 56 45.828125 52.96875 
Q 50 49.953125 52 44.1875 
z
" id="DejaVuSans-6d"/>
     <path d="M 56.203125 29.59375 
L 56.203125 25.203125 
L 14.890625 25.203125 
Q 15.484375 15.921875 20.484375 11.0625 
Q 25.484375 6.203125 34.421875 6.203125 
Q 39.59375 6.203125 44.453125 7.46875 
Q 49.3125 8.734375 54.109375 11.28125 
L 54.109375 2.78125 
Q 49.265625 0.734375 44.1875 -0.34375 
Q 39.109375 -1.421875 33.890625 -1.421875 
Q 20.796875 -1.421875 13.15625 6.1875 
Q 5.515625 13.8125 5.515625 26.8125 
Q 5.515625 40.234375 12.765625 48.109375 
Q 20.015625 56 32.328125 56 
Q 43.359375 56 49.78125 48.890625 
Q 56.203125 41.796875 56.203125 29.59375 
z
M 47.21875 32.234375 
Q 47.125 39.59375 43.09375 43.984375 
Q 39.0625 48.390625 32.421875 48.390625 
Q 24.90625 48.390625 20.390625 44.140625 
Q 15.875 39.890625 15.1875 32.171875 
z
" id="DejaVuSans-65"/>
     <path d="M 11.71875 12.40625 
L 22.015625 12.40625 
L 22.015625 0 
L 11.71875 0 
z
M 11.71875 51.703125 
L 22.015625 51.703125 
L 22.015625 39.3125 
L 11.71875 39.3125 
z
" id="DejaVuSans-3a"/>
     <path id="DejaVuSans-20"/>
     <path d="M 44.28125 53.078125 
L 44.28125 44.578125 
Q 40.484375 46.53125 36.375 47.5 
Q 32.28125 48.484375 27.875 48.484375 
Q 21.1875 48.484375 17.84375 46.4375 
Q 14.5 44.390625 14.5 40.28125 
Q 14.5 37.15625 16.890625 35.375 
Q 19.28125 33.59375 26.515625 31.984375 
L 29.59375 31.296875 
Q 39.15625 29.25 43.1875 25.515625 
Q 47.21875 21.78125 47.21875 15.09375 
Q 47.21875 7.46875 41.1875 3.015625 
Q 35.15625 -1.421875 24.609375 -1.421875 
Q 20.21875 -1.421875 15.453125 -0.5625 
Q 10.6875 0.296875 5.421875 2 
L 5.421875 11.28125 
Q 10.40625 8.6875 15.234375 7.390625 
Q 20.0625 6.109375 24.8125 6.109375 
Q 31.15625 6.109375 34.5625 8.28125 
Q 37.984375 10.453125 37.984375 14.40625 
Q 37.984375 18.0625 35.515625 20.015625 
Q 33.0625 21.96875 24.703125 23.78125 
L 21.578125 24.515625 
Q 13.234375 26.265625 9.515625 29.90625 
Q 5.8125 33.546875 5.8125 39.890625 
Q 5.8125 47.609375 11.28125 51.796875 
Q 16.75 56 26.8125 56 
Q 31.78125 56 36.171875 55.265625 
Q 40.578125 54.546875 44.28125 53.078125 
z
" id="DejaVuSans-73"/>
    </defs>
    <g transform="translate(153.717375 49.576506)scale(0.12 -0.12)">
     <use xlink:href="#DejaVuSans-54"/>
     <use x="61.037109" xlink:href="#DejaVuSans-69"/>
     <use x="88.820312" xlink:href="#DejaVuSans-6d"/>
     <use x="186.232422" xlink:href="#DejaVuSans-65"/>
     <use x="247.755859" xlink:href="#DejaVuSans-3a"/>
     <use x="281.447266" xlink:href="#DejaVuSans-30"/>
     <use x="345.070312" xlink:href="#DejaVuSans-2e"/>
     <use x="376.857422" xlink:href="#DejaVuSans-31"/>
     <use x="440.480469" xlink:href="#DejaVuSans-32"/>
     <use x="504.103516" xlink:href="#DejaVuSans-38"/>
     <use x="567.726562" xlink:href="#DejaVuSans-34"/>
     <use x="631.349609" xlink:href="#DejaVuSans-30"/>
     <use x="694.972656" xlink:href="#DejaVuSans-20"/>
     <use x="726.759766" xlink:href="#DejaVuSans-73"/>
    </g>
   </g>
  </g>
  <g id="axes_2">
   <g id="patch_7">
    <path clip-path="url(#p4f18974138)" d="M 361.152 307.584 
L 361.152 283.392 
L 361.152 65.664 
L 361.152 41.472 
L 374.4576 41.472 
L 374.4576 65.664 
L 374.4576 283.392 
L 374.4576 307.584 
z
" style="fill:#ffffff;stroke:#ffffff;stroke-linejoin:miter;stroke-width:0.01;"/>
   </g>
   <g id="matplotlib.axis_3"/>
   <g id="matplotlib.axis_4">
    <g id="ytick_5">
     <g id="line2d_10">
      <defs>
       <path d="M 0 0 
L 3.5 0 
" id="m98c972b38d" style="stroke:#000000;stroke-width:0.8;"/>
      </defs>
      <g>
       <use style="stroke:#000000;stroke-width:0.8;" x="374.4576" xlink:href="#m98c972b38d" y="307.584"/>
      </g>
     </g>
     <g id="text_11">
      <!-- 0.08 -->
      <g transform="translate(381.4576 311.383219)scale(0.1 -0.1)">
       <use xlink:href="#DejaVuSans-30"/>
       <use x="63.623047" xlink:href="#DejaVuSans-2e"/>
       <use x="95.410156" xlink:href="#DejaVuSans-30"/>
       <use x="159.033203" xlink:href="#DejaVuSans-38"/>
      </g>
     </g>
    </g>
    <g id="ytick_6">
     <g id="line2d_11">
      <g>
       <use style="stroke:#000000;stroke-width:0.8;" x="374.4576" xlink:href="#m98c972b38d" y="259.2"/>
      </g>
     </g>
     <g id="text_12">
      <!-- 0.24 -->
      <g transform="translate(381.4576 262.999219)scale(0.1 -0.1)">
       <use xlink:href="#DejaVuSans-30"/>
       <use x="63.623047" xlink:href="#DejaVuSans-2e"/>
       <use x="95.410156" xlink:href="#DejaVuSans-32"/>
       <use x="159.033203" xlink:href="#DejaVuSans-34"/>
      </g>
     </g>
    </g>
    <g id="ytick_7">
     <g id="line2d_12">
      <g>
       <use style="stroke:#000000;stroke-width:0.8;" x="374.4576" xlink:href="#m98c972b38d" y="210.816"/>
      </g>
     </g>
     <g id="text_13">
      <!-- 0.40 -->
      <g transform="translate(381.4576 214.615219)scale(0.1 -0.1)">
       <use xlink:href="#DejaVuSans-30"/>
       <use x="63.623047" xlink:href="#DejaVuSans-2e"/>
       <use x="95.410156" xlink:href="#DejaVuSans-34"/>
       <use x="159.033203" xlink:href="#DejaVuSans-30"/>
      </g>
     </g>
    </g>
    <g id="ytick_8">
     <g id="line2d_13">
      <g>
       <use style="stroke:#000000;stroke-width:0.8;" x="374.4576" xlink:href="#m98c972b38d" y="162.432"/>
      </g>
     </g>
     <g id="text_14">
      <!-- 0.56 -->
      <defs>
       <path d="M 10.796875 72.90625 
L 49.515625 72.90625 
L 49.515625 64.59375 
L 19.828125 64.59375 
L 19.828125 46.734375 
Q 21.96875 47.46875 24.109375 47.828125 
Q 26.265625 48.1875 28.421875 48.1875 
Q 40.625 48.1875 47.75 41.5 
Q 54.890625 34.8125 54.890625 23.390625 
Q 54.890625 11.625 47.5625 5.09375 
Q 40.234375 -1.421875 26.90625 -1.421875 
Q 22.3125 -1.421875 17.546875 -0.640625 
Q 12.796875 0.140625 7.71875 1.703125 
L 7.71875 11.625 
Q 12.109375 9.234375 16.796875 8.0625 
Q 21.484375 6.890625 26.703125 6.890625 
Q 35.15625 6.890625 40.078125 11.328125 
Q 45.015625 15.765625 45.015625 23.390625 
Q 45.015625 31 40.078125 35.4375 
Q 35.15625 39.890625 26.703125 39.890625 
Q 22.75 39.890625 18.8125 39.015625 
Q 14.890625 38.140625 10.796875 36.28125 
z
" id="DejaVuSans-35"/>
      </defs>
      <g transform="translate(381.4576 166.231219)scale(0.1 -0.1)">
       <use xlink:href="#DejaVuSans-30"/>
       <use x="63.623047" xlink:href="#DejaVuSans-2e"/>
       <use x="95.410156" xlink:href="#DejaVuSans-35"/>
       <use x="159.033203" xlink:href="#DejaVuSans-36"/>
      </g>
     </g>
    </g>
    <g id="ytick_9">
     <g id="line2d_14">
      <g>
       <use style="stroke:#000000;stroke-width:0.8;" x="374.4576" xlink:href="#m98c972b38d" y="114.048"/>
      </g>
     </g>
     <g id="text_15">
      <!-- 0.72 -->
      <defs>
       <path d="M 8.203125 72.90625 
L 55.078125 72.90625 
L 55.078125 68.703125 
L 28.609375 0 
L 18.3125 0 
L 43.21875 64.59375 
L 8.203125 64.59375 
z
" id="DejaVuSans-37"/>
      </defs>
      <g transform="translate(381.4576 117.847219)scale(0.1 -0.1)">
       <use xlink:href="#DejaVuSans-30"/>
       <use x="63.623047" xlink:href="#DejaVuSans-2e"/>
       <use x="95.410156" xlink:href="#DejaVuSans-37"/>
       <use x="159.033203" xlink:href="#DejaVuSans-32"/>
      </g>
     </g>
    </g>
    <g id="ytick_10">
     <g id="line2d_15">
      <g>
       <use style="stroke:#000000;stroke-width:0.8;" x="374.4576" xlink:href="#m98c972b38d" y="65.664"/>
      </g>
     </g>
     <g id="text_16">
      <!-- 0.88 -->
      <g transform="translate(381.4576 69.463219)scale(0.1 -0.1)">
       <use xlink:href="#DejaVuSans-30"/>
       <use x="63.623047" xlink:href="#DejaVuSans-2e"/>
       <use x="95.410156" xlink:href="#DejaVuSans-38"/>
       <use x="159.033203" xlink:href="#DejaVuSans-38"/>
      </g>
     </g>
    </g>
   </g>
   <g id="LineCollection_13">
    <path clip-path="url(#p4f18974138)" d="M 361.152 307.584 
L 374.4576 307.584 
" style="fill:none;stroke:#000080;stroke-width:1.5;"/>
    <path clip-path="url(#p4f18974138)" d="M 361.152 283.392 
L 374.4576 283.392 
" style="fill:none;stroke:#0000e8;stroke-width:1.5;"/>
    <path clip-path="url(#p4f18974138)" d="M 361.152 259.2 
L 374.4576 259.2 
" style="fill:none;stroke:#0038ff;stroke-width:1.5;"/>
    <path clip-path="url(#p4f18974138)" d="M 361.152 235.008 
L 374.4576 235.008 
" style="fill:none;stroke:#0094ff;stroke-width:1.5;"/>
    <path clip-path="url(#p4f18974138)" d="M 361.152 210.816 
L 374.4576 210.816 
" style="fill:none;stroke:#0cf4eb;stroke-width:1.5;"/>
    <path clip-path="url(#p4f18974138)" d="M 361.152 186.624 
L 374.4576 186.624 
" style="fill:none;stroke:#56ffa0;stroke-width:1.5;"/>
    <path clip-path="url(#p4f18974138)" d="M 361.152 162.432 
L 374.4576 162.432 
" style="fill:none;stroke:#a0ff56;stroke-width:1.5;"/>
    <path clip-path="url(#p4f18974138)" d="M 361.152 138.24 
L 374.4576 138.24 
" style="fill:none;stroke:#ebff0c;stroke-width:1.5;"/>
    <path clip-path="url(#p4f18974138)" d="M 361.152 114.048 
L 374.4576 114.048 
" style="fill:none;stroke:#ffab00;stroke-width:1.5;"/>
    <path clip-path="url(#p4f18974138)" d="M 361.152 89.856 
L 374.4576 89.856 
" style="fill:none;stroke:#ff5500;stroke-width:1.5;"/>
    <path clip-path="url(#p4f18974138)" d="M 361.152 65.664 
L 374.4576 65.664 
" style="fill:none;stroke:#e80000;stroke-width:1.5;"/>
    <path clip-path="url(#p4f18974138)" d="M 361.152 41.472 
L 374.4576 41.472 
" style="fill:none;stroke:#800000;stroke-width:1.5;"/>
   </g>
   <g id="patch_8">
    <path d="M 361.152 307.584 
L 361.152 283.392 
L 361.152 65.664 
L 361.152 41.472 
L 374.4576 41.472 
L 374.4576 65.664 
L 374.4576 283.392 
L 374.4576 307.584 
z
" style="fill:none;stroke:#000000;stroke-linejoin:miter;stroke-width:0.8;"/>
   </g>
  </g>
 </g>
 <defs>
  <clipPath id="p919373f32d">
   <rect height="237.902989" width="285.696" x="57.6" y="55.576506"/>
  </clipPath>
  <clipPath id="p4f18974138">
   <rect height="266.112" width="13.3056" x="361.152" y="41.472"/>
  </clipPath>
 </defs>
</svg>
