<?xml version="1.0" encoding="utf-8" standalone="no"?>
<!DOCTYPE svg PUBLIC "-//W3C//DTD SVG 1.1//EN"
  "http://www.w3.org/Graphics/SVG/1.1/DTD/svg11.dtd">
<!-- Created with matplotlib (http://matplotlib.org/) -->
<svg height="345.6pt" version="1.1" viewBox="0 0 460.8 345.6" width="460.8pt" xmlns="http://www.w3.org/2000/svg" xmlns:xlink="http://www.w3.org/1999/xlink">
 <defs>
  <style type="text/css">
*{stroke-linecap:butt;stroke-linejoin:round;}
  </style>
 </defs>
 <g id="figure_1">
  <g id="patch_1">
   <path d="M 0 345.6 
L 460.8 345.6 
L 460.8 0 
L 0 0 
z
" style="fill:#ffffff;"/>
  </g>
  <g id="axes_1">
   <g id="patch_2">
    <path d="M 57.6 293.479494 
L 343.296 293.479494 
L 343.296 55.576506 
L 57.6 55.576506 
z
" style="fill:#ffffff;"/>
   </g>
   <g id="matplotlib.axis_1">
    <g id="xtick_1">
     <g id="line2d_1">
      <defs>
       <path d="M 0 0 
L 0 3.5 
" id="m1a62c6490d" style="stroke:#000000;stroke-width:0.8;"/>
      </defs>
      <g>
       <use style="stroke:#000000;stroke-width:0.8;" x="104.861978" xlink:href="#m1a62c6490d" y="293.479494"/>
      </g>
     </g>
     <g id="text_1">
      <!-- 0.2 -->
      <defs>
       <path d="M 31.78125 66.40625 
Q 24.171875 66.40625 20.328125 58.90625 
Q 16.5 51.421875 16.5 36.375 
Q 16.5 21.390625 20.328125 13.890625 
Q 24.171875 6.390625 31.78125 6.390625 
Q 39.453125 6.390625 43.28125 13.890625 
Q 47.125 21.390625 47.125 36.375 
Q 47.125 51.421875 43.28125 58.90625 
Q 39.453125 66.40625 31.78125 66.40625 
z
M 31.78125 74.21875 
Q 44.046875 74.21875 50.515625 64.515625 
Q 56.984375 54.828125 56.984375 36.375 
Q 56.984375 17.96875 50.515625 8.265625 
Q 44.046875 -1.421875 31.78125 -1.421875 
Q 19.53125 -1.421875 13.0625 8.265625 
Q 6.59375 17.96875 6.59375 36.375 
Q 6.59375 54.828125 13.0625 64.515625 
Q 19.53125 74.21875 31.78125 74.21875 
z
" id="DejaVuSans-30"/>
       <path d="M 10.6875 12.40625 
L 21 12.40625 
L 21 0 
L 10.6875 0 
z
" id="DejaVuSans-2e"/>
       <path d="M 19.1875 8.296875 
L 53.609375 8.296875 
L 53.609375 0 
L 7.328125 0 
L 7.328125 8.296875 
Q 12.9375 14.109375 22.625 23.890625 
Q 32.328125 33.6875 34.8125 36.53125 
Q 39.546875 41.84375 41.421875 45.53125 
Q 43.3125 49.21875 43.3125 52.78125 
Q 43.3125 58.59375 39.234375 62.25 
Q 35.15625 65.921875 28.609375 65.921875 
Q 23.96875 65.921875 18.8125 64.3125 
Q 13.671875 62.703125 7.8125 59.421875 
L 7.8125 69.390625 
Q 13.765625 71.78125 18.9375 73 
Q 24.125 74.21875 28.421875 74.21875 
Q 39.75 74.21875 46.484375 68.546875 
Q 53.21875 62.890625 53.21875 53.421875 
Q 53.21875 48.921875 51.53125 44.890625 
Q 49.859375 40.875 45.40625 35.40625 
Q 44.1875 33.984375 37.640625 27.21875 
Q 31.109375 20.453125 19.1875 8.296875 
z
" id="DejaVuSans-32"/>
      </defs>
      <g transform="translate(96.910415 308.077932)scale(0.1 -0.1)">
       <use xlink:href="#DejaVuSans-30"/>
       <use x="63.623047" xlink:href="#DejaVuSans-2e"/>
       <use x="95.410156" xlink:href="#DejaVuSans-32"/>
      </g>
     </g>
    </g>
    <g id="xtick_2">
     <g id="line2d_2">
      <g>
       <use style="stroke:#000000;stroke-width:0.8;" x="152.654989" xlink:href="#m1a62c6490d" y="293.479494"/>
      </g>
     </g>
     <g id="text_2">
      <!-- 0.4 -->
      <defs>
       <path d="M 37.796875 64.3125 
L 12.890625 25.390625 
L 37.796875 25.390625 
z
M 35.203125 72.90625 
L 47.609375 72.90625 
L 47.609375 25.390625 
L 58.015625 25.390625 
L 58.015625 17.1875 
L 47.609375 17.1875 
L 47.609375 0 
L 37.796875 0 
L 37.796875 17.1875 
L 4.890625 17.1875 
L 4.890625 26.703125 
z
" id="DejaVuSans-34"/>
      </defs>
      <g transform="translate(144.703426 308.077932)scale(0.1 -0.1)">
       <use xlink:href="#DejaVuSans-30"/>
       <use x="63.623047" xlink:href="#DejaVuSans-2e"/>
       <use x="95.410156" xlink:href="#DejaVuSans-34"/>
      </g>
     </g>
    </g>
    <g id="xtick_3">
     <g id="line2d_3">
      <g>
       <use style="stroke:#000000;stroke-width:0.8;" x="200.448" xlink:href="#m1a62c6490d" y="293.479494"/>
      </g>
     </g>
     <g id="text_3">
      <!-- 0.6 -->
      <defs>
       <path d="M 33.015625 40.375 
Q 26.375 40.375 22.484375 35.828125 
Q 18.609375 31.296875 18.609375 23.390625 
Q 18.609375 15.53125 22.484375 10.953125 
Q 26.375 6.390625 33.015625 6.390625 
Q 39.65625 6.390625 43.53125 10.953125 
Q 47.40625 15.53125 47.40625 23.390625 
Q 47.40625 31.296875 43.53125 35.828125 
Q 39.65625 40.375 33.015625 40.375 
z
M 52.59375 71.296875 
L 52.59375 62.3125 
Q 48.875 64.0625 45.09375 64.984375 
Q 41.3125 65.921875 37.59375 65.921875 
Q 27.828125 65.921875 22.671875 59.328125 
Q 17.53125 52.734375 16.796875 39.40625 
Q 19.671875 43.65625 24.015625 45.921875 
Q 28.375 48.1875 33.59375 48.1875 
Q 44.578125 48.1875 50.953125 41.515625 
Q 57.328125 34.859375 57.328125 23.390625 
Q 57.328125 12.15625 50.6875 5.359375 
Q 44.046875 -1.421875 33.015625 -1.421875 
Q 20.359375 -1.421875 13.671875 8.265625 
Q 6.984375 17.96875 6.984375 36.375 
Q 6.984375 53.65625 15.1875 63.9375 
Q 23.390625 74.21875 37.203125 74.21875 
Q 40.921875 74.21875 44.703125 73.484375 
Q 48.484375 72.75 52.59375 71.296875 
z
" id="DejaVuSans-36"/>
      </defs>
      <g transform="translate(192.496438 308.077932)scale(0.1 -0.1)">
       <use xlink:href="#DejaVuSans-30"/>
       <use x="63.623047" xlink:href="#DejaVuSans-2e"/>
       <use x="95.410156" xlink:href="#DejaVuSans-36"/>
      </g>
     </g>
    </g>
    <g id="xtick_4">
     <g id="line2d_4">
      <g>
       <use style="stroke:#000000;stroke-width:0.8;" x="248.241011" xlink:href="#m1a62c6490d" y="293.479494"/>
      </g>
     </g>
     <g id="text_4">
      <!-- 0.8 -->
      <defs>
       <path d="M 31.78125 34.625 
Q 24.75 34.625 20.71875 30.859375 
Q 16.703125 27.09375 16.703125 20.515625 
Q 16.703125 13.921875 20.71875 10.15625 
Q 24.75 6.390625 31.78125 6.390625 
Q 38.8125 6.390625 42.859375 10.171875 
Q 46.921875 13.96875 46.921875 20.515625 
Q 46.921875 27.09375 42.890625 30.859375 
Q 38.875 34.625 31.78125 34.625 
z
M 21.921875 38.8125 
Q 15.578125 40.375 12.03125 44.71875 
Q 8.5 49.078125 8.5 55.328125 
Q 8.5 64.0625 14.71875 69.140625 
Q 20.953125 74.21875 31.78125 74.21875 
Q 42.671875 74.21875 48.875 69.140625 
Q 55.078125 64.0625 55.078125 55.328125 
Q 55.078125 49.078125 51.53125 44.71875 
Q 48 40.375 41.703125 38.8125 
Q 48.828125 37.15625 52.796875 32.3125 
Q 56.78125 27.484375 56.78125 20.515625 
Q 56.78125 9.90625 50.3125 4.234375 
Q 43.84375 -1.421875 31.78125 -1.421875 
Q 19.734375 -1.421875 13.25 4.234375 
Q 6.78125 9.90625 6.78125 20.515625 
Q 6.78125 27.484375 10.78125 32.3125 
Q 14.796875 37.15625 21.921875 38.8125 
z
M 18.3125 54.390625 
Q 18.3125 48.734375 21.84375 45.5625 
Q 25.390625 42.390625 31.78125 42.390625 
Q 38.140625 42.390625 41.71875 45.5625 
Q 45.3125 48.734375 45.3125 54.390625 
Q 45.3125 60.0625 41.71875 63.234375 
Q 38.140625 66.40625 31.78125 66.40625 
Q 25.390625 66.40625 21.84375 63.234375 
Q 18.3125 60.0625 18.3125 54.390625 
z
" id="DejaVuSans-38"/>
      </defs>
      <g transform="translate(240.289449 308.077932)scale(0.1 -0.1)">
       <use xlink:href="#DejaVuSans-30"/>
       <use x="63.623047" xlink:href="#DejaVuSans-2e"/>
       <use x="95.410156" xlink:href="#DejaVuSans-38"/>
      </g>
     </g>
    </g>
    <g id="xtick_5">
     <g id="line2d_5">
      <g>
       <use style="stroke:#000000;stroke-width:0.8;" x="296.034022" xlink:href="#m1a62c6490d" y="293.479494"/>
      </g>
     </g>
     <g id="text_5">
      <!-- 1.0 -->
      <defs>
       <path d="M 12.40625 8.296875 
L 28.515625 8.296875 
L 28.515625 63.921875 
L 10.984375 60.40625 
L 10.984375 69.390625 
L 28.421875 72.90625 
L 38.28125 72.90625 
L 38.28125 8.296875 
L 54.390625 8.296875 
L 54.390625 0 
L 12.40625 0 
z
" id="DejaVuSans-31"/>
      </defs>
      <g transform="translate(288.08246 308.077932)scale(0.1 -0.1)">
       <use xlink:href="#DejaVuSans-31"/>
       <use x="63.623047" xlink:href="#DejaVuSans-2e"/>
       <use x="95.410156" xlink:href="#DejaVuSans-30"/>
      </g>
     </g>
    </g>
   </g>
   <g id="matplotlib.axis_2">
    <g id="ytick_1">
     <g id="line2d_6">
      <defs>
       <path d="M 0 0 
L -3.5 0 
" id="mdaeac64f05" style="stroke:#000000;stroke-width:0.8;"/>
      </defs>
      <g>
       <use style="stroke:#000000;stroke-width:0.8;" x="57.6" xlink:href="#mdaeac64f05" y="246.217517"/>
      </g>
     </g>
     <g id="text_6">
      <!-- 0.2 -->
      <g transform="translate(34.696875 250.016735)scale(0.1 -0.1)">
       <use xlink:href="#DejaVuSans-30"/>
       <use x="63.623047" xlink:href="#DejaVuSans-2e"/>
       <use x="95.410156" xlink:href="#DejaVuSans-32"/>
      </g>
     </g>
    </g>
    <g id="ytick_2">
     <g id="line2d_7">
      <g>
       <use style="stroke:#000000;stroke-width:0.8;" x="57.6" xlink:href="#mdaeac64f05" y="198.424506"/>
      </g>
     </g>
     <g id="text_7">
      <!-- 0.4 -->
      <g transform="translate(34.696875 202.223724)scale(0.1 -0.1)">
       <use xlink:href="#DejaVuSans-30"/>
       <use x="63.623047" xlink:href="#DejaVuSans-2e"/>
       <use x="95.410156" xlink:href="#DejaVuSans-34"/>
      </g>
     </g>
    </g>
    <g id="ytick_3">
     <g id="line2d_8">
      <g>
       <use style="stroke:#000000;stroke-width:0.8;" x="57.6" xlink:href="#mdaeac64f05" y="150.631494"/>
      </g>
     </g>
     <g id="text_8">
      <!-- 0.6 -->
      <g transform="translate(34.696875 154.430713)scale(0.1 -0.1)">
       <use xlink:href="#DejaVuSans-30"/>
       <use x="63.623047" xlink:href="#DejaVuSans-2e"/>
       <use x="95.410156" xlink:href="#DejaVuSans-36"/>
      </g>
     </g>
    </g>
    <g id="ytick_4">
     <g id="line2d_9">
      <g>
       <use style="stroke:#000000;stroke-width:0.8;" x="57.6" xlink:href="#mdaeac64f05" y="102.838483"/>
      </g>
     </g>
     <g id="text_9">
      <!-- 0.8 -->
      <g transform="translate(34.696875 106.637702)scale(0.1 -0.1)">
       <use xlink:href="#DejaVuSans-30"/>
       <use x="63.623047" xlink:href="#DejaVuSans-2e"/>
       <use x="95.410156" xlink:href="#DejaVuSans-38"/>
      </g>
     </g>
    </g>
   </g>
   <g id="LineCollection_1">
    <path clip-path="url(#p2a12f50653)" d="M 284.671069 293.479494 
L 285.338307 290.293294 
L 285.730416 288.16916 
L 285.872548 286.045026 
L 285.791795 283.920892 
L 285.438982 280.734691 
L 284.605896 275.424357 
L 283.068762 267.989888 
L 282.554502 265.865755 
L 281.289618 261.617487 
L 280.530602 259.493353 
L 279.571985 257.363817 
L 278.238577 255.245086 
L 277.36852 254.183019 
L 276.137814 253.120952 
L 275.323717 252.583551 
L 274.203516 252.058885 
L 272.137517 251.462934 
L 270.013383 251.141601 
L 265.765115 250.842419 
L 205.227301 248.162647 
L 195.668699 248.046407 
L 186.110097 248.162411 
L 168.054959 248.483156 
L 162.744625 248.340664 
L 157.43429 247.98269 
L 152.123955 247.388105 
L 146.813621 246.565947 
L 140.441219 245.346649 
L 122.386082 241.706721 
L 119.199881 241.314366 
L 116.01368 241.152359 
L 113.889546 241.23253 
L 111.765413 241.533105 
L 109.641279 242.151156 
L 108.579212 242.612453 
L 107.011195 243.562349 
L 105.727276 244.624416 
L 104.72786 245.686483 
L 103.903469 246.74855 
L 102.574197 248.872684 
L 101.144743 251.714517 
L 97.958543 258.543304 
L 96.829195 260.55542 
L 95.419074 262.679554 
L 93.681333 264.803688 
L 91.586141 266.791545 
L 89.963488 267.989888 
L 88.113896 269.051955 
L 86.275807 269.821025 
L 84.151673 270.379692 
L 82.027539 270.584697 
L 79.903405 270.417983 
L 78.63655 270.114022 
L 77.779271 269.821866 
L 76.235675 269.051955 
L 75.655138 268.698397 
L 74.593071 267.893038 
L 73.531004 266.883494 
L 71.892284 264.803688 
L 71.211984 263.741621 
L 70.094052 261.617487 
L 69.182194 259.493353 
L 68.093785 256.307152 
L 66.974967 252.058885 
L 65.908694 246.74855 
L 64.924182 240.376149 
L 63.90733 231.879613 
L 62.910335 221.197794 
L 61.997334 208.514141 
L 61.284383 195.769338 
L 60.54443 178.776268 
L 59.813175 156.472862 
L 59.191347 130.983257 
L 58.610232 98.059182 
L 58.129436 58.762706 
L 58.16561 55.576506 
L 58.16561 55.576506 
" style="fill:none;stroke:#000080;stroke-width:1.5;"/>
   </g>
   <g id="LineCollection_2">
    <path clip-path="url(#p2a12f50653)" d="M 289.460614 293.479494 
L 289.974726 287.107093 
L 289.86526 283.920892 
L 289.300494 276.486424 
L 287.987716 261.617487 
L 285.301105 235.065814 
L 284.321101 227.631346 
L 283.296826 221.258944 
L 282.460937 217.010677 
L 281.388423 212.762409 
L 280.299697 209.576208 
L 279.299507 207.452074 
L 278.509918 206.18153 
L 277.447851 205.045913 
L 276.174573 204.265874 
L 275.323717 203.957525 
L 274.261651 203.792176 
L 272.137517 203.851611 
L 266.827182 204.615025 
L 262.578914 205.045069 
L 258.330647 205.238808 
L 250.896178 205.302224 
L 181.861829 205.071165 
L 164.868758 205.032792 
L 156.372223 205.215975 
L 147.875688 205.617726 
L 136.192952 206.218339 
L 131.944684 206.229908 
L 127.696416 206.008225 
L 123.448149 205.508158 
L 119.199881 204.73653 
L 113.889546 203.506263 
L 107.517145 202.05305 
L 104.330944 201.579156 
L 102.20681 201.45313 
L 100.082677 201.543224 
L 97.958543 201.91417 
L 95.834409 202.642093 
L 93.710275 203.806783 
L 91.764541 205.327941 
L 90.524074 206.530552 
L 88.399941 209.039571 
L 86.275807 212.018368 
L 81.451093 219.13481 
L 80.592728 220.196877 
L 79.597739 221.258944 
L 78.841338 221.946383 
L 77.779271 222.620137 
L 76.717204 222.951424 
L 75.655138 222.891903 
L 74.516644 222.321011 
L 73.432095 221.258944 
L 72.468937 219.862808 
L 71.14848 217.010677 
L 70.04968 213.824476 
L 68.917633 209.576208 
L 67.805579 204.265874 
L 66.741674 197.893472 
L 65.739001 190.459004 
L 64.699033 180.900401 
L 63.597785 168.155599 
L 62.580617 153.286662 
L 61.606408 135.231524 
L 60.719316 113.990186 
L 59.891476 87.438513 
L 59.21021 59.824773 
L 59.297724 55.576506 
L 59.297724 55.576506 
" style="fill:none;stroke:#0000e8;stroke-width:1.5;"/>
   </g>
   <g id="LineCollection_3">
    <path clip-path="url(#p2a12f50653)" d="M 291.781356 293.479494 
L 292.018198 287.107093 
L 291.814786 281.796758 
L 290.538681 260.55542 
L 288.722257 230.817546 
L 287.262497 210.638275 
L 286.414573 201.079673 
L 285.400782 191.521071 
L 284.416025 184.086602 
L 283.538114 178.776268 
L 282.369064 173.465933 
L 281.413925 170.279732 
L 280.56318 168.155599 
L 279.571985 166.47312 
L 278.509918 165.406991 
L 277.447851 164.911007 
L 276.385784 164.840819 
L 275.323717 165.073101 
L 273.258657 166.031465 
L 271.435552 167.093532 
L 268.951316 168.485432 
L 266.827182 169.465736 
L 264.445221 170.279732 
L 262.578914 170.734613 
L 260.454781 171.076926 
L 257.267663 171.341799 
L 253.020312 171.423826 
L 237.089309 171.239924 
L 205.227301 170.922332 
L 148.937755 170.268213 
L 131.944684 170.23301 
L 116.01368 170.241768 
L 109.641279 170.021023 
L 97.958543 169.515517 
L 94.772342 169.706806 
L 92.648208 170.04979 
L 90.524074 170.636615 
L 88.399941 171.530975 
L 86.275807 172.78703 
L 84.023954 174.528 
L 80.58821 177.714201 
L 78.841338 179.267597 
L 77.779271 180.02526 
L 76.717204 180.551966 
L 75.655138 180.761186 
L 74.593071 180.565207 
L 73.503789 179.838335 
L 72.468937 178.587893 
L 71.40687 176.613836 
L 70.236642 173.465933 
L 69.074672 169.217665 
L 67.958533 163.907331 
L 66.74621 156.472862 
L 65.65019 147.976327 
L 64.653849 138.417725 
L 63.59022 125.672922 
L 62.610167 110.803985 
L 61.627688 91.686781 
L 60.403828 61.948907 
L 60.447243 57.700639 
L 60.539981 55.576506 
L 60.539981 55.576506 
" style="fill:none;stroke:#0038ff;stroke-width:1.5;"/>
   </g>
   <g id="LineCollection_4">
    <path clip-path="url(#p2a12f50653)" d="M 293.492982 293.479494 
L 293.497965 283.920892 
L 292.994355 272.238156 
L 289.483743 197.893472 
L 288.472514 181.962468 
L 287.480043 169.217665 
L 286.562855 159.659063 
L 285.543165 151.162528 
L 284.56877 144.790126 
L 283.50363 139.479792 
L 282.685096 136.293591 
L 281.509776 133.10739 
L 280.634052 131.440046 
L 279.571985 130.242735 
L 278.509918 129.721486 
L 277.447851 129.74026 
L 276.385784 130.177528 
L 275.259017 130.983257 
L 273.199584 132.97534 
L 270.013383 136.396842 
L 267.866897 138.417725 
L 265.765115 140.005092 
L 263.640981 141.192676 
L 261.516848 142.000048 
L 259.392714 142.488467 
L 257.26858 142.725006 
L 255.144446 142.77332 
L 251.958245 142.612825 
L 244.523777 141.865269 
L 239.213442 141.458591 
L 233.903108 141.286555 
L 226.468639 141.312945 
L 202.0411 141.571344 
L 178.675628 141.492445 
L 131.944684 141.313012 
L 102.20681 141.163261 
L 94.772342 141.153456 
L 91.586141 141.316598 
L 88.399941 141.720733 
L 86.275807 142.190322 
L 84.151673 142.857034 
L 82.01996 143.728059 
L 77.779271 145.656584 
L 76.717204 145.976489 
L 75.655138 146.106891 
L 74.384165 145.852193 
L 73.531004 145.42569 
L 72.468937 144.395694 
L 71.37422 142.665993 
L 70.076618 139.479792 
L 69.117707 136.293591 
L 67.934434 130.983257 
L 66.851825 124.610855 
L 65.738507 116.11432 
L 64.659438 105.493651 
L 63.643475 92.748848 
L 62.293054 71.507509 
L 61.785948 61.948907 
L 61.848268 58.233227 
L 62.03802 55.576506 
L 62.03802 55.576506 
" style="fill:none;stroke:#0094ff;stroke-width:1.5;"/>
   </g>
   <g id="LineCollection_5">
    <path clip-path="url(#p2a12f50653)" d="M 294.931367 293.479494 
L 294.800035 280.734691 
L 293.946937 255.245086 
L 291.986304 201.079673 
L 290.786226 174.528 
L 289.758087 156.472862 
L 288.68304 141.603926 
L 287.705969 130.983257 
L 286.71801 122.486721 
L 285.60283 115.052253 
L 284.571612 109.741918 
L 283.485618 105.493651 
L 282.371685 102.30745 
L 281.696119 100.763614 
L 280.626063 99.121249 
L 279.571985 98.166921 
L 278.509918 97.79629 
L 277.265538 98.059182 
L 276.385784 98.571331 
L 274.829164 100.183316 
L 274.000226 101.245383 
L 271.819455 104.431584 
L 268.883872 108.679851 
L 266.827182 111.222218 
L 264.703048 113.339157 
L 262.578914 114.925858 
L 261.516848 115.530492 
L 259.392714 116.404333 
L 257.26858 116.895948 
L 255.144446 117.090828 
L 253.020312 117.073295 
L 249.834112 116.810711 
L 237.089309 115.461913 
L 229.65484 115.029913 
L 215.84797 114.513091 
L 207.351435 114.367956 
L 199.916967 114.443688 
L 190.358364 114.790659 
L 166.992892 115.766395 
L 152.123955 116.089263 
L 88.38798 117.176387 
L 84.151673 117.581663 
L 77.779271 118.356874 
L 76.139021 118.238454 
L 75.655138 118.158938 
L 74.593071 117.763259 
L 73.531004 117.049545 
L 72.468937 115.896862 
L 71.334126 113.990186 
L 70.079606 110.803985 
L 69.149129 107.617784 
L 68.009393 102.30745 
L 66.830362 94.872981 
L 65.795005 86.376446 
L 64.480647 72.569576 
L 63.821191 64.073041 
L 63.767332 60.88684 
L 63.981969 57.700639 
L 64.185101 55.576506 
L 64.185101 55.576506 
" style="fill:none;stroke:#0cf4eb;stroke-width:1.5;"/>
   </g>
   <g id="LineCollection_6">
    <path clip-path="url(#p2a12f50653)" d="M 297.211745 293.479494 
L 297.058465 286.045026 
L 296.682691 280.734691 
L 296.536765 278.610558 
L 295.888184 262.679554 
L 295.32774 247.810617 
L 293.64909 191.521071 
L 292.663908 164.969398 
L 291.729176 144.790126 
L 290.798712 128.859123 
L 289.773957 115.052253 
L 288.674924 103.369517 
L 287.788707 95.935048 
L 286.770627 89.562647 
L 285.832528 85.314379 
L 284.878516 82.128178 
L 283.519626 78.941978 
L 282.254612 76.817844 
L 281.446782 75.755777 
L 280.438651 74.69371 
L 279.094167 73.631643 
L 278.509918 73.258791 
L 277.082434 72.569576 
L 275.323717 72.04407 
L 273.199584 71.777458 
L 271.07545 71.847017 
L 268.951316 72.198748 
L 266.827182 72.807142 
L 264.703048 73.669641 
L 262.578914 74.827406 
L 260.454781 76.312976 
L 258.625148 77.879911 
L 256.66663 80.004045 
L 255.09923 82.128178 
L 253.791989 84.252312 
L 250.74719 89.562647 
L 249.834112 90.805 
L 248.772045 91.982403 
L 247.709978 92.93443 
L 246.499164 93.810914 
L 244.523777 94.894732 
L 241.766874 95.935048 
L 239.213442 96.577187 
L 236.027242 97.091735 
L 232.841041 97.355796 
L 229.65484 97.432183 
L 225.406572 97.296458 
L 221.158305 96.942297 
L 215.84797 96.2646 
L 208.413502 95.058215 
L 195.668699 92.959616 
L 189.296297 92.15674 
L 182.923896 91.595649 
L 176.551494 91.261947 
L 168.054959 91.075316 
L 134.068818 90.650295 
L 121.324015 90.137634 
L 104.330944 89.22832 
L 80.965472 87.75241 
L 78.841338 87.419323 
L 76.717204 86.754913 
L 75.655138 86.194819 
L 74.528706 85.314379 
L 73.531004 84.214839 
L 72.283824 82.128178 
L 71.354132 80.004045 
L 70.107037 75.755777 
L 69.20695 71.507509 
L 68.540689 66.197175 
L 68.435238 64.073041 
L 68.527862 61.948907 
L 68.855062 59.824773 
L 69.446097 56.638572 
L 69.428633 55.576506 
L 69.428633 55.576506 
" style="fill:none;stroke:#56ffa0;stroke-width:1.5;"/>
   </g>
   <g id="LineCollection_7">
    <path clip-path="url(#p2a12f50653)" d="M 304.028682 293.479494 
L 303.888096 286.045026 
L 303.496658 278.610558 
L 302.807001 270.114022 
L 301.516828 257.369219 
L 298.993302 235.065814 
L 296.481328 212.762409 
L 295.182065 178.776268 
L 294.205025 149.038394 
L 293.258163 126.734989 
L 292.19893 107.617784 
L 291.254721 94.609821 
L 290.492887 87.438513 
L 289.86182 83.190245 
L 288.984263 78.941978 
L 288.053475 75.755777 
L 287.006454 73.175919 
L 285.944387 71.232993 
L 284.552808 69.383375 
L 283.483303 68.321309 
L 282.065757 67.259242 
L 280.634052 66.472756 
L 279.571985 66.027591 
L 277.447851 65.40365 
L 275.323717 65.028908 
L 273.199584 64.844767 
L 270.013383 64.826214 
L 266.827182 65.052012 
L 263.640981 65.474792 
L 259.392714 66.297184 
L 255.144446 67.359414 
L 249.834112 68.917025 
L 241.16655 71.507509 
L 237.089309 72.449876 
L 233.903108 72.942146 
L 230.716907 73.173053 
L 227.530706 73.105019 
L 224.344506 72.719504 
L 222.220372 72.263447 
L 219.034171 71.2873 
L 216.910037 70.428458 
L 214.785903 69.359076 
L 212.66177 68.022331 
L 211.599703 67.255023 
L 210.376515 66.197175 
L 209.366633 65.135108 
L 208.413502 63.825222 
L 207.931071 63.010974 
L 207.351435 61.552652 
L 206.932085 59.824773 
L 206.309919 55.576506 
L 206.309919 55.576506 
" style="fill:none;stroke:#a0ff56;stroke-width:1.5;"/>
   </g>
   <g id="LineCollection_8">
    <path clip-path="url(#p2a12f50653)" d="M 311.030808 293.479494 
L 310.89844 284.982959 
L 310.544256 276.486424 
L 309.861799 265.865755 
L 308.651082 250.996818 
L 306.496195 227.631346 
L 303.829333 201.079673 
L 301.593625 180.900401 
L 299.491906 163.907331 
L 297.57625 150.100461 
L 296.52495 142.665993 
L 294.607847 104.431584 
L 293.864885 91.686781 
L 293.232024 84.252312 
L 292.559894 78.941978 
L 292.000772 75.755777 
L 291.254721 72.556563 
L 290.587645 70.445442 
L 289.709118 68.321309 
L 289.130587 67.213684 
L 288.06852 65.650899 
L 287.006454 64.472244 
L 285.944387 63.550918 
L 284.88232 62.806214 
L 282.758186 61.655567 
L 279.571985 60.377987 
L 275.084799 58.762706 
L 273.318088 57.700639 
L 272.619926 56.638572 
L 272.637478 55.576506 
L 272.637478 55.576506 
" style="fill:none;stroke:#ebff0c;stroke-width:1.5;"/>
   </g>
   <g id="LineCollection_9">
    <path clip-path="url(#p2a12f50653)" d="M 318.180659 293.479494 
L 318.065223 283.920892 
L 317.713221 273.300223 
L 317.059286 260.55542 
L 315.893816 242.500283 
L 313.948901 215.94861 
L 311.878132 190.459004 
L 310.033835 170.279732 
L 308.247792 153.11992 
L 306.491064 138.417725 
L 304.738611 125.672922 
L 302.937457 114.300241 
L 301.340669 105.493651 
L 299.751257 97.833953 
L 298.277748 91.686781 
L 296.786576 86.376446 
L 296.527527 85.314379 
L 295.719585 78.941978 
L 295.31639 75.755777 
L 294.765798 71.507509 
L 294.189558 68.321309 
L 293.347818 65.135108 
L 292.316788 62.550375 
L 291.254721 60.601291 
L 289.130587 57.130638 
L 288.384834 55.576506 
L 288.384834 55.576506 
" style="fill:none;stroke:#ffab00;stroke-width:1.5;"/>
   </g>
   <g id="LineCollection_10">
    <path clip-path="url(#p2a12f50653)" d="M 325.43725 293.479494 
L 325.305904 280.734691 
L 324.922429 266.927822 
L 324.176723 248.872684 
L 322.795697 221.258944 
L 321.099551 191.521071 
L 319.494573 167.093532 
L 318.023838 147.976327 
L 316.582108 132.045323 
L 315.106504 118.238454 
L 313.631636 106.555717 
L 312.213432 96.997115 
L 310.738984 88.50058 
L 309.244014 81.066112 
L 307.291451 72.569576 
L 304.856588 61.948907 
L 304.396603 58.762706 
L 304.258235 56.638572 
L 304.248116 55.576506 
L 304.248116 55.576506 
" style="fill:none;stroke:#ff5500;stroke-width:1.5;"/>
   </g>
   <g id="LineCollection_11">
    <path clip-path="url(#p2a12f50653)" d="M 332.765531 293.479494 
L 332.650269 277.548491 
L 332.270802 258.431286 
L 331.381077 226.569279 
L 330.162584 190.459004 
L 328.917234 159.659063 
L 327.803989 137.355658 
L 326.691014 119.30052 
L 325.565547 104.431584 
L 324.309101 90.624714 
L 322.054662 66.78456 
L 321.739994 60.88684 
L 321.649552 55.576506 
L 321.649552 55.576506 
" style="fill:none;stroke:#e80000;stroke-width:1.5;"/>
   </g>
   <g id="LineCollection_12">
    <path clip-path="url(#p2a12f50653)" d="M 340.135319 293.479494 
L 340.026613 266.927822 
L 338.559579 140.541859 
L 337.964351 111.866052 
L 337.316522 88.50058 
L 336.743068 69.383375 
L 336.589778 56.638572 
L 336.589275 55.576506 
L 336.589275 55.576506 
" style="fill:none;stroke:#800000;stroke-width:1.5;"/>
   </g>
   <g id="patch_3">
    <path d="M 57.6 293.479494 
L 57.6 55.576506 
" style="fill:none;stroke:#000000;stroke-linecap:square;stroke-linejoin:miter;stroke-width:0.8;"/>
   </g>
   <g id="patch_4">
    <path d="M 343.296 293.479494 
L 343.296 55.576506 
" style="fill:none;stroke:#000000;stroke-linecap:square;stroke-linejoin:miter;stroke-width:0.8;"/>
   </g>
   <g id="patch_5">
    <path d="M 57.6 293.479494 
L 343.296 293.479494 
" style="fill:none;stroke:#000000;stroke-linecap:square;stroke-linejoin:miter;stroke-width:0.8;"/>
   </g>
   <g id="patch_6">
    <path d="M 57.6 55.576506 
L 343.296 55.576506 
" style="fill:none;stroke:#000000;stroke-linecap:square;stroke-linejoin:miter;stroke-width:0.8;"/>
   </g>
   <g id="text_10">
    <!-- Time:0.03951 s -->
    <defs>
     <path d="M -0.296875 72.90625 
L 61.375 72.90625 
L 61.375 64.59375 
L 35.5 64.59375 
L 35.5 0 
L 25.59375 0 
L 25.59375 64.59375 
L -0.296875 64.59375 
z
" id="DejaVuSans-54"/>
     <path d="M 9.421875 54.6875 
L 18.40625 54.6875 
L 18.40625 0 
L 9.421875 0 
z
M 9.421875 75.984375 
L 18.40625 75.984375 
L 18.40625 64.59375 
L 9.421875 64.59375 
z
" id="DejaVuSans-69"/>
     <path d="M 52 44.1875 
Q 55.375 50.25 60.0625 53.125 
Q 64.75 56 71.09375 56 
Q 79.640625 56 84.28125 50.015625 
Q 88.921875 44.046875 88.921875 33.015625 
L 88.921875 0 
L 79.890625 0 
L 79.890625 32.71875 
Q 79.890625 40.578125 77.09375 44.375 
Q 74.3125 48.1875 68.609375 48.1875 
Q 61.625 48.1875 57.5625 43.546875 
Q 53.515625 38.921875 53.515625 30.90625 
L 53.515625 0 
L 44.484375 0 
L 44.484375 32.71875 
Q 44.484375 40.625 41.703125 44.40625 
Q 38.921875 48.1875 33.109375 48.1875 
Q 26.21875 48.1875 22.15625 43.53125 
Q 18.109375 38.875 18.109375 30.90625 
L 18.109375 0 
L 9.078125 0 
L 9.078125 54.6875 
L 18.109375 54.6875 
L 18.109375 46.1875 
Q 21.1875 51.21875 25.484375 53.609375 
Q 29.78125 56 35.6875 56 
Q 41.65625 56 45.828125 52.96875 
Q 50 49.953125 52 44.1875 
z
" id="DejaVuSans-6d"/>
     <path d="M 56.203125 29.59375 
L 56.203125 25.203125 
L 14.890625 25.203125 
Q 15.484375 15.921875 20.484375 11.0625 
Q 25.484375 6.203125 34.421875 6.203125 
Q 39.59375 6.203125 44.453125 7.46875 
Q 49.3125 8.734375 54.109375 11.28125 
L 54.109375 2.78125 
Q 49.265625 0.734375 44.1875 -0.34375 
Q 39.109375 -1.421875 33.890625 -1.421875 
Q 20.796875 -1.421875 13.15625 6.1875 
Q 5.515625 13.8125 5.515625 26.8125 
Q 5.515625 40.234375 12.765625 48.109375 
Q 20.015625 56 32.328125 56 
Q 43.359375 56 49.78125 48.890625 
Q 56.203125 41.796875 56.203125 29.59375 
z
M 47.21875 32.234375 
Q 47.125 39.59375 43.09375 43.984375 
Q 39.0625 48.390625 32.421875 48.390625 
Q 24.90625 48.390625 20.390625 44.140625 
Q 15.875 39.890625 15.1875 32.171875 
z
" id="DejaVuSans-65"/>
     <path d="M 11.71875 12.40625 
L 22.015625 12.40625 
L 22.015625 0 
L 11.71875 0 
z
M 11.71875 51.703125 
L 22.015625 51.703125 
L 22.015625 39.3125 
L 11.71875 39.3125 
z
" id="DejaVuSans-3a"/>
     <path d="M 40.578125 39.3125 
Q 47.65625 37.796875 51.625 33 
Q 55.609375 28.21875 55.609375 21.1875 
Q 55.609375 10.40625 48.1875 4.484375 
Q 40.765625 -1.421875 27.09375 -1.421875 
Q 22.515625 -1.421875 17.65625 -0.515625 
Q 12.796875 0.390625 7.625 2.203125 
L 7.625 11.71875 
Q 11.71875 9.328125 16.59375 8.109375 
Q 21.484375 6.890625 26.8125 6.890625 
Q 36.078125 6.890625 40.9375 10.546875 
Q 45.796875 14.203125 45.796875 21.1875 
Q 45.796875 27.640625 41.28125 31.265625 
Q 36.765625 34.90625 28.71875 34.90625 
L 20.21875 34.90625 
L 20.21875 43.015625 
L 29.109375 43.015625 
Q 36.375 43.015625 40.234375 45.921875 
Q 44.09375 48.828125 44.09375 54.296875 
Q 44.09375 59.90625 40.109375 62.90625 
Q 36.140625 65.921875 28.71875 65.921875 
Q 24.65625 65.921875 20.015625 65.03125 
Q 15.375 64.15625 9.8125 62.3125 
L 9.8125 71.09375 
Q 15.4375 72.65625 20.34375 73.4375 
Q 25.25 74.21875 29.59375 74.21875 
Q 40.828125 74.21875 47.359375 69.109375 
Q 53.90625 64.015625 53.90625 55.328125 
Q 53.90625 49.265625 50.4375 45.09375 
Q 46.96875 40.921875 40.578125 39.3125 
z
" id="DejaVuSans-33"/>
     <path d="M 10.984375 1.515625 
L 10.984375 10.5 
Q 14.703125 8.734375 18.5 7.8125 
Q 22.3125 6.890625 25.984375 6.890625 
Q 35.75 6.890625 40.890625 13.453125 
Q 46.046875 20.015625 46.78125 33.40625 
Q 43.953125 29.203125 39.59375 26.953125 
Q 35.25 24.703125 29.984375 24.703125 
Q 19.046875 24.703125 12.671875 31.3125 
Q 6.296875 37.9375 6.296875 49.421875 
Q 6.296875 60.640625 12.9375 67.421875 
Q 19.578125 74.21875 30.609375 74.21875 
Q 43.265625 74.21875 49.921875 64.515625 
Q 56.59375 54.828125 56.59375 36.375 
Q 56.59375 19.140625 48.40625 8.859375 
Q 40.234375 -1.421875 26.421875 -1.421875 
Q 22.703125 -1.421875 18.890625 -0.6875 
Q 15.09375 0.046875 10.984375 1.515625 
z
M 30.609375 32.421875 
Q 37.25 32.421875 41.125 36.953125 
Q 45.015625 41.5 45.015625 49.421875 
Q 45.015625 57.28125 41.125 61.84375 
Q 37.25 66.40625 30.609375 66.40625 
Q 23.96875 66.40625 20.09375 61.84375 
Q 16.21875 57.28125 16.21875 49.421875 
Q 16.21875 41.5 20.09375 36.953125 
Q 23.96875 32.421875 30.609375 32.421875 
z
" id="DejaVuSans-39"/>
     <path d="M 10.796875 72.90625 
L 49.515625 72.90625 
L 49.515625 64.59375 
L 19.828125 64.59375 
L 19.828125 46.734375 
Q 21.96875 47.46875 24.109375 47.828125 
Q 26.265625 48.1875 28.421875 48.1875 
Q 40.625 48.1875 47.75 41.5 
Q 54.890625 34.8125 54.890625 23.390625 
Q 54.890625 11.625 47.5625 5.09375 
Q 40.234375 -1.421875 26.90625 -1.421875 
Q 22.3125 -1.421875 17.546875 -0.640625 
Q 12.796875 0.140625 7.71875 1.703125 
L 7.71875 11.625 
Q 12.109375 9.234375 16.796875 8.0625 
Q 21.484375 6.890625 26.703125 6.890625 
Q 35.15625 6.890625 40.078125 11.328125 
Q 45.015625 15.765625 45.015625 23.390625 
Q 45.015625 31 40.078125 35.4375 
Q 35.15625 39.890625 26.703125 39.890625 
Q 22.75 39.890625 18.8125 39.015625 
Q 14.890625 38.140625 10.796875 36.28125 
z
" id="DejaVuSans-35"/>
     <path id="DejaVuSans-20"/>
     <path d="M 44.28125 53.078125 
L 44.28125 44.578125 
Q 40.484375 46.53125 36.375 47.5 
Q 32.28125 48.484375 27.875 48.484375 
Q 21.1875 48.484375 17.84375 46.4375 
Q 14.5 44.390625 14.5 40.28125 
Q 14.5 37.15625 16.890625 35.375 
Q 19.28125 33.59375 26.515625 31.984375 
L 29.59375 31.296875 
Q 39.15625 29.25 43.1875 25.515625 
Q 47.21875 21.78125 47.21875 15.09375 
Q 47.21875 7.46875 41.1875 3.015625 
Q 35.15625 -1.421875 24.609375 -1.421875 
Q 20.21875 -1.421875 15.453125 -0.5625 
Q 10.6875 0.296875 5.421875 2 
L 5.421875 11.28125 
Q 10.40625 8.6875 15.234375 7.390625 
Q 20.0625 6.109375 24.8125 6.109375 
Q 31.15625 6.109375 34.5625 8.28125 
Q 37.984375 10.453125 37.984375 14.40625 
Q 37.984375 18.0625 35.515625 20.015625 
Q 33.0625 21.96875 24.703125 23.78125 
L 21.578125 24.515625 
Q 13.234375 26.265625 9.515625 29.90625 
Q 5.8125 33.546875 5.8125 39.890625 
Q 5.8125 47.609375 11.28125 51.796875 
Q 16.75 56 26.8125 56 
Q 31.78125 56 36.171875 55.265625 
Q 40.578125 54.546875 44.28125 53.078125 
z
" id="DejaVuSans-73"/>
    </defs>
    <g transform="translate(153.717375 49.576506)scale(0.12 -0.12)">
     <use xlink:href="#DejaVuSans-54"/>
     <use x="61.037109" xlink:href="#DejaVuSans-69"/>
     <use x="88.820312" xlink:href="#DejaVuSans-6d"/>
     <use x="186.232422" xlink:href="#DejaVuSans-65"/>
     <use x="247.755859" xlink:href="#DejaVuSans-3a"/>
     <use x="281.447266" xlink:href="#DejaVuSans-30"/>
     <use x="345.070312" xlink:href="#DejaVuSans-2e"/>
     <use x="376.857422" xlink:href="#DejaVuSans-30"/>
     <use x="440.480469" xlink:href="#DejaVuSans-33"/>
     <use x="504.103516" xlink:href="#DejaVuSans-39"/>
     <use x="567.726562" xlink:href="#DejaVuSans-35"/>
     <use x="631.349609" xlink:href="#DejaVuSans-31"/>
     <use x="694.972656" xlink:href="#DejaVuSans-20"/>
     <use x="726.759766" xlink:href="#DejaVuSans-73"/>
    </g>
   </g>
  </g>
  <g id="axes_2">
   <g id="patch_7">
    <path clip-path="url(#p130336b231)" d="M 361.152 307.584 
L 361.152 283.392 
L 361.152 65.664 
L 361.152 41.472 
L 374.4576 41.472 
L 374.4576 65.664 
L 374.4576 283.392 
L 374.4576 307.584 
z
" style="fill:#ffffff;stroke:#ffffff;stroke-linejoin:miter;stroke-width:0.01;"/>
   </g>
   <g id="matplotlib.axis_3"/>
   <g id="matplotlib.axis_4">
    <g id="ytick_5">
     <g id="line2d_10">
      <defs>
       <path d="M 0 0 
L 3.5 0 
" id="m088d030b88" style="stroke:#000000;stroke-width:0.8;"/>
      </defs>
      <g>
       <use style="stroke:#000000;stroke-width:0.8;" x="374.4576" xlink:href="#m088d030b88" y="307.584"/>
      </g>
     </g>
     <g id="text_11">
      <!-- 0.08 -->
      <g transform="translate(381.4576 311.383219)scale(0.1 -0.1)">
       <use xlink:href="#DejaVuSans-30"/>
       <use x="63.623047" xlink:href="#DejaVuSans-2e"/>
       <use x="95.410156" xlink:href="#DejaVuSans-30"/>
       <use x="159.033203" xlink:href="#DejaVuSans-38"/>
      </g>
     </g>
    </g>
    <g id="ytick_6">
     <g id="line2d_11">
      <g>
       <use style="stroke:#000000;stroke-width:0.8;" x="374.4576" xlink:href="#m088d030b88" y="259.2"/>
      </g>
     </g>
     <g id="text_12">
      <!-- 0.24 -->
      <g transform="translate(381.4576 262.999219)scale(0.1 -0.1)">
       <use xlink:href="#DejaVuSans-30"/>
       <use x="63.623047" xlink:href="#DejaVuSans-2e"/>
       <use x="95.410156" xlink:href="#DejaVuSans-32"/>
       <use x="159.033203" xlink:href="#DejaVuSans-34"/>
      </g>
     </g>
    </g>
    <g id="ytick_7">
     <g id="line2d_12">
      <g>
       <use style="stroke:#000000;stroke-width:0.8;" x="374.4576" xlink:href="#m088d030b88" y="210.816"/>
      </g>
     </g>
     <g id="text_13">
      <!-- 0.40 -->
      <g transform="translate(381.4576 214.615219)scale(0.1 -0.1)">
       <use xlink:href="#DejaVuSans-30"/>
       <use x="63.623047" xlink:href="#DejaVuSans-2e"/>
       <use x="95.410156" xlink:href="#DejaVuSans-34"/>
       <use x="159.033203" xlink:href="#DejaVuSans-30"/>
      </g>
     </g>
    </g>
    <g id="ytick_8">
     <g id="line2d_13">
      <g>
       <use style="stroke:#000000;stroke-width:0.8;" x="374.4576" xlink:href="#m088d030b88" y="162.432"/>
      </g>
     </g>
     <g id="text_14">
      <!-- 0.56 -->
      <g transform="translate(381.4576 166.231219)scale(0.1 -0.1)">
       <use xlink:href="#DejaVuSans-30"/>
       <use x="63.623047" xlink:href="#DejaVuSans-2e"/>
       <use x="95.410156" xlink:href="#DejaVuSans-35"/>
       <use x="159.033203" xlink:href="#DejaVuSans-36"/>
      </g>
     </g>
    </g>
    <g id="ytick_9">
     <g id="line2d_14">
      <g>
       <use style="stroke:#000000;stroke-width:0.8;" x="374.4576" xlink:href="#m088d030b88" y="114.048"/>
      </g>
     </g>
     <g id="text_15">
      <!-- 0.72 -->
      <defs>
       <path d="M 8.203125 72.90625 
L 55.078125 72.90625 
L 55.078125 68.703125 
L 28.609375 0 
L 18.3125 0 
L 43.21875 64.59375 
L 8.203125 64.59375 
z
" id="DejaVuSans-37"/>
      </defs>
      <g transform="translate(381.4576 117.847219)scale(0.1 -0.1)">
       <use xlink:href="#DejaVuSans-30"/>
       <use x="63.623047" xlink:href="#DejaVuSans-2e"/>
       <use x="95.410156" xlink:href="#DejaVuSans-37"/>
       <use x="159.033203" xlink:href="#DejaVuSans-32"/>
      </g>
     </g>
    </g>
    <g id="ytick_10">
     <g id="line2d_15">
      <g>
       <use style="stroke:#000000;stroke-width:0.8;" x="374.4576" xlink:href="#m088d030b88" y="65.664"/>
      </g>
     </g>
     <g id="text_16">
      <!-- 0.88 -->
      <g transform="translate(381.4576 69.463219)scale(0.1 -0.1)">
       <use xlink:href="#DejaVuSans-30"/>
       <use x="63.623047" xlink:href="#DejaVuSans-2e"/>
       <use x="95.410156" xlink:href="#DejaVuSans-38"/>
       <use x="159.033203" xlink:href="#DejaVuSans-38"/>
      </g>
     </g>
    </g>
   </g>
   <g id="LineCollection_13">
    <path clip-path="url(#p130336b231)" d="M 361.152 307.584 
L 374.4576 307.584 
" style="fill:none;stroke:#000080;stroke-width:1.5;"/>
    <path clip-path="url(#p130336b231)" d="M 361.152 283.392 
L 374.4576 283.392 
" style="fill:none;stroke:#0000e8;stroke-width:1.5;"/>
    <path clip-path="url(#p130336b231)" d="M 361.152 259.2 
L 374.4576 259.2 
" style="fill:none;stroke:#0038ff;stroke-width:1.5;"/>
    <path clip-path="url(#p130336b231)" d="M 361.152 235.008 
L 374.4576 235.008 
" style="fill:none;stroke:#0094ff;stroke-width:1.5;"/>
    <path clip-path="url(#p130336b231)" d="M 361.152 210.816 
L 374.4576 210.816 
" style="fill:none;stroke:#0cf4eb;stroke-width:1.5;"/>
    <path clip-path="url(#p130336b231)" d="M 361.152 186.624 
L 374.4576 186.624 
" style="fill:none;stroke:#56ffa0;stroke-width:1.5;"/>
    <path clip-path="url(#p130336b231)" d="M 361.152 162.432 
L 374.4576 162.432 
" style="fill:none;stroke:#a0ff56;stroke-width:1.5;"/>
    <path clip-path="url(#p130336b231)" d="M 361.152 138.24 
L 374.4576 138.24 
" style="fill:none;stroke:#ebff0c;stroke-width:1.5;"/>
    <path clip-path="url(#p130336b231)" d="M 361.152 114.048 
L 374.4576 114.048 
" style="fill:none;stroke:#ffab00;stroke-width:1.5;"/>
    <path clip-path="url(#p130336b231)" d="M 361.152 89.856 
L 374.4576 89.856 
" style="fill:none;stroke:#ff5500;stroke-width:1.5;"/>
    <path clip-path="url(#p130336b231)" d="M 361.152 65.664 
L 374.4576 65.664 
" style="fill:none;stroke:#e80000;stroke-width:1.5;"/>
    <path clip-path="url(#p130336b231)" d="M 361.152 41.472 
L 374.4576 41.472 
" style="fill:none;stroke:#800000;stroke-width:1.5;"/>
   </g>
   <g id="patch_8">
    <path d="M 361.152 307.584 
L 361.152 283.392 
L 361.152 65.664 
L 361.152 41.472 
L 374.4576 41.472 
L 374.4576 65.664 
L 374.4576 283.392 
L 374.4576 307.584 
z
" style="fill:none;stroke:#000000;stroke-linejoin:miter;stroke-width:0.8;"/>
   </g>
  </g>
 </g>
 <defs>
  <clipPath id="p2a12f50653">
   <rect height="237.902989" width="285.696" x="57.6" y="55.576506"/>
  </clipPath>
  <clipPath id="p130336b231">
   <rect height="266.112" width="13.3056" x="361.152" y="41.472"/>
  </clipPath>
 </defs>
</svg>
