<?xml version="1.0" encoding="utf-8" standalone="no"?>
<!DOCTYPE svg PUBLIC "-//W3C//DTD SVG 1.1//EN"
  "http://www.w3.org/Graphics/SVG/1.1/DTD/svg11.dtd">
<!-- Created with matplotlib (http://matplotlib.org/) -->
<svg height="345.6pt" version="1.1" viewBox="0 0 460.8 345.6" width="460.8pt" xmlns="http://www.w3.org/2000/svg" xmlns:xlink="http://www.w3.org/1999/xlink">
 <defs>
  <style type="text/css">
*{stroke-linecap:butt;stroke-linejoin:round;}
  </style>
 </defs>
 <g id="figure_1">
  <g id="patch_1">
   <path d="M 0 345.6 
L 460.8 345.6 
L 460.8 0 
L 0 0 
z
" style="fill:#ffffff;"/>
  </g>
  <g id="axes_1">
   <g id="patch_2">
    <path d="M 57.6 293.479494 
L 343.296 293.479494 
L 343.296 55.576506 
L 57.6 55.576506 
z
" style="fill:#ffffff;"/>
   </g>
   <g id="matplotlib.axis_1">
    <g id="xtick_1">
     <g id="line2d_1">
      <defs>
       <path d="M 0 0 
L 0 3.5 
" id="m2d820416c8" style="stroke:#000000;stroke-width:0.8;"/>
      </defs>
      <g>
       <use style="stroke:#000000;stroke-width:0.8;" x="104.861978" xlink:href="#m2d820416c8" y="293.479494"/>
      </g>
     </g>
     <g id="text_1">
      <!-- 0.2 -->
      <defs>
       <path d="M 31.78125 66.40625 
Q 24.171875 66.40625 20.328125 58.90625 
Q 16.5 51.421875 16.5 36.375 
Q 16.5 21.390625 20.328125 13.890625 
Q 24.171875 6.390625 31.78125 6.390625 
Q 39.453125 6.390625 43.28125 13.890625 
Q 47.125 21.390625 47.125 36.375 
Q 47.125 51.421875 43.28125 58.90625 
Q 39.453125 66.40625 31.78125 66.40625 
z
M 31.78125 74.21875 
Q 44.046875 74.21875 50.515625 64.515625 
Q 56.984375 54.828125 56.984375 36.375 
Q 56.984375 17.96875 50.515625 8.265625 
Q 44.046875 -1.421875 31.78125 -1.421875 
Q 19.53125 -1.421875 13.0625 8.265625 
Q 6.59375 17.96875 6.59375 36.375 
Q 6.59375 54.828125 13.0625 64.515625 
Q 19.53125 74.21875 31.78125 74.21875 
z
" id="DejaVuSans-30"/>
       <path d="M 10.6875 12.40625 
L 21 12.40625 
L 21 0 
L 10.6875 0 
z
" id="DejaVuSans-2e"/>
       <path d="M 19.1875 8.296875 
L 53.609375 8.296875 
L 53.609375 0 
L 7.328125 0 
L 7.328125 8.296875 
Q 12.9375 14.109375 22.625 23.890625 
Q 32.328125 33.6875 34.8125 36.53125 
Q 39.546875 41.84375 41.421875 45.53125 
Q 43.3125 49.21875 43.3125 52.78125 
Q 43.3125 58.59375 39.234375 62.25 
Q 35.15625 65.921875 28.609375 65.921875 
Q 23.96875 65.921875 18.8125 64.3125 
Q 13.671875 62.703125 7.8125 59.421875 
L 7.8125 69.390625 
Q 13.765625 71.78125 18.9375 73 
Q 24.125 74.21875 28.421875 74.21875 
Q 39.75 74.21875 46.484375 68.546875 
Q 53.21875 62.890625 53.21875 53.421875 
Q 53.21875 48.921875 51.53125 44.890625 
Q 49.859375 40.875 45.40625 35.40625 
Q 44.1875 33.984375 37.640625 27.21875 
Q 31.109375 20.453125 19.1875 8.296875 
z
" id="DejaVuSans-32"/>
      </defs>
      <g transform="translate(96.910415 308.077932)scale(0.1 -0.1)">
       <use xlink:href="#DejaVuSans-30"/>
       <use x="63.623047" xlink:href="#DejaVuSans-2e"/>
       <use x="95.410156" xlink:href="#DejaVuSans-32"/>
      </g>
     </g>
    </g>
    <g id="xtick_2">
     <g id="line2d_2">
      <g>
       <use style="stroke:#000000;stroke-width:0.8;" x="152.654989" xlink:href="#m2d820416c8" y="293.479494"/>
      </g>
     </g>
     <g id="text_2">
      <!-- 0.4 -->
      <defs>
       <path d="M 37.796875 64.3125 
L 12.890625 25.390625 
L 37.796875 25.390625 
z
M 35.203125 72.90625 
L 47.609375 72.90625 
L 47.609375 25.390625 
L 58.015625 25.390625 
L 58.015625 17.1875 
L 47.609375 17.1875 
L 47.609375 0 
L 37.796875 0 
L 37.796875 17.1875 
L 4.890625 17.1875 
L 4.890625 26.703125 
z
" id="DejaVuSans-34"/>
      </defs>
      <g transform="translate(144.703426 308.077932)scale(0.1 -0.1)">
       <use xlink:href="#DejaVuSans-30"/>
       <use x="63.623047" xlink:href="#DejaVuSans-2e"/>
       <use x="95.410156" xlink:href="#DejaVuSans-34"/>
      </g>
     </g>
    </g>
    <g id="xtick_3">
     <g id="line2d_3">
      <g>
       <use style="stroke:#000000;stroke-width:0.8;" x="200.448" xlink:href="#m2d820416c8" y="293.479494"/>
      </g>
     </g>
     <g id="text_3">
      <!-- 0.6 -->
      <defs>
       <path d="M 33.015625 40.375 
Q 26.375 40.375 22.484375 35.828125 
Q 18.609375 31.296875 18.609375 23.390625 
Q 18.609375 15.53125 22.484375 10.953125 
Q 26.375 6.390625 33.015625 6.390625 
Q 39.65625 6.390625 43.53125 10.953125 
Q 47.40625 15.53125 47.40625 23.390625 
Q 47.40625 31.296875 43.53125 35.828125 
Q 39.65625 40.375 33.015625 40.375 
z
M 52.59375 71.296875 
L 52.59375 62.3125 
Q 48.875 64.0625 45.09375 64.984375 
Q 41.3125 65.921875 37.59375 65.921875 
Q 27.828125 65.921875 22.671875 59.328125 
Q 17.53125 52.734375 16.796875 39.40625 
Q 19.671875 43.65625 24.015625 45.921875 
Q 28.375 48.1875 33.59375 48.1875 
Q 44.578125 48.1875 50.953125 41.515625 
Q 57.328125 34.859375 57.328125 23.390625 
Q 57.328125 12.15625 50.6875 5.359375 
Q 44.046875 -1.421875 33.015625 -1.421875 
Q 20.359375 -1.421875 13.671875 8.265625 
Q 6.984375 17.96875 6.984375 36.375 
Q 6.984375 53.65625 15.1875 63.9375 
Q 23.390625 74.21875 37.203125 74.21875 
Q 40.921875 74.21875 44.703125 73.484375 
Q 48.484375 72.75 52.59375 71.296875 
z
" id="DejaVuSans-36"/>
      </defs>
      <g transform="translate(192.496438 308.077932)scale(0.1 -0.1)">
       <use xlink:href="#DejaVuSans-30"/>
       <use x="63.623047" xlink:href="#DejaVuSans-2e"/>
       <use x="95.410156" xlink:href="#DejaVuSans-36"/>
      </g>
     </g>
    </g>
    <g id="xtick_4">
     <g id="line2d_4">
      <g>
       <use style="stroke:#000000;stroke-width:0.8;" x="248.241011" xlink:href="#m2d820416c8" y="293.479494"/>
      </g>
     </g>
     <g id="text_4">
      <!-- 0.8 -->
      <defs>
       <path d="M 31.78125 34.625 
Q 24.75 34.625 20.71875 30.859375 
Q 16.703125 27.09375 16.703125 20.515625 
Q 16.703125 13.921875 20.71875 10.15625 
Q 24.75 6.390625 31.78125 6.390625 
Q 38.8125 6.390625 42.859375 10.171875 
Q 46.921875 13.96875 46.921875 20.515625 
Q 46.921875 27.09375 42.890625 30.859375 
Q 38.875 34.625 31.78125 34.625 
z
M 21.921875 38.8125 
Q 15.578125 40.375 12.03125 44.71875 
Q 8.5 49.078125 8.5 55.328125 
Q 8.5 64.0625 14.71875 69.140625 
Q 20.953125 74.21875 31.78125 74.21875 
Q 42.671875 74.21875 48.875 69.140625 
Q 55.078125 64.0625 55.078125 55.328125 
Q 55.078125 49.078125 51.53125 44.71875 
Q 48 40.375 41.703125 38.8125 
Q 48.828125 37.15625 52.796875 32.3125 
Q 56.78125 27.484375 56.78125 20.515625 
Q 56.78125 9.90625 50.3125 4.234375 
Q 43.84375 -1.421875 31.78125 -1.421875 
Q 19.734375 -1.421875 13.25 4.234375 
Q 6.78125 9.90625 6.78125 20.515625 
Q 6.78125 27.484375 10.78125 32.3125 
Q 14.796875 37.15625 21.921875 38.8125 
z
M 18.3125 54.390625 
Q 18.3125 48.734375 21.84375 45.5625 
Q 25.390625 42.390625 31.78125 42.390625 
Q 38.140625 42.390625 41.71875 45.5625 
Q 45.3125 48.734375 45.3125 54.390625 
Q 45.3125 60.0625 41.71875 63.234375 
Q 38.140625 66.40625 31.78125 66.40625 
Q 25.390625 66.40625 21.84375 63.234375 
Q 18.3125 60.0625 18.3125 54.390625 
z
" id="DejaVuSans-38"/>
      </defs>
      <g transform="translate(240.289449 308.077932)scale(0.1 -0.1)">
       <use xlink:href="#DejaVuSans-30"/>
       <use x="63.623047" xlink:href="#DejaVuSans-2e"/>
       <use x="95.410156" xlink:href="#DejaVuSans-38"/>
      </g>
     </g>
    </g>
    <g id="xtick_5">
     <g id="line2d_5">
      <g>
       <use style="stroke:#000000;stroke-width:0.8;" x="296.034022" xlink:href="#m2d820416c8" y="293.479494"/>
      </g>
     </g>
     <g id="text_5">
      <!-- 1.0 -->
      <defs>
       <path d="M 12.40625 8.296875 
L 28.515625 8.296875 
L 28.515625 63.921875 
L 10.984375 60.40625 
L 10.984375 69.390625 
L 28.421875 72.90625 
L 38.28125 72.90625 
L 38.28125 8.296875 
L 54.390625 8.296875 
L 54.390625 0 
L 12.40625 0 
z
" id="DejaVuSans-31"/>
      </defs>
      <g transform="translate(288.08246 308.077932)scale(0.1 -0.1)">
       <use xlink:href="#DejaVuSans-31"/>
       <use x="63.623047" xlink:href="#DejaVuSans-2e"/>
       <use x="95.410156" xlink:href="#DejaVuSans-30"/>
      </g>
     </g>
    </g>
   </g>
   <g id="matplotlib.axis_2">
    <g id="ytick_1">
     <g id="line2d_6">
      <defs>
       <path d="M 0 0 
L -3.5 0 
" id="m0fad3b94a1" style="stroke:#000000;stroke-width:0.8;"/>
      </defs>
      <g>
       <use style="stroke:#000000;stroke-width:0.8;" x="57.6" xlink:href="#m0fad3b94a1" y="246.217517"/>
      </g>
     </g>
     <g id="text_6">
      <!-- 0.2 -->
      <g transform="translate(34.696875 250.016735)scale(0.1 -0.1)">
       <use xlink:href="#DejaVuSans-30"/>
       <use x="63.623047" xlink:href="#DejaVuSans-2e"/>
       <use x="95.410156" xlink:href="#DejaVuSans-32"/>
      </g>
     </g>
    </g>
    <g id="ytick_2">
     <g id="line2d_7">
      <g>
       <use style="stroke:#000000;stroke-width:0.8;" x="57.6" xlink:href="#m0fad3b94a1" y="198.424506"/>
      </g>
     </g>
     <g id="text_7">
      <!-- 0.4 -->
      <g transform="translate(34.696875 202.223724)scale(0.1 -0.1)">
       <use xlink:href="#DejaVuSans-30"/>
       <use x="63.623047" xlink:href="#DejaVuSans-2e"/>
       <use x="95.410156" xlink:href="#DejaVuSans-34"/>
      </g>
     </g>
    </g>
    <g id="ytick_3">
     <g id="line2d_8">
      <g>
       <use style="stroke:#000000;stroke-width:0.8;" x="57.6" xlink:href="#m0fad3b94a1" y="150.631494"/>
      </g>
     </g>
     <g id="text_8">
      <!-- 0.6 -->
      <g transform="translate(34.696875 154.430713)scale(0.1 -0.1)">
       <use xlink:href="#DejaVuSans-30"/>
       <use x="63.623047" xlink:href="#DejaVuSans-2e"/>
       <use x="95.410156" xlink:href="#DejaVuSans-36"/>
      </g>
     </g>
    </g>
    <g id="ytick_4">
     <g id="line2d_9">
      <g>
       <use style="stroke:#000000;stroke-width:0.8;" x="57.6" xlink:href="#m0fad3b94a1" y="102.838483"/>
      </g>
     </g>
     <g id="text_9">
      <!-- 0.8 -->
      <g transform="translate(34.696875 106.637702)scale(0.1 -0.1)">
       <use xlink:href="#DejaVuSans-30"/>
       <use x="63.623047" xlink:href="#DejaVuSans-2e"/>
       <use x="95.410156" xlink:href="#DejaVuSans-38"/>
      </g>
     </g>
    </g>
   </g>
   <g id="LineCollection_1">
    <path clip-path="url(#p19b2266ffe)" d="M 115.960743 293.479494 
L 115.734588 292.417428 
L 115.374242 291.355361 
L 114.787255 290.293294 
L 113.830508 289.231227 
L 112.21109 288.16916 
L 110.703346 287.594018 
L 108.579212 287.021201 
L 105.393011 286.586496 
L 101.144743 286.304855 
L 85.21374 285.599795 
L 82.027539 285.162807 
L 78.841338 284.483368 
L 76.717204 283.821735 
L 74.474206 282.858825 
L 72.468937 281.661187 
L 71.28762 280.734691 
L 70.187674 279.672625 
L 69.278196 278.610558 
L 67.869636 276.486424 
L 66.802823 274.36229 
L 65.961752 272.238156 
L 64.992062 269.051955 
L 64.060146 264.803688 
L 63.395763 260.55542 
L 62.790328 255.245086 
L 62.203623 247.810617 
L 61.599691 237.189948 
L 60.768869 218.072743 
L 60.03891 195.769338 
L 59.395422 169.217665 
L 58.7563 133.10739 
L 58.171976 87.438513 
L 57.905352 55.576506 
L 57.905352 55.576506 
" style="fill:none;stroke:#000080;stroke-width:1.5;"/>
   </g>
   <g id="LineCollection_2">
    <path clip-path="url(#p19b2266ffe)" d="M 285.949579 293.479494 
L 286.313565 291.355361 
L 286.892533 288.16916 
L 287.020692 286.045026 
L 286.917079 282.858825 
L 286.309644 276.486424 
L 285.323157 267.989888 
L 284.342392 260.55542 
L 283.332352 254.183019 
L 282.511628 249.934751 
L 281.453272 245.686483 
L 280.386367 242.500283 
L 279.435154 240.376149 
L 278.509918 238.836182 
L 277.447851 237.594265 
L 276.385784 236.744561 
L 275.181469 236.127881 
L 274.261651 235.815753 
L 272.137517 235.468717 
L 268.951316 235.394409 
L 244.523777 235.785775 
L 227.530706 236.018508 
L 215.84797 236.39413 
L 191.420431 237.295999 
L 185.04803 237.24886 
L 178.675628 236.974243 
L 172.303227 236.475414 
L 163.806691 235.5544 
L 147.875688 233.74881 
L 141.503286 233.26846 
L 135.130885 233.03323 
L 129.82055 233.046152 
L 123.448149 233.303432 
L 117.075747 233.786463 
L 111.765413 234.367132 
L 107.340592 235.065814 
L 104.330944 235.797612 
L 102.20681 236.544574 
L 100.082677 237.607885 
L 99.02061 238.304701 
L 97.798643 239.314082 
L 96.768545 240.376149 
L 95.834409 241.569768 
L 94.643518 243.562349 
L 93.710275 245.744933 
L 93.103703 247.810617 
L 92.648208 250.205993 
L 92.38592 253.120952 
L 92.144172 259.493353 
L 91.753335 261.617487 
L 91.398129 262.679554 
L 90.524074 264.306582 
L 90.176567 264.803688 
L 89.169713 265.865755 
L 87.651503 266.927822 
L 86.275807 267.520631 
L 85.21374 267.819672 
L 83.828046 267.989888 
L 82.931081 267.989888 
L 82.027539 267.897102 
L 80.965472 267.654442 
L 79.171512 266.927822 
L 78.841338 266.76183 
L 77.534443 265.865755 
L 76.356525 264.803688 
L 75.402982 263.741621 
L 74.586202 262.679554 
L 73.319284 260.55542 
L 72.297166 258.431286 
L 71.094279 255.245086 
L 70.13038 252.058885 
L 68.886545 246.74855 
L 67.902789 241.438216 
L 66.794707 234.003747 
L 65.646476 224.445145 
L 64.612728 213.824476 
L 63.615172 201.079673 
L 62.628485 185.148669 
L 61.651524 164.969398 
L 60.692667 139.479792 
L 59.767723 107.617784 
L 58.718366 63.010974 
L 58.700083 57.700639 
L 58.747225 55.576506 
L 58.747225 55.576506 
" style="fill:none;stroke:#0000e8;stroke-width:1.5;"/>
   </g>
   <g id="LineCollection_3">
    <path clip-path="url(#p19b2266ffe)" d="M 290.058553 293.479494 
L 290.470804 288.16916 
L 290.443672 284.982959 
L 290.089455 278.610558 
L 288.373666 254.183019 
L 287.384607 241.438216 
L 286.498642 231.879613 
L 285.536435 223.383078 
L 284.461159 215.94861 
L 283.464007 210.638275 
L 282.406053 206.390007 
L 281.310241 203.203807 
L 280.267514 201.079673 
L 279.571985 200.002104 
L 278.490862 198.955539 
L 277.447851 198.3961 
L 276.385784 198.166754 
L 275.323717 198.175826 
L 273.199584 198.603295 
L 266.827182 200.375397 
L 263.640981 200.907605 
L 260.454781 201.201545 
L 256.206513 201.362652 
L 247.709978 201.393999 
L 212.66177 201.428287 
L 186.110097 201.58855 
L 164.868758 201.962207 
L 138.317086 202.389581 
L 127.696416 202.422107 
L 122.386082 202.256956 
L 117.075747 201.846414 
L 111.765413 201.154761 
L 102.20681 199.750922 
L 99.02061 199.603413 
L 96.896476 199.732417 
L 94.772342 200.121481 
L 92.648208 200.850803 
L 91.586141 201.369275 
L 89.462007 202.765645 
L 87.770213 204.265874 
L 86.275807 205.85951 
L 84.151673 208.55118 
L 79.469663 214.886543 
L 78.461681 215.94861 
L 77.779271 216.566528 
L 76.717204 217.193517 
L 75.655138 217.401764 
L 74.480539 217.010677 
L 73.349193 215.94861 
L 72.468937 214.649347 
L 71.210904 211.700342 
L 70.211093 208.514141 
L 68.978503 203.203807 
L 67.843719 196.831405 
L 66.794162 189.396937 
L 65.71321 179.838335 
L 64.650446 168.155599 
L 63.561782 153.286662 
L 62.496794 135.231524 
L 61.439826 112.928119 
L 60.391175 85.314379 
L 59.546539 58.762706 
L 59.641218 55.576506 
L 59.641218 55.576506 
" style="fill:none;stroke:#0038ff;stroke-width:1.5;"/>
   </g>
   <g id="LineCollection_4">
    <path clip-path="url(#p19b2266ffe)" d="M 292.320264 293.479494 
L 292.443571 284.982959 
L 292.108246 277.548491 
L 288.879135 218.072743 
L 287.691648 203.203807 
L 286.612533 192.583138 
L 285.511794 184.086602 
L 284.446476 177.714201 
L 283.538851 173.465933 
L 282.678114 170.279732 
L 281.435208 167.093532 
L 280.634052 165.601402 
L 279.571985 164.378881 
L 278.509918 163.765235 
L 277.447851 163.62579 
L 276.235497 163.907331 
L 275.323717 164.307251 
L 273.199584 165.660654 
L 269.603847 168.155599 
L 267.78425 169.217665 
L 265.427015 170.279732 
L 263.640981 170.87005 
L 261.516848 171.346089 
L 259.392714 171.634159 
L 256.206513 171.817095 
L 251.958245 171.803635 
L 234.965175 171.503416 
L 106.455078 171.135179 
L 96.896476 170.94762 
L 93.710275 171.127792 
L 91.586141 171.423681 
L 89.462007 171.924483 
L 87.337874 172.688113 
L 85.21374 173.763823 
L 83.089606 175.162353 
L 77.779271 179.143787 
L 76.717204 179.63815 
L 75.645303 179.838335 
L 74.593071 179.64192 
L 73.415665 178.776268 
L 72.468937 177.564085 
L 71.40687 175.429668 
L 70.076463 171.341799 
L 69.049473 167.093532 
L 67.876389 160.72113 
L 66.800557 153.286662 
L 65.693391 143.728059 
L 64.600192 132.045323 
L 63.475199 117.176387 
L 62.431414 100.183316 
L 60.7815 68.321309 
L 60.493014 60.88684 
L 60.537347 57.700639 
L 60.639272 55.576506 
L 60.639272 55.576506 
" style="fill:none;stroke:#0094ff;stroke-width:1.5;"/>
   </g>
   <g id="LineCollection_5">
    <path clip-path="url(#p19b2266ffe)" d="M 294.024083 293.479494 
L 293.939864 281.796758 
L 292.846203 252.058885 
L 291.628611 222.321011 
L 290.657334 203.203807 
L 289.665887 187.272803 
L 288.600065 173.465933 
L 287.572295 162.845264 
L 286.536787 154.348729 
L 285.555007 147.976327 
L 284.502177 142.665993 
L 283.71225 139.479792 
L 282.654492 136.293591 
L 281.675364 134.169457 
L 280.634052 132.687581 
L 279.571985 131.851004 
L 278.509918 131.574092 
L 277.447851 131.751706 
L 276.385784 132.289432 
L 275.315453 133.10739 
L 273.195093 135.231524 
L 268.951316 139.831871 
L 266.827182 141.72635 
L 264.703048 143.202033 
L 262.578914 144.263766 
L 260.454781 144.959648 
L 258.330647 145.355149 
L 256.206513 145.51631 
L 253.020312 145.453775 
L 248.772045 145.068261 
L 241.337576 144.332596 
L 236.027242 144.079285 
L 229.65484 144.072685 
L 206.289368 144.358629 
L 144.689487 144.337001 
L 91.586141 144.452688 
L 88.195305 144.790126 
L 85.21374 145.353966 
L 83.089606 145.948879 
L 77.779271 147.759283 
L 76.717204 147.953732 
L 75.655138 147.956459 
L 74.593071 147.67374 
L 73.462855 146.91426 
L 72.468937 145.784883 
L 71.335391 143.728059 
L 70.15149 140.541859 
L 69.012498 136.293591 
L 67.932143 130.983257 
L 66.767027 123.548788 
L 65.712889 115.052253 
L 64.558547 103.369517 
L 63.459862 89.562647 
L 61.712488 64.073041 
L 61.602448 59.824773 
L 61.815717 55.576506 
L 61.815717 55.576506 
" style="fill:none;stroke:#0cf4eb;stroke-width:1.5;"/>
   </g>
   <g id="LineCollection_6">
    <path clip-path="url(#p19b2266ffe)" d="M 295.544568 293.479494 
L 295.302533 276.486424 
L 294.228484 239.314082 
L 293.10835 207.452074 
L 292.019643 183.024535 
L 290.938624 163.907331 
L 289.866686 149.038394 
L 288.786896 137.355658 
L 287.785742 128.859123 
L 286.653287 121.424654 
L 285.602622 116.11432 
L 284.499146 111.866052 
L 283.820253 109.722838 
L 282.758186 107.248897 
L 281.650824 105.493651 
L 280.536362 104.431584 
L 279.571985 103.96996 
L 278.509918 103.930712 
L 277.224416 104.431584 
L 276.385784 104.969568 
L 274.722429 106.555717 
L 273.199584 108.315854 
L 267.873408 115.052253 
L 265.765115 117.30319 
L 263.640981 119.131496 
L 261.516848 120.489975 
L 259.392714 121.399499 
L 257.26858 121.911927 
L 255.144446 122.091648 
L 253.020312 122.009214 
L 250.896178 121.733003 
L 247.709978 121.093893 
L 239.213442 119.217286 
L 234.965175 118.608087 
L 230.716907 118.29901 
L 226.468639 118.245203 
L 220.096238 118.45547 
L 204.165234 119.131057 
L 192.482498 119.328256 
L 164.868758 119.480712 
L 117.075747 119.808193 
L 89.462007 120.153354 
L 85.21374 120.412283 
L 77.779271 121.100135 
L 76.717204 121.052372 
L 75.655138 120.862235 
L 74.453201 120.362587 
L 73.531004 119.741376 
L 72.245903 118.238454 
L 71.40687 116.886469 
L 70.203068 113.990186 
L 68.969125 109.741918 
L 68.025233 105.493651 
L 66.784661 98.059182 
L 65.68516 89.562647 
L 64.465375 77.879911 
L 63.297922 65.135108 
L 63.083821 60.88684 
L 63.161892 58.762706 
L 63.447997 55.576506 
L 63.447997 55.576506 
" style="fill:none;stroke:#56ffa0;stroke-width:1.5;"/>
   </g>
   <g id="LineCollection_7">
    <path clip-path="url(#p19b2266ffe)" d="M 300.717052 293.479494 
L 300.609438 287.107093 
L 300.287023 280.734691 
L 299.679913 273.300223 
L 298.467052 261.617487 
L 296.487234 243.562349 
L 295.086842 207.452074 
L 294.077767 178.776268 
L 293.082814 156.472862 
L 292.048213 138.417725 
L 291.021611 124.610855 
L 289.886123 112.928119 
L 288.823935 104.431584 
L 287.813538 98.059182 
L 286.717627 92.748848 
L 285.883875 89.562647 
L 284.78949 86.376446 
L 283.820253 84.200025 
L 282.563768 82.128178 
L 281.696119 81.008926 
L 280.634052 79.983674 
L 279.571985 79.252238 
L 278.509918 78.753617 
L 277.447851 78.471832 
L 276.385784 78.37667 
L 275.323717 78.461 
L 273.686266 78.941978 
L 273.199584 79.158416 
L 271.852607 80.004045 
L 270.650004 81.066112 
L 269.714281 82.128178 
L 268.274771 84.252312 
L 266.827182 86.984252 
L 263.866564 92.748848 
L 262.578914 94.690658 
L 261.516848 95.997456 
L 260.454781 97.071442 
L 259.233758 98.059182 
L 257.26858 99.217927 
L 255.144446 99.988284 
L 253.020312 100.397022 
L 250.896178 100.546745 
L 247.709978 100.456149 
L 243.46171 100.01551 
L 223.282439 97.461106 
L 216.910037 96.977903 
L 209.475569 96.659768 
L 200.979033 96.548029 
L 185.04803 96.643719 
L 168.054959 96.653172 
L 149.999822 96.415638 
L 78.841338 95.09894 
L 76.717204 94.732856 
L 75.655138 94.373029 
L 74.576767 93.810914 
L 73.315812 92.748848 
L 72.410985 91.686781 
L 71.199118 89.562647 
L 70.290515 87.438513 
L 69.026294 83.190245 
L 67.864288 77.879911 
L 66.779151 71.507509 
L 65.937201 65.135108 
L 65.773916 61.948907 
L 65.85786 59.824773 
L 66.326574 55.576506 
L 66.326574 55.576506 
" style="fill:none;stroke:#a0ff56;stroke-width:1.5;"/>
   </g>
   <g id="LineCollection_8">
    <path clip-path="url(#p19b2266ffe)" d="M 308.227427 293.479494 
L 308.084978 284.982959 
L 307.700874 276.486424 
L 306.963516 265.865755 
L 305.758641 252.058885 
L 303.943574 234.003747 
L 301.899754 215.94861 
L 299.882484 200.017606 
L 297.782388 185.148669 
L 296.533405 176.652134 
L 294.927304 144.790126 
L 294.023177 126.734989 
L 293.064187 111.866052 
L 292.103605 100.183316 
L 291.19307 91.686781 
L 290.24042 85.314379 
L 289.587659 82.128178 
L 288.757371 78.941978 
L 288.056804 76.817844 
L 287.006454 74.414067 
L 285.924919 72.569576 
L 284.88232 71.232198 
L 283.820253 70.183147 
L 282.758186 69.368646 
L 280.763249 68.321309 
L 279.571985 67.908198 
L 277.447851 67.448203 
L 275.323717 67.26368 
L 273.199584 67.297588 
L 271.07545 67.509623 
L 267.889249 68.104105 
L 264.703048 68.99638 
L 261.516848 70.144331 
L 258.313923 71.507509 
L 247.709978 76.356023 
L 244.523777 77.406699 
L 242.399643 77.909832 
L 240.275509 78.245658 
L 237.089309 78.464627 
L 233.903108 78.390912 
L 230.716907 78.09145 
L 226.468639 77.435728 
L 220.096238 76.155275 
L 198.8549 71.733107 
L 188.23423 69.648092 
L 182.251095 68.321309 
L 176.551494 66.745728 
L 173.365294 65.656248 
L 171.24116 64.786229 
L 169.117026 63.722481 
L 167.911741 63.010974 
L 166.525829 61.948907 
L 165.50873 60.88684 
L 164.810793 59.824773 
L 164.380141 58.762706 
L 164.167714 57.700639 
L 164.175744 55.576506 
L 164.175744 55.576506 
" style="fill:none;stroke:#ebff0c;stroke-width:1.5;"/>
   </g>
   <g id="LineCollection_9">
    <path clip-path="url(#p19b2266ffe)" d="M 315.939723 293.479494 
L 315.816148 283.920892 
L 315.439663 273.300223 
L 314.738458 260.55542 
L 313.625256 244.624416 
L 312.064315 225.507212 
L 310.279795 206.390007 
L 308.476738 189.396937 
L 306.691381 174.528 
L 304.81386 160.72113 
L 302.937457 148.558151 
L 301.173215 138.417725 
L 299.302988 128.859123 
L 297.434136 120.362587 
L 296.514429 116.11432 
L 294.837937 94.872981 
L 294.105553 86.376446 
L 293.331292 80.004045 
L 292.59033 75.755777 
L 291.821662 72.569576 
L 291.141794 70.445442 
L 290.192654 68.250061 
L 288.914196 66.197175 
L 288.025978 65.135108 
L 286.887862 64.073041 
L 284.88232 62.674208 
L 282.758186 61.58075 
L 276.385784 58.727969 
L 275.195265 57.700639 
L 274.710376 56.638572 
L 274.729022 55.576506 
L 274.729022 55.576506 
" style="fill:none;stroke:#ffab00;stroke-width:1.5;"/>
   </g>
   <g id="LineCollection_10">
    <path clip-path="url(#p19b2266ffe)" d="M 323.798867 293.479494 
L 323.679592 281.796758 
L 323.32971 269.051955 
L 322.660279 253.120952 
L 321.57603 232.94168 
L 320.15264 210.638275 
L 318.649344 190.459004 
L 317.084942 172.403866 
L 315.476036 156.472862 
L 313.851516 142.665993 
L 312.260445 130.983257 
L 310.594599 120.362587 
L 308.870202 110.803985 
L 307.110987 102.30745 
L 305.345937 94.872981 
L 303.607883 88.50058 
L 301.87539 83.000775 
L 300.403882 78.941978 
L 298.607202 74.69371 
L 296.999209 71.507509 
L 296.503769 70.445442 
L 295.736061 67.259242 
L 295.454267 66.197175 
L 294.729389 63.010974 
L 293.378855 58.62722 
L 292.456703 55.576506 
L 292.456703 55.576506 
" style="fill:none;stroke:#ff5500;stroke-width:1.5;"/>
   </g>
   <g id="LineCollection_11">
    <path clip-path="url(#p19b2266ffe)" d="M 331.754407 293.479494 
L 331.640648 278.610558 
L 331.247444 258.431286 
L 330.551197 235.347961 
L 329.528832 208.514141 
L 328.344657 183.024535 
L 327.144035 161.783197 
L 325.903242 143.728059 
L 324.673035 128.859123 
L 323.308527 115.052253 
L 321.936941 103.369517 
L 320.334877 91.686781 
L 317.806394 75.298804 
L 316.679336 67.259242 
L 316.15218 61.948907 
L 315.941308 57.700639 
L 315.919579 55.576506 
L 315.919579 55.576506 
" style="fill:none;stroke:#e80000;stroke-width:1.5;"/>
   </g>
   <g id="LineCollection_12">
    <path clip-path="url(#p19b2266ffe)" d="M 339.767135 293.479494 
L 339.673356 273.300223 
L 339.384262 234.003747 
L 338.718948 186.210736 
L 338.005525 150.100461 
L 337.244112 122.486721 
L 336.466145 101.245383 
L 334.989212 65.135108 
L 334.880088 55.576506 
L 334.880088 55.576506 
" style="fill:none;stroke:#800000;stroke-width:1.5;"/>
   </g>
   <g id="patch_3">
    <path d="M 57.6 293.479494 
L 57.6 55.576506 
" style="fill:none;stroke:#000000;stroke-linecap:square;stroke-linejoin:miter;stroke-width:0.8;"/>
   </g>
   <g id="patch_4">
    <path d="M 343.296 293.479494 
L 343.296 55.576506 
" style="fill:none;stroke:#000000;stroke-linecap:square;stroke-linejoin:miter;stroke-width:0.8;"/>
   </g>
   <g id="patch_5">
    <path d="M 57.6 293.479494 
L 343.296 293.479494 
" style="fill:none;stroke:#000000;stroke-linecap:square;stroke-linejoin:miter;stroke-width:0.8;"/>
   </g>
   <g id="patch_6">
    <path d="M 57.6 55.576506 
L 343.296 55.576506 
" style="fill:none;stroke:#000000;stroke-linecap:square;stroke-linejoin:miter;stroke-width:0.8;"/>
   </g>
   <g id="text_10">
    <!-- Time:0.16132 s -->
    <defs>
     <path d="M -0.296875 72.90625 
L 61.375 72.90625 
L 61.375 64.59375 
L 35.5 64.59375 
L 35.5 0 
L 25.59375 0 
L 25.59375 64.59375 
L -0.296875 64.59375 
z
" id="DejaVuSans-54"/>
     <path d="M 9.421875 54.6875 
L 18.40625 54.6875 
L 18.40625 0 
L 9.421875 0 
z
M 9.421875 75.984375 
L 18.40625 75.984375 
L 18.40625 64.59375 
L 9.421875 64.59375 
z
" id="DejaVuSans-69"/>
     <path d="M 52 44.1875 
Q 55.375 50.25 60.0625 53.125 
Q 64.75 56 71.09375 56 
Q 79.640625 56 84.28125 50.015625 
Q 88.921875 44.046875 88.921875 33.015625 
L 88.921875 0 
L 79.890625 0 
L 79.890625 32.71875 
Q 79.890625 40.578125 77.09375 44.375 
Q 74.3125 48.1875 68.609375 48.1875 
Q 61.625 48.1875 57.5625 43.546875 
Q 53.515625 38.921875 53.515625 30.90625 
L 53.515625 0 
L 44.484375 0 
L 44.484375 32.71875 
Q 44.484375 40.625 41.703125 44.40625 
Q 38.921875 48.1875 33.109375 48.1875 
Q 26.21875 48.1875 22.15625 43.53125 
Q 18.109375 38.875 18.109375 30.90625 
L 18.109375 0 
L 9.078125 0 
L 9.078125 54.6875 
L 18.109375 54.6875 
L 18.109375 46.1875 
Q 21.1875 51.21875 25.484375 53.609375 
Q 29.78125 56 35.6875 56 
Q 41.65625 56 45.828125 52.96875 
Q 50 49.953125 52 44.1875 
z
" id="DejaVuSans-6d"/>
     <path d="M 56.203125 29.59375 
L 56.203125 25.203125 
L 14.890625 25.203125 
Q 15.484375 15.921875 20.484375 11.0625 
Q 25.484375 6.203125 34.421875 6.203125 
Q 39.59375 6.203125 44.453125 7.46875 
Q 49.3125 8.734375 54.109375 11.28125 
L 54.109375 2.78125 
Q 49.265625 0.734375 44.1875 -0.34375 
Q 39.109375 -1.421875 33.890625 -1.421875 
Q 20.796875 -1.421875 13.15625 6.1875 
Q 5.515625 13.8125 5.515625 26.8125 
Q 5.515625 40.234375 12.765625 48.109375 
Q 20.015625 56 32.328125 56 
Q 43.359375 56 49.78125 48.890625 
Q 56.203125 41.796875 56.203125 29.59375 
z
M 47.21875 32.234375 
Q 47.125 39.59375 43.09375 43.984375 
Q 39.0625 48.390625 32.421875 48.390625 
Q 24.90625 48.390625 20.390625 44.140625 
Q 15.875 39.890625 15.1875 32.171875 
z
" id="DejaVuSans-65"/>
     <path d="M 11.71875 12.40625 
L 22.015625 12.40625 
L 22.015625 0 
L 11.71875 0 
z
M 11.71875 51.703125 
L 22.015625 51.703125 
L 22.015625 39.3125 
L 11.71875 39.3125 
z
" id="DejaVuSans-3a"/>
     <path d="M 40.578125 39.3125 
Q 47.65625 37.796875 51.625 33 
Q 55.609375 28.21875 55.609375 21.1875 
Q 55.609375 10.40625 48.1875 4.484375 
Q 40.765625 -1.421875 27.09375 -1.421875 
Q 22.515625 -1.421875 17.65625 -0.515625 
Q 12.796875 0.390625 7.625 2.203125 
L 7.625 11.71875 
Q 11.71875 9.328125 16.59375 8.109375 
Q 21.484375 6.890625 26.8125 6.890625 
Q 36.078125 6.890625 40.9375 10.546875 
Q 45.796875 14.203125 45.796875 21.1875 
Q 45.796875 27.640625 41.28125 31.265625 
Q 36.765625 34.90625 28.71875 34.90625 
L 20.21875 34.90625 
L 20.21875 43.015625 
L 29.109375 43.015625 
Q 36.375 43.015625 40.234375 45.921875 
Q 44.09375 48.828125 44.09375 54.296875 
Q 44.09375 59.90625 40.109375 62.90625 
Q 36.140625 65.921875 28.71875 65.921875 
Q 24.65625 65.921875 20.015625 65.03125 
Q 15.375 64.15625 9.8125 62.3125 
L 9.8125 71.09375 
Q 15.4375 72.65625 20.34375 73.4375 
Q 25.25 74.21875 29.59375 74.21875 
Q 40.828125 74.21875 47.359375 69.109375 
Q 53.90625 64.015625 53.90625 55.328125 
Q 53.90625 49.265625 50.4375 45.09375 
Q 46.96875 40.921875 40.578125 39.3125 
z
" id="DejaVuSans-33"/>
     <path id="DejaVuSans-20"/>
     <path d="M 44.28125 53.078125 
L 44.28125 44.578125 
Q 40.484375 46.53125 36.375 47.5 
Q 32.28125 48.484375 27.875 48.484375 
Q 21.1875 48.484375 17.84375 46.4375 
Q 14.5 44.390625 14.5 40.28125 
Q 14.5 37.15625 16.890625 35.375 
Q 19.28125 33.59375 26.515625 31.984375 
L 29.59375 31.296875 
Q 39.15625 29.25 43.1875 25.515625 
Q 47.21875 21.78125 47.21875 15.09375 
Q 47.21875 7.46875 41.1875 3.015625 
Q 35.15625 -1.421875 24.609375 -1.421875 
Q 20.21875 -1.421875 15.453125 -0.5625 
Q 10.6875 0.296875 5.421875 2 
L 5.421875 11.28125 
Q 10.40625 8.6875 15.234375 7.390625 
Q 20.0625 6.109375 24.8125 6.109375 
Q 31.15625 6.109375 34.5625 8.28125 
Q 37.984375 10.453125 37.984375 14.40625 
Q 37.984375 18.0625 35.515625 20.015625 
Q 33.0625 21.96875 24.703125 23.78125 
L 21.578125 24.515625 
Q 13.234375 26.265625 9.515625 29.90625 
Q 5.8125 33.546875 5.8125 39.890625 
Q 5.8125 47.609375 11.28125 51.796875 
Q 16.75 56 26.8125 56 
Q 31.78125 56 36.171875 55.265625 
Q 40.578125 54.546875 44.28125 53.078125 
z
" id="DejaVuSans-73"/>
    </defs>
    <g transform="translate(153.717375 49.576506)scale(0.12 -0.12)">
     <use xlink:href="#DejaVuSans-54"/>
     <use x="61.037109" xlink:href="#DejaVuSans-69"/>
     <use x="88.820312" xlink:href="#DejaVuSans-6d"/>
     <use x="186.232422" xlink:href="#DejaVuSans-65"/>
     <use x="247.755859" xlink:href="#DejaVuSans-3a"/>
     <use x="281.447266" xlink:href="#DejaVuSans-30"/>
     <use x="345.070312" xlink:href="#DejaVuSans-2e"/>
     <use x="376.857422" xlink:href="#DejaVuSans-31"/>
     <use x="440.480469" xlink:href="#DejaVuSans-36"/>
     <use x="504.103516" xlink:href="#DejaVuSans-31"/>
     <use x="567.726562" xlink:href="#DejaVuSans-33"/>
     <use x="631.349609" xlink:href="#DejaVuSans-32"/>
     <use x="694.972656" xlink:href="#DejaVuSans-20"/>
     <use x="726.759766" xlink:href="#DejaVuSans-73"/>
    </g>
   </g>
  </g>
  <g id="axes_2">
   <g id="patch_7">
    <path clip-path="url(#p95060d2cb9)" d="M 361.152 307.584 
L 361.152 283.392 
L 361.152 65.664 
L 361.152 41.472 
L 374.4576 41.472 
L 374.4576 65.664 
L 374.4576 283.392 
L 374.4576 307.584 
z
" style="fill:#ffffff;stroke:#ffffff;stroke-linejoin:miter;stroke-width:0.01;"/>
   </g>
   <g id="matplotlib.axis_3"/>
   <g id="matplotlib.axis_4">
    <g id="ytick_5">
     <g id="line2d_10">
      <defs>
       <path d="M 0 0 
L 3.5 0 
" id="m21513918a8" style="stroke:#000000;stroke-width:0.8;"/>
      </defs>
      <g>
       <use style="stroke:#000000;stroke-width:0.8;" x="374.4576" xlink:href="#m21513918a8" y="307.584"/>
      </g>
     </g>
     <g id="text_11">
      <!-- 0.08 -->
      <g transform="translate(381.4576 311.383219)scale(0.1 -0.1)">
       <use xlink:href="#DejaVuSans-30"/>
       <use x="63.623047" xlink:href="#DejaVuSans-2e"/>
       <use x="95.410156" xlink:href="#DejaVuSans-30"/>
       <use x="159.033203" xlink:href="#DejaVuSans-38"/>
      </g>
     </g>
    </g>
    <g id="ytick_6">
     <g id="line2d_11">
      <g>
       <use style="stroke:#000000;stroke-width:0.8;" x="374.4576" xlink:href="#m21513918a8" y="259.2"/>
      </g>
     </g>
     <g id="text_12">
      <!-- 0.24 -->
      <g transform="translate(381.4576 262.999219)scale(0.1 -0.1)">
       <use xlink:href="#DejaVuSans-30"/>
       <use x="63.623047" xlink:href="#DejaVuSans-2e"/>
       <use x="95.410156" xlink:href="#DejaVuSans-32"/>
       <use x="159.033203" xlink:href="#DejaVuSans-34"/>
      </g>
     </g>
    </g>
    <g id="ytick_7">
     <g id="line2d_12">
      <g>
       <use style="stroke:#000000;stroke-width:0.8;" x="374.4576" xlink:href="#m21513918a8" y="210.816"/>
      </g>
     </g>
     <g id="text_13">
      <!-- 0.40 -->
      <g transform="translate(381.4576 214.615219)scale(0.1 -0.1)">
       <use xlink:href="#DejaVuSans-30"/>
       <use x="63.623047" xlink:href="#DejaVuSans-2e"/>
       <use x="95.410156" xlink:href="#DejaVuSans-34"/>
       <use x="159.033203" xlink:href="#DejaVuSans-30"/>
      </g>
     </g>
    </g>
    <g id="ytick_8">
     <g id="line2d_13">
      <g>
       <use style="stroke:#000000;stroke-width:0.8;" x="374.4576" xlink:href="#m21513918a8" y="162.432"/>
      </g>
     </g>
     <g id="text_14">
      <!-- 0.56 -->
      <defs>
       <path d="M 10.796875 72.90625 
L 49.515625 72.90625 
L 49.515625 64.59375 
L 19.828125 64.59375 
L 19.828125 46.734375 
Q 21.96875 47.46875 24.109375 47.828125 
Q 26.265625 48.1875 28.421875 48.1875 
Q 40.625 48.1875 47.75 41.5 
Q 54.890625 34.8125 54.890625 23.390625 
Q 54.890625 11.625 47.5625 5.09375 
Q 40.234375 -1.421875 26.90625 -1.421875 
Q 22.3125 -1.421875 17.546875 -0.640625 
Q 12.796875 0.140625 7.71875 1.703125 
L 7.71875 11.625 
Q 12.109375 9.234375 16.796875 8.0625 
Q 21.484375 6.890625 26.703125 6.890625 
Q 35.15625 6.890625 40.078125 11.328125 
Q 45.015625 15.765625 45.015625 23.390625 
Q 45.015625 31 40.078125 35.4375 
Q 35.15625 39.890625 26.703125 39.890625 
Q 22.75 39.890625 18.8125 39.015625 
Q 14.890625 38.140625 10.796875 36.28125 
z
" id="DejaVuSans-35"/>
      </defs>
      <g transform="translate(381.4576 166.231219)scale(0.1 -0.1)">
       <use xlink:href="#DejaVuSans-30"/>
       <use x="63.623047" xlink:href="#DejaVuSans-2e"/>
       <use x="95.410156" xlink:href="#DejaVuSans-35"/>
       <use x="159.033203" xlink:href="#DejaVuSans-36"/>
      </g>
     </g>
    </g>
    <g id="ytick_9">
     <g id="line2d_14">
      <g>
       <use style="stroke:#000000;stroke-width:0.8;" x="374.4576" xlink:href="#m21513918a8" y="114.048"/>
      </g>
     </g>
     <g id="text_15">
      <!-- 0.72 -->
      <defs>
       <path d="M 8.203125 72.90625 
L 55.078125 72.90625 
L 55.078125 68.703125 
L 28.609375 0 
L 18.3125 0 
L 43.21875 64.59375 
L 8.203125 64.59375 
z
" id="DejaVuSans-37"/>
      </defs>
      <g transform="translate(381.4576 117.847219)scale(0.1 -0.1)">
       <use xlink:href="#DejaVuSans-30"/>
       <use x="63.623047" xlink:href="#DejaVuSans-2e"/>
       <use x="95.410156" xlink:href="#DejaVuSans-37"/>
       <use x="159.033203" xlink:href="#DejaVuSans-32"/>
      </g>
     </g>
    </g>
    <g id="ytick_10">
     <g id="line2d_15">
      <g>
       <use style="stroke:#000000;stroke-width:0.8;" x="374.4576" xlink:href="#m21513918a8" y="65.664"/>
      </g>
     </g>
     <g id="text_16">
      <!-- 0.88 -->
      <g transform="translate(381.4576 69.463219)scale(0.1 -0.1)">
       <use xlink:href="#DejaVuSans-30"/>
       <use x="63.623047" xlink:href="#DejaVuSans-2e"/>
       <use x="95.410156" xlink:href="#DejaVuSans-38"/>
       <use x="159.033203" xlink:href="#DejaVuSans-38"/>
      </g>
     </g>
    </g>
   </g>
   <g id="LineCollection_13">
    <path clip-path="url(#p95060d2cb9)" d="M 361.152 307.584 
L 374.4576 307.584 
" style="fill:none;stroke:#000080;stroke-width:1.5;"/>
    <path clip-path="url(#p95060d2cb9)" d="M 361.152 283.392 
L 374.4576 283.392 
" style="fill:none;stroke:#0000e8;stroke-width:1.5;"/>
    <path clip-path="url(#p95060d2cb9)" d="M 361.152 259.2 
L 374.4576 259.2 
" style="fill:none;stroke:#0038ff;stroke-width:1.5;"/>
    <path clip-path="url(#p95060d2cb9)" d="M 361.152 235.008 
L 374.4576 235.008 
" style="fill:none;stroke:#0094ff;stroke-width:1.5;"/>
    <path clip-path="url(#p95060d2cb9)" d="M 361.152 210.816 
L 374.4576 210.816 
" style="fill:none;stroke:#0cf4eb;stroke-width:1.5;"/>
    <path clip-path="url(#p95060d2cb9)" d="M 361.152 186.624 
L 374.4576 186.624 
" style="fill:none;stroke:#56ffa0;stroke-width:1.5;"/>
    <path clip-path="url(#p95060d2cb9)" d="M 361.152 162.432 
L 374.4576 162.432 
" style="fill:none;stroke:#a0ff56;stroke-width:1.5;"/>
    <path clip-path="url(#p95060d2cb9)" d="M 361.152 138.24 
L 374.4576 138.24 
" style="fill:none;stroke:#ebff0c;stroke-width:1.5;"/>
    <path clip-path="url(#p95060d2cb9)" d="M 361.152 114.048 
L 374.4576 114.048 
" style="fill:none;stroke:#ffab00;stroke-width:1.5;"/>
    <path clip-path="url(#p95060d2cb9)" d="M 361.152 89.856 
L 374.4576 89.856 
" style="fill:none;stroke:#ff5500;stroke-width:1.5;"/>
    <path clip-path="url(#p95060d2cb9)" d="M 361.152 65.664 
L 374.4576 65.664 
" style="fill:none;stroke:#e80000;stroke-width:1.5;"/>
    <path clip-path="url(#p95060d2cb9)" d="M 361.152 41.472 
L 374.4576 41.472 
" style="fill:none;stroke:#800000;stroke-width:1.5;"/>
   </g>
   <g id="patch_8">
    <path d="M 361.152 307.584 
L 361.152 283.392 
L 361.152 65.664 
L 361.152 41.472 
L 374.4576 41.472 
L 374.4576 65.664 
L 374.4576 283.392 
L 374.4576 307.584 
z
" style="fill:none;stroke:#000000;stroke-linejoin:miter;stroke-width:0.8;"/>
   </g>
  </g>
 </g>
 <defs>
  <clipPath id="p19b2266ffe">
   <rect height="237.902989" width="285.696" x="57.6" y="55.576506"/>
  </clipPath>
  <clipPath id="p95060d2cb9">
   <rect height="266.112" width="13.3056" x="361.152" y="41.472"/>
  </clipPath>
 </defs>
</svg>
