<?xml version="1.0" encoding="utf-8" standalone="no"?>
<!DOCTYPE svg PUBLIC "-//W3C//DTD SVG 1.1//EN"
  "http://www.w3.org/Graphics/SVG/1.1/DTD/svg11.dtd">
<!-- Created with matplotlib (http://matplotlib.org/) -->
<svg height="345.6pt" version="1.1" viewBox="0 0 460.8 345.6" width="460.8pt" xmlns="http://www.w3.org/2000/svg" xmlns:xlink="http://www.w3.org/1999/xlink">
 <defs>
  <style type="text/css">
*{stroke-linecap:butt;stroke-linejoin:round;}
  </style>
 </defs>
 <g id="figure_1">
  <g id="patch_1">
   <path d="M 0 345.6 
L 460.8 345.6 
L 460.8 0 
L 0 0 
z
" style="fill:#ffffff;"/>
  </g>
  <g id="axes_1">
   <g id="patch_2">
    <path d="M 57.6 293.479494 
L 343.296 293.479494 
L 343.296 55.576506 
L 57.6 55.576506 
z
" style="fill:#ffffff;"/>
   </g>
   <g id="matplotlib.axis_1">
    <g id="xtick_1">
     <g id="line2d_1">
      <defs>
       <path d="M 0 0 
L 0 3.5 
" id="m813ffeca4a" style="stroke:#000000;stroke-width:0.8;"/>
      </defs>
      <g>
       <use style="stroke:#000000;stroke-width:0.8;" x="104.861978" xlink:href="#m813ffeca4a" y="293.479494"/>
      </g>
     </g>
     <g id="text_1">
      <!-- 0.2 -->
      <defs>
       <path d="M 31.78125 66.40625 
Q 24.171875 66.40625 20.328125 58.90625 
Q 16.5 51.421875 16.5 36.375 
Q 16.5 21.390625 20.328125 13.890625 
Q 24.171875 6.390625 31.78125 6.390625 
Q 39.453125 6.390625 43.28125 13.890625 
Q 47.125 21.390625 47.125 36.375 
Q 47.125 51.421875 43.28125 58.90625 
Q 39.453125 66.40625 31.78125 66.40625 
z
M 31.78125 74.21875 
Q 44.046875 74.21875 50.515625 64.515625 
Q 56.984375 54.828125 56.984375 36.375 
Q 56.984375 17.96875 50.515625 8.265625 
Q 44.046875 -1.421875 31.78125 -1.421875 
Q 19.53125 -1.421875 13.0625 8.265625 
Q 6.59375 17.96875 6.59375 36.375 
Q 6.59375 54.828125 13.0625 64.515625 
Q 19.53125 74.21875 31.78125 74.21875 
z
" id="DejaVuSans-30"/>
       <path d="M 10.6875 12.40625 
L 21 12.40625 
L 21 0 
L 10.6875 0 
z
" id="DejaVuSans-2e"/>
       <path d="M 19.1875 8.296875 
L 53.609375 8.296875 
L 53.609375 0 
L 7.328125 0 
L 7.328125 8.296875 
Q 12.9375 14.109375 22.625 23.890625 
Q 32.328125 33.6875 34.8125 36.53125 
Q 39.546875 41.84375 41.421875 45.53125 
Q 43.3125 49.21875 43.3125 52.78125 
Q 43.3125 58.59375 39.234375 62.25 
Q 35.15625 65.921875 28.609375 65.921875 
Q 23.96875 65.921875 18.8125 64.3125 
Q 13.671875 62.703125 7.8125 59.421875 
L 7.8125 69.390625 
Q 13.765625 71.78125 18.9375 73 
Q 24.125 74.21875 28.421875 74.21875 
Q 39.75 74.21875 46.484375 68.546875 
Q 53.21875 62.890625 53.21875 53.421875 
Q 53.21875 48.921875 51.53125 44.890625 
Q 49.859375 40.875 45.40625 35.40625 
Q 44.1875 33.984375 37.640625 27.21875 
Q 31.109375 20.453125 19.1875 8.296875 
z
" id="DejaVuSans-32"/>
      </defs>
      <g transform="translate(96.910415 308.077932)scale(0.1 -0.1)">
       <use xlink:href="#DejaVuSans-30"/>
       <use x="63.623047" xlink:href="#DejaVuSans-2e"/>
       <use x="95.410156" xlink:href="#DejaVuSans-32"/>
      </g>
     </g>
    </g>
    <g id="xtick_2">
     <g id="line2d_2">
      <g>
       <use style="stroke:#000000;stroke-width:0.8;" x="152.654989" xlink:href="#m813ffeca4a" y="293.479494"/>
      </g>
     </g>
     <g id="text_2">
      <!-- 0.4 -->
      <defs>
       <path d="M 37.796875 64.3125 
L 12.890625 25.390625 
L 37.796875 25.390625 
z
M 35.203125 72.90625 
L 47.609375 72.90625 
L 47.609375 25.390625 
L 58.015625 25.390625 
L 58.015625 17.1875 
L 47.609375 17.1875 
L 47.609375 0 
L 37.796875 0 
L 37.796875 17.1875 
L 4.890625 17.1875 
L 4.890625 26.703125 
z
" id="DejaVuSans-34"/>
      </defs>
      <g transform="translate(144.703426 308.077932)scale(0.1 -0.1)">
       <use xlink:href="#DejaVuSans-30"/>
       <use x="63.623047" xlink:href="#DejaVuSans-2e"/>
       <use x="95.410156" xlink:href="#DejaVuSans-34"/>
      </g>
     </g>
    </g>
    <g id="xtick_3">
     <g id="line2d_3">
      <g>
       <use style="stroke:#000000;stroke-width:0.8;" x="200.448" xlink:href="#m813ffeca4a" y="293.479494"/>
      </g>
     </g>
     <g id="text_3">
      <!-- 0.6 -->
      <defs>
       <path d="M 33.015625 40.375 
Q 26.375 40.375 22.484375 35.828125 
Q 18.609375 31.296875 18.609375 23.390625 
Q 18.609375 15.53125 22.484375 10.953125 
Q 26.375 6.390625 33.015625 6.390625 
Q 39.65625 6.390625 43.53125 10.953125 
Q 47.40625 15.53125 47.40625 23.390625 
Q 47.40625 31.296875 43.53125 35.828125 
Q 39.65625 40.375 33.015625 40.375 
z
M 52.59375 71.296875 
L 52.59375 62.3125 
Q 48.875 64.0625 45.09375 64.984375 
Q 41.3125 65.921875 37.59375 65.921875 
Q 27.828125 65.921875 22.671875 59.328125 
Q 17.53125 52.734375 16.796875 39.40625 
Q 19.671875 43.65625 24.015625 45.921875 
Q 28.375 48.1875 33.59375 48.1875 
Q 44.578125 48.1875 50.953125 41.515625 
Q 57.328125 34.859375 57.328125 23.390625 
Q 57.328125 12.15625 50.6875 5.359375 
Q 44.046875 -1.421875 33.015625 -1.421875 
Q 20.359375 -1.421875 13.671875 8.265625 
Q 6.984375 17.96875 6.984375 36.375 
Q 6.984375 53.65625 15.1875 63.9375 
Q 23.390625 74.21875 37.203125 74.21875 
Q 40.921875 74.21875 44.703125 73.484375 
Q 48.484375 72.75 52.59375 71.296875 
z
" id="DejaVuSans-36"/>
      </defs>
      <g transform="translate(192.496438 308.077932)scale(0.1 -0.1)">
       <use xlink:href="#DejaVuSans-30"/>
       <use x="63.623047" xlink:href="#DejaVuSans-2e"/>
       <use x="95.410156" xlink:href="#DejaVuSans-36"/>
      </g>
     </g>
    </g>
    <g id="xtick_4">
     <g id="line2d_4">
      <g>
       <use style="stroke:#000000;stroke-width:0.8;" x="248.241011" xlink:href="#m813ffeca4a" y="293.479494"/>
      </g>
     </g>
     <g id="text_4">
      <!-- 0.8 -->
      <defs>
       <path d="M 31.78125 34.625 
Q 24.75 34.625 20.71875 30.859375 
Q 16.703125 27.09375 16.703125 20.515625 
Q 16.703125 13.921875 20.71875 10.15625 
Q 24.75 6.390625 31.78125 6.390625 
Q 38.8125 6.390625 42.859375 10.171875 
Q 46.921875 13.96875 46.921875 20.515625 
Q 46.921875 27.09375 42.890625 30.859375 
Q 38.875 34.625 31.78125 34.625 
z
M 21.921875 38.8125 
Q 15.578125 40.375 12.03125 44.71875 
Q 8.5 49.078125 8.5 55.328125 
Q 8.5 64.0625 14.71875 69.140625 
Q 20.953125 74.21875 31.78125 74.21875 
Q 42.671875 74.21875 48.875 69.140625 
Q 55.078125 64.0625 55.078125 55.328125 
Q 55.078125 49.078125 51.53125 44.71875 
Q 48 40.375 41.703125 38.8125 
Q 48.828125 37.15625 52.796875 32.3125 
Q 56.78125 27.484375 56.78125 20.515625 
Q 56.78125 9.90625 50.3125 4.234375 
Q 43.84375 -1.421875 31.78125 -1.421875 
Q 19.734375 -1.421875 13.25 4.234375 
Q 6.78125 9.90625 6.78125 20.515625 
Q 6.78125 27.484375 10.78125 32.3125 
Q 14.796875 37.15625 21.921875 38.8125 
z
M 18.3125 54.390625 
Q 18.3125 48.734375 21.84375 45.5625 
Q 25.390625 42.390625 31.78125 42.390625 
Q 38.140625 42.390625 41.71875 45.5625 
Q 45.3125 48.734375 45.3125 54.390625 
Q 45.3125 60.0625 41.71875 63.234375 
Q 38.140625 66.40625 31.78125 66.40625 
Q 25.390625 66.40625 21.84375 63.234375 
Q 18.3125 60.0625 18.3125 54.390625 
z
" id="DejaVuSans-38"/>
      </defs>
      <g transform="translate(240.289449 308.077932)scale(0.1 -0.1)">
       <use xlink:href="#DejaVuSans-30"/>
       <use x="63.623047" xlink:href="#DejaVuSans-2e"/>
       <use x="95.410156" xlink:href="#DejaVuSans-38"/>
      </g>
     </g>
    </g>
    <g id="xtick_5">
     <g id="line2d_5">
      <g>
       <use style="stroke:#000000;stroke-width:0.8;" x="296.034022" xlink:href="#m813ffeca4a" y="293.479494"/>
      </g>
     </g>
     <g id="text_5">
      <!-- 1.0 -->
      <defs>
       <path d="M 12.40625 8.296875 
L 28.515625 8.296875 
L 28.515625 63.921875 
L 10.984375 60.40625 
L 10.984375 69.390625 
L 28.421875 72.90625 
L 38.28125 72.90625 
L 38.28125 8.296875 
L 54.390625 8.296875 
L 54.390625 0 
L 12.40625 0 
z
" id="DejaVuSans-31"/>
      </defs>
      <g transform="translate(288.08246 308.077932)scale(0.1 -0.1)">
       <use xlink:href="#DejaVuSans-31"/>
       <use x="63.623047" xlink:href="#DejaVuSans-2e"/>
       <use x="95.410156" xlink:href="#DejaVuSans-30"/>
      </g>
     </g>
    </g>
   </g>
   <g id="matplotlib.axis_2">
    <g id="ytick_1">
     <g id="line2d_6">
      <defs>
       <path d="M 0 0 
L -3.5 0 
" id="m562de74902" style="stroke:#000000;stroke-width:0.8;"/>
      </defs>
      <g>
       <use style="stroke:#000000;stroke-width:0.8;" x="57.6" xlink:href="#m562de74902" y="246.217517"/>
      </g>
     </g>
     <g id="text_6">
      <!-- 0.2 -->
      <g transform="translate(34.696875 250.016735)scale(0.1 -0.1)">
       <use xlink:href="#DejaVuSans-30"/>
       <use x="63.623047" xlink:href="#DejaVuSans-2e"/>
       <use x="95.410156" xlink:href="#DejaVuSans-32"/>
      </g>
     </g>
    </g>
    <g id="ytick_2">
     <g id="line2d_7">
      <g>
       <use style="stroke:#000000;stroke-width:0.8;" x="57.6" xlink:href="#m562de74902" y="198.424506"/>
      </g>
     </g>
     <g id="text_7">
      <!-- 0.4 -->
      <g transform="translate(34.696875 202.223724)scale(0.1 -0.1)">
       <use xlink:href="#DejaVuSans-30"/>
       <use x="63.623047" xlink:href="#DejaVuSans-2e"/>
       <use x="95.410156" xlink:href="#DejaVuSans-34"/>
      </g>
     </g>
    </g>
    <g id="ytick_3">
     <g id="line2d_8">
      <g>
       <use style="stroke:#000000;stroke-width:0.8;" x="57.6" xlink:href="#m562de74902" y="150.631494"/>
      </g>
     </g>
     <g id="text_8">
      <!-- 0.6 -->
      <g transform="translate(34.696875 154.430713)scale(0.1 -0.1)">
       <use xlink:href="#DejaVuSans-30"/>
       <use x="63.623047" xlink:href="#DejaVuSans-2e"/>
       <use x="95.410156" xlink:href="#DejaVuSans-36"/>
      </g>
     </g>
    </g>
    <g id="ytick_4">
     <g id="line2d_9">
      <g>
       <use style="stroke:#000000;stroke-width:0.8;" x="57.6" xlink:href="#m562de74902" y="102.838483"/>
      </g>
     </g>
     <g id="text_9">
      <!-- 0.8 -->
      <g transform="translate(34.696875 106.637702)scale(0.1 -0.1)">
       <use xlink:href="#DejaVuSans-30"/>
       <use x="63.623047" xlink:href="#DejaVuSans-2e"/>
       <use x="95.410156" xlink:href="#DejaVuSans-38"/>
      </g>
     </g>
    </g>
   </g>
   <g id="LineCollection_1">
    <path clip-path="url(#pf8b2f8e42d)" d="M 131.983559 293.479494 
L 131.68659 291.355361 
L 131.39282 290.293294 
L 130.882617 289.096936 
L 130.347067 288.16916 
L 129.484546 287.107093 
L 128.258003 286.045026 
L 126.418682 284.982959 
L 124.510216 284.291832 
L 122.386082 283.781488 
L 120.261948 283.503134 
L 117.075747 283.337634 
L 112.82748 283.429658 
L 105.832463 283.920892 
L 96.896476 284.600545 
L 91.586141 284.771838 
L 87.337874 284.696837 
L 84.151673 284.457212 
L 80.965472 283.987604 
L 78.841338 283.505874 
L 76.717204 282.828673 
L 74.437089 281.796758 
L 72.468937 280.540216 
L 71.40687 279.659573 
L 70.344803 278.584141 
L 68.765217 276.486424 
L 67.571581 274.36229 
L 66.644307 272.238156 
L 65.897447 270.114022 
L 65.019405 266.927822 
L 64.164617 262.679554 
L 63.539634 258.431286 
L 62.859915 252.058885 
L 62.234658 243.562349 
L 61.531271 230.817546 
L 60.664627 210.638275 
L 59.95458 188.33487 
L 59.306342 160.72113 
L 58.662067 123.185158 
L 57.983399 68.321309 
L 57.92704 56.638572 
L 57.937947 55.576506 
L 57.937947 55.576506 
" style="fill:none;stroke:#000080;stroke-width:1.5;"/>
   </g>
   <g id="LineCollection_2">
    <path clip-path="url(#pf8b2f8e42d)" d="M 286.589569 293.479494 
L 287.512054 287.107093 
L 287.480787 283.920892 
L 287.086171 278.610558 
L 286.622594 274.36229 
L 284.759982 258.431286 
L 283.251128 248.872684 
L 282.383873 244.624416 
L 281.250161 240.376149 
L 280.539214 238.252015 
L 279.571985 236.0658 
L 278.199386 234.003747 
L 277.154964 232.94168 
L 276.385784 232.363825 
L 275.323717 231.839465 
L 274.261651 231.51633 
L 272.137517 231.234782 
L 268.951316 231.232087 
L 255.144446 231.629345 
L 212.66177 232.166815 
L 193.142753 232.94168 
L 185.04803 233.143449 
L 177.613561 233.104909 
L 171.24116 232.860179 
L 163.806691 232.350564 
L 138.317086 230.323549 
L 130.882617 230.099455 
L 121.324015 230.069543 
L 106.455078 230.237941 
L 103.268877 230.561915 
L 101.144743 231.005452 
L 99.02061 231.741802 
L 97.958543 232.260594 
L 96.831762 232.94168 
L 95.462534 234.003747 
L 94.357714 235.065814 
L 93.428668 236.127881 
L 91.926811 238.252015 
L 90.732759 240.376149 
L 89.756855 242.500283 
L 88.941952 244.624416 
L 87.949097 247.810617 
L 86.918319 252.058885 
L 85.911948 256.307152 
L 85.169457 258.431286 
L 84.151673 260.152626 
L 83.790632 260.55542 
L 83.089606 261.168536 
L 82.027539 261.720774 
L 80.965472 261.926843 
L 79.903405 261.871042 
L 78.841338 261.576502 
L 77.779271 261.02982 
L 76.717204 260.2441 
L 75.655138 259.184911 
L 74.323554 257.369219 
L 73.125988 255.245086 
L 72.163215 253.120952 
L 71.01588 249.934751 
L 70.0855 246.74855 
L 68.86135 241.438216 
L 67.875642 236.127881 
L 66.752899 228.693413 
L 65.706759 220.196877 
L 64.648164 209.576208 
L 63.635236 196.831405 
L 62.636202 180.900401 
L 61.647156 160.72113 
L 60.676853 135.231524 
L 59.746155 103.369517 
L 58.766484 61.948907 
L 58.793383 56.638572 
L 58.816694 55.576506 
L 58.816694 55.576506 
" style="fill:none;stroke:#0000e8;stroke-width:1.5;"/>
   </g>
   <g id="LineCollection_3">
    <path clip-path="url(#pf8b2f8e42d)" d="M 290.327727 293.479494 
L 290.711707 287.107093 
L 290.57346 282.858825 
L 289.946992 273.300223 
L 286.787777 230.817546 
L 285.494701 219.13481 
L 284.418619 211.700342 
L 283.425305 206.390007 
L 282.378161 202.14174 
L 281.301543 198.955539 
L 280.287405 196.831405 
L 279.571985 195.694675 
L 278.509918 194.634263 
L 277.447851 194.055834 
L 276.385784 193.831 
L 275.323717 193.854898 
L 273.199584 194.331653 
L 266.827182 196.269454 
L 263.640981 196.853195 
L 260.454781 197.176707 
L 256.206513 197.352287 
L 247.709978 197.377837 
L 214.785903 197.369758 
L 176.551494 197.479723 
L 144.689487 197.874492 
L 125.572283 198.083079 
L 120.215075 197.893472 
L 116.01368 197.561183 
L 110.703346 196.90612 
L 102.154379 195.769338 
L 99.02061 195.628108 
L 96.648407 195.769338 
L 94.772342 196.085413 
L 92.648208 196.745386 
L 91.586141 197.219347 
L 89.462007 198.50252 
L 87.632144 200.017606 
L 86.275807 201.378016 
L 84.151673 203.913779 
L 78.841338 210.699149 
L 77.676977 211.700342 
L 76.717204 212.258413 
L 75.655138 212.465989 
L 74.593071 212.178754 
L 73.531004 211.309482 
L 72.381694 209.576208 
L 71.40687 207.450727 
L 70.08194 203.203807 
L 69.074292 198.955539 
L 67.908345 192.583138 
L 66.835189 185.148669 
L 65.734056 175.590067 
L 64.653631 163.907331 
L 63.548632 149.038394 
L 62.47107 130.983257 
L 61.454034 109.741918 
L 60.395069 82.128178 
L 59.646318 58.762706 
L 59.746784 55.576506 
L 59.746784 55.576506 
" style="fill:none;stroke:#0038ff;stroke-width:1.5;"/>
   </g>
   <g id="LineCollection_4">
    <path clip-path="url(#pf8b2f8e42d)" d="M 292.483126 293.479494 
L 292.59398 284.982959 
L 292.220472 276.486424 
L 290.814316 247.810617 
L 289.54177 224.445145 
L 288.537546 209.576208 
L 287.572753 197.893472 
L 286.482343 187.272803 
L 285.524759 179.838335 
L 284.484853 173.465933 
L 283.608364 169.217665 
L 282.415468 164.969398 
L 281.630707 162.845264 
L 280.432491 160.72113 
L 279.464868 159.659063 
L 278.509918 159.108225 
L 277.447851 158.980267 
L 276.385784 159.217476 
L 275.323717 159.71432 
L 273.199584 161.147733 
L 269.434868 163.907331 
L 267.703627 164.969398 
L 265.505778 166.031465 
L 263.640981 166.697189 
L 261.516848 167.211708 
L 259.392714 167.524426 
L 256.206513 167.72418 
L 251.958245 167.708811 
L 236.027242 167.380455 
L 102.20681 166.940641 
L 96.896476 166.898485 
L 93.437661 167.093532 
L 91.586141 167.334584 
L 89.462007 167.792309 
L 87.337874 168.492894 
L 85.21374 169.483227 
L 83.089606 170.775648 
L 77.644764 174.528 
L 76.717204 174.926536 
L 75.655138 175.102731 
L 74.593071 174.893334 
L 73.531004 174.182556 
L 72.244373 172.403866 
L 71.237278 170.279732 
L 70.165278 167.093532 
L 69.099288 162.845264 
L 67.893989 156.472862 
L 66.79482 149.038394 
L 65.669348 139.479792 
L 64.564308 127.797056 
L 63.507456 113.990186 
L 62.453513 96.997115 
L 60.728863 64.073041 
L 60.632884 59.824773 
L 60.791678 55.576506 
L 60.791678 55.576506 
" style="fill:none;stroke:#0094ff;stroke-width:1.5;"/>
   </g>
   <g id="LineCollection_5">
    <path clip-path="url(#pf8b2f8e42d)" d="M 294.154619 293.479494 
L 294.029669 280.734691 
L 292.50884 239.314082 
L 291.464374 214.886543 
L 290.524791 196.831405 
L 289.588621 181.962468 
L 288.608466 169.217665 
L 287.594163 158.596996 
L 286.573789 150.100461 
L 285.609617 143.728059 
L 284.580263 138.417725 
L 283.484668 134.169457 
L 282.758186 131.919269 
L 281.696119 129.587547 
L 280.634052 128.070458 
L 279.571985 127.233392 
L 278.509918 126.959058 
L 277.447851 127.145027 
L 276.257338 127.797056 
L 274.983902 128.859123 
L 273.199584 130.718962 
L 268.951316 135.525938 
L 266.827182 137.528719 
L 264.703048 139.099571 
L 262.578914 140.237275 
L 260.454781 140.988432 
L 258.330647 141.417878 
L 256.206513 141.594413 
L 254.082379 141.583049 
L 250.896178 141.336947 
L 238.151375 139.982682 
L 233.903108 139.841518 
L 227.530706 139.895119 
L 208.413502 140.255262 
L 186.110097 140.233777 
L 143.62742 140.3059 
L 90.450546 140.541859 
L 87.337874 140.885074 
L 84.151673 141.521902 
L 80.965472 142.470926 
L 77.779271 143.433371 
L 76.717204 143.599592 
L 75.655138 143.584004 
L 74.593071 143.296287 
L 73.531004 142.626205 
L 72.468937 141.450275 
L 71.347767 139.479792 
L 70.136356 136.293591 
L 68.979441 132.045323 
L 67.889146 126.734989 
L 66.864189 120.362587 
L 65.667482 110.803985 
L 64.613384 100.183316 
L 63.505501 86.376446 
L 61.834636 61.948907 
L 61.848268 58.706478 
L 62.08149 55.576506 
L 62.08149 55.576506 
" style="fill:none;stroke:#0cf4eb;stroke-width:1.5;"/>
   </g>
   <g id="LineCollection_6">
    <path clip-path="url(#pf8b2f8e42d)" d="M 295.714661 293.479494 
L 295.51738 280.734691 
L 295.270092 271.176089 
L 293.941585 226.569279 
L 292.882762 197.893472 
L 291.855775 175.590067 
L 290.809426 157.534929 
L 289.796207 143.728059 
L 288.811825 133.10739 
L 287.668662 123.548788 
L 286.691829 117.176387 
L 285.656009 111.866052 
L 284.578168 107.617784 
L 283.499397 104.431584 
L 282.526894 102.30745 
L 281.696119 100.944216 
L 280.634052 99.842649 
L 279.571985 99.295579 
L 278.509918 99.22972 
L 277.447851 99.579437 
L 276.385784 100.28413 
L 275.323717 101.273984 
L 273.199584 103.827361 
L 267.889249 110.886942 
L 265.765115 113.23125 
L 263.640981 115.114302 
L 261.516848 116.514263 
L 259.392714 117.45494 
L 257.26858 117.988931 
L 255.144446 118.183427 
L 253.020312 118.11187 
L 249.834112 117.661735 
L 244.523777 116.507002 
L 239.213442 115.416685 
L 234.965175 114.799001 
L 230.716907 114.437567 
L 226.468639 114.293631 
L 221.158305 114.33042 
L 210.537636 114.704207 
L 195.668699 115.17987 
L 179.737695 115.451131 
L 154.248089 115.623828 
L 113.889546 115.941957 
L 89.462007 116.317297 
L 84.151673 116.63813 
L 77.779271 117.087967 
L 76.717204 117.008452 
L 75.655138 116.78762 
L 74.246231 116.11432 
L 73.531004 115.616306 
L 72.18179 113.990186 
L 71.40687 112.73189 
L 70.177518 109.741918 
L 68.955107 105.493651 
L 68.020087 101.245383 
L 66.791465 93.810914 
L 65.700731 85.314379 
L 64.253681 71.507509 
L 63.679522 65.135108 
L 63.499311 60.88684 
L 63.586978 58.762706 
L 63.856023 55.576506 
L 63.856023 55.576506 
" style="fill:none;stroke:#56ffa0;stroke-width:1.5;"/>
   </g>
   <g id="LineCollection_7">
    <path clip-path="url(#pf8b2f8e42d)" d="M 301.176695 293.479494 
L 301.06852 287.107093 
L 300.749864 280.734691 
L 300.152511 273.300223 
L 298.952871 261.617487 
L 296.841156 243.562349 
L 296.5257 240.376149 
L 295.082463 203.203807 
L 294.080945 174.528 
L 293.093777 152.224595 
L 292.064328 134.169457 
L 291.040633 120.362587 
L 289.916158 108.679851 
L 288.870632 100.183316 
L 287.860809 93.810914 
L 286.724486 88.50058 
L 285.821519 85.314379 
L 284.592473 82.128178 
L 283.483845 80.004045 
L 282.758186 78.872949 
L 281.696119 77.598297 
L 280.634052 76.624718 
L 279.294925 75.755777 
L 278.509918 75.380431 
L 277.447851 75.029029 
L 276.385784 74.821999 
L 275.323717 74.751119 
L 274.261651 74.8086 
L 272.137517 75.275004 
L 270.871561 75.755777 
L 268.951316 76.829312 
L 267.589836 77.879911 
L 266.479852 78.941978 
L 264.753666 81.066112 
L 263.425489 83.190245 
L 261.232318 87.438513 
L 260.068173 89.562647 
L 258.616343 91.686781 
L 257.681433 92.748848 
L 256.511118 93.810914 
L 255.144446 94.754748 
L 254.082379 95.306918 
L 251.958245 96.083819 
L 249.834112 96.531699 
L 247.709978 96.7625 
L 244.523777 96.83639 
L 240.275509 96.631821 
L 234.965175 96.129243 
L 224.344506 94.840441 
L 213.723836 93.638862 
L 206.289368 93.032557 
L 198.8549 92.66569 
L 190.358364 92.487928 
L 172.303227 92.432213 
L 157.43429 92.26125 
L 140.441219 91.826837 
L 111.765413 90.829267 
L 79.595829 89.562647 
L 77.779271 89.285732 
L 76.717204 89.009391 
L 75.479814 88.50058 
L 74.593071 87.988012 
L 73.531004 87.093185 
L 72.190933 85.314379 
L 71.40687 83.957278 
L 70.249173 81.066112 
L 69.049516 76.817844 
L 67.942693 71.507509 
L 67.107979 66.197175 
L 66.890109 63.010974 
L 66.927467 60.88684 
L 67.16807 58.762706 
L 67.546595 56.638572 
L 67.552651 55.576506 
L 67.552651 55.576506 
" style="fill:none;stroke:#a0ff56;stroke-width:1.5;"/>
   </g>
   <g id="LineCollection_8">
    <path clip-path="url(#pf8b2f8e42d)" d="M 308.620147 293.479494 
L 308.478602 284.982959 
L 308.098189 276.486424 
L 307.368314 265.865755 
L 306.123658 251.491366 
L 304.390871 234.003747 
L 302.396512 215.94861 
L 300.305145 198.955539 
L 298.267961 184.086602 
L 296.487022 171.341799 
L 294.941479 140.541859 
L 294.040191 122.486721 
L 293.08821 107.617784 
L 292.127709 95.935048 
L 291.254721 88.122609 
L 290.472394 83.190245 
L 289.804095 80.004045 
L 288.927864 76.817844 
L 288.06852 74.465769 
L 287.006454 72.301558 
L 285.750489 70.445442 
L 284.803343 69.383375 
L 283.550385 68.321309 
L 281.696119 67.208978 
L 279.571985 66.414719 
L 277.447851 65.94693 
L 275.323717 65.714115 
L 273.199584 65.657454 
L 270.013383 65.83193 
L 266.827182 66.259502 
L 263.640981 66.886445 
L 259.392714 67.969987 
L 245.585844 71.869025 
L 242.399643 72.428392 
L 239.213442 72.731718 
L 236.027242 72.760464 
L 232.841041 72.524131 
L 229.65484 72.026688 
L 226.468639 71.327057 
L 222.220372 70.105169 
L 217.972104 68.627151 
L 214.51871 67.259242 
L 210.033926 65.135108 
L 207.351435 63.501933 
L 206.289368 62.731557 
L 205.227301 61.821528 
L 204.165234 60.622226 
L 203.609858 59.824773 
L 203.095202 58.762706 
L 202.760689 57.700639 
L 202.418261 55.576506 
L 202.418261 55.576506 
" style="fill:none;stroke:#ebff0c;stroke-width:1.5;"/>
   </g>
   <g id="LineCollection_9">
    <path clip-path="url(#pf8b2f8e42d)" d="M 316.257848 293.479494 
L 316.13527 283.920892 
L 315.760834 273.300223 
L 315.064182 260.55542 
L 313.885064 243.562349 
L 312.25492 223.383078 
L 310.498381 204.265874 
L 308.617045 186.210736 
L 306.729185 170.279732 
L 304.868817 156.472862 
L 303.085724 144.790126 
L 301.25421 134.169457 
L 299.392217 124.610855 
L 297.52966 116.11432 
L 296.547617 111.866052 
L 293.906197 81.066112 
L 293.293541 76.817844 
L 292.4241 72.569576 
L 291.81959 70.445442 
L 291.030817 68.321309 
L 289.925791 66.197175 
L 289.130587 65.04936 
L 288.06852 63.851852 
L 287.006454 62.902944 
L 284.88232 61.430108 
L 279.571985 58.409111 
L 278.509918 57.453083 
L 277.972869 56.638572 
L 277.764614 55.576506 
L 277.764614 55.576506 
" style="fill:none;stroke:#ffab00;stroke-width:1.5;"/>
   </g>
   <g id="LineCollection_10">
    <path clip-path="url(#pf8b2f8e42d)" d="M 324.038459 293.479494 
L 323.920617 281.796758 
L 323.569249 269.051955 
L 322.897341 253.120952 
L 321.772534 231.879613 
L 320.379698 209.576208 
L 318.836341 188.33487 
L 317.31461 170.279732 
L 315.75546 154.348729 
L 314.184763 140.541859 
L 312.646518 128.859123 
L 311.035706 118.238454 
L 309.309859 108.368041 
L 307.666396 100.183316 
L 305.953987 92.748848 
L 304.261823 86.376446 
L 302.633208 81.066112 
L 300.813323 75.98964 
L 299.378814 72.569576 
L 297.627123 69.031612 
L 296.565056 67.222601 
L 295.740376 64.073041 
L 295.440274 63.010974 
L 293.801064 55.576506 
L 293.801064 55.576506 
" style="fill:none;stroke:#ff5500;stroke-width:1.5;"/>
   </g>
   <g id="LineCollection_11">
    <path clip-path="url(#pf8b2f8e42d)" d="M 331.916201 293.479494 
L 331.794112 277.548491 
L 331.414662 259.493353 
L 330.551197 230.946311 
L 329.579106 205.327941 
L 328.359768 178.776268 
L 327.175468 157.534929 
L 325.956184 139.479792 
L 324.74022 124.610855 
L 323.382348 110.803985 
L 322.022192 99.121249 
L 320.449202 87.438513 
L 317.659178 67.259242 
L 317.181851 61.948907 
L 316.99205 57.700639 
L 316.972532 55.576506 
L 316.972532 55.576506 
" style="fill:none;stroke:#e80000;stroke-width:1.5;"/>
   </g>
   <g id="LineCollection_12">
    <path clip-path="url(#pf8b2f8e42d)" d="M 339.850444 293.479494 
L 339.736039 266.927822 
L 338.80104 187.272803 
L 337.982646 143.728059 
L 337.330863 119.30052 
L 336.263699 90.624714 
L 335.357451 68.321309 
L 335.179204 57.700639 
L 335.175027 55.576506 
L 335.175027 55.576506 
" style="fill:none;stroke:#800000;stroke-width:1.5;"/>
   </g>
   <g id="patch_3">
    <path d="M 57.6 293.479494 
L 57.6 55.576506 
" style="fill:none;stroke:#000000;stroke-linecap:square;stroke-linejoin:miter;stroke-width:0.8;"/>
   </g>
   <g id="patch_4">
    <path d="M 343.296 293.479494 
L 343.296 55.576506 
" style="fill:none;stroke:#000000;stroke-linecap:square;stroke-linejoin:miter;stroke-width:0.8;"/>
   </g>
   <g id="patch_5">
    <path d="M 57.6 293.479494 
L 343.296 293.479494 
" style="fill:none;stroke:#000000;stroke-linecap:square;stroke-linejoin:miter;stroke-width:0.8;"/>
   </g>
   <g id="patch_6">
    <path d="M 57.6 55.576506 
L 343.296 55.576506 
" style="fill:none;stroke:#000000;stroke-linecap:square;stroke-linejoin:miter;stroke-width:0.8;"/>
   </g>
   <g id="text_10">
    <!-- Time:0.08560 s -->
    <defs>
     <path d="M -0.296875 72.90625 
L 61.375 72.90625 
L 61.375 64.59375 
L 35.5 64.59375 
L 35.5 0 
L 25.59375 0 
L 25.59375 64.59375 
L -0.296875 64.59375 
z
" id="DejaVuSans-54"/>
     <path d="M 9.421875 54.6875 
L 18.40625 54.6875 
L 18.40625 0 
L 9.421875 0 
z
M 9.421875 75.984375 
L 18.40625 75.984375 
L 18.40625 64.59375 
L 9.421875 64.59375 
z
" id="DejaVuSans-69"/>
     <path d="M 52 44.1875 
Q 55.375 50.25 60.0625 53.125 
Q 64.75 56 71.09375 56 
Q 79.640625 56 84.28125 50.015625 
Q 88.921875 44.046875 88.921875 33.015625 
L 88.921875 0 
L 79.890625 0 
L 79.890625 32.71875 
Q 79.890625 40.578125 77.09375 44.375 
Q 74.3125 48.1875 68.609375 48.1875 
Q 61.625 48.1875 57.5625 43.546875 
Q 53.515625 38.921875 53.515625 30.90625 
L 53.515625 0 
L 44.484375 0 
L 44.484375 32.71875 
Q 44.484375 40.625 41.703125 44.40625 
Q 38.921875 48.1875 33.109375 48.1875 
Q 26.21875 48.1875 22.15625 43.53125 
Q 18.109375 38.875 18.109375 30.90625 
L 18.109375 0 
L 9.078125 0 
L 9.078125 54.6875 
L 18.109375 54.6875 
L 18.109375 46.1875 
Q 21.1875 51.21875 25.484375 53.609375 
Q 29.78125 56 35.6875 56 
Q 41.65625 56 45.828125 52.96875 
Q 50 49.953125 52 44.1875 
z
" id="DejaVuSans-6d"/>
     <path d="M 56.203125 29.59375 
L 56.203125 25.203125 
L 14.890625 25.203125 
Q 15.484375 15.921875 20.484375 11.0625 
Q 25.484375 6.203125 34.421875 6.203125 
Q 39.59375 6.203125 44.453125 7.46875 
Q 49.3125 8.734375 54.109375 11.28125 
L 54.109375 2.78125 
Q 49.265625 0.734375 44.1875 -0.34375 
Q 39.109375 -1.421875 33.890625 -1.421875 
Q 20.796875 -1.421875 13.15625 6.1875 
Q 5.515625 13.8125 5.515625 26.8125 
Q 5.515625 40.234375 12.765625 48.109375 
Q 20.015625 56 32.328125 56 
Q 43.359375 56 49.78125 48.890625 
Q 56.203125 41.796875 56.203125 29.59375 
z
M 47.21875 32.234375 
Q 47.125 39.59375 43.09375 43.984375 
Q 39.0625 48.390625 32.421875 48.390625 
Q 24.90625 48.390625 20.390625 44.140625 
Q 15.875 39.890625 15.1875 32.171875 
z
" id="DejaVuSans-65"/>
     <path d="M 11.71875 12.40625 
L 22.015625 12.40625 
L 22.015625 0 
L 11.71875 0 
z
M 11.71875 51.703125 
L 22.015625 51.703125 
L 22.015625 39.3125 
L 11.71875 39.3125 
z
" id="DejaVuSans-3a"/>
     <path d="M 10.796875 72.90625 
L 49.515625 72.90625 
L 49.515625 64.59375 
L 19.828125 64.59375 
L 19.828125 46.734375 
Q 21.96875 47.46875 24.109375 47.828125 
Q 26.265625 48.1875 28.421875 48.1875 
Q 40.625 48.1875 47.75 41.5 
Q 54.890625 34.8125 54.890625 23.390625 
Q 54.890625 11.625 47.5625 5.09375 
Q 40.234375 -1.421875 26.90625 -1.421875 
Q 22.3125 -1.421875 17.546875 -0.640625 
Q 12.796875 0.140625 7.71875 1.703125 
L 7.71875 11.625 
Q 12.109375 9.234375 16.796875 8.0625 
Q 21.484375 6.890625 26.703125 6.890625 
Q 35.15625 6.890625 40.078125 11.328125 
Q 45.015625 15.765625 45.015625 23.390625 
Q 45.015625 31 40.078125 35.4375 
Q 35.15625 39.890625 26.703125 39.890625 
Q 22.75 39.890625 18.8125 39.015625 
Q 14.890625 38.140625 10.796875 36.28125 
z
" id="DejaVuSans-35"/>
     <path id="DejaVuSans-20"/>
     <path d="M 44.28125 53.078125 
L 44.28125 44.578125 
Q 40.484375 46.53125 36.375 47.5 
Q 32.28125 48.484375 27.875 48.484375 
Q 21.1875 48.484375 17.84375 46.4375 
Q 14.5 44.390625 14.5 40.28125 
Q 14.5 37.15625 16.890625 35.375 
Q 19.28125 33.59375 26.515625 31.984375 
L 29.59375 31.296875 
Q 39.15625 29.25 43.1875 25.515625 
Q 47.21875 21.78125 47.21875 15.09375 
Q 47.21875 7.46875 41.1875 3.015625 
Q 35.15625 -1.421875 24.609375 -1.421875 
Q 20.21875 -1.421875 15.453125 -0.5625 
Q 10.6875 0.296875 5.421875 2 
L 5.421875 11.28125 
Q 10.40625 8.6875 15.234375 7.390625 
Q 20.0625 6.109375 24.8125 6.109375 
Q 31.15625 6.109375 34.5625 8.28125 
Q 37.984375 10.453125 37.984375 14.40625 
Q 37.984375 18.0625 35.515625 20.015625 
Q 33.0625 21.96875 24.703125 23.78125 
L 21.578125 24.515625 
Q 13.234375 26.265625 9.515625 29.90625 
Q 5.8125 33.546875 5.8125 39.890625 
Q 5.8125 47.609375 11.28125 51.796875 
Q 16.75 56 26.8125 56 
Q 31.78125 56 36.171875 55.265625 
Q 40.578125 54.546875 44.28125 53.078125 
z
" id="DejaVuSans-73"/>
    </defs>
    <g transform="translate(153.717375 49.576506)scale(0.12 -0.12)">
     <use xlink:href="#DejaVuSans-54"/>
     <use x="61.037109" xlink:href="#DejaVuSans-69"/>
     <use x="88.820312" xlink:href="#DejaVuSans-6d"/>
     <use x="186.232422" xlink:href="#DejaVuSans-65"/>
     <use x="247.755859" xlink:href="#DejaVuSans-3a"/>
     <use x="281.447266" xlink:href="#DejaVuSans-30"/>
     <use x="345.070312" xlink:href="#DejaVuSans-2e"/>
     <use x="376.857422" xlink:href="#DejaVuSans-30"/>
     <use x="440.480469" xlink:href="#DejaVuSans-38"/>
     <use x="504.103516" xlink:href="#DejaVuSans-35"/>
     <use x="567.726562" xlink:href="#DejaVuSans-36"/>
     <use x="631.349609" xlink:href="#DejaVuSans-30"/>
     <use x="694.972656" xlink:href="#DejaVuSans-20"/>
     <use x="726.759766" xlink:href="#DejaVuSans-73"/>
    </g>
   </g>
  </g>
  <g id="axes_2">
   <g id="patch_7">
    <path clip-path="url(#p20c0d0636c)" d="M 361.152 307.584 
L 361.152 283.392 
L 361.152 65.664 
L 361.152 41.472 
L 374.4576 41.472 
L 374.4576 65.664 
L 374.4576 283.392 
L 374.4576 307.584 
z
" style="fill:#ffffff;stroke:#ffffff;stroke-linejoin:miter;stroke-width:0.01;"/>
   </g>
   <g id="matplotlib.axis_3"/>
   <g id="matplotlib.axis_4">
    <g id="ytick_5">
     <g id="line2d_10">
      <defs>
       <path d="M 0 0 
L 3.5 0 
" id="mbe8794186a" style="stroke:#000000;stroke-width:0.8;"/>
      </defs>
      <g>
       <use style="stroke:#000000;stroke-width:0.8;" x="374.4576" xlink:href="#mbe8794186a" y="307.584"/>
      </g>
     </g>
     <g id="text_11">
      <!-- 0.08 -->
      <g transform="translate(381.4576 311.383219)scale(0.1 -0.1)">
       <use xlink:href="#DejaVuSans-30"/>
       <use x="63.623047" xlink:href="#DejaVuSans-2e"/>
       <use x="95.410156" xlink:href="#DejaVuSans-30"/>
       <use x="159.033203" xlink:href="#DejaVuSans-38"/>
      </g>
     </g>
    </g>
    <g id="ytick_6">
     <g id="line2d_11">
      <g>
       <use style="stroke:#000000;stroke-width:0.8;" x="374.4576" xlink:href="#mbe8794186a" y="259.2"/>
      </g>
     </g>
     <g id="text_12">
      <!-- 0.24 -->
      <g transform="translate(381.4576 262.999219)scale(0.1 -0.1)">
       <use xlink:href="#DejaVuSans-30"/>
       <use x="63.623047" xlink:href="#DejaVuSans-2e"/>
       <use x="95.410156" xlink:href="#DejaVuSans-32"/>
       <use x="159.033203" xlink:href="#DejaVuSans-34"/>
      </g>
     </g>
    </g>
    <g id="ytick_7">
     <g id="line2d_12">
      <g>
       <use style="stroke:#000000;stroke-width:0.8;" x="374.4576" xlink:href="#mbe8794186a" y="210.816"/>
      </g>
     </g>
     <g id="text_13">
      <!-- 0.40 -->
      <g transform="translate(381.4576 214.615219)scale(0.1 -0.1)">
       <use xlink:href="#DejaVuSans-30"/>
       <use x="63.623047" xlink:href="#DejaVuSans-2e"/>
       <use x="95.410156" xlink:href="#DejaVuSans-34"/>
       <use x="159.033203" xlink:href="#DejaVuSans-30"/>
      </g>
     </g>
    </g>
    <g id="ytick_8">
     <g id="line2d_13">
      <g>
       <use style="stroke:#000000;stroke-width:0.8;" x="374.4576" xlink:href="#mbe8794186a" y="162.432"/>
      </g>
     </g>
     <g id="text_14">
      <!-- 0.56 -->
      <g transform="translate(381.4576 166.231219)scale(0.1 -0.1)">
       <use xlink:href="#DejaVuSans-30"/>
       <use x="63.623047" xlink:href="#DejaVuSans-2e"/>
       <use x="95.410156" xlink:href="#DejaVuSans-35"/>
       <use x="159.033203" xlink:href="#DejaVuSans-36"/>
      </g>
     </g>
    </g>
    <g id="ytick_9">
     <g id="line2d_14">
      <g>
       <use style="stroke:#000000;stroke-width:0.8;" x="374.4576" xlink:href="#mbe8794186a" y="114.048"/>
      </g>
     </g>
     <g id="text_15">
      <!-- 0.72 -->
      <defs>
       <path d="M 8.203125 72.90625 
L 55.078125 72.90625 
L 55.078125 68.703125 
L 28.609375 0 
L 18.3125 0 
L 43.21875 64.59375 
L 8.203125 64.59375 
z
" id="DejaVuSans-37"/>
      </defs>
      <g transform="translate(381.4576 117.847219)scale(0.1 -0.1)">
       <use xlink:href="#DejaVuSans-30"/>
       <use x="63.623047" xlink:href="#DejaVuSans-2e"/>
       <use x="95.410156" xlink:href="#DejaVuSans-37"/>
       <use x="159.033203" xlink:href="#DejaVuSans-32"/>
      </g>
     </g>
    </g>
    <g id="ytick_10">
     <g id="line2d_15">
      <g>
       <use style="stroke:#000000;stroke-width:0.8;" x="374.4576" xlink:href="#mbe8794186a" y="65.664"/>
      </g>
     </g>
     <g id="text_16">
      <!-- 0.88 -->
      <g transform="translate(381.4576 69.463219)scale(0.1 -0.1)">
       <use xlink:href="#DejaVuSans-30"/>
       <use x="63.623047" xlink:href="#DejaVuSans-2e"/>
       <use x="95.410156" xlink:href="#DejaVuSans-38"/>
       <use x="159.033203" xlink:href="#DejaVuSans-38"/>
      </g>
     </g>
    </g>
   </g>
   <g id="LineCollection_13">
    <path clip-path="url(#p20c0d0636c)" d="M 361.152 307.584 
L 374.4576 307.584 
" style="fill:none;stroke:#000080;stroke-width:1.5;"/>
    <path clip-path="url(#p20c0d0636c)" d="M 361.152 283.392 
L 374.4576 283.392 
" style="fill:none;stroke:#0000e8;stroke-width:1.5;"/>
    <path clip-path="url(#p20c0d0636c)" d="M 361.152 259.2 
L 374.4576 259.2 
" style="fill:none;stroke:#0038ff;stroke-width:1.5;"/>
    <path clip-path="url(#p20c0d0636c)" d="M 361.152 235.008 
L 374.4576 235.008 
" style="fill:none;stroke:#0094ff;stroke-width:1.5;"/>
    <path clip-path="url(#p20c0d0636c)" d="M 361.152 210.816 
L 374.4576 210.816 
" style="fill:none;stroke:#0cf4eb;stroke-width:1.5;"/>
    <path clip-path="url(#p20c0d0636c)" d="M 361.152 186.624 
L 374.4576 186.624 
" style="fill:none;stroke:#56ffa0;stroke-width:1.5;"/>
    <path clip-path="url(#p20c0d0636c)" d="M 361.152 162.432 
L 374.4576 162.432 
" style="fill:none;stroke:#a0ff56;stroke-width:1.5;"/>
    <path clip-path="url(#p20c0d0636c)" d="M 361.152 138.24 
L 374.4576 138.24 
" style="fill:none;stroke:#ebff0c;stroke-width:1.5;"/>
    <path clip-path="url(#p20c0d0636c)" d="M 361.152 114.048 
L 374.4576 114.048 
" style="fill:none;stroke:#ffab00;stroke-width:1.5;"/>
    <path clip-path="url(#p20c0d0636c)" d="M 361.152 89.856 
L 374.4576 89.856 
" style="fill:none;stroke:#ff5500;stroke-width:1.5;"/>
    <path clip-path="url(#p20c0d0636c)" d="M 361.152 65.664 
L 374.4576 65.664 
" style="fill:none;stroke:#e80000;stroke-width:1.5;"/>
    <path clip-path="url(#p20c0d0636c)" d="M 361.152 41.472 
L 374.4576 41.472 
" style="fill:none;stroke:#800000;stroke-width:1.5;"/>
   </g>
   <g id="patch_8">
    <path d="M 361.152 307.584 
L 361.152 283.392 
L 361.152 65.664 
L 361.152 41.472 
L 374.4576 41.472 
L 374.4576 65.664 
L 374.4576 283.392 
L 374.4576 307.584 
z
" style="fill:none;stroke:#000000;stroke-linejoin:miter;stroke-width:0.8;"/>
   </g>
  </g>
 </g>
 <defs>
  <clipPath id="pf8b2f8e42d">
   <rect height="237.902989" width="285.696" x="57.6" y="55.576506"/>
  </clipPath>
  <clipPath id="p20c0d0636c">
   <rect height="266.112" width="13.3056" x="361.152" y="41.472"/>
  </clipPath>
 </defs>
</svg>
