<?xml version="1.0" encoding="utf-8" standalone="no"?>
<!DOCTYPE svg PUBLIC "-//W3C//DTD SVG 1.1//EN"
  "http://www.w3.org/Graphics/SVG/1.1/DTD/svg11.dtd">
<!-- Created with matplotlib (http://matplotlib.org/) -->
<svg height="345.6pt" version="1.1" viewBox="0 0 460.8 345.6" width="460.8pt" xmlns="http://www.w3.org/2000/svg" xmlns:xlink="http://www.w3.org/1999/xlink">
 <defs>
  <style type="text/css">
*{stroke-linecap:butt;stroke-linejoin:round;}
  </style>
 </defs>
 <g id="figure_1">
  <g id="patch_1">
   <path d="M 0 345.6 
L 460.8 345.6 
L 460.8 0 
L 0 0 
z
" style="fill:#ffffff;"/>
  </g>
  <g id="axes_1">
   <g id="patch_2">
    <path d="M 57.6 293.479494 
L 343.296 293.479494 
L 343.296 55.576506 
L 57.6 55.576506 
z
" style="fill:#ffffff;"/>
   </g>
   <g id="matplotlib.axis_1">
    <g id="xtick_1">
     <g id="line2d_1">
      <defs>
       <path d="M 0 0 
L 0 3.5 
" id="mb642193d6c" style="stroke:#000000;stroke-width:0.8;"/>
      </defs>
      <g>
       <use style="stroke:#000000;stroke-width:0.8;" x="104.861978" xlink:href="#mb642193d6c" y="293.479494"/>
      </g>
     </g>
     <g id="text_1">
      <!-- 0.2 -->
      <defs>
       <path d="M 31.78125 66.40625 
Q 24.171875 66.40625 20.328125 58.90625 
Q 16.5 51.421875 16.5 36.375 
Q 16.5 21.390625 20.328125 13.890625 
Q 24.171875 6.390625 31.78125 6.390625 
Q 39.453125 6.390625 43.28125 13.890625 
Q 47.125 21.390625 47.125 36.375 
Q 47.125 51.421875 43.28125 58.90625 
Q 39.453125 66.40625 31.78125 66.40625 
z
M 31.78125 74.21875 
Q 44.046875 74.21875 50.515625 64.515625 
Q 56.984375 54.828125 56.984375 36.375 
Q 56.984375 17.96875 50.515625 8.265625 
Q 44.046875 -1.421875 31.78125 -1.421875 
Q 19.53125 -1.421875 13.0625 8.265625 
Q 6.59375 17.96875 6.59375 36.375 
Q 6.59375 54.828125 13.0625 64.515625 
Q 19.53125 74.21875 31.78125 74.21875 
z
" id="DejaVuSans-30"/>
       <path d="M 10.6875 12.40625 
L 21 12.40625 
L 21 0 
L 10.6875 0 
z
" id="DejaVuSans-2e"/>
       <path d="M 19.1875 8.296875 
L 53.609375 8.296875 
L 53.609375 0 
L 7.328125 0 
L 7.328125 8.296875 
Q 12.9375 14.109375 22.625 23.890625 
Q 32.328125 33.6875 34.8125 36.53125 
Q 39.546875 41.84375 41.421875 45.53125 
Q 43.3125 49.21875 43.3125 52.78125 
Q 43.3125 58.59375 39.234375 62.25 
Q 35.15625 65.921875 28.609375 65.921875 
Q 23.96875 65.921875 18.8125 64.3125 
Q 13.671875 62.703125 7.8125 59.421875 
L 7.8125 69.390625 
Q 13.765625 71.78125 18.9375 73 
Q 24.125 74.21875 28.421875 74.21875 
Q 39.75 74.21875 46.484375 68.546875 
Q 53.21875 62.890625 53.21875 53.421875 
Q 53.21875 48.921875 51.53125 44.890625 
Q 49.859375 40.875 45.40625 35.40625 
Q 44.1875 33.984375 37.640625 27.21875 
Q 31.109375 20.453125 19.1875 8.296875 
z
" id="DejaVuSans-32"/>
      </defs>
      <g transform="translate(96.910415 308.077932)scale(0.1 -0.1)">
       <use xlink:href="#DejaVuSans-30"/>
       <use x="63.623047" xlink:href="#DejaVuSans-2e"/>
       <use x="95.410156" xlink:href="#DejaVuSans-32"/>
      </g>
     </g>
    </g>
    <g id="xtick_2">
     <g id="line2d_2">
      <g>
       <use style="stroke:#000000;stroke-width:0.8;" x="152.654989" xlink:href="#mb642193d6c" y="293.479494"/>
      </g>
     </g>
     <g id="text_2">
      <!-- 0.4 -->
      <defs>
       <path d="M 37.796875 64.3125 
L 12.890625 25.390625 
L 37.796875 25.390625 
z
M 35.203125 72.90625 
L 47.609375 72.90625 
L 47.609375 25.390625 
L 58.015625 25.390625 
L 58.015625 17.1875 
L 47.609375 17.1875 
L 47.609375 0 
L 37.796875 0 
L 37.796875 17.1875 
L 4.890625 17.1875 
L 4.890625 26.703125 
z
" id="DejaVuSans-34"/>
      </defs>
      <g transform="translate(144.703426 308.077932)scale(0.1 -0.1)">
       <use xlink:href="#DejaVuSans-30"/>
       <use x="63.623047" xlink:href="#DejaVuSans-2e"/>
       <use x="95.410156" xlink:href="#DejaVuSans-34"/>
      </g>
     </g>
    </g>
    <g id="xtick_3">
     <g id="line2d_3">
      <g>
       <use style="stroke:#000000;stroke-width:0.8;" x="200.448" xlink:href="#mb642193d6c" y="293.479494"/>
      </g>
     </g>
     <g id="text_3">
      <!-- 0.6 -->
      <defs>
       <path d="M 33.015625 40.375 
Q 26.375 40.375 22.484375 35.828125 
Q 18.609375 31.296875 18.609375 23.390625 
Q 18.609375 15.53125 22.484375 10.953125 
Q 26.375 6.390625 33.015625 6.390625 
Q 39.65625 6.390625 43.53125 10.953125 
Q 47.40625 15.53125 47.40625 23.390625 
Q 47.40625 31.296875 43.53125 35.828125 
Q 39.65625 40.375 33.015625 40.375 
z
M 52.59375 71.296875 
L 52.59375 62.3125 
Q 48.875 64.0625 45.09375 64.984375 
Q 41.3125 65.921875 37.59375 65.921875 
Q 27.828125 65.921875 22.671875 59.328125 
Q 17.53125 52.734375 16.796875 39.40625 
Q 19.671875 43.65625 24.015625 45.921875 
Q 28.375 48.1875 33.59375 48.1875 
Q 44.578125 48.1875 50.953125 41.515625 
Q 57.328125 34.859375 57.328125 23.390625 
Q 57.328125 12.15625 50.6875 5.359375 
Q 44.046875 -1.421875 33.015625 -1.421875 
Q 20.359375 -1.421875 13.671875 8.265625 
Q 6.984375 17.96875 6.984375 36.375 
Q 6.984375 53.65625 15.1875 63.9375 
Q 23.390625 74.21875 37.203125 74.21875 
Q 40.921875 74.21875 44.703125 73.484375 
Q 48.484375 72.75 52.59375 71.296875 
z
" id="DejaVuSans-36"/>
      </defs>
      <g transform="translate(192.496438 308.077932)scale(0.1 -0.1)">
       <use xlink:href="#DejaVuSans-30"/>
       <use x="63.623047" xlink:href="#DejaVuSans-2e"/>
       <use x="95.410156" xlink:href="#DejaVuSans-36"/>
      </g>
     </g>
    </g>
    <g id="xtick_4">
     <g id="line2d_4">
      <g>
       <use style="stroke:#000000;stroke-width:0.8;" x="248.241011" xlink:href="#mb642193d6c" y="293.479494"/>
      </g>
     </g>
     <g id="text_4">
      <!-- 0.8 -->
      <defs>
       <path d="M 31.78125 34.625 
Q 24.75 34.625 20.71875 30.859375 
Q 16.703125 27.09375 16.703125 20.515625 
Q 16.703125 13.921875 20.71875 10.15625 
Q 24.75 6.390625 31.78125 6.390625 
Q 38.8125 6.390625 42.859375 10.171875 
Q 46.921875 13.96875 46.921875 20.515625 
Q 46.921875 27.09375 42.890625 30.859375 
Q 38.875 34.625 31.78125 34.625 
z
M 21.921875 38.8125 
Q 15.578125 40.375 12.03125 44.71875 
Q 8.5 49.078125 8.5 55.328125 
Q 8.5 64.0625 14.71875 69.140625 
Q 20.953125 74.21875 31.78125 74.21875 
Q 42.671875 74.21875 48.875 69.140625 
Q 55.078125 64.0625 55.078125 55.328125 
Q 55.078125 49.078125 51.53125 44.71875 
Q 48 40.375 41.703125 38.8125 
Q 48.828125 37.15625 52.796875 32.3125 
Q 56.78125 27.484375 56.78125 20.515625 
Q 56.78125 9.90625 50.3125 4.234375 
Q 43.84375 -1.421875 31.78125 -1.421875 
Q 19.734375 -1.421875 13.25 4.234375 
Q 6.78125 9.90625 6.78125 20.515625 
Q 6.78125 27.484375 10.78125 32.3125 
Q 14.796875 37.15625 21.921875 38.8125 
z
M 18.3125 54.390625 
Q 18.3125 48.734375 21.84375 45.5625 
Q 25.390625 42.390625 31.78125 42.390625 
Q 38.140625 42.390625 41.71875 45.5625 
Q 45.3125 48.734375 45.3125 54.390625 
Q 45.3125 60.0625 41.71875 63.234375 
Q 38.140625 66.40625 31.78125 66.40625 
Q 25.390625 66.40625 21.84375 63.234375 
Q 18.3125 60.0625 18.3125 54.390625 
z
" id="DejaVuSans-38"/>
      </defs>
      <g transform="translate(240.289449 308.077932)scale(0.1 -0.1)">
       <use xlink:href="#DejaVuSans-30"/>
       <use x="63.623047" xlink:href="#DejaVuSans-2e"/>
       <use x="95.410156" xlink:href="#DejaVuSans-38"/>
      </g>
     </g>
    </g>
    <g id="xtick_5">
     <g id="line2d_5">
      <g>
       <use style="stroke:#000000;stroke-width:0.8;" x="296.034022" xlink:href="#mb642193d6c" y="293.479494"/>
      </g>
     </g>
     <g id="text_5">
      <!-- 1.0 -->
      <defs>
       <path d="M 12.40625 8.296875 
L 28.515625 8.296875 
L 28.515625 63.921875 
L 10.984375 60.40625 
L 10.984375 69.390625 
L 28.421875 72.90625 
L 38.28125 72.90625 
L 38.28125 8.296875 
L 54.390625 8.296875 
L 54.390625 0 
L 12.40625 0 
z
" id="DejaVuSans-31"/>
      </defs>
      <g transform="translate(288.08246 308.077932)scale(0.1 -0.1)">
       <use xlink:href="#DejaVuSans-31"/>
       <use x="63.623047" xlink:href="#DejaVuSans-2e"/>
       <use x="95.410156" xlink:href="#DejaVuSans-30"/>
      </g>
     </g>
    </g>
   </g>
   <g id="matplotlib.axis_2">
    <g id="ytick_1">
     <g id="line2d_6">
      <defs>
       <path d="M 0 0 
L -3.5 0 
" id="m7118963d52" style="stroke:#000000;stroke-width:0.8;"/>
      </defs>
      <g>
       <use style="stroke:#000000;stroke-width:0.8;" x="57.6" xlink:href="#m7118963d52" y="246.217517"/>
      </g>
     </g>
     <g id="text_6">
      <!-- 0.2 -->
      <g transform="translate(34.696875 250.016735)scale(0.1 -0.1)">
       <use xlink:href="#DejaVuSans-30"/>
       <use x="63.623047" xlink:href="#DejaVuSans-2e"/>
       <use x="95.410156" xlink:href="#DejaVuSans-32"/>
      </g>
     </g>
    </g>
    <g id="ytick_2">
     <g id="line2d_7">
      <g>
       <use style="stroke:#000000;stroke-width:0.8;" x="57.6" xlink:href="#m7118963d52" y="198.424506"/>
      </g>
     </g>
     <g id="text_7">
      <!-- 0.4 -->
      <g transform="translate(34.696875 202.223724)scale(0.1 -0.1)">
       <use xlink:href="#DejaVuSans-30"/>
       <use x="63.623047" xlink:href="#DejaVuSans-2e"/>
       <use x="95.410156" xlink:href="#DejaVuSans-34"/>
      </g>
     </g>
    </g>
    <g id="ytick_3">
     <g id="line2d_8">
      <g>
       <use style="stroke:#000000;stroke-width:0.8;" x="57.6" xlink:href="#m7118963d52" y="150.631494"/>
      </g>
     </g>
     <g id="text_8">
      <!-- 0.6 -->
      <g transform="translate(34.696875 154.430713)scale(0.1 -0.1)">
       <use xlink:href="#DejaVuSans-30"/>
       <use x="63.623047" xlink:href="#DejaVuSans-2e"/>
       <use x="95.410156" xlink:href="#DejaVuSans-36"/>
      </g>
     </g>
    </g>
    <g id="ytick_4">
     <g id="line2d_9">
      <g>
       <use style="stroke:#000000;stroke-width:0.8;" x="57.6" xlink:href="#m7118963d52" y="102.838483"/>
      </g>
     </g>
     <g id="text_9">
      <!-- 0.8 -->
      <g transform="translate(34.696875 106.637702)scale(0.1 -0.1)">
       <use xlink:href="#DejaVuSans-30"/>
       <use x="63.623047" xlink:href="#DejaVuSans-2e"/>
       <use x="95.410156" xlink:href="#DejaVuSans-38"/>
      </g>
     </g>
    </g>
   </g>
   <g id="LineCollection_1">
    <path clip-path="url(#pef51b849c5)" d="M 116.592782 293.479494 
L 116.370513 292.417428 
L 116.01368 291.348039 
L 115.456072 290.293294 
L 114.540048 289.231227 
L 112.82748 288.089641 
L 110.703346 287.291862 
L 109.641279 287.01577 
L 106.455078 286.53286 
L 102.20681 286.227934 
L 94.772342 286.039145 
L 88.399941 285.807534 
L 84.151673 285.424781 
L 80.965472 284.915732 
L 78.841338 284.433788 
L 76.717204 283.771544 
L 74.574514 282.858825 
L 72.468937 281.604196 
L 71.354843 280.734691 
L 70.24633 279.672625 
L 69.282736 278.547277 
L 67.913551 276.486424 
L 66.840853 274.36229 
L 65.99523 272.238156 
L 65.020917 269.051955 
L 64.085802 264.803688 
L 63.417911 260.55542 
L 62.809309 255.245086 
L 62.220163 247.810617 
L 61.613021 237.189948 
L 60.778445 218.072743 
L 60.045823 195.769338 
L 59.400201 169.217665 
L 58.7594 133.10739 
L 58.17397 87.438513 
L 57.907127 55.576506 
L 57.907127 55.576506 
" style="fill:none;stroke:#000080;stroke-width:1.5;"/>
   </g>
   <g id="LineCollection_2">
    <path clip-path="url(#pef51b849c5)" d="M 285.98385 293.479494 
L 286.349593 291.355361 
L 286.930169 288.16916 
L 287.048137 286.045026 
L 286.951654 282.858825 
L 286.339436 276.486424 
L 285.356723 267.989888 
L 284.229915 259.493353 
L 283.381331 254.183019 
L 282.324062 248.872684 
L 281.534797 245.686483 
L 280.495332 242.500283 
L 279.571985 240.355334 
L 278.22462 238.252015 
L 277.250791 237.189948 
L 276.385784 236.503431 
L 275.323717 235.939784 
L 274.261651 235.579895 
L 272.137517 235.235209 
L 268.951316 235.164533 
L 245.585844 235.55389 
L 227.530706 235.788039 
L 214.785903 236.197526 
L 191.420431 237.066555 
L 185.04803 237.032301 
L 178.675628 236.773343 
L 172.303227 236.290892 
L 163.806691 235.38889 
L 147.875688 233.602147 
L 141.503286 233.121683 
L 135.130885 232.881909 
L 129.82055 232.886496 
L 123.448149 233.126576 
L 117.075747 233.584215 
L 110.703346 234.264404 
L 106.455078 234.966054 
L 104.330944 235.487495 
L 102.20681 236.198302 
L 100.082677 237.219687 
L 98.549248 238.252015 
L 97.326519 239.314082 
L 96.348474 240.376149 
L 95.541054 241.438216 
L 94.300011 243.562349 
L 93.408594 245.686483 
L 92.648208 248.399244 
L 92.366511 249.934751 
L 92.050976 253.120952 
L 91.755585 259.493353 
L 91.341784 261.617487 
L 90.970851 262.679554 
L 90.446106 263.741621 
L 89.462007 265.061581 
L 88.399941 266.041249 
L 86.945487 266.927822 
L 86.275807 267.204563 
L 85.21374 267.518355 
L 84.151673 267.696085 
L 83.089606 267.737004 
L 82.027539 267.642505 
L 80.965472 267.41476 
L 79.638599 266.927822 
L 78.841338 266.527789 
L 77.779271 265.845895 
L 76.572196 264.803688 
L 75.57839 263.741621 
L 74.077155 261.617487 
L 73.439762 260.55542 
L 71.971336 257.369219 
L 71.177746 255.245086 
L 69.927957 250.996818 
L 68.942462 246.74855 
L 67.776402 240.376149 
L 66.691289 232.94168 
L 65.674682 224.445145 
L 64.634808 213.824476 
L 63.632297 201.079673 
L 62.641518 185.148669 
L 61.661148 164.969398 
L 60.699492 139.479792 
L 59.772681 107.617784 
L 58.721956 63.010974 
L 58.703802 57.700639 
L 58.751013 55.576506 
L 58.751013 55.576506 
" style="fill:none;stroke:#0000e8;stroke-width:1.5;"/>
   </g>
   <g id="LineCollection_3">
    <path clip-path="url(#pef51b849c5)" d="M 290.074886 293.479494 
L 290.483483 288.16916 
L 290.455938 284.982959 
L 290.103663 278.610558 
L 288.462261 255.245086 
L 287.40239 241.438216 
L 286.520616 231.879613 
L 285.564485 223.383078 
L 284.498115 215.94861 
L 283.513726 210.638275 
L 282.474866 206.390007 
L 281.40873 203.203807 
L 280.414757 201.079673 
L 279.571985 199.770343 
L 278.509918 198.732871 
L 277.447851 198.162406 
L 276.385784 197.933229 
L 275.323717 197.943121 
L 273.199584 198.37345 
L 266.827182 200.154468 
L 263.640981 200.689802 
L 260.454781 200.985164 
L 256.206513 201.146885 
L 247.709978 201.177956 
L 212.66177 201.209376 
L 185.04803 201.374529 
L 162.744625 201.766457 
L 136.192952 202.174583 
L 126.634349 202.170819 
L 121.324015 201.966927 
L 117.075747 201.619037 
L 111.765413 200.931295 
L 102.20681 199.533593 
L 99.02061 199.385883 
L 96.896476 199.513994 
L 94.772342 199.900486 
L 92.648208 200.626398 
L 90.524074 201.774178 
L 88.655859 203.203807 
L 87.337874 204.450453 
L 85.21374 206.903211 
L 82.47136 210.638275 
L 79.903405 214.126065 
L 78.166089 215.94861 
L 77.779271 216.298381 
L 76.717204 216.92475 
L 75.655138 217.13283 
L 74.593071 216.837176 
L 73.529586 215.94861 
L 72.216553 213.824476 
L 71.297395 211.700342 
L 70.011718 207.452074 
L 69.028781 203.203807 
L 67.883016 196.831405 
L 66.825183 189.396937 
L 65.737614 179.838335 
L 64.669513 168.155599 
L 63.576394 153.286662 
L 62.507796 135.231524 
L 61.448037 112.928119 
L 60.397505 85.314379 
L 59.551978 58.762706 
L 59.646836 55.576506 
L 59.646836 55.576506 
" style="fill:none;stroke:#0038ff;stroke-width:1.5;"/>
   </g>
   <g id="LineCollection_4">
    <path clip-path="url(#pef51b849c5)" d="M 292.329415 293.479494 
L 292.452038 284.982959 
L 292.117771 277.548491 
L 288.817058 217.010677 
L 287.613594 202.14174 
L 286.51468 191.521071 
L 285.547553 184.086602 
L 284.494159 177.714201 
L 283.603294 173.465933 
L 282.384867 169.217665 
L 281.56967 167.093532 
L 280.634052 165.347066 
L 279.571985 164.12362 
L 278.509918 163.510191 
L 277.447851 163.371207 
L 276.385784 163.587352 
L 275.323717 164.055162 
L 273.199584 165.41301 
L 269.223103 168.155599 
L 267.316621 169.217665 
L 265.765115 169.92322 
L 263.640981 170.640921 
L 261.516848 171.119515 
L 259.392714 171.408255 
L 256.206513 171.59234 
L 251.958245 171.578822 
L 234.965175 171.277007 
L 106.455078 170.912873 
L 96.896476 170.727689 
L 93.710275 170.90725 
L 90.90683 171.341799 
L 89.462007 171.70002 
L 87.337874 172.45987 
L 85.21374 173.530757 
L 83.089606 174.923648 
L 77.779271 178.88842 
L 76.717204 179.381053 
L 75.655138 179.581666 
L 74.593071 179.382363 
L 73.531004 178.66473 
L 72.468937 177.30571 
L 71.18225 174.528 
L 70.141692 171.341799 
L 69.0988 167.093532 
L 67.914232 160.72113 
L 66.82995 153.286662 
L 65.716236 143.728059 
L 64.61794 132.045323 
L 63.488972 117.176387 
L 62.442352 100.183316 
L 60.786201 68.257922 
L 60.500906 60.88684 
L 60.545518 57.700639 
L 60.647549 55.576506 
L 60.647549 55.576506 
" style="fill:none;stroke:#0094ff;stroke-width:1.5;"/>
   </g>
   <g id="LineCollection_5">
    <path clip-path="url(#pef51b849c5)" d="M 294.031704 293.479494 
L 293.947175 281.796758 
L 292.854625 252.058885 
L 291.638819 222.321011 
L 290.670094 203.203807 
L 289.682196 187.272803 
L 288.621131 173.465933 
L 287.599341 162.845264 
L 286.571631 154.348729 
L 285.600152 147.976327 
L 284.561909 142.665993 
L 283.45442 138.417725 
L 282.758186 136.269266 
L 281.696119 133.945329 
L 280.634052 132.432814 
L 279.571985 131.596409 
L 278.509918 131.319197 
L 277.447851 131.497398 
L 276.3727 132.045323 
L 275.050487 133.10739 
L 273.199584 134.978021 
L 268.951316 139.594526 
L 266.683574 141.603926 
L 264.703048 142.976221 
L 262.578914 144.042195 
L 260.230861 144.790126 
L 258.330647 145.138648 
L 256.206513 145.300924 
L 253.020312 145.238124 
L 248.2337 144.790126 
L 241.337576 144.107571 
L 236.027242 143.850621 
L 230.716907 143.829007 
L 200.979033 144.119114 
L 164.868758 144.086191 
L 91.586141 144.232847 
L 88.399941 144.537945 
L 85.21374 145.12849 
L 82.687866 145.852193 
L 77.779271 147.519973 
L 76.717204 147.712991 
L 75.655138 147.714545 
L 74.593071 147.430977 
L 73.531004 146.749778 
L 72.468937 145.544424 
L 71.40687 143.672108 
L 70.218734 140.541859 
L 69.062417 136.293591 
L 67.970083 130.983257 
L 66.796301 123.548788 
L 65.735905 115.052253 
L 64.576937 103.369517 
L 63.474985 89.562647 
L 61.723701 64.073041 
L 61.614166 59.824773 
L 61.827705 55.576506 
L 61.827705 55.576506 
" style="fill:none;stroke:#0cf4eb;stroke-width:1.5;"/>
   </g>
   <g id="LineCollection_6">
    <path clip-path="url(#pef51b849c5)" d="M 295.555007 293.479494 
L 295.309248 276.486424 
L 294.236361 239.314082 
L 293.118039 207.452074 
L 292.032208 183.024535 
L 290.955001 163.907331 
L 289.887836 149.038394 
L 288.814055 137.355658 
L 287.673143 127.797056 
L 286.697962 121.424654 
L 285.660646 116.11432 
L 284.576301 111.866052 
L 283.483949 108.679851 
L 282.48566 106.555717 
L 281.696119 105.289715 
L 280.634052 104.228118 
L 279.571985 103.718705 
L 278.509918 103.679403 
L 277.447851 104.036482 
L 276.385784 104.720635 
L 275.323717 105.664344 
L 273.199584 108.075517 
L 267.671487 115.052253 
L 265.659684 117.176387 
L 263.640981 118.910483 
L 261.516848 120.271052 
L 259.392714 121.182912 
L 257.26858 121.696257 
L 255.144446 121.876911 
L 253.020312 121.794693 
L 250.376265 121.424654 
L 247.709978 120.879135 
L 239.213442 119.001777 
L 234.965175 118.388739 
L 231.778974 118.128356 
L 227.530706 118.014456 
L 222.220372 118.130479 
L 197.792833 119.034898 
L 180.799762 119.188713 
L 106.455078 119.687071 
L 89.462007 119.941128 
L 85.21374 120.198672 
L 77.779271 120.87767 
L 76.717204 120.82815 
L 75.655138 120.636289 
L 74.593071 120.229287 
L 73.333602 119.30052 
L 72.387924 118.238454 
L 71.171718 116.11432 
L 70.275156 113.990186 
L 69.02319 109.741918 
L 67.875375 104.431584 
L 66.817591 98.059182 
L 65.71196 89.562647 
L 64.488273 77.879911 
L 63.318944 65.135108 
L 63.106763 60.88684 
L 63.185374 58.762706 
L 63.470499 55.576506 
L 63.470499 55.576506 
" style="fill:none;stroke:#56ffa0;stroke-width:1.5;"/>
   </g>
   <g id="LineCollection_7">
    <path clip-path="url(#pef51b849c5)" d="M 300.74717 293.479494 
L 300.639631 287.107093 
L 300.317803 280.734691 
L 299.711687 273.300223 
L 298.500377 261.617487 
L 296.454825 242.500283 
L 295.094994 207.452074 
L 294.088141 178.776268 
L 293.096308 156.472862 
L 292.065721 138.417725 
L 291.044021 124.610855 
L 289.915125 112.928119 
L 288.861158 104.431584 
L 287.861105 98.059182 
L 286.778667 92.748848 
L 285.613576 88.50058 
L 284.88232 86.364212 
L 283.820253 83.984363 
L 282.72662 82.128178 
L 281.696119 80.804521 
L 280.634052 79.781732 
L 279.3689 78.941978 
L 278.509918 78.545961 
L 277.447851 78.253714 
L 276.385784 78.147689 
L 275.323717 78.221057 
L 274.261651 78.466906 
L 273.073312 78.941978 
L 271.44207 80.004045 
L 270.293541 81.066112 
L 269.391347 82.128178 
L 268.635819 83.190245 
L 267.393434 85.314379 
L 263.587524 92.748848 
L 262.125087 94.872981 
L 261.229446 95.935048 
L 260.150282 96.997115 
L 258.778904 98.059182 
L 257.26858 98.935016 
L 256.206513 99.38731 
L 254.082379 99.98624 
L 251.958245 100.273769 
L 249.834112 100.341202 
L 246.647911 100.180371 
L 242.399643 99.705565 
L 224.344506 97.401148 
L 217.972104 96.869762 
L 210.537636 96.494881 
L 202.0411 96.334978 
L 189.296297 96.379738 
L 169.117026 96.428963 
L 152.123955 96.219693 
L 113.889546 95.438809 
L 88.399941 95.01219 
L 79.631588 94.872981 
L 77.779271 94.666873 
L 76.717204 94.436749 
L 75.143759 93.810914 
L 74.593071 93.521636 
L 73.531004 92.692062 
L 72.468937 91.474032 
L 71.333742 89.562647 
L 70.057123 86.376446 
L 69.103072 83.190245 
L 67.925906 77.879911 
L 66.676701 70.445442 
L 65.98144 65.135108 
L 65.822298 61.948907 
L 65.907482 59.824773 
L 66.38884 55.576506 
L 66.38884 55.576506 
" style="fill:none;stroke:#a0ff56;stroke-width:1.5;"/>
   </g>
   <g id="LineCollection_8">
    <path clip-path="url(#pef51b849c5)" d="M 308.256024 293.479494 
L 308.113882 284.982959 
L 307.73062 276.486424 
L 306.994483 265.865755 
L 305.790979 252.058885 
L 303.999524 234.214287 
L 302.061557 217.010677 
L 300.061345 201.079673 
L 297.981618 186.210736 
L 296.491528 175.590067 
L 294.986317 145.852193 
L 294.038918 126.734989 
L 293.083979 111.866052 
L 292.128572 100.183316 
L 291.22417 91.686781 
L 290.275383 85.314379 
L 289.628536 82.128178 
L 288.805972 78.941978 
L 288.06852 76.705538 
L 287.006454 74.287531 
L 285.944387 72.483206 
L 284.88232 71.126815 
L 283.820253 70.084422 
L 282.758186 69.276046 
L 280.966961 68.321309 
L 279.571985 67.819746 
L 277.447851 67.357402 
L 275.323717 67.173212 
L 273.199584 67.200688 
L 271.07545 67.404339 
L 267.889249 67.985802 
L 264.703048 68.857877 
L 261.516848 69.981057 
L 257.869278 71.507509 
L 248.494315 75.755777 
L 245.512982 76.817844 
L 243.46171 77.378316 
L 240.78597 77.879911 
L 239.213442 78.06326 
L 236.027242 78.185277 
L 232.841041 78.037007 
L 229.65484 77.67547 
L 224.616224 76.817844 
L 217.972104 75.397123 
L 203.103167 72.17814 
L 185.04803 68.375219 
L 181.861829 67.543512 
L 178.675628 66.601607 
L 175.489428 65.484304 
L 173.365294 64.578647 
L 171.24116 63.464506 
L 170.179093 62.787955 
L 169.083939 61.948907 
L 168.054959 60.870287 
L 167.367175 59.824773 
L 166.939849 58.762706 
L 166.729524 57.700639 
L 166.743562 55.576506 
L 166.743562 55.576506 
" style="fill:none;stroke:#ebff0c;stroke-width:1.5;"/>
   </g>
   <g id="LineCollection_9">
    <path clip-path="url(#pef51b849c5)" d="M 315.967333 293.479494 
L 315.844342 283.920892 
L 315.468919 273.300223 
L 314.768562 260.55542 
L 313.655763 244.624416 
L 312.094579 225.507212 
L 310.311129 206.390007 
L 308.511296 189.396937 
L 306.730829 174.528 
L 304.85954 160.72113 
L 302.937457 148.239975 
L 301.231199 138.417725 
L 299.366606 128.859123 
L 297.503028 120.362587 
L 296.538542 116.11432 
L 294.69538 92.748848 
L 294.016459 85.314379 
L 293.357583 80.004045 
L 292.620076 75.755777 
L 291.856845 72.569576 
L 291.18297 70.445442 
L 290.192654 68.157173 
L 288.976662 66.197175 
L 288.06852 65.102728 
L 286.977282 64.073041 
L 284.88232 62.604792 
L 282.758186 61.508365 
L 276.650271 58.762706 
L 275.323717 57.519853 
L 274.910919 56.638572 
L 274.915901 55.576506 
L 274.915901 55.576506 
" style="fill:none;stroke:#ffab00;stroke-width:1.5;"/>
   </g>
   <g id="LineCollection_10">
    <path clip-path="url(#pef51b849c5)" d="M 323.827488 293.479494 
L 323.710151 281.796758 
L 323.360782 269.051955 
L 322.688526 253.120952 
L 321.601913 232.94168 
L 320.177328 210.638275 
L 318.676775 190.459004 
L 317.118146 172.403866 
L 315.516836 156.472862 
L 313.899686 142.665993 
L 312.314351 130.983257 
L 310.652407 120.362587 
L 308.931121 110.803985 
L 307.175144 102.30745 
L 305.413716 94.872981 
L 303.679743 88.50058 
L 301.87539 82.77424 
L 300.486437 78.941978 
L 298.68919 74.673314 
L 297.101101 71.507509 
L 296.541258 70.445442 
L 295.781025 67.259242 
L 295.272921 65.135108 
L 294.440922 61.840528 
L 292.529262 55.576506 
L 292.529262 55.576506 
" style="fill:none;stroke:#ff5500;stroke-width:1.5;"/>
   </g>
   <g id="LineCollection_11">
    <path clip-path="url(#pef51b849c5)" d="M 331.788332 293.479494 
L 331.668455 277.548491 
L 331.301984 259.493353 
L 330.596918 236.127881 
L 329.545326 208.514141 
L 328.366275 183.024535 
L 327.176075 161.783197 
L 325.944385 143.728059 
L 324.722344 128.859123 
L 323.471013 116.11432 
L 322.054662 103.917056 
L 320.537333 92.748848 
L 318.413221 78.941978 
L 316.850338 68.321309 
L 316.276623 63.010974 
L 316.013668 58.762706 
L 315.959615 55.576506 
L 315.959615 55.576506 
" style="fill:none;stroke:#e80000;stroke-width:1.5;"/>
   </g>
   <g id="LineCollection_12">
    <path clip-path="url(#pef51b849c5)" d="M 339.807661 293.479494 
L 339.688444 264.803688 
L 339.302995 226.569279 
L 338.60397 178.776268 
L 337.801452 140.541859 
L 337.154734 118.238454 
L 335.950918 88.50058 
L 335.144412 70.445442 
L 334.901935 59.824773 
L 334.881117 55.576506 
L 334.881117 55.576506 
" style="fill:none;stroke:#800000;stroke-width:1.5;"/>
   </g>
   <g id="patch_3">
    <path d="M 57.6 293.479494 
L 57.6 55.576506 
" style="fill:none;stroke:#000000;stroke-linecap:square;stroke-linejoin:miter;stroke-width:0.8;"/>
   </g>
   <g id="patch_4">
    <path d="M 343.296 293.479494 
L 343.296 55.576506 
" style="fill:none;stroke:#000000;stroke-linecap:square;stroke-linejoin:miter;stroke-width:0.8;"/>
   </g>
   <g id="patch_5">
    <path d="M 57.6 293.479494 
L 343.296 293.479494 
" style="fill:none;stroke:#000000;stroke-linecap:square;stroke-linejoin:miter;stroke-width:0.8;"/>
   </g>
   <g id="patch_6">
    <path d="M 57.6 55.576506 
L 343.296 55.576506 
" style="fill:none;stroke:#000000;stroke-linecap:square;stroke-linejoin:miter;stroke-width:0.8;"/>
   </g>
   <g id="text_10">
    <!-- Time:0.14156 s -->
    <defs>
     <path d="M -0.296875 72.90625 
L 61.375 72.90625 
L 61.375 64.59375 
L 35.5 64.59375 
L 35.5 0 
L 25.59375 0 
L 25.59375 64.59375 
L -0.296875 64.59375 
z
" id="DejaVuSans-54"/>
     <path d="M 9.421875 54.6875 
L 18.40625 54.6875 
L 18.40625 0 
L 9.421875 0 
z
M 9.421875 75.984375 
L 18.40625 75.984375 
L 18.40625 64.59375 
L 9.421875 64.59375 
z
" id="DejaVuSans-69"/>
     <path d="M 52 44.1875 
Q 55.375 50.25 60.0625 53.125 
Q 64.75 56 71.09375 56 
Q 79.640625 56 84.28125 50.015625 
Q 88.921875 44.046875 88.921875 33.015625 
L 88.921875 0 
L 79.890625 0 
L 79.890625 32.71875 
Q 79.890625 40.578125 77.09375 44.375 
Q 74.3125 48.1875 68.609375 48.1875 
Q 61.625 48.1875 57.5625 43.546875 
Q 53.515625 38.921875 53.515625 30.90625 
L 53.515625 0 
L 44.484375 0 
L 44.484375 32.71875 
Q 44.484375 40.625 41.703125 44.40625 
Q 38.921875 48.1875 33.109375 48.1875 
Q 26.21875 48.1875 22.15625 43.53125 
Q 18.109375 38.875 18.109375 30.90625 
L 18.109375 0 
L 9.078125 0 
L 9.078125 54.6875 
L 18.109375 54.6875 
L 18.109375 46.1875 
Q 21.1875 51.21875 25.484375 53.609375 
Q 29.78125 56 35.6875 56 
Q 41.65625 56 45.828125 52.96875 
Q 50 49.953125 52 44.1875 
z
" id="DejaVuSans-6d"/>
     <path d="M 56.203125 29.59375 
L 56.203125 25.203125 
L 14.890625 25.203125 
Q 15.484375 15.921875 20.484375 11.0625 
Q 25.484375 6.203125 34.421875 6.203125 
Q 39.59375 6.203125 44.453125 7.46875 
Q 49.3125 8.734375 54.109375 11.28125 
L 54.109375 2.78125 
Q 49.265625 0.734375 44.1875 -0.34375 
Q 39.109375 -1.421875 33.890625 -1.421875 
Q 20.796875 -1.421875 13.15625 6.1875 
Q 5.515625 13.8125 5.515625 26.8125 
Q 5.515625 40.234375 12.765625 48.109375 
Q 20.015625 56 32.328125 56 
Q 43.359375 56 49.78125 48.890625 
Q 56.203125 41.796875 56.203125 29.59375 
z
M 47.21875 32.234375 
Q 47.125 39.59375 43.09375 43.984375 
Q 39.0625 48.390625 32.421875 48.390625 
Q 24.90625 48.390625 20.390625 44.140625 
Q 15.875 39.890625 15.1875 32.171875 
z
" id="DejaVuSans-65"/>
     <path d="M 11.71875 12.40625 
L 22.015625 12.40625 
L 22.015625 0 
L 11.71875 0 
z
M 11.71875 51.703125 
L 22.015625 51.703125 
L 22.015625 39.3125 
L 11.71875 39.3125 
z
" id="DejaVuSans-3a"/>
     <path d="M 10.796875 72.90625 
L 49.515625 72.90625 
L 49.515625 64.59375 
L 19.828125 64.59375 
L 19.828125 46.734375 
Q 21.96875 47.46875 24.109375 47.828125 
Q 26.265625 48.1875 28.421875 48.1875 
Q 40.625 48.1875 47.75 41.5 
Q 54.890625 34.8125 54.890625 23.390625 
Q 54.890625 11.625 47.5625 5.09375 
Q 40.234375 -1.421875 26.90625 -1.421875 
Q 22.3125 -1.421875 17.546875 -0.640625 
Q 12.796875 0.140625 7.71875 1.703125 
L 7.71875 11.625 
Q 12.109375 9.234375 16.796875 8.0625 
Q 21.484375 6.890625 26.703125 6.890625 
Q 35.15625 6.890625 40.078125 11.328125 
Q 45.015625 15.765625 45.015625 23.390625 
Q 45.015625 31 40.078125 35.4375 
Q 35.15625 39.890625 26.703125 39.890625 
Q 22.75 39.890625 18.8125 39.015625 
Q 14.890625 38.140625 10.796875 36.28125 
z
" id="DejaVuSans-35"/>
     <path id="DejaVuSans-20"/>
     <path d="M 44.28125 53.078125 
L 44.28125 44.578125 
Q 40.484375 46.53125 36.375 47.5 
Q 32.28125 48.484375 27.875 48.484375 
Q 21.1875 48.484375 17.84375 46.4375 
Q 14.5 44.390625 14.5 40.28125 
Q 14.5 37.15625 16.890625 35.375 
Q 19.28125 33.59375 26.515625 31.984375 
L 29.59375 31.296875 
Q 39.15625 29.25 43.1875 25.515625 
Q 47.21875 21.78125 47.21875 15.09375 
Q 47.21875 7.46875 41.1875 3.015625 
Q 35.15625 -1.421875 24.609375 -1.421875 
Q 20.21875 -1.421875 15.453125 -0.5625 
Q 10.6875 0.296875 5.421875 2 
L 5.421875 11.28125 
Q 10.40625 8.6875 15.234375 7.390625 
Q 20.0625 6.109375 24.8125 6.109375 
Q 31.15625 6.109375 34.5625 8.28125 
Q 37.984375 10.453125 37.984375 14.40625 
Q 37.984375 18.0625 35.515625 20.015625 
Q 33.0625 21.96875 24.703125 23.78125 
L 21.578125 24.515625 
Q 13.234375 26.265625 9.515625 29.90625 
Q 5.8125 33.546875 5.8125 39.890625 
Q 5.8125 47.609375 11.28125 51.796875 
Q 16.75 56 26.8125 56 
Q 31.78125 56 36.171875 55.265625 
Q 40.578125 54.546875 44.28125 53.078125 
z
" id="DejaVuSans-73"/>
    </defs>
    <g transform="translate(153.717375 49.576506)scale(0.12 -0.12)">
     <use xlink:href="#DejaVuSans-54"/>
     <use x="61.037109" xlink:href="#DejaVuSans-69"/>
     <use x="88.820312" xlink:href="#DejaVuSans-6d"/>
     <use x="186.232422" xlink:href="#DejaVuSans-65"/>
     <use x="247.755859" xlink:href="#DejaVuSans-3a"/>
     <use x="281.447266" xlink:href="#DejaVuSans-30"/>
     <use x="345.070312" xlink:href="#DejaVuSans-2e"/>
     <use x="376.857422" xlink:href="#DejaVuSans-31"/>
     <use x="440.480469" xlink:href="#DejaVuSans-34"/>
     <use x="504.103516" xlink:href="#DejaVuSans-31"/>
     <use x="567.726562" xlink:href="#DejaVuSans-35"/>
     <use x="631.349609" xlink:href="#DejaVuSans-36"/>
     <use x="694.972656" xlink:href="#DejaVuSans-20"/>
     <use x="726.759766" xlink:href="#DejaVuSans-73"/>
    </g>
   </g>
  </g>
  <g id="axes_2">
   <g id="patch_7">
    <path clip-path="url(#p9bc7955ab3)" d="M 361.152 307.584 
L 361.152 283.392 
L 361.152 65.664 
L 361.152 41.472 
L 374.4576 41.472 
L 374.4576 65.664 
L 374.4576 283.392 
L 374.4576 307.584 
z
" style="fill:#ffffff;stroke:#ffffff;stroke-linejoin:miter;stroke-width:0.01;"/>
   </g>
   <g id="matplotlib.axis_3"/>
   <g id="matplotlib.axis_4">
    <g id="ytick_5">
     <g id="line2d_10">
      <defs>
       <path d="M 0 0 
L 3.5 0 
" id="madc1494e5b" style="stroke:#000000;stroke-width:0.8;"/>
      </defs>
      <g>
       <use style="stroke:#000000;stroke-width:0.8;" x="374.4576" xlink:href="#madc1494e5b" y="307.584"/>
      </g>
     </g>
     <g id="text_11">
      <!-- 0.08 -->
      <g transform="translate(381.4576 311.383219)scale(0.1 -0.1)">
       <use xlink:href="#DejaVuSans-30"/>
       <use x="63.623047" xlink:href="#DejaVuSans-2e"/>
       <use x="95.410156" xlink:href="#DejaVuSans-30"/>
       <use x="159.033203" xlink:href="#DejaVuSans-38"/>
      </g>
     </g>
    </g>
    <g id="ytick_6">
     <g id="line2d_11">
      <g>
       <use style="stroke:#000000;stroke-width:0.8;" x="374.4576" xlink:href="#madc1494e5b" y="259.2"/>
      </g>
     </g>
     <g id="text_12">
      <!-- 0.24 -->
      <g transform="translate(381.4576 262.999219)scale(0.1 -0.1)">
       <use xlink:href="#DejaVuSans-30"/>
       <use x="63.623047" xlink:href="#DejaVuSans-2e"/>
       <use x="95.410156" xlink:href="#DejaVuSans-32"/>
       <use x="159.033203" xlink:href="#DejaVuSans-34"/>
      </g>
     </g>
    </g>
    <g id="ytick_7">
     <g id="line2d_12">
      <g>
       <use style="stroke:#000000;stroke-width:0.8;" x="374.4576" xlink:href="#madc1494e5b" y="210.816"/>
      </g>
     </g>
     <g id="text_13">
      <!-- 0.40 -->
      <g transform="translate(381.4576 214.615219)scale(0.1 -0.1)">
       <use xlink:href="#DejaVuSans-30"/>
       <use x="63.623047" xlink:href="#DejaVuSans-2e"/>
       <use x="95.410156" xlink:href="#DejaVuSans-34"/>
       <use x="159.033203" xlink:href="#DejaVuSans-30"/>
      </g>
     </g>
    </g>
    <g id="ytick_8">
     <g id="line2d_13">
      <g>
       <use style="stroke:#000000;stroke-width:0.8;" x="374.4576" xlink:href="#madc1494e5b" y="162.432"/>
      </g>
     </g>
     <g id="text_14">
      <!-- 0.56 -->
      <g transform="translate(381.4576 166.231219)scale(0.1 -0.1)">
       <use xlink:href="#DejaVuSans-30"/>
       <use x="63.623047" xlink:href="#DejaVuSans-2e"/>
       <use x="95.410156" xlink:href="#DejaVuSans-35"/>
       <use x="159.033203" xlink:href="#DejaVuSans-36"/>
      </g>
     </g>
    </g>
    <g id="ytick_9">
     <g id="line2d_14">
      <g>
       <use style="stroke:#000000;stroke-width:0.8;" x="374.4576" xlink:href="#madc1494e5b" y="114.048"/>
      </g>
     </g>
     <g id="text_15">
      <!-- 0.72 -->
      <defs>
       <path d="M 8.203125 72.90625 
L 55.078125 72.90625 
L 55.078125 68.703125 
L 28.609375 0 
L 18.3125 0 
L 43.21875 64.59375 
L 8.203125 64.59375 
z
" id="DejaVuSans-37"/>
      </defs>
      <g transform="translate(381.4576 117.847219)scale(0.1 -0.1)">
       <use xlink:href="#DejaVuSans-30"/>
       <use x="63.623047" xlink:href="#DejaVuSans-2e"/>
       <use x="95.410156" xlink:href="#DejaVuSans-37"/>
       <use x="159.033203" xlink:href="#DejaVuSans-32"/>
      </g>
     </g>
    </g>
    <g id="ytick_10">
     <g id="line2d_15">
      <g>
       <use style="stroke:#000000;stroke-width:0.8;" x="374.4576" xlink:href="#madc1494e5b" y="65.664"/>
      </g>
     </g>
     <g id="text_16">
      <!-- 0.88 -->
      <g transform="translate(381.4576 69.463219)scale(0.1 -0.1)">
       <use xlink:href="#DejaVuSans-30"/>
       <use x="63.623047" xlink:href="#DejaVuSans-2e"/>
       <use x="95.410156" xlink:href="#DejaVuSans-38"/>
       <use x="159.033203" xlink:href="#DejaVuSans-38"/>
      </g>
     </g>
    </g>
   </g>
   <g id="LineCollection_13">
    <path clip-path="url(#p9bc7955ab3)" d="M 361.152 307.584 
L 374.4576 307.584 
" style="fill:none;stroke:#000080;stroke-width:1.5;"/>
    <path clip-path="url(#p9bc7955ab3)" d="M 361.152 283.392 
L 374.4576 283.392 
" style="fill:none;stroke:#0000e8;stroke-width:1.5;"/>
    <path clip-path="url(#p9bc7955ab3)" d="M 361.152 259.2 
L 374.4576 259.2 
" style="fill:none;stroke:#0038ff;stroke-width:1.5;"/>
    <path clip-path="url(#p9bc7955ab3)" d="M 361.152 235.008 
L 374.4576 235.008 
" style="fill:none;stroke:#0094ff;stroke-width:1.5;"/>
    <path clip-path="url(#p9bc7955ab3)" d="M 361.152 210.816 
L 374.4576 210.816 
" style="fill:none;stroke:#0cf4eb;stroke-width:1.5;"/>
    <path clip-path="url(#p9bc7955ab3)" d="M 361.152 186.624 
L 374.4576 186.624 
" style="fill:none;stroke:#56ffa0;stroke-width:1.5;"/>
    <path clip-path="url(#p9bc7955ab3)" d="M 361.152 162.432 
L 374.4576 162.432 
" style="fill:none;stroke:#a0ff56;stroke-width:1.5;"/>
    <path clip-path="url(#p9bc7955ab3)" d="M 361.152 138.24 
L 374.4576 138.24 
" style="fill:none;stroke:#ebff0c;stroke-width:1.5;"/>
    <path clip-path="url(#p9bc7955ab3)" d="M 361.152 114.048 
L 374.4576 114.048 
" style="fill:none;stroke:#ffab00;stroke-width:1.5;"/>
    <path clip-path="url(#p9bc7955ab3)" d="M 361.152 89.856 
L 374.4576 89.856 
" style="fill:none;stroke:#ff5500;stroke-width:1.5;"/>
    <path clip-path="url(#p9bc7955ab3)" d="M 361.152 65.664 
L 374.4576 65.664 
" style="fill:none;stroke:#e80000;stroke-width:1.5;"/>
    <path clip-path="url(#p9bc7955ab3)" d="M 361.152 41.472 
L 374.4576 41.472 
" style="fill:none;stroke:#800000;stroke-width:1.5;"/>
   </g>
   <g id="patch_8">
    <path d="M 361.152 307.584 
L 361.152 283.392 
L 361.152 65.664 
L 361.152 41.472 
L 374.4576 41.472 
L 374.4576 65.664 
L 374.4576 283.392 
L 374.4576 307.584 
z
" style="fill:none;stroke:#000000;stroke-linejoin:miter;stroke-width:0.8;"/>
   </g>
  </g>
 </g>
 <defs>
  <clipPath id="pef51b849c5">
   <rect height="237.902989" width="285.696" x="57.6" y="55.576506"/>
  </clipPath>
  <clipPath id="p9bc7955ab3">
   <rect height="266.112" width="13.3056" x="361.152" y="41.472"/>
  </clipPath>
 </defs>
</svg>
