<?xml version="1.0" encoding="utf-8" standalone="no"?>
<!DOCTYPE svg PUBLIC "-//W3C//DTD SVG 1.1//EN"
  "http://www.w3.org/Graphics/SVG/1.1/DTD/svg11.dtd">
<!-- Created with matplotlib (http://matplotlib.org/) -->
<svg height="345.6pt" version="1.1" viewBox="0 0 460.8 345.6" width="460.8pt" xmlns="http://www.w3.org/2000/svg" xmlns:xlink="http://www.w3.org/1999/xlink">
 <defs>
  <style type="text/css">
*{stroke-linecap:butt;stroke-linejoin:round;}
  </style>
 </defs>
 <g id="figure_1">
  <g id="patch_1">
   <path d="M 0 345.6 
L 460.8 345.6 
L 460.8 0 
L 0 0 
z
" style="fill:#ffffff;"/>
  </g>
  <g id="axes_1">
   <g id="patch_2">
    <path d="M 57.6 293.479494 
L 343.296 293.479494 
L 343.296 55.576506 
L 57.6 55.576506 
z
" style="fill:#ffffff;"/>
   </g>
   <g id="matplotlib.axis_1">
    <g id="xtick_1">
     <g id="line2d_1">
      <defs>
       <path d="M 0 0 
L 0 3.5 
" id="maef1475375" style="stroke:#000000;stroke-width:0.8;"/>
      </defs>
      <g>
       <use style="stroke:#000000;stroke-width:0.8;" x="104.861978" xlink:href="#maef1475375" y="293.479494"/>
      </g>
     </g>
     <g id="text_1">
      <!-- 0.2 -->
      <defs>
       <path d="M 31.78125 66.40625 
Q 24.171875 66.40625 20.328125 58.90625 
Q 16.5 51.421875 16.5 36.375 
Q 16.5 21.390625 20.328125 13.890625 
Q 24.171875 6.390625 31.78125 6.390625 
Q 39.453125 6.390625 43.28125 13.890625 
Q 47.125 21.390625 47.125 36.375 
Q 47.125 51.421875 43.28125 58.90625 
Q 39.453125 66.40625 31.78125 66.40625 
z
M 31.78125 74.21875 
Q 44.046875 74.21875 50.515625 64.515625 
Q 56.984375 54.828125 56.984375 36.375 
Q 56.984375 17.96875 50.515625 8.265625 
Q 44.046875 -1.421875 31.78125 -1.421875 
Q 19.53125 -1.421875 13.0625 8.265625 
Q 6.59375 17.96875 6.59375 36.375 
Q 6.59375 54.828125 13.0625 64.515625 
Q 19.53125 74.21875 31.78125 74.21875 
z
" id="DejaVuSans-30"/>
       <path d="M 10.6875 12.40625 
L 21 12.40625 
L 21 0 
L 10.6875 0 
z
" id="DejaVuSans-2e"/>
       <path d="M 19.1875 8.296875 
L 53.609375 8.296875 
L 53.609375 0 
L 7.328125 0 
L 7.328125 8.296875 
Q 12.9375 14.109375 22.625 23.890625 
Q 32.328125 33.6875 34.8125 36.53125 
Q 39.546875 41.84375 41.421875 45.53125 
Q 43.3125 49.21875 43.3125 52.78125 
Q 43.3125 58.59375 39.234375 62.25 
Q 35.15625 65.921875 28.609375 65.921875 
Q 23.96875 65.921875 18.8125 64.3125 
Q 13.671875 62.703125 7.8125 59.421875 
L 7.8125 69.390625 
Q 13.765625 71.78125 18.9375 73 
Q 24.125 74.21875 28.421875 74.21875 
Q 39.75 74.21875 46.484375 68.546875 
Q 53.21875 62.890625 53.21875 53.421875 
Q 53.21875 48.921875 51.53125 44.890625 
Q 49.859375 40.875 45.40625 35.40625 
Q 44.1875 33.984375 37.640625 27.21875 
Q 31.109375 20.453125 19.1875 8.296875 
z
" id="DejaVuSans-32"/>
      </defs>
      <g transform="translate(96.910415 308.077932)scale(0.1 -0.1)">
       <use xlink:href="#DejaVuSans-30"/>
       <use x="63.623047" xlink:href="#DejaVuSans-2e"/>
       <use x="95.410156" xlink:href="#DejaVuSans-32"/>
      </g>
     </g>
    </g>
    <g id="xtick_2">
     <g id="line2d_2">
      <g>
       <use style="stroke:#000000;stroke-width:0.8;" x="152.654989" xlink:href="#maef1475375" y="293.479494"/>
      </g>
     </g>
     <g id="text_2">
      <!-- 0.4 -->
      <defs>
       <path d="M 37.796875 64.3125 
L 12.890625 25.390625 
L 37.796875 25.390625 
z
M 35.203125 72.90625 
L 47.609375 72.90625 
L 47.609375 25.390625 
L 58.015625 25.390625 
L 58.015625 17.1875 
L 47.609375 17.1875 
L 47.609375 0 
L 37.796875 0 
L 37.796875 17.1875 
L 4.890625 17.1875 
L 4.890625 26.703125 
z
" id="DejaVuSans-34"/>
      </defs>
      <g transform="translate(144.703426 308.077932)scale(0.1 -0.1)">
       <use xlink:href="#DejaVuSans-30"/>
       <use x="63.623047" xlink:href="#DejaVuSans-2e"/>
       <use x="95.410156" xlink:href="#DejaVuSans-34"/>
      </g>
     </g>
    </g>
    <g id="xtick_3">
     <g id="line2d_3">
      <g>
       <use style="stroke:#000000;stroke-width:0.8;" x="200.448" xlink:href="#maef1475375" y="293.479494"/>
      </g>
     </g>
     <g id="text_3">
      <!-- 0.6 -->
      <defs>
       <path d="M 33.015625 40.375 
Q 26.375 40.375 22.484375 35.828125 
Q 18.609375 31.296875 18.609375 23.390625 
Q 18.609375 15.53125 22.484375 10.953125 
Q 26.375 6.390625 33.015625 6.390625 
Q 39.65625 6.390625 43.53125 10.953125 
Q 47.40625 15.53125 47.40625 23.390625 
Q 47.40625 31.296875 43.53125 35.828125 
Q 39.65625 40.375 33.015625 40.375 
z
M 52.59375 71.296875 
L 52.59375 62.3125 
Q 48.875 64.0625 45.09375 64.984375 
Q 41.3125 65.921875 37.59375 65.921875 
Q 27.828125 65.921875 22.671875 59.328125 
Q 17.53125 52.734375 16.796875 39.40625 
Q 19.671875 43.65625 24.015625 45.921875 
Q 28.375 48.1875 33.59375 48.1875 
Q 44.578125 48.1875 50.953125 41.515625 
Q 57.328125 34.859375 57.328125 23.390625 
Q 57.328125 12.15625 50.6875 5.359375 
Q 44.046875 -1.421875 33.015625 -1.421875 
Q 20.359375 -1.421875 13.671875 8.265625 
Q 6.984375 17.96875 6.984375 36.375 
Q 6.984375 53.65625 15.1875 63.9375 
Q 23.390625 74.21875 37.203125 74.21875 
Q 40.921875 74.21875 44.703125 73.484375 
Q 48.484375 72.75 52.59375 71.296875 
z
" id="DejaVuSans-36"/>
      </defs>
      <g transform="translate(192.496438 308.077932)scale(0.1 -0.1)">
       <use xlink:href="#DejaVuSans-30"/>
       <use x="63.623047" xlink:href="#DejaVuSans-2e"/>
       <use x="95.410156" xlink:href="#DejaVuSans-36"/>
      </g>
     </g>
    </g>
    <g id="xtick_4">
     <g id="line2d_4">
      <g>
       <use style="stroke:#000000;stroke-width:0.8;" x="248.241011" xlink:href="#maef1475375" y="293.479494"/>
      </g>
     </g>
     <g id="text_4">
      <!-- 0.8 -->
      <defs>
       <path d="M 31.78125 34.625 
Q 24.75 34.625 20.71875 30.859375 
Q 16.703125 27.09375 16.703125 20.515625 
Q 16.703125 13.921875 20.71875 10.15625 
Q 24.75 6.390625 31.78125 6.390625 
Q 38.8125 6.390625 42.859375 10.171875 
Q 46.921875 13.96875 46.921875 20.515625 
Q 46.921875 27.09375 42.890625 30.859375 
Q 38.875 34.625 31.78125 34.625 
z
M 21.921875 38.8125 
Q 15.578125 40.375 12.03125 44.71875 
Q 8.5 49.078125 8.5 55.328125 
Q 8.5 64.0625 14.71875 69.140625 
Q 20.953125 74.21875 31.78125 74.21875 
Q 42.671875 74.21875 48.875 69.140625 
Q 55.078125 64.0625 55.078125 55.328125 
Q 55.078125 49.078125 51.53125 44.71875 
Q 48 40.375 41.703125 38.8125 
Q 48.828125 37.15625 52.796875 32.3125 
Q 56.78125 27.484375 56.78125 20.515625 
Q 56.78125 9.90625 50.3125 4.234375 
Q 43.84375 -1.421875 31.78125 -1.421875 
Q 19.734375 -1.421875 13.25 4.234375 
Q 6.78125 9.90625 6.78125 20.515625 
Q 6.78125 27.484375 10.78125 32.3125 
Q 14.796875 37.15625 21.921875 38.8125 
z
M 18.3125 54.390625 
Q 18.3125 48.734375 21.84375 45.5625 
Q 25.390625 42.390625 31.78125 42.390625 
Q 38.140625 42.390625 41.71875 45.5625 
Q 45.3125 48.734375 45.3125 54.390625 
Q 45.3125 60.0625 41.71875 63.234375 
Q 38.140625 66.40625 31.78125 66.40625 
Q 25.390625 66.40625 21.84375 63.234375 
Q 18.3125 60.0625 18.3125 54.390625 
z
" id="DejaVuSans-38"/>
      </defs>
      <g transform="translate(240.289449 308.077932)scale(0.1 -0.1)">
       <use xlink:href="#DejaVuSans-30"/>
       <use x="63.623047" xlink:href="#DejaVuSans-2e"/>
       <use x="95.410156" xlink:href="#DejaVuSans-38"/>
      </g>
     </g>
    </g>
    <g id="xtick_5">
     <g id="line2d_5">
      <g>
       <use style="stroke:#000000;stroke-width:0.8;" x="296.034022" xlink:href="#maef1475375" y="293.479494"/>
      </g>
     </g>
     <g id="text_5">
      <!-- 1.0 -->
      <defs>
       <path d="M 12.40625 8.296875 
L 28.515625 8.296875 
L 28.515625 63.921875 
L 10.984375 60.40625 
L 10.984375 69.390625 
L 28.421875 72.90625 
L 38.28125 72.90625 
L 38.28125 8.296875 
L 54.390625 8.296875 
L 54.390625 0 
L 12.40625 0 
z
" id="DejaVuSans-31"/>
      </defs>
      <g transform="translate(288.08246 308.077932)scale(0.1 -0.1)">
       <use xlink:href="#DejaVuSans-31"/>
       <use x="63.623047" xlink:href="#DejaVuSans-2e"/>
       <use x="95.410156" xlink:href="#DejaVuSans-30"/>
      </g>
     </g>
    </g>
   </g>
   <g id="matplotlib.axis_2">
    <g id="ytick_1">
     <g id="line2d_6">
      <defs>
       <path d="M 0 0 
L -3.5 0 
" id="m4675951003" style="stroke:#000000;stroke-width:0.8;"/>
      </defs>
      <g>
       <use style="stroke:#000000;stroke-width:0.8;" x="57.6" xlink:href="#m4675951003" y="246.217517"/>
      </g>
     </g>
     <g id="text_6">
      <!-- 0.2 -->
      <g transform="translate(34.696875 250.016735)scale(0.1 -0.1)">
       <use xlink:href="#DejaVuSans-30"/>
       <use x="63.623047" xlink:href="#DejaVuSans-2e"/>
       <use x="95.410156" xlink:href="#DejaVuSans-32"/>
      </g>
     </g>
    </g>
    <g id="ytick_2">
     <g id="line2d_7">
      <g>
       <use style="stroke:#000000;stroke-width:0.8;" x="57.6" xlink:href="#m4675951003" y="198.424506"/>
      </g>
     </g>
     <g id="text_7">
      <!-- 0.4 -->
      <g transform="translate(34.696875 202.223724)scale(0.1 -0.1)">
       <use xlink:href="#DejaVuSans-30"/>
       <use x="63.623047" xlink:href="#DejaVuSans-2e"/>
       <use x="95.410156" xlink:href="#DejaVuSans-34"/>
      </g>
     </g>
    </g>
    <g id="ytick_3">
     <g id="line2d_8">
      <g>
       <use style="stroke:#000000;stroke-width:0.8;" x="57.6" xlink:href="#m4675951003" y="150.631494"/>
      </g>
     </g>
     <g id="text_8">
      <!-- 0.6 -->
      <g transform="translate(34.696875 154.430713)scale(0.1 -0.1)">
       <use xlink:href="#DejaVuSans-30"/>
       <use x="63.623047" xlink:href="#DejaVuSans-2e"/>
       <use x="95.410156" xlink:href="#DejaVuSans-36"/>
      </g>
     </g>
    </g>
    <g id="ytick_4">
     <g id="line2d_9">
      <g>
       <use style="stroke:#000000;stroke-width:0.8;" x="57.6" xlink:href="#m4675951003" y="102.838483"/>
      </g>
     </g>
     <g id="text_9">
      <!-- 0.8 -->
      <g transform="translate(34.696875 106.637702)scale(0.1 -0.1)">
       <use xlink:href="#DejaVuSans-30"/>
       <use x="63.623047" xlink:href="#DejaVuSans-2e"/>
       <use x="95.410156" xlink:href="#DejaVuSans-38"/>
      </g>
     </g>
    </g>
   </g>
   <g id="LineCollection_1">
    <path clip-path="url(#pac45f0c449)" d="M 119.651474 293.479494 
L 119.15385 291.355361 
L 118.678906 290.293294 
L 117.926998 289.231227 
L 116.729454 288.16916 
L 114.674206 287.107093 
L 112.82748 286.575115 
L 109.924566 286.045026 
L 107.517145 285.84978 
L 103.268877 285.718591 
L 88.399941 285.547928 
L 84.151673 285.184027 
L 80.965472 284.691886 
L 78.841338 284.206867 
L 76.717204 283.542298 
L 74.593071 282.627896 
L 72.468937 281.344478 
L 71.40687 280.506088 
L 70.344803 279.486825 
L 68.795077 277.548491 
L 67.532135 275.424357 
L 66.562452 273.300223 
L 65.789161 271.176089 
L 64.886037 267.989888 
L 64.006974 263.741621 
L 63.377795 259.493353 
L 62.796311 254.183019 
L 62.15464 245.686483 
L 61.516865 234.003747 
L 60.663077 213.824476 
L 59.928335 190.459004 
L 59.291571 162.845264 
L 58.646918 124.610855 
L 57.974016 69.383375 
L 57.915191 55.576506 
L 57.915191 55.576506 
" style="fill:none;stroke:#000080;stroke-width:1.5;"/>
   </g>
   <g id="LineCollection_2">
    <path clip-path="url(#pac45f0c449)" d="M 286.137178 293.479494 
L 286.510907 291.355361 
L 287.006454 288.819385 
L 287.143625 287.107093 
L 287.132623 283.920892 
L 286.918947 280.734691 
L 285.639193 269.051955 
L 283.950709 256.307152 
L 283.40654 253.120952 
L 282.350187 247.810617 
L 281.563435 244.624416 
L 280.525034 241.438216 
L 279.571985 239.241253 
L 278.252833 237.189948 
L 277.276409 236.127881 
L 276.385784 235.430914 
L 275.323717 234.87821 
L 274.261651 234.528012 
L 272.137517 234.199832 
L 268.951316 234.146726 
L 249.834112 234.527537 
L 226.468639 234.780541 
L 213.723836 235.175711 
L 189.296297 236.062169 
L 182.923896 236.015753 
L 176.551494 235.750201 
L 170.179093 235.273068 
L 161.682558 234.404007 
L 146.813621 232.846146 
L 140.441219 232.402407 
L 134.068818 232.185289 
L 127.696416 232.208422 
L 120.261948 232.494398 
L 112.82748 232.988779 
L 107.517145 233.556633 
L 104.330944 234.131783 
L 102.20681 234.727712 
L 100.082677 235.599642 
L 99.02061 236.176137 
L 97.574197 237.189948 
L 96.386881 238.252015 
L 95.42372 239.314082 
L 94.615541 240.376149 
L 93.35178 242.500283 
L 92.404566 244.624416 
L 91.586141 247.159768 
L 91.186818 248.872684 
L 90.699632 252.058885 
L 89.79347 260.55542 
L 89.462007 261.63614 
L 88.996553 262.679554 
L 88.33049 263.741621 
L 87.337874 264.807867 
L 85.658425 265.865755 
L 85.21374 266.04967 
L 84.151673 266.341755 
L 83.089606 266.47316 
L 82.027539 266.447989 
L 80.965472 266.271278 
L 79.728151 265.865755 
L 78.841338 265.440112 
L 77.779271 264.769952 
L 76.583153 263.741621 
L 75.590945 262.679554 
L 74.102122 260.55542 
L 73.465398 259.493353 
L 72.009057 256.307152 
L 71.216073 254.183019 
L 69.968883 249.934751 
L 68.979906 245.686483 
L 67.806551 239.314082 
L 66.71178 231.879613 
L 65.686885 223.383078 
L 64.641409 212.762409 
L 63.635673 200.017606 
L 62.642407 184.086602 
L 61.659526 163.907331 
L 60.695337 138.417725 
L 59.767137 106.555717 
L 58.738258 63.010974 
L 58.720686 57.700639 
L 58.768213 55.576506 
L 58.768213 55.576506 
" style="fill:none;stroke:#0000e8;stroke-width:1.5;"/>
   </g>
   <g id="LineCollection_3">
    <path clip-path="url(#pac45f0c449)" d="M 290.146546 293.479494 
L 290.539144 288.16916 
L 290.509711 284.982959 
L 290.165813 278.610558 
L 288.751381 258.431286 
L 287.217174 238.252015 
L 286.508154 230.817546 
L 285.549254 222.321011 
L 284.480767 214.886543 
L 283.494752 209.576208 
L 282.4549 205.327941 
L 281.388029 202.14174 
L 280.392308 200.017606 
L 279.571985 198.73539 
L 278.509918 197.691706 
L 277.447851 197.118821 
L 276.385784 196.89041 
L 275.323717 196.90358 
L 273.199584 197.345293 
L 266.827182 199.165366 
L 263.640981 199.712802 
L 260.407867 200.017606 
L 256.206513 200.180257 
L 247.709978 200.209837 
L 212.66177 200.228825 
L 182.923896 200.381282 
L 157.43429 200.791262 
L 129.82055 201.152568 
L 123.448149 201.038879 
L 118.137814 200.702945 
L 113.889546 200.230545 
L 106.455078 199.107293 
L 102.20681 198.563169 
L 99.02061 198.415871 
L 96.896476 198.538886 
L 94.629184 198.955539 
L 92.648208 199.623972 
L 90.524074 200.747644 
L 88.665968 202.14174 
L 87.337874 203.374905 
L 85.21374 205.790017 
L 83.089606 208.61955 
L 79.903405 212.939239 
L 78.841338 214.143536 
L 77.779271 215.099413 
L 76.717204 215.723583 
L 75.655138 215.930993 
L 74.593071 215.63749 
L 73.531004 214.755077 
L 72.27363 212.762409 
L 71.33649 210.638275 
L 70.038276 206.390007 
L 69.047369 202.14174 
L 67.895273 195.769338 
L 66.832648 188.33487 
L 65.740938 178.776268 
L 64.669147 167.093532 
L 63.572496 152.224595 
L 62.501049 134.169457 
L 61.440118 111.866052 
L 60.389242 84.252312 
L 59.576676 58.762706 
L 59.672342 55.576506 
L 59.672342 55.576506 
" style="fill:none;stroke:#0038ff;stroke-width:1.5;"/>
   </g>
   <g id="LineCollection_4">
    <path clip-path="url(#pac45f0c449)" d="M 292.368334 293.479494 
L 292.487979 284.982959 
L 292.158036 277.548491 
L 290.415937 242.500283 
L 289.444883 225.507212 
L 288.491713 211.700342 
L 287.505728 200.017606 
L 286.508483 190.459004 
L 285.544707 183.024535 
L 284.496185 176.652134 
L 283.611 172.403866 
L 282.402502 168.155599 
L 281.600348 166.031465 
L 280.366411 163.907331 
L 279.321452 162.845264 
L 278.509918 162.377338 
L 277.447851 162.240448 
L 276.385784 162.461422 
L 275.323717 162.936133 
L 273.199584 164.312621 
L 269.225015 167.093532 
L 267.351942 168.155599 
L 265.765115 168.89087 
L 263.640981 169.621385 
L 261.516848 170.109033 
L 259.392714 170.403883 
L 256.206513 170.592024 
L 251.958245 170.578145 
L 234.965175 170.26891 
L 107.517145 169.944781 
L 96.896476 169.742192 
L 93.710275 169.91838 
L 91.222314 170.279732 
L 89.462007 170.694313 
L 87.337874 171.438522 
L 85.21374 172.488145 
L 83.089606 173.854429 
L 77.779271 177.74682 
L 76.717204 178.229393 
L 75.655138 178.422984 
L 74.593071 178.220186 
L 73.531004 177.503386 
L 72.468937 176.149289 
L 71.210878 173.465933 
L 70.158952 170.279732 
L 69.107949 166.031465 
L 67.916536 159.659063 
L 66.827219 152.224595 
L 65.709442 142.665993 
L 64.608426 130.983257 
L 63.478409 116.11432 
L 62.432697 99.121249 
L 60.722854 66.197175 
L 60.5311 59.824773 
L 60.685103 55.576506 
L 60.685103 55.576506 
" style="fill:none;stroke:#0094ff;stroke-width:1.5;"/>
   </g>
   <g id="LineCollection_5">
    <path clip-path="url(#pac45f0c449)" d="M 294.062744 293.479494 
L 293.9768 281.796758 
L 292.88816 252.058885 
L 291.63219 221.258944 
L 290.604855 201.079673 
L 289.604909 185.148669 
L 288.61991 172.403866 
L 287.600967 161.783197 
L 286.576375 153.286662 
L 285.608413 146.91426 
L 284.57483 141.603926 
L 283.47398 137.355658 
L 282.758186 135.143242 
L 281.696119 132.815858 
L 280.634052 131.300881 
L 279.571985 130.46337 
L 278.509918 130.1861 
L 277.447851 130.365881 
L 276.287281 130.983257 
L 274.988552 132.045323 
L 273.199584 133.871445 
L 268.951316 138.538704 
L 266.728504 140.541859 
L 264.703048 141.97021 
L 262.578914 143.054619 
L 260.454781 143.766727 
L 258.330647 144.172793 
L 256.206513 144.338922 
L 253.020312 144.274887 
L 248.772045 143.875009 
L 241.337576 143.101975 
L 237.089309 142.860955 
L 231.778974 142.792573 
L 222.220372 142.976658 
L 210.537636 143.130297 
L 189.296297 143.084446 
L 149.999822 143.11612 
L 90.524074 143.326029 
L 87.197432 143.728059 
L 85.21374 144.122848 
L 82.027539 145.042992 
L 77.779271 146.451951 
L 76.717204 146.637609 
L 75.655138 146.634224 
L 74.593071 146.34898 
L 73.531004 145.670252 
L 72.468937 144.471994 
L 71.40687 142.611749 
L 70.212563 139.479792 
L 69.052462 135.231524 
L 67.957999 129.92119 
L 66.783132 122.486721 
L 65.723383 113.990186 
L 64.566275 102.30745 
L 63.466392 88.50058 
L 61.726422 63.010974 
L 61.667287 59.824773 
L 61.848268 56.235372 
L 61.890669 55.576506 
L 61.890669 55.576506 
" style="fill:none;stroke:#0cf4eb;stroke-width:1.5;"/>
   </g>
   <g id="LineCollection_6">
    <path clip-path="url(#pac45f0c449)" d="M 295.595185 293.479494 
L 295.361702 277.548491 
L 294.365809 242.500283 
L 293.198422 208.514141 
L 292.083767 183.024535 
L 290.955075 162.845264 
L 289.889872 147.976327 
L 288.817513 136.293591 
L 287.677557 126.734989 
L 286.703546 120.362587 
L 285.668559 115.052253 
L 284.588501 110.803985 
L 283.503389 107.617784 
L 282.517502 105.493651 
L 281.696119 104.170598 
L 280.634052 103.102607 
L 279.571985 102.588076 
L 278.509918 102.546588 
L 277.447851 102.905664 
L 276.385784 103.597185 
L 275.323717 104.552837 
L 273.199584 106.99551 
L 267.715596 113.990186 
L 265.728424 116.11432 
L 263.640981 117.923342 
L 261.502119 119.30052 
L 259.392714 120.212567 
L 257.26858 120.731125 
L 255.144446 120.914579 
L 253.020312 120.83361 
L 250.896178 120.557494 
L 247.709978 119.918771 
L 239.213442 118.043791 
L 234.965175 117.425644 
L 230.716907 117.098258 
L 226.468639 117.019516 
L 220.476489 117.176387 
L 197.792833 118.016691 
L 181.861829 118.203193 
L 91.586141 118.925098 
L 86.275807 119.168259 
L 80.965472 119.668759 
L 77.779271 119.887959 
L 76.717204 119.830664 
L 75.655138 119.631432 
L 74.593071 119.217896 
L 73.291921 118.238454 
L 72.361968 117.176387 
L 71.154494 115.052253 
L 70.263101 112.928119 
L 69.014961 108.679851 
L 67.870524 103.369517 
L 66.815883 96.997115 
L 65.713119 88.50058 
L 64.382958 75.755777 
L 63.41405 65.135108 
L 63.2105 60.88684 
L 63.291539 58.762706 
L 63.572282 55.576506 
L 63.572282 55.576506 
" style="fill:none;stroke:#56ffa0;stroke-width:1.5;"/>
   </g>
   <g id="LineCollection_7">
    <path clip-path="url(#pac45f0c449)" d="M 300.854688 293.479494 
L 300.746908 287.107093 
L 300.426372 280.734691 
L 299.751257 272.541315 
L 298.614892 261.617487 
L 296.451108 241.438216 
L 295.092431 206.390007 
L 294.087418 177.714201 
L 293.097533 155.410796 
L 292.068203 137.355658 
L 291.046992 123.548788 
L 289.92012 111.866052 
L 288.870202 103.369517 
L 287.87213 96.997115 
L 286.784434 91.686781 
L 285.603101 87.438513 
L 284.858695 85.314379 
L 283.820253 83.028015 
L 282.620712 81.066112 
L 281.696119 79.893986 
L 280.634052 78.877633 
L 279.046023 77.879911 
L 278.509918 77.62753 
L 277.447851 77.314215 
L 276.385784 77.172227 
L 275.323717 77.194004 
L 274.261651 77.372071 
L 272.77559 77.879911 
L 272.137517 78.193938 
L 270.954914 78.941978 
L 269.71924 80.004045 
L 268.746949 81.066112 
L 267.255696 83.190245 
L 265.765115 85.971612 
L 262.578914 92.217241 
L 261.500963 93.810914 
L 260.454781 95.067227 
L 259.392714 96.106612 
L 258.254249 96.997115 
L 256.206513 98.141041 
L 254.082379 98.857548 
L 251.958245 99.240877 
L 249.834112 99.387231 
L 246.647911 99.323722 
L 242.399643 98.945986 
L 233.903108 97.867055 
L 224.344506 96.712383 
L 216.910037 96.032404 
L 209.475569 95.595101 
L 202.0411 95.384291 
L 191.420431 95.343284 
L 164.868758 95.359334 
L 146.813621 95.066126 
L 79.903405 93.577167 
L 77.779271 93.330806 
L 76.717204 93.090887 
L 75.655138 92.719717 
L 74.593071 92.14984 
L 73.531004 91.303754 
L 72.165731 89.562647 
L 71.40687 88.304087 
L 70.183264 85.314379 
L 68.959463 81.066112 
L 68.015666 76.817844 
L 66.769672 69.383375 
L 66.096535 63.804755 
L 66.062405 60.88684 
L 66.304458 58.762706 
L 66.645343 56.638572 
L 66.66942 55.576506 
L 66.66942 55.576506 
" style="fill:none;stroke:#a0ff56;stroke-width:1.5;"/>
   </g>
   <g id="LineCollection_8">
    <path clip-path="url(#pac45f0c449)" d="M 308.34709 293.479494 
L 308.205 284.982959 
L 307.822909 276.486424 
L 307.088749 265.865755 
L 305.88895 252.058885 
L 304.083259 234.003747 
L 302.054016 215.94861 
L 299.914978 198.955539 
L 297.823314 184.086602 
L 296.492435 174.528 
L 294.942571 143.728059 
L 294.042439 125.672922 
L 293.089168 110.803985 
L 292.135151 99.121249 
L 291.220678 90.624714 
L 290.243748 84.252312 
L 289.565613 81.066112 
L 288.689841 77.879911 
L 287.93608 75.755777 
L 286.954529 73.631643 
L 285.585402 71.507509 
L 284.675717 70.445442 
L 283.487082 69.383375 
L 281.83257 68.321309 
L 280.634052 67.784221 
L 278.509918 67.151974 
L 276.385784 66.835918 
L 274.261651 66.74418 
L 272.137517 66.833112 
L 268.871394 67.259242 
L 265.765115 67.944079 
L 262.578914 68.884999 
L 259.392714 70.026527 
L 254.082379 72.212609 
L 247.709978 74.765557 
L 244.516109 75.755777 
L 241.337576 76.436654 
L 238.151375 76.798011 
L 234.965175 76.850841 
L 231.778974 76.640535 
L 227.530706 76.050573 
L 223.282439 75.21722 
L 216.457404 73.631643 
L 199.916967 69.538645 
L 194.606632 68.149238 
L 189.296297 66.553786 
L 187.172164 65.808939 
L 183.985963 64.479374 
L 182.923896 63.963975 
L 180.799762 62.648915 
L 179.737695 61.809199 
L 178.675628 60.639759 
L 178.132225 59.824773 
L 177.613561 58.337268 
L 177.485542 57.700639 
L 177.492577 55.576506 
L 177.492577 55.576506 
" style="fill:none;stroke:#ebff0c;stroke-width:1.5;"/>
   </g>
   <g id="LineCollection_9">
    <path clip-path="url(#pac45f0c449)" d="M 316.039846 293.479494 
L 315.917062 283.920892 
L 315.542056 273.300223 
L 314.842822 260.55542 
L 313.734006 244.624416 
L 312.182658 225.507212 
L 310.371926 205.968505 
L 308.512609 188.33487 
L 306.601699 172.403866 
L 304.717236 158.596996 
L 302.910466 146.91426 
L 301.054707 136.293591 
L 299.168163 126.734989 
L 297.280526 118.238454 
L 296.547683 115.052253 
L 293.618627 81.066112 
L 292.957529 76.817844 
L 292.295234 73.631643 
L 291.364995 70.445442 
L 290.958977 69.383375 
L 289.928045 67.259242 
L 289.130587 66.023474 
L 288.06852 64.754248 
L 287.006454 63.763471 
L 284.88232 62.28627 
L 281.696119 60.69184 
L 277.660461 58.762706 
L 276.372593 57.700639 
L 275.803168 56.638572 
L 275.745295 55.576506 
L 275.745295 55.576506 
" style="fill:none;stroke:#ffab00;stroke-width:1.5;"/>
   </g>
   <g id="LineCollection_10">
    <path clip-path="url(#pac45f0c449)" d="M 323.880083 293.479494 
L 323.762654 281.796758 
L 323.412502 269.051955 
L 322.739363 253.120952 
L 321.659565 232.94168 
L 320.247712 210.638275 
L 318.678604 189.396937 
L 317.124843 171.341799 
L 315.528972 155.410796 
L 313.917787 141.603926 
L 312.337357 129.92119 
L 310.680361 119.30052 
L 308.964364 109.741918 
L 307.185725 101.121845 
L 305.453679 93.810914 
L 303.716702 87.438513 
L 302.044656 82.128178 
L 300.50031 77.879911 
L 298.68722 73.631643 
L 297.054965 70.445442 
L 296.51882 69.383375 
L 295.724831 66.197175 
L 295.439649 65.135108 
L 294.69138 61.948907 
L 292.906502 55.576506 
L 292.906502 55.576506 
" style="fill:none;stroke:#ff5500;stroke-width:1.5;"/>
   </g>
   <g id="LineCollection_11">
    <path clip-path="url(#pac45f0c449)" d="M 331.82023 293.479494 
L 331.699683 277.548491 
L 331.326941 259.493353 
L 330.551197 233.978677 
L 329.48913 206.216061 
L 328.31265 180.900401 
L 327.111959 159.659063 
L 325.875191 141.603926 
L 324.641226 126.734989 
L 323.37587 113.990186 
L 322.012557 102.30745 
L 320.433656 90.624714 
L 316.744327 64.41728 
L 316.408638 59.824773 
L 316.311662 55.576506 
L 316.311662 55.576506 
" style="fill:none;stroke:#e80000;stroke-width:1.5;"/>
   </g>
   <g id="LineCollection_12">
    <path clip-path="url(#pac45f0c449)" d="M 339.818011 293.479494 
L 339.702148 265.865755 
L 338.956188 200.017606 
L 338.319997 162.845264 
L 337.55329 129.92119 
L 336.822539 108.679851 
L 335.14477 63.010974 
L 335.07181 55.576506 
L 335.07181 55.576506 
" style="fill:none;stroke:#800000;stroke-width:1.5;"/>
   </g>
   <g id="patch_3">
    <path d="M 57.6 293.479494 
L 57.6 55.576506 
" style="fill:none;stroke:#000000;stroke-linecap:square;stroke-linejoin:miter;stroke-width:0.8;"/>
   </g>
   <g id="patch_4">
    <path d="M 343.296 293.479494 
L 343.296 55.576506 
" style="fill:none;stroke:#000000;stroke-linecap:square;stroke-linejoin:miter;stroke-width:0.8;"/>
   </g>
   <g id="patch_5">
    <path d="M 57.6 293.479494 
L 343.296 293.479494 
" style="fill:none;stroke:#000000;stroke-linecap:square;stroke-linejoin:miter;stroke-width:0.8;"/>
   </g>
   <g id="patch_6">
    <path d="M 57.6 55.576506 
L 343.296 55.576506 
" style="fill:none;stroke:#000000;stroke-linecap:square;stroke-linejoin:miter;stroke-width:0.8;"/>
   </g>
   <g id="text_10">
    <!-- Time:0.11193 s -->
    <defs>
     <path d="M -0.296875 72.90625 
L 61.375 72.90625 
L 61.375 64.59375 
L 35.5 64.59375 
L 35.5 0 
L 25.59375 0 
L 25.59375 64.59375 
L -0.296875 64.59375 
z
" id="DejaVuSans-54"/>
     <path d="M 9.421875 54.6875 
L 18.40625 54.6875 
L 18.40625 0 
L 9.421875 0 
z
M 9.421875 75.984375 
L 18.40625 75.984375 
L 18.40625 64.59375 
L 9.421875 64.59375 
z
" id="DejaVuSans-69"/>
     <path d="M 52 44.1875 
Q 55.375 50.25 60.0625 53.125 
Q 64.75 56 71.09375 56 
Q 79.640625 56 84.28125 50.015625 
Q 88.921875 44.046875 88.921875 33.015625 
L 88.921875 0 
L 79.890625 0 
L 79.890625 32.71875 
Q 79.890625 40.578125 77.09375 44.375 
Q 74.3125 48.1875 68.609375 48.1875 
Q 61.625 48.1875 57.5625 43.546875 
Q 53.515625 38.921875 53.515625 30.90625 
L 53.515625 0 
L 44.484375 0 
L 44.484375 32.71875 
Q 44.484375 40.625 41.703125 44.40625 
Q 38.921875 48.1875 33.109375 48.1875 
Q 26.21875 48.1875 22.15625 43.53125 
Q 18.109375 38.875 18.109375 30.90625 
L 18.109375 0 
L 9.078125 0 
L 9.078125 54.6875 
L 18.109375 54.6875 
L 18.109375 46.1875 
Q 21.1875 51.21875 25.484375 53.609375 
Q 29.78125 56 35.6875 56 
Q 41.65625 56 45.828125 52.96875 
Q 50 49.953125 52 44.1875 
z
" id="DejaVuSans-6d"/>
     <path d="M 56.203125 29.59375 
L 56.203125 25.203125 
L 14.890625 25.203125 
Q 15.484375 15.921875 20.484375 11.0625 
Q 25.484375 6.203125 34.421875 6.203125 
Q 39.59375 6.203125 44.453125 7.46875 
Q 49.3125 8.734375 54.109375 11.28125 
L 54.109375 2.78125 
Q 49.265625 0.734375 44.1875 -0.34375 
Q 39.109375 -1.421875 33.890625 -1.421875 
Q 20.796875 -1.421875 13.15625 6.1875 
Q 5.515625 13.8125 5.515625 26.8125 
Q 5.515625 40.234375 12.765625 48.109375 
Q 20.015625 56 32.328125 56 
Q 43.359375 56 49.78125 48.890625 
Q 56.203125 41.796875 56.203125 29.59375 
z
M 47.21875 32.234375 
Q 47.125 39.59375 43.09375 43.984375 
Q 39.0625 48.390625 32.421875 48.390625 
Q 24.90625 48.390625 20.390625 44.140625 
Q 15.875 39.890625 15.1875 32.171875 
z
" id="DejaVuSans-65"/>
     <path d="M 11.71875 12.40625 
L 22.015625 12.40625 
L 22.015625 0 
L 11.71875 0 
z
M 11.71875 51.703125 
L 22.015625 51.703125 
L 22.015625 39.3125 
L 11.71875 39.3125 
z
" id="DejaVuSans-3a"/>
     <path d="M 10.984375 1.515625 
L 10.984375 10.5 
Q 14.703125 8.734375 18.5 7.8125 
Q 22.3125 6.890625 25.984375 6.890625 
Q 35.75 6.890625 40.890625 13.453125 
Q 46.046875 20.015625 46.78125 33.40625 
Q 43.953125 29.203125 39.59375 26.953125 
Q 35.25 24.703125 29.984375 24.703125 
Q 19.046875 24.703125 12.671875 31.3125 
Q 6.296875 37.9375 6.296875 49.421875 
Q 6.296875 60.640625 12.9375 67.421875 
Q 19.578125 74.21875 30.609375 74.21875 
Q 43.265625 74.21875 49.921875 64.515625 
Q 56.59375 54.828125 56.59375 36.375 
Q 56.59375 19.140625 48.40625 8.859375 
Q 40.234375 -1.421875 26.421875 -1.421875 
Q 22.703125 -1.421875 18.890625 -0.6875 
Q 15.09375 0.046875 10.984375 1.515625 
z
M 30.609375 32.421875 
Q 37.25 32.421875 41.125 36.953125 
Q 45.015625 41.5 45.015625 49.421875 
Q 45.015625 57.28125 41.125 61.84375 
Q 37.25 66.40625 30.609375 66.40625 
Q 23.96875 66.40625 20.09375 61.84375 
Q 16.21875 57.28125 16.21875 49.421875 
Q 16.21875 41.5 20.09375 36.953125 
Q 23.96875 32.421875 30.609375 32.421875 
z
" id="DejaVuSans-39"/>
     <path d="M 40.578125 39.3125 
Q 47.65625 37.796875 51.625 33 
Q 55.609375 28.21875 55.609375 21.1875 
Q 55.609375 10.40625 48.1875 4.484375 
Q 40.765625 -1.421875 27.09375 -1.421875 
Q 22.515625 -1.421875 17.65625 -0.515625 
Q 12.796875 0.390625 7.625 2.203125 
L 7.625 11.71875 
Q 11.71875 9.328125 16.59375 8.109375 
Q 21.484375 6.890625 26.8125 6.890625 
Q 36.078125 6.890625 40.9375 10.546875 
Q 45.796875 14.203125 45.796875 21.1875 
Q 45.796875 27.640625 41.28125 31.265625 
Q 36.765625 34.90625 28.71875 34.90625 
L 20.21875 34.90625 
L 20.21875 43.015625 
L 29.109375 43.015625 
Q 36.375 43.015625 40.234375 45.921875 
Q 44.09375 48.828125 44.09375 54.296875 
Q 44.09375 59.90625 40.109375 62.90625 
Q 36.140625 65.921875 28.71875 65.921875 
Q 24.65625 65.921875 20.015625 65.03125 
Q 15.375 64.15625 9.8125 62.3125 
L 9.8125 71.09375 
Q 15.4375 72.65625 20.34375 73.4375 
Q 25.25 74.21875 29.59375 74.21875 
Q 40.828125 74.21875 47.359375 69.109375 
Q 53.90625 64.015625 53.90625 55.328125 
Q 53.90625 49.265625 50.4375 45.09375 
Q 46.96875 40.921875 40.578125 39.3125 
z
" id="DejaVuSans-33"/>
     <path id="DejaVuSans-20"/>
     <path d="M 44.28125 53.078125 
L 44.28125 44.578125 
Q 40.484375 46.53125 36.375 47.5 
Q 32.28125 48.484375 27.875 48.484375 
Q 21.1875 48.484375 17.84375 46.4375 
Q 14.5 44.390625 14.5 40.28125 
Q 14.5 37.15625 16.890625 35.375 
Q 19.28125 33.59375 26.515625 31.984375 
L 29.59375 31.296875 
Q 39.15625 29.25 43.1875 25.515625 
Q 47.21875 21.78125 47.21875 15.09375 
Q 47.21875 7.46875 41.1875 3.015625 
Q 35.15625 -1.421875 24.609375 -1.421875 
Q 20.21875 -1.421875 15.453125 -0.5625 
Q 10.6875 0.296875 5.421875 2 
L 5.421875 11.28125 
Q 10.40625 8.6875 15.234375 7.390625 
Q 20.0625 6.109375 24.8125 6.109375 
Q 31.15625 6.109375 34.5625 8.28125 
Q 37.984375 10.453125 37.984375 14.40625 
Q 37.984375 18.0625 35.515625 20.015625 
Q 33.0625 21.96875 24.703125 23.78125 
L 21.578125 24.515625 
Q 13.234375 26.265625 9.515625 29.90625 
Q 5.8125 33.546875 5.8125 39.890625 
Q 5.8125 47.609375 11.28125 51.796875 
Q 16.75 56 26.8125 56 
Q 31.78125 56 36.171875 55.265625 
Q 40.578125 54.546875 44.28125 53.078125 
z
" id="DejaVuSans-73"/>
    </defs>
    <g transform="translate(153.717375 49.576506)scale(0.12 -0.12)">
     <use xlink:href="#DejaVuSans-54"/>
     <use x="61.037109" xlink:href="#DejaVuSans-69"/>
     <use x="88.820312" xlink:href="#DejaVuSans-6d"/>
     <use x="186.232422" xlink:href="#DejaVuSans-65"/>
     <use x="247.755859" xlink:href="#DejaVuSans-3a"/>
     <use x="281.447266" xlink:href="#DejaVuSans-30"/>
     <use x="345.070312" xlink:href="#DejaVuSans-2e"/>
     <use x="376.857422" xlink:href="#DejaVuSans-31"/>
     <use x="440.480469" xlink:href="#DejaVuSans-31"/>
     <use x="504.103516" xlink:href="#DejaVuSans-31"/>
     <use x="567.726562" xlink:href="#DejaVuSans-39"/>
     <use x="631.349609" xlink:href="#DejaVuSans-33"/>
     <use x="694.972656" xlink:href="#DejaVuSans-20"/>
     <use x="726.759766" xlink:href="#DejaVuSans-73"/>
    </g>
   </g>
  </g>
  <g id="axes_2">
   <g id="patch_7">
    <path clip-path="url(#p4f75f35087)" d="M 361.152 307.584 
L 361.152 283.392 
L 361.152 65.664 
L 361.152 41.472 
L 374.4576 41.472 
L 374.4576 65.664 
L 374.4576 283.392 
L 374.4576 307.584 
z
" style="fill:#ffffff;stroke:#ffffff;stroke-linejoin:miter;stroke-width:0.01;"/>
   </g>
   <g id="matplotlib.axis_3"/>
   <g id="matplotlib.axis_4">
    <g id="ytick_5">
     <g id="line2d_10">
      <defs>
       <path d="M 0 0 
L 3.5 0 
" id="mfe5a8a0834" style="stroke:#000000;stroke-width:0.8;"/>
      </defs>
      <g>
       <use style="stroke:#000000;stroke-width:0.8;" x="374.4576" xlink:href="#mfe5a8a0834" y="307.584"/>
      </g>
     </g>
     <g id="text_11">
      <!-- 0.08 -->
      <g transform="translate(381.4576 311.383219)scale(0.1 -0.1)">
       <use xlink:href="#DejaVuSans-30"/>
       <use x="63.623047" xlink:href="#DejaVuSans-2e"/>
       <use x="95.410156" xlink:href="#DejaVuSans-30"/>
       <use x="159.033203" xlink:href="#DejaVuSans-38"/>
      </g>
     </g>
    </g>
    <g id="ytick_6">
     <g id="line2d_11">
      <g>
       <use style="stroke:#000000;stroke-width:0.8;" x="374.4576" xlink:href="#mfe5a8a0834" y="259.2"/>
      </g>
     </g>
     <g id="text_12">
      <!-- 0.24 -->
      <g transform="translate(381.4576 262.999219)scale(0.1 -0.1)">
       <use xlink:href="#DejaVuSans-30"/>
       <use x="63.623047" xlink:href="#DejaVuSans-2e"/>
       <use x="95.410156" xlink:href="#DejaVuSans-32"/>
       <use x="159.033203" xlink:href="#DejaVuSans-34"/>
      </g>
     </g>
    </g>
    <g id="ytick_7">
     <g id="line2d_12">
      <g>
       <use style="stroke:#000000;stroke-width:0.8;" x="374.4576" xlink:href="#mfe5a8a0834" y="210.816"/>
      </g>
     </g>
     <g id="text_13">
      <!-- 0.40 -->
      <g transform="translate(381.4576 214.615219)scale(0.1 -0.1)">
       <use xlink:href="#DejaVuSans-30"/>
       <use x="63.623047" xlink:href="#DejaVuSans-2e"/>
       <use x="95.410156" xlink:href="#DejaVuSans-34"/>
       <use x="159.033203" xlink:href="#DejaVuSans-30"/>
      </g>
     </g>
    </g>
    <g id="ytick_8">
     <g id="line2d_13">
      <g>
       <use style="stroke:#000000;stroke-width:0.8;" x="374.4576" xlink:href="#mfe5a8a0834" y="162.432"/>
      </g>
     </g>
     <g id="text_14">
      <!-- 0.56 -->
      <defs>
       <path d="M 10.796875 72.90625 
L 49.515625 72.90625 
L 49.515625 64.59375 
L 19.828125 64.59375 
L 19.828125 46.734375 
Q 21.96875 47.46875 24.109375 47.828125 
Q 26.265625 48.1875 28.421875 48.1875 
Q 40.625 48.1875 47.75 41.5 
Q 54.890625 34.8125 54.890625 23.390625 
Q 54.890625 11.625 47.5625 5.09375 
Q 40.234375 -1.421875 26.90625 -1.421875 
Q 22.3125 -1.421875 17.546875 -0.640625 
Q 12.796875 0.140625 7.71875 1.703125 
L 7.71875 11.625 
Q 12.109375 9.234375 16.796875 8.0625 
Q 21.484375 6.890625 26.703125 6.890625 
Q 35.15625 6.890625 40.078125 11.328125 
Q 45.015625 15.765625 45.015625 23.390625 
Q 45.015625 31 40.078125 35.4375 
Q 35.15625 39.890625 26.703125 39.890625 
Q 22.75 39.890625 18.8125 39.015625 
Q 14.890625 38.140625 10.796875 36.28125 
z
" id="DejaVuSans-35"/>
      </defs>
      <g transform="translate(381.4576 166.231219)scale(0.1 -0.1)">
       <use xlink:href="#DejaVuSans-30"/>
       <use x="63.623047" xlink:href="#DejaVuSans-2e"/>
       <use x="95.410156" xlink:href="#DejaVuSans-35"/>
       <use x="159.033203" xlink:href="#DejaVuSans-36"/>
      </g>
     </g>
    </g>
    <g id="ytick_9">
     <g id="line2d_14">
      <g>
       <use style="stroke:#000000;stroke-width:0.8;" x="374.4576" xlink:href="#mfe5a8a0834" y="114.048"/>
      </g>
     </g>
     <g id="text_15">
      <!-- 0.72 -->
      <defs>
       <path d="M 8.203125 72.90625 
L 55.078125 72.90625 
L 55.078125 68.703125 
L 28.609375 0 
L 18.3125 0 
L 43.21875 64.59375 
L 8.203125 64.59375 
z
" id="DejaVuSans-37"/>
      </defs>
      <g transform="translate(381.4576 117.847219)scale(0.1 -0.1)">
       <use xlink:href="#DejaVuSans-30"/>
       <use x="63.623047" xlink:href="#DejaVuSans-2e"/>
       <use x="95.410156" xlink:href="#DejaVuSans-37"/>
       <use x="159.033203" xlink:href="#DejaVuSans-32"/>
      </g>
     </g>
    </g>
    <g id="ytick_10">
     <g id="line2d_15">
      <g>
       <use style="stroke:#000000;stroke-width:0.8;" x="374.4576" xlink:href="#mfe5a8a0834" y="65.664"/>
      </g>
     </g>
     <g id="text_16">
      <!-- 0.88 -->
      <g transform="translate(381.4576 69.463219)scale(0.1 -0.1)">
       <use xlink:href="#DejaVuSans-30"/>
       <use x="63.623047" xlink:href="#DejaVuSans-2e"/>
       <use x="95.410156" xlink:href="#DejaVuSans-38"/>
       <use x="159.033203" xlink:href="#DejaVuSans-38"/>
      </g>
     </g>
    </g>
   </g>
   <g id="LineCollection_13">
    <path clip-path="url(#p4f75f35087)" d="M 361.152 307.584 
L 374.4576 307.584 
" style="fill:none;stroke:#000080;stroke-width:1.5;"/>
    <path clip-path="url(#p4f75f35087)" d="M 361.152 283.392 
L 374.4576 283.392 
" style="fill:none;stroke:#0000e8;stroke-width:1.5;"/>
    <path clip-path="url(#p4f75f35087)" d="M 361.152 259.2 
L 374.4576 259.2 
" style="fill:none;stroke:#0038ff;stroke-width:1.5;"/>
    <path clip-path="url(#p4f75f35087)" d="M 361.152 235.008 
L 374.4576 235.008 
" style="fill:none;stroke:#0094ff;stroke-width:1.5;"/>
    <path clip-path="url(#p4f75f35087)" d="M 361.152 210.816 
L 374.4576 210.816 
" style="fill:none;stroke:#0cf4eb;stroke-width:1.5;"/>
    <path clip-path="url(#p4f75f35087)" d="M 361.152 186.624 
L 374.4576 186.624 
" style="fill:none;stroke:#56ffa0;stroke-width:1.5;"/>
    <path clip-path="url(#p4f75f35087)" d="M 361.152 162.432 
L 374.4576 162.432 
" style="fill:none;stroke:#a0ff56;stroke-width:1.5;"/>
    <path clip-path="url(#p4f75f35087)" d="M 361.152 138.24 
L 374.4576 138.24 
" style="fill:none;stroke:#ebff0c;stroke-width:1.5;"/>
    <path clip-path="url(#p4f75f35087)" d="M 361.152 114.048 
L 374.4576 114.048 
" style="fill:none;stroke:#ffab00;stroke-width:1.5;"/>
    <path clip-path="url(#p4f75f35087)" d="M 361.152 89.856 
L 374.4576 89.856 
" style="fill:none;stroke:#ff5500;stroke-width:1.5;"/>
    <path clip-path="url(#p4f75f35087)" d="M 361.152 65.664 
L 374.4576 65.664 
" style="fill:none;stroke:#e80000;stroke-width:1.5;"/>
    <path clip-path="url(#p4f75f35087)" d="M 361.152 41.472 
L 374.4576 41.472 
" style="fill:none;stroke:#800000;stroke-width:1.5;"/>
   </g>
   <g id="patch_8">
    <path d="M 361.152 307.584 
L 361.152 283.392 
L 361.152 65.664 
L 361.152 41.472 
L 374.4576 41.472 
L 374.4576 65.664 
L 374.4576 283.392 
L 374.4576 307.584 
z
" style="fill:none;stroke:#000000;stroke-linejoin:miter;stroke-width:0.8;"/>
   </g>
  </g>
 </g>
 <defs>
  <clipPath id="pac45f0c449">
   <rect height="237.902989" width="285.696" x="57.6" y="55.576506"/>
  </clipPath>
  <clipPath id="p4f75f35087">
   <rect height="266.112" width="13.3056" x="361.152" y="41.472"/>
  </clipPath>
 </defs>
</svg>
