<?xml version="1.0" encoding="utf-8" standalone="no"?>
<!DOCTYPE svg PUBLIC "-//W3C//DTD SVG 1.1//EN"
  "http://www.w3.org/Graphics/SVG/1.1/DTD/svg11.dtd">
<!-- Created with matplotlib (http://matplotlib.org/) -->
<svg height="345.6pt" version="1.1" viewBox="0 0 460.8 345.6" width="460.8pt" xmlns="http://www.w3.org/2000/svg" xmlns:xlink="http://www.w3.org/1999/xlink">
 <defs>
  <style type="text/css">
*{stroke-linecap:butt;stroke-linejoin:round;}
  </style>
 </defs>
 <g id="figure_1">
  <g id="patch_1">
   <path d="M 0 345.6 
L 460.8 345.6 
L 460.8 0 
L 0 0 
z
" style="fill:#ffffff;"/>
  </g>
  <g id="axes_1">
   <g id="patch_2">
    <path d="M 57.6 293.479494 
L 343.296 293.479494 
L 343.296 55.576506 
L 57.6 55.576506 
z
" style="fill:#ffffff;"/>
   </g>
   <g id="matplotlib.axis_1">
    <g id="xtick_1">
     <g id="line2d_1">
      <defs>
       <path d="M 0 0 
L 0 3.5 
" id="m95169d48c2" style="stroke:#000000;stroke-width:0.8;"/>
      </defs>
      <g>
       <use style="stroke:#000000;stroke-width:0.8;" x="104.861978" xlink:href="#m95169d48c2" y="293.479494"/>
      </g>
     </g>
     <g id="text_1">
      <!-- 0.2 -->
      <defs>
       <path d="M 31.78125 66.40625 
Q 24.171875 66.40625 20.328125 58.90625 
Q 16.5 51.421875 16.5 36.375 
Q 16.5 21.390625 20.328125 13.890625 
Q 24.171875 6.390625 31.78125 6.390625 
Q 39.453125 6.390625 43.28125 13.890625 
Q 47.125 21.390625 47.125 36.375 
Q 47.125 51.421875 43.28125 58.90625 
Q 39.453125 66.40625 31.78125 66.40625 
z
M 31.78125 74.21875 
Q 44.046875 74.21875 50.515625 64.515625 
Q 56.984375 54.828125 56.984375 36.375 
Q 56.984375 17.96875 50.515625 8.265625 
Q 44.046875 -1.421875 31.78125 -1.421875 
Q 19.53125 -1.421875 13.0625 8.265625 
Q 6.59375 17.96875 6.59375 36.375 
Q 6.59375 54.828125 13.0625 64.515625 
Q 19.53125 74.21875 31.78125 74.21875 
z
" id="DejaVuSans-30"/>
       <path d="M 10.6875 12.40625 
L 21 12.40625 
L 21 0 
L 10.6875 0 
z
" id="DejaVuSans-2e"/>
       <path d="M 19.1875 8.296875 
L 53.609375 8.296875 
L 53.609375 0 
L 7.328125 0 
L 7.328125 8.296875 
Q 12.9375 14.109375 22.625 23.890625 
Q 32.328125 33.6875 34.8125 36.53125 
Q 39.546875 41.84375 41.421875 45.53125 
Q 43.3125 49.21875 43.3125 52.78125 
Q 43.3125 58.59375 39.234375 62.25 
Q 35.15625 65.921875 28.609375 65.921875 
Q 23.96875 65.921875 18.8125 64.3125 
Q 13.671875 62.703125 7.8125 59.421875 
L 7.8125 69.390625 
Q 13.765625 71.78125 18.9375 73 
Q 24.125 74.21875 28.421875 74.21875 
Q 39.75 74.21875 46.484375 68.546875 
Q 53.21875 62.890625 53.21875 53.421875 
Q 53.21875 48.921875 51.53125 44.890625 
Q 49.859375 40.875 45.40625 35.40625 
Q 44.1875 33.984375 37.640625 27.21875 
Q 31.109375 20.453125 19.1875 8.296875 
z
" id="DejaVuSans-32"/>
      </defs>
      <g transform="translate(96.910415 308.077932)scale(0.1 -0.1)">
       <use xlink:href="#DejaVuSans-30"/>
       <use x="63.623047" xlink:href="#DejaVuSans-2e"/>
       <use x="95.410156" xlink:href="#DejaVuSans-32"/>
      </g>
     </g>
    </g>
    <g id="xtick_2">
     <g id="line2d_2">
      <g>
       <use style="stroke:#000000;stroke-width:0.8;" x="152.654989" xlink:href="#m95169d48c2" y="293.479494"/>
      </g>
     </g>
     <g id="text_2">
      <!-- 0.4 -->
      <defs>
       <path d="M 37.796875 64.3125 
L 12.890625 25.390625 
L 37.796875 25.390625 
z
M 35.203125 72.90625 
L 47.609375 72.90625 
L 47.609375 25.390625 
L 58.015625 25.390625 
L 58.015625 17.1875 
L 47.609375 17.1875 
L 47.609375 0 
L 37.796875 0 
L 37.796875 17.1875 
L 4.890625 17.1875 
L 4.890625 26.703125 
z
" id="DejaVuSans-34"/>
      </defs>
      <g transform="translate(144.703426 308.077932)scale(0.1 -0.1)">
       <use xlink:href="#DejaVuSans-30"/>
       <use x="63.623047" xlink:href="#DejaVuSans-2e"/>
       <use x="95.410156" xlink:href="#DejaVuSans-34"/>
      </g>
     </g>
    </g>
    <g id="xtick_3">
     <g id="line2d_3">
      <g>
       <use style="stroke:#000000;stroke-width:0.8;" x="200.448" xlink:href="#m95169d48c2" y="293.479494"/>
      </g>
     </g>
     <g id="text_3">
      <!-- 0.6 -->
      <defs>
       <path d="M 33.015625 40.375 
Q 26.375 40.375 22.484375 35.828125 
Q 18.609375 31.296875 18.609375 23.390625 
Q 18.609375 15.53125 22.484375 10.953125 
Q 26.375 6.390625 33.015625 6.390625 
Q 39.65625 6.390625 43.53125 10.953125 
Q 47.40625 15.53125 47.40625 23.390625 
Q 47.40625 31.296875 43.53125 35.828125 
Q 39.65625 40.375 33.015625 40.375 
z
M 52.59375 71.296875 
L 52.59375 62.3125 
Q 48.875 64.0625 45.09375 64.984375 
Q 41.3125 65.921875 37.59375 65.921875 
Q 27.828125 65.921875 22.671875 59.328125 
Q 17.53125 52.734375 16.796875 39.40625 
Q 19.671875 43.65625 24.015625 45.921875 
Q 28.375 48.1875 33.59375 48.1875 
Q 44.578125 48.1875 50.953125 41.515625 
Q 57.328125 34.859375 57.328125 23.390625 
Q 57.328125 12.15625 50.6875 5.359375 
Q 44.046875 -1.421875 33.015625 -1.421875 
Q 20.359375 -1.421875 13.671875 8.265625 
Q 6.984375 17.96875 6.984375 36.375 
Q 6.984375 53.65625 15.1875 63.9375 
Q 23.390625 74.21875 37.203125 74.21875 
Q 40.921875 74.21875 44.703125 73.484375 
Q 48.484375 72.75 52.59375 71.296875 
z
" id="DejaVuSans-36"/>
      </defs>
      <g transform="translate(192.496438 308.077932)scale(0.1 -0.1)">
       <use xlink:href="#DejaVuSans-30"/>
       <use x="63.623047" xlink:href="#DejaVuSans-2e"/>
       <use x="95.410156" xlink:href="#DejaVuSans-36"/>
      </g>
     </g>
    </g>
    <g id="xtick_4">
     <g id="line2d_4">
      <g>
       <use style="stroke:#000000;stroke-width:0.8;" x="248.241011" xlink:href="#m95169d48c2" y="293.479494"/>
      </g>
     </g>
     <g id="text_4">
      <!-- 0.8 -->
      <defs>
       <path d="M 31.78125 34.625 
Q 24.75 34.625 20.71875 30.859375 
Q 16.703125 27.09375 16.703125 20.515625 
Q 16.703125 13.921875 20.71875 10.15625 
Q 24.75 6.390625 31.78125 6.390625 
Q 38.8125 6.390625 42.859375 10.171875 
Q 46.921875 13.96875 46.921875 20.515625 
Q 46.921875 27.09375 42.890625 30.859375 
Q 38.875 34.625 31.78125 34.625 
z
M 21.921875 38.8125 
Q 15.578125 40.375 12.03125 44.71875 
Q 8.5 49.078125 8.5 55.328125 
Q 8.5 64.0625 14.71875 69.140625 
Q 20.953125 74.21875 31.78125 74.21875 
Q 42.671875 74.21875 48.875 69.140625 
Q 55.078125 64.0625 55.078125 55.328125 
Q 55.078125 49.078125 51.53125 44.71875 
Q 48 40.375 41.703125 38.8125 
Q 48.828125 37.15625 52.796875 32.3125 
Q 56.78125 27.484375 56.78125 20.515625 
Q 56.78125 9.90625 50.3125 4.234375 
Q 43.84375 -1.421875 31.78125 -1.421875 
Q 19.734375 -1.421875 13.25 4.234375 
Q 6.78125 9.90625 6.78125 20.515625 
Q 6.78125 27.484375 10.78125 32.3125 
Q 14.796875 37.15625 21.921875 38.8125 
z
M 18.3125 54.390625 
Q 18.3125 48.734375 21.84375 45.5625 
Q 25.390625 42.390625 31.78125 42.390625 
Q 38.140625 42.390625 41.71875 45.5625 
Q 45.3125 48.734375 45.3125 54.390625 
Q 45.3125 60.0625 41.71875 63.234375 
Q 38.140625 66.40625 31.78125 66.40625 
Q 25.390625 66.40625 21.84375 63.234375 
Q 18.3125 60.0625 18.3125 54.390625 
z
" id="DejaVuSans-38"/>
      </defs>
      <g transform="translate(240.289449 308.077932)scale(0.1 -0.1)">
       <use xlink:href="#DejaVuSans-30"/>
       <use x="63.623047" xlink:href="#DejaVuSans-2e"/>
       <use x="95.410156" xlink:href="#DejaVuSans-38"/>
      </g>
     </g>
    </g>
    <g id="xtick_5">
     <g id="line2d_5">
      <g>
       <use style="stroke:#000000;stroke-width:0.8;" x="296.034022" xlink:href="#m95169d48c2" y="293.479494"/>
      </g>
     </g>
     <g id="text_5">
      <!-- 1.0 -->
      <defs>
       <path d="M 12.40625 8.296875 
L 28.515625 8.296875 
L 28.515625 63.921875 
L 10.984375 60.40625 
L 10.984375 69.390625 
L 28.421875 72.90625 
L 38.28125 72.90625 
L 38.28125 8.296875 
L 54.390625 8.296875 
L 54.390625 0 
L 12.40625 0 
z
" id="DejaVuSans-31"/>
      </defs>
      <g transform="translate(288.08246 308.077932)scale(0.1 -0.1)">
       <use xlink:href="#DejaVuSans-31"/>
       <use x="63.623047" xlink:href="#DejaVuSans-2e"/>
       <use x="95.410156" xlink:href="#DejaVuSans-30"/>
      </g>
     </g>
    </g>
   </g>
   <g id="matplotlib.axis_2">
    <g id="ytick_1">
     <g id="line2d_6">
      <defs>
       <path d="M 0 0 
L -3.5 0 
" id="meff56426b7" style="stroke:#000000;stroke-width:0.8;"/>
      </defs>
      <g>
       <use style="stroke:#000000;stroke-width:0.8;" x="57.6" xlink:href="#meff56426b7" y="246.217517"/>
      </g>
     </g>
     <g id="text_6">
      <!-- 0.2 -->
      <g transform="translate(34.696875 250.016735)scale(0.1 -0.1)">
       <use xlink:href="#DejaVuSans-30"/>
       <use x="63.623047" xlink:href="#DejaVuSans-2e"/>
       <use x="95.410156" xlink:href="#DejaVuSans-32"/>
      </g>
     </g>
    </g>
    <g id="ytick_2">
     <g id="line2d_7">
      <g>
       <use style="stroke:#000000;stroke-width:0.8;" x="57.6" xlink:href="#meff56426b7" y="198.424506"/>
      </g>
     </g>
     <g id="text_7">
      <!-- 0.4 -->
      <g transform="translate(34.696875 202.223724)scale(0.1 -0.1)">
       <use xlink:href="#DejaVuSans-30"/>
       <use x="63.623047" xlink:href="#DejaVuSans-2e"/>
       <use x="95.410156" xlink:href="#DejaVuSans-34"/>
      </g>
     </g>
    </g>
    <g id="ytick_3">
     <g id="line2d_8">
      <g>
       <use style="stroke:#000000;stroke-width:0.8;" x="57.6" xlink:href="#meff56426b7" y="150.631494"/>
      </g>
     </g>
     <g id="text_8">
      <!-- 0.6 -->
      <g transform="translate(34.696875 154.430713)scale(0.1 -0.1)">
       <use xlink:href="#DejaVuSans-30"/>
       <use x="63.623047" xlink:href="#DejaVuSans-2e"/>
       <use x="95.410156" xlink:href="#DejaVuSans-36"/>
      </g>
     </g>
    </g>
    <g id="ytick_4">
     <g id="line2d_9">
      <g>
       <use style="stroke:#000000;stroke-width:0.8;" x="57.6" xlink:href="#meff56426b7" y="102.838483"/>
      </g>
     </g>
     <g id="text_9">
      <!-- 0.8 -->
      <g transform="translate(34.696875 106.637702)scale(0.1 -0.1)">
       <use xlink:href="#DejaVuSans-30"/>
       <use x="63.623047" xlink:href="#DejaVuSans-2e"/>
       <use x="95.410156" xlink:href="#DejaVuSans-38"/>
      </g>
     </g>
    </g>
   </g>
   <g id="LineCollection_1">
    <path clip-path="url(#pa727e039c4)" d="M 116.031359 293.479494 
L 115.805886 292.417428 
L 115.447484 291.355361 
L 114.862057 290.293294 
L 113.889546 289.215919 
L 112.301303 288.16916 
L 110.703346 287.559659 
L 108.579212 286.998492 
L 105.393011 286.568592 
L 101.144743 286.291474 
L 85.21374 285.593758 
L 82.027539 285.156911 
L 78.841338 284.477702 
L 76.717204 283.815987 
L 74.485714 282.858825 
L 72.468937 281.654631 
L 71.295358 280.734691 
L 70.194433 279.672625 
L 69.282736 278.608634 
L 67.874707 276.486424 
L 66.807217 274.36229 
L 65.965621 272.238156 
L 64.995396 269.051955 
L 64.063109 264.803688 
L 63.398319 260.55542 
L 62.792518 255.245086 
L 62.205534 247.810617 
L 61.601238 237.189948 
L 60.769993 218.072743 
L 60.039732 195.769338 
L 59.396 169.217665 
L 58.756686 133.10739 
L 58.17222 87.438513 
L 57.905562 55.576506 
L 57.905562 55.576506 
" style="fill:none;stroke:#000080;stroke-width:1.5;"/>
   </g>
   <g id="LineCollection_2">
    <path clip-path="url(#pa727e039c4)" d="M 285.953501 293.479494 
L 286.317683 291.355361 
L 286.896828 288.16916 
L 287.023826 286.045026 
L 286.921035 282.858825 
L 286.313059 276.486424 
L 285.327001 267.989888 
L 284.346939 260.55542 
L 283.337941 254.183019 
L 282.269005 248.872684 
L 281.462574 245.686483 
L 280.398812 242.500283 
L 279.452227 240.376149 
L 278.509918 238.807898 
L 277.447851 237.566247 
L 276.385784 236.716939 
L 275.260864 236.127881 
L 274.261651 235.788709 
L 272.137517 235.441931 
L 268.951316 235.368037 
L 244.523777 235.759879 
L 227.530706 235.991836 
L 215.84797 236.366346 
L 191.420431 237.269332 
L 185.04803 237.223717 
L 178.675628 236.950929 
L 172.303227 236.453976 
L 163.806691 235.535125 
L 147.875688 233.731648 
L 141.503286 233.251267 
L 135.130885 233.015441 
L 129.82055 233.027386 
L 123.448149 233.282791 
L 117.075747 233.762951 
L 111.765413 234.339436 
L 107.182007 235.065814 
L 104.330944 235.7619 
L 102.20681 236.504762 
L 100.082677 237.563325 
L 99.02061 238.255847 
L 97.744411 239.314082 
L 96.720332 240.376149 
L 95.834409 241.50278 
L 94.604176 243.562349 
L 93.692174 245.686483 
L 93.066613 247.810617 
L 92.646016 249.934751 
L 92.347724 253.120952 
L 92.099924 259.493353 
L 91.706961 261.617487 
L 91.349493 262.679554 
L 90.524074 264.228984 
L 90.122198 264.803688 
L 89.108358 265.865755 
L 87.578141 266.927822 
L 86.275807 267.484592 
L 85.21374 267.785301 
L 84.151673 267.949299 
L 83.089606 267.976275 
L 82.027539 267.868023 
L 80.965472 267.627055 
L 79.224834 266.927822 
L 78.841338 266.73506 
L 77.56496 265.865755 
L 76.381189 264.803688 
L 75.423052 263.741621 
L 74.593071 262.663555 
L 73.333085 260.55542 
L 72.308666 258.431286 
L 71.103856 255.245086 
L 70.138296 252.058885 
L 68.892983 246.74855 
L 67.908019 241.438216 
L 66.798886 234.003747 
L 65.649766 224.445145 
L 64.615321 213.824476 
L 63.617199 201.079673 
L 62.630043 185.148669 
L 61.652692 164.969398 
L 60.693512 139.479792 
L 59.768342 107.617784 
L 58.718791 63.010974 
L 58.700522 57.700639 
L 58.747672 55.576506 
L 58.747672 55.576506 
" style="fill:none;stroke:#0000e8;stroke-width:1.5;"/>
   </g>
   <g id="LineCollection_3">
    <path clip-path="url(#pa727e039c4)" d="M 290.060519 293.479494 
L 290.47233 288.16916 
L 290.445156 284.982959 
L 290.091191 278.610558 
L 288.375531 254.183019 
L 287.386835 241.438216 
L 286.501389 231.879613 
L 285.539921 223.383078 
L 284.465721 215.94861 
L 283.470112 210.638275 
L 282.414465 206.390007 
L 281.322241 203.203807 
L 280.285417 201.079673 
L 279.571985 199.974044 
L 278.509918 198.937722 
L 277.447851 198.367894 
L 276.385784 198.138605 
L 275.323717 198.147812 
L 273.199584 198.575701 
L 266.827182 200.349102 
L 263.640981 200.881764 
L 260.454781 201.175894 
L 256.206513 201.337146 
L 247.709978 201.368488 
L 212.66177 201.40254 
L 185.04803 201.575262 
L 162.744625 201.977022 
L 137.255019 202.373835 
L 126.634349 202.376973 
L 120.897473 202.14174 
L 117.075747 201.819846 
L 111.765413 201.128596 
L 102.20681 199.72563 
L 99.02061 199.578141 
L 96.896476 199.707075 
L 94.772342 200.095737 
L 92.648208 200.824834 
L 91.586141 201.342886 
L 89.462007 202.738655 
L 87.741815 204.265874 
L 86.275807 205.831155 
L 84.151673 208.521762 
L 79.442693 214.886543 
L 78.427506 215.94861 
L 77.779271 216.535474 
L 76.717204 217.162325 
L 75.655138 217.370559 
L 74.517691 217.010677 
L 73.370194 215.94861 
L 72.468937 214.61836 
L 71.22101 211.700342 
L 70.218744 208.514141 
L 68.984416 203.203807 
L 67.848362 196.831405 
L 66.797847 189.396937 
L 65.71613 179.838335 
L 64.652749 168.155599 
L 63.563571 153.286662 
L 62.498161 135.231524 
L 61.440855 112.928119 
L 60.391949 85.314379 
L 59.547182 58.762706 
L 59.641882 55.576506 
L 59.641882 55.576506 
" style="fill:none;stroke:#0038ff;stroke-width:1.5;"/>
   </g>
   <g id="LineCollection_4">
    <path clip-path="url(#pa727e039c4)" d="M 292.321458 293.479494 
L 292.444689 284.982959 
L 292.10953 277.548491 
L 288.881382 218.072743 
L 287.694474 203.203807 
L 286.616127 192.583138 
L 285.516436 184.086602 
L 284.452562 177.714201 
L 283.546985 173.465933 
L 282.689387 170.279732 
L 281.451887 167.093532 
L 280.634052 165.570078 
L 279.571985 164.347588 
L 278.509918 163.73407 
L 277.447851 163.594748 
L 276.165887 163.907331 
L 275.323717 164.276577 
L 273.199584 165.630538 
L 269.557624 168.155599 
L 267.72751 169.217665 
L 265.765115 170.126889 
L 263.640981 170.842268 
L 261.367301 171.341799 
L 259.392714 171.606805 
L 256.206513 171.789895 
L 251.958245 171.776438 
L 234.965175 171.476076 
L 106.455078 171.109143 
L 96.896476 170.921975 
L 93.710275 171.102119 
L 91.586141 171.397818 
L 89.462007 171.898402 
L 87.337874 172.661603 
L 85.21374 173.736747 
L 83.089606 175.134596 
L 77.779271 179.113902 
L 76.717204 179.608004 
L 75.655138 179.809789 
L 74.593071 179.611345 
L 73.439595 178.776268 
L 72.468937 177.53347 
L 71.40687 175.399185 
L 70.08426 171.341799 
L 69.0554 167.093532 
L 67.88097 160.72113 
L 66.804146 153.286662 
L 65.696209 143.728059 
L 64.602405 132.045323 
L 63.476928 117.176387 
L 62.432778 100.183316 
L 60.782428 68.321309 
L 60.493948 60.88684 
L 60.538313 57.700639 
L 60.640251 55.576506 
L 60.640251 55.576506 
" style="fill:none;stroke:#0094ff;stroke-width:1.5;"/>
   </g>
   <g id="LineCollection_5">
    <path clip-path="url(#pa727e039c4)" d="M 294.02519 293.479494 
L 293.940958 281.796758 
L 292.847643 252.058885 
L 291.630331 222.321011 
L 290.659317 203.203807 
L 289.668244 187.272803 
L 288.602949 173.465933 
L 287.575869 162.845264 
L 286.541275 154.348729 
L 285.560712 147.976327 
L 284.509604 142.665993 
L 283.722155 139.479792 
L 282.668459 136.293591 
L 281.696119 134.168622 
L 280.634052 132.657057 
L 279.571985 131.820641 
L 278.509918 131.543781 
L 277.447851 131.721511 
L 276.385784 132.259258 
L 275.283992 133.10739 
L 273.168789 135.231524 
L 268.951316 139.803331 
L 266.827182 141.698417 
L 264.703048 143.17469 
L 262.578914 144.236875 
L 260.454781 144.933045 
L 258.330647 145.328794 
L 256.206513 145.490065 
L 253.020312 145.427471 
L 248.772045 145.041585 
L 241.337576 144.305166 
L 236.027242 144.051473 
L 230.716907 144.030855 
L 200.979033 144.315224 
L 164.868758 144.282396 
L 99.02061 144.265756 
L 92.648208 144.369062 
L 89.462007 144.60463 
L 86.275807 145.091068 
L 83.319213 145.852193 
L 80.965472 146.657277 
L 77.779271 147.730679 
L 76.717204 147.924883 
L 75.655138 147.927382 
L 74.593071 147.64446 
L 73.488672 146.91426 
L 72.468937 145.755636 
L 71.346823 143.728059 
L 70.159764 140.541859 
L 69.018682 136.293591 
L 67.936876 130.983257 
L 66.770702 123.548788 
L 65.715787 115.052253 
L 64.560853 103.369517 
L 63.461729 89.562647 
L 61.713819 64.073041 
L 61.603835 59.824773 
L 61.817135 55.576506 
L 61.817135 55.576506 
" style="fill:none;stroke:#0cf4eb;stroke-width:1.5;"/>
   </g>
   <g id="LineCollection_6">
    <path clip-path="url(#pa727e039c4)" d="M 295.54629 293.479494 
L 295.303726 276.486424 
L 294.230119 239.314082 
L 293.110082 207.452074 
L 292.021572 183.024535 
L 290.940929 163.907331 
L 289.869511 149.038394 
L 288.790391 137.355658 
L 287.790078 128.859123 
L 286.658773 121.424654 
L 285.609641 116.11432 
L 284.508367 111.866052 
L 283.820253 109.69345 
L 282.758186 107.219611 
L 281.679788 105.493651 
L 280.596927 104.431584 
L 279.571985 103.940781 
L 278.509918 103.901566 
L 277.179362 104.431584 
L 276.385784 104.940669 
L 274.695729 106.555717 
L 273.199584 108.287716 
L 267.849297 115.052253 
L 265.765115 117.2762 
L 263.640981 119.104786 
L 261.516848 120.463349 
L 259.392714 121.373113 
L 257.26858 121.885582 
L 255.144446 122.065363 
L 253.020312 121.982913 
L 250.896178 121.706621 
L 247.709978 121.067473 
L 239.213442 119.190651 
L 234.965175 118.580992 
L 230.716907 118.271448 
L 226.468639 118.217514 
L 220.096238 118.427201 
L 204.165234 119.103204 
L 192.482498 119.300789 
L 164.868758 119.453576 
L 117.075747 119.781348 
L 89.462007 120.127019 
L 85.21374 120.385755 
L 77.779271 121.072395 
L 76.717204 121.024373 
L 75.655138 120.833973 
L 74.495663 120.362587 
L 73.531004 119.712685 
L 72.263793 118.238454 
L 71.40687 116.85755 
L 70.212179 113.990186 
L 68.97596 109.741918 
L 68.030472 105.493651 
L 66.78879 98.059182 
L 65.688481 89.562647 
L 64.468156 77.879911 
L 63.300423 65.135108 
L 63.086541 60.88684 
L 63.164672 58.762706 
L 63.45066 55.576506 
L 63.45066 55.576506 
" style="fill:none;stroke:#56ffa0;stroke-width:1.5;"/>
   </g>
   <g id="LineCollection_7">
    <path clip-path="url(#pa727e039c4)" d="M 300.722872 293.479494 
L 300.615366 287.107093 
L 300.2933 280.734691 
L 299.686776 273.300223 
L 298.474891 261.617487 
L 296.445975 242.500283 
L 295.088456 207.452074 
L 294.079423 178.776268 
L 293.084747 156.472862 
L 292.050546 138.417725 
L 291.02446 124.610855 
L 289.889686 112.928119 
L 288.828403 104.431584 
L 287.819152 98.059182 
L 286.724736 92.748848 
L 285.544479 88.50058 
L 284.800728 86.376446 
L 283.820253 84.175615 
L 282.582075 82.128178 
L 281.696119 80.986205 
L 280.634052 79.961439 
L 278.970692 78.941978 
L 278.509918 78.731198 
L 277.447851 78.448517 
L 276.385784 78.352431 
L 275.323717 78.435838 
L 273.619384 78.941978 
L 273.199584 79.12866 
L 271.810721 80.004045 
L 270.613791 81.066112 
L 269.681519 82.128178 
L 268.244774 84.252312 
L 266.827182 86.926709 
L 263.837052 92.748848 
L 262.578914 94.645504 
L 261.516848 95.957615 
L 260.454781 97.034352 
L 259.182437 98.059182 
L 257.26858 99.186255 
L 255.144446 99.958433 
L 253.020312 100.369467 
L 250.896178 100.520675 
L 247.709978 100.431975 
L 243.46171 99.993112 
L 223.282439 97.43922 
L 216.910037 96.954671 
L 209.475569 96.634741 
L 200.979033 96.521403 
L 185.04803 96.615748 
L 168.054959 96.624815 
L 149.999822 96.386656 
L 78.841338 95.062644 
L 76.717204 94.695613 
L 75.655138 94.335706 
L 74.593071 93.785819 
L 73.348974 92.748848 
L 72.434201 91.686781 
L 71.215923 89.562647 
L 70.302822 87.438513 
L 69.03576 83.190245 
L 67.871805 77.879911 
L 66.78538 71.507509 
L 65.942478 65.135108 
L 65.779666 61.948907 
L 65.863747 59.824773 
L 66.333952 55.576506 
L 66.333952 55.576506 
" style="fill:none;stroke:#a0ff56;stroke-width:1.5;"/>
   </g>
   <g id="LineCollection_8">
    <path clip-path="url(#pa727e039c4)" d="M 308.234392 293.479494 
L 308.092214 284.982959 
L 307.708728 276.486424 
L 306.972207 265.865755 
L 305.768072 252.058885 
L 303.999524 234.441681 
L 302.035 217.010677 
L 300.031584 201.079673 
L 297.947683 186.210736 
L 296.478915 175.590067 
L 294.975666 145.852193 
L 294.085387 127.797056 
L 293.144494 112.928119 
L 292.106573 100.183316 
L 291.196672 91.686781 
L 290.244402 85.314379 
L 289.592277 82.128178 
L 288.762817 78.941978 
L 288.063179 76.817844 
L 287.006454 74.400127 
L 285.93408 72.569576 
L 284.88232 71.220814 
L 283.820253 70.172591 
L 282.758186 69.358846 
L 280.784463 68.321309 
L 279.571985 67.899122 
L 277.447851 67.439064 
L 275.323717 67.254557 
L 273.199584 67.287932 
L 271.07545 67.499479 
L 267.889249 68.092844 
L 264.703048 68.983271 
L 261.516848 70.128862 
L 258.271417 71.507509 
L 247.709978 76.326626 
L 244.523777 77.3756 
L 242.391081 77.879911 
L 240.275509 78.213939 
L 237.089309 78.432706 
L 233.903108 78.359052 
L 230.716907 78.059829 
L 226.468639 77.402707 
L 220.096238 76.120671 
L 198.8549 71.685714 
L 189.296297 69.80325 
L 182.56329 68.321309 
L 176.551494 66.647255 
L 173.365294 65.537063 
L 171.24116 64.640184 
L 169.117026 63.538183 
L 168.054959 62.881042 
L 166.839745 61.948907 
L 165.822796 60.88684 
L 165.124086 59.824773 
L 164.694642 58.762706 
L 164.482188 57.700639 
L 164.491094 55.576506 
L 164.491094 55.576506 
" style="fill:none;stroke:#ebff0c;stroke-width:1.5;"/>
   </g>
   <g id="LineCollection_9">
    <path clip-path="url(#pa727e039c4)" d="M 315.94906 293.479494 
L 315.825958 283.920892 
L 315.450113 273.300223 
L 314.748774 260.55542 
L 313.634856 244.624416 
L 312.07219 225.507212 
L 310.286582 206.390007 
L 308.483569 189.396937 
L 306.698497 174.528 
L 304.821376 160.72113 
L 302.937457 148.510615 
L 301.181272 138.417725 
L 299.311377 128.859123 
L 297.442939 120.362587 
L 296.517471 116.11432 
L 294.760462 93.810914 
L 293.996481 85.314379 
L 293.334115 80.004045 
L 292.593444 75.755777 
L 291.825262 72.569576 
L 291.145931 70.445442 
L 290.192654 68.240936 
L 288.920196 66.197175 
L 288.033003 65.135108 
L 286.896187 64.073041 
L 284.88232 62.667909 
L 282.758186 61.574309 
L 276.385784 58.711655 
L 275.214839 57.700639 
L 274.728352 56.638572 
L 274.745847 55.576506 
L 274.745847 55.576506 
" style="fill:none;stroke:#ffab00;stroke-width:1.5;"/>
   </g>
   <g id="LineCollection_10">
    <path clip-path="url(#pa727e039c4)" d="M 323.813436 293.479494 
L 323.695738 281.796758 
L 323.3447 269.051955 
L 322.669216 253.120952 
L 321.58144 232.94168 
L 320.156006 210.638275 
L 318.654814 190.459004 
L 317.091461 172.403866 
L 315.483126 156.472862 
L 313.858749 142.665993 
L 312.267914 130.983257 
L 310.602673 120.362587 
L 308.879023 110.803985 
L 307.120307 102.30745 
L 305.355398 94.872981 
L 303.617267 88.50058 
L 301.87539 82.973418 
L 300.413234 78.941978 
L 298.616816 74.69371 
L 297.009347 71.507509 
L 296.50743 70.445442 
L 295.740195 67.259242 
L 295.456891 66.197175 
L 294.73252 63.010974 
L 293.378855 58.613475 
L 292.461294 55.576506 
L 292.461294 55.576506 
" style="fill:none;stroke:#ff5500;stroke-width:1.5;"/>
   </g>
   <g id="LineCollection_11">
    <path clip-path="url(#pa727e039c4)" d="M 331.779388 293.479494 
L 331.658422 277.548491 
L 331.283155 259.493353 
L 330.503528 234.003747 
L 329.437695 206.390007 
L 328.294489 181.962468 
L 327.085467 160.72113 
L 325.90998 143.728059 
L 324.582716 127.797056 
L 323.202473 113.990186 
L 321.814986 102.30745 
L 320.192923 90.624714 
L 316.450977 65.135108 
L 316.091505 60.88684 
L 315.935002 56.638572 
L 315.93137 55.576506 
L 315.93137 55.576506 
" style="fill:none;stroke:#e80000;stroke-width:1.5;"/>
   </g>
   <g id="LineCollection_12">
    <path clip-path="url(#pa727e039c4)" d="M 339.804617 293.479494 
L 339.690365 266.927822 
L 338.872554 195.769338 
L 338.164304 156.472862 
L 337.37965 126.734989 
L 336.473291 100.183316 
L 334.977785 61.948907 
L 334.927407 55.576506 
L 334.927407 55.576506 
" style="fill:none;stroke:#800000;stroke-width:1.5;"/>
   </g>
   <g id="patch_3">
    <path d="M 57.6 293.479494 
L 57.6 55.576506 
" style="fill:none;stroke:#000000;stroke-linecap:square;stroke-linejoin:miter;stroke-width:0.8;"/>
   </g>
   <g id="patch_4">
    <path d="M 343.296 293.479494 
L 343.296 55.576506 
" style="fill:none;stroke:#000000;stroke-linecap:square;stroke-linejoin:miter;stroke-width:0.8;"/>
   </g>
   <g id="patch_5">
    <path d="M 57.6 293.479494 
L 343.296 293.479494 
" style="fill:none;stroke:#000000;stroke-linecap:square;stroke-linejoin:miter;stroke-width:0.8;"/>
   </g>
   <g id="patch_6">
    <path d="M 57.6 55.576506 
L 343.296 55.576506 
" style="fill:none;stroke:#000000;stroke-linecap:square;stroke-linejoin:miter;stroke-width:0.8;"/>
   </g>
   <g id="text_10">
    <!-- Time:0.15802 s -->
    <defs>
     <path d="M -0.296875 72.90625 
L 61.375 72.90625 
L 61.375 64.59375 
L 35.5 64.59375 
L 35.5 0 
L 25.59375 0 
L 25.59375 64.59375 
L -0.296875 64.59375 
z
" id="DejaVuSans-54"/>
     <path d="M 9.421875 54.6875 
L 18.40625 54.6875 
L 18.40625 0 
L 9.421875 0 
z
M 9.421875 75.984375 
L 18.40625 75.984375 
L 18.40625 64.59375 
L 9.421875 64.59375 
z
" id="DejaVuSans-69"/>
     <path d="M 52 44.1875 
Q 55.375 50.25 60.0625 53.125 
Q 64.75 56 71.09375 56 
Q 79.640625 56 84.28125 50.015625 
Q 88.921875 44.046875 88.921875 33.015625 
L 88.921875 0 
L 79.890625 0 
L 79.890625 32.71875 
Q 79.890625 40.578125 77.09375 44.375 
Q 74.3125 48.1875 68.609375 48.1875 
Q 61.625 48.1875 57.5625 43.546875 
Q 53.515625 38.921875 53.515625 30.90625 
L 53.515625 0 
L 44.484375 0 
L 44.484375 32.71875 
Q 44.484375 40.625 41.703125 44.40625 
Q 38.921875 48.1875 33.109375 48.1875 
Q 26.21875 48.1875 22.15625 43.53125 
Q 18.109375 38.875 18.109375 30.90625 
L 18.109375 0 
L 9.078125 0 
L 9.078125 54.6875 
L 18.109375 54.6875 
L 18.109375 46.1875 
Q 21.1875 51.21875 25.484375 53.609375 
Q 29.78125 56 35.6875 56 
Q 41.65625 56 45.828125 52.96875 
Q 50 49.953125 52 44.1875 
z
" id="DejaVuSans-6d"/>
     <path d="M 56.203125 29.59375 
L 56.203125 25.203125 
L 14.890625 25.203125 
Q 15.484375 15.921875 20.484375 11.0625 
Q 25.484375 6.203125 34.421875 6.203125 
Q 39.59375 6.203125 44.453125 7.46875 
Q 49.3125 8.734375 54.109375 11.28125 
L 54.109375 2.78125 
Q 49.265625 0.734375 44.1875 -0.34375 
Q 39.109375 -1.421875 33.890625 -1.421875 
Q 20.796875 -1.421875 13.15625 6.1875 
Q 5.515625 13.8125 5.515625 26.8125 
Q 5.515625 40.234375 12.765625 48.109375 
Q 20.015625 56 32.328125 56 
Q 43.359375 56 49.78125 48.890625 
Q 56.203125 41.796875 56.203125 29.59375 
z
M 47.21875 32.234375 
Q 47.125 39.59375 43.09375 43.984375 
Q 39.0625 48.390625 32.421875 48.390625 
Q 24.90625 48.390625 20.390625 44.140625 
Q 15.875 39.890625 15.1875 32.171875 
z
" id="DejaVuSans-65"/>
     <path d="M 11.71875 12.40625 
L 22.015625 12.40625 
L 22.015625 0 
L 11.71875 0 
z
M 11.71875 51.703125 
L 22.015625 51.703125 
L 22.015625 39.3125 
L 11.71875 39.3125 
z
" id="DejaVuSans-3a"/>
     <path d="M 10.796875 72.90625 
L 49.515625 72.90625 
L 49.515625 64.59375 
L 19.828125 64.59375 
L 19.828125 46.734375 
Q 21.96875 47.46875 24.109375 47.828125 
Q 26.265625 48.1875 28.421875 48.1875 
Q 40.625 48.1875 47.75 41.5 
Q 54.890625 34.8125 54.890625 23.390625 
Q 54.890625 11.625 47.5625 5.09375 
Q 40.234375 -1.421875 26.90625 -1.421875 
Q 22.3125 -1.421875 17.546875 -0.640625 
Q 12.796875 0.140625 7.71875 1.703125 
L 7.71875 11.625 
Q 12.109375 9.234375 16.796875 8.0625 
Q 21.484375 6.890625 26.703125 6.890625 
Q 35.15625 6.890625 40.078125 11.328125 
Q 45.015625 15.765625 45.015625 23.390625 
Q 45.015625 31 40.078125 35.4375 
Q 35.15625 39.890625 26.703125 39.890625 
Q 22.75 39.890625 18.8125 39.015625 
Q 14.890625 38.140625 10.796875 36.28125 
z
" id="DejaVuSans-35"/>
     <path id="DejaVuSans-20"/>
     <path d="M 44.28125 53.078125 
L 44.28125 44.578125 
Q 40.484375 46.53125 36.375 47.5 
Q 32.28125 48.484375 27.875 48.484375 
Q 21.1875 48.484375 17.84375 46.4375 
Q 14.5 44.390625 14.5 40.28125 
Q 14.5 37.15625 16.890625 35.375 
Q 19.28125 33.59375 26.515625 31.984375 
L 29.59375 31.296875 
Q 39.15625 29.25 43.1875 25.515625 
Q 47.21875 21.78125 47.21875 15.09375 
Q 47.21875 7.46875 41.1875 3.015625 
Q 35.15625 -1.421875 24.609375 -1.421875 
Q 20.21875 -1.421875 15.453125 -0.5625 
Q 10.6875 0.296875 5.421875 2 
L 5.421875 11.28125 
Q 10.40625 8.6875 15.234375 7.390625 
Q 20.0625 6.109375 24.8125 6.109375 
Q 31.15625 6.109375 34.5625 8.28125 
Q 37.984375 10.453125 37.984375 14.40625 
Q 37.984375 18.0625 35.515625 20.015625 
Q 33.0625 21.96875 24.703125 23.78125 
L 21.578125 24.515625 
Q 13.234375 26.265625 9.515625 29.90625 
Q 5.8125 33.546875 5.8125 39.890625 
Q 5.8125 47.609375 11.28125 51.796875 
Q 16.75 56 26.8125 56 
Q 31.78125 56 36.171875 55.265625 
Q 40.578125 54.546875 44.28125 53.078125 
z
" id="DejaVuSans-73"/>
    </defs>
    <g transform="translate(153.717375 49.576506)scale(0.12 -0.12)">
     <use xlink:href="#DejaVuSans-54"/>
     <use x="61.037109" xlink:href="#DejaVuSans-69"/>
     <use x="88.820312" xlink:href="#DejaVuSans-6d"/>
     <use x="186.232422" xlink:href="#DejaVuSans-65"/>
     <use x="247.755859" xlink:href="#DejaVuSans-3a"/>
     <use x="281.447266" xlink:href="#DejaVuSans-30"/>
     <use x="345.070312" xlink:href="#DejaVuSans-2e"/>
     <use x="376.857422" xlink:href="#DejaVuSans-31"/>
     <use x="440.480469" xlink:href="#DejaVuSans-35"/>
     <use x="504.103516" xlink:href="#DejaVuSans-38"/>
     <use x="567.726562" xlink:href="#DejaVuSans-30"/>
     <use x="631.349609" xlink:href="#DejaVuSans-32"/>
     <use x="694.972656" xlink:href="#DejaVuSans-20"/>
     <use x="726.759766" xlink:href="#DejaVuSans-73"/>
    </g>
   </g>
  </g>
  <g id="axes_2">
   <g id="patch_7">
    <path clip-path="url(#p86a8143ac1)" d="M 361.152 307.584 
L 361.152 283.392 
L 361.152 65.664 
L 361.152 41.472 
L 374.4576 41.472 
L 374.4576 65.664 
L 374.4576 283.392 
L 374.4576 307.584 
z
" style="fill:#ffffff;stroke:#ffffff;stroke-linejoin:miter;stroke-width:0.01;"/>
   </g>
   <g id="matplotlib.axis_3"/>
   <g id="matplotlib.axis_4">
    <g id="ytick_5">
     <g id="line2d_10">
      <defs>
       <path d="M 0 0 
L 3.5 0 
" id="me9fbb53a5f" style="stroke:#000000;stroke-width:0.8;"/>
      </defs>
      <g>
       <use style="stroke:#000000;stroke-width:0.8;" x="374.4576" xlink:href="#me9fbb53a5f" y="307.584"/>
      </g>
     </g>
     <g id="text_11">
      <!-- 0.08 -->
      <g transform="translate(381.4576 311.383219)scale(0.1 -0.1)">
       <use xlink:href="#DejaVuSans-30"/>
       <use x="63.623047" xlink:href="#DejaVuSans-2e"/>
       <use x="95.410156" xlink:href="#DejaVuSans-30"/>
       <use x="159.033203" xlink:href="#DejaVuSans-38"/>
      </g>
     </g>
    </g>
    <g id="ytick_6">
     <g id="line2d_11">
      <g>
       <use style="stroke:#000000;stroke-width:0.8;" x="374.4576" xlink:href="#me9fbb53a5f" y="259.2"/>
      </g>
     </g>
     <g id="text_12">
      <!-- 0.24 -->
      <g transform="translate(381.4576 262.999219)scale(0.1 -0.1)">
       <use xlink:href="#DejaVuSans-30"/>
       <use x="63.623047" xlink:href="#DejaVuSans-2e"/>
       <use x="95.410156" xlink:href="#DejaVuSans-32"/>
       <use x="159.033203" xlink:href="#DejaVuSans-34"/>
      </g>
     </g>
    </g>
    <g id="ytick_7">
     <g id="line2d_12">
      <g>
       <use style="stroke:#000000;stroke-width:0.8;" x="374.4576" xlink:href="#me9fbb53a5f" y="210.816"/>
      </g>
     </g>
     <g id="text_13">
      <!-- 0.40 -->
      <g transform="translate(381.4576 214.615219)scale(0.1 -0.1)">
       <use xlink:href="#DejaVuSans-30"/>
       <use x="63.623047" xlink:href="#DejaVuSans-2e"/>
       <use x="95.410156" xlink:href="#DejaVuSans-34"/>
       <use x="159.033203" xlink:href="#DejaVuSans-30"/>
      </g>
     </g>
    </g>
    <g id="ytick_8">
     <g id="line2d_13">
      <g>
       <use style="stroke:#000000;stroke-width:0.8;" x="374.4576" xlink:href="#me9fbb53a5f" y="162.432"/>
      </g>
     </g>
     <g id="text_14">
      <!-- 0.56 -->
      <g transform="translate(381.4576 166.231219)scale(0.1 -0.1)">
       <use xlink:href="#DejaVuSans-30"/>
       <use x="63.623047" xlink:href="#DejaVuSans-2e"/>
       <use x="95.410156" xlink:href="#DejaVuSans-35"/>
       <use x="159.033203" xlink:href="#DejaVuSans-36"/>
      </g>
     </g>
    </g>
    <g id="ytick_9">
     <g id="line2d_14">
      <g>
       <use style="stroke:#000000;stroke-width:0.8;" x="374.4576" xlink:href="#me9fbb53a5f" y="114.048"/>
      </g>
     </g>
     <g id="text_15">
      <!-- 0.72 -->
      <defs>
       <path d="M 8.203125 72.90625 
L 55.078125 72.90625 
L 55.078125 68.703125 
L 28.609375 0 
L 18.3125 0 
L 43.21875 64.59375 
L 8.203125 64.59375 
z
" id="DejaVuSans-37"/>
      </defs>
      <g transform="translate(381.4576 117.847219)scale(0.1 -0.1)">
       <use xlink:href="#DejaVuSans-30"/>
       <use x="63.623047" xlink:href="#DejaVuSans-2e"/>
       <use x="95.410156" xlink:href="#DejaVuSans-37"/>
       <use x="159.033203" xlink:href="#DejaVuSans-32"/>
      </g>
     </g>
    </g>
    <g id="ytick_10">
     <g id="line2d_15">
      <g>
       <use style="stroke:#000000;stroke-width:0.8;" x="374.4576" xlink:href="#me9fbb53a5f" y="65.664"/>
      </g>
     </g>
     <g id="text_16">
      <!-- 0.88 -->
      <g transform="translate(381.4576 69.463219)scale(0.1 -0.1)">
       <use xlink:href="#DejaVuSans-30"/>
       <use x="63.623047" xlink:href="#DejaVuSans-2e"/>
       <use x="95.410156" xlink:href="#DejaVuSans-38"/>
       <use x="159.033203" xlink:href="#DejaVuSans-38"/>
      </g>
     </g>
    </g>
   </g>
   <g id="LineCollection_13">
    <path clip-path="url(#p86a8143ac1)" d="M 361.152 307.584 
L 374.4576 307.584 
" style="fill:none;stroke:#000080;stroke-width:1.5;"/>
    <path clip-path="url(#p86a8143ac1)" d="M 361.152 283.392 
L 374.4576 283.392 
" style="fill:none;stroke:#0000e8;stroke-width:1.5;"/>
    <path clip-path="url(#p86a8143ac1)" d="M 361.152 259.2 
L 374.4576 259.2 
" style="fill:none;stroke:#0038ff;stroke-width:1.5;"/>
    <path clip-path="url(#p86a8143ac1)" d="M 361.152 235.008 
L 374.4576 235.008 
" style="fill:none;stroke:#0094ff;stroke-width:1.5;"/>
    <path clip-path="url(#p86a8143ac1)" d="M 361.152 210.816 
L 374.4576 210.816 
" style="fill:none;stroke:#0cf4eb;stroke-width:1.5;"/>
    <path clip-path="url(#p86a8143ac1)" d="M 361.152 186.624 
L 374.4576 186.624 
" style="fill:none;stroke:#56ffa0;stroke-width:1.5;"/>
    <path clip-path="url(#p86a8143ac1)" d="M 361.152 162.432 
L 374.4576 162.432 
" style="fill:none;stroke:#a0ff56;stroke-width:1.5;"/>
    <path clip-path="url(#p86a8143ac1)" d="M 361.152 138.24 
L 374.4576 138.24 
" style="fill:none;stroke:#ebff0c;stroke-width:1.5;"/>
    <path clip-path="url(#p86a8143ac1)" d="M 361.152 114.048 
L 374.4576 114.048 
" style="fill:none;stroke:#ffab00;stroke-width:1.5;"/>
    <path clip-path="url(#p86a8143ac1)" d="M 361.152 89.856 
L 374.4576 89.856 
" style="fill:none;stroke:#ff5500;stroke-width:1.5;"/>
    <path clip-path="url(#p86a8143ac1)" d="M 361.152 65.664 
L 374.4576 65.664 
" style="fill:none;stroke:#e80000;stroke-width:1.5;"/>
    <path clip-path="url(#p86a8143ac1)" d="M 361.152 41.472 
L 374.4576 41.472 
" style="fill:none;stroke:#800000;stroke-width:1.5;"/>
   </g>
   <g id="patch_8">
    <path d="M 361.152 307.584 
L 361.152 283.392 
L 361.152 65.664 
L 361.152 41.472 
L 374.4576 41.472 
L 374.4576 65.664 
L 374.4576 283.392 
L 374.4576 307.584 
z
" style="fill:none;stroke:#000000;stroke-linejoin:miter;stroke-width:0.8;"/>
   </g>
  </g>
 </g>
 <defs>
  <clipPath id="pa727e039c4">
   <rect height="237.902989" width="285.696" x="57.6" y="55.576506"/>
  </clipPath>
  <clipPath id="p86a8143ac1">
   <rect height="266.112" width="13.3056" x="361.152" y="41.472"/>
  </clipPath>
 </defs>
</svg>
