<?xml version="1.0" encoding="utf-8" standalone="no"?>
<!DOCTYPE svg PUBLIC "-//W3C//DTD SVG 1.1//EN"
  "http://www.w3.org/Graphics/SVG/1.1/DTD/svg11.dtd">
<!-- Created with matplotlib (http://matplotlib.org/) -->
<svg height="345.6pt" version="1.1" viewBox="0 0 460.8 345.6" width="460.8pt" xmlns="http://www.w3.org/2000/svg" xmlns:xlink="http://www.w3.org/1999/xlink">
 <defs>
  <style type="text/css">
*{stroke-linecap:butt;stroke-linejoin:round;}
  </style>
 </defs>
 <g id="figure_1">
  <g id="patch_1">
   <path d="M 0 345.6 
L 460.8 345.6 
L 460.8 0 
L 0 0 
z
" style="fill:#ffffff;"/>
  </g>
  <g id="axes_1">
   <g id="patch_2">
    <path d="M 57.6 293.479494 
L 343.296 293.479494 
L 343.296 55.576506 
L 57.6 55.576506 
z
" style="fill:#ffffff;"/>
   </g>
   <g id="matplotlib.axis_1">
    <g id="xtick_1">
     <g id="line2d_1">
      <defs>
       <path d="M 0 0 
L 0 3.5 
" id="m5e0dba0cd8" style="stroke:#000000;stroke-width:0.8;"/>
      </defs>
      <g>
       <use style="stroke:#000000;stroke-width:0.8;" x="104.861978" xlink:href="#m5e0dba0cd8" y="293.479494"/>
      </g>
     </g>
     <g id="text_1">
      <!-- 0.2 -->
      <defs>
       <path d="M 31.78125 66.40625 
Q 24.171875 66.40625 20.328125 58.90625 
Q 16.5 51.421875 16.5 36.375 
Q 16.5 21.390625 20.328125 13.890625 
Q 24.171875 6.390625 31.78125 6.390625 
Q 39.453125 6.390625 43.28125 13.890625 
Q 47.125 21.390625 47.125 36.375 
Q 47.125 51.421875 43.28125 58.90625 
Q 39.453125 66.40625 31.78125 66.40625 
z
M 31.78125 74.21875 
Q 44.046875 74.21875 50.515625 64.515625 
Q 56.984375 54.828125 56.984375 36.375 
Q 56.984375 17.96875 50.515625 8.265625 
Q 44.046875 -1.421875 31.78125 -1.421875 
Q 19.53125 -1.421875 13.0625 8.265625 
Q 6.59375 17.96875 6.59375 36.375 
Q 6.59375 54.828125 13.0625 64.515625 
Q 19.53125 74.21875 31.78125 74.21875 
z
" id="DejaVuSans-30"/>
       <path d="M 10.6875 12.40625 
L 21 12.40625 
L 21 0 
L 10.6875 0 
z
" id="DejaVuSans-2e"/>
       <path d="M 19.1875 8.296875 
L 53.609375 8.296875 
L 53.609375 0 
L 7.328125 0 
L 7.328125 8.296875 
Q 12.9375 14.109375 22.625 23.890625 
Q 32.328125 33.6875 34.8125 36.53125 
Q 39.546875 41.84375 41.421875 45.53125 
Q 43.3125 49.21875 43.3125 52.78125 
Q 43.3125 58.59375 39.234375 62.25 
Q 35.15625 65.921875 28.609375 65.921875 
Q 23.96875 65.921875 18.8125 64.3125 
Q 13.671875 62.703125 7.8125 59.421875 
L 7.8125 69.390625 
Q 13.765625 71.78125 18.9375 73 
Q 24.125 74.21875 28.421875 74.21875 
Q 39.75 74.21875 46.484375 68.546875 
Q 53.21875 62.890625 53.21875 53.421875 
Q 53.21875 48.921875 51.53125 44.890625 
Q 49.859375 40.875 45.40625 35.40625 
Q 44.1875 33.984375 37.640625 27.21875 
Q 31.109375 20.453125 19.1875 8.296875 
z
" id="DejaVuSans-32"/>
      </defs>
      <g transform="translate(96.910415 308.077932)scale(0.1 -0.1)">
       <use xlink:href="#DejaVuSans-30"/>
       <use x="63.623047" xlink:href="#DejaVuSans-2e"/>
       <use x="95.410156" xlink:href="#DejaVuSans-32"/>
      </g>
     </g>
    </g>
    <g id="xtick_2">
     <g id="line2d_2">
      <g>
       <use style="stroke:#000000;stroke-width:0.8;" x="152.654989" xlink:href="#m5e0dba0cd8" y="293.479494"/>
      </g>
     </g>
     <g id="text_2">
      <!-- 0.4 -->
      <defs>
       <path d="M 37.796875 64.3125 
L 12.890625 25.390625 
L 37.796875 25.390625 
z
M 35.203125 72.90625 
L 47.609375 72.90625 
L 47.609375 25.390625 
L 58.015625 25.390625 
L 58.015625 17.1875 
L 47.609375 17.1875 
L 47.609375 0 
L 37.796875 0 
L 37.796875 17.1875 
L 4.890625 17.1875 
L 4.890625 26.703125 
z
" id="DejaVuSans-34"/>
      </defs>
      <g transform="translate(144.703426 308.077932)scale(0.1 -0.1)">
       <use xlink:href="#DejaVuSans-30"/>
       <use x="63.623047" xlink:href="#DejaVuSans-2e"/>
       <use x="95.410156" xlink:href="#DejaVuSans-34"/>
      </g>
     </g>
    </g>
    <g id="xtick_3">
     <g id="line2d_3">
      <g>
       <use style="stroke:#000000;stroke-width:0.8;" x="200.448" xlink:href="#m5e0dba0cd8" y="293.479494"/>
      </g>
     </g>
     <g id="text_3">
      <!-- 0.6 -->
      <defs>
       <path d="M 33.015625 40.375 
Q 26.375 40.375 22.484375 35.828125 
Q 18.609375 31.296875 18.609375 23.390625 
Q 18.609375 15.53125 22.484375 10.953125 
Q 26.375 6.390625 33.015625 6.390625 
Q 39.65625 6.390625 43.53125 10.953125 
Q 47.40625 15.53125 47.40625 23.390625 
Q 47.40625 31.296875 43.53125 35.828125 
Q 39.65625 40.375 33.015625 40.375 
z
M 52.59375 71.296875 
L 52.59375 62.3125 
Q 48.875 64.0625 45.09375 64.984375 
Q 41.3125 65.921875 37.59375 65.921875 
Q 27.828125 65.921875 22.671875 59.328125 
Q 17.53125 52.734375 16.796875 39.40625 
Q 19.671875 43.65625 24.015625 45.921875 
Q 28.375 48.1875 33.59375 48.1875 
Q 44.578125 48.1875 50.953125 41.515625 
Q 57.328125 34.859375 57.328125 23.390625 
Q 57.328125 12.15625 50.6875 5.359375 
Q 44.046875 -1.421875 33.015625 -1.421875 
Q 20.359375 -1.421875 13.671875 8.265625 
Q 6.984375 17.96875 6.984375 36.375 
Q 6.984375 53.65625 15.1875 63.9375 
Q 23.390625 74.21875 37.203125 74.21875 
Q 40.921875 74.21875 44.703125 73.484375 
Q 48.484375 72.75 52.59375 71.296875 
z
" id="DejaVuSans-36"/>
      </defs>
      <g transform="translate(192.496438 308.077932)scale(0.1 -0.1)">
       <use xlink:href="#DejaVuSans-30"/>
       <use x="63.623047" xlink:href="#DejaVuSans-2e"/>
       <use x="95.410156" xlink:href="#DejaVuSans-36"/>
      </g>
     </g>
    </g>
    <g id="xtick_4">
     <g id="line2d_4">
      <g>
       <use style="stroke:#000000;stroke-width:0.8;" x="248.241011" xlink:href="#m5e0dba0cd8" y="293.479494"/>
      </g>
     </g>
     <g id="text_4">
      <!-- 0.8 -->
      <defs>
       <path d="M 31.78125 34.625 
Q 24.75 34.625 20.71875 30.859375 
Q 16.703125 27.09375 16.703125 20.515625 
Q 16.703125 13.921875 20.71875 10.15625 
Q 24.75 6.390625 31.78125 6.390625 
Q 38.8125 6.390625 42.859375 10.171875 
Q 46.921875 13.96875 46.921875 20.515625 
Q 46.921875 27.09375 42.890625 30.859375 
Q 38.875 34.625 31.78125 34.625 
z
M 21.921875 38.8125 
Q 15.578125 40.375 12.03125 44.71875 
Q 8.5 49.078125 8.5 55.328125 
Q 8.5 64.0625 14.71875 69.140625 
Q 20.953125 74.21875 31.78125 74.21875 
Q 42.671875 74.21875 48.875 69.140625 
Q 55.078125 64.0625 55.078125 55.328125 
Q 55.078125 49.078125 51.53125 44.71875 
Q 48 40.375 41.703125 38.8125 
Q 48.828125 37.15625 52.796875 32.3125 
Q 56.78125 27.484375 56.78125 20.515625 
Q 56.78125 9.90625 50.3125 4.234375 
Q 43.84375 -1.421875 31.78125 -1.421875 
Q 19.734375 -1.421875 13.25 4.234375 
Q 6.78125 9.90625 6.78125 20.515625 
Q 6.78125 27.484375 10.78125 32.3125 
Q 14.796875 37.15625 21.921875 38.8125 
z
M 18.3125 54.390625 
Q 18.3125 48.734375 21.84375 45.5625 
Q 25.390625 42.390625 31.78125 42.390625 
Q 38.140625 42.390625 41.71875 45.5625 
Q 45.3125 48.734375 45.3125 54.390625 
Q 45.3125 60.0625 41.71875 63.234375 
Q 38.140625 66.40625 31.78125 66.40625 
Q 25.390625 66.40625 21.84375 63.234375 
Q 18.3125 60.0625 18.3125 54.390625 
z
" id="DejaVuSans-38"/>
      </defs>
      <g transform="translate(240.289449 308.077932)scale(0.1 -0.1)">
       <use xlink:href="#DejaVuSans-30"/>
       <use x="63.623047" xlink:href="#DejaVuSans-2e"/>
       <use x="95.410156" xlink:href="#DejaVuSans-38"/>
      </g>
     </g>
    </g>
    <g id="xtick_5">
     <g id="line2d_5">
      <g>
       <use style="stroke:#000000;stroke-width:0.8;" x="296.034022" xlink:href="#m5e0dba0cd8" y="293.479494"/>
      </g>
     </g>
     <g id="text_5">
      <!-- 1.0 -->
      <defs>
       <path d="M 12.40625 8.296875 
L 28.515625 8.296875 
L 28.515625 63.921875 
L 10.984375 60.40625 
L 10.984375 69.390625 
L 28.421875 72.90625 
L 38.28125 72.90625 
L 38.28125 8.296875 
L 54.390625 8.296875 
L 54.390625 0 
L 12.40625 0 
z
" id="DejaVuSans-31"/>
      </defs>
      <g transform="translate(288.08246 308.077932)scale(0.1 -0.1)">
       <use xlink:href="#DejaVuSans-31"/>
       <use x="63.623047" xlink:href="#DejaVuSans-2e"/>
       <use x="95.410156" xlink:href="#DejaVuSans-30"/>
      </g>
     </g>
    </g>
   </g>
   <g id="matplotlib.axis_2">
    <g id="ytick_1">
     <g id="line2d_6">
      <defs>
       <path d="M 0 0 
L -3.5 0 
" id="m8e6388cd1f" style="stroke:#000000;stroke-width:0.8;"/>
      </defs>
      <g>
       <use style="stroke:#000000;stroke-width:0.8;" x="57.6" xlink:href="#m8e6388cd1f" y="246.217517"/>
      </g>
     </g>
     <g id="text_6">
      <!-- 0.2 -->
      <g transform="translate(34.696875 250.016735)scale(0.1 -0.1)">
       <use xlink:href="#DejaVuSans-30"/>
       <use x="63.623047" xlink:href="#DejaVuSans-2e"/>
       <use x="95.410156" xlink:href="#DejaVuSans-32"/>
      </g>
     </g>
    </g>
    <g id="ytick_2">
     <g id="line2d_7">
      <g>
       <use style="stroke:#000000;stroke-width:0.8;" x="57.6" xlink:href="#m8e6388cd1f" y="198.424506"/>
      </g>
     </g>
     <g id="text_7">
      <!-- 0.4 -->
      <g transform="translate(34.696875 202.223724)scale(0.1 -0.1)">
       <use xlink:href="#DejaVuSans-30"/>
       <use x="63.623047" xlink:href="#DejaVuSans-2e"/>
       <use x="95.410156" xlink:href="#DejaVuSans-34"/>
      </g>
     </g>
    </g>
    <g id="ytick_3">
     <g id="line2d_8">
      <g>
       <use style="stroke:#000000;stroke-width:0.8;" x="57.6" xlink:href="#m8e6388cd1f" y="150.631494"/>
      </g>
     </g>
     <g id="text_8">
      <!-- 0.6 -->
      <g transform="translate(34.696875 154.430713)scale(0.1 -0.1)">
       <use xlink:href="#DejaVuSans-30"/>
       <use x="63.623047" xlink:href="#DejaVuSans-2e"/>
       <use x="95.410156" xlink:href="#DejaVuSans-36"/>
      </g>
     </g>
    </g>
    <g id="ytick_4">
     <g id="line2d_9">
      <g>
       <use style="stroke:#000000;stroke-width:0.8;" x="57.6" xlink:href="#m8e6388cd1f" y="102.838483"/>
      </g>
     </g>
     <g id="text_9">
      <!-- 0.8 -->
      <g transform="translate(34.696875 106.637702)scale(0.1 -0.1)">
       <use xlink:href="#DejaVuSans-30"/>
       <use x="63.623047" xlink:href="#DejaVuSans-2e"/>
       <use x="95.410156" xlink:href="#DejaVuSans-38"/>
      </g>
     </g>
    </g>
   </g>
   <g id="LineCollection_1">
    <path clip-path="url(#pd4cf066a94)" d="M 274.760071 293.479494 
L 275.233891 291.355361 
L 275.821676 289.231227 
L 276.245072 287.107093 
L 276.288196 286.045026 
L 276.174795 284.982959 
L 275.891929 283.920892 
L 275.323717 282.642844 
L 274.261651 281.262708 
L 273.199584 280.334968 
L 272.137517 279.634187 
L 269.931731 278.610558 
L 266.827182 277.635218 
L 263.640981 276.899848 
L 259.392714 276.11298 
L 253.020312 275.170126 
L 244.523777 274.188563 
L 234.365681 273.300223 
L 223.282439 272.595634 
L 196.730766 271.008467 
L 190.358364 270.374096 
L 183.985963 269.531607 
L 177.613561 268.443521 
L 171.24116 267.108958 
L 151.061888 262.479858 
L 146.813621 261.880881 
L 143.62742 261.64234 
L 140.441219 261.642902 
L 137.255019 261.926917 
L 134.068818 262.526407 
L 131.944684 263.117747 
L 128.758483 264.285254 
L 125.362408 265.865755 
L 121.43833 267.989888 
L 117.773543 270.114022 
L 110.703346 274.048017 
L 107.517145 275.612281 
L 104.330944 276.99616 
L 101.144743 278.185088 
L 97.958543 279.17196 
L 94.772342 279.951163 
L 91.586141 280.514249 
L 88.399941 280.848239 
L 85.21374 280.921999 
L 82.495654 280.734691 
L 80.965472 280.514772 
L 78.841338 280.023597 
L 76.717204 279.265592 
L 74.593071 278.143356 
L 73.531004 277.400861 
L 72.45608 276.486424 
L 71.40687 275.396565 
L 69.856157 273.300223 
L 68.664176 271.176089 
L 67.726264 269.051955 
L 66.961607 266.927822 
L 66.051236 263.741621 
L 65.144223 259.493353 
L 64.465616 255.245086 
L 63.696926 248.872684 
L 62.910335 240.04496 
L 62.004936 226.569279 
L 61.217958 211.700342 
L 60.48133 193.645204 
L 59.770916 170.279732 
L 59.150253 142.665993 
L 58.537002 105.493651 
L 57.992731 58.762706 
L 58.024946 55.576506 
L 58.024946 55.576506 
" style="fill:none;stroke:#000080;stroke-width:1.5;"/>
   </g>
   <g id="LineCollection_2">
    <path clip-path="url(#pd4cf066a94)" d="M 288.083646 293.479494 
L 288.755982 287.107093 
L 288.673147 283.920892 
L 288.173609 277.548491 
L 287.523881 271.176089 
L 285.753544 254.183019 
L 284.205259 242.500283 
L 283.505511 238.252015 
L 282.419639 232.94168 
L 281.256885 228.693413 
L 280.52119 226.569279 
L 279.543676 224.445145 
L 278.509918 222.846399 
L 277.447851 221.726181 
L 276.385784 220.995781 
L 275.323717 220.548642 
L 274.261651 220.300218 
L 272.137517 220.165467 
L 268.951316 220.34441 
L 262.578914 220.786003 
L 256.206513 220.982556 
L 243.46171 221.088498 
L 195.668699 221.343286 
L 176.551494 221.858256 
L 163.806691 222.104842 
L 152.123955 222.09249 
L 138.317086 221.842037 
L 130.882617 221.532167 
L 125.572283 221.122941 
L 120.261948 220.465287 
L 114.951613 219.527237 
L 106.455078 217.880713 
L 104.330944 217.646526 
L 102.20681 217.594248 
L 100.082677 217.797606 
L 97.958543 218.339137 
L 95.834409 219.304555 
L 94.472961 220.196877 
L 92.648208 221.729504 
L 91.112006 223.383078 
L 89.447457 225.507212 
L 87.337874 228.717946 
L 84.31385 234.003747 
L 81.870308 238.252015 
L 80.42034 240.376149 
L 79.524825 241.438216 
L 78.841338 242.124936 
L 77.779271 242.813515 
L 76.717204 243.078572 
L 75.655138 242.889315 
L 74.593071 242.21801 
L 73.531004 241.028972 
L 72.468937 239.269701 
L 71.152725 236.127881 
L 70.126753 232.94168 
L 69.045328 228.693413 
L 67.777467 222.321011 
L 66.762715 215.94861 
L 65.673184 207.452074 
L 64.688481 197.893472 
L 63.642047 185.148669 
L 62.612141 169.217665 
L 61.638967 150.100461 
L 60.670379 125.672922 
L 59.806642 96.997115 
L 58.929902 60.88684 
L 59.001295 55.576506 
L 59.001295 55.576506 
" style="fill:none;stroke:#0000e8;stroke-width:1.5;"/>
   </g>
   <g id="LineCollection_3">
    <path clip-path="url(#pd4cf066a94)" d="M 291.006177 293.479494 
L 291.33288 287.107093 
L 291.185167 282.858825 
L 289.874365 262.679554 
L 287.690171 230.817546 
L 286.457163 217.010677 
L 285.514977 208.514141 
L 284.490339 201.079673 
L 283.571986 195.769338 
L 282.639335 191.521071 
L 281.696119 188.232007 
L 280.370663 185.148669 
L 279.571985 183.81733 
L 278.509918 182.721674 
L 277.447851 182.147588 
L 276.349257 181.962468 
L 275.323717 182.044887 
L 273.199584 182.689407 
L 267.889249 184.804641 
L 265.765115 185.427416 
L 263.640981 185.87942 
L 260.454781 186.290796 
L 256.206513 186.509965 
L 249.834112 186.530382 
L 223.282439 186.432973 
L 137.255019 186.458663 
L 121.324015 186.654522 
L 116.01368 186.480585 
L 110.703346 186.087348 
L 100.082677 185.17792 
L 96.896476 185.234062 
L 94.772342 185.492183 
L 92.648208 186.000211 
L 90.524074 186.831203 
L 88.399941 188.056483 
L 86.664893 189.396937 
L 85.21374 190.735821 
L 83.089606 193.036023 
L 78.841338 197.791743 
L 77.238516 198.955539 
L 76.717204 199.240682 
L 75.655138 199.445228 
L 74.593071 199.185514 
L 73.531004 198.37296 
L 72.429296 196.831405 
L 71.406289 194.707271 
L 70.033464 190.459004 
L 69.000796 186.210736 
L 67.808181 179.838335 
L 66.713916 172.403866 
L 65.702727 163.907331 
L 64.580293 152.224595 
L 63.51315 138.417725 
L 62.519459 122.486721 
L 61.517944 102.30745 
L 60.164661 68.321309 
L 59.923042 59.824773 
L 60.053332 55.576506 
L 60.053332 55.576506 
" style="fill:none;stroke:#0038ff;stroke-width:1.5;"/>
   </g>
   <g id="LineCollection_4">
    <path clip-path="url(#pd4cf066a94)" d="M 292.93176 293.479494 
L 293.008664 284.982959 
L 292.595753 275.424357 
L 289.777211 218.072743 
L 288.547665 198.955539 
L 287.526503 186.210736 
L 286.466357 175.590067 
L 285.539439 168.155599 
L 284.539192 161.783197 
L 283.443415 156.472862 
L 282.590258 153.286662 
L 281.363015 150.100461 
L 280.634052 148.705393 
L 279.571985 147.469137 
L 278.509918 146.882245 
L 277.447851 146.807925 
L 276.385784 147.1229 
L 274.977608 147.976327 
L 273.199584 149.393852 
L 269.935629 152.224595 
L 267.889249 153.7551 
L 265.765115 155.014792 
L 263.640981 155.937355 
L 261.516848 156.561241 
L 259.392714 156.943591 
L 256.206513 157.187031 
L 251.958245 157.154143 
L 237.089309 156.688347 
L 224.344506 156.747234 
L 207.351435 156.735947 
L 121.324015 156.365708 
L 105.393011 156.245013 
L 95.834409 156.183218 
L 92.648208 156.371844 
L 90.524074 156.646869 
L 88.399941 157.094898 
L 86.275807 157.762459 
L 84.151673 158.683203 
L 82.027539 159.84684 
L 77.779271 162.305432 
L 76.717204 162.68543 
L 75.655138 162.823264 
L 74.593071 162.620455 
L 73.374061 161.783197 
L 72.459128 160.72113 
L 71.322738 158.596996 
L 70.160297 155.410796 
L 69.029566 151.162528 
L 67.948515 145.852193 
L 66.777432 138.417725 
L 65.717962 129.92119 
L 64.657864 119.30052 
L 63.563408 105.493651 
L 62.493815 88.50058 
L 61.083583 61.948907 
L 61.088605 58.762706 
L 61.26451 55.576506 
L 61.26451 55.576506 
" style="fill:none;stroke:#0094ff;stroke-width:1.5;"/>
   </g>
   <g id="LineCollection_5">
    <path clip-path="url(#pd4cf066a94)" d="M 294.508021 293.479494 
L 294.373391 280.734691 
L 292.936708 240.376149 
L 291.608081 207.452074 
L 290.608157 187.272803 
L 289.645338 171.341799 
L 288.611239 157.534929 
L 287.612502 146.91426 
L 286.605244 138.417725 
L 285.651898 132.045323 
L 284.632957 126.734989 
L 283.54905 122.486721 
L 282.415058 119.30052 
L 281.696119 117.749867 
L 280.436374 116.11432 
L 279.571985 115.466143 
L 278.509918 115.235325 
L 277.447851 115.469309 
L 276.335643 116.11432 
L 275.114833 117.176387 
L 273.187025 119.30052 
L 267.877224 125.672922 
L 265.632729 127.797056 
L 263.640981 129.255641 
L 261.516848 130.361839 
L 259.392714 131.06005 
L 257.26858 131.418798 
L 255.144446 131.508168 
L 253.020312 131.39573 
L 249.834112 130.979785 
L 238.151375 129.110995 
L 233.903108 128.789471 
L 229.65484 128.69116 
L 223.282439 128.805833 
L 197.792833 129.553368 
L 177.613561 129.791573 
L 90.524074 130.516078 
L 87.337874 130.781961 
L 84.151673 131.264009 
L 80.696921 132.045323 
L 77.779271 132.68712 
L 76.717204 132.788387 
L 75.655138 132.730857 
L 74.593071 132.43246 
L 73.531004 131.791514 
L 72.468937 130.687194 
L 71.355524 128.859123 
L 70.08539 125.672922 
L 69.142412 122.486721 
L 67.982044 117.176387 
L 66.772189 109.741918 
L 65.70622 101.245383 
L 64.652528 90.624714 
L 63.201195 72.569576 
L 62.600633 64.073041 
L 62.516516 59.824773 
L 62.789554 55.576506 
L 62.789554 55.576506 
" style="fill:none;stroke:#0cf4eb;stroke-width:1.5;"/>
   </g>
   <g id="LineCollection_6">
    <path clip-path="url(#pd4cf066a94)" d="M 296.181717 293.479494 
L 296.028977 281.796758 
L 292.731773 183.024535 
L 291.741922 161.783197 
L 290.745771 144.790126 
L 289.8035 132.045323 
L 288.811836 121.424654 
L 287.664679 111.866052 
L 286.698784 105.493651 
L 285.688871 100.183316 
L 284.652664 95.935048 
L 283.648436 92.748848 
L 282.758186 90.509572 
L 281.696119 88.496906 
L 280.634052 87.015877 
L 279.571985 85.964621 
L 278.509918 85.28225 
L 277.447851 84.951638 
L 276.385784 84.951019 
L 275.297181 85.314379 
L 273.955016 86.376446 
L 273.090066 87.438513 
L 271.86024 89.562647 
L 269.394442 94.872981 
L 267.766497 98.059182 
L 266.47507 100.183316 
L 264.703048 102.57672 
L 262.911854 104.431584 
L 261.516848 105.564234 
L 259.392714 106.804872 
L 257.26858 107.587146 
L 255.144446 108.013435 
L 253.020312 108.182722 
L 249.834112 108.126384 
L 245.585844 107.767454 
L 230.716907 106.331551 
L 219.034171 105.489194 
L 209.475569 105.010828 
L 202.0411 104.846791 
L 193.544565 104.900029 
L 179.737695 105.277052 
L 163.806691 105.636521 
L 146.813621 105.758166 
L 101.144743 105.960428 
L 89.462007 106.217092 
L 77.779271 106.56701 
L 76.717204 106.396411 
L 75.655138 106.078984 
L 74.523557 105.493651 
L 73.296307 104.431584 
L 72.423535 103.369517 
L 71.254657 101.245383 
L 70.052755 98.059182 
L 69.143884 94.872981 
L 68.019584 89.562647 
L 66.842085 82.128178 
L 65.535304 71.507509 
L 64.891434 65.135108 
L 64.758559 61.948907 
L 64.820588 59.824773 
L 65.254615 55.576506 
L 65.254615 55.576506 
" style="fill:none;stroke:#56ffa0;stroke-width:1.5;"/>
   </g>
   <g id="LineCollection_7">
    <path clip-path="url(#pd4cf066a94)" d="M 302.435447 293.479494 
L 302.290246 286.045026 
L 301.949694 279.672625 
L 301.249978 271.176089 
L 299.927742 258.431286 
L 297.627123 238.695893 
L 296.505541 228.693413 
L 295.169277 194.707271 
L 294.125711 163.907331 
L 293.157889 141.603926 
L 292.140287 123.548788 
L 291.046067 108.679851 
L 289.925809 96.997115 
L 288.947594 89.562647 
L 287.947009 84.252312 
L 287.006454 80.697276 
L 285.944387 77.779737 
L 284.88232 75.623001 
L 283.536353 73.631643 
L 282.601392 72.569576 
L 281.379458 71.507509 
L 279.671156 70.445442 
L 278.509918 69.957782 
L 276.373008 69.383375 
L 274.261651 69.173289 
L 272.137517 69.21776 
L 270.013383 69.483182 
L 267.889249 69.955278 
L 265.765115 70.598523 
L 263.445349 71.507509 
L 260.454781 73.015839 
L 257.715594 74.69371 
L 254.082379 77.414958 
L 251.958245 79.193329 
L 246.647911 83.635584 
L 244.090227 85.314379 
L 242.399643 86.192173 
L 240.275509 87.024459 
L 238.151375 87.611043 
L 236.027242 87.994732 
L 232.841041 88.281222 
L 229.65484 88.299035 
L 226.468639 88.11522 
L 222.220372 87.645952 
L 216.910037 86.812928 
L 206.289368 84.842448 
L 197.792833 83.393417 
L 190.358364 82.384864 
L 182.923896 81.623986 
L 173.365294 80.902044 
L 148.937755 79.174555 
L 139.379152 78.230692 
L 130.882617 77.19748 
L 123.448149 76.118191 
L 116.01368 74.841846 
L 110.703346 73.76784 
L 106.455078 72.777201 
L 102.20681 71.635854 
L 99.02061 70.634089 
L 96.896476 69.868074 
L 94.772342 69.009662 
L 92.648208 68.011298 
L 90.524074 66.79024 
L 89.462007 66.067048 
L 88.33388 65.135108 
L 87.337874 64.048263 
L 86.653471 63.010974 
L 86.187854 61.948907 
L 85.917417 60.88684 
L 85.735705 58.762706 
L 85.644727 56.638572 
L 85.471725 55.576506 
L 85.471725 55.576506 
" style="fill:none;stroke:#a0ff56;stroke-width:1.5;"/>
   </g>
   <g id="LineCollection_8">
    <path clip-path="url(#pd4cf066a94)" d="M 309.688897 293.479494 
L 309.551014 284.982959 
L 309.181625 276.486424 
L 308.471748 265.865755 
L 307.31052 252.058885 
L 305.371325 231.879613 
L 303.108955 210.638275 
L 300.850155 191.521071 
L 298.752942 175.590067 
L 296.725708 161.783197 
L 296.563397 160.72113 
L 294.714361 123.548788 
L 293.803392 106.555717 
L 293.003731 94.872981 
L 292.316788 87.417616 
L 291.615997 82.128178 
L 290.829588 77.879911 
L 290.015912 74.69371 
L 289.130587 72.142544 
L 288.06852 69.913834 
L 287.006454 68.274227 
L 285.944387 67.047265 
L 284.88232 66.095905 
L 283.455621 65.135108 
L 281.696119 64.262993 
L 279.571985 63.530057 
L 277.353335 63.010974 
L 274.261651 62.528219 
L 270.013383 62.164085 
L 262.578914 61.637419 
L 260.454781 61.311036 
L 258.678685 60.88684 
L 257.26858 60.141426 
L 256.794557 59.824773 
L 256.170216 58.762706 
L 256.206513 57.649398 
L 256.618693 56.638572 
L 257.377741 55.576506 
L 257.377741 55.576506 
" style="fill:none;stroke:#ebff0c;stroke-width:1.5;"/>
   </g>
   <g id="LineCollection_9">
    <path clip-path="url(#pd4cf066a94)" d="M 317.114295 293.479494 
L 316.995003 283.920892 
L 316.631239 273.300223 
L 315.954595 260.55542 
L 314.812472 243.562349 
L 313.081291 221.258944 
L 311.131488 198.955539 
L 309.243682 179.838335 
L 307.461124 163.907331 
L 305.708949 150.100461 
L 303.867166 137.355658 
L 302.121322 126.734989 
L 300.344764 117.176387 
L 298.565406 108.679851 
L 296.815257 101.245383 
L 296.559015 100.183316 
L 295.644049 90.624714 
L 295.365665 87.438513 
L 294.704922 80.004045 
L 294.009957 74.69371 
L 293.378855 71.279824 
L 292.604025 68.321309 
L 291.821797 66.197175 
L 290.717131 64.073041 
L 289.989512 63.010974 
L 289.110446 61.948907 
L 286.862955 59.824773 
L 284.532832 57.700639 
L 283.736187 56.638572 
L 283.229001 55.576506 
L 283.229001 55.576506 
" style="fill:none;stroke:#ffab00;stroke-width:1.5;"/>
   </g>
   <g id="LineCollection_10">
    <path clip-path="url(#pd4cf066a94)" d="M 324.664215 293.479494 
L 324.550006 281.796758 
L 324.174369 267.989888 
L 323.464894 250.996818 
L 322.243042 227.631346 
L 320.626783 201.079673 
L 319.057923 178.776268 
L 317.493432 159.659063 
L 315.96804 143.728059 
L 314.423144 129.92119 
L 312.901198 118.238454 
L 311.295046 107.617784 
L 309.610533 98.059182 
L 308.090825 90.624714 
L 306.594517 84.252312 
L 304.865864 77.879911 
L 303.202704 72.569576 
L 301.302513 67.259242 
L 298.084102 58.762706 
L 297.64461 56.638572 
L 297.603787 55.576506 
L 297.603787 55.576506 
" style="fill:none;stroke:#ff5500;stroke-width:1.5;"/>
   </g>
   <g id="LineCollection_11">
    <path clip-path="url(#pd4cf066a94)" d="M 332.297375 293.479494 
L 332.180553 277.548491 
L 331.799759 258.431286 
L 331.055549 232.94168 
L 329.871039 200.017606 
L 328.627267 171.341799 
L 327.445461 149.038394 
L 326.275121 130.983257 
L 325.105347 116.11432 
L 323.800409 102.30745 
L 322.374453 89.562647 
L 319.780726 67.259242 
L 319.394583 61.948907 
L 319.229585 56.638572 
L 319.226983 55.576506 
L 319.226983 55.576506 
" style="fill:none;stroke:#e80000;stroke-width:1.5;"/>
   </g>
   <g id="LineCollection_12">
    <path clip-path="url(#pd4cf066a94)" d="M 339.977795 293.479494 
L 339.866873 265.865755 
L 339.40129 218.072743 
L 338.623152 161.783197 
L 338.058855 133.10739 
L 337.493796 111.866052 
L 336.758973 89.562647 
L 336.030957 69.383375 
L 335.850985 57.700639 
L 335.847383 55.576506 
L 335.847383 55.576506 
" style="fill:none;stroke:#800000;stroke-width:1.5;"/>
   </g>
   <g id="patch_3">
    <path d="M 57.6 293.479494 
L 57.6 55.576506 
" style="fill:none;stroke:#000000;stroke-linecap:square;stroke-linejoin:miter;stroke-width:0.8;"/>
   </g>
   <g id="patch_4">
    <path d="M 343.296 293.479494 
L 343.296 55.576506 
" style="fill:none;stroke:#000000;stroke-linecap:square;stroke-linejoin:miter;stroke-width:0.8;"/>
   </g>
   <g id="patch_5">
    <path d="M 57.6 293.479494 
L 343.296 293.479494 
" style="fill:none;stroke:#000000;stroke-linecap:square;stroke-linejoin:miter;stroke-width:0.8;"/>
   </g>
   <g id="patch_6">
    <path d="M 57.6 55.576506 
L 343.296 55.576506 
" style="fill:none;stroke:#000000;stroke-linecap:square;stroke-linejoin:miter;stroke-width:0.8;"/>
   </g>
   <g id="text_10">
    <!-- Time:0.05597 s -->
    <defs>
     <path d="M -0.296875 72.90625 
L 61.375 72.90625 
L 61.375 64.59375 
L 35.5 64.59375 
L 35.5 0 
L 25.59375 0 
L 25.59375 64.59375 
L -0.296875 64.59375 
z
" id="DejaVuSans-54"/>
     <path d="M 9.421875 54.6875 
L 18.40625 54.6875 
L 18.40625 0 
L 9.421875 0 
z
M 9.421875 75.984375 
L 18.40625 75.984375 
L 18.40625 64.59375 
L 9.421875 64.59375 
z
" id="DejaVuSans-69"/>
     <path d="M 52 44.1875 
Q 55.375 50.25 60.0625 53.125 
Q 64.75 56 71.09375 56 
Q 79.640625 56 84.28125 50.015625 
Q 88.921875 44.046875 88.921875 33.015625 
L 88.921875 0 
L 79.890625 0 
L 79.890625 32.71875 
Q 79.890625 40.578125 77.09375 44.375 
Q 74.3125 48.1875 68.609375 48.1875 
Q 61.625 48.1875 57.5625 43.546875 
Q 53.515625 38.921875 53.515625 30.90625 
L 53.515625 0 
L 44.484375 0 
L 44.484375 32.71875 
Q 44.484375 40.625 41.703125 44.40625 
Q 38.921875 48.1875 33.109375 48.1875 
Q 26.21875 48.1875 22.15625 43.53125 
Q 18.109375 38.875 18.109375 30.90625 
L 18.109375 0 
L 9.078125 0 
L 9.078125 54.6875 
L 18.109375 54.6875 
L 18.109375 46.1875 
Q 21.1875 51.21875 25.484375 53.609375 
Q 29.78125 56 35.6875 56 
Q 41.65625 56 45.828125 52.96875 
Q 50 49.953125 52 44.1875 
z
" id="DejaVuSans-6d"/>
     <path d="M 56.203125 29.59375 
L 56.203125 25.203125 
L 14.890625 25.203125 
Q 15.484375 15.921875 20.484375 11.0625 
Q 25.484375 6.203125 34.421875 6.203125 
Q 39.59375 6.203125 44.453125 7.46875 
Q 49.3125 8.734375 54.109375 11.28125 
L 54.109375 2.78125 
Q 49.265625 0.734375 44.1875 -0.34375 
Q 39.109375 -1.421875 33.890625 -1.421875 
Q 20.796875 -1.421875 13.15625 6.1875 
Q 5.515625 13.8125 5.515625 26.8125 
Q 5.515625 40.234375 12.765625 48.109375 
Q 20.015625 56 32.328125 56 
Q 43.359375 56 49.78125 48.890625 
Q 56.203125 41.796875 56.203125 29.59375 
z
M 47.21875 32.234375 
Q 47.125 39.59375 43.09375 43.984375 
Q 39.0625 48.390625 32.421875 48.390625 
Q 24.90625 48.390625 20.390625 44.140625 
Q 15.875 39.890625 15.1875 32.171875 
z
" id="DejaVuSans-65"/>
     <path d="M 11.71875 12.40625 
L 22.015625 12.40625 
L 22.015625 0 
L 11.71875 0 
z
M 11.71875 51.703125 
L 22.015625 51.703125 
L 22.015625 39.3125 
L 11.71875 39.3125 
z
" id="DejaVuSans-3a"/>
     <path d="M 10.796875 72.90625 
L 49.515625 72.90625 
L 49.515625 64.59375 
L 19.828125 64.59375 
L 19.828125 46.734375 
Q 21.96875 47.46875 24.109375 47.828125 
Q 26.265625 48.1875 28.421875 48.1875 
Q 40.625 48.1875 47.75 41.5 
Q 54.890625 34.8125 54.890625 23.390625 
Q 54.890625 11.625 47.5625 5.09375 
Q 40.234375 -1.421875 26.90625 -1.421875 
Q 22.3125 -1.421875 17.546875 -0.640625 
Q 12.796875 0.140625 7.71875 1.703125 
L 7.71875 11.625 
Q 12.109375 9.234375 16.796875 8.0625 
Q 21.484375 6.890625 26.703125 6.890625 
Q 35.15625 6.890625 40.078125 11.328125 
Q 45.015625 15.765625 45.015625 23.390625 
Q 45.015625 31 40.078125 35.4375 
Q 35.15625 39.890625 26.703125 39.890625 
Q 22.75 39.890625 18.8125 39.015625 
Q 14.890625 38.140625 10.796875 36.28125 
z
" id="DejaVuSans-35"/>
     <path d="M 10.984375 1.515625 
L 10.984375 10.5 
Q 14.703125 8.734375 18.5 7.8125 
Q 22.3125 6.890625 25.984375 6.890625 
Q 35.75 6.890625 40.890625 13.453125 
Q 46.046875 20.015625 46.78125 33.40625 
Q 43.953125 29.203125 39.59375 26.953125 
Q 35.25 24.703125 29.984375 24.703125 
Q 19.046875 24.703125 12.671875 31.3125 
Q 6.296875 37.9375 6.296875 49.421875 
Q 6.296875 60.640625 12.9375 67.421875 
Q 19.578125 74.21875 30.609375 74.21875 
Q 43.265625 74.21875 49.921875 64.515625 
Q 56.59375 54.828125 56.59375 36.375 
Q 56.59375 19.140625 48.40625 8.859375 
Q 40.234375 -1.421875 26.421875 -1.421875 
Q 22.703125 -1.421875 18.890625 -0.6875 
Q 15.09375 0.046875 10.984375 1.515625 
z
M 30.609375 32.421875 
Q 37.25 32.421875 41.125 36.953125 
Q 45.015625 41.5 45.015625 49.421875 
Q 45.015625 57.28125 41.125 61.84375 
Q 37.25 66.40625 30.609375 66.40625 
Q 23.96875 66.40625 20.09375 61.84375 
Q 16.21875 57.28125 16.21875 49.421875 
Q 16.21875 41.5 20.09375 36.953125 
Q 23.96875 32.421875 30.609375 32.421875 
z
" id="DejaVuSans-39"/>
     <path d="M 8.203125 72.90625 
L 55.078125 72.90625 
L 55.078125 68.703125 
L 28.609375 0 
L 18.3125 0 
L 43.21875 64.59375 
L 8.203125 64.59375 
z
" id="DejaVuSans-37"/>
     <path id="DejaVuSans-20"/>
     <path d="M 44.28125 53.078125 
L 44.28125 44.578125 
Q 40.484375 46.53125 36.375 47.5 
Q 32.28125 48.484375 27.875 48.484375 
Q 21.1875 48.484375 17.84375 46.4375 
Q 14.5 44.390625 14.5 40.28125 
Q 14.5 37.15625 16.890625 35.375 
Q 19.28125 33.59375 26.515625 31.984375 
L 29.59375 31.296875 
Q 39.15625 29.25 43.1875 25.515625 
Q 47.21875 21.78125 47.21875 15.09375 
Q 47.21875 7.46875 41.1875 3.015625 
Q 35.15625 -1.421875 24.609375 -1.421875 
Q 20.21875 -1.421875 15.453125 -0.5625 
Q 10.6875 0.296875 5.421875 2 
L 5.421875 11.28125 
Q 10.40625 8.6875 15.234375 7.390625 
Q 20.0625 6.109375 24.8125 6.109375 
Q 31.15625 6.109375 34.5625 8.28125 
Q 37.984375 10.453125 37.984375 14.40625 
Q 37.984375 18.0625 35.515625 20.015625 
Q 33.0625 21.96875 24.703125 23.78125 
L 21.578125 24.515625 
Q 13.234375 26.265625 9.515625 29.90625 
Q 5.8125 33.546875 5.8125 39.890625 
Q 5.8125 47.609375 11.28125 51.796875 
Q 16.75 56 26.8125 56 
Q 31.78125 56 36.171875 55.265625 
Q 40.578125 54.546875 44.28125 53.078125 
z
" id="DejaVuSans-73"/>
    </defs>
    <g transform="translate(153.717375 49.576506)scale(0.12 -0.12)">
     <use xlink:href="#DejaVuSans-54"/>
     <use x="61.037109" xlink:href="#DejaVuSans-69"/>
     <use x="88.820312" xlink:href="#DejaVuSans-6d"/>
     <use x="186.232422" xlink:href="#DejaVuSans-65"/>
     <use x="247.755859" xlink:href="#DejaVuSans-3a"/>
     <use x="281.447266" xlink:href="#DejaVuSans-30"/>
     <use x="345.070312" xlink:href="#DejaVuSans-2e"/>
     <use x="376.857422" xlink:href="#DejaVuSans-30"/>
     <use x="440.480469" xlink:href="#DejaVuSans-35"/>
     <use x="504.103516" xlink:href="#DejaVuSans-35"/>
     <use x="567.726562" xlink:href="#DejaVuSans-39"/>
     <use x="631.349609" xlink:href="#DejaVuSans-37"/>
     <use x="694.972656" xlink:href="#DejaVuSans-20"/>
     <use x="726.759766" xlink:href="#DejaVuSans-73"/>
    </g>
   </g>
  </g>
  <g id="axes_2">
   <g id="patch_7">
    <path clip-path="url(#p494f33df57)" d="M 361.152 307.584 
L 361.152 283.392 
L 361.152 65.664 
L 361.152 41.472 
L 374.4576 41.472 
L 374.4576 65.664 
L 374.4576 283.392 
L 374.4576 307.584 
z
" style="fill:#ffffff;stroke:#ffffff;stroke-linejoin:miter;stroke-width:0.01;"/>
   </g>
   <g id="matplotlib.axis_3"/>
   <g id="matplotlib.axis_4">
    <g id="ytick_5">
     <g id="line2d_10">
      <defs>
       <path d="M 0 0 
L 3.5 0 
" id="ma2fe3955cd" style="stroke:#000000;stroke-width:0.8;"/>
      </defs>
      <g>
       <use style="stroke:#000000;stroke-width:0.8;" x="374.4576" xlink:href="#ma2fe3955cd" y="307.584"/>
      </g>
     </g>
     <g id="text_11">
      <!-- 0.08 -->
      <g transform="translate(381.4576 311.383219)scale(0.1 -0.1)">
       <use xlink:href="#DejaVuSans-30"/>
       <use x="63.623047" xlink:href="#DejaVuSans-2e"/>
       <use x="95.410156" xlink:href="#DejaVuSans-30"/>
       <use x="159.033203" xlink:href="#DejaVuSans-38"/>
      </g>
     </g>
    </g>
    <g id="ytick_6">
     <g id="line2d_11">
      <g>
       <use style="stroke:#000000;stroke-width:0.8;" x="374.4576" xlink:href="#ma2fe3955cd" y="259.2"/>
      </g>
     </g>
     <g id="text_12">
      <!-- 0.24 -->
      <g transform="translate(381.4576 262.999219)scale(0.1 -0.1)">
       <use xlink:href="#DejaVuSans-30"/>
       <use x="63.623047" xlink:href="#DejaVuSans-2e"/>
       <use x="95.410156" xlink:href="#DejaVuSans-32"/>
       <use x="159.033203" xlink:href="#DejaVuSans-34"/>
      </g>
     </g>
    </g>
    <g id="ytick_7">
     <g id="line2d_12">
      <g>
       <use style="stroke:#000000;stroke-width:0.8;" x="374.4576" xlink:href="#ma2fe3955cd" y="210.816"/>
      </g>
     </g>
     <g id="text_13">
      <!-- 0.40 -->
      <g transform="translate(381.4576 214.615219)scale(0.1 -0.1)">
       <use xlink:href="#DejaVuSans-30"/>
       <use x="63.623047" xlink:href="#DejaVuSans-2e"/>
       <use x="95.410156" xlink:href="#DejaVuSans-34"/>
       <use x="159.033203" xlink:href="#DejaVuSans-30"/>
      </g>
     </g>
    </g>
    <g id="ytick_8">
     <g id="line2d_13">
      <g>
       <use style="stroke:#000000;stroke-width:0.8;" x="374.4576" xlink:href="#ma2fe3955cd" y="162.432"/>
      </g>
     </g>
     <g id="text_14">
      <!-- 0.56 -->
      <g transform="translate(381.4576 166.231219)scale(0.1 -0.1)">
       <use xlink:href="#DejaVuSans-30"/>
       <use x="63.623047" xlink:href="#DejaVuSans-2e"/>
       <use x="95.410156" xlink:href="#DejaVuSans-35"/>
       <use x="159.033203" xlink:href="#DejaVuSans-36"/>
      </g>
     </g>
    </g>
    <g id="ytick_9">
     <g id="line2d_14">
      <g>
       <use style="stroke:#000000;stroke-width:0.8;" x="374.4576" xlink:href="#ma2fe3955cd" y="114.048"/>
      </g>
     </g>
     <g id="text_15">
      <!-- 0.72 -->
      <g transform="translate(381.4576 117.847219)scale(0.1 -0.1)">
       <use xlink:href="#DejaVuSans-30"/>
       <use x="63.623047" xlink:href="#DejaVuSans-2e"/>
       <use x="95.410156" xlink:href="#DejaVuSans-37"/>
       <use x="159.033203" xlink:href="#DejaVuSans-32"/>
      </g>
     </g>
    </g>
    <g id="ytick_10">
     <g id="line2d_15">
      <g>
       <use style="stroke:#000000;stroke-width:0.8;" x="374.4576" xlink:href="#ma2fe3955cd" y="65.664"/>
      </g>
     </g>
     <g id="text_16">
      <!-- 0.88 -->
      <g transform="translate(381.4576 69.463219)scale(0.1 -0.1)">
       <use xlink:href="#DejaVuSans-30"/>
       <use x="63.623047" xlink:href="#DejaVuSans-2e"/>
       <use x="95.410156" xlink:href="#DejaVuSans-38"/>
       <use x="159.033203" xlink:href="#DejaVuSans-38"/>
      </g>
     </g>
    </g>
   </g>
   <g id="LineCollection_13">
    <path clip-path="url(#p494f33df57)" d="M 361.152 307.584 
L 374.4576 307.584 
" style="fill:none;stroke:#000080;stroke-width:1.5;"/>
    <path clip-path="url(#p494f33df57)" d="M 361.152 283.392 
L 374.4576 283.392 
" style="fill:none;stroke:#0000e8;stroke-width:1.5;"/>
    <path clip-path="url(#p494f33df57)" d="M 361.152 259.2 
L 374.4576 259.2 
" style="fill:none;stroke:#0038ff;stroke-width:1.5;"/>
    <path clip-path="url(#p494f33df57)" d="M 361.152 235.008 
L 374.4576 235.008 
" style="fill:none;stroke:#0094ff;stroke-width:1.5;"/>
    <path clip-path="url(#p494f33df57)" d="M 361.152 210.816 
L 374.4576 210.816 
" style="fill:none;stroke:#0cf4eb;stroke-width:1.5;"/>
    <path clip-path="url(#p494f33df57)" d="M 361.152 186.624 
L 374.4576 186.624 
" style="fill:none;stroke:#56ffa0;stroke-width:1.5;"/>
    <path clip-path="url(#p494f33df57)" d="M 361.152 162.432 
L 374.4576 162.432 
" style="fill:none;stroke:#a0ff56;stroke-width:1.5;"/>
    <path clip-path="url(#p494f33df57)" d="M 361.152 138.24 
L 374.4576 138.24 
" style="fill:none;stroke:#ebff0c;stroke-width:1.5;"/>
    <path clip-path="url(#p494f33df57)" d="M 361.152 114.048 
L 374.4576 114.048 
" style="fill:none;stroke:#ffab00;stroke-width:1.5;"/>
    <path clip-path="url(#p494f33df57)" d="M 361.152 89.856 
L 374.4576 89.856 
" style="fill:none;stroke:#ff5500;stroke-width:1.5;"/>
    <path clip-path="url(#p494f33df57)" d="M 361.152 65.664 
L 374.4576 65.664 
" style="fill:none;stroke:#e80000;stroke-width:1.5;"/>
    <path clip-path="url(#p494f33df57)" d="M 361.152 41.472 
L 374.4576 41.472 
" style="fill:none;stroke:#800000;stroke-width:1.5;"/>
   </g>
   <g id="patch_8">
    <path d="M 361.152 307.584 
L 361.152 283.392 
L 361.152 65.664 
L 361.152 41.472 
L 374.4576 41.472 
L 374.4576 65.664 
L 374.4576 283.392 
L 374.4576 307.584 
z
" style="fill:none;stroke:#000000;stroke-linejoin:miter;stroke-width:0.8;"/>
   </g>
  </g>
 </g>
 <defs>
  <clipPath id="pd4cf066a94">
   <rect height="237.902989" width="285.696" x="57.6" y="55.576506"/>
  </clipPath>
  <clipPath id="p494f33df57">
   <rect height="266.112" width="13.3056" x="361.152" y="41.472"/>
  </clipPath>
 </defs>
</svg>
