<?xml version="1.0" encoding="utf-8" standalone="no"?>
<!DOCTYPE svg PUBLIC "-//W3C//DTD SVG 1.1//EN"
  "http://www.w3.org/Graphics/SVG/1.1/DTD/svg11.dtd">
<!-- Created with matplotlib (http://matplotlib.org/) -->
<svg height="345.6pt" version="1.1" viewBox="0 0 460.8 345.6" width="460.8pt" xmlns="http://www.w3.org/2000/svg" xmlns:xlink="http://www.w3.org/1999/xlink">
 <defs>
  <style type="text/css">
*{stroke-linecap:butt;stroke-linejoin:round;}
  </style>
 </defs>
 <g id="figure_1">
  <g id="patch_1">
   <path d="M 0 345.6 
L 460.8 345.6 
L 460.8 0 
L 0 0 
z
" style="fill:#ffffff;"/>
  </g>
  <g id="axes_1">
   <g id="patch_2">
    <path d="M 57.6 293.479494 
L 343.296 293.479494 
L 343.296 55.576506 
L 57.6 55.576506 
z
" style="fill:#ffffff;"/>
   </g>
   <g id="matplotlib.axis_1">
    <g id="xtick_1">
     <g id="line2d_1">
      <defs>
       <path d="M 0 0 
L 0 3.5 
" id="m18249a6638" style="stroke:#000000;stroke-width:0.8;"/>
      </defs>
      <g>
       <use style="stroke:#000000;stroke-width:0.8;" x="104.861978" xlink:href="#m18249a6638" y="293.479494"/>
      </g>
     </g>
     <g id="text_1">
      <!-- 0.2 -->
      <defs>
       <path d="M 31.78125 66.40625 
Q 24.171875 66.40625 20.328125 58.90625 
Q 16.5 51.421875 16.5 36.375 
Q 16.5 21.390625 20.328125 13.890625 
Q 24.171875 6.390625 31.78125 6.390625 
Q 39.453125 6.390625 43.28125 13.890625 
Q 47.125 21.390625 47.125 36.375 
Q 47.125 51.421875 43.28125 58.90625 
Q 39.453125 66.40625 31.78125 66.40625 
z
M 31.78125 74.21875 
Q 44.046875 74.21875 50.515625 64.515625 
Q 56.984375 54.828125 56.984375 36.375 
Q 56.984375 17.96875 50.515625 8.265625 
Q 44.046875 -1.421875 31.78125 -1.421875 
Q 19.53125 -1.421875 13.0625 8.265625 
Q 6.59375 17.96875 6.59375 36.375 
Q 6.59375 54.828125 13.0625 64.515625 
Q 19.53125 74.21875 31.78125 74.21875 
z
" id="DejaVuSans-30"/>
       <path d="M 10.6875 12.40625 
L 21 12.40625 
L 21 0 
L 10.6875 0 
z
" id="DejaVuSans-2e"/>
       <path d="M 19.1875 8.296875 
L 53.609375 8.296875 
L 53.609375 0 
L 7.328125 0 
L 7.328125 8.296875 
Q 12.9375 14.109375 22.625 23.890625 
Q 32.328125 33.6875 34.8125 36.53125 
Q 39.546875 41.84375 41.421875 45.53125 
Q 43.3125 49.21875 43.3125 52.78125 
Q 43.3125 58.59375 39.234375 62.25 
Q 35.15625 65.921875 28.609375 65.921875 
Q 23.96875 65.921875 18.8125 64.3125 
Q 13.671875 62.703125 7.8125 59.421875 
L 7.8125 69.390625 
Q 13.765625 71.78125 18.9375 73 
Q 24.125 74.21875 28.421875 74.21875 
Q 39.75 74.21875 46.484375 68.546875 
Q 53.21875 62.890625 53.21875 53.421875 
Q 53.21875 48.921875 51.53125 44.890625 
Q 49.859375 40.875 45.40625 35.40625 
Q 44.1875 33.984375 37.640625 27.21875 
Q 31.109375 20.453125 19.1875 8.296875 
z
" id="DejaVuSans-32"/>
      </defs>
      <g transform="translate(96.910415 308.077932)scale(0.1 -0.1)">
       <use xlink:href="#DejaVuSans-30"/>
       <use x="63.623047" xlink:href="#DejaVuSans-2e"/>
       <use x="95.410156" xlink:href="#DejaVuSans-32"/>
      </g>
     </g>
    </g>
    <g id="xtick_2">
     <g id="line2d_2">
      <g>
       <use style="stroke:#000000;stroke-width:0.8;" x="152.654989" xlink:href="#m18249a6638" y="293.479494"/>
      </g>
     </g>
     <g id="text_2">
      <!-- 0.4 -->
      <defs>
       <path d="M 37.796875 64.3125 
L 12.890625 25.390625 
L 37.796875 25.390625 
z
M 35.203125 72.90625 
L 47.609375 72.90625 
L 47.609375 25.390625 
L 58.015625 25.390625 
L 58.015625 17.1875 
L 47.609375 17.1875 
L 47.609375 0 
L 37.796875 0 
L 37.796875 17.1875 
L 4.890625 17.1875 
L 4.890625 26.703125 
z
" id="DejaVuSans-34"/>
      </defs>
      <g transform="translate(144.703426 308.077932)scale(0.1 -0.1)">
       <use xlink:href="#DejaVuSans-30"/>
       <use x="63.623047" xlink:href="#DejaVuSans-2e"/>
       <use x="95.410156" xlink:href="#DejaVuSans-34"/>
      </g>
     </g>
    </g>
    <g id="xtick_3">
     <g id="line2d_3">
      <g>
       <use style="stroke:#000000;stroke-width:0.8;" x="200.448" xlink:href="#m18249a6638" y="293.479494"/>
      </g>
     </g>
     <g id="text_3">
      <!-- 0.6 -->
      <defs>
       <path d="M 33.015625 40.375 
Q 26.375 40.375 22.484375 35.828125 
Q 18.609375 31.296875 18.609375 23.390625 
Q 18.609375 15.53125 22.484375 10.953125 
Q 26.375 6.390625 33.015625 6.390625 
Q 39.65625 6.390625 43.53125 10.953125 
Q 47.40625 15.53125 47.40625 23.390625 
Q 47.40625 31.296875 43.53125 35.828125 
Q 39.65625 40.375 33.015625 40.375 
z
M 52.59375 71.296875 
L 52.59375 62.3125 
Q 48.875 64.0625 45.09375 64.984375 
Q 41.3125 65.921875 37.59375 65.921875 
Q 27.828125 65.921875 22.671875 59.328125 
Q 17.53125 52.734375 16.796875 39.40625 
Q 19.671875 43.65625 24.015625 45.921875 
Q 28.375 48.1875 33.59375 48.1875 
Q 44.578125 48.1875 50.953125 41.515625 
Q 57.328125 34.859375 57.328125 23.390625 
Q 57.328125 12.15625 50.6875 5.359375 
Q 44.046875 -1.421875 33.015625 -1.421875 
Q 20.359375 -1.421875 13.671875 8.265625 
Q 6.984375 17.96875 6.984375 36.375 
Q 6.984375 53.65625 15.1875 63.9375 
Q 23.390625 74.21875 37.203125 74.21875 
Q 40.921875 74.21875 44.703125 73.484375 
Q 48.484375 72.75 52.59375 71.296875 
z
" id="DejaVuSans-36"/>
      </defs>
      <g transform="translate(192.496438 308.077932)scale(0.1 -0.1)">
       <use xlink:href="#DejaVuSans-30"/>
       <use x="63.623047" xlink:href="#DejaVuSans-2e"/>
       <use x="95.410156" xlink:href="#DejaVuSans-36"/>
      </g>
     </g>
    </g>
    <g id="xtick_4">
     <g id="line2d_4">
      <g>
       <use style="stroke:#000000;stroke-width:0.8;" x="248.241011" xlink:href="#m18249a6638" y="293.479494"/>
      </g>
     </g>
     <g id="text_4">
      <!-- 0.8 -->
      <defs>
       <path d="M 31.78125 34.625 
Q 24.75 34.625 20.71875 30.859375 
Q 16.703125 27.09375 16.703125 20.515625 
Q 16.703125 13.921875 20.71875 10.15625 
Q 24.75 6.390625 31.78125 6.390625 
Q 38.8125 6.390625 42.859375 10.171875 
Q 46.921875 13.96875 46.921875 20.515625 
Q 46.921875 27.09375 42.890625 30.859375 
Q 38.875 34.625 31.78125 34.625 
z
M 21.921875 38.8125 
Q 15.578125 40.375 12.03125 44.71875 
Q 8.5 49.078125 8.5 55.328125 
Q 8.5 64.0625 14.71875 69.140625 
Q 20.953125 74.21875 31.78125 74.21875 
Q 42.671875 74.21875 48.875 69.140625 
Q 55.078125 64.0625 55.078125 55.328125 
Q 55.078125 49.078125 51.53125 44.71875 
Q 48 40.375 41.703125 38.8125 
Q 48.828125 37.15625 52.796875 32.3125 
Q 56.78125 27.484375 56.78125 20.515625 
Q 56.78125 9.90625 50.3125 4.234375 
Q 43.84375 -1.421875 31.78125 -1.421875 
Q 19.734375 -1.421875 13.25 4.234375 
Q 6.78125 9.90625 6.78125 20.515625 
Q 6.78125 27.484375 10.78125 32.3125 
Q 14.796875 37.15625 21.921875 38.8125 
z
M 18.3125 54.390625 
Q 18.3125 48.734375 21.84375 45.5625 
Q 25.390625 42.390625 31.78125 42.390625 
Q 38.140625 42.390625 41.71875 45.5625 
Q 45.3125 48.734375 45.3125 54.390625 
Q 45.3125 60.0625 41.71875 63.234375 
Q 38.140625 66.40625 31.78125 66.40625 
Q 25.390625 66.40625 21.84375 63.234375 
Q 18.3125 60.0625 18.3125 54.390625 
z
" id="DejaVuSans-38"/>
      </defs>
      <g transform="translate(240.289449 308.077932)scale(0.1 -0.1)">
       <use xlink:href="#DejaVuSans-30"/>
       <use x="63.623047" xlink:href="#DejaVuSans-2e"/>
       <use x="95.410156" xlink:href="#DejaVuSans-38"/>
      </g>
     </g>
    </g>
    <g id="xtick_5">
     <g id="line2d_5">
      <g>
       <use style="stroke:#000000;stroke-width:0.8;" x="296.034022" xlink:href="#m18249a6638" y="293.479494"/>
      </g>
     </g>
     <g id="text_5">
      <!-- 1.0 -->
      <defs>
       <path d="M 12.40625 8.296875 
L 28.515625 8.296875 
L 28.515625 63.921875 
L 10.984375 60.40625 
L 10.984375 69.390625 
L 28.421875 72.90625 
L 38.28125 72.90625 
L 38.28125 8.296875 
L 54.390625 8.296875 
L 54.390625 0 
L 12.40625 0 
z
" id="DejaVuSans-31"/>
      </defs>
      <g transform="translate(288.08246 308.077932)scale(0.1 -0.1)">
       <use xlink:href="#DejaVuSans-31"/>
       <use x="63.623047" xlink:href="#DejaVuSans-2e"/>
       <use x="95.410156" xlink:href="#DejaVuSans-30"/>
      </g>
     </g>
    </g>
   </g>
   <g id="matplotlib.axis_2">
    <g id="ytick_1">
     <g id="line2d_6">
      <defs>
       <path d="M 0 0 
L -3.5 0 
" id="m21c653aaf9" style="stroke:#000000;stroke-width:0.8;"/>
      </defs>
      <g>
       <use style="stroke:#000000;stroke-width:0.8;" x="57.6" xlink:href="#m21c653aaf9" y="246.217517"/>
      </g>
     </g>
     <g id="text_6">
      <!-- 0.2 -->
      <g transform="translate(34.696875 250.016735)scale(0.1 -0.1)">
       <use xlink:href="#DejaVuSans-30"/>
       <use x="63.623047" xlink:href="#DejaVuSans-2e"/>
       <use x="95.410156" xlink:href="#DejaVuSans-32"/>
      </g>
     </g>
    </g>
    <g id="ytick_2">
     <g id="line2d_7">
      <g>
       <use style="stroke:#000000;stroke-width:0.8;" x="57.6" xlink:href="#m21c653aaf9" y="198.424506"/>
      </g>
     </g>
     <g id="text_7">
      <!-- 0.4 -->
      <g transform="translate(34.696875 202.223724)scale(0.1 -0.1)">
       <use xlink:href="#DejaVuSans-30"/>
       <use x="63.623047" xlink:href="#DejaVuSans-2e"/>
       <use x="95.410156" xlink:href="#DejaVuSans-34"/>
      </g>
     </g>
    </g>
    <g id="ytick_3">
     <g id="line2d_8">
      <g>
       <use style="stroke:#000000;stroke-width:0.8;" x="57.6" xlink:href="#m21c653aaf9" y="150.631494"/>
      </g>
     </g>
     <g id="text_8">
      <!-- 0.6 -->
      <g transform="translate(34.696875 154.430713)scale(0.1 -0.1)">
       <use xlink:href="#DejaVuSans-30"/>
       <use x="63.623047" xlink:href="#DejaVuSans-2e"/>
       <use x="95.410156" xlink:href="#DejaVuSans-36"/>
      </g>
     </g>
    </g>
    <g id="ytick_4">
     <g id="line2d_9">
      <g>
       <use style="stroke:#000000;stroke-width:0.8;" x="57.6" xlink:href="#m21c653aaf9" y="102.838483"/>
      </g>
     </g>
     <g id="text_9">
      <!-- 0.8 -->
      <g transform="translate(34.696875 106.637702)scale(0.1 -0.1)">
       <use xlink:href="#DejaVuSans-30"/>
       <use x="63.623047" xlink:href="#DejaVuSans-2e"/>
       <use x="95.410156" xlink:href="#DejaVuSans-38"/>
      </g>
     </g>
    </g>
   </g>
   <g id="LineCollection_1">
    <path clip-path="url(#pfbe6f8c6ee)" d="M 118.1293 293.479494 
L 117.924954 292.417428 
L 117.601465 291.355361 
L 117.075747 290.2875 
L 116.01368 289.025922 
L 114.904754 288.16916 
L 112.82748 287.234894 
L 111.765413 286.923223 
L 109.641279 286.498874 
L 106.455078 286.126989 
L 103.268877 285.971996 
L 93.710275 285.85721 
L 88.399941 285.673952 
L 84.151673 285.300772 
L 80.965472 284.800261 
L 78.841338 284.31668 
L 76.717204 283.653111 
L 74.593071 282.744132 
L 72.468937 281.469821 
L 71.40687 280.638911 
L 70.344803 279.628608 
L 68.687125 277.548491 
L 68.017298 276.486424 
L 66.930683 274.36229 
L 66.074295 272.238156 
L 65.034468 268.837433 
L 64.146351 264.803688 
L 63.470163 260.55542 
L 62.854067 255.245086 
L 62.259132 247.810617 
L 61.644402 237.189948 
L 60.786201 217.684228 
L 60.031813 194.707271 
L 59.389331 168.155599 
L 58.750502 132.045323 
L 58.166847 86.376446 
L 57.911379 55.576506 
L 57.911379 55.576506 
" style="fill:none;stroke:#000080;stroke-width:1.5;"/>
   </g>
   <g id="LineCollection_2">
    <path clip-path="url(#pfbe6f8c6ee)" d="M 286.063534 293.479494 
L 286.433412 291.355361 
L 287.006454 288.248855 
L 287.083645 287.107093 
L 287.075922 283.920892 
L 286.848361 280.734691 
L 285.699722 270.114022 
L 283.820253 255.959893 
L 282.218081 247.810617 
L 281.389913 244.624416 
L 280.29264 241.438216 
L 279.296869 239.314082 
L 278.509918 238.014346 
L 277.447851 236.783515 
L 276.385784 235.942184 
L 275.323717 235.385554 
L 274.261651 235.028204 
L 272.137517 234.69486 
L 268.951316 234.633913 
L 247.709978 235.015801 
L 227.530706 235.249187 
L 214.785903 235.643386 
L 190.358364 236.54281 
L 183.985963 236.503236 
L 177.613561 236.242128 
L 171.24116 235.763217 
L 162.744625 234.879071 
L 146.813621 233.164345 
L 140.441219 232.720092 
L 134.068818 232.513392 
L 127.696416 232.559516 
L 121.324015 232.829825 
L 113.889546 233.376456 
L 108.320392 234.003747 
L 105.393011 234.527261 
L 103.268877 235.067375 
L 101.144743 235.850222 
L 100.082677 236.363869 
L 98.721178 237.189948 
L 97.365839 238.252015 
L 96.293672 239.314082 
L 95.415607 240.376149 
L 94.673599 241.438216 
L 93.519368 243.562349 
L 92.648208 245.743565 
L 92.061653 247.810617 
L 91.586141 250.273636 
L 91.28454 253.120952 
L 90.852633 259.493353 
L 90.375602 261.617487 
L 89.959767 262.679554 
L 89.373459 263.741621 
L 88.399941 264.926021 
L 87.251243 265.865755 
L 86.275807 266.388819 
L 84.678285 266.927822 
L 84.151673 267.030896 
L 83.089606 267.107981 
L 81.375203 266.927822 
L 80.965472 266.847219 
L 79.903405 266.485271 
L 78.660122 265.865755 
L 77.195169 264.803688 
L 76.088721 263.741621 
L 75.194234 262.679554 
L 74.423279 261.617487 
L 73.19855 259.493353 
L 72.20885 257.369219 
L 71.034148 254.183019 
L 70.088962 250.996818 
L 68.85935 245.686483 
L 67.881526 240.376149 
L 66.774848 232.94168 
L 65.626512 223.383078 
L 64.594221 212.762409 
L 63.599131 200.017606 
L 62.61466 184.086602 
L 61.63911 163.907331 
L 60.680924 138.417725 
L 59.756663 106.555717 
L 58.730554 63.010974 
L 58.712706 57.700639 
L 58.760084 55.576506 
L 58.760084 55.576506 
" style="fill:none;stroke:#0000e8;stroke-width:1.5;"/>
   </g>
   <g id="LineCollection_3">
    <path clip-path="url(#pfbe6f8c6ee)" d="M 290.112237 293.479494 
L 290.512491 288.16916 
L 290.483967 284.982959 
L 290.136066 278.610558 
L 288.570406 256.307152 
L 287.355451 240.376149 
L 286.462098 230.817546 
L 285.490206 222.321011 
L 284.583091 215.94861 
L 283.389396 209.576208 
L 282.633476 206.390007 
L 281.635742 203.203807 
L 280.634052 200.890336 
L 279.293841 198.955539 
L 278.509918 198.190068 
L 277.447851 197.618315 
L 276.385784 197.389753 
L 275.323717 197.401357 
L 273.199584 197.837276 
L 266.827182 199.639 
L 263.640981 200.180394 
L 260.454781 200.479726 
L 256.206513 200.64323 
L 247.709978 200.673446 
L 212.66177 200.698136 
L 183.985963 200.856154 
L 160.620491 201.248287 
L 133.006751 201.648663 
L 125.572283 201.603717 
L 120.261948 201.361673 
L 116.01368 200.974228 
L 110.703346 200.248616 
L 103.268877 199.138002 
L 100.082677 198.891108 
L 97.469064 198.955539 
L 95.834409 199.159322 
L 93.710275 199.698338 
L 91.586141 200.6137 
L 90.524074 201.238305 
L 88.399941 202.871297 
L 86.986068 204.265874 
L 85.16034 206.390007 
L 82.797689 209.576208 
L 79.903405 213.507203 
L 78.650879 214.886543 
L 77.311708 215.94861 
L 76.717204 216.298342 
L 75.655138 216.506169 
L 74.593071 216.211178 
L 73.531004 215.327057 
L 72.468937 213.762012 
L 71.151137 210.638275 
L 70.163924 207.452074 
L 68.939802 202.14174 
L 67.811292 195.769338 
L 66.766444 188.33487 
L 65.688955 178.776268 
L 64.62863 167.093532 
L 63.541548 152.224595 
L 62.477821 134.169457 
L 61.422784 111.866052 
L 60.37578 84.252312 
L 59.565003 58.762706 
L 59.660287 55.576506 
L 59.660287 55.576506 
" style="fill:none;stroke:#0038ff;stroke-width:1.5;"/>
   </g>
   <g id="LineCollection_4">
    <path clip-path="url(#pfbe6f8c6ee)" d="M 292.349783 293.479494 
L 292.470849 284.982959 
L 292.138853 277.548491 
L 290.286475 240.376149 
L 289.418495 225.507212 
L 288.537975 212.762409 
L 287.561691 201.079673 
L 286.576639 191.521071 
L 285.469951 183.024535 
L 284.603208 177.714201 
L 283.475465 172.403866 
L 282.594168 169.217665 
L 281.696119 166.748113 
L 280.634052 164.758195 
L 279.571985 163.532638 
L 278.509918 162.918327 
L 277.135244 162.845264 
L 276.385784 162.999198 
L 274.598723 163.907331 
L 273.020065 164.969398 
L 268.951316 167.772677 
L 266.827182 168.918747 
L 264.703048 169.779152 
L 262.578914 170.376898 
L 260.454781 170.758707 
L 257.26858 171.034031 
L 253.020312 171.075586 
L 229.65484 170.747817 
L 193.544565 170.657983 
L 124.510216 170.511808 
L 110.703346 170.488733 
L 94.772342 170.303087 
L 92.648208 170.515116 
L 90.524074 170.89996 
L 88.399941 171.514955 
L 86.275807 172.41594 
L 84.151673 173.637928 
L 81.466649 175.590067 
L 78.679755 177.714201 
L 77.779271 178.292245 
L 76.717204 178.778311 
L 75.655138 178.97562 
L 74.593071 178.77383 
L 73.531004 178.057278 
L 72.445205 176.652134 
L 71.391452 174.528 
L 70.01977 170.279732 
L 69.002857 166.031465 
L 67.836074 159.659063 
L 66.764862 152.224595 
L 65.661095 142.665993 
L 64.570938 130.983257 
L 63.521383 117.176387 
L 62.468208 100.183316 
L 60.756545 67.259242 
L 60.514011 59.824773 
L 60.667357 55.576506 
L 60.667357 55.576506 
" style="fill:none;stroke:#0094ff;stroke-width:1.5;"/>
   </g>
   <g id="LineCollection_5">
    <path clip-path="url(#pfbe6f8c6ee)" d="M 294.048033 293.479494 
L 293.962763 281.796758 
L 292.872278 252.058885 
L 291.660552 222.321011 
L 290.63877 202.14174 
L 289.645192 186.210736 
L 288.576669 172.403866 
L 287.544924 161.783197 
L 286.503665 153.286662 
L 285.513734 146.91426 
L 284.44905 141.603926 
L 283.641716 138.417725 
L 282.555406 135.231524 
L 281.524337 133.10739 
L 280.634052 131.84098 
L 279.495376 130.983257 
L 278.509918 130.726802 
L 277.295185 130.983257 
L 276.385784 131.445977 
L 275.323717 132.260067 
L 273.199584 134.399321 
L 268.951316 139.042535 
L 266.827182 140.957137 
L 264.703048 142.449885 
L 262.578914 143.525435 
L 260.454781 144.231804 
L 258.330647 144.633102 
L 256.206513 144.797031 
L 253.020312 144.73372 
L 248.772045 144.340357 
L 241.337576 143.581695 
L 237.089309 143.347751 
L 231.778974 143.283168 
L 221.158305 143.485935 
L 209.475569 143.61183 
L 112.82748 143.614737 
L 92.648208 143.661473 
L 89.462007 143.892644 
L 86.275807 144.369721 
L 84.151673 144.872743 
L 80.965472 145.906357 
L 77.779271 146.958958 
L 76.717204 147.14867 
L 75.655138 147.147528 
L 74.593071 146.862356 
L 73.531004 146.183247 
L 72.360845 144.790126 
L 71.229823 142.665993 
L 70.069976 139.479792 
L 68.946753 135.231524 
L 67.877749 129.92119 
L 66.865012 123.548788 
L 65.674698 113.990186 
L 64.620296 103.369517 
L 63.510849 89.562647 
L 61.702201 63.010974 
L 61.642199 59.824773 
L 61.858456 55.576506 
L 61.858456 55.576506 
" style="fill:none;stroke:#0cf4eb;stroke-width:1.5;"/>
   </g>
   <g id="LineCollection_6">
    <path clip-path="url(#pfbe6f8c6ee)" d="M 295.576283 293.479494 
L 295.349757 277.548491 
L 294.352084 242.500283 
L 293.180506 208.514141 
L 292.059312 183.024535 
L 290.922068 162.845264 
L 289.846608 147.976327 
L 288.761345 136.293591 
L 287.752622 127.797056 
L 286.609734 120.362587 
L 285.546075 115.052253 
L 284.754086 111.866052 
L 283.729171 108.679851 
L 282.758186 106.418244 
L 281.425288 104.431584 
L 280.634052 103.64058 
L 279.571985 103.128801 
L 278.509918 103.088654 
L 277.447851 103.44752 
L 276.055828 104.431584 
L 274.94677 105.493651 
L 273.118125 107.617784 
L 267.199468 115.052253 
L 265.765115 116.556147 
L 263.640981 118.392864 
L 261.516848 119.758917 
L 259.392714 120.674247 
L 257.26858 121.190073 
L 255.144446 121.371777 
L 253.020312 121.290239 
L 250.896178 121.014426 
L 247.66087 120.362587 
L 239.213442 118.497787 
L 236.027242 118.007572 
L 231.778974 117.616687 
L 227.530706 117.491565 
L 222.220372 117.594598 
L 195.668699 118.535872 
L 176.551494 118.700193 
L 109.641279 119.15655 
L 89.462007 119.444874 
L 84.151673 119.79266 
L 77.779271 120.357406 
L 76.717204 120.303813 
L 75.655138 120.108225 
L 74.593071 119.697958 
L 73.531004 118.97878 
L 72.468937 117.833284 
L 71.404454 116.11432 
L 70.110389 112.928119 
L 69.150001 109.741918 
L 67.973329 104.431584 
L 66.745704 96.997115 
L 65.655776 88.50058 
L 64.438847 76.817844 
L 63.369177 65.135108 
L 63.161565 60.88684 
L 63.241458 58.762706 
L 63.524253 55.576506 
L 63.524253 55.576506 
" style="fill:none;stroke:#56ffa0;stroke-width:1.5;"/>
   </g>
   <g id="LineCollection_7">
    <path clip-path="url(#pfbe6f8c6ee)" d="M 300.804471 293.479494 
L 300.696902 287.107093 
L 300.375756 280.734691 
L 299.751257 273.091624 
L 298.561398 261.617487 
L 296.476326 242.500283 
L 295.077867 206.390007 
L 294.067604 177.714201 
L 293.07102 155.410796 
L 292.03318 137.355658 
L 291.001396 123.548788 
L 289.98021 112.928119 
L 288.792413 103.369517 
L 287.77218 96.997115 
L 286.655958 91.686781 
L 285.793734 88.50058 
L 284.653115 85.314379 
L 283.655261 83.190245 
L 282.283924 81.066112 
L 281.371141 80.004045 
L 280.124012 78.941978 
L 279.571985 78.565077 
L 277.922925 77.879911 
L 277.447851 77.746838 
L 276.385784 77.62578 
L 275.323717 77.668638 
L 274.221994 77.879911 
L 273.199584 78.250131 
L 271.894188 78.941978 
L 270.514225 80.004045 
L 269.47301 81.066112 
L 268.626951 82.128178 
L 267.281692 84.252312 
L 265.670302 87.438513 
L 263.530427 91.686781 
L 262.178722 93.810914 
L 261.365424 94.872981 
L 260.402132 95.935048 
L 259.203043 96.997115 
L 257.613055 98.059182 
L 256.206513 98.740473 
L 254.082379 99.399382 
L 251.958245 99.733479 
L 249.834112 99.84191 
L 246.647911 99.730462 
L 242.399643 99.306342 
L 220.096238 96.638748 
L 212.66177 96.140131 
L 205.227301 95.88226 
L 195.668699 95.80852 
L 160.620491 95.804087 
L 139.379152 95.410429 
L 85.21374 94.328186 
L 79.903405 94.205343 
L 77.779271 93.97006 
L 76.717204 93.735605 
L 75.655138 93.36652 
L 74.519031 92.748848 
L 73.288281 91.686781 
L 72.398712 90.624714 
L 71.198895 88.50058 
L 70.296011 86.376446 
L 69.038807 82.128178 
L 67.881562 76.817844 
L 66.803702 70.445442 
L 66.086942 65.135108 
L 65.937665 61.948907 
L 66.096535 59.165835 
L 66.537242 55.576506 
L 66.537242 55.576506 
" style="fill:none;stroke:#a0ff56;stroke-width:1.5;"/>
   </g>
   <g id="LineCollection_8">
    <path clip-path="url(#pfbe6f8c6ee)" d="M 308.305024 293.479494 
L 308.162886 284.982959 
L 307.780174 276.486424 
L 307.04491 265.865755 
L 305.843095 252.058885 
L 304.033302 234.003747 
L 301.997731 215.94861 
L 299.991749 200.017606 
L 297.90617 185.148669 
L 296.521667 175.590067 
L 294.91877 143.728059 
L 294.011692 125.672922 
L 293.04909 110.803985 
L 292.083247 99.121249 
L 291.155167 90.624714 
L 290.192654 84.383057 
L 289.478637 81.066112 
L 288.586134 77.879911 
L 287.813663 75.755777 
L 286.807334 73.631643 
L 285.944387 72.221003 
L 284.88232 70.880446 
L 283.820253 69.853022 
L 282.758186 69.05849 
L 281.441233 68.321309 
L 279.571985 67.610454 
L 277.447851 67.147368 
L 275.323717 66.958387 
L 273.199584 66.972863 
L 270.318366 67.259242 
L 267.889249 67.702984 
L 264.703048 68.52666 
L 261.516848 69.590918 
L 257.26858 71.300544 
L 251.958245 73.650532 
L 247.709978 75.37777 
L 244.523777 76.39407 
L 242.399643 76.894864 
L 239.213442 77.356727 
L 236.027242 77.49689 
L 232.841041 77.360321 
L 229.65484 77.008985 
L 225.406572 76.290225 
L 220.096238 75.162779 
L 194.606632 69.315961 
L 186.627771 67.259242 
L 181.861829 65.672136 
L 179.737695 64.810667 
L 177.613561 63.764234 
L 176.32467 63.010974 
L 174.926861 61.948907 
L 173.903758 60.88684 
L 173.204737 59.824773 
L 172.777171 58.762706 
L 172.569936 57.700639 
L 172.588593 55.576506 
L 172.588593 55.576506 
" style="fill:none;stroke:#ebff0c;stroke-width:1.5;"/>
   </g>
   <g id="LineCollection_9">
    <path clip-path="url(#pfbe6f8c6ee)" d="M 316.006594 293.479494 
L 315.883618 283.920892 
L 315.508028 273.300223 
L 314.807431 260.55542 
L 313.696119 244.624416 
L 312.140132 225.507212 
L 310.364462 206.390007 
L 308.573936 189.396937 
L 306.668365 173.465933 
L 304.790688 159.659063 
L 302.937457 147.641518 
L 301.146962 137.355658 
L 299.272114 127.797056 
L 297.397022 119.30052 
L 296.500688 115.052253 
L 294.820604 93.810914 
L 294.069042 85.314379 
L 293.378855 79.733405 
L 292.690728 75.755777 
L 291.940559 72.569576 
L 291.254721 70.375899 
L 290.192654 67.934974 
L 289.125417 66.197175 
L 288.06852 64.921387 
L 287.006454 63.92317 
L 284.88232 62.438739 
L 282.758186 61.335382 
L 278.509918 59.441722 
L 277.182507 58.762706 
L 275.910994 57.700639 
L 275.383796 56.638572 
L 275.356621 55.576506 
L 275.356621 55.576506 
" style="fill:none;stroke:#ffab00;stroke-width:1.5;"/>
   </g>
   <g id="LineCollection_10">
    <path clip-path="url(#pfbe6f8c6ee)" d="M 323.856056 293.479494 
L 323.73832 281.796758 
L 323.386753 269.051955 
L 322.710761 253.120952 
L 321.566069 231.879613 
L 320.138127 209.576208 
L 318.635478 189.396937 
L 317.071474 171.341799 
L 315.464691 155.410796 
L 313.842702 141.603926 
L 312.250777 129.92119 
L 310.580083 119.30052 
L 308.848315 109.741918 
L 307.079463 101.245383 
L 305.301111 93.810914 
L 303.544731 87.438513 
L 301.852578 82.128178 
L 300.287778 77.879911 
L 298.68919 74.14791 
L 297.371821 71.507509 
L 296.565056 70.074213 
L 295.900945 67.259242 
L 295.357668 65.135108 
L 294.582935 61.948907 
L 292.72046 55.576506 
L 292.72046 55.576506 
" style="fill:none;stroke:#ff5500;stroke-width:1.5;"/>
   </g>
   <g id="LineCollection_11">
    <path clip-path="url(#pfbe6f8c6ee)" d="M 331.805593 293.479494 
L 331.684159 277.548491 
L 331.306453 259.493353 
L 330.529395 234.003747 
L 329.470379 206.390007 
L 328.337406 181.962468 
L 327.139029 160.72113 
L 325.907399 142.665993 
L 324.681961 127.797056 
L 323.425992 115.052253 
L 322.054662 103.246051 
L 320.487463 91.686781 
L 316.540451 64.073041 
L 316.233036 59.824773 
L 316.134398 55.576506 
L 316.134398 55.576506 
" style="fill:none;stroke:#e80000;stroke-width:1.5;"/>
   </g>
   <g id="LineCollection_12">
    <path clip-path="url(#pfbe6f8c6ee)" d="M 339.81324 293.479494 
L 339.695379 265.865755 
L 339.262386 224.445145 
L 338.285239 161.783197 
L 337.478911 127.797056 
L 336.676983 104.431584 
L 335.932351 87.438513 
L 335.199215 70.445442 
L 334.962136 59.824773 
L 334.941779 55.576506 
L 334.941779 55.576506 
" style="fill:none;stroke:#800000;stroke-width:1.5;"/>
   </g>
   <g id="patch_3">
    <path d="M 57.6 293.479494 
L 57.6 55.576506 
" style="fill:none;stroke:#000000;stroke-linecap:square;stroke-linejoin:miter;stroke-width:0.8;"/>
   </g>
   <g id="patch_4">
    <path d="M 343.296 293.479494 
L 343.296 55.576506 
" style="fill:none;stroke:#000000;stroke-linecap:square;stroke-linejoin:miter;stroke-width:0.8;"/>
   </g>
   <g id="patch_5">
    <path d="M 57.6 293.479494 
L 343.296 293.479494 
" style="fill:none;stroke:#000000;stroke-linecap:square;stroke-linejoin:miter;stroke-width:0.8;"/>
   </g>
   <g id="patch_6">
    <path d="M 57.6 55.576506 
L 343.296 55.576506 
" style="fill:none;stroke:#000000;stroke-linecap:square;stroke-linejoin:miter;stroke-width:0.8;"/>
   </g>
   <g id="text_10">
    <!-- Time:0.12181 s -->
    <defs>
     <path d="M -0.296875 72.90625 
L 61.375 72.90625 
L 61.375 64.59375 
L 35.5 64.59375 
L 35.5 0 
L 25.59375 0 
L 25.59375 64.59375 
L -0.296875 64.59375 
z
" id="DejaVuSans-54"/>
     <path d="M 9.421875 54.6875 
L 18.40625 54.6875 
L 18.40625 0 
L 9.421875 0 
z
M 9.421875 75.984375 
L 18.40625 75.984375 
L 18.40625 64.59375 
L 9.421875 64.59375 
z
" id="DejaVuSans-69"/>
     <path d="M 52 44.1875 
Q 55.375 50.25 60.0625 53.125 
Q 64.75 56 71.09375 56 
Q 79.640625 56 84.28125 50.015625 
Q 88.921875 44.046875 88.921875 33.015625 
L 88.921875 0 
L 79.890625 0 
L 79.890625 32.71875 
Q 79.890625 40.578125 77.09375 44.375 
Q 74.3125 48.1875 68.609375 48.1875 
Q 61.625 48.1875 57.5625 43.546875 
Q 53.515625 38.921875 53.515625 30.90625 
L 53.515625 0 
L 44.484375 0 
L 44.484375 32.71875 
Q 44.484375 40.625 41.703125 44.40625 
Q 38.921875 48.1875 33.109375 48.1875 
Q 26.21875 48.1875 22.15625 43.53125 
Q 18.109375 38.875 18.109375 30.90625 
L 18.109375 0 
L 9.078125 0 
L 9.078125 54.6875 
L 18.109375 54.6875 
L 18.109375 46.1875 
Q 21.1875 51.21875 25.484375 53.609375 
Q 29.78125 56 35.6875 56 
Q 41.65625 56 45.828125 52.96875 
Q 50 49.953125 52 44.1875 
z
" id="DejaVuSans-6d"/>
     <path d="M 56.203125 29.59375 
L 56.203125 25.203125 
L 14.890625 25.203125 
Q 15.484375 15.921875 20.484375 11.0625 
Q 25.484375 6.203125 34.421875 6.203125 
Q 39.59375 6.203125 44.453125 7.46875 
Q 49.3125 8.734375 54.109375 11.28125 
L 54.109375 2.78125 
Q 49.265625 0.734375 44.1875 -0.34375 
Q 39.109375 -1.421875 33.890625 -1.421875 
Q 20.796875 -1.421875 13.15625 6.1875 
Q 5.515625 13.8125 5.515625 26.8125 
Q 5.515625 40.234375 12.765625 48.109375 
Q 20.015625 56 32.328125 56 
Q 43.359375 56 49.78125 48.890625 
Q 56.203125 41.796875 56.203125 29.59375 
z
M 47.21875 32.234375 
Q 47.125 39.59375 43.09375 43.984375 
Q 39.0625 48.390625 32.421875 48.390625 
Q 24.90625 48.390625 20.390625 44.140625 
Q 15.875 39.890625 15.1875 32.171875 
z
" id="DejaVuSans-65"/>
     <path d="M 11.71875 12.40625 
L 22.015625 12.40625 
L 22.015625 0 
L 11.71875 0 
z
M 11.71875 51.703125 
L 22.015625 51.703125 
L 22.015625 39.3125 
L 11.71875 39.3125 
z
" id="DejaVuSans-3a"/>
     <path id="DejaVuSans-20"/>
     <path d="M 44.28125 53.078125 
L 44.28125 44.578125 
Q 40.484375 46.53125 36.375 47.5 
Q 32.28125 48.484375 27.875 48.484375 
Q 21.1875 48.484375 17.84375 46.4375 
Q 14.5 44.390625 14.5 40.28125 
Q 14.5 37.15625 16.890625 35.375 
Q 19.28125 33.59375 26.515625 31.984375 
L 29.59375 31.296875 
Q 39.15625 29.25 43.1875 25.515625 
Q 47.21875 21.78125 47.21875 15.09375 
Q 47.21875 7.46875 41.1875 3.015625 
Q 35.15625 -1.421875 24.609375 -1.421875 
Q 20.21875 -1.421875 15.453125 -0.5625 
Q 10.6875 0.296875 5.421875 2 
L 5.421875 11.28125 
Q 10.40625 8.6875 15.234375 7.390625 
Q 20.0625 6.109375 24.8125 6.109375 
Q 31.15625 6.109375 34.5625 8.28125 
Q 37.984375 10.453125 37.984375 14.40625 
Q 37.984375 18.0625 35.515625 20.015625 
Q 33.0625 21.96875 24.703125 23.78125 
L 21.578125 24.515625 
Q 13.234375 26.265625 9.515625 29.90625 
Q 5.8125 33.546875 5.8125 39.890625 
Q 5.8125 47.609375 11.28125 51.796875 
Q 16.75 56 26.8125 56 
Q 31.78125 56 36.171875 55.265625 
Q 40.578125 54.546875 44.28125 53.078125 
z
" id="DejaVuSans-73"/>
    </defs>
    <g transform="translate(153.717375 49.576506)scale(0.12 -0.12)">
     <use xlink:href="#DejaVuSans-54"/>
     <use x="61.037109" xlink:href="#DejaVuSans-69"/>
     <use x="88.820312" xlink:href="#DejaVuSans-6d"/>
     <use x="186.232422" xlink:href="#DejaVuSans-65"/>
     <use x="247.755859" xlink:href="#DejaVuSans-3a"/>
     <use x="281.447266" xlink:href="#DejaVuSans-30"/>
     <use x="345.070312" xlink:href="#DejaVuSans-2e"/>
     <use x="376.857422" xlink:href="#DejaVuSans-31"/>
     <use x="440.480469" xlink:href="#DejaVuSans-32"/>
     <use x="504.103516" xlink:href="#DejaVuSans-31"/>
     <use x="567.726562" xlink:href="#DejaVuSans-38"/>
     <use x="631.349609" xlink:href="#DejaVuSans-31"/>
     <use x="694.972656" xlink:href="#DejaVuSans-20"/>
     <use x="726.759766" xlink:href="#DejaVuSans-73"/>
    </g>
   </g>
  </g>
  <g id="axes_2">
   <g id="patch_7">
    <path clip-path="url(#p1ffded5fd5)" d="M 361.152 307.584 
L 361.152 283.392 
L 361.152 65.664 
L 361.152 41.472 
L 374.4576 41.472 
L 374.4576 65.664 
L 374.4576 283.392 
L 374.4576 307.584 
z
" style="fill:#ffffff;stroke:#ffffff;stroke-linejoin:miter;stroke-width:0.01;"/>
   </g>
   <g id="matplotlib.axis_3"/>
   <g id="matplotlib.axis_4">
    <g id="ytick_5">
     <g id="line2d_10">
      <defs>
       <path d="M 0 0 
L 3.5 0 
" id="m7a6a3bbb02" style="stroke:#000000;stroke-width:0.8;"/>
      </defs>
      <g>
       <use style="stroke:#000000;stroke-width:0.8;" x="374.4576" xlink:href="#m7a6a3bbb02" y="307.584"/>
      </g>
     </g>
     <g id="text_11">
      <!-- 0.08 -->
      <g transform="translate(381.4576 311.383219)scale(0.1 -0.1)">
       <use xlink:href="#DejaVuSans-30"/>
       <use x="63.623047" xlink:href="#DejaVuSans-2e"/>
       <use x="95.410156" xlink:href="#DejaVuSans-30"/>
       <use x="159.033203" xlink:href="#DejaVuSans-38"/>
      </g>
     </g>
    </g>
    <g id="ytick_6">
     <g id="line2d_11">
      <g>
       <use style="stroke:#000000;stroke-width:0.8;" x="374.4576" xlink:href="#m7a6a3bbb02" y="259.2"/>
      </g>
     </g>
     <g id="text_12">
      <!-- 0.24 -->
      <g transform="translate(381.4576 262.999219)scale(0.1 -0.1)">
       <use xlink:href="#DejaVuSans-30"/>
       <use x="63.623047" xlink:href="#DejaVuSans-2e"/>
       <use x="95.410156" xlink:href="#DejaVuSans-32"/>
       <use x="159.033203" xlink:href="#DejaVuSans-34"/>
      </g>
     </g>
    </g>
    <g id="ytick_7">
     <g id="line2d_12">
      <g>
       <use style="stroke:#000000;stroke-width:0.8;" x="374.4576" xlink:href="#m7a6a3bbb02" y="210.816"/>
      </g>
     </g>
     <g id="text_13">
      <!-- 0.40 -->
      <g transform="translate(381.4576 214.615219)scale(0.1 -0.1)">
       <use xlink:href="#DejaVuSans-30"/>
       <use x="63.623047" xlink:href="#DejaVuSans-2e"/>
       <use x="95.410156" xlink:href="#DejaVuSans-34"/>
       <use x="159.033203" xlink:href="#DejaVuSans-30"/>
      </g>
     </g>
    </g>
    <g id="ytick_8">
     <g id="line2d_13">
      <g>
       <use style="stroke:#000000;stroke-width:0.8;" x="374.4576" xlink:href="#m7a6a3bbb02" y="162.432"/>
      </g>
     </g>
     <g id="text_14">
      <!-- 0.56 -->
      <defs>
       <path d="M 10.796875 72.90625 
L 49.515625 72.90625 
L 49.515625 64.59375 
L 19.828125 64.59375 
L 19.828125 46.734375 
Q 21.96875 47.46875 24.109375 47.828125 
Q 26.265625 48.1875 28.421875 48.1875 
Q 40.625 48.1875 47.75 41.5 
Q 54.890625 34.8125 54.890625 23.390625 
Q 54.890625 11.625 47.5625 5.09375 
Q 40.234375 -1.421875 26.90625 -1.421875 
Q 22.3125 -1.421875 17.546875 -0.640625 
Q 12.796875 0.140625 7.71875 1.703125 
L 7.71875 11.625 
Q 12.109375 9.234375 16.796875 8.0625 
Q 21.484375 6.890625 26.703125 6.890625 
Q 35.15625 6.890625 40.078125 11.328125 
Q 45.015625 15.765625 45.015625 23.390625 
Q 45.015625 31 40.078125 35.4375 
Q 35.15625 39.890625 26.703125 39.890625 
Q 22.75 39.890625 18.8125 39.015625 
Q 14.890625 38.140625 10.796875 36.28125 
z
" id="DejaVuSans-35"/>
      </defs>
      <g transform="translate(381.4576 166.231219)scale(0.1 -0.1)">
       <use xlink:href="#DejaVuSans-30"/>
       <use x="63.623047" xlink:href="#DejaVuSans-2e"/>
       <use x="95.410156" xlink:href="#DejaVuSans-35"/>
       <use x="159.033203" xlink:href="#DejaVuSans-36"/>
      </g>
     </g>
    </g>
    <g id="ytick_9">
     <g id="line2d_14">
      <g>
       <use style="stroke:#000000;stroke-width:0.8;" x="374.4576" xlink:href="#m7a6a3bbb02" y="114.048"/>
      </g>
     </g>
     <g id="text_15">
      <!-- 0.72 -->
      <defs>
       <path d="M 8.203125 72.90625 
L 55.078125 72.90625 
L 55.078125 68.703125 
L 28.609375 0 
L 18.3125 0 
L 43.21875 64.59375 
L 8.203125 64.59375 
z
" id="DejaVuSans-37"/>
      </defs>
      <g transform="translate(381.4576 117.847219)scale(0.1 -0.1)">
       <use xlink:href="#DejaVuSans-30"/>
       <use x="63.623047" xlink:href="#DejaVuSans-2e"/>
       <use x="95.410156" xlink:href="#DejaVuSans-37"/>
       <use x="159.033203" xlink:href="#DejaVuSans-32"/>
      </g>
     </g>
    </g>
    <g id="ytick_10">
     <g id="line2d_15">
      <g>
       <use style="stroke:#000000;stroke-width:0.8;" x="374.4576" xlink:href="#m7a6a3bbb02" y="65.664"/>
      </g>
     </g>
     <g id="text_16">
      <!-- 0.88 -->
      <g transform="translate(381.4576 69.463219)scale(0.1 -0.1)">
       <use xlink:href="#DejaVuSans-30"/>
       <use x="63.623047" xlink:href="#DejaVuSans-2e"/>
       <use x="95.410156" xlink:href="#DejaVuSans-38"/>
       <use x="159.033203" xlink:href="#DejaVuSans-38"/>
      </g>
     </g>
    </g>
   </g>
   <g id="LineCollection_13">
    <path clip-path="url(#p1ffded5fd5)" d="M 361.152 307.584 
L 374.4576 307.584 
" style="fill:none;stroke:#000080;stroke-width:1.5;"/>
    <path clip-path="url(#p1ffded5fd5)" d="M 361.152 283.392 
L 374.4576 283.392 
" style="fill:none;stroke:#0000e8;stroke-width:1.5;"/>
    <path clip-path="url(#p1ffded5fd5)" d="M 361.152 259.2 
L 374.4576 259.2 
" style="fill:none;stroke:#0038ff;stroke-width:1.5;"/>
    <path clip-path="url(#p1ffded5fd5)" d="M 361.152 235.008 
L 374.4576 235.008 
" style="fill:none;stroke:#0094ff;stroke-width:1.5;"/>
    <path clip-path="url(#p1ffded5fd5)" d="M 361.152 210.816 
L 374.4576 210.816 
" style="fill:none;stroke:#0cf4eb;stroke-width:1.5;"/>
    <path clip-path="url(#p1ffded5fd5)" d="M 361.152 186.624 
L 374.4576 186.624 
" style="fill:none;stroke:#56ffa0;stroke-width:1.5;"/>
    <path clip-path="url(#p1ffded5fd5)" d="M 361.152 162.432 
L 374.4576 162.432 
" style="fill:none;stroke:#a0ff56;stroke-width:1.5;"/>
    <path clip-path="url(#p1ffded5fd5)" d="M 361.152 138.24 
L 374.4576 138.24 
" style="fill:none;stroke:#ebff0c;stroke-width:1.5;"/>
    <path clip-path="url(#p1ffded5fd5)" d="M 361.152 114.048 
L 374.4576 114.048 
" style="fill:none;stroke:#ffab00;stroke-width:1.5;"/>
    <path clip-path="url(#p1ffded5fd5)" d="M 361.152 89.856 
L 374.4576 89.856 
" style="fill:none;stroke:#ff5500;stroke-width:1.5;"/>
    <path clip-path="url(#p1ffded5fd5)" d="M 361.152 65.664 
L 374.4576 65.664 
" style="fill:none;stroke:#e80000;stroke-width:1.5;"/>
    <path clip-path="url(#p1ffded5fd5)" d="M 361.152 41.472 
L 374.4576 41.472 
" style="fill:none;stroke:#800000;stroke-width:1.5;"/>
   </g>
   <g id="patch_8">
    <path d="M 361.152 307.584 
L 361.152 283.392 
L 361.152 65.664 
L 361.152 41.472 
L 374.4576 41.472 
L 374.4576 65.664 
L 374.4576 283.392 
L 374.4576 307.584 
z
" style="fill:none;stroke:#000000;stroke-linejoin:miter;stroke-width:0.8;"/>
   </g>
  </g>
 </g>
 <defs>
  <clipPath id="pfbe6f8c6ee">
   <rect height="237.902989" width="285.696" x="57.6" y="55.576506"/>
  </clipPath>
  <clipPath id="p1ffded5fd5">
   <rect height="266.112" width="13.3056" x="361.152" y="41.472"/>
  </clipPath>
 </defs>
</svg>
