<?xml version="1.0" encoding="utf-8" standalone="no"?>
<!DOCTYPE svg PUBLIC "-//W3C//DTD SVG 1.1//EN"
  "http://www.w3.org/Graphics/SVG/1.1/DTD/svg11.dtd">
<!-- Created with matplotlib (http://matplotlib.org/) -->
<svg height="345.6pt" version="1.1" viewBox="0 0 460.8 345.6" width="460.8pt" xmlns="http://www.w3.org/2000/svg" xmlns:xlink="http://www.w3.org/1999/xlink">
 <defs>
  <style type="text/css">
*{stroke-linecap:butt;stroke-linejoin:round;}
  </style>
 </defs>
 <g id="figure_1">
  <g id="patch_1">
   <path d="M 0 345.6 
L 460.8 345.6 
L 460.8 0 
L 0 0 
z
" style="fill:#ffffff;"/>
  </g>
  <g id="axes_1">
   <g id="patch_2">
    <path d="M 57.6 293.479494 
L 343.296 293.479494 
L 343.296 55.576506 
L 57.6 55.576506 
z
" style="fill:#ffffff;"/>
   </g>
   <g id="matplotlib.axis_1">
    <g id="xtick_1">
     <g id="line2d_1">
      <defs>
       <path d="M 0 0 
L 0 3.5 
" id="m664dee04b8" style="stroke:#000000;stroke-width:0.8;"/>
      </defs>
      <g>
       <use style="stroke:#000000;stroke-width:0.8;" x="104.861978" xlink:href="#m664dee04b8" y="293.479494"/>
      </g>
     </g>
     <g id="text_1">
      <!-- 0.2 -->
      <defs>
       <path d="M 31.78125 66.40625 
Q 24.171875 66.40625 20.328125 58.90625 
Q 16.5 51.421875 16.5 36.375 
Q 16.5 21.390625 20.328125 13.890625 
Q 24.171875 6.390625 31.78125 6.390625 
Q 39.453125 6.390625 43.28125 13.890625 
Q 47.125 21.390625 47.125 36.375 
Q 47.125 51.421875 43.28125 58.90625 
Q 39.453125 66.40625 31.78125 66.40625 
z
M 31.78125 74.21875 
Q 44.046875 74.21875 50.515625 64.515625 
Q 56.984375 54.828125 56.984375 36.375 
Q 56.984375 17.96875 50.515625 8.265625 
Q 44.046875 -1.421875 31.78125 -1.421875 
Q 19.53125 -1.421875 13.0625 8.265625 
Q 6.59375 17.96875 6.59375 36.375 
Q 6.59375 54.828125 13.0625 64.515625 
Q 19.53125 74.21875 31.78125 74.21875 
z
" id="DejaVuSans-30"/>
       <path d="M 10.6875 12.40625 
L 21 12.40625 
L 21 0 
L 10.6875 0 
z
" id="DejaVuSans-2e"/>
       <path d="M 19.1875 8.296875 
L 53.609375 8.296875 
L 53.609375 0 
L 7.328125 0 
L 7.328125 8.296875 
Q 12.9375 14.109375 22.625 23.890625 
Q 32.328125 33.6875 34.8125 36.53125 
Q 39.546875 41.84375 41.421875 45.53125 
Q 43.3125 49.21875 43.3125 52.78125 
Q 43.3125 58.59375 39.234375 62.25 
Q 35.15625 65.921875 28.609375 65.921875 
Q 23.96875 65.921875 18.8125 64.3125 
Q 13.671875 62.703125 7.8125 59.421875 
L 7.8125 69.390625 
Q 13.765625 71.78125 18.9375 73 
Q 24.125 74.21875 28.421875 74.21875 
Q 39.75 74.21875 46.484375 68.546875 
Q 53.21875 62.890625 53.21875 53.421875 
Q 53.21875 48.921875 51.53125 44.890625 
Q 49.859375 40.875 45.40625 35.40625 
Q 44.1875 33.984375 37.640625 27.21875 
Q 31.109375 20.453125 19.1875 8.296875 
z
" id="DejaVuSans-32"/>
      </defs>
      <g transform="translate(96.910415 308.077932)scale(0.1 -0.1)">
       <use xlink:href="#DejaVuSans-30"/>
       <use x="63.623047" xlink:href="#DejaVuSans-2e"/>
       <use x="95.410156" xlink:href="#DejaVuSans-32"/>
      </g>
     </g>
    </g>
    <g id="xtick_2">
     <g id="line2d_2">
      <g>
       <use style="stroke:#000000;stroke-width:0.8;" x="152.654989" xlink:href="#m664dee04b8" y="293.479494"/>
      </g>
     </g>
     <g id="text_2">
      <!-- 0.4 -->
      <defs>
       <path d="M 37.796875 64.3125 
L 12.890625 25.390625 
L 37.796875 25.390625 
z
M 35.203125 72.90625 
L 47.609375 72.90625 
L 47.609375 25.390625 
L 58.015625 25.390625 
L 58.015625 17.1875 
L 47.609375 17.1875 
L 47.609375 0 
L 37.796875 0 
L 37.796875 17.1875 
L 4.890625 17.1875 
L 4.890625 26.703125 
z
" id="DejaVuSans-34"/>
      </defs>
      <g transform="translate(144.703426 308.077932)scale(0.1 -0.1)">
       <use xlink:href="#DejaVuSans-30"/>
       <use x="63.623047" xlink:href="#DejaVuSans-2e"/>
       <use x="95.410156" xlink:href="#DejaVuSans-34"/>
      </g>
     </g>
    </g>
    <g id="xtick_3">
     <g id="line2d_3">
      <g>
       <use style="stroke:#000000;stroke-width:0.8;" x="200.448" xlink:href="#m664dee04b8" y="293.479494"/>
      </g>
     </g>
     <g id="text_3">
      <!-- 0.6 -->
      <defs>
       <path d="M 33.015625 40.375 
Q 26.375 40.375 22.484375 35.828125 
Q 18.609375 31.296875 18.609375 23.390625 
Q 18.609375 15.53125 22.484375 10.953125 
Q 26.375 6.390625 33.015625 6.390625 
Q 39.65625 6.390625 43.53125 10.953125 
Q 47.40625 15.53125 47.40625 23.390625 
Q 47.40625 31.296875 43.53125 35.828125 
Q 39.65625 40.375 33.015625 40.375 
z
M 52.59375 71.296875 
L 52.59375 62.3125 
Q 48.875 64.0625 45.09375 64.984375 
Q 41.3125 65.921875 37.59375 65.921875 
Q 27.828125 65.921875 22.671875 59.328125 
Q 17.53125 52.734375 16.796875 39.40625 
Q 19.671875 43.65625 24.015625 45.921875 
Q 28.375 48.1875 33.59375 48.1875 
Q 44.578125 48.1875 50.953125 41.515625 
Q 57.328125 34.859375 57.328125 23.390625 
Q 57.328125 12.15625 50.6875 5.359375 
Q 44.046875 -1.421875 33.015625 -1.421875 
Q 20.359375 -1.421875 13.671875 8.265625 
Q 6.984375 17.96875 6.984375 36.375 
Q 6.984375 53.65625 15.1875 63.9375 
Q 23.390625 74.21875 37.203125 74.21875 
Q 40.921875 74.21875 44.703125 73.484375 
Q 48.484375 72.75 52.59375 71.296875 
z
" id="DejaVuSans-36"/>
      </defs>
      <g transform="translate(192.496438 308.077932)scale(0.1 -0.1)">
       <use xlink:href="#DejaVuSans-30"/>
       <use x="63.623047" xlink:href="#DejaVuSans-2e"/>
       <use x="95.410156" xlink:href="#DejaVuSans-36"/>
      </g>
     </g>
    </g>
    <g id="xtick_4">
     <g id="line2d_4">
      <g>
       <use style="stroke:#000000;stroke-width:0.8;" x="248.241011" xlink:href="#m664dee04b8" y="293.479494"/>
      </g>
     </g>
     <g id="text_4">
      <!-- 0.8 -->
      <defs>
       <path d="M 31.78125 34.625 
Q 24.75 34.625 20.71875 30.859375 
Q 16.703125 27.09375 16.703125 20.515625 
Q 16.703125 13.921875 20.71875 10.15625 
Q 24.75 6.390625 31.78125 6.390625 
Q 38.8125 6.390625 42.859375 10.171875 
Q 46.921875 13.96875 46.921875 20.515625 
Q 46.921875 27.09375 42.890625 30.859375 
Q 38.875 34.625 31.78125 34.625 
z
M 21.921875 38.8125 
Q 15.578125 40.375 12.03125 44.71875 
Q 8.5 49.078125 8.5 55.328125 
Q 8.5 64.0625 14.71875 69.140625 
Q 20.953125 74.21875 31.78125 74.21875 
Q 42.671875 74.21875 48.875 69.140625 
Q 55.078125 64.0625 55.078125 55.328125 
Q 55.078125 49.078125 51.53125 44.71875 
Q 48 40.375 41.703125 38.8125 
Q 48.828125 37.15625 52.796875 32.3125 
Q 56.78125 27.484375 56.78125 20.515625 
Q 56.78125 9.90625 50.3125 4.234375 
Q 43.84375 -1.421875 31.78125 -1.421875 
Q 19.734375 -1.421875 13.25 4.234375 
Q 6.78125 9.90625 6.78125 20.515625 
Q 6.78125 27.484375 10.78125 32.3125 
Q 14.796875 37.15625 21.921875 38.8125 
z
M 18.3125 54.390625 
Q 18.3125 48.734375 21.84375 45.5625 
Q 25.390625 42.390625 31.78125 42.390625 
Q 38.140625 42.390625 41.71875 45.5625 
Q 45.3125 48.734375 45.3125 54.390625 
Q 45.3125 60.0625 41.71875 63.234375 
Q 38.140625 66.40625 31.78125 66.40625 
Q 25.390625 66.40625 21.84375 63.234375 
Q 18.3125 60.0625 18.3125 54.390625 
z
" id="DejaVuSans-38"/>
      </defs>
      <g transform="translate(240.289449 308.077932)scale(0.1 -0.1)">
       <use xlink:href="#DejaVuSans-30"/>
       <use x="63.623047" xlink:href="#DejaVuSans-2e"/>
       <use x="95.410156" xlink:href="#DejaVuSans-38"/>
      </g>
     </g>
    </g>
    <g id="xtick_5">
     <g id="line2d_5">
      <g>
       <use style="stroke:#000000;stroke-width:0.8;" x="296.034022" xlink:href="#m664dee04b8" y="293.479494"/>
      </g>
     </g>
     <g id="text_5">
      <!-- 1.0 -->
      <defs>
       <path d="M 12.40625 8.296875 
L 28.515625 8.296875 
L 28.515625 63.921875 
L 10.984375 60.40625 
L 10.984375 69.390625 
L 28.421875 72.90625 
L 38.28125 72.90625 
L 38.28125 8.296875 
L 54.390625 8.296875 
L 54.390625 0 
L 12.40625 0 
z
" id="DejaVuSans-31"/>
      </defs>
      <g transform="translate(288.08246 308.077932)scale(0.1 -0.1)">
       <use xlink:href="#DejaVuSans-31"/>
       <use x="63.623047" xlink:href="#DejaVuSans-2e"/>
       <use x="95.410156" xlink:href="#DejaVuSans-30"/>
      </g>
     </g>
    </g>
   </g>
   <g id="matplotlib.axis_2">
    <g id="ytick_1">
     <g id="line2d_6">
      <defs>
       <path d="M 0 0 
L -3.5 0 
" id="mb96b534128" style="stroke:#000000;stroke-width:0.8;"/>
      </defs>
      <g>
       <use style="stroke:#000000;stroke-width:0.8;" x="57.6" xlink:href="#mb96b534128" y="246.217517"/>
      </g>
     </g>
     <g id="text_6">
      <!-- 0.2 -->
      <g transform="translate(34.696875 250.016735)scale(0.1 -0.1)">
       <use xlink:href="#DejaVuSans-30"/>
       <use x="63.623047" xlink:href="#DejaVuSans-2e"/>
       <use x="95.410156" xlink:href="#DejaVuSans-32"/>
      </g>
     </g>
    </g>
    <g id="ytick_2">
     <g id="line2d_7">
      <g>
       <use style="stroke:#000000;stroke-width:0.8;" x="57.6" xlink:href="#mb96b534128" y="198.424506"/>
      </g>
     </g>
     <g id="text_7">
      <!-- 0.4 -->
      <g transform="translate(34.696875 202.223724)scale(0.1 -0.1)">
       <use xlink:href="#DejaVuSans-30"/>
       <use x="63.623047" xlink:href="#DejaVuSans-2e"/>
       <use x="95.410156" xlink:href="#DejaVuSans-34"/>
      </g>
     </g>
    </g>
    <g id="ytick_3">
     <g id="line2d_8">
      <g>
       <use style="stroke:#000000;stroke-width:0.8;" x="57.6" xlink:href="#mb96b534128" y="150.631494"/>
      </g>
     </g>
     <g id="text_8">
      <!-- 0.6 -->
      <g transform="translate(34.696875 154.430713)scale(0.1 -0.1)">
       <use xlink:href="#DejaVuSans-30"/>
       <use x="63.623047" xlink:href="#DejaVuSans-2e"/>
       <use x="95.410156" xlink:href="#DejaVuSans-36"/>
      </g>
     </g>
    </g>
    <g id="ytick_4">
     <g id="line2d_9">
      <g>
       <use style="stroke:#000000;stroke-width:0.8;" x="57.6" xlink:href="#mb96b534128" y="102.838483"/>
      </g>
     </g>
     <g id="text_9">
      <!-- 0.8 -->
      <g transform="translate(34.696875 106.637702)scale(0.1 -0.1)">
       <use xlink:href="#DejaVuSans-30"/>
       <use x="63.623047" xlink:href="#DejaVuSans-2e"/>
       <use x="95.410156" xlink:href="#DejaVuSans-38"/>
      </g>
     </g>
    </g>
   </g>
   <g id="LineCollection_1">
    <path clip-path="url(#pd4a704344d)" d="M 286.193118 293.479494 
L 286.564513 291.355361 
L 287.006454 289.14806 
L 287.157381 287.107093 
L 287.098583 283.920892 
L 286.80337 280.734691 
L 285.527267 271.176089 
L 283.820253 260.312449 
L 281.696119 250.486979 
L 280.122583 245.686483 
L 279.200604 243.562349 
L 278.509918 242.230734 
L 277.099152 240.376149 
L 275.916613 239.314082 
L 275.323717 238.890246 
L 273.913975 238.252015 
L 273.199584 238.017666 
L 271.07545 237.652821 
L 267.889249 237.521712 
L 260.454781 237.658302 
L 247.709978 237.827803 
L 232.841041 237.811134 
L 219.034171 237.587895 
L 183.985963 236.83252 
L 176.551494 237.019432 
L 166.992892 237.521744 
L 158.496357 237.946576 
L 153.186022 237.995842 
L 148.937755 237.824672 
L 144.689487 237.424572 
L 140.441219 236.782868 
L 136.192952 235.911561 
L 130.882617 234.561728 
L 117.018578 230.817546 
L 113.889546 230.313063 
L 111.765413 230.155632 
L 109.641279 230.206322 
L 107.517145 230.526787 
L 105.393011 231.195436 
L 103.988542 231.879613 
L 102.20681 233.054085 
L 101.095325 234.003747 
L 99.133287 236.127881 
L 97.958543 237.68644 
L 96.227962 240.376149 
L 94.41049 243.562349 
L 90.779432 249.934751 
L 89.351431 252.058885 
L 87.643236 254.183019 
L 86.275807 255.563483 
L 85.21374 256.441401 
L 83.75784 257.369219 
L 83.089606 257.713231 
L 82.027539 258.119119 
L 80.383293 258.431286 
L 79.903405 258.475796 
L 78.841338 258.419093 
L 77.779271 258.195047 
L 76.717204 257.794982 
L 75.655138 257.203003 
L 74.503076 256.307152 
L 73.452863 255.245086 
L 71.902054 253.120952 
L 71.264545 252.058885 
L 70.210888 249.934751 
L 68.968973 246.74855 
L 67.976403 243.562349 
L 66.917045 239.314082 
L 65.869947 234.003747 
L 64.876169 227.631346 
L 63.838852 219.13481 
L 62.835178 208.514141 
L 61.911633 195.769338 
L 61.195881 183.024535 
L 60.446382 166.031465 
L 59.7038 143.728059 
L 59.072335 117.176387 
L 58.550646 85.314379 
L 58.264425 56.638572 
L 58.277277 55.576506 
L 58.277277 55.576506 
" style="fill:none;stroke:#000080;stroke-width:1.5;"/>
   </g>
   <g id="LineCollection_2">
    <path clip-path="url(#pd4a704344d)" d="M 290.005632 293.479494 
L 290.43504 288.16916 
L 290.390796 284.982959 
L 290.060915 279.672625 
L 285.565449 226.569279 
L 284.305995 215.94861 
L 283.361827 209.576208 
L 282.377003 204.265874 
L 281.351589 200.017606 
L 280.312767 196.831405 
L 279.36353 194.707271 
L 278.509918 193.304653 
L 277.447851 192.176517 
L 276.385784 191.51346 
L 275.323717 191.189163 
L 274.261651 191.099707 
L 272.137517 191.329903 
L 263.640981 192.993722 
L 259.392714 193.385559 
L 254.082379 193.594679 
L 240.275509 193.783228 
L 197.792833 194.183852 
L 176.551494 194.126814 
L 160.620491 194.127192 
L 151.061888 194.356897 
L 139.379152 194.914958 
L 133.006751 195.141876 
L 128.758483 195.126927 
L 124.510216 194.908737 
L 120.261948 194.463448 
L 114.951613 193.63411 
L 106.455078 192.181901 
L 103.268877 191.867299 
L 101.144743 191.82763 
L 99.02061 191.984018 
L 96.896476 192.397495 
L 94.772342 193.140074 
L 92.648208 194.285592 
L 90.682025 195.769338 
L 89.462007 196.899771 
L 87.337874 199.267665 
L 85.135089 202.14174 
L 81.146967 207.452074 
L 79.903405 208.810454 
L 78.841338 209.72444 
L 77.779271 210.36366 
L 76.717204 210.676939 
L 75.655138 210.616751 
L 74.593071 210.135067 
L 73.531004 209.17997 
L 72.345376 207.452074 
L 71.297625 205.327941 
L 70.132356 202.14174 
L 68.946664 197.893472 
L 67.789711 192.583138 
L 66.686953 186.210736 
L 65.650119 178.776268 
L 64.575987 169.217665 
L 63.525835 157.534929 
L 62.538239 143.728059 
L 61.641655 127.797056 
L 60.779827 107.617784 
L 59.990294 82.128178 
L 59.434996 59.824773 
L 59.531591 55.576506 
L 59.531591 55.576506 
" style="fill:none;stroke:#0000e8;stroke-width:1.5;"/>
   </g>
   <g id="LineCollection_3">
    <path clip-path="url(#pd4a704344d)" d="M 292.121674 293.479494 
L 292.333999 287.107093 
L 292.130071 281.796758 
L 288.677943 220.196877 
L 287.384963 201.079673 
L 286.412455 189.396937 
L 285.435666 179.838335 
L 284.488278 172.403866 
L 283.445414 166.031465 
L 282.548825 161.783197 
L 281.684256 158.596996 
L 280.368576 155.410796 
L 279.571985 154.062986 
L 278.509918 153.02181 
L 277.447851 152.574184 
L 276.385784 152.572624 
L 275.323717 152.891142 
L 274.261651 153.424208 
L 271.283282 155.410796 
L 268.951316 156.947599 
L 266.827182 158.112325 
L 264.703048 159.006101 
L 262.515271 159.659063 
L 260.454781 160.071847 
L 257.26858 160.416353 
L 253.020312 160.546829 
L 223.282439 160.698745 
L 208.413502 160.729869 
L 188.23423 160.508234 
L 148.937755 160.04413 
L 130.882617 160.047942 
L 111.765413 160.084823 
L 95.834409 159.843514 
L 93.710275 160.049343 
L 91.586141 160.426966 
L 89.462007 161.033915 
L 87.337874 161.925863 
L 85.21374 163.143688 
L 82.722951 164.969398 
L 78.760753 168.155599 
L 77.779271 168.792654 
L 76.717204 169.28337 
L 75.655138 169.498793 
L 74.356621 169.217665 
L 73.531004 168.755091 
L 72.468937 167.616358 
L 71.40687 165.83904 
L 70.196307 162.845264 
L 68.958362 158.596996 
L 67.992438 154.348729 
L 66.857273 147.976327 
L 65.680149 139.479792 
L 64.641031 129.92119 
L 63.643577 118.238454 
L 62.663839 103.369517 
L 61.703546 84.252312 
L 60.757561 59.824773 
L 60.94107 55.576506 
L 60.94107 55.576506 
" style="fill:none;stroke:#0038ff;stroke-width:1.5;"/>
   </g>
   <g id="LineCollection_4">
    <path clip-path="url(#pd4a704344d)" d="M 293.730491 293.479494 
L 293.725187 283.920892 
L 293.167713 270.114022 
L 289.333096 184.086602 
L 288.459332 170.279732 
L 287.570193 158.596996 
L 286.573043 147.976327 
L 285.56368 139.479792 
L 284.600314 133.10739 
L 283.550672 127.797056 
L 282.389602 123.548788 
L 281.623307 121.424654 
L 280.436904 119.30052 
L 279.399181 118.238454 
L 278.509918 117.806784 
L 277.447851 117.840991 
L 276.385784 118.306059 
L 275.111151 119.30052 
L 273.199584 121.276327 
L 268.951316 126.169628 
L 266.827182 128.228786 
L 264.59121 129.92119 
L 262.578914 131.035113 
L 260.454781 131.819513 
L 258.330647 132.269305 
L 256.206513 132.452393 
L 254.082379 132.433054 
L 250.896178 132.14899 
L 244.523777 131.216015 
L 239.213442 130.527403 
L 234.965175 130.170971 
L 229.65484 129.9616 
L 223.282439 129.953798 
L 213.723836 130.205048 
L 198.8549 130.866734 
L 180.799762 131.616415 
L 163.806691 132.05673 
L 116.01368 132.930935 
L 91.586141 133.416328 
L 88.399941 133.7812 
L 85.21374 134.430699 
L 82.027539 135.427162 
L 77.779271 136.964634 
L 76.717204 137.205051 
L 75.655138 137.278599 
L 74.593071 137.103339 
L 73.531004 136.579901 
L 72.223554 135.231524 
L 71.40687 134.017362 
L 70.10774 130.983257 
L 69.118318 127.797056 
L 67.920693 122.486721 
L 66.845156 116.11432 
L 65.756531 107.617784 
L 64.716095 96.997115 
L 63.67489 83.190245 
L 62.458783 63.010974 
L 62.452698 59.824773 
L 62.724408 55.576506 
L 62.724408 55.576506 
" style="fill:none;stroke:#0094ff;stroke-width:1.5;"/>
   </g>
   <g id="LineCollection_5">
    <path clip-path="url(#pd4a704344d)" d="M 295.12726 293.479494 
L 294.99798 280.734691 
L 294.127511 253.120952 
L 292.028106 191.521071 
L 290.870997 164.969398 
L 289.808689 145.852193 
L 288.749491 130.983257 
L 287.679524 119.30052 
L 286.55591 109.741918 
L 285.613243 103.369517 
L 284.624938 98.059182 
L 283.607146 93.810914 
L 282.625485 90.624714 
L 281.285878 87.438513 
L 280.634052 86.149237 
L 279.30882 84.252312 
L 278.33368 83.190245 
L 276.88743 82.128178 
L 276.385784 81.841127 
L 275.323717 81.480976 
L 274.261651 81.353634 
L 273.199584 81.476843 
L 271.718018 82.128178 
L 271.07545 82.636866 
L 270.560469 83.190245 
L 269.843064 84.252312 
L 268.951316 86.401595 
L 268.113941 89.562647 
L 266.946031 93.810914 
L 266.16112 95.935048 
L 265.168706 98.059182 
L 263.891986 100.183316 
L 262.578914 101.872854 
L 261.069746 103.369517 
L 259.392714 104.629433 
L 257.26858 105.758825 
L 255.03872 106.555717 
L 253.020312 107.040773 
L 249.834112 107.52531 
L 245.585844 107.879843 
L 239.213442 108.140028 
L 232.841041 108.201129 
L 226.468639 108.053386 
L 220.096238 107.687554 
L 211.599703 106.953845 
L 198.8549 105.813522 
L 192.482498 105.475861 
L 186.110097 105.394364 
L 179.737695 105.554382 
L 171.24116 106.016687 
L 151.061888 107.197378 
L 138.317086 107.662977 
L 113.889546 108.247395 
L 97.958543 108.747701 
L 89.462007 109.204151 
L 83.089606 109.777436 
L 79.903405 110.037164 
L 77.779271 110.011542 
L 76.357056 109.741918 
L 75.655138 109.522844 
L 74.270536 108.679851 
L 73.199531 107.617784 
L 72.408343 106.555717 
L 71.315679 104.431584 
L 70.175472 101.245383 
L 69.079748 96.997115 
L 67.894044 90.624714 
L 66.860332 83.190245 
L 65.733169 72.569576 
L 65.058069 64.073041 
L 65.066927 60.88684 
L 65.288157 58.762706 
L 65.592044 56.638572 
L 65.64032 55.576506 
L 65.64032 55.576506 
" style="fill:none;stroke:#0cf4eb;stroke-width:1.5;"/>
   </g>
   <g id="LineCollection_6">
    <path clip-path="url(#pd4a704344d)" d="M 298.058936 293.479494 
L 297.949009 287.107093 
L 297.627123 281.674101 
L 297.039368 275.424357 
L 296.522372 270.114022 
L 295.153325 232.94168 
L 293.652469 180.900401 
L 292.686202 154.348729 
L 291.76107 134.169457 
L 290.770226 117.176387 
L 289.751897 103.369517 
L 288.948017 94.872981 
L 288.06852 88.178814 
L 287.090198 83.190245 
L 286.521551 81.066112 
L 285.848612 78.941978 
L 284.88232 76.592907 
L 283.820253 74.630683 
L 282.276339 72.569576 
L 281.21831 71.507509 
L 279.842694 70.445442 
L 278.509918 69.685683 
L 277.447851 69.223369 
L 275.323717 68.609556 
L 273.199584 68.290286 
L 271.07545 68.218405 
L 268.951316 68.328988 
L 265.765115 68.81085 
L 262.578914 69.588412 
L 259.392714 70.661237 
L 256.206513 72.022582 
L 253.020312 73.655502 
L 249.572361 75.755777 
L 245.109686 78.941978 
L 237.089309 85.206845 
L 233.903108 87.256052 
L 231.373314 88.50058 
L 229.65484 89.161635 
L 227.530706 89.780227 
L 225.406572 90.210882 
L 222.220372 90.569562 
L 219.034171 90.640842 
L 215.84797 90.481609 
L 211.599703 89.991627 
L 207.351435 89.266548 
L 200.979033 87.89223 
L 182.923896 83.787272 
L 176.551494 82.657402 
L 170.179093 81.749661 
L 162.744625 80.918078 
L 151.061888 79.855994 
L 139.379152 78.717379 
L 131.944684 77.781382 
L 125.572283 76.757542 
L 120.261948 75.685021 
L 114.951613 74.318815 
L 111.765413 73.302275 
L 108.579212 72.045124 
L 106.455078 71.000815 
L 105.393011 70.401225 
L 103.923299 69.383375 
L 102.737337 68.321309 
L 101.86089 67.259242 
L 101.144743 65.866737 
L 100.896731 65.135108 
L 100.743723 64.073041 
L 100.766581 63.010974 
L 101.199094 60.88684 
L 102.437277 56.638572 
L 102.525825 55.576506 
L 102.525825 55.576506 
" style="fill:none;stroke:#56ffa0;stroke-width:1.5;"/>
   </g>
   <g id="LineCollection_7">
    <path clip-path="url(#pd4a704344d)" d="M 304.771009 293.479494 
L 304.636389 286.045026 
L 304.264887 278.610558 
L 303.612428 270.114022 
L 302.389087 257.369219 
L 299.880794 234.003747 
L 296.454087 202.14174 
L 295.159508 167.093532 
L 294.185369 137.355658 
L 293.232378 115.052253 
L 292.288578 98.059182 
L 291.606901 89.562647 
L 290.996186 84.252312 
L 290.192654 79.415475 
L 289.586484 76.817844 
L 288.975815 74.69371 
L 288.06852 72.256378 
L 287.006454 70.136853 
L 285.766163 68.321309 
L 284.81866 67.259242 
L 283.590112 66.197175 
L 281.696119 65.01098 
L 279.432572 64.073041 
L 277.447851 63.519852 
L 274.555839 63.010974 
L 272.137517 62.75753 
L 267.889249 62.58585 
L 262.578914 62.666729 
L 251.625097 63.010974 
L 249.834112 62.919558 
L 247.709978 62.627719 
L 245.585844 62.020518 
L 245.407535 61.948907 
L 244.076748 60.88684 
L 243.633019 59.824773 
L 243.653194 58.762706 
L 243.972238 57.700639 
L 244.523777 56.610556 
L 245.174529 55.576506 
L 245.174529 55.576506 
" style="fill:none;stroke:#a0ff56;stroke-width:1.5;"/>
   </g>
   <g id="LineCollection_8">
    <path clip-path="url(#pd4a704344d)" d="M 311.655014 293.479494 
L 311.528873 284.982959 
L 311.137725 275.424357 
L 310.469674 264.803688 
L 309.217641 248.872684 
L 306.870244 222.321011 
L 304.225883 194.707271 
L 301.975913 173.465933 
L 299.955961 156.472862 
L 298.110005 142.665993 
L 296.495592 130.983257 
L 293.977539 85.314379 
L 293.378855 79.599398 
L 292.801336 75.755777 
L 292.159879 72.569576 
L 291.254721 69.355417 
L 290.192654 66.790787 
L 289.130587 64.995578 
L 288.06852 63.674469 
L 287.006454 62.645692 
L 284.88232 61.104426 
L 281.696119 59.349327 
L 280.500234 58.762706 
L 278.509918 57.398733 
L 277.792766 56.638572 
L 277.428435 55.576506 
L 277.428435 55.576506 
" style="fill:none;stroke:#ebff0c;stroke-width:1.5;"/>
   </g>
   <g id="LineCollection_9">
    <path clip-path="url(#pd4a704344d)" d="M 318.67582 293.479494 
L 318.542115 282.858825 
L 318.187713 272.238156 
L 317.490457 258.431286 
L 316.221883 238.252015 
L 314.045807 207.452074 
L 311.964256 180.900401 
L 310.172095 160.72113 
L 308.442701 143.728059 
L 306.825028 129.92119 
L 305.252626 118.238454 
L 303.601826 107.617784 
L 302.062511 99.121249 
L 300.715549 92.748848 
L 299.404473 87.438513 
L 298.176756 83.190245 
L 296.719795 78.941978 
L 296.565056 78.539209 
L 295.807978 73.631643 
L 295.295786 70.445442 
L 294.7765 67.259242 
L 294.023929 64.073041 
L 293.320685 61.948907 
L 290.774076 55.576506 
L 290.774076 55.576506 
" style="fill:none;stroke:#ffab00;stroke-width:1.5;"/>
   </g>
   <g id="LineCollection_10">
    <path clip-path="url(#pd4a704344d)" d="M 325.795607 293.479494 
L 325.671024 280.734691 
L 325.307622 266.927822 
L 324.553062 247.810617 
L 323.116729 217.797238 
L 321.34801 185.148669 
L 319.821697 160.72113 
L 318.423187 141.603926 
L 317.042853 125.672922 
L 315.68226 112.470465 
L 314.306755 101.245383 
L 312.91637 91.686781 
L 311.433993 83.004541 
L 309.602359 73.631643 
L 307.756676 64.073041 
L 307.197734 59.824773 
L 307.009749 56.638572 
L 307.002554 55.576506 
L 307.002554 55.576506 
" style="fill:none;stroke:#ff5500;stroke-width:1.5;"/>
   </g>
   <g id="LineCollection_11">
    <path clip-path="url(#pd4a704344d)" d="M 332.982058 293.479494 
L 332.859393 276.486424 
L 332.468093 256.307152 
L 331.54528 222.321011 
L 330.202501 180.900401 
L 328.994459 150.100461 
L 327.909114 127.797056 
L 326.864126 110.803985 
L 325.743021 95.935048 
L 323.1066 63.010974 
L 322.951215 56.638572 
L 322.949436 55.576506 
L 322.949436 55.576506 
" style="fill:none;stroke:#e80000;stroke-width:1.5;"/>
   </g>
   <g id="LineCollection_12">
    <path clip-path="url(#pd4a704344d)" d="M 340.207553 293.479494 
L 340.093939 264.803688 
L 339.184561 172.403866 
L 338.473996 123.548788 
L 337.752081 91.686781 
L 337.158671 67.259242 
L 337.056643 55.576506 
L 337.056643 55.576506 
" style="fill:none;stroke:#800000;stroke-width:1.5;"/>
   </g>
   <g id="patch_3">
    <path d="M 57.6 293.479494 
L 57.6 55.576506 
" style="fill:none;stroke:#000000;stroke-linecap:square;stroke-linejoin:miter;stroke-width:0.8;"/>
   </g>
   <g id="patch_4">
    <path d="M 343.296 293.479494 
L 343.296 55.576506 
" style="fill:none;stroke:#000000;stroke-linecap:square;stroke-linejoin:miter;stroke-width:0.8;"/>
   </g>
   <g id="patch_5">
    <path d="M 57.6 293.479494 
L 343.296 293.479494 
" style="fill:none;stroke:#000000;stroke-linecap:square;stroke-linejoin:miter;stroke-width:0.8;"/>
   </g>
   <g id="patch_6">
    <path d="M 57.6 55.576506 
L 343.296 55.576506 
" style="fill:none;stroke:#000000;stroke-linecap:square;stroke-linejoin:miter;stroke-width:0.8;"/>
   </g>
   <g id="text_10">
    <!-- Time:0.03292 s -->
    <defs>
     <path d="M -0.296875 72.90625 
L 61.375 72.90625 
L 61.375 64.59375 
L 35.5 64.59375 
L 35.5 0 
L 25.59375 0 
L 25.59375 64.59375 
L -0.296875 64.59375 
z
" id="DejaVuSans-54"/>
     <path d="M 9.421875 54.6875 
L 18.40625 54.6875 
L 18.40625 0 
L 9.421875 0 
z
M 9.421875 75.984375 
L 18.40625 75.984375 
L 18.40625 64.59375 
L 9.421875 64.59375 
z
" id="DejaVuSans-69"/>
     <path d="M 52 44.1875 
Q 55.375 50.25 60.0625 53.125 
Q 64.75 56 71.09375 56 
Q 79.640625 56 84.28125 50.015625 
Q 88.921875 44.046875 88.921875 33.015625 
L 88.921875 0 
L 79.890625 0 
L 79.890625 32.71875 
Q 79.890625 40.578125 77.09375 44.375 
Q 74.3125 48.1875 68.609375 48.1875 
Q 61.625 48.1875 57.5625 43.546875 
Q 53.515625 38.921875 53.515625 30.90625 
L 53.515625 0 
L 44.484375 0 
L 44.484375 32.71875 
Q 44.484375 40.625 41.703125 44.40625 
Q 38.921875 48.1875 33.109375 48.1875 
Q 26.21875 48.1875 22.15625 43.53125 
Q 18.109375 38.875 18.109375 30.90625 
L 18.109375 0 
L 9.078125 0 
L 9.078125 54.6875 
L 18.109375 54.6875 
L 18.109375 46.1875 
Q 21.1875 51.21875 25.484375 53.609375 
Q 29.78125 56 35.6875 56 
Q 41.65625 56 45.828125 52.96875 
Q 50 49.953125 52 44.1875 
z
" id="DejaVuSans-6d"/>
     <path d="M 56.203125 29.59375 
L 56.203125 25.203125 
L 14.890625 25.203125 
Q 15.484375 15.921875 20.484375 11.0625 
Q 25.484375 6.203125 34.421875 6.203125 
Q 39.59375 6.203125 44.453125 7.46875 
Q 49.3125 8.734375 54.109375 11.28125 
L 54.109375 2.78125 
Q 49.265625 0.734375 44.1875 -0.34375 
Q 39.109375 -1.421875 33.890625 -1.421875 
Q 20.796875 -1.421875 13.15625 6.1875 
Q 5.515625 13.8125 5.515625 26.8125 
Q 5.515625 40.234375 12.765625 48.109375 
Q 20.015625 56 32.328125 56 
Q 43.359375 56 49.78125 48.890625 
Q 56.203125 41.796875 56.203125 29.59375 
z
M 47.21875 32.234375 
Q 47.125 39.59375 43.09375 43.984375 
Q 39.0625 48.390625 32.421875 48.390625 
Q 24.90625 48.390625 20.390625 44.140625 
Q 15.875 39.890625 15.1875 32.171875 
z
" id="DejaVuSans-65"/>
     <path d="M 11.71875 12.40625 
L 22.015625 12.40625 
L 22.015625 0 
L 11.71875 0 
z
M 11.71875 51.703125 
L 22.015625 51.703125 
L 22.015625 39.3125 
L 11.71875 39.3125 
z
" id="DejaVuSans-3a"/>
     <path d="M 40.578125 39.3125 
Q 47.65625 37.796875 51.625 33 
Q 55.609375 28.21875 55.609375 21.1875 
Q 55.609375 10.40625 48.1875 4.484375 
Q 40.765625 -1.421875 27.09375 -1.421875 
Q 22.515625 -1.421875 17.65625 -0.515625 
Q 12.796875 0.390625 7.625 2.203125 
L 7.625 11.71875 
Q 11.71875 9.328125 16.59375 8.109375 
Q 21.484375 6.890625 26.8125 6.890625 
Q 36.078125 6.890625 40.9375 10.546875 
Q 45.796875 14.203125 45.796875 21.1875 
Q 45.796875 27.640625 41.28125 31.265625 
Q 36.765625 34.90625 28.71875 34.90625 
L 20.21875 34.90625 
L 20.21875 43.015625 
L 29.109375 43.015625 
Q 36.375 43.015625 40.234375 45.921875 
Q 44.09375 48.828125 44.09375 54.296875 
Q 44.09375 59.90625 40.109375 62.90625 
Q 36.140625 65.921875 28.71875 65.921875 
Q 24.65625 65.921875 20.015625 65.03125 
Q 15.375 64.15625 9.8125 62.3125 
L 9.8125 71.09375 
Q 15.4375 72.65625 20.34375 73.4375 
Q 25.25 74.21875 29.59375 74.21875 
Q 40.828125 74.21875 47.359375 69.109375 
Q 53.90625 64.015625 53.90625 55.328125 
Q 53.90625 49.265625 50.4375 45.09375 
Q 46.96875 40.921875 40.578125 39.3125 
z
" id="DejaVuSans-33"/>
     <path d="M 10.984375 1.515625 
L 10.984375 10.5 
Q 14.703125 8.734375 18.5 7.8125 
Q 22.3125 6.890625 25.984375 6.890625 
Q 35.75 6.890625 40.890625 13.453125 
Q 46.046875 20.015625 46.78125 33.40625 
Q 43.953125 29.203125 39.59375 26.953125 
Q 35.25 24.703125 29.984375 24.703125 
Q 19.046875 24.703125 12.671875 31.3125 
Q 6.296875 37.9375 6.296875 49.421875 
Q 6.296875 60.640625 12.9375 67.421875 
Q 19.578125 74.21875 30.609375 74.21875 
Q 43.265625 74.21875 49.921875 64.515625 
Q 56.59375 54.828125 56.59375 36.375 
Q 56.59375 19.140625 48.40625 8.859375 
Q 40.234375 -1.421875 26.421875 -1.421875 
Q 22.703125 -1.421875 18.890625 -0.6875 
Q 15.09375 0.046875 10.984375 1.515625 
z
M 30.609375 32.421875 
Q 37.25 32.421875 41.125 36.953125 
Q 45.015625 41.5 45.015625 49.421875 
Q 45.015625 57.28125 41.125 61.84375 
Q 37.25 66.40625 30.609375 66.40625 
Q 23.96875 66.40625 20.09375 61.84375 
Q 16.21875 57.28125 16.21875 49.421875 
Q 16.21875 41.5 20.09375 36.953125 
Q 23.96875 32.421875 30.609375 32.421875 
z
" id="DejaVuSans-39"/>
     <path id="DejaVuSans-20"/>
     <path d="M 44.28125 53.078125 
L 44.28125 44.578125 
Q 40.484375 46.53125 36.375 47.5 
Q 32.28125 48.484375 27.875 48.484375 
Q 21.1875 48.484375 17.84375 46.4375 
Q 14.5 44.390625 14.5 40.28125 
Q 14.5 37.15625 16.890625 35.375 
Q 19.28125 33.59375 26.515625 31.984375 
L 29.59375 31.296875 
Q 39.15625 29.25 43.1875 25.515625 
Q 47.21875 21.78125 47.21875 15.09375 
Q 47.21875 7.46875 41.1875 3.015625 
Q 35.15625 -1.421875 24.609375 -1.421875 
Q 20.21875 -1.421875 15.453125 -0.5625 
Q 10.6875 0.296875 5.421875 2 
L 5.421875 11.28125 
Q 10.40625 8.6875 15.234375 7.390625 
Q 20.0625 6.109375 24.8125 6.109375 
Q 31.15625 6.109375 34.5625 8.28125 
Q 37.984375 10.453125 37.984375 14.40625 
Q 37.984375 18.0625 35.515625 20.015625 
Q 33.0625 21.96875 24.703125 23.78125 
L 21.578125 24.515625 
Q 13.234375 26.265625 9.515625 29.90625 
Q 5.8125 33.546875 5.8125 39.890625 
Q 5.8125 47.609375 11.28125 51.796875 
Q 16.75 56 26.8125 56 
Q 31.78125 56 36.171875 55.265625 
Q 40.578125 54.546875 44.28125 53.078125 
z
" id="DejaVuSans-73"/>
    </defs>
    <g transform="translate(153.717375 49.576506)scale(0.12 -0.12)">
     <use xlink:href="#DejaVuSans-54"/>
     <use x="61.037109" xlink:href="#DejaVuSans-69"/>
     <use x="88.820312" xlink:href="#DejaVuSans-6d"/>
     <use x="186.232422" xlink:href="#DejaVuSans-65"/>
     <use x="247.755859" xlink:href="#DejaVuSans-3a"/>
     <use x="281.447266" xlink:href="#DejaVuSans-30"/>
     <use x="345.070312" xlink:href="#DejaVuSans-2e"/>
     <use x="376.857422" xlink:href="#DejaVuSans-30"/>
     <use x="440.480469" xlink:href="#DejaVuSans-33"/>
     <use x="504.103516" xlink:href="#DejaVuSans-32"/>
     <use x="567.726562" xlink:href="#DejaVuSans-39"/>
     <use x="631.349609" xlink:href="#DejaVuSans-32"/>
     <use x="694.972656" xlink:href="#DejaVuSans-20"/>
     <use x="726.759766" xlink:href="#DejaVuSans-73"/>
    </g>
   </g>
  </g>
  <g id="axes_2">
   <g id="patch_7">
    <path clip-path="url(#p04c577baed)" d="M 361.152 307.584 
L 361.152 283.392 
L 361.152 65.664 
L 361.152 41.472 
L 374.4576 41.472 
L 374.4576 65.664 
L 374.4576 283.392 
L 374.4576 307.584 
z
" style="fill:#ffffff;stroke:#ffffff;stroke-linejoin:miter;stroke-width:0.01;"/>
   </g>
   <g id="matplotlib.axis_3"/>
   <g id="matplotlib.axis_4">
    <g id="ytick_5">
     <g id="line2d_10">
      <defs>
       <path d="M 0 0 
L 3.5 0 
" id="mcbbc17fdb8" style="stroke:#000000;stroke-width:0.8;"/>
      </defs>
      <g>
       <use style="stroke:#000000;stroke-width:0.8;" x="374.4576" xlink:href="#mcbbc17fdb8" y="307.584"/>
      </g>
     </g>
     <g id="text_11">
      <!-- 0.08 -->
      <g transform="translate(381.4576 311.383219)scale(0.1 -0.1)">
       <use xlink:href="#DejaVuSans-30"/>
       <use x="63.623047" xlink:href="#DejaVuSans-2e"/>
       <use x="95.410156" xlink:href="#DejaVuSans-30"/>
       <use x="159.033203" xlink:href="#DejaVuSans-38"/>
      </g>
     </g>
    </g>
    <g id="ytick_6">
     <g id="line2d_11">
      <g>
       <use style="stroke:#000000;stroke-width:0.8;" x="374.4576" xlink:href="#mcbbc17fdb8" y="259.2"/>
      </g>
     </g>
     <g id="text_12">
      <!-- 0.24 -->
      <g transform="translate(381.4576 262.999219)scale(0.1 -0.1)">
       <use xlink:href="#DejaVuSans-30"/>
       <use x="63.623047" xlink:href="#DejaVuSans-2e"/>
       <use x="95.410156" xlink:href="#DejaVuSans-32"/>
       <use x="159.033203" xlink:href="#DejaVuSans-34"/>
      </g>
     </g>
    </g>
    <g id="ytick_7">
     <g id="line2d_12">
      <g>
       <use style="stroke:#000000;stroke-width:0.8;" x="374.4576" xlink:href="#mcbbc17fdb8" y="210.816"/>
      </g>
     </g>
     <g id="text_13">
      <!-- 0.40 -->
      <g transform="translate(381.4576 214.615219)scale(0.1 -0.1)">
       <use xlink:href="#DejaVuSans-30"/>
       <use x="63.623047" xlink:href="#DejaVuSans-2e"/>
       <use x="95.410156" xlink:href="#DejaVuSans-34"/>
       <use x="159.033203" xlink:href="#DejaVuSans-30"/>
      </g>
     </g>
    </g>
    <g id="ytick_8">
     <g id="line2d_13">
      <g>
       <use style="stroke:#000000;stroke-width:0.8;" x="374.4576" xlink:href="#mcbbc17fdb8" y="162.432"/>
      </g>
     </g>
     <g id="text_14">
      <!-- 0.56 -->
      <defs>
       <path d="M 10.796875 72.90625 
L 49.515625 72.90625 
L 49.515625 64.59375 
L 19.828125 64.59375 
L 19.828125 46.734375 
Q 21.96875 47.46875 24.109375 47.828125 
Q 26.265625 48.1875 28.421875 48.1875 
Q 40.625 48.1875 47.75 41.5 
Q 54.890625 34.8125 54.890625 23.390625 
Q 54.890625 11.625 47.5625 5.09375 
Q 40.234375 -1.421875 26.90625 -1.421875 
Q 22.3125 -1.421875 17.546875 -0.640625 
Q 12.796875 0.140625 7.71875 1.703125 
L 7.71875 11.625 
Q 12.109375 9.234375 16.796875 8.0625 
Q 21.484375 6.890625 26.703125 6.890625 
Q 35.15625 6.890625 40.078125 11.328125 
Q 45.015625 15.765625 45.015625 23.390625 
Q 45.015625 31 40.078125 35.4375 
Q 35.15625 39.890625 26.703125 39.890625 
Q 22.75 39.890625 18.8125 39.015625 
Q 14.890625 38.140625 10.796875 36.28125 
z
" id="DejaVuSans-35"/>
      </defs>
      <g transform="translate(381.4576 166.231219)scale(0.1 -0.1)">
       <use xlink:href="#DejaVuSans-30"/>
       <use x="63.623047" xlink:href="#DejaVuSans-2e"/>
       <use x="95.410156" xlink:href="#DejaVuSans-35"/>
       <use x="159.033203" xlink:href="#DejaVuSans-36"/>
      </g>
     </g>
    </g>
    <g id="ytick_9">
     <g id="line2d_14">
      <g>
       <use style="stroke:#000000;stroke-width:0.8;" x="374.4576" xlink:href="#mcbbc17fdb8" y="114.048"/>
      </g>
     </g>
     <g id="text_15">
      <!-- 0.72 -->
      <defs>
       <path d="M 8.203125 72.90625 
L 55.078125 72.90625 
L 55.078125 68.703125 
L 28.609375 0 
L 18.3125 0 
L 43.21875 64.59375 
L 8.203125 64.59375 
z
" id="DejaVuSans-37"/>
      </defs>
      <g transform="translate(381.4576 117.847219)scale(0.1 -0.1)">
       <use xlink:href="#DejaVuSans-30"/>
       <use x="63.623047" xlink:href="#DejaVuSans-2e"/>
       <use x="95.410156" xlink:href="#DejaVuSans-37"/>
       <use x="159.033203" xlink:href="#DejaVuSans-32"/>
      </g>
     </g>
    </g>
    <g id="ytick_10">
     <g id="line2d_15">
      <g>
       <use style="stroke:#000000;stroke-width:0.8;" x="374.4576" xlink:href="#mcbbc17fdb8" y="65.664"/>
      </g>
     </g>
     <g id="text_16">
      <!-- 0.88 -->
      <g transform="translate(381.4576 69.463219)scale(0.1 -0.1)">
       <use xlink:href="#DejaVuSans-30"/>
       <use x="63.623047" xlink:href="#DejaVuSans-2e"/>
       <use x="95.410156" xlink:href="#DejaVuSans-38"/>
       <use x="159.033203" xlink:href="#DejaVuSans-38"/>
      </g>
     </g>
    </g>
   </g>
   <g id="LineCollection_13">
    <path clip-path="url(#p04c577baed)" d="M 361.152 307.584 
L 374.4576 307.584 
" style="fill:none;stroke:#000080;stroke-width:1.5;"/>
    <path clip-path="url(#p04c577baed)" d="M 361.152 283.392 
L 374.4576 283.392 
" style="fill:none;stroke:#0000e8;stroke-width:1.5;"/>
    <path clip-path="url(#p04c577baed)" d="M 361.152 259.2 
L 374.4576 259.2 
" style="fill:none;stroke:#0038ff;stroke-width:1.5;"/>
    <path clip-path="url(#p04c577baed)" d="M 361.152 235.008 
L 374.4576 235.008 
" style="fill:none;stroke:#0094ff;stroke-width:1.5;"/>
    <path clip-path="url(#p04c577baed)" d="M 361.152 210.816 
L 374.4576 210.816 
" style="fill:none;stroke:#0cf4eb;stroke-width:1.5;"/>
    <path clip-path="url(#p04c577baed)" d="M 361.152 186.624 
L 374.4576 186.624 
" style="fill:none;stroke:#56ffa0;stroke-width:1.5;"/>
    <path clip-path="url(#p04c577baed)" d="M 361.152 162.432 
L 374.4576 162.432 
" style="fill:none;stroke:#a0ff56;stroke-width:1.5;"/>
    <path clip-path="url(#p04c577baed)" d="M 361.152 138.24 
L 374.4576 138.24 
" style="fill:none;stroke:#ebff0c;stroke-width:1.5;"/>
    <path clip-path="url(#p04c577baed)" d="M 361.152 114.048 
L 374.4576 114.048 
" style="fill:none;stroke:#ffab00;stroke-width:1.5;"/>
    <path clip-path="url(#p04c577baed)" d="M 361.152 89.856 
L 374.4576 89.856 
" style="fill:none;stroke:#ff5500;stroke-width:1.5;"/>
    <path clip-path="url(#p04c577baed)" d="M 361.152 65.664 
L 374.4576 65.664 
" style="fill:none;stroke:#e80000;stroke-width:1.5;"/>
    <path clip-path="url(#p04c577baed)" d="M 361.152 41.472 
L 374.4576 41.472 
" style="fill:none;stroke:#800000;stroke-width:1.5;"/>
   </g>
   <g id="patch_8">
    <path d="M 361.152 307.584 
L 361.152 283.392 
L 361.152 65.664 
L 361.152 41.472 
L 374.4576 41.472 
L 374.4576 65.664 
L 374.4576 283.392 
L 374.4576 307.584 
z
" style="fill:none;stroke:#000000;stroke-linejoin:miter;stroke-width:0.8;"/>
   </g>
  </g>
 </g>
 <defs>
  <clipPath id="pd4a704344d">
   <rect height="237.902989" width="285.696" x="57.6" y="55.576506"/>
  </clipPath>
  <clipPath id="p04c577baed">
   <rect height="266.112" width="13.3056" x="361.152" y="41.472"/>
  </clipPath>
 </defs>
</svg>
