<?xml version="1.0" encoding="utf-8" standalone="no"?>
<!DOCTYPE svg PUBLIC "-//W3C//DTD SVG 1.1//EN"
  "http://www.w3.org/Graphics/SVG/1.1/DTD/svg11.dtd">
<!-- Created with matplotlib (http://matplotlib.org/) -->
<svg height="345.6pt" version="1.1" viewBox="0 0 460.8 345.6" width="460.8pt" xmlns="http://www.w3.org/2000/svg" xmlns:xlink="http://www.w3.org/1999/xlink">
 <defs>
  <style type="text/css">
*{stroke-linecap:butt;stroke-linejoin:round;}
  </style>
 </defs>
 <g id="figure_1">
  <g id="patch_1">
   <path d="M 0 345.6 
L 460.8 345.6 
L 460.8 0 
L 0 0 
z
" style="fill:#ffffff;"/>
  </g>
  <g id="axes_1">
   <g id="patch_2">
    <path d="M 57.6 293.479494 
L 343.296 293.479494 
L 343.296 55.576506 
L 57.6 55.576506 
z
" style="fill:#ffffff;"/>
   </g>
   <g id="matplotlib.axis_1">
    <g id="xtick_1">
     <g id="line2d_1">
      <defs>
       <path d="M 0 0 
L 0 3.5 
" id="m7fbf8440a7" style="stroke:#000000;stroke-width:0.8;"/>
      </defs>
      <g>
       <use style="stroke:#000000;stroke-width:0.8;" x="104.861978" xlink:href="#m7fbf8440a7" y="293.479494"/>
      </g>
     </g>
     <g id="text_1">
      <!-- 0.2 -->
      <defs>
       <path d="M 31.78125 66.40625 
Q 24.171875 66.40625 20.328125 58.90625 
Q 16.5 51.421875 16.5 36.375 
Q 16.5 21.390625 20.328125 13.890625 
Q 24.171875 6.390625 31.78125 6.390625 
Q 39.453125 6.390625 43.28125 13.890625 
Q 47.125 21.390625 47.125 36.375 
Q 47.125 51.421875 43.28125 58.90625 
Q 39.453125 66.40625 31.78125 66.40625 
z
M 31.78125 74.21875 
Q 44.046875 74.21875 50.515625 64.515625 
Q 56.984375 54.828125 56.984375 36.375 
Q 56.984375 17.96875 50.515625 8.265625 
Q 44.046875 -1.421875 31.78125 -1.421875 
Q 19.53125 -1.421875 13.0625 8.265625 
Q 6.59375 17.96875 6.59375 36.375 
Q 6.59375 54.828125 13.0625 64.515625 
Q 19.53125 74.21875 31.78125 74.21875 
z
" id="DejaVuSans-30"/>
       <path d="M 10.6875 12.40625 
L 21 12.40625 
L 21 0 
L 10.6875 0 
z
" id="DejaVuSans-2e"/>
       <path d="M 19.1875 8.296875 
L 53.609375 8.296875 
L 53.609375 0 
L 7.328125 0 
L 7.328125 8.296875 
Q 12.9375 14.109375 22.625 23.890625 
Q 32.328125 33.6875 34.8125 36.53125 
Q 39.546875 41.84375 41.421875 45.53125 
Q 43.3125 49.21875 43.3125 52.78125 
Q 43.3125 58.59375 39.234375 62.25 
Q 35.15625 65.921875 28.609375 65.921875 
Q 23.96875 65.921875 18.8125 64.3125 
Q 13.671875 62.703125 7.8125 59.421875 
L 7.8125 69.390625 
Q 13.765625 71.78125 18.9375 73 
Q 24.125 74.21875 28.421875 74.21875 
Q 39.75 74.21875 46.484375 68.546875 
Q 53.21875 62.890625 53.21875 53.421875 
Q 53.21875 48.921875 51.53125 44.890625 
Q 49.859375 40.875 45.40625 35.40625 
Q 44.1875 33.984375 37.640625 27.21875 
Q 31.109375 20.453125 19.1875 8.296875 
z
" id="DejaVuSans-32"/>
      </defs>
      <g transform="translate(96.910415 308.077932)scale(0.1 -0.1)">
       <use xlink:href="#DejaVuSans-30"/>
       <use x="63.623047" xlink:href="#DejaVuSans-2e"/>
       <use x="95.410156" xlink:href="#DejaVuSans-32"/>
      </g>
     </g>
    </g>
    <g id="xtick_2">
     <g id="line2d_2">
      <g>
       <use style="stroke:#000000;stroke-width:0.8;" x="152.654989" xlink:href="#m7fbf8440a7" y="293.479494"/>
      </g>
     </g>
     <g id="text_2">
      <!-- 0.4 -->
      <defs>
       <path d="M 37.796875 64.3125 
L 12.890625 25.390625 
L 37.796875 25.390625 
z
M 35.203125 72.90625 
L 47.609375 72.90625 
L 47.609375 25.390625 
L 58.015625 25.390625 
L 58.015625 17.1875 
L 47.609375 17.1875 
L 47.609375 0 
L 37.796875 0 
L 37.796875 17.1875 
L 4.890625 17.1875 
L 4.890625 26.703125 
z
" id="DejaVuSans-34"/>
      </defs>
      <g transform="translate(144.703426 308.077932)scale(0.1 -0.1)">
       <use xlink:href="#DejaVuSans-30"/>
       <use x="63.623047" xlink:href="#DejaVuSans-2e"/>
       <use x="95.410156" xlink:href="#DejaVuSans-34"/>
      </g>
     </g>
    </g>
    <g id="xtick_3">
     <g id="line2d_3">
      <g>
       <use style="stroke:#000000;stroke-width:0.8;" x="200.448" xlink:href="#m7fbf8440a7" y="293.479494"/>
      </g>
     </g>
     <g id="text_3">
      <!-- 0.6 -->
      <defs>
       <path d="M 33.015625 40.375 
Q 26.375 40.375 22.484375 35.828125 
Q 18.609375 31.296875 18.609375 23.390625 
Q 18.609375 15.53125 22.484375 10.953125 
Q 26.375 6.390625 33.015625 6.390625 
Q 39.65625 6.390625 43.53125 10.953125 
Q 47.40625 15.53125 47.40625 23.390625 
Q 47.40625 31.296875 43.53125 35.828125 
Q 39.65625 40.375 33.015625 40.375 
z
M 52.59375 71.296875 
L 52.59375 62.3125 
Q 48.875 64.0625 45.09375 64.984375 
Q 41.3125 65.921875 37.59375 65.921875 
Q 27.828125 65.921875 22.671875 59.328125 
Q 17.53125 52.734375 16.796875 39.40625 
Q 19.671875 43.65625 24.015625 45.921875 
Q 28.375 48.1875 33.59375 48.1875 
Q 44.578125 48.1875 50.953125 41.515625 
Q 57.328125 34.859375 57.328125 23.390625 
Q 57.328125 12.15625 50.6875 5.359375 
Q 44.046875 -1.421875 33.015625 -1.421875 
Q 20.359375 -1.421875 13.671875 8.265625 
Q 6.984375 17.96875 6.984375 36.375 
Q 6.984375 53.65625 15.1875 63.9375 
Q 23.390625 74.21875 37.203125 74.21875 
Q 40.921875 74.21875 44.703125 73.484375 
Q 48.484375 72.75 52.59375 71.296875 
z
" id="DejaVuSans-36"/>
      </defs>
      <g transform="translate(192.496438 308.077932)scale(0.1 -0.1)">
       <use xlink:href="#DejaVuSans-30"/>
       <use x="63.623047" xlink:href="#DejaVuSans-2e"/>
       <use x="95.410156" xlink:href="#DejaVuSans-36"/>
      </g>
     </g>
    </g>
    <g id="xtick_4">
     <g id="line2d_4">
      <g>
       <use style="stroke:#000000;stroke-width:0.8;" x="248.241011" xlink:href="#m7fbf8440a7" y="293.479494"/>
      </g>
     </g>
     <g id="text_4">
      <!-- 0.8 -->
      <defs>
       <path d="M 31.78125 34.625 
Q 24.75 34.625 20.71875 30.859375 
Q 16.703125 27.09375 16.703125 20.515625 
Q 16.703125 13.921875 20.71875 10.15625 
Q 24.75 6.390625 31.78125 6.390625 
Q 38.8125 6.390625 42.859375 10.171875 
Q 46.921875 13.96875 46.921875 20.515625 
Q 46.921875 27.09375 42.890625 30.859375 
Q 38.875 34.625 31.78125 34.625 
z
M 21.921875 38.8125 
Q 15.578125 40.375 12.03125 44.71875 
Q 8.5 49.078125 8.5 55.328125 
Q 8.5 64.0625 14.71875 69.140625 
Q 20.953125 74.21875 31.78125 74.21875 
Q 42.671875 74.21875 48.875 69.140625 
Q 55.078125 64.0625 55.078125 55.328125 
Q 55.078125 49.078125 51.53125 44.71875 
Q 48 40.375 41.703125 38.8125 
Q 48.828125 37.15625 52.796875 32.3125 
Q 56.78125 27.484375 56.78125 20.515625 
Q 56.78125 9.90625 50.3125 4.234375 
Q 43.84375 -1.421875 31.78125 -1.421875 
Q 19.734375 -1.421875 13.25 4.234375 
Q 6.78125 9.90625 6.78125 20.515625 
Q 6.78125 27.484375 10.78125 32.3125 
Q 14.796875 37.15625 21.921875 38.8125 
z
M 18.3125 54.390625 
Q 18.3125 48.734375 21.84375 45.5625 
Q 25.390625 42.390625 31.78125 42.390625 
Q 38.140625 42.390625 41.71875 45.5625 
Q 45.3125 48.734375 45.3125 54.390625 
Q 45.3125 60.0625 41.71875 63.234375 
Q 38.140625 66.40625 31.78125 66.40625 
Q 25.390625 66.40625 21.84375 63.234375 
Q 18.3125 60.0625 18.3125 54.390625 
z
" id="DejaVuSans-38"/>
      </defs>
      <g transform="translate(240.289449 308.077932)scale(0.1 -0.1)">
       <use xlink:href="#DejaVuSans-30"/>
       <use x="63.623047" xlink:href="#DejaVuSans-2e"/>
       <use x="95.410156" xlink:href="#DejaVuSans-38"/>
      </g>
     </g>
    </g>
    <g id="xtick_5">
     <g id="line2d_5">
      <g>
       <use style="stroke:#000000;stroke-width:0.8;" x="296.034022" xlink:href="#m7fbf8440a7" y="293.479494"/>
      </g>
     </g>
     <g id="text_5">
      <!-- 1.0 -->
      <defs>
       <path d="M 12.40625 8.296875 
L 28.515625 8.296875 
L 28.515625 63.921875 
L 10.984375 60.40625 
L 10.984375 69.390625 
L 28.421875 72.90625 
L 38.28125 72.90625 
L 38.28125 8.296875 
L 54.390625 8.296875 
L 54.390625 0 
L 12.40625 0 
z
" id="DejaVuSans-31"/>
      </defs>
      <g transform="translate(288.08246 308.077932)scale(0.1 -0.1)">
       <use xlink:href="#DejaVuSans-31"/>
       <use x="63.623047" xlink:href="#DejaVuSans-2e"/>
       <use x="95.410156" xlink:href="#DejaVuSans-30"/>
      </g>
     </g>
    </g>
   </g>
   <g id="matplotlib.axis_2">
    <g id="ytick_1">
     <g id="line2d_6">
      <defs>
       <path d="M 0 0 
L -3.5 0 
" id="m477d5e016e" style="stroke:#000000;stroke-width:0.8;"/>
      </defs>
      <g>
       <use style="stroke:#000000;stroke-width:0.8;" x="57.6" xlink:href="#m477d5e016e" y="246.217517"/>
      </g>
     </g>
     <g id="text_6">
      <!-- 0.2 -->
      <g transform="translate(34.696875 250.016735)scale(0.1 -0.1)">
       <use xlink:href="#DejaVuSans-30"/>
       <use x="63.623047" xlink:href="#DejaVuSans-2e"/>
       <use x="95.410156" xlink:href="#DejaVuSans-32"/>
      </g>
     </g>
    </g>
    <g id="ytick_2">
     <g id="line2d_7">
      <g>
       <use style="stroke:#000000;stroke-width:0.8;" x="57.6" xlink:href="#m477d5e016e" y="198.424506"/>
      </g>
     </g>
     <g id="text_7">
      <!-- 0.4 -->
      <g transform="translate(34.696875 202.223724)scale(0.1 -0.1)">
       <use xlink:href="#DejaVuSans-30"/>
       <use x="63.623047" xlink:href="#DejaVuSans-2e"/>
       <use x="95.410156" xlink:href="#DejaVuSans-34"/>
      </g>
     </g>
    </g>
    <g id="ytick_3">
     <g id="line2d_8">
      <g>
       <use style="stroke:#000000;stroke-width:0.8;" x="57.6" xlink:href="#m477d5e016e" y="150.631494"/>
      </g>
     </g>
     <g id="text_8">
      <!-- 0.6 -->
      <g transform="translate(34.696875 154.430713)scale(0.1 -0.1)">
       <use xlink:href="#DejaVuSans-30"/>
       <use x="63.623047" xlink:href="#DejaVuSans-2e"/>
       <use x="95.410156" xlink:href="#DejaVuSans-36"/>
      </g>
     </g>
    </g>
    <g id="ytick_4">
     <g id="line2d_9">
      <g>
       <use style="stroke:#000000;stroke-width:0.8;" x="57.6" xlink:href="#m477d5e016e" y="102.838483"/>
      </g>
     </g>
     <g id="text_9">
      <!-- 0.8 -->
      <g transform="translate(34.696875 106.637702)scale(0.1 -0.1)">
       <use xlink:href="#DejaVuSans-30"/>
       <use x="63.623047" xlink:href="#DejaVuSans-2e"/>
       <use x="95.410156" xlink:href="#DejaVuSans-38"/>
      </g>
     </g>
    </g>
   </g>
   <g id="LineCollection_1">
    <path clip-path="url(#p34f7a84fb7)" d="M 135.883218 293.479494 
L 135.620996 291.355361 
L 135.130885 289.70882 
L 134.952688 289.231227 
L 134.068818 287.699591 
L 133.642633 287.107093 
L 132.611756 286.045026 
L 130.882617 284.816853 
L 128.758483 283.813632 
L 126.634349 283.182874 
L 124.510216 282.774423 
L 121.324015 282.50943 
L 118.137814 282.497159 
L 113.889546 282.72863 
L 108.579212 283.245806 
L 99.02061 284.186553 
L 93.710275 284.510541 
L 89.462007 284.571449 
L 85.21374 284.383231 
L 82.027539 284.004986 
L 78.841338 283.339491 
L 76.717204 282.658459 
L 74.593071 281.704935 
L 72.468937 280.346942 
L 71.40687 279.454768 
L 70.344803 278.365919 
L 68.921595 276.486424 
L 67.705643 274.36229 
L 66.761218 272.238156 
L 65.680801 269.051955 
L 64.868061 265.865755 
L 64.064319 261.617487 
L 63.476571 257.369219 
L 62.826658 250.996818 
L 62.150299 241.438216 
L 61.415153 227.631346 
L 60.613398 208.514141 
L 59.88638 185.148669 
L 59.255418 157.534929 
L 58.614375 119.30052 
L 57.919659 61.948907 
L 57.942961 55.576506 
L 57.942961 55.576506 
" style="fill:none;stroke:#000080;stroke-width:1.5;"/>
   </g>
   <g id="LineCollection_2">
    <path clip-path="url(#p34f7a84fb7)" d="M 286.692416 293.479494 
L 287.595839 287.107093 
L 287.559932 283.920892 
L 287.156885 278.610558 
L 286.587826 273.300223 
L 284.715493 257.369219 
L 283.192222 247.810617 
L 282.303522 243.562349 
L 281.480875 240.376149 
L 280.382406 237.189948 
L 279.385697 235.065814 
L 278.509918 233.66458 
L 277.447851 232.482643 
L 276.385784 231.685744 
L 275.323717 231.16942 
L 274.080405 230.817546 
L 272.137517 230.578241 
L 268.951316 230.586502 
L 256.206513 230.984615 
L 239.213442 231.087047 
L 221.158305 231.277316 
L 208.413502 231.637573 
L 182.923896 232.50193 
L 175.489428 232.43183 
L 168.054959 232.103582 
L 159.558424 231.47353 
L 141.503286 230.03535 
L 134.068818 229.705737 
L 125.572283 229.560571 
L 105.393011 229.530512 
L 103.13332 229.75548 
L 101.144743 230.135616 
L 99.02061 230.820088 
L 96.896476 231.917907 
L 95.502712 232.94168 
L 94.342935 234.003747 
L 93.373049 235.065814 
L 91.801554 237.189948 
L 90.524074 239.357446 
L 89.065118 242.500283 
L 87.892167 245.686483 
L 86.937039 248.872684 
L 84.868685 256.307152 
L 84.151673 257.941749 
L 83.859338 258.431286 
L 83.04894 259.493353 
L 82.027539 260.280716 
L 80.965472 260.680875 
L 79.903405 260.747352 
L 78.841338 260.540492 
L 77.779271 260.058475 
L 76.717204 259.321578 
L 75.655138 258.296886 
L 74.202017 256.307152 
L 73.531004 255.235135 
L 72.076592 252.058885 
L 70.94506 248.872684 
L 70.027652 245.686483 
L 68.812929 240.376149 
L 67.833253 235.065814 
L 66.714412 227.631346 
L 65.672302 219.13481 
L 64.618582 208.514141 
L 63.610489 195.769338 
L 62.615389 179.838335 
L 61.629152 159.659063 
L 60.660866 134.169457 
L 59.759815 103.369517 
L 58.776606 61.948907 
L 58.803985 56.638572 
L 58.827363 55.576506 
L 58.827363 55.576506 
" style="fill:none;stroke:#0000e8;stroke-width:1.5;"/>
   </g>
   <g id="LineCollection_3">
    <path clip-path="url(#p34f7a84fb7)" d="M 290.366912 293.479494 
L 290.748462 287.107093 
L 290.608719 282.858825 
L 289.986566 273.300223 
L 288.2459 247.810617 
L 287.40699 237.189948 
L 286.525881 227.631346 
L 285.437748 218.072743 
L 284.525532 211.700342 
L 283.569147 206.390007 
L 282.576917 202.14174 
L 281.585304 198.955539 
L 280.634052 196.707484 
L 279.274993 194.707271 
L 278.509918 193.943651 
L 277.447851 193.364056 
L 276.385784 193.140466 
L 275.323717 193.167033 
L 273.199584 193.65182 
L 266.827182 195.617088 
L 263.640981 196.209937 
L 260.454781 196.53782 
L 256.206513 196.715493 
L 248.772045 196.74385 
L 214.785903 196.726908 
L 174.329405 196.831405 
L 142.565353 197.2161 
L 125.572283 197.406555 
L 120.261948 197.23127 
L 115.28572 196.831405 
L 110.703346 196.26679 
L 102.20681 195.152739 
L 99.02061 195.007884 
L 96.896476 195.11448 
L 94.772342 195.455812 
L 92.648208 196.106248 
L 90.524074 197.146801 
L 88.399941 198.655324 
L 86.922533 200.017606 
L 84.998591 202.14174 
L 82.529275 205.327941 
L 79.903405 208.754809 
L 78.841338 209.931259 
L 77.779271 210.869313 
L 76.717204 211.484885 
L 75.655138 211.692303 
L 74.593071 211.406953 
L 73.531004 210.540569 
L 72.244576 208.514141 
L 71.306127 206.390007 
L 70.002929 202.14174 
L 69.010784 197.893472 
L 67.856036 191.521071 
L 66.791276 184.086602 
L 65.696502 174.528 
L 64.620864 162.845264 
L 63.519525 147.976327 
L 62.445236 129.92119 
L 61.431941 108.679851 
L 60.337075 80.004045 
L 59.661646 58.762706 
L 59.764587 55.576506 
L 59.764587 55.576506 
" style="fill:none;stroke:#0038ff;stroke-width:1.5;"/>
   </g>
   <g id="LineCollection_4">
    <path clip-path="url(#p34f7a84fb7)" d="M 292.509175 293.479494 
L 292.618049 284.982959 
L 292.247425 276.486424 
L 290.897025 248.872684 
L 289.51415 223.383078 
L 288.504915 208.514141 
L 287.534479 196.831405 
L 286.560026 187.272803 
L 285.469813 178.776268 
L 284.416202 172.403866 
L 283.519394 168.155599 
L 282.671989 164.969398 
L 281.455456 161.783197 
L 280.634052 160.228697 
L 279.571985 158.991265 
L 278.509918 158.378141 
L 277.447851 158.252846 
L 276.170032 158.596996 
L 275.323717 158.996679 
L 273.199584 160.443179 
L 269.999962 162.845264 
L 267.889249 164.20104 
L 265.765115 165.271633 
L 263.640981 166.048117 
L 261.516848 166.569733 
L 259.392714 166.885844 
L 256.206513 167.087858 
L 251.958245 167.072077 
L 236.027242 166.738818 
L 103.268877 166.32967 
L 96.896476 166.263336 
L 93.710275 166.426972 
L 91.586141 166.693225 
L 89.462007 167.143934 
L 87.337874 167.835335 
L 85.21374 168.812938 
L 82.809617 170.279732 
L 77.779271 173.742422 
L 76.717204 174.191988 
L 75.655138 174.36438 
L 74.593071 174.154283 
L 73.531004 173.44473 
L 72.468937 172.114663 
L 71.116124 169.217665 
L 70.072235 166.031465 
L 69.024441 161.783197 
L 67.831266 155.410796 
L 66.7412 147.976327 
L 65.622823 138.417725 
L 64.613788 127.797056 
L 63.545956 113.990186 
L 62.484012 96.997115 
L 60.750682 64.073041 
L 60.655244 59.824773 
L 60.819317 55.576506 
L 60.819317 55.576506 
" style="fill:none;stroke:#0094ff;stroke-width:1.5;"/>
   </g>
   <g id="LineCollection_5">
    <path clip-path="url(#p34f7a84fb7)" d="M 294.175524 293.479494 
L 294.049708 280.734691 
L 292.532052 239.314082 
L 291.492836 214.886543 
L 290.560841 196.831405 
L 289.561825 180.900401 
L 288.576745 168.155599 
L 287.555463 157.534929 
L 286.525376 149.038394 
L 285.54781 142.665993 
L 284.4991 137.355658 
L 283.712214 134.169457 
L 282.659772 130.983257 
L 281.688356 128.859123 
L 280.634052 127.354648 
L 279.571985 126.517987 
L 278.509918 126.245511 
L 277.447851 126.432834 
L 276.385784 126.986673 
L 275.323717 127.820428 
L 273.199584 130.021408 
L 268.581868 135.231524 
L 266.827182 136.878596 
L 264.703048 138.464127 
L 262.578914 139.614161 
L 260.454781 140.374084 
L 258.330647 140.809349 
L 256.206513 140.988747 
L 254.082379 140.977013 
L 250.896178 140.725402 
L 238.151375 139.332291 
L 233.903108 139.183019 
L 227.530706 139.233682 
L 207.351435 139.618396 
L 181.861829 139.601131 
L 131.944684 139.713534 
L 90.524074 139.920454 
L 87.337874 140.262983 
L 84.151673 140.889539 
L 80.965472 141.822453 
L 77.779271 142.767793 
L 76.717204 142.930557 
L 75.655138 142.912291 
L 74.593071 142.623157 
L 73.531004 141.956448 
L 72.327302 140.541859 
L 71.183523 138.417725 
L 70.326653 136.293591 
L 69.120101 132.045323 
L 67.995632 126.734989 
L 66.801086 119.30052 
L 65.731819 110.803985 
L 64.664925 100.183316 
L 63.470935 85.314379 
L 61.871452 61.948907 
L 61.886737 58.762706 
L 62.123191 55.576506 
L 62.123191 55.576506 
" style="fill:none;stroke:#0cf4eb;stroke-width:1.5;"/>
   </g>
   <g id="LineCollection_6">
    <path clip-path="url(#p34f7a84fb7)" d="M 295.741961 293.479494 
L 295.545365 280.734691 
L 295.258864 270.114022 
L 293.927349 225.507212 
L 292.866027 196.831405 
L 291.836299 174.528 
L 290.7857 156.472862 
L 289.766287 142.665993 
L 288.77321 132.045323 
L 287.765753 123.548788 
L 286.626172 116.11432 
L 285.57142 110.803985 
L 284.467686 106.555717 
L 283.795984 104.431584 
L 282.758186 101.975694 
L 281.661209 100.183316 
L 280.634052 99.107349 
L 279.571985 98.547476 
L 278.509918 98.470464 
L 277.447851 98.81432 
L 276.385784 99.517056 
L 274.686703 101.245383 
L 273.199584 103.097355 
L 268.284577 109.741918 
L 266.456096 111.866052 
L 264.703048 113.603818 
L 262.578914 115.254491 
L 260.454781 116.426545 
L 258.257577 117.176387 
L 256.206513 117.520824 
L 254.082379 117.577006 
L 251.958245 117.403344 
L 248.772045 116.864958 
L 237.089309 114.519027 
L 232.841041 114.027591 
L 228.592773 113.771866 
L 223.282439 113.702261 
L 215.84797 113.873567 
L 189.296297 114.689977 
L 171.24116 114.926112 
L 92.648208 115.622633 
L 86.275807 115.883309 
L 77.779271 116.465882 
L 76.717204 116.381436 
L 75.553929 116.11432 
L 74.593071 115.717964 
L 73.531004 114.975814 
L 72.468937 113.812217 
L 71.312318 111.866052 
L 70.048514 108.679851 
L 69.108053 105.493651 
L 67.948575 100.183316 
L 66.88512 93.810914 
L 65.658618 84.252312 
L 64.211717 70.445442 
L 63.737336 65.135108 
L 63.562132 60.88684 
L 63.651242 58.762706 
L 63.917852 55.576506 
L 63.917852 55.576506 
" style="fill:none;stroke:#56ffa0;stroke-width:1.5;"/>
   </g>
   <g id="LineCollection_7">
    <path clip-path="url(#p34f7a84fb7)" d="M 301.250666 293.479494 
L 301.142583 287.107093 
L 300.813323 280.569574 
L 300.229055 273.300223 
L 299.031982 261.617487 
L 296.924275 243.562349 
L 296.509539 239.314082 
L 295.103456 203.203807 
L 294.066743 173.465933 
L 293.076119 151.162528 
L 292.040847 133.10739 
L 291.009292 119.30052 
L 289.87638 107.617784 
L 288.819378 99.121249 
L 287.786794 92.748848 
L 286.88796 88.50058 
L 285.944387 85.090225 
L 284.843523 82.128178 
L 283.794927 80.004045 
L 282.330735 77.879911 
L 281.350571 76.817844 
L 280.019638 75.755777 
L 279.571985 75.463651 
L 277.790739 74.69371 
L 277.447851 74.584157 
L 276.385784 74.381434 
L 275.323717 74.303005 
L 273.199584 74.485383 
L 272.137517 74.733412 
L 270.013383 75.57547 
L 268.951316 76.17099 
L 267.889249 76.874908 
L 266.665237 77.879911 
L 265.597367 78.941978 
L 263.904749 81.066112 
L 262.576401 83.190245 
L 258.330647 90.681362 
L 257.26858 91.957048 
L 256.206513 92.974253 
L 255.10298 93.810914 
L 253.020312 94.923865 
L 250.896178 95.620911 
L 248.772045 96.030747 
L 246.647911 96.235467 
L 243.46171 96.29664 
L 239.213442 96.096423 
L 233.903108 95.599734 
L 224.344506 94.43709 
L 212.66177 93.069138 
L 205.227301 92.438011 
L 197.792833 92.0495 
L 189.296297 91.851656 
L 172.303227 91.768989 
L 157.43429 91.586382 
L 141.503286 91.159153 
L 116.01368 90.217279 
L 80.965472 88.751711 
L 78.711756 88.50058 
L 76.717204 88.042389 
L 75.336451 87.438513 
L 74.593071 87.000817 
L 73.531004 86.09397 
L 72.167076 84.252312 
L 71.40687 82.922751 
L 70.250429 80.004045 
L 69.062031 75.755777 
L 67.971018 70.445442 
L 67.158602 64.757015 
L 67.070763 61.948907 
L 67.236255 59.824773 
L 67.782963 56.638572 
L 67.783598 55.576506 
L 67.783598 55.576506 
" style="fill:none;stroke:#a0ff56;stroke-width:1.5;"/>
   </g>
   <g id="LineCollection_8">
    <path clip-path="url(#p34f7a84fb7)" d="M 308.683444 293.479494 
L 308.542308 284.982959 
L 308.16287 276.486424 
L 307.434993 265.865755 
L 306.245786 252.058885 
L 304.464551 234.003747 
L 302.353953 214.886543 
L 300.259212 197.893472 
L 298.218757 183.024535 
L 296.469256 170.279732 
L 294.973538 140.541859 
L 294.080902 122.486721 
L 293.140481 107.617784 
L 292.19451 95.935048 
L 291.379627 88.50058 
L 290.747244 84.252312 
L 289.909693 80.004045 
L 289.05319 76.817844 
L 288.06852 74.13538 
L 287.006454 72.009677 
L 285.944387 70.417863 
L 284.88232 69.217074 
L 283.820253 68.285639 
L 282.20057 67.259242 
L 280.634052 66.55742 
L 278.509918 65.940952 
L 276.385784 65.596096 
L 274.261651 65.446433 
L 271.07545 65.500588 
L 267.889249 65.814668 
L 264.703048 66.339121 
L 260.454781 67.286459 
L 255.144446 68.71325 
L 248.674555 70.445442 
L 244.523777 71.283893 
L 241.337576 71.681142 
L 238.151375 71.814216 
L 234.965175 71.676611 
L 231.778974 71.262685 
L 227.958985 70.445442 
L 224.344506 69.367869 
L 220.096238 67.745902 
L 216.910037 66.299026 
L 215.84797 65.73764 
L 213.723836 64.512299 
L 212.66177 63.816426 
L 211.557081 63.010974 
L 210.365856 61.948907 
L 209.425137 60.88684 
L 208.413502 59.198836 
L 208.203484 58.762706 
L 207.608622 56.638572 
L 207.419275 55.576506 
L 207.419275 55.576506 
" style="fill:none;stroke:#ebff0c;stroke-width:1.5;"/>
   </g>
   <g id="LineCollection_9">
    <path clip-path="url(#p34f7a84fb7)" d="M 316.309037 293.479494 
L 316.186961 283.920892 
L 315.814017 273.300223 
L 315.119601 260.55542 
L 313.942988 243.562349 
L 312.317131 223.383078 
L 310.466205 203.203807 
L 308.582598 185.148669 
L 306.690934 169.217665 
L 304.825712 155.410796 
L 302.937457 143.121995 
L 301.197229 133.10739 
L 299.325799 123.548788 
L 297.453023 115.052253 
L 296.519926 110.803985 
L 293.833706 80.004045 
L 293.17931 75.755777 
L 292.316788 71.809862 
L 291.559919 69.383375 
L 290.651984 67.259242 
L 290.068587 66.197175 
L 289.130587 64.841662 
L 288.06852 63.65727 
L 287.006454 62.71308 
L 284.88232 61.243693 
L 280.479522 58.762706 
L 279.134036 57.700639 
L 278.415091 56.638572 
L 278.173567 55.576506 
L 278.173567 55.576506 
" style="fill:none;stroke:#ffab00;stroke-width:1.5;"/>
   </g>
   <g id="LineCollection_10">
    <path clip-path="url(#p34f7a84fb7)" d="M 324.076263 293.479494 
L 323.959238 281.796758 
L 323.610379 269.051955 
L 322.940954 253.120952 
L 321.816002 231.879613 
L 320.35745 208.514141 
L 318.815117 187.272803 
L 317.290221 169.217665 
L 315.726958 153.286662 
L 314.150594 139.479792 
L 312.496059 127.038708 
L 310.984086 117.176387 
L 309.306635 107.617784 
L 307.593651 99.121249 
L 305.867309 91.686781 
L 304.155784 85.314379 
L 302.502033 80.004045 
L 300.813323 75.350704 
L 299.173138 71.507509 
L 297.557097 68.321309 
L 296.565056 66.647712 
L 295.900076 64.073041 
L 295.329055 61.948907 
L 293.998543 55.576506 
L 293.998543 55.576506 
" style="fill:none;stroke:#ff5500;stroke-width:1.5;"/>
   </g>
   <g id="LineCollection_11">
    <path clip-path="url(#p34f7a84fb7)" d="M 331.939592 293.479494 
L 331.8191 277.548491 
L 331.445102 259.493353 
L 330.643797 232.94168 
L 329.56496 204.265874 
L 328.403244 178.776268 
L 327.226087 157.534929 
L 326.016804 139.479792 
L 324.807224 124.610855 
L 323.455363 110.803985 
L 321.978189 98.059182 
L 320.275094 85.314379 
L 317.966103 68.321309 
L 317.456666 63.010974 
L 317.224216 58.762706 
L 317.176542 55.576506 
L 317.176542 55.576506 
" style="fill:none;stroke:#e80000;stroke-width:1.5;"/>
   </g>
   <g id="LineCollection_12">
    <path clip-path="url(#p34f7a84fb7)" d="M 339.858453 293.479494 
L 339.741077 265.865755 
L 339.090401 206.390007 
L 338.630968 175.590067 
L 337.861884 137.355658 
L 337.2352 116.11432 
L 335.372144 60.88684 
L 335.334551 55.576506 
L 335.334551 55.576506 
" style="fill:none;stroke:#800000;stroke-width:1.5;"/>
   </g>
   <g id="patch_3">
    <path d="M 57.6 293.479494 
L 57.6 55.576506 
" style="fill:none;stroke:#000000;stroke-linecap:square;stroke-linejoin:miter;stroke-width:0.8;"/>
   </g>
   <g id="patch_4">
    <path d="M 343.296 293.479494 
L 343.296 55.576506 
" style="fill:none;stroke:#000000;stroke-linecap:square;stroke-linejoin:miter;stroke-width:0.8;"/>
   </g>
   <g id="patch_5">
    <path d="M 57.6 293.479494 
L 343.296 293.479494 
" style="fill:none;stroke:#000000;stroke-linecap:square;stroke-linejoin:miter;stroke-width:0.8;"/>
   </g>
   <g id="patch_6">
    <path d="M 57.6 55.576506 
L 343.296 55.576506 
" style="fill:none;stroke:#000000;stroke-linecap:square;stroke-linejoin:miter;stroke-width:0.8;"/>
   </g>
   <g id="text_10">
    <!-- Time:0.08230 s -->
    <defs>
     <path d="M -0.296875 72.90625 
L 61.375 72.90625 
L 61.375 64.59375 
L 35.5 64.59375 
L 35.5 0 
L 25.59375 0 
L 25.59375 64.59375 
L -0.296875 64.59375 
z
" id="DejaVuSans-54"/>
     <path d="M 9.421875 54.6875 
L 18.40625 54.6875 
L 18.40625 0 
L 9.421875 0 
z
M 9.421875 75.984375 
L 18.40625 75.984375 
L 18.40625 64.59375 
L 9.421875 64.59375 
z
" id="DejaVuSans-69"/>
     <path d="M 52 44.1875 
Q 55.375 50.25 60.0625 53.125 
Q 64.75 56 71.09375 56 
Q 79.640625 56 84.28125 50.015625 
Q 88.921875 44.046875 88.921875 33.015625 
L 88.921875 0 
L 79.890625 0 
L 79.890625 32.71875 
Q 79.890625 40.578125 77.09375 44.375 
Q 74.3125 48.1875 68.609375 48.1875 
Q 61.625 48.1875 57.5625 43.546875 
Q 53.515625 38.921875 53.515625 30.90625 
L 53.515625 0 
L 44.484375 0 
L 44.484375 32.71875 
Q 44.484375 40.625 41.703125 44.40625 
Q 38.921875 48.1875 33.109375 48.1875 
Q 26.21875 48.1875 22.15625 43.53125 
Q 18.109375 38.875 18.109375 30.90625 
L 18.109375 0 
L 9.078125 0 
L 9.078125 54.6875 
L 18.109375 54.6875 
L 18.109375 46.1875 
Q 21.1875 51.21875 25.484375 53.609375 
Q 29.78125 56 35.6875 56 
Q 41.65625 56 45.828125 52.96875 
Q 50 49.953125 52 44.1875 
z
" id="DejaVuSans-6d"/>
     <path d="M 56.203125 29.59375 
L 56.203125 25.203125 
L 14.890625 25.203125 
Q 15.484375 15.921875 20.484375 11.0625 
Q 25.484375 6.203125 34.421875 6.203125 
Q 39.59375 6.203125 44.453125 7.46875 
Q 49.3125 8.734375 54.109375 11.28125 
L 54.109375 2.78125 
Q 49.265625 0.734375 44.1875 -0.34375 
Q 39.109375 -1.421875 33.890625 -1.421875 
Q 20.796875 -1.421875 13.15625 6.1875 
Q 5.515625 13.8125 5.515625 26.8125 
Q 5.515625 40.234375 12.765625 48.109375 
Q 20.015625 56 32.328125 56 
Q 43.359375 56 49.78125 48.890625 
Q 56.203125 41.796875 56.203125 29.59375 
z
M 47.21875 32.234375 
Q 47.125 39.59375 43.09375 43.984375 
Q 39.0625 48.390625 32.421875 48.390625 
Q 24.90625 48.390625 20.390625 44.140625 
Q 15.875 39.890625 15.1875 32.171875 
z
" id="DejaVuSans-65"/>
     <path d="M 11.71875 12.40625 
L 22.015625 12.40625 
L 22.015625 0 
L 11.71875 0 
z
M 11.71875 51.703125 
L 22.015625 51.703125 
L 22.015625 39.3125 
L 11.71875 39.3125 
z
" id="DejaVuSans-3a"/>
     <path d="M 40.578125 39.3125 
Q 47.65625 37.796875 51.625 33 
Q 55.609375 28.21875 55.609375 21.1875 
Q 55.609375 10.40625 48.1875 4.484375 
Q 40.765625 -1.421875 27.09375 -1.421875 
Q 22.515625 -1.421875 17.65625 -0.515625 
Q 12.796875 0.390625 7.625 2.203125 
L 7.625 11.71875 
Q 11.71875 9.328125 16.59375 8.109375 
Q 21.484375 6.890625 26.8125 6.890625 
Q 36.078125 6.890625 40.9375 10.546875 
Q 45.796875 14.203125 45.796875 21.1875 
Q 45.796875 27.640625 41.28125 31.265625 
Q 36.765625 34.90625 28.71875 34.90625 
L 20.21875 34.90625 
L 20.21875 43.015625 
L 29.109375 43.015625 
Q 36.375 43.015625 40.234375 45.921875 
Q 44.09375 48.828125 44.09375 54.296875 
Q 44.09375 59.90625 40.109375 62.90625 
Q 36.140625 65.921875 28.71875 65.921875 
Q 24.65625 65.921875 20.015625 65.03125 
Q 15.375 64.15625 9.8125 62.3125 
L 9.8125 71.09375 
Q 15.4375 72.65625 20.34375 73.4375 
Q 25.25 74.21875 29.59375 74.21875 
Q 40.828125 74.21875 47.359375 69.109375 
Q 53.90625 64.015625 53.90625 55.328125 
Q 53.90625 49.265625 50.4375 45.09375 
Q 46.96875 40.921875 40.578125 39.3125 
z
" id="DejaVuSans-33"/>
     <path id="DejaVuSans-20"/>
     <path d="M 44.28125 53.078125 
L 44.28125 44.578125 
Q 40.484375 46.53125 36.375 47.5 
Q 32.28125 48.484375 27.875 48.484375 
Q 21.1875 48.484375 17.84375 46.4375 
Q 14.5 44.390625 14.5 40.28125 
Q 14.5 37.15625 16.890625 35.375 
Q 19.28125 33.59375 26.515625 31.984375 
L 29.59375 31.296875 
Q 39.15625 29.25 43.1875 25.515625 
Q 47.21875 21.78125 47.21875 15.09375 
Q 47.21875 7.46875 41.1875 3.015625 
Q 35.15625 -1.421875 24.609375 -1.421875 
Q 20.21875 -1.421875 15.453125 -0.5625 
Q 10.6875 0.296875 5.421875 2 
L 5.421875 11.28125 
Q 10.40625 8.6875 15.234375 7.390625 
Q 20.0625 6.109375 24.8125 6.109375 
Q 31.15625 6.109375 34.5625 8.28125 
Q 37.984375 10.453125 37.984375 14.40625 
Q 37.984375 18.0625 35.515625 20.015625 
Q 33.0625 21.96875 24.703125 23.78125 
L 21.578125 24.515625 
Q 13.234375 26.265625 9.515625 29.90625 
Q 5.8125 33.546875 5.8125 39.890625 
Q 5.8125 47.609375 11.28125 51.796875 
Q 16.75 56 26.8125 56 
Q 31.78125 56 36.171875 55.265625 
Q 40.578125 54.546875 44.28125 53.078125 
z
" id="DejaVuSans-73"/>
    </defs>
    <g transform="translate(153.717375 49.576506)scale(0.12 -0.12)">
     <use xlink:href="#DejaVuSans-54"/>
     <use x="61.037109" xlink:href="#DejaVuSans-69"/>
     <use x="88.820312" xlink:href="#DejaVuSans-6d"/>
     <use x="186.232422" xlink:href="#DejaVuSans-65"/>
     <use x="247.755859" xlink:href="#DejaVuSans-3a"/>
     <use x="281.447266" xlink:href="#DejaVuSans-30"/>
     <use x="345.070312" xlink:href="#DejaVuSans-2e"/>
     <use x="376.857422" xlink:href="#DejaVuSans-30"/>
     <use x="440.480469" xlink:href="#DejaVuSans-38"/>
     <use x="504.103516" xlink:href="#DejaVuSans-32"/>
     <use x="567.726562" xlink:href="#DejaVuSans-33"/>
     <use x="631.349609" xlink:href="#DejaVuSans-30"/>
     <use x="694.972656" xlink:href="#DejaVuSans-20"/>
     <use x="726.759766" xlink:href="#DejaVuSans-73"/>
    </g>
   </g>
  </g>
  <g id="axes_2">
   <g id="patch_7">
    <path clip-path="url(#pcffe378845)" d="M 361.152 307.584 
L 361.152 283.392 
L 361.152 65.664 
L 361.152 41.472 
L 374.4576 41.472 
L 374.4576 65.664 
L 374.4576 283.392 
L 374.4576 307.584 
z
" style="fill:#ffffff;stroke:#ffffff;stroke-linejoin:miter;stroke-width:0.01;"/>
   </g>
   <g id="matplotlib.axis_3"/>
   <g id="matplotlib.axis_4">
    <g id="ytick_5">
     <g id="line2d_10">
      <defs>
       <path d="M 0 0 
L 3.5 0 
" id="m7a46a4acb8" style="stroke:#000000;stroke-width:0.8;"/>
      </defs>
      <g>
       <use style="stroke:#000000;stroke-width:0.8;" x="374.4576" xlink:href="#m7a46a4acb8" y="307.584"/>
      </g>
     </g>
     <g id="text_11">
      <!-- 0.08 -->
      <g transform="translate(381.4576 311.383219)scale(0.1 -0.1)">
       <use xlink:href="#DejaVuSans-30"/>
       <use x="63.623047" xlink:href="#DejaVuSans-2e"/>
       <use x="95.410156" xlink:href="#DejaVuSans-30"/>
       <use x="159.033203" xlink:href="#DejaVuSans-38"/>
      </g>
     </g>
    </g>
    <g id="ytick_6">
     <g id="line2d_11">
      <g>
       <use style="stroke:#000000;stroke-width:0.8;" x="374.4576" xlink:href="#m7a46a4acb8" y="259.2"/>
      </g>
     </g>
     <g id="text_12">
      <!-- 0.24 -->
      <g transform="translate(381.4576 262.999219)scale(0.1 -0.1)">
       <use xlink:href="#DejaVuSans-30"/>
       <use x="63.623047" xlink:href="#DejaVuSans-2e"/>
       <use x="95.410156" xlink:href="#DejaVuSans-32"/>
       <use x="159.033203" xlink:href="#DejaVuSans-34"/>
      </g>
     </g>
    </g>
    <g id="ytick_7">
     <g id="line2d_12">
      <g>
       <use style="stroke:#000000;stroke-width:0.8;" x="374.4576" xlink:href="#m7a46a4acb8" y="210.816"/>
      </g>
     </g>
     <g id="text_13">
      <!-- 0.40 -->
      <g transform="translate(381.4576 214.615219)scale(0.1 -0.1)">
       <use xlink:href="#DejaVuSans-30"/>
       <use x="63.623047" xlink:href="#DejaVuSans-2e"/>
       <use x="95.410156" xlink:href="#DejaVuSans-34"/>
       <use x="159.033203" xlink:href="#DejaVuSans-30"/>
      </g>
     </g>
    </g>
    <g id="ytick_8">
     <g id="line2d_13">
      <g>
       <use style="stroke:#000000;stroke-width:0.8;" x="374.4576" xlink:href="#m7a46a4acb8" y="162.432"/>
      </g>
     </g>
     <g id="text_14">
      <!-- 0.56 -->
      <defs>
       <path d="M 10.796875 72.90625 
L 49.515625 72.90625 
L 49.515625 64.59375 
L 19.828125 64.59375 
L 19.828125 46.734375 
Q 21.96875 47.46875 24.109375 47.828125 
Q 26.265625 48.1875 28.421875 48.1875 
Q 40.625 48.1875 47.75 41.5 
Q 54.890625 34.8125 54.890625 23.390625 
Q 54.890625 11.625 47.5625 5.09375 
Q 40.234375 -1.421875 26.90625 -1.421875 
Q 22.3125 -1.421875 17.546875 -0.640625 
Q 12.796875 0.140625 7.71875 1.703125 
L 7.71875 11.625 
Q 12.109375 9.234375 16.796875 8.0625 
Q 21.484375 6.890625 26.703125 6.890625 
Q 35.15625 6.890625 40.078125 11.328125 
Q 45.015625 15.765625 45.015625 23.390625 
Q 45.015625 31 40.078125 35.4375 
Q 35.15625 39.890625 26.703125 39.890625 
Q 22.75 39.890625 18.8125 39.015625 
Q 14.890625 38.140625 10.796875 36.28125 
z
" id="DejaVuSans-35"/>
      </defs>
      <g transform="translate(381.4576 166.231219)scale(0.1 -0.1)">
       <use xlink:href="#DejaVuSans-30"/>
       <use x="63.623047" xlink:href="#DejaVuSans-2e"/>
       <use x="95.410156" xlink:href="#DejaVuSans-35"/>
       <use x="159.033203" xlink:href="#DejaVuSans-36"/>
      </g>
     </g>
    </g>
    <g id="ytick_9">
     <g id="line2d_14">
      <g>
       <use style="stroke:#000000;stroke-width:0.8;" x="374.4576" xlink:href="#m7a46a4acb8" y="114.048"/>
      </g>
     </g>
     <g id="text_15">
      <!-- 0.72 -->
      <defs>
       <path d="M 8.203125 72.90625 
L 55.078125 72.90625 
L 55.078125 68.703125 
L 28.609375 0 
L 18.3125 0 
L 43.21875 64.59375 
L 8.203125 64.59375 
z
" id="DejaVuSans-37"/>
      </defs>
      <g transform="translate(381.4576 117.847219)scale(0.1 -0.1)">
       <use xlink:href="#DejaVuSans-30"/>
       <use x="63.623047" xlink:href="#DejaVuSans-2e"/>
       <use x="95.410156" xlink:href="#DejaVuSans-37"/>
       <use x="159.033203" xlink:href="#DejaVuSans-32"/>
      </g>
     </g>
    </g>
    <g id="ytick_10">
     <g id="line2d_15">
      <g>
       <use style="stroke:#000000;stroke-width:0.8;" x="374.4576" xlink:href="#m7a46a4acb8" y="65.664"/>
      </g>
     </g>
     <g id="text_16">
      <!-- 0.88 -->
      <g transform="translate(381.4576 69.463219)scale(0.1 -0.1)">
       <use xlink:href="#DejaVuSans-30"/>
       <use x="63.623047" xlink:href="#DejaVuSans-2e"/>
       <use x="95.410156" xlink:href="#DejaVuSans-38"/>
       <use x="159.033203" xlink:href="#DejaVuSans-38"/>
      </g>
     </g>
    </g>
   </g>
   <g id="LineCollection_13">
    <path clip-path="url(#pcffe378845)" d="M 361.152 307.584 
L 374.4576 307.584 
" style="fill:none;stroke:#000080;stroke-width:1.5;"/>
    <path clip-path="url(#pcffe378845)" d="M 361.152 283.392 
L 374.4576 283.392 
" style="fill:none;stroke:#0000e8;stroke-width:1.5;"/>
    <path clip-path="url(#pcffe378845)" d="M 361.152 259.2 
L 374.4576 259.2 
" style="fill:none;stroke:#0038ff;stroke-width:1.5;"/>
    <path clip-path="url(#pcffe378845)" d="M 361.152 235.008 
L 374.4576 235.008 
" style="fill:none;stroke:#0094ff;stroke-width:1.5;"/>
    <path clip-path="url(#pcffe378845)" d="M 361.152 210.816 
L 374.4576 210.816 
" style="fill:none;stroke:#0cf4eb;stroke-width:1.5;"/>
    <path clip-path="url(#pcffe378845)" d="M 361.152 186.624 
L 374.4576 186.624 
" style="fill:none;stroke:#56ffa0;stroke-width:1.5;"/>
    <path clip-path="url(#pcffe378845)" d="M 361.152 162.432 
L 374.4576 162.432 
" style="fill:none;stroke:#a0ff56;stroke-width:1.5;"/>
    <path clip-path="url(#pcffe378845)" d="M 361.152 138.24 
L 374.4576 138.24 
" style="fill:none;stroke:#ebff0c;stroke-width:1.5;"/>
    <path clip-path="url(#pcffe378845)" d="M 361.152 114.048 
L 374.4576 114.048 
" style="fill:none;stroke:#ffab00;stroke-width:1.5;"/>
    <path clip-path="url(#pcffe378845)" d="M 361.152 89.856 
L 374.4576 89.856 
" style="fill:none;stroke:#ff5500;stroke-width:1.5;"/>
    <path clip-path="url(#pcffe378845)" d="M 361.152 65.664 
L 374.4576 65.664 
" style="fill:none;stroke:#e80000;stroke-width:1.5;"/>
    <path clip-path="url(#pcffe378845)" d="M 361.152 41.472 
L 374.4576 41.472 
" style="fill:none;stroke:#800000;stroke-width:1.5;"/>
   </g>
   <g id="patch_8">
    <path d="M 361.152 307.584 
L 361.152 283.392 
L 361.152 65.664 
L 361.152 41.472 
L 374.4576 41.472 
L 374.4576 65.664 
L 374.4576 283.392 
L 374.4576 307.584 
z
" style="fill:none;stroke:#000000;stroke-linejoin:miter;stroke-width:0.8;"/>
   </g>
  </g>
 </g>
 <defs>
  <clipPath id="p34f7a84fb7">
   <rect height="237.902989" width="285.696" x="57.6" y="55.576506"/>
  </clipPath>
  <clipPath id="pcffe378845">
   <rect height="266.112" width="13.3056" x="361.152" y="41.472"/>
  </clipPath>
 </defs>
</svg>
