<?xml version="1.0" encoding="utf-8" standalone="no"?>
<!DOCTYPE svg PUBLIC "-//W3C//DTD SVG 1.1//EN"
  "http://www.w3.org/Graphics/SVG/1.1/DTD/svg11.dtd">
<!-- Created with matplotlib (http://matplotlib.org/) -->
<svg height="345.6pt" version="1.1" viewBox="0 0 460.8 345.6" width="460.8pt" xmlns="http://www.w3.org/2000/svg" xmlns:xlink="http://www.w3.org/1999/xlink">
 <defs>
  <style type="text/css">
*{stroke-linecap:butt;stroke-linejoin:round;}
  </style>
 </defs>
 <g id="figure_1">
  <g id="patch_1">
   <path d="M 0 345.6 
L 460.8 345.6 
L 460.8 0 
L 0 0 
z
" style="fill:#ffffff;"/>
  </g>
  <g id="axes_1">
   <g id="patch_2">
    <path d="M 57.6 293.479494 
L 343.296 293.479494 
L 343.296 55.576506 
L 57.6 55.576506 
z
" style="fill:#ffffff;"/>
   </g>
   <g id="matplotlib.axis_1">
    <g id="xtick_1">
     <g id="line2d_1">
      <defs>
       <path d="M 0 0 
L 0 3.5 
" id="mda50bf6f4b" style="stroke:#000000;stroke-width:0.8;"/>
      </defs>
      <g>
       <use style="stroke:#000000;stroke-width:0.8;" x="104.861978" xlink:href="#mda50bf6f4b" y="293.479494"/>
      </g>
     </g>
     <g id="text_1">
      <!-- 0.2 -->
      <defs>
       <path d="M 31.78125 66.40625 
Q 24.171875 66.40625 20.328125 58.90625 
Q 16.5 51.421875 16.5 36.375 
Q 16.5 21.390625 20.328125 13.890625 
Q 24.171875 6.390625 31.78125 6.390625 
Q 39.453125 6.390625 43.28125 13.890625 
Q 47.125 21.390625 47.125 36.375 
Q 47.125 51.421875 43.28125 58.90625 
Q 39.453125 66.40625 31.78125 66.40625 
z
M 31.78125 74.21875 
Q 44.046875 74.21875 50.515625 64.515625 
Q 56.984375 54.828125 56.984375 36.375 
Q 56.984375 17.96875 50.515625 8.265625 
Q 44.046875 -1.421875 31.78125 -1.421875 
Q 19.53125 -1.421875 13.0625 8.265625 
Q 6.59375 17.96875 6.59375 36.375 
Q 6.59375 54.828125 13.0625 64.515625 
Q 19.53125 74.21875 31.78125 74.21875 
z
" id="DejaVuSans-30"/>
       <path d="M 10.6875 12.40625 
L 21 12.40625 
L 21 0 
L 10.6875 0 
z
" id="DejaVuSans-2e"/>
       <path d="M 19.1875 8.296875 
L 53.609375 8.296875 
L 53.609375 0 
L 7.328125 0 
L 7.328125 8.296875 
Q 12.9375 14.109375 22.625 23.890625 
Q 32.328125 33.6875 34.8125 36.53125 
Q 39.546875 41.84375 41.421875 45.53125 
Q 43.3125 49.21875 43.3125 52.78125 
Q 43.3125 58.59375 39.234375 62.25 
Q 35.15625 65.921875 28.609375 65.921875 
Q 23.96875 65.921875 18.8125 64.3125 
Q 13.671875 62.703125 7.8125 59.421875 
L 7.8125 69.390625 
Q 13.765625 71.78125 18.9375 73 
Q 24.125 74.21875 28.421875 74.21875 
Q 39.75 74.21875 46.484375 68.546875 
Q 53.21875 62.890625 53.21875 53.421875 
Q 53.21875 48.921875 51.53125 44.890625 
Q 49.859375 40.875 45.40625 35.40625 
Q 44.1875 33.984375 37.640625 27.21875 
Q 31.109375 20.453125 19.1875 8.296875 
z
" id="DejaVuSans-32"/>
      </defs>
      <g transform="translate(96.910415 308.077932)scale(0.1 -0.1)">
       <use xlink:href="#DejaVuSans-30"/>
       <use x="63.623047" xlink:href="#DejaVuSans-2e"/>
       <use x="95.410156" xlink:href="#DejaVuSans-32"/>
      </g>
     </g>
    </g>
    <g id="xtick_2">
     <g id="line2d_2">
      <g>
       <use style="stroke:#000000;stroke-width:0.8;" x="152.654989" xlink:href="#mda50bf6f4b" y="293.479494"/>
      </g>
     </g>
     <g id="text_2">
      <!-- 0.4 -->
      <defs>
       <path d="M 37.796875 64.3125 
L 12.890625 25.390625 
L 37.796875 25.390625 
z
M 35.203125 72.90625 
L 47.609375 72.90625 
L 47.609375 25.390625 
L 58.015625 25.390625 
L 58.015625 17.1875 
L 47.609375 17.1875 
L 47.609375 0 
L 37.796875 0 
L 37.796875 17.1875 
L 4.890625 17.1875 
L 4.890625 26.703125 
z
" id="DejaVuSans-34"/>
      </defs>
      <g transform="translate(144.703426 308.077932)scale(0.1 -0.1)">
       <use xlink:href="#DejaVuSans-30"/>
       <use x="63.623047" xlink:href="#DejaVuSans-2e"/>
       <use x="95.410156" xlink:href="#DejaVuSans-34"/>
      </g>
     </g>
    </g>
    <g id="xtick_3">
     <g id="line2d_3">
      <g>
       <use style="stroke:#000000;stroke-width:0.8;" x="200.448" xlink:href="#mda50bf6f4b" y="293.479494"/>
      </g>
     </g>
     <g id="text_3">
      <!-- 0.6 -->
      <defs>
       <path d="M 33.015625 40.375 
Q 26.375 40.375 22.484375 35.828125 
Q 18.609375 31.296875 18.609375 23.390625 
Q 18.609375 15.53125 22.484375 10.953125 
Q 26.375 6.390625 33.015625 6.390625 
Q 39.65625 6.390625 43.53125 10.953125 
Q 47.40625 15.53125 47.40625 23.390625 
Q 47.40625 31.296875 43.53125 35.828125 
Q 39.65625 40.375 33.015625 40.375 
z
M 52.59375 71.296875 
L 52.59375 62.3125 
Q 48.875 64.0625 45.09375 64.984375 
Q 41.3125 65.921875 37.59375 65.921875 
Q 27.828125 65.921875 22.671875 59.328125 
Q 17.53125 52.734375 16.796875 39.40625 
Q 19.671875 43.65625 24.015625 45.921875 
Q 28.375 48.1875 33.59375 48.1875 
Q 44.578125 48.1875 50.953125 41.515625 
Q 57.328125 34.859375 57.328125 23.390625 
Q 57.328125 12.15625 50.6875 5.359375 
Q 44.046875 -1.421875 33.015625 -1.421875 
Q 20.359375 -1.421875 13.671875 8.265625 
Q 6.984375 17.96875 6.984375 36.375 
Q 6.984375 53.65625 15.1875 63.9375 
Q 23.390625 74.21875 37.203125 74.21875 
Q 40.921875 74.21875 44.703125 73.484375 
Q 48.484375 72.75 52.59375 71.296875 
z
" id="DejaVuSans-36"/>
      </defs>
      <g transform="translate(192.496438 308.077932)scale(0.1 -0.1)">
       <use xlink:href="#DejaVuSans-30"/>
       <use x="63.623047" xlink:href="#DejaVuSans-2e"/>
       <use x="95.410156" xlink:href="#DejaVuSans-36"/>
      </g>
     </g>
    </g>
    <g id="xtick_4">
     <g id="line2d_4">
      <g>
       <use style="stroke:#000000;stroke-width:0.8;" x="248.241011" xlink:href="#mda50bf6f4b" y="293.479494"/>
      </g>
     </g>
     <g id="text_4">
      <!-- 0.8 -->
      <defs>
       <path d="M 31.78125 34.625 
Q 24.75 34.625 20.71875 30.859375 
Q 16.703125 27.09375 16.703125 20.515625 
Q 16.703125 13.921875 20.71875 10.15625 
Q 24.75 6.390625 31.78125 6.390625 
Q 38.8125 6.390625 42.859375 10.171875 
Q 46.921875 13.96875 46.921875 20.515625 
Q 46.921875 27.09375 42.890625 30.859375 
Q 38.875 34.625 31.78125 34.625 
z
M 21.921875 38.8125 
Q 15.578125 40.375 12.03125 44.71875 
Q 8.5 49.078125 8.5 55.328125 
Q 8.5 64.0625 14.71875 69.140625 
Q 20.953125 74.21875 31.78125 74.21875 
Q 42.671875 74.21875 48.875 69.140625 
Q 55.078125 64.0625 55.078125 55.328125 
Q 55.078125 49.078125 51.53125 44.71875 
Q 48 40.375 41.703125 38.8125 
Q 48.828125 37.15625 52.796875 32.3125 
Q 56.78125 27.484375 56.78125 20.515625 
Q 56.78125 9.90625 50.3125 4.234375 
Q 43.84375 -1.421875 31.78125 -1.421875 
Q 19.734375 -1.421875 13.25 4.234375 
Q 6.78125 9.90625 6.78125 20.515625 
Q 6.78125 27.484375 10.78125 32.3125 
Q 14.796875 37.15625 21.921875 38.8125 
z
M 18.3125 54.390625 
Q 18.3125 48.734375 21.84375 45.5625 
Q 25.390625 42.390625 31.78125 42.390625 
Q 38.140625 42.390625 41.71875 45.5625 
Q 45.3125 48.734375 45.3125 54.390625 
Q 45.3125 60.0625 41.71875 63.234375 
Q 38.140625 66.40625 31.78125 66.40625 
Q 25.390625 66.40625 21.84375 63.234375 
Q 18.3125 60.0625 18.3125 54.390625 
z
" id="DejaVuSans-38"/>
      </defs>
      <g transform="translate(240.289449 308.077932)scale(0.1 -0.1)">
       <use xlink:href="#DejaVuSans-30"/>
       <use x="63.623047" xlink:href="#DejaVuSans-2e"/>
       <use x="95.410156" xlink:href="#DejaVuSans-38"/>
      </g>
     </g>
    </g>
    <g id="xtick_5">
     <g id="line2d_5">
      <g>
       <use style="stroke:#000000;stroke-width:0.8;" x="296.034022" xlink:href="#mda50bf6f4b" y="293.479494"/>
      </g>
     </g>
     <g id="text_5">
      <!-- 1.0 -->
      <defs>
       <path d="M 12.40625 8.296875 
L 28.515625 8.296875 
L 28.515625 63.921875 
L 10.984375 60.40625 
L 10.984375 69.390625 
L 28.421875 72.90625 
L 38.28125 72.90625 
L 38.28125 8.296875 
L 54.390625 8.296875 
L 54.390625 0 
L 12.40625 0 
z
" id="DejaVuSans-31"/>
      </defs>
      <g transform="translate(288.08246 308.077932)scale(0.1 -0.1)">
       <use xlink:href="#DejaVuSans-31"/>
       <use x="63.623047" xlink:href="#DejaVuSans-2e"/>
       <use x="95.410156" xlink:href="#DejaVuSans-30"/>
      </g>
     </g>
    </g>
   </g>
   <g id="matplotlib.axis_2">
    <g id="ytick_1">
     <g id="line2d_6">
      <defs>
       <path d="M 0 0 
L -3.5 0 
" id="mff7fbb94e5" style="stroke:#000000;stroke-width:0.8;"/>
      </defs>
      <g>
       <use style="stroke:#000000;stroke-width:0.8;" x="57.6" xlink:href="#mff7fbb94e5" y="246.217517"/>
      </g>
     </g>
     <g id="text_6">
      <!-- 0.2 -->
      <g transform="translate(34.696875 250.016735)scale(0.1 -0.1)">
       <use xlink:href="#DejaVuSans-30"/>
       <use x="63.623047" xlink:href="#DejaVuSans-2e"/>
       <use x="95.410156" xlink:href="#DejaVuSans-32"/>
      </g>
     </g>
    </g>
    <g id="ytick_2">
     <g id="line2d_7">
      <g>
       <use style="stroke:#000000;stroke-width:0.8;" x="57.6" xlink:href="#mff7fbb94e5" y="198.424506"/>
      </g>
     </g>
     <g id="text_7">
      <!-- 0.4 -->
      <g transform="translate(34.696875 202.223724)scale(0.1 -0.1)">
       <use xlink:href="#DejaVuSans-30"/>
       <use x="63.623047" xlink:href="#DejaVuSans-2e"/>
       <use x="95.410156" xlink:href="#DejaVuSans-34"/>
      </g>
     </g>
    </g>
    <g id="ytick_3">
     <g id="line2d_8">
      <g>
       <use style="stroke:#000000;stroke-width:0.8;" x="57.6" xlink:href="#mff7fbb94e5" y="150.631494"/>
      </g>
     </g>
     <g id="text_8">
      <!-- 0.6 -->
      <g transform="translate(34.696875 154.430713)scale(0.1 -0.1)">
       <use xlink:href="#DejaVuSans-30"/>
       <use x="63.623047" xlink:href="#DejaVuSans-2e"/>
       <use x="95.410156" xlink:href="#DejaVuSans-36"/>
      </g>
     </g>
    </g>
    <g id="ytick_4">
     <g id="line2d_9">
      <g>
       <use style="stroke:#000000;stroke-width:0.8;" x="57.6" xlink:href="#mff7fbb94e5" y="102.838483"/>
      </g>
     </g>
     <g id="text_9">
      <!-- 0.8 -->
      <g transform="translate(34.696875 106.637702)scale(0.1 -0.1)">
       <use xlink:href="#DejaVuSans-30"/>
       <use x="63.623047" xlink:href="#DejaVuSans-2e"/>
       <use x="95.410156" xlink:href="#DejaVuSans-38"/>
      </g>
     </g>
    </g>
   </g>
   <g id="LineCollection_1">
    <path clip-path="url(#p2809d5e822)" d="M 286.771777 293.479494 
L 287.641347 287.107093 
L 287.56224 283.920892 
L 287.083913 278.610558 
L 286.543349 274.36229 
L 284.552119 259.493353 
L 282.758186 248.457338 
L 280.877001 240.376149 
L 280.223092 238.252015 
L 279.47813 236.127881 
L 278.509918 233.983827 
L 277.129152 231.879613 
L 276.153099 230.817546 
L 275.323717 230.138846 
L 274.261651 229.548387 
L 273.199584 229.16397 
L 271.07545 228.793558 
L 268.951316 228.721354 
L 264.703048 228.900213 
L 250.896178 229.647314 
L 238.151375 230.062789 
L 226.468639 230.229456 
L 214.785903 230.184213 
L 198.8549 229.867237 
L 186.110097 229.670454 
L 177.596603 229.75548 
L 169.117026 230.082733 
L 154.248089 230.7689 
L 148.937755 230.729982 
L 144.689487 230.475894 
L 140.441219 229.990008 
L 136.192952 229.269978 
L 131.944684 228.341023 
L 125.138644 226.569279 
L 118.137814 224.78801 
L 114.951613 224.184699 
L 111.765413 223.856703 
L 109.641279 223.861057 
L 107.517145 224.106648 
L 105.393011 224.659585 
L 103.268877 225.597115 
L 101.144743 227.00694 
L 99.286973 228.693413 
L 97.958543 230.164874 
L 95.834409 232.996503 
L 93.153922 237.189948 
L 89.462007 242.983129 
L 87.407236 245.686483 
L 86.275807 246.94073 
L 85.21374 247.956336 
L 84.064371 248.872684 
L 82.254086 249.934751 
L 82.027539 250.045947 
L 80.965472 250.41927 
L 79.903405 250.629293 
L 78.841338 250.669099 
L 77.779271 250.530334 
L 76.183683 249.934751 
L 75.655138 249.667949 
L 74.556646 248.872684 
L 73.465779 247.810617 
L 72.468937 246.578794 
L 71.247868 244.624416 
L 70.19014 242.500283 
L 68.944519 239.314082 
L 67.948131 236.127881 
L 66.882182 231.879613 
L 65.825966 226.569279 
L 64.821951 220.196877 
L 63.773175 211.700342 
L 62.758686 201.079673 
L 61.82306 188.33487 
L 60.995485 173.465933 
L 60.273172 156.472862 
L 59.597714 135.231524 
L 59.03054 109.741918 
L 58.438609 71.507509 
L 58.325924 57.700639 
L 58.355548 55.576506 
L 58.355548 55.576506 
" style="fill:none;stroke:#000080;stroke-width:1.5;"/>
   </g>
   <g id="LineCollection_2">
    <path clip-path="url(#p2809d5e822)" d="M 290.255632 293.479494 
L 290.647651 287.107093 
L 290.487213 282.858825 
L 289.948023 275.424357 
L 288.581984 257.369219 
L 286.546065 230.817546 
L 285.171249 215.94861 
L 284.325868 208.514141 
L 283.300885 201.079673 
L 282.376401 195.769338 
L 281.427539 191.521071 
L 280.490382 188.33487 
L 279.571985 186.017357 
L 278.409317 184.086602 
L 277.416516 183.024535 
L 276.385784 182.389689 
L 275.323717 182.094697 
L 274.261651 182.051025 
L 272.137517 182.398667 
L 264.703048 184.290848 
L 261.516848 184.770458 
L 257.028512 185.148669 
L 250.896178 185.412015 
L 229.65484 186.223974 
L 202.0411 187.346632 
L 188.23423 187.668319 
L 173.365294 187.782005 
L 152.123955 187.921751 
L 139.379152 188.280393 
L 130.882617 188.442379 
L 125.572283 188.318292 
L 121.324015 188.020818 
L 116.01368 187.390665 
L 103.268877 185.646149 
L 101.144743 185.586871 
L 99.02061 185.701151 
L 96.896476 186.047781 
L 94.772342 186.696628 
L 92.648208 187.720022 
L 90.524074 189.186679 
L 89.090325 190.459004 
L 87.087361 192.583138 
L 84.534269 195.769338 
L 80.965472 200.299061 
L 79.069331 202.14174 
L 78.841338 202.337796 
L 77.779271 202.9989 
L 76.717204 203.35208 
L 75.655138 203.348619 
L 74.593071 202.940141 
L 73.531004 202.075393 
L 72.468937 200.699581 
L 71.059211 197.893472 
L 70.228579 195.769338 
L 68.968431 191.521071 
L 67.969185 187.272803 
L 66.782681 180.900401 
L 65.683927 173.465933 
L 64.673562 164.969398 
L 63.660294 154.348729 
L 62.698078 141.603926 
L 61.772273 125.672922 
L 60.951316 106.555717 
L 60.296025 86.376446 
L 59.591387 59.824773 
L 59.694955 55.576506 
L 59.694955 55.576506 
" style="fill:none;stroke:#0000e8;stroke-width:1.5;"/>
   </g>
   <g id="LineCollection_3">
    <path clip-path="url(#p2809d5e822)" d="M 292.286689 293.479494 
L 292.468547 287.107093 
L 292.284173 281.796758 
L 287.453987 194.707271 
L 286.45703 181.962468 
L 285.533868 172.403866 
L 284.496825 163.907331 
L 283.489269 157.534929 
L 282.633988 153.286662 
L 281.433209 149.038394 
L 280.621452 146.91426 
L 279.571985 145.117851 
L 278.509918 144.087481 
L 277.447851 143.672475 
L 276.372727 143.728059 
L 275.323717 144.110636 
L 274.170171 144.790126 
L 271.35347 146.91426 
L 268.439606 149.038394 
L 266.668018 150.100461 
L 264.359168 151.162528 
L 262.578914 151.762445 
L 260.454781 152.248228 
L 258.330647 152.545178 
L 255.144446 152.741124 
L 250.896178 152.748598 
L 239.213442 152.646437 
L 230.716907 152.890332 
L 198.8549 154.087036 
L 183.985963 154.338233 
L 164.868758 154.427263 
L 108.579212 154.332254 
L 97.958543 154.110433 
L 94.772342 154.263655 
L 92.648208 154.527779 
L 90.524074 154.981383 
L 88.399941 155.680831 
L 86.275807 156.680074 
L 84.151673 158.006839 
L 81.979906 159.659063 
L 78.841338 162.191069 
L 77.779271 162.906754 
L 76.717204 163.446322 
L 75.655138 163.727831 
L 74.593071 163.669184 
L 73.531004 163.181574 
L 72.215861 161.783197 
L 71.40687 160.544702 
L 70.127678 157.534929 
L 69.123018 154.348729 
L 67.882195 149.038394 
L 66.914116 143.728059 
L 65.850182 136.293591 
L 64.790576 126.734989 
L 63.792872 115.052253 
L 62.76415 99.121249 
L 61.6233 75.755777 
L 61.039188 60.88684 
L 61.130843 57.700639 
L 61.244596 55.576506 
L 61.244596 55.576506 
" style="fill:none;stroke:#0038ff;stroke-width:1.5;"/>
   </g>
   <g id="LineCollection_4">
    <path clip-path="url(#p2809d5e822)" d="M 293.84548 293.479494 
L 293.836182 283.920892 
L 293.296432 270.114022 
L 291.912643 235.065814 
L 290.105322 191.521071 
L 288.839254 168.155599 
L 287.723622 152.224595 
L 286.673587 140.541859 
L 285.557296 130.983257 
L 284.597443 124.610855 
L 283.5533 119.30052 
L 282.404274 115.052253 
L 281.656989 112.928119 
L 280.520883 110.803985 
L 279.571985 109.71061 
L 278.509918 109.185136 
L 277.447851 109.231306 
L 276.373589 109.741918 
L 275.103511 110.803985 
L 274.091949 111.866052 
L 271.496835 115.052253 
L 268.87929 118.238454 
L 266.827182 120.391914 
L 264.703048 122.176829 
L 262.578914 123.498688 
L 260.454781 124.394901 
L 258.330647 124.929074 
L 256.206513 125.172721 
L 254.082379 125.196633 
L 250.896178 124.961296 
L 236.027242 123.316638 
L 229.65484 123.075738 
L 221.158305 123.020834 
L 211.599703 123.162091 
L 203.103167 123.507721 
L 194.606632 124.087238 
L 164.868758 126.349783 
L 148.937755 127.176857 
L 120.261948 128.391183 
L 103.268877 128.955462 
L 93.710275 129.292239 
L 89.462007 129.690179 
L 86.275807 130.241876 
L 83.089606 131.092158 
L 77.779271 132.847514 
L 76.717204 133.048584 
L 75.655138 133.08179 
L 74.593071 132.864418 
L 73.273731 132.045323 
L 72.29295 130.983257 
L 71.40687 129.600889 
L 70.207001 126.734989 
L 68.986195 122.486721 
L 68.065784 118.238454 
L 66.876208 110.803985 
L 65.847472 102.30745 
L 64.769382 90.624714 
L 63.407352 71.507509 
L 62.902377 63.010974 
L 62.915461 59.824773 
L 63.260527 55.576506 
L 63.260527 55.576506 
" style="fill:none;stroke:#0094ff;stroke-width:1.5;"/>
   </g>
   <g id="LineCollection_5">
    <path clip-path="url(#p2809d5e822)" d="M 295.222038 293.479494 
L 295.094084 280.734691 
L 294.21695 252.058885 
L 291.889331 180.900401 
L 290.836592 156.472862 
L 289.781307 137.355658 
L 288.72056 122.486721 
L 287.656536 110.803985 
L 286.545034 101.245383 
L 285.58038 94.872981 
L 284.754327 90.624714 
L 283.628983 86.376446 
L 282.458454 83.190245 
L 281.419078 81.066112 
L 280.634052 79.767289 
L 279.07191 77.879911 
L 277.869687 76.817844 
L 277.447851 76.503005 
L 276.149471 75.755777 
L 275.323717 75.407809 
L 273.199584 74.867475 
L 271.07545 74.765268 
L 268.951316 75.05824 
L 266.62139 75.755777 
L 264.481828 76.817844 
L 262.578914 78.198377 
L 261.516848 79.197131 
L 260.454781 80.477363 
L 260.032155 81.066112 
L 259.392714 82.188162 
L 258.570583 84.252312 
L 258.065575 86.376446 
L 257.126702 91.686781 
L 256.385873 93.810914 
L 255.839865 94.872981 
L 255.141266 95.935048 
L 254.082379 97.15413 
L 253.020312 98.116569 
L 250.896178 99.541458 
L 248.772045 100.593266 
L 246.647911 101.413632 
L 243.46171 102.355972 
L 240.275509 103.058346 
L 236.027242 103.737204 
L 231.778974 104.171484 
L 227.530706 104.390848 
L 223.282439 104.412124 
L 217.972104 104.191208 
L 212.66177 103.740051 
L 206.289368 102.978044 
L 187.172164 100.513289 
L 181.861829 100.105005 
L 176.551494 99.903935 
L 171.24116 99.902598 
L 164.868758 100.116889 
L 155.310156 100.691436 
L 137.255019 101.789971 
L 123.448149 102.358284 
L 93.710275 103.470126 
L 86.275807 104.015795 
L 80.965472 104.405385 
L 78.841338 104.357887 
L 77.779271 104.206683 
L 76.717204 103.915607 
L 75.575925 103.369517 
L 74.277544 102.30745 
L 73.378888 101.245383 
L 72.169147 99.121249 
L 71.276387 96.997115 
L 70.027754 92.748848 
L 69.093888 88.50058 
L 67.906356 81.066112 
L 66.890161 72.569576 
L 66.275254 65.135108 
L 66.260018 61.948907 
L 66.463765 59.824773 
L 66.954123 56.638572 
L 66.987118 55.576506 
L 66.987118 55.576506 
" style="fill:none;stroke:#0cf4eb;stroke-width:1.5;"/>
   </g>
   <g id="LineCollection_6">
    <path clip-path="url(#p2809d5e822)" d="M 298.468801 293.479494 
L 298.358712 287.107093 
L 298.056247 281.796758 
L 297.364762 274.36229 
L 296.506707 265.865755 
L 295.281376 232.94168 
L 293.713144 175.590067 
L 292.743183 147.976327 
L 291.841008 127.797056 
L 290.81288 109.741918 
L 289.874424 96.997115 
L 289.105088 89.562647 
L 288.274515 84.252312 
L 287.577887 81.066112 
L 286.645407 77.879911 
L 285.826758 75.755777 
L 284.749898 73.631643 
L 283.266276 71.507509 
L 282.287423 70.445442 
L 281.042115 69.383375 
L 279.571985 68.437949 
L 278.509918 67.93027 
L 276.385784 67.198196 
L 274.261651 66.78825 
L 272.137517 66.592321 
L 270.013383 66.570675 
L 266.827182 66.798628 
L 263.640981 67.27707 
L 260.454781 67.992458 
L 257.26858 68.908068 
L 254.082379 70.015288 
L 250.411613 71.507509 
L 245.585844 73.802676 
L 239.213442 77.185486 
L 232.841041 80.526279 
L 228.592773 82.432857 
L 225.406572 83.585384 
L 222.220372 84.455798 
L 219.034171 85.032626 
L 215.84797 85.326404 
L 212.66177 85.356714 
L 209.475569 85.154365 
L 206.289368 84.753565 
L 202.0411 83.977562 
L 196.730766 82.71984 
L 189.296297 80.683014 
L 176.551494 77.162251 
L 155.310156 71.63493 
L 153.186022 70.936687 
L 149.999822 69.730833 
L 147.875688 68.729335 
L 146.813621 68.141819 
L 145.483093 67.259242 
L 144.29052 66.197175 
L 143.46014 65.135108 
L 142.940515 64.073041 
L 142.683846 63.010974 
L 142.642103 61.948907 
L 142.76752 60.88684 
L 143.317907 58.762706 
L 143.889041 56.638572 
L 144.018967 55.576506 
L 144.018967 55.576506 
" style="fill:none;stroke:#56ffa0;stroke-width:1.5;"/>
   </g>
   <g id="LineCollection_7">
    <path clip-path="url(#p2809d5e822)" d="M 305.128817 293.479494 
L 304.997554 286.045026 
L 304.637501 278.610558 
L 303.915181 269.051955 
L 302.614346 255.245086 
L 299.635895 226.569279 
L 296.458915 195.769338 
L 295.131279 158.596996 
L 294.198984 129.92119 
L 293.253046 107.617784 
L 292.463366 93.810914 
L 291.923273 87.438513 
L 291.254721 81.931446 
L 290.523194 77.879911 
L 289.729029 74.69371 
L 289.039792 72.569576 
L 288.06852 70.293242 
L 286.924218 68.321309 
L 285.944387 67.047631 
L 284.88232 65.970444 
L 283.820253 65.117849 
L 281.696119 63.887963 
L 279.435998 63.010974 
L 277.447851 62.461952 
L 274.261651 61.871437 
L 270.013383 61.378608 
L 260.454781 60.533769 
L 258.330647 60.128116 
L 257.187117 59.824773 
L 255.573116 58.762706 
L 255.274607 57.700639 
L 255.650728 56.638572 
L 256.462029 55.576506 
L 256.462029 55.576506 
" style="fill:none;stroke:#a0ff56;stroke-width:1.5;"/>
   </g>
   <g id="LineCollection_8">
    <path clip-path="url(#p2809d5e822)" d="M 311.95539 293.479494 
L 311.833127 284.982959 
L 311.454325 275.424357 
L 310.737007 263.741621 
L 309.43669 246.74855 
L 306.904275 217.010677 
L 304.260022 188.33487 
L 302.191513 168.155599 
L 300.232793 151.162528 
L 298.434992 137.355658 
L 296.448466 122.486721 
L 294.278855 84.252312 
L 293.729622 78.941978 
L 293.104508 74.69371 
L 292.316788 70.933824 
L 291.535828 68.321309 
L 290.655875 66.197175 
L 290.089888 65.135108 
L 289.130587 63.71802 
L 288.06852 62.511619 
L 287.006454 61.544009 
L 284.559309 59.824773 
L 281.354871 57.700639 
L 280.343083 56.638572 
L 279.845257 55.576506 
L 279.845257 55.576506 
" style="fill:none;stroke:#ebff0c;stroke-width:1.5;"/>
   </g>
   <g id="LineCollection_9">
    <path clip-path="url(#p2809d5e822)" d="M 318.910837 293.479494 
L 318.781367 282.858825 
L 318.396602 271.176089 
L 317.654933 256.307152 
L 316.285532 234.003747 
L 314.036175 201.079673 
L 312.016657 174.528 
L 310.264558 154.348729 
L 308.674415 138.417725 
L 307.083556 124.610855 
L 305.520269 112.928119 
L 303.999524 103.20676 
L 302.666987 95.935048 
L 301.290744 89.562647 
L 299.923448 84.252312 
L 298.621225 80.004045 
L 297.474663 76.817844 
L 296.565056 74.61196 
L 295.833132 70.445442 
L 295.249 67.259242 
L 294.613229 64.073041 
L 294.029463 61.948907 
L 292.015126 55.576506 
L 292.015126 55.576506 
" style="fill:none;stroke:#ffab00;stroke-width:1.5;"/>
   </g>
   <g id="LineCollection_10">
    <path clip-path="url(#p2809d5e822)" d="M 325.958974 293.479494 
L 325.837557 280.734691 
L 325.458938 265.865755 
L 324.73356 246.74855 
L 323.314201 215.94861 
L 321.493983 180.900401 
L 320.020518 156.472862 
L 318.660707 137.355658 
L 317.30951 121.424654 
L 316.013904 108.679851 
L 314.722622 98.059182 
L 313.340022 88.50058 
L 311.717743 78.941978 
L 308.926631 63.010974 
L 308.508958 58.762706 
L 308.419925 55.576506 
L 308.419925 55.576506 
" style="fill:none;stroke:#ff5500;stroke-width:1.5;"/>
   </g>
   <g id="LineCollection_11">
    <path clip-path="url(#p2809d5e822)" d="M 333.069346 293.479494 
L 332.94493 276.486424 
L 332.548131 254.183019 
L 331.71147 222.321011 
L 330.330586 177.714201 
L 329.209537 147.976327 
L 328.159227 125.672922 
L 327.155194 108.679851 
L 326.06409 93.810914 
L 323.835734 65.135108 
L 323.618443 58.762706 
L 323.593716 55.576506 
L 323.593716 55.576506 
" style="fill:none;stroke:#e80000;stroke-width:1.5;"/>
   </g>
   <g id="LineCollection_12">
    <path clip-path="url(#p2809d5e822)" d="M 340.218151 293.479494 
L 340.118746 263.741621 
L 339.935504 238.252015 
L 339.154126 162.845264 
L 338.473346 118.238454 
L 337.921666 93.810914 
L 337.247016 64.073041 
L 337.197449 55.576506 
L 337.197449 55.576506 
" style="fill:none;stroke:#800000;stroke-width:1.5;"/>
   </g>
   <g id="patch_3">
    <path d="M 57.6 293.479494 
L 57.6 55.576506 
" style="fill:none;stroke:#000000;stroke-linecap:square;stroke-linejoin:miter;stroke-width:0.8;"/>
   </g>
   <g id="patch_4">
    <path d="M 343.296 293.479494 
L 343.296 55.576506 
" style="fill:none;stroke:#000000;stroke-linecap:square;stroke-linejoin:miter;stroke-width:0.8;"/>
   </g>
   <g id="patch_5">
    <path d="M 57.6 293.479494 
L 343.296 293.479494 
" style="fill:none;stroke:#000000;stroke-linecap:square;stroke-linejoin:miter;stroke-width:0.8;"/>
   </g>
   <g id="patch_6">
    <path d="M 57.6 55.576506 
L 343.296 55.576506 
" style="fill:none;stroke:#000000;stroke-linecap:square;stroke-linejoin:miter;stroke-width:0.8;"/>
   </g>
   <g id="text_10">
    <!-- Time:0.02963 s -->
    <defs>
     <path d="M -0.296875 72.90625 
L 61.375 72.90625 
L 61.375 64.59375 
L 35.5 64.59375 
L 35.5 0 
L 25.59375 0 
L 25.59375 64.59375 
L -0.296875 64.59375 
z
" id="DejaVuSans-54"/>
     <path d="M 9.421875 54.6875 
L 18.40625 54.6875 
L 18.40625 0 
L 9.421875 0 
z
M 9.421875 75.984375 
L 18.40625 75.984375 
L 18.40625 64.59375 
L 9.421875 64.59375 
z
" id="DejaVuSans-69"/>
     <path d="M 52 44.1875 
Q 55.375 50.25 60.0625 53.125 
Q 64.75 56 71.09375 56 
Q 79.640625 56 84.28125 50.015625 
Q 88.921875 44.046875 88.921875 33.015625 
L 88.921875 0 
L 79.890625 0 
L 79.890625 32.71875 
Q 79.890625 40.578125 77.09375 44.375 
Q 74.3125 48.1875 68.609375 48.1875 
Q 61.625 48.1875 57.5625 43.546875 
Q 53.515625 38.921875 53.515625 30.90625 
L 53.515625 0 
L 44.484375 0 
L 44.484375 32.71875 
Q 44.484375 40.625 41.703125 44.40625 
Q 38.921875 48.1875 33.109375 48.1875 
Q 26.21875 48.1875 22.15625 43.53125 
Q 18.109375 38.875 18.109375 30.90625 
L 18.109375 0 
L 9.078125 0 
L 9.078125 54.6875 
L 18.109375 54.6875 
L 18.109375 46.1875 
Q 21.1875 51.21875 25.484375 53.609375 
Q 29.78125 56 35.6875 56 
Q 41.65625 56 45.828125 52.96875 
Q 50 49.953125 52 44.1875 
z
" id="DejaVuSans-6d"/>
     <path d="M 56.203125 29.59375 
L 56.203125 25.203125 
L 14.890625 25.203125 
Q 15.484375 15.921875 20.484375 11.0625 
Q 25.484375 6.203125 34.421875 6.203125 
Q 39.59375 6.203125 44.453125 7.46875 
Q 49.3125 8.734375 54.109375 11.28125 
L 54.109375 2.78125 
Q 49.265625 0.734375 44.1875 -0.34375 
Q 39.109375 -1.421875 33.890625 -1.421875 
Q 20.796875 -1.421875 13.15625 6.1875 
Q 5.515625 13.8125 5.515625 26.8125 
Q 5.515625 40.234375 12.765625 48.109375 
Q 20.015625 56 32.328125 56 
Q 43.359375 56 49.78125 48.890625 
Q 56.203125 41.796875 56.203125 29.59375 
z
M 47.21875 32.234375 
Q 47.125 39.59375 43.09375 43.984375 
Q 39.0625 48.390625 32.421875 48.390625 
Q 24.90625 48.390625 20.390625 44.140625 
Q 15.875 39.890625 15.1875 32.171875 
z
" id="DejaVuSans-65"/>
     <path d="M 11.71875 12.40625 
L 22.015625 12.40625 
L 22.015625 0 
L 11.71875 0 
z
M 11.71875 51.703125 
L 22.015625 51.703125 
L 22.015625 39.3125 
L 11.71875 39.3125 
z
" id="DejaVuSans-3a"/>
     <path d="M 10.984375 1.515625 
L 10.984375 10.5 
Q 14.703125 8.734375 18.5 7.8125 
Q 22.3125 6.890625 25.984375 6.890625 
Q 35.75 6.890625 40.890625 13.453125 
Q 46.046875 20.015625 46.78125 33.40625 
Q 43.953125 29.203125 39.59375 26.953125 
Q 35.25 24.703125 29.984375 24.703125 
Q 19.046875 24.703125 12.671875 31.3125 
Q 6.296875 37.9375 6.296875 49.421875 
Q 6.296875 60.640625 12.9375 67.421875 
Q 19.578125 74.21875 30.609375 74.21875 
Q 43.265625 74.21875 49.921875 64.515625 
Q 56.59375 54.828125 56.59375 36.375 
Q 56.59375 19.140625 48.40625 8.859375 
Q 40.234375 -1.421875 26.421875 -1.421875 
Q 22.703125 -1.421875 18.890625 -0.6875 
Q 15.09375 0.046875 10.984375 1.515625 
z
M 30.609375 32.421875 
Q 37.25 32.421875 41.125 36.953125 
Q 45.015625 41.5 45.015625 49.421875 
Q 45.015625 57.28125 41.125 61.84375 
Q 37.25 66.40625 30.609375 66.40625 
Q 23.96875 66.40625 20.09375 61.84375 
Q 16.21875 57.28125 16.21875 49.421875 
Q 16.21875 41.5 20.09375 36.953125 
Q 23.96875 32.421875 30.609375 32.421875 
z
" id="DejaVuSans-39"/>
     <path d="M 40.578125 39.3125 
Q 47.65625 37.796875 51.625 33 
Q 55.609375 28.21875 55.609375 21.1875 
Q 55.609375 10.40625 48.1875 4.484375 
Q 40.765625 -1.421875 27.09375 -1.421875 
Q 22.515625 -1.421875 17.65625 -0.515625 
Q 12.796875 0.390625 7.625 2.203125 
L 7.625 11.71875 
Q 11.71875 9.328125 16.59375 8.109375 
Q 21.484375 6.890625 26.8125 6.890625 
Q 36.078125 6.890625 40.9375 10.546875 
Q 45.796875 14.203125 45.796875 21.1875 
Q 45.796875 27.640625 41.28125 31.265625 
Q 36.765625 34.90625 28.71875 34.90625 
L 20.21875 34.90625 
L 20.21875 43.015625 
L 29.109375 43.015625 
Q 36.375 43.015625 40.234375 45.921875 
Q 44.09375 48.828125 44.09375 54.296875 
Q 44.09375 59.90625 40.109375 62.90625 
Q 36.140625 65.921875 28.71875 65.921875 
Q 24.65625 65.921875 20.015625 65.03125 
Q 15.375 64.15625 9.8125 62.3125 
L 9.8125 71.09375 
Q 15.4375 72.65625 20.34375 73.4375 
Q 25.25 74.21875 29.59375 74.21875 
Q 40.828125 74.21875 47.359375 69.109375 
Q 53.90625 64.015625 53.90625 55.328125 
Q 53.90625 49.265625 50.4375 45.09375 
Q 46.96875 40.921875 40.578125 39.3125 
z
" id="DejaVuSans-33"/>
     <path id="DejaVuSans-20"/>
     <path d="M 44.28125 53.078125 
L 44.28125 44.578125 
Q 40.484375 46.53125 36.375 47.5 
Q 32.28125 48.484375 27.875 48.484375 
Q 21.1875 48.484375 17.84375 46.4375 
Q 14.5 44.390625 14.5 40.28125 
Q 14.5 37.15625 16.890625 35.375 
Q 19.28125 33.59375 26.515625 31.984375 
L 29.59375 31.296875 
Q 39.15625 29.25 43.1875 25.515625 
Q 47.21875 21.78125 47.21875 15.09375 
Q 47.21875 7.46875 41.1875 3.015625 
Q 35.15625 -1.421875 24.609375 -1.421875 
Q 20.21875 -1.421875 15.453125 -0.5625 
Q 10.6875 0.296875 5.421875 2 
L 5.421875 11.28125 
Q 10.40625 8.6875 15.234375 7.390625 
Q 20.0625 6.109375 24.8125 6.109375 
Q 31.15625 6.109375 34.5625 8.28125 
Q 37.984375 10.453125 37.984375 14.40625 
Q 37.984375 18.0625 35.515625 20.015625 
Q 33.0625 21.96875 24.703125 23.78125 
L 21.578125 24.515625 
Q 13.234375 26.265625 9.515625 29.90625 
Q 5.8125 33.546875 5.8125 39.890625 
Q 5.8125 47.609375 11.28125 51.796875 
Q 16.75 56 26.8125 56 
Q 31.78125 56 36.171875 55.265625 
Q 40.578125 54.546875 44.28125 53.078125 
z
" id="DejaVuSans-73"/>
    </defs>
    <g transform="translate(153.717375 49.576506)scale(0.12 -0.12)">
     <use xlink:href="#DejaVuSans-54"/>
     <use x="61.037109" xlink:href="#DejaVuSans-69"/>
     <use x="88.820312" xlink:href="#DejaVuSans-6d"/>
     <use x="186.232422" xlink:href="#DejaVuSans-65"/>
     <use x="247.755859" xlink:href="#DejaVuSans-3a"/>
     <use x="281.447266" xlink:href="#DejaVuSans-30"/>
     <use x="345.070312" xlink:href="#DejaVuSans-2e"/>
     <use x="376.857422" xlink:href="#DejaVuSans-30"/>
     <use x="440.480469" xlink:href="#DejaVuSans-32"/>
     <use x="504.103516" xlink:href="#DejaVuSans-39"/>
     <use x="567.726562" xlink:href="#DejaVuSans-36"/>
     <use x="631.349609" xlink:href="#DejaVuSans-33"/>
     <use x="694.972656" xlink:href="#DejaVuSans-20"/>
     <use x="726.759766" xlink:href="#DejaVuSans-73"/>
    </g>
   </g>
  </g>
  <g id="axes_2">
   <g id="patch_7">
    <path clip-path="url(#p87567fc17e)" d="M 361.152 307.584 
L 361.152 283.392 
L 361.152 65.664 
L 361.152 41.472 
L 374.4576 41.472 
L 374.4576 65.664 
L 374.4576 283.392 
L 374.4576 307.584 
z
" style="fill:#ffffff;stroke:#ffffff;stroke-linejoin:miter;stroke-width:0.01;"/>
   </g>
   <g id="matplotlib.axis_3"/>
   <g id="matplotlib.axis_4">
    <g id="ytick_5">
     <g id="line2d_10">
      <defs>
       <path d="M 0 0 
L 3.5 0 
" id="m72a46bf2e3" style="stroke:#000000;stroke-width:0.8;"/>
      </defs>
      <g>
       <use style="stroke:#000000;stroke-width:0.8;" x="374.4576" xlink:href="#m72a46bf2e3" y="307.584"/>
      </g>
     </g>
     <g id="text_11">
      <!-- 0.08 -->
      <g transform="translate(381.4576 311.383219)scale(0.1 -0.1)">
       <use xlink:href="#DejaVuSans-30"/>
       <use x="63.623047" xlink:href="#DejaVuSans-2e"/>
       <use x="95.410156" xlink:href="#DejaVuSans-30"/>
       <use x="159.033203" xlink:href="#DejaVuSans-38"/>
      </g>
     </g>
    </g>
    <g id="ytick_6">
     <g id="line2d_11">
      <g>
       <use style="stroke:#000000;stroke-width:0.8;" x="374.4576" xlink:href="#m72a46bf2e3" y="259.2"/>
      </g>
     </g>
     <g id="text_12">
      <!-- 0.24 -->
      <g transform="translate(381.4576 262.999219)scale(0.1 -0.1)">
       <use xlink:href="#DejaVuSans-30"/>
       <use x="63.623047" xlink:href="#DejaVuSans-2e"/>
       <use x="95.410156" xlink:href="#DejaVuSans-32"/>
       <use x="159.033203" xlink:href="#DejaVuSans-34"/>
      </g>
     </g>
    </g>
    <g id="ytick_7">
     <g id="line2d_12">
      <g>
       <use style="stroke:#000000;stroke-width:0.8;" x="374.4576" xlink:href="#m72a46bf2e3" y="210.816"/>
      </g>
     </g>
     <g id="text_13">
      <!-- 0.40 -->
      <g transform="translate(381.4576 214.615219)scale(0.1 -0.1)">
       <use xlink:href="#DejaVuSans-30"/>
       <use x="63.623047" xlink:href="#DejaVuSans-2e"/>
       <use x="95.410156" xlink:href="#DejaVuSans-34"/>
       <use x="159.033203" xlink:href="#DejaVuSans-30"/>
      </g>
     </g>
    </g>
    <g id="ytick_8">
     <g id="line2d_13">
      <g>
       <use style="stroke:#000000;stroke-width:0.8;" x="374.4576" xlink:href="#m72a46bf2e3" y="162.432"/>
      </g>
     </g>
     <g id="text_14">
      <!-- 0.56 -->
      <defs>
       <path d="M 10.796875 72.90625 
L 49.515625 72.90625 
L 49.515625 64.59375 
L 19.828125 64.59375 
L 19.828125 46.734375 
Q 21.96875 47.46875 24.109375 47.828125 
Q 26.265625 48.1875 28.421875 48.1875 
Q 40.625 48.1875 47.75 41.5 
Q 54.890625 34.8125 54.890625 23.390625 
Q 54.890625 11.625 47.5625 5.09375 
Q 40.234375 -1.421875 26.90625 -1.421875 
Q 22.3125 -1.421875 17.546875 -0.640625 
Q 12.796875 0.140625 7.71875 1.703125 
L 7.71875 11.625 
Q 12.109375 9.234375 16.796875 8.0625 
Q 21.484375 6.890625 26.703125 6.890625 
Q 35.15625 6.890625 40.078125 11.328125 
Q 45.015625 15.765625 45.015625 23.390625 
Q 45.015625 31 40.078125 35.4375 
Q 35.15625 39.890625 26.703125 39.890625 
Q 22.75 39.890625 18.8125 39.015625 
Q 14.890625 38.140625 10.796875 36.28125 
z
" id="DejaVuSans-35"/>
      </defs>
      <g transform="translate(381.4576 166.231219)scale(0.1 -0.1)">
       <use xlink:href="#DejaVuSans-30"/>
       <use x="63.623047" xlink:href="#DejaVuSans-2e"/>
       <use x="95.410156" xlink:href="#DejaVuSans-35"/>
       <use x="159.033203" xlink:href="#DejaVuSans-36"/>
      </g>
     </g>
    </g>
    <g id="ytick_9">
     <g id="line2d_14">
      <g>
       <use style="stroke:#000000;stroke-width:0.8;" x="374.4576" xlink:href="#m72a46bf2e3" y="114.048"/>
      </g>
     </g>
     <g id="text_15">
      <!-- 0.72 -->
      <defs>
       <path d="M 8.203125 72.90625 
L 55.078125 72.90625 
L 55.078125 68.703125 
L 28.609375 0 
L 18.3125 0 
L 43.21875 64.59375 
L 8.203125 64.59375 
z
" id="DejaVuSans-37"/>
      </defs>
      <g transform="translate(381.4576 117.847219)scale(0.1 -0.1)">
       <use xlink:href="#DejaVuSans-30"/>
       <use x="63.623047" xlink:href="#DejaVuSans-2e"/>
       <use x="95.410156" xlink:href="#DejaVuSans-37"/>
       <use x="159.033203" xlink:href="#DejaVuSans-32"/>
      </g>
     </g>
    </g>
    <g id="ytick_10">
     <g id="line2d_15">
      <g>
       <use style="stroke:#000000;stroke-width:0.8;" x="374.4576" xlink:href="#m72a46bf2e3" y="65.664"/>
      </g>
     </g>
     <g id="text_16">
      <!-- 0.88 -->
      <g transform="translate(381.4576 69.463219)scale(0.1 -0.1)">
       <use xlink:href="#DejaVuSans-30"/>
       <use x="63.623047" xlink:href="#DejaVuSans-2e"/>
       <use x="95.410156" xlink:href="#DejaVuSans-38"/>
       <use x="159.033203" xlink:href="#DejaVuSans-38"/>
      </g>
     </g>
    </g>
   </g>
   <g id="LineCollection_13">
    <path clip-path="url(#p87567fc17e)" d="M 361.152 307.584 
L 374.4576 307.584 
" style="fill:none;stroke:#000080;stroke-width:1.5;"/>
    <path clip-path="url(#p87567fc17e)" d="M 361.152 283.392 
L 374.4576 283.392 
" style="fill:none;stroke:#0000e8;stroke-width:1.5;"/>
    <path clip-path="url(#p87567fc17e)" d="M 361.152 259.2 
L 374.4576 259.2 
" style="fill:none;stroke:#0038ff;stroke-width:1.5;"/>
    <path clip-path="url(#p87567fc17e)" d="M 361.152 235.008 
L 374.4576 235.008 
" style="fill:none;stroke:#0094ff;stroke-width:1.5;"/>
    <path clip-path="url(#p87567fc17e)" d="M 361.152 210.816 
L 374.4576 210.816 
" style="fill:none;stroke:#0cf4eb;stroke-width:1.5;"/>
    <path clip-path="url(#p87567fc17e)" d="M 361.152 186.624 
L 374.4576 186.624 
" style="fill:none;stroke:#56ffa0;stroke-width:1.5;"/>
    <path clip-path="url(#p87567fc17e)" d="M 361.152 162.432 
L 374.4576 162.432 
" style="fill:none;stroke:#a0ff56;stroke-width:1.5;"/>
    <path clip-path="url(#p87567fc17e)" d="M 361.152 138.24 
L 374.4576 138.24 
" style="fill:none;stroke:#ebff0c;stroke-width:1.5;"/>
    <path clip-path="url(#p87567fc17e)" d="M 361.152 114.048 
L 374.4576 114.048 
" style="fill:none;stroke:#ffab00;stroke-width:1.5;"/>
    <path clip-path="url(#p87567fc17e)" d="M 361.152 89.856 
L 374.4576 89.856 
" style="fill:none;stroke:#ff5500;stroke-width:1.5;"/>
    <path clip-path="url(#p87567fc17e)" d="M 361.152 65.664 
L 374.4576 65.664 
" style="fill:none;stroke:#e80000;stroke-width:1.5;"/>
    <path clip-path="url(#p87567fc17e)" d="M 361.152 41.472 
L 374.4576 41.472 
" style="fill:none;stroke:#800000;stroke-width:1.5;"/>
   </g>
   <g id="patch_8">
    <path d="M 361.152 307.584 
L 361.152 283.392 
L 361.152 65.664 
L 361.152 41.472 
L 374.4576 41.472 
L 374.4576 65.664 
L 374.4576 283.392 
L 374.4576 307.584 
z
" style="fill:none;stroke:#000000;stroke-linejoin:miter;stroke-width:0.8;"/>
   </g>
  </g>
 </g>
 <defs>
  <clipPath id="p2809d5e822">
   <rect height="237.902989" width="285.696" x="57.6" y="55.576506"/>
  </clipPath>
  <clipPath id="p87567fc17e">
   <rect height="266.112" width="13.3056" x="361.152" y="41.472"/>
  </clipPath>
 </defs>
</svg>
