<?xml version="1.0" encoding="utf-8" standalone="no"?>
<!DOCTYPE svg PUBLIC "-//W3C//DTD SVG 1.1//EN"
  "http://www.w3.org/Graphics/SVG/1.1/DTD/svg11.dtd">
<!-- Created with matplotlib (http://matplotlib.org/) -->
<svg height="345.6pt" version="1.1" viewBox="0 0 460.8 345.6" width="460.8pt" xmlns="http://www.w3.org/2000/svg" xmlns:xlink="http://www.w3.org/1999/xlink">
 <defs>
  <style type="text/css">
*{stroke-linecap:butt;stroke-linejoin:round;}
  </style>
 </defs>
 <g id="figure_1">
  <g id="patch_1">
   <path d="M 0 345.6 
L 460.8 345.6 
L 460.8 0 
L 0 0 
z
" style="fill:#ffffff;"/>
  </g>
  <g id="axes_1">
   <g id="patch_2">
    <path d="M 57.6 293.479494 
L 343.296 293.479494 
L 343.296 55.576506 
L 57.6 55.576506 
z
" style="fill:#ffffff;"/>
   </g>
   <g id="matplotlib.axis_1">
    <g id="xtick_1">
     <g id="line2d_1">
      <defs>
       <path d="M 0 0 
L 0 3.5 
" id="m1c9ebd11cf" style="stroke:#000000;stroke-width:0.8;"/>
      </defs>
      <g>
       <use style="stroke:#000000;stroke-width:0.8;" x="104.861978" xlink:href="#m1c9ebd11cf" y="293.479494"/>
      </g>
     </g>
     <g id="text_1">
      <!-- 0.2 -->
      <defs>
       <path d="M 31.78125 66.40625 
Q 24.171875 66.40625 20.328125 58.90625 
Q 16.5 51.421875 16.5 36.375 
Q 16.5 21.390625 20.328125 13.890625 
Q 24.171875 6.390625 31.78125 6.390625 
Q 39.453125 6.390625 43.28125 13.890625 
Q 47.125 21.390625 47.125 36.375 
Q 47.125 51.421875 43.28125 58.90625 
Q 39.453125 66.40625 31.78125 66.40625 
z
M 31.78125 74.21875 
Q 44.046875 74.21875 50.515625 64.515625 
Q 56.984375 54.828125 56.984375 36.375 
Q 56.984375 17.96875 50.515625 8.265625 
Q 44.046875 -1.421875 31.78125 -1.421875 
Q 19.53125 -1.421875 13.0625 8.265625 
Q 6.59375 17.96875 6.59375 36.375 
Q 6.59375 54.828125 13.0625 64.515625 
Q 19.53125 74.21875 31.78125 74.21875 
z
" id="DejaVuSans-30"/>
       <path d="M 10.6875 12.40625 
L 21 12.40625 
L 21 0 
L 10.6875 0 
z
" id="DejaVuSans-2e"/>
       <path d="M 19.1875 8.296875 
L 53.609375 8.296875 
L 53.609375 0 
L 7.328125 0 
L 7.328125 8.296875 
Q 12.9375 14.109375 22.625 23.890625 
Q 32.328125 33.6875 34.8125 36.53125 
Q 39.546875 41.84375 41.421875 45.53125 
Q 43.3125 49.21875 43.3125 52.78125 
Q 43.3125 58.59375 39.234375 62.25 
Q 35.15625 65.921875 28.609375 65.921875 
Q 23.96875 65.921875 18.8125 64.3125 
Q 13.671875 62.703125 7.8125 59.421875 
L 7.8125 69.390625 
Q 13.765625 71.78125 18.9375 73 
Q 24.125 74.21875 28.421875 74.21875 
Q 39.75 74.21875 46.484375 68.546875 
Q 53.21875 62.890625 53.21875 53.421875 
Q 53.21875 48.921875 51.53125 44.890625 
Q 49.859375 40.875 45.40625 35.40625 
Q 44.1875 33.984375 37.640625 27.21875 
Q 31.109375 20.453125 19.1875 8.296875 
z
" id="DejaVuSans-32"/>
      </defs>
      <g transform="translate(96.910415 308.077932)scale(0.1 -0.1)">
       <use xlink:href="#DejaVuSans-30"/>
       <use x="63.623047" xlink:href="#DejaVuSans-2e"/>
       <use x="95.410156" xlink:href="#DejaVuSans-32"/>
      </g>
     </g>
    </g>
    <g id="xtick_2">
     <g id="line2d_2">
      <g>
       <use style="stroke:#000000;stroke-width:0.8;" x="152.654989" xlink:href="#m1c9ebd11cf" y="293.479494"/>
      </g>
     </g>
     <g id="text_2">
      <!-- 0.4 -->
      <defs>
       <path d="M 37.796875 64.3125 
L 12.890625 25.390625 
L 37.796875 25.390625 
z
M 35.203125 72.90625 
L 47.609375 72.90625 
L 47.609375 25.390625 
L 58.015625 25.390625 
L 58.015625 17.1875 
L 47.609375 17.1875 
L 47.609375 0 
L 37.796875 0 
L 37.796875 17.1875 
L 4.890625 17.1875 
L 4.890625 26.703125 
z
" id="DejaVuSans-34"/>
      </defs>
      <g transform="translate(144.703426 308.077932)scale(0.1 -0.1)">
       <use xlink:href="#DejaVuSans-30"/>
       <use x="63.623047" xlink:href="#DejaVuSans-2e"/>
       <use x="95.410156" xlink:href="#DejaVuSans-34"/>
      </g>
     </g>
    </g>
    <g id="xtick_3">
     <g id="line2d_3">
      <g>
       <use style="stroke:#000000;stroke-width:0.8;" x="200.448" xlink:href="#m1c9ebd11cf" y="293.479494"/>
      </g>
     </g>
     <g id="text_3">
      <!-- 0.6 -->
      <defs>
       <path d="M 33.015625 40.375 
Q 26.375 40.375 22.484375 35.828125 
Q 18.609375 31.296875 18.609375 23.390625 
Q 18.609375 15.53125 22.484375 10.953125 
Q 26.375 6.390625 33.015625 6.390625 
Q 39.65625 6.390625 43.53125 10.953125 
Q 47.40625 15.53125 47.40625 23.390625 
Q 47.40625 31.296875 43.53125 35.828125 
Q 39.65625 40.375 33.015625 40.375 
z
M 52.59375 71.296875 
L 52.59375 62.3125 
Q 48.875 64.0625 45.09375 64.984375 
Q 41.3125 65.921875 37.59375 65.921875 
Q 27.828125 65.921875 22.671875 59.328125 
Q 17.53125 52.734375 16.796875 39.40625 
Q 19.671875 43.65625 24.015625 45.921875 
Q 28.375 48.1875 33.59375 48.1875 
Q 44.578125 48.1875 50.953125 41.515625 
Q 57.328125 34.859375 57.328125 23.390625 
Q 57.328125 12.15625 50.6875 5.359375 
Q 44.046875 -1.421875 33.015625 -1.421875 
Q 20.359375 -1.421875 13.671875 8.265625 
Q 6.984375 17.96875 6.984375 36.375 
Q 6.984375 53.65625 15.1875 63.9375 
Q 23.390625 74.21875 37.203125 74.21875 
Q 40.921875 74.21875 44.703125 73.484375 
Q 48.484375 72.75 52.59375 71.296875 
z
" id="DejaVuSans-36"/>
      </defs>
      <g transform="translate(192.496438 308.077932)scale(0.1 -0.1)">
       <use xlink:href="#DejaVuSans-30"/>
       <use x="63.623047" xlink:href="#DejaVuSans-2e"/>
       <use x="95.410156" xlink:href="#DejaVuSans-36"/>
      </g>
     </g>
    </g>
    <g id="xtick_4">
     <g id="line2d_4">
      <g>
       <use style="stroke:#000000;stroke-width:0.8;" x="248.241011" xlink:href="#m1c9ebd11cf" y="293.479494"/>
      </g>
     </g>
     <g id="text_4">
      <!-- 0.8 -->
      <defs>
       <path d="M 31.78125 34.625 
Q 24.75 34.625 20.71875 30.859375 
Q 16.703125 27.09375 16.703125 20.515625 
Q 16.703125 13.921875 20.71875 10.15625 
Q 24.75 6.390625 31.78125 6.390625 
Q 38.8125 6.390625 42.859375 10.171875 
Q 46.921875 13.96875 46.921875 20.515625 
Q 46.921875 27.09375 42.890625 30.859375 
Q 38.875 34.625 31.78125 34.625 
z
M 21.921875 38.8125 
Q 15.578125 40.375 12.03125 44.71875 
Q 8.5 49.078125 8.5 55.328125 
Q 8.5 64.0625 14.71875 69.140625 
Q 20.953125 74.21875 31.78125 74.21875 
Q 42.671875 74.21875 48.875 69.140625 
Q 55.078125 64.0625 55.078125 55.328125 
Q 55.078125 49.078125 51.53125 44.71875 
Q 48 40.375 41.703125 38.8125 
Q 48.828125 37.15625 52.796875 32.3125 
Q 56.78125 27.484375 56.78125 20.515625 
Q 56.78125 9.90625 50.3125 4.234375 
Q 43.84375 -1.421875 31.78125 -1.421875 
Q 19.734375 -1.421875 13.25 4.234375 
Q 6.78125 9.90625 6.78125 20.515625 
Q 6.78125 27.484375 10.78125 32.3125 
Q 14.796875 37.15625 21.921875 38.8125 
z
M 18.3125 54.390625 
Q 18.3125 48.734375 21.84375 45.5625 
Q 25.390625 42.390625 31.78125 42.390625 
Q 38.140625 42.390625 41.71875 45.5625 
Q 45.3125 48.734375 45.3125 54.390625 
Q 45.3125 60.0625 41.71875 63.234375 
Q 38.140625 66.40625 31.78125 66.40625 
Q 25.390625 66.40625 21.84375 63.234375 
Q 18.3125 60.0625 18.3125 54.390625 
z
" id="DejaVuSans-38"/>
      </defs>
      <g transform="translate(240.289449 308.077932)scale(0.1 -0.1)">
       <use xlink:href="#DejaVuSans-30"/>
       <use x="63.623047" xlink:href="#DejaVuSans-2e"/>
       <use x="95.410156" xlink:href="#DejaVuSans-38"/>
      </g>
     </g>
    </g>
    <g id="xtick_5">
     <g id="line2d_5">
      <g>
       <use style="stroke:#000000;stroke-width:0.8;" x="296.034022" xlink:href="#m1c9ebd11cf" y="293.479494"/>
      </g>
     </g>
     <g id="text_5">
      <!-- 1.0 -->
      <defs>
       <path d="M 12.40625 8.296875 
L 28.515625 8.296875 
L 28.515625 63.921875 
L 10.984375 60.40625 
L 10.984375 69.390625 
L 28.421875 72.90625 
L 38.28125 72.90625 
L 38.28125 8.296875 
L 54.390625 8.296875 
L 54.390625 0 
L 12.40625 0 
z
" id="DejaVuSans-31"/>
      </defs>
      <g transform="translate(288.08246 308.077932)scale(0.1 -0.1)">
       <use xlink:href="#DejaVuSans-31"/>
       <use x="63.623047" xlink:href="#DejaVuSans-2e"/>
       <use x="95.410156" xlink:href="#DejaVuSans-30"/>
      </g>
     </g>
    </g>
   </g>
   <g id="matplotlib.axis_2">
    <g id="ytick_1">
     <g id="line2d_6">
      <defs>
       <path d="M 0 0 
L -3.5 0 
" id="m53ab2a3249" style="stroke:#000000;stroke-width:0.8;"/>
      </defs>
      <g>
       <use style="stroke:#000000;stroke-width:0.8;" x="57.6" xlink:href="#m53ab2a3249" y="246.217517"/>
      </g>
     </g>
     <g id="text_6">
      <!-- 0.2 -->
      <g transform="translate(34.696875 250.016735)scale(0.1 -0.1)">
       <use xlink:href="#DejaVuSans-30"/>
       <use x="63.623047" xlink:href="#DejaVuSans-2e"/>
       <use x="95.410156" xlink:href="#DejaVuSans-32"/>
      </g>
     </g>
    </g>
    <g id="ytick_2">
     <g id="line2d_7">
      <g>
       <use style="stroke:#000000;stroke-width:0.8;" x="57.6" xlink:href="#m53ab2a3249" y="198.424506"/>
      </g>
     </g>
     <g id="text_7">
      <!-- 0.4 -->
      <g transform="translate(34.696875 202.223724)scale(0.1 -0.1)">
       <use xlink:href="#DejaVuSans-30"/>
       <use x="63.623047" xlink:href="#DejaVuSans-2e"/>
       <use x="95.410156" xlink:href="#DejaVuSans-34"/>
      </g>
     </g>
    </g>
    <g id="ytick_3">
     <g id="line2d_8">
      <g>
       <use style="stroke:#000000;stroke-width:0.8;" x="57.6" xlink:href="#m53ab2a3249" y="150.631494"/>
      </g>
     </g>
     <g id="text_8">
      <!-- 0.6 -->
      <g transform="translate(34.696875 154.430713)scale(0.1 -0.1)">
       <use xlink:href="#DejaVuSans-30"/>
       <use x="63.623047" xlink:href="#DejaVuSans-2e"/>
       <use x="95.410156" xlink:href="#DejaVuSans-36"/>
      </g>
     </g>
    </g>
    <g id="ytick_4">
     <g id="line2d_9">
      <g>
       <use style="stroke:#000000;stroke-width:0.8;" x="57.6" xlink:href="#m53ab2a3249" y="102.838483"/>
      </g>
     </g>
     <g id="text_9">
      <!-- 0.8 -->
      <g transform="translate(34.696875 106.637702)scale(0.1 -0.1)">
       <use xlink:href="#DejaVuSans-30"/>
       <use x="63.623047" xlink:href="#DejaVuSans-2e"/>
       <use x="95.410156" xlink:href="#DejaVuSans-38"/>
      </g>
     </g>
    </g>
   </g>
   <g id="LineCollection_1">
    <path clip-path="url(#pd5f7afc0fa)" d="M 158.759233 293.479494 
L 158.730879 292.417428 
L 158.496357 291.008088 
L 158.310201 290.293294 
L 157.883249 289.231227 
L 157.292773 288.16916 
L 156.372223 286.931397 
L 155.310156 285.788858 
L 154.248089 284.82178 
L 152.123955 283.240597 
L 151.061888 282.560861 
L 148.937755 281.381797 
L 146.813621 280.392933 
L 144.689487 279.566856 
L 141.452668 278.610558 
L 138.317086 278.015253 
L 135.130885 277.679234 
L 131.944684 277.609324 
L 128.758483 277.773838 
L 124.510216 278.271011 
L 120.261948 278.997415 
L 111.765413 280.740269 
L 105.393011 282.011556 
L 100.082677 282.86721 
L 95.834409 283.38581 
L 91.586141 283.686064 
L 87.337874 283.732775 
L 84.151673 283.551533 
L 80.965472 283.113755 
L 78.841338 282.629099 
L 76.386076 281.796758 
L 74.593071 280.944903 
L 73.531004 280.299576 
L 72.468937 279.526609 
L 71.40687 278.590191 
L 70.344803 277.44336 
L 68.89984 275.424357 
L 67.745843 273.300223 
L 66.839791 271.176089 
L 65.79482 267.989888 
L 65.000612 264.803688 
L 64.216093 260.55542 
L 63.628924 256.307152 
L 62.910335 249.196685 
L 62.280305 240.376149 
L 61.511798 226.569279 
L 60.67899 207.452074 
L 59.960685 185.148669 
L 59.305179 157.534929 
L 58.660184 120.362587 
L 57.969574 65.135108 
L 57.963233 55.576506 
L 57.963233 55.576506 
" style="fill:none;stroke:#000080;stroke-width:1.5;"/>
   </g>
   <g id="LineCollection_2">
    <path clip-path="url(#pd5f7afc0fa)" d="M 287.086771 293.479494 
L 287.412303 291.355361 
L 287.765516 289.231227 
L 287.935536 287.107093 
L 287.880674 283.920892 
L 287.443129 278.610558 
L 286.331721 267.989888 
L 285.230262 258.431286 
L 284.375026 252.058885 
L 283.341746 245.686483 
L 282.48808 241.438216 
L 281.369591 237.189948 
L 280.212791 234.003747 
L 279.571985 232.583447 
L 278.430646 230.817546 
L 277.447851 229.746733 
L 276.385784 228.974419 
L 275.323717 228.479324 
L 274.261651 228.181884 
L 272.137517 227.947672 
L 268.951316 228.000212 
L 258.330647 228.421553 
L 246.647911 228.531936 
L 215.84797 228.755734 
L 203.103167 229.109531 
L 178.675628 229.89544 
L 171.24116 229.847954 
L 163.806691 229.575258 
L 154.248089 228.982896 
L 139.379152 228.043347 
L 128.614838 227.631346 
L 117.075747 227.156391 
L 104.330944 226.466767 
L 102.20681 226.615178 
L 100.082677 227.003905 
L 97.958543 227.725772 
L 96.163061 228.693413 
L 94.772342 229.690826 
L 93.54062 230.817546 
L 91.698554 232.94168 
L 90.524074 234.615455 
L 89.011467 237.189948 
L 87.44139 240.376149 
L 86.096028 243.562349 
L 82.696237 252.058885 
L 82.027539 253.301469 
L 80.965472 254.69205 
L 79.903405 255.495617 
L 78.841338 255.81829 
L 77.779271 255.735918 
L 76.66348 255.245086 
L 75.400085 254.183019 
L 74.48237 253.120952 
L 73.183231 250.996818 
L 72.178796 248.872684 
L 71.009038 245.686483 
L 70.068653 242.500283 
L 68.831505 237.189948 
L 67.834527 231.879613 
L 66.69962 224.445145 
L 65.648912 215.94861 
L 64.592522 205.327941 
L 63.584347 192.583138 
L 62.588667 176.652134 
L 61.600467 156.472862 
L 60.630198 130.983257 
L 59.724134 99.945403 
L 58.805095 58.762706 
L 58.870464 55.576506 
L 58.870464 55.576506 
" style="fill:none;stroke:#0000e8;stroke-width:1.5;"/>
   </g>
   <g id="LineCollection_3">
    <path clip-path="url(#pd5f7afc0fa)" d="M 290.524551 293.479494 
L 290.896391 287.107093 
L 290.750549 282.858825 
L 289.990501 271.176089 
L 286.885771 228.693413 
L 285.48961 215.94861 
L 284.424104 208.514141 
L 283.448037 203.203807 
L 282.428891 198.955539 
L 281.395937 195.769338 
L 280.450265 193.645204 
L 279.571985 192.222644 
L 278.509918 191.146355 
L 277.447851 190.56403 
L 276.385784 190.345887 
L 274.945236 190.459004 
L 273.199584 190.904448 
L 266.827182 192.982029 
L 263.640981 193.609346 
L 260.454781 193.957531 
L 256.206513 194.145539 
L 248.772045 194.171271 
L 219.034171 194.140083 
L 161.682558 194.245271 
L 139.379152 194.511854 
L 124.510216 194.688409 
L 119.199881 194.513751 
L 113.889546 194.084127 
L 107.517145 193.289311 
L 102.20681 192.672454 
L 99.02061 192.531358 
L 96.896476 192.627219 
L 94.772342 192.945432 
L 92.648208 193.555634 
L 90.524074 194.538715 
L 88.670245 195.769338 
L 87.337874 196.872001 
L 85.21374 199.051705 
L 82.707733 202.14174 
L 79.903405 205.708928 
L 78.16209 207.452074 
L 77.779271 207.785233 
L 76.717204 208.393409 
L 75.655138 208.60104 
L 74.593071 208.322001 
L 73.519723 207.452074 
L 72.468937 205.949503 
L 71.25231 203.203807 
L 70.222537 200.017606 
L 68.963677 194.707271 
L 67.810027 188.33487 
L 66.745871 180.900401 
L 65.650389 171.341799 
L 64.573169 159.659063 
L 63.540451 145.852193 
L 62.509119 128.859123 
L 61.477123 107.617784 
L 60.368621 78.941978 
L 59.724134 58.739774 
L 59.836395 55.576506 
L 59.836395 55.576506 
" style="fill:none;stroke:#0038ff;stroke-width:1.5;"/>
   </g>
   <g id="LineCollection_4">
    <path clip-path="url(#pd5f7afc0fa)" d="M 292.613213 293.479494 
L 292.714144 284.982959 
L 292.298655 275.424357 
L 291.121318 250.996818 
L 289.532471 221.258944 
L 288.533531 206.390007 
L 287.578839 194.707271 
L 286.504426 184.086602 
L 285.565527 176.652134 
L 284.5512 170.279732 
L 283.438175 164.969398 
L 282.567739 161.783197 
L 281.696119 159.336674 
L 280.634052 157.309921 
L 279.571985 156.06971 
L 278.509918 155.460651 
L 277.184503 155.410796 
L 276.385784 155.604578 
L 274.80596 156.472862 
L 273.199584 157.630099 
L 268.951316 160.858532 
L 266.827182 162.130435 
L 264.703048 163.091399 
L 262.578914 163.764324 
L 260.454781 164.197057 
L 258.330647 164.443068 
L 255.144446 164.571718 
L 249.834112 164.470346 
L 239.213442 164.197708 
L 226.468639 164.195445 
L 202.0411 164.152159 
L 122.386082 163.954758 
L 108.579212 163.889597 
L 95.834409 163.748453 
L 92.648208 163.979959 
L 90.524074 164.31174 
L 88.026896 164.969398 
L 86.275807 165.63113 
L 84.151673 166.704063 
L 81.86547 168.155599 
L 78.754718 170.279732 
L 77.779271 170.836898 
L 76.717204 171.265164 
L 75.655138 171.425706 
L 74.593071 171.213579 
L 73.341238 170.279732 
L 72.468937 169.205565 
L 71.383037 167.093532 
L 70.255868 163.907331 
L 68.931859 158.596996 
L 67.915413 153.286662 
L 66.79454 145.852193 
L 65.652933 136.293591 
L 64.629002 125.672922 
L 63.552324 111.866052 
L 62.487285 94.872981 
L 60.768473 61.948907 
L 60.786201 58.125974 
L 60.930565 55.576506 
L 60.930565 55.576506 
" style="fill:none;stroke:#0094ff;stroke-width:1.5;"/>
   </g>
   <g id="LineCollection_5">
    <path clip-path="url(#pd5f7afc0fa)" d="M 294.25826 293.479494 
L 294.128955 280.734691 
L 292.623889 239.314082 
L 291.557311 213.824476 
L 290.586374 194.707271 
L 289.6007 178.776268 
L 288.631412 166.031465 
L 287.629376 155.410796 
L 286.623138 146.91426 
L 285.675875 140.541859 
L 284.669135 135.231524 
L 283.605959 130.983257 
L 282.507856 127.797056 
L 281.45263 125.672922 
L 280.634052 124.510458 
L 279.571985 123.679224 
L 278.509918 123.412982 
L 277.447851 123.608219 
L 276.385784 124.172612 
L 274.663925 125.672922 
L 273.199584 127.253326 
L 268.951316 132.200254 
L 266.827182 134.284161 
L 264.703048 135.92894 
L 262.578914 137.126732 
L 260.454781 137.921764 
L 258.330647 138.378302 
L 256.206513 138.567178 
L 254.082379 138.553788 
L 250.896178 138.282782 
L 237.089309 136.662902 
L 232.841041 136.526748 
L 226.468639 136.602434 
L 207.351435 137.044076 
L 188.23423 137.087263 
L 141.503286 137.212257 
L 90.524074 137.489789 
L 87.337874 137.810257 
L 84.060488 138.417725 
L 80.965472 139.269873 
L 77.779271 140.153056 
L 76.717204 140.299915 
L 75.655138 140.272525 
L 74.593071 139.983147 
L 73.531004 139.324605 
L 72.468937 138.174147 
L 71.366941 136.293591 
L 70.130981 133.10739 
L 68.958903 128.859123 
L 67.86086 123.548788 
L 66.833914 117.176387 
L 65.754936 108.679851 
L 64.591025 96.997115 
L 63.486588 83.190245 
L 62.034123 61.948907 
L 62.056778 58.762706 
L 62.290626 55.576506 
L 62.290626 55.576506 
" style="fill:none;stroke:#0cf4eb;stroke-width:1.5;"/>
   </g>
   <g id="LineCollection_6">
    <path clip-path="url(#pd5f7afc0fa)" d="M 295.848679 293.479494 
L 295.690968 281.796758 
L 295.003663 258.431286 
L 293.725309 217.010677 
L 292.709289 190.459004 
L 291.701129 169.217665 
L 290.759039 153.286662 
L 289.733335 139.479792 
L 288.729548 128.859123 
L 287.707747 120.362587 
L 286.742309 113.990186 
L 285.726413 108.679851 
L 284.680857 104.431584 
L 283.654657 101.245383 
L 282.758186 99.095365 
L 281.431119 96.997115 
L 280.334142 95.935048 
L 279.571985 95.477632 
L 278.509918 95.327428 
L 277.447851 95.61383 
L 276.385784 96.289404 
L 275.323717 97.297471 
L 273.855535 99.121249 
L 271.633855 102.30745 
L 268.654755 106.555717 
L 266.827182 108.842679 
L 264.703048 111.051394 
L 262.578914 112.751317 
L 260.454781 113.957662 
L 258.330647 114.718234 
L 256.206513 115.100176 
L 254.082379 115.179366 
L 251.958245 115.032167 
L 248.772045 114.544664 
L 237.089309 112.384406 
L 232.469858 111.866052 
L 227.530706 111.555687 
L 221.158305 111.427588 
L 212.66177 111.532487 
L 192.482498 112.118323 
L 175.489428 112.477674 
L 155.310156 112.646638 
L 111.765413 112.97446 
L 90.524074 113.324919 
L 84.151673 113.663818 
L 78.841338 114.024761 
L 76.717204 113.906291 
L 75.655138 113.660074 
L 74.207792 112.928119 
L 73.531004 112.44209 
L 72.189528 110.803985 
L 71.40687 109.518836 
L 70.193315 106.555717 
L 68.974978 102.30745 
L 67.854606 96.997115 
L 66.820116 90.624714 
L 65.613407 81.066112 
L 64.27762 68.321309 
L 63.852459 63.010974 
L 63.841386 59.824773 
L 64.022078 57.700639 
L 64.230058 55.576506 
L 64.230058 55.576506 
" style="fill:none;stroke:#56ffa0;stroke-width:1.5;"/>
   </g>
   <g id="LineCollection_7">
    <path clip-path="url(#pd5f7afc0fa)" d="M 301.534225 293.479494 
L 301.388843 286.045026 
L 301.040396 279.672625 
L 300.324631 271.176089 
L 298.984536 258.431286 
L 296.725871 239.314082 
L 296.530531 237.189948 
L 295.08656 200.017606 
L 294.049643 170.279732 
L 293.056447 147.976327 
L 292.084906 130.983257 
L 291.065328 117.176387 
L 289.953303 105.493651 
L 288.915226 96.997115 
L 287.88159 90.624714 
L 286.958639 86.376446 
L 285.944387 82.918648 
L 284.770189 80.004045 
L 283.60347 77.879911 
L 282.758186 76.666047 
L 281.696119 75.483935 
L 280.634052 74.572321 
L 279.054859 73.631643 
L 278.509918 73.381652 
L 277.447851 73.028764 
L 275.323717 72.680213 
L 273.199584 72.752665 
L 271.07545 73.182616 
L 268.951316 73.939625 
L 266.827182 75.049844 
L 265.734418 75.755777 
L 263.640981 77.486557 
L 262.21054 78.941978 
L 260.454781 81.161528 
L 258.436039 84.252312 
L 257.116158 86.376446 
L 255.618337 88.50058 
L 254.708229 89.562647 
L 253.599312 90.624714 
L 251.958245 91.815998 
L 249.834112 92.8541 
L 247.709978 93.509577 
L 245.585844 93.914319 
L 242.399643 94.195999 
L 239.213442 94.227502 
L 234.965175 94.021282 
L 229.65484 93.513128 
L 221.158305 92.41201 
L 208.413502 90.73925 
L 200.979033 90.017354 
L 193.544565 89.55203 
L 185.04803 89.273826 
L 168.054959 89.040761 
L 153.186022 88.720538 
L 138.317086 88.164906 
L 118.137814 87.15824 
L 94.772342 85.762685 
L 82.027539 84.858083 
L 78.841338 84.433756 
L 76.717204 83.863546 
L 75.329587 83.190245 
L 74.593071 82.717157 
L 73.531004 81.74436 
L 72.282869 80.004045 
L 71.219645 77.879911 
L 70.098701 74.69371 
L 69.037477 70.445442 
L 68.220669 65.604774 
L 68.081476 63.010974 
L 68.220669 60.474862 
L 68.905747 56.638572 
L 68.880181 55.576506 
L 68.880181 55.576506 
" style="fill:none;stroke:#a0ff56;stroke-width:1.5;"/>
   </g>
   <g id="LineCollection_8">
    <path clip-path="url(#pd5f7afc0fa)" d="M 308.918015 293.479494 
L 308.778458 284.982959 
L 308.403508 276.486424 
L 307.684589 265.865755 
L 306.50924 252.058885 
L 304.748199 234.003747 
L 302.667197 214.886543 
L 300.474926 196.831405 
L 298.312557 180.900401 
L 296.505841 168.155599 
L 294.910917 136.293591 
L 293.998091 118.238454 
L 293.03497 103.369517 
L 292.138883 92.748848 
L 291.396941 86.376446 
L 290.716824 82.128178 
L 290.056085 78.941978 
L 289.130587 75.628231 
L 288.06852 72.90795 
L 287.006454 70.926306 
L 285.897021 69.383375 
L 284.88232 68.308889 
L 283.557661 67.259242 
L 281.667657 66.197175 
L 279.571985 65.443872 
L 277.447851 64.966974 
L 275.323717 64.698729 
L 272.137517 64.573619 
L 268.951316 64.694679 
L 264.703048 65.142182 
L 260.454781 65.792078 
L 249.834112 67.594417 
L 246.647911 67.912436 
L 243.46171 68.001849 
L 241.337576 67.893665 
L 239.213442 67.630308 
L 237.089309 67.195854 
L 234.119415 66.197175 
L 232.026073 65.135108 
L 230.495285 64.073041 
L 229.34542 63.010974 
L 228.488555 61.948907 
L 227.865021 60.88684 
L 227.43324 59.824773 
L 226.966363 57.700639 
L 226.732254 55.576506 
L 226.732254 55.576506 
" style="fill:none;stroke:#ebff0c;stroke-width:1.5;"/>
   </g>
   <g id="LineCollection_9">
    <path clip-path="url(#pd5f7afc0fa)" d="M 316.486917 293.479494 
L 316.366489 283.920892 
L 316.000012 273.300223 
L 315.319321 260.55542 
L 314.162169 243.562349 
L 312.558053 223.383078 
L 310.737293 203.203807 
L 308.892962 185.148669 
L 307.047816 169.217665 
L 305.233175 155.410796 
L 303.327562 142.665993 
L 301.523837 132.045323 
L 299.690659 122.486721 
L 297.858234 113.990186 
L 296.487838 107.617784 
L 294.072707 80.004045 
L 293.378855 75.309672 
L 292.566594 71.507509 
L 291.942048 69.383375 
L 291.111132 67.259242 
L 289.925196 65.135108 
L 289.130587 64.065489 
L 288.06852 62.929053 
L 285.944387 61.212892 
L 281.696119 58.440383 
L 280.634052 57.510308 
L 279.987761 56.638572 
L 279.653239 55.576506 
L 279.653239 55.576506 
" style="fill:none;stroke:#ffab00;stroke-width:1.5;"/>
   </g>
   <g id="LineCollection_10">
    <path clip-path="url(#pd5f7afc0fa)" d="M 324.190771 293.479494 
L 324.074824 281.796758 
L 323.701254 267.989888 
L 322.994271 250.996818 
L 321.868039 229.75548 
L 320.409927 206.390007 
L 318.868461 185.09098 
L 317.358521 167.093532 
L 315.806371 151.162528 
L 314.24051 137.355658 
L 312.706102 125.672922 
L 311.098605 115.052253 
L 309.432279 105.493651 
L 307.72468 96.997115 
L 305.995201 89.562647 
L 304.271843 83.190245 
L 302.599908 77.879911 
L 300.813323 73.03637 
L 299.225632 69.383375 
L 297.588265 66.197175 
L 296.565056 64.493404 
L 294.98588 57.700639 
L 294.695474 55.576506 
L 294.695474 55.576506 
" style="fill:none;stroke:#ff5500;stroke-width:1.5;"/>
   </g>
   <g id="LineCollection_11">
    <path clip-path="url(#pd5f7afc0fa)" d="M 331.987273 293.479494 
L 331.862059 277.548491 
L 331.452682 256.307152 
L 330.75812 232.94168 
L 329.647264 203.203807 
L 328.427063 176.382054 
L 327.205671 154.348729 
L 325.9839 136.293591 
L 324.766961 121.424654 
L 323.412543 107.617784 
L 321.930003 94.872981 
L 319.930528 79.896533 
L 318.571018 69.383375 
L 317.969694 63.010974 
L 317.723134 57.700639 
L 317.704939 55.576506 
L 317.704939 55.576506 
" style="fill:none;stroke:#e80000;stroke-width:1.5;"/>
   </g>
   <g id="LineCollection_12">
    <path clip-path="url(#pd5f7afc0fa)" d="M 339.840599 293.479494 
L 339.754358 274.36229 
L 339.409784 227.631346 
L 338.730931 178.776268 
L 337.90537 137.355658 
L 337.168903 111.866052 
L 336.165408 85.314379 
L 335.534518 67.259242 
L 335.390723 56.638572 
L 335.39007 55.576506 
L 335.39007 55.576506 
" style="fill:none;stroke:#800000;stroke-width:1.5;"/>
   </g>
   <g id="patch_3">
    <path d="M 57.6 293.479494 
L 57.6 55.576506 
" style="fill:none;stroke:#000000;stroke-linecap:square;stroke-linejoin:miter;stroke-width:0.8;"/>
   </g>
   <g id="patch_4">
    <path d="M 343.296 293.479494 
L 343.296 55.576506 
" style="fill:none;stroke:#000000;stroke-linecap:square;stroke-linejoin:miter;stroke-width:0.8;"/>
   </g>
   <g id="patch_5">
    <path d="M 57.6 293.479494 
L 343.296 293.479494 
" style="fill:none;stroke:#000000;stroke-linecap:square;stroke-linejoin:miter;stroke-width:0.8;"/>
   </g>
   <g id="patch_6">
    <path d="M 57.6 55.576506 
L 343.296 55.576506 
" style="fill:none;stroke:#000000;stroke-linecap:square;stroke-linejoin:miter;stroke-width:0.8;"/>
   </g>
   <g id="text_10">
    <!-- Time:0.07243 s -->
    <defs>
     <path d="M -0.296875 72.90625 
L 61.375 72.90625 
L 61.375 64.59375 
L 35.5 64.59375 
L 35.5 0 
L 25.59375 0 
L 25.59375 64.59375 
L -0.296875 64.59375 
z
" id="DejaVuSans-54"/>
     <path d="M 9.421875 54.6875 
L 18.40625 54.6875 
L 18.40625 0 
L 9.421875 0 
z
M 9.421875 75.984375 
L 18.40625 75.984375 
L 18.40625 64.59375 
L 9.421875 64.59375 
z
" id="DejaVuSans-69"/>
     <path d="M 52 44.1875 
Q 55.375 50.25 60.0625 53.125 
Q 64.75 56 71.09375 56 
Q 79.640625 56 84.28125 50.015625 
Q 88.921875 44.046875 88.921875 33.015625 
L 88.921875 0 
L 79.890625 0 
L 79.890625 32.71875 
Q 79.890625 40.578125 77.09375 44.375 
Q 74.3125 48.1875 68.609375 48.1875 
Q 61.625 48.1875 57.5625 43.546875 
Q 53.515625 38.921875 53.515625 30.90625 
L 53.515625 0 
L 44.484375 0 
L 44.484375 32.71875 
Q 44.484375 40.625 41.703125 44.40625 
Q 38.921875 48.1875 33.109375 48.1875 
Q 26.21875 48.1875 22.15625 43.53125 
Q 18.109375 38.875 18.109375 30.90625 
L 18.109375 0 
L 9.078125 0 
L 9.078125 54.6875 
L 18.109375 54.6875 
L 18.109375 46.1875 
Q 21.1875 51.21875 25.484375 53.609375 
Q 29.78125 56 35.6875 56 
Q 41.65625 56 45.828125 52.96875 
Q 50 49.953125 52 44.1875 
z
" id="DejaVuSans-6d"/>
     <path d="M 56.203125 29.59375 
L 56.203125 25.203125 
L 14.890625 25.203125 
Q 15.484375 15.921875 20.484375 11.0625 
Q 25.484375 6.203125 34.421875 6.203125 
Q 39.59375 6.203125 44.453125 7.46875 
Q 49.3125 8.734375 54.109375 11.28125 
L 54.109375 2.78125 
Q 49.265625 0.734375 44.1875 -0.34375 
Q 39.109375 -1.421875 33.890625 -1.421875 
Q 20.796875 -1.421875 13.15625 6.1875 
Q 5.515625 13.8125 5.515625 26.8125 
Q 5.515625 40.234375 12.765625 48.109375 
Q 20.015625 56 32.328125 56 
Q 43.359375 56 49.78125 48.890625 
Q 56.203125 41.796875 56.203125 29.59375 
z
M 47.21875 32.234375 
Q 47.125 39.59375 43.09375 43.984375 
Q 39.0625 48.390625 32.421875 48.390625 
Q 24.90625 48.390625 20.390625 44.140625 
Q 15.875 39.890625 15.1875 32.171875 
z
" id="DejaVuSans-65"/>
     <path d="M 11.71875 12.40625 
L 22.015625 12.40625 
L 22.015625 0 
L 11.71875 0 
z
M 11.71875 51.703125 
L 22.015625 51.703125 
L 22.015625 39.3125 
L 11.71875 39.3125 
z
" id="DejaVuSans-3a"/>
     <path d="M 8.203125 72.90625 
L 55.078125 72.90625 
L 55.078125 68.703125 
L 28.609375 0 
L 18.3125 0 
L 43.21875 64.59375 
L 8.203125 64.59375 
z
" id="DejaVuSans-37"/>
     <path d="M 40.578125 39.3125 
Q 47.65625 37.796875 51.625 33 
Q 55.609375 28.21875 55.609375 21.1875 
Q 55.609375 10.40625 48.1875 4.484375 
Q 40.765625 -1.421875 27.09375 -1.421875 
Q 22.515625 -1.421875 17.65625 -0.515625 
Q 12.796875 0.390625 7.625 2.203125 
L 7.625 11.71875 
Q 11.71875 9.328125 16.59375 8.109375 
Q 21.484375 6.890625 26.8125 6.890625 
Q 36.078125 6.890625 40.9375 10.546875 
Q 45.796875 14.203125 45.796875 21.1875 
Q 45.796875 27.640625 41.28125 31.265625 
Q 36.765625 34.90625 28.71875 34.90625 
L 20.21875 34.90625 
L 20.21875 43.015625 
L 29.109375 43.015625 
Q 36.375 43.015625 40.234375 45.921875 
Q 44.09375 48.828125 44.09375 54.296875 
Q 44.09375 59.90625 40.109375 62.90625 
Q 36.140625 65.921875 28.71875 65.921875 
Q 24.65625 65.921875 20.015625 65.03125 
Q 15.375 64.15625 9.8125 62.3125 
L 9.8125 71.09375 
Q 15.4375 72.65625 20.34375 73.4375 
Q 25.25 74.21875 29.59375 74.21875 
Q 40.828125 74.21875 47.359375 69.109375 
Q 53.90625 64.015625 53.90625 55.328125 
Q 53.90625 49.265625 50.4375 45.09375 
Q 46.96875 40.921875 40.578125 39.3125 
z
" id="DejaVuSans-33"/>
     <path id="DejaVuSans-20"/>
     <path d="M 44.28125 53.078125 
L 44.28125 44.578125 
Q 40.484375 46.53125 36.375 47.5 
Q 32.28125 48.484375 27.875 48.484375 
Q 21.1875 48.484375 17.84375 46.4375 
Q 14.5 44.390625 14.5 40.28125 
Q 14.5 37.15625 16.890625 35.375 
Q 19.28125 33.59375 26.515625 31.984375 
L 29.59375 31.296875 
Q 39.15625 29.25 43.1875 25.515625 
Q 47.21875 21.78125 47.21875 15.09375 
Q 47.21875 7.46875 41.1875 3.015625 
Q 35.15625 -1.421875 24.609375 -1.421875 
Q 20.21875 -1.421875 15.453125 -0.5625 
Q 10.6875 0.296875 5.421875 2 
L 5.421875 11.28125 
Q 10.40625 8.6875 15.234375 7.390625 
Q 20.0625 6.109375 24.8125 6.109375 
Q 31.15625 6.109375 34.5625 8.28125 
Q 37.984375 10.453125 37.984375 14.40625 
Q 37.984375 18.0625 35.515625 20.015625 
Q 33.0625 21.96875 24.703125 23.78125 
L 21.578125 24.515625 
Q 13.234375 26.265625 9.515625 29.90625 
Q 5.8125 33.546875 5.8125 39.890625 
Q 5.8125 47.609375 11.28125 51.796875 
Q 16.75 56 26.8125 56 
Q 31.78125 56 36.171875 55.265625 
Q 40.578125 54.546875 44.28125 53.078125 
z
" id="DejaVuSans-73"/>
    </defs>
    <g transform="translate(153.717375 49.576506)scale(0.12 -0.12)">
     <use xlink:href="#DejaVuSans-54"/>
     <use x="61.037109" xlink:href="#DejaVuSans-69"/>
     <use x="88.820312" xlink:href="#DejaVuSans-6d"/>
     <use x="186.232422" xlink:href="#DejaVuSans-65"/>
     <use x="247.755859" xlink:href="#DejaVuSans-3a"/>
     <use x="281.447266" xlink:href="#DejaVuSans-30"/>
     <use x="345.070312" xlink:href="#DejaVuSans-2e"/>
     <use x="376.857422" xlink:href="#DejaVuSans-30"/>
     <use x="440.480469" xlink:href="#DejaVuSans-37"/>
     <use x="504.103516" xlink:href="#DejaVuSans-32"/>
     <use x="567.726562" xlink:href="#DejaVuSans-34"/>
     <use x="631.349609" xlink:href="#DejaVuSans-33"/>
     <use x="694.972656" xlink:href="#DejaVuSans-20"/>
     <use x="726.759766" xlink:href="#DejaVuSans-73"/>
    </g>
   </g>
  </g>
  <g id="axes_2">
   <g id="patch_7">
    <path clip-path="url(#p764fb294a7)" d="M 361.152 307.584 
L 361.152 283.392 
L 361.152 65.664 
L 361.152 41.472 
L 374.4576 41.472 
L 374.4576 65.664 
L 374.4576 283.392 
L 374.4576 307.584 
z
" style="fill:#ffffff;stroke:#ffffff;stroke-linejoin:miter;stroke-width:0.01;"/>
   </g>
   <g id="matplotlib.axis_3"/>
   <g id="matplotlib.axis_4">
    <g id="ytick_5">
     <g id="line2d_10">
      <defs>
       <path d="M 0 0 
L 3.5 0 
" id="mcc1c3f568a" style="stroke:#000000;stroke-width:0.8;"/>
      </defs>
      <g>
       <use style="stroke:#000000;stroke-width:0.8;" x="374.4576" xlink:href="#mcc1c3f568a" y="307.584"/>
      </g>
     </g>
     <g id="text_11">
      <!-- 0.08 -->
      <g transform="translate(381.4576 311.383219)scale(0.1 -0.1)">
       <use xlink:href="#DejaVuSans-30"/>
       <use x="63.623047" xlink:href="#DejaVuSans-2e"/>
       <use x="95.410156" xlink:href="#DejaVuSans-30"/>
       <use x="159.033203" xlink:href="#DejaVuSans-38"/>
      </g>
     </g>
    </g>
    <g id="ytick_6">
     <g id="line2d_11">
      <g>
       <use style="stroke:#000000;stroke-width:0.8;" x="374.4576" xlink:href="#mcc1c3f568a" y="259.2"/>
      </g>
     </g>
     <g id="text_12">
      <!-- 0.24 -->
      <g transform="translate(381.4576 262.999219)scale(0.1 -0.1)">
       <use xlink:href="#DejaVuSans-30"/>
       <use x="63.623047" xlink:href="#DejaVuSans-2e"/>
       <use x="95.410156" xlink:href="#DejaVuSans-32"/>
       <use x="159.033203" xlink:href="#DejaVuSans-34"/>
      </g>
     </g>
    </g>
    <g id="ytick_7">
     <g id="line2d_12">
      <g>
       <use style="stroke:#000000;stroke-width:0.8;" x="374.4576" xlink:href="#mcc1c3f568a" y="210.816"/>
      </g>
     </g>
     <g id="text_13">
      <!-- 0.40 -->
      <g transform="translate(381.4576 214.615219)scale(0.1 -0.1)">
       <use xlink:href="#DejaVuSans-30"/>
       <use x="63.623047" xlink:href="#DejaVuSans-2e"/>
       <use x="95.410156" xlink:href="#DejaVuSans-34"/>
       <use x="159.033203" xlink:href="#DejaVuSans-30"/>
      </g>
     </g>
    </g>
    <g id="ytick_8">
     <g id="line2d_13">
      <g>
       <use style="stroke:#000000;stroke-width:0.8;" x="374.4576" xlink:href="#mcc1c3f568a" y="162.432"/>
      </g>
     </g>
     <g id="text_14">
      <!-- 0.56 -->
      <defs>
       <path d="M 10.796875 72.90625 
L 49.515625 72.90625 
L 49.515625 64.59375 
L 19.828125 64.59375 
L 19.828125 46.734375 
Q 21.96875 47.46875 24.109375 47.828125 
Q 26.265625 48.1875 28.421875 48.1875 
Q 40.625 48.1875 47.75 41.5 
Q 54.890625 34.8125 54.890625 23.390625 
Q 54.890625 11.625 47.5625 5.09375 
Q 40.234375 -1.421875 26.90625 -1.421875 
Q 22.3125 -1.421875 17.546875 -0.640625 
Q 12.796875 0.140625 7.71875 1.703125 
L 7.71875 11.625 
Q 12.109375 9.234375 16.796875 8.0625 
Q 21.484375 6.890625 26.703125 6.890625 
Q 35.15625 6.890625 40.078125 11.328125 
Q 45.015625 15.765625 45.015625 23.390625 
Q 45.015625 31 40.078125 35.4375 
Q 35.15625 39.890625 26.703125 39.890625 
Q 22.75 39.890625 18.8125 39.015625 
Q 14.890625 38.140625 10.796875 36.28125 
z
" id="DejaVuSans-35"/>
      </defs>
      <g transform="translate(381.4576 166.231219)scale(0.1 -0.1)">
       <use xlink:href="#DejaVuSans-30"/>
       <use x="63.623047" xlink:href="#DejaVuSans-2e"/>
       <use x="95.410156" xlink:href="#DejaVuSans-35"/>
       <use x="159.033203" xlink:href="#DejaVuSans-36"/>
      </g>
     </g>
    </g>
    <g id="ytick_9">
     <g id="line2d_14">
      <g>
       <use style="stroke:#000000;stroke-width:0.8;" x="374.4576" xlink:href="#mcc1c3f568a" y="114.048"/>
      </g>
     </g>
     <g id="text_15">
      <!-- 0.72 -->
      <g transform="translate(381.4576 117.847219)scale(0.1 -0.1)">
       <use xlink:href="#DejaVuSans-30"/>
       <use x="63.623047" xlink:href="#DejaVuSans-2e"/>
       <use x="95.410156" xlink:href="#DejaVuSans-37"/>
       <use x="159.033203" xlink:href="#DejaVuSans-32"/>
      </g>
     </g>
    </g>
    <g id="ytick_10">
     <g id="line2d_15">
      <g>
       <use style="stroke:#000000;stroke-width:0.8;" x="374.4576" xlink:href="#mcc1c3f568a" y="65.664"/>
      </g>
     </g>
     <g id="text_16">
      <!-- 0.88 -->
      <g transform="translate(381.4576 69.463219)scale(0.1 -0.1)">
       <use xlink:href="#DejaVuSans-30"/>
       <use x="63.623047" xlink:href="#DejaVuSans-2e"/>
       <use x="95.410156" xlink:href="#DejaVuSans-38"/>
       <use x="159.033203" xlink:href="#DejaVuSans-38"/>
      </g>
     </g>
    </g>
   </g>
   <g id="LineCollection_13">
    <path clip-path="url(#p764fb294a7)" d="M 361.152 307.584 
L 374.4576 307.584 
" style="fill:none;stroke:#000080;stroke-width:1.5;"/>
    <path clip-path="url(#p764fb294a7)" d="M 361.152 283.392 
L 374.4576 283.392 
" style="fill:none;stroke:#0000e8;stroke-width:1.5;"/>
    <path clip-path="url(#p764fb294a7)" d="M 361.152 259.2 
L 374.4576 259.2 
" style="fill:none;stroke:#0038ff;stroke-width:1.5;"/>
    <path clip-path="url(#p764fb294a7)" d="M 361.152 235.008 
L 374.4576 235.008 
" style="fill:none;stroke:#0094ff;stroke-width:1.5;"/>
    <path clip-path="url(#p764fb294a7)" d="M 361.152 210.816 
L 374.4576 210.816 
" style="fill:none;stroke:#0cf4eb;stroke-width:1.5;"/>
    <path clip-path="url(#p764fb294a7)" d="M 361.152 186.624 
L 374.4576 186.624 
" style="fill:none;stroke:#56ffa0;stroke-width:1.5;"/>
    <path clip-path="url(#p764fb294a7)" d="M 361.152 162.432 
L 374.4576 162.432 
" style="fill:none;stroke:#a0ff56;stroke-width:1.5;"/>
    <path clip-path="url(#p764fb294a7)" d="M 361.152 138.24 
L 374.4576 138.24 
" style="fill:none;stroke:#ebff0c;stroke-width:1.5;"/>
    <path clip-path="url(#p764fb294a7)" d="M 361.152 114.048 
L 374.4576 114.048 
" style="fill:none;stroke:#ffab00;stroke-width:1.5;"/>
    <path clip-path="url(#p764fb294a7)" d="M 361.152 89.856 
L 374.4576 89.856 
" style="fill:none;stroke:#ff5500;stroke-width:1.5;"/>
    <path clip-path="url(#p764fb294a7)" d="M 361.152 65.664 
L 374.4576 65.664 
" style="fill:none;stroke:#e80000;stroke-width:1.5;"/>
    <path clip-path="url(#p764fb294a7)" d="M 361.152 41.472 
L 374.4576 41.472 
" style="fill:none;stroke:#800000;stroke-width:1.5;"/>
   </g>
   <g id="patch_8">
    <path d="M 361.152 307.584 
L 361.152 283.392 
L 361.152 65.664 
L 361.152 41.472 
L 374.4576 41.472 
L 374.4576 65.664 
L 374.4576 283.392 
L 374.4576 307.584 
z
" style="fill:none;stroke:#000000;stroke-linejoin:miter;stroke-width:0.8;"/>
   </g>
  </g>
 </g>
 <defs>
  <clipPath id="pd5f7afc0fa">
   <rect height="237.902989" width="285.696" x="57.6" y="55.576506"/>
  </clipPath>
  <clipPath id="p764fb294a7">
   <rect height="266.112" width="13.3056" x="361.152" y="41.472"/>
  </clipPath>
 </defs>
</svg>
