<?xml version="1.0" encoding="utf-8" standalone="no"?>
<!DOCTYPE svg PUBLIC "-//W3C//DTD SVG 1.1//EN"
  "http://www.w3.org/Graphics/SVG/1.1/DTD/svg11.dtd">
<!-- Created with matplotlib (http://matplotlib.org/) -->
<svg height="345.6pt" version="1.1" viewBox="0 0 460.8 345.6" width="460.8pt" xmlns="http://www.w3.org/2000/svg" xmlns:xlink="http://www.w3.org/1999/xlink">
 <defs>
  <style type="text/css">
*{stroke-linecap:butt;stroke-linejoin:round;}
  </style>
 </defs>
 <g id="figure_1">
  <g id="patch_1">
   <path d="M 0 345.6 
L 460.8 345.6 
L 460.8 0 
L 0 0 
z
" style="fill:#ffffff;"/>
  </g>
  <g id="axes_1">
   <g id="patch_2">
    <path d="M 57.6 293.479494 
L 343.296 293.479494 
L 343.296 55.576506 
L 57.6 55.576506 
z
" style="fill:#ffffff;"/>
   </g>
   <g id="matplotlib.axis_1">
    <g id="xtick_1">
     <g id="line2d_1">
      <defs>
       <path d="M 0 0 
L 0 3.5 
" id="m64515984b7" style="stroke:#000000;stroke-width:0.8;"/>
      </defs>
      <g>
       <use style="stroke:#000000;stroke-width:0.8;" x="104.861978" xlink:href="#m64515984b7" y="293.479494"/>
      </g>
     </g>
     <g id="text_1">
      <!-- 0.2 -->
      <defs>
       <path d="M 31.78125 66.40625 
Q 24.171875 66.40625 20.328125 58.90625 
Q 16.5 51.421875 16.5 36.375 
Q 16.5 21.390625 20.328125 13.890625 
Q 24.171875 6.390625 31.78125 6.390625 
Q 39.453125 6.390625 43.28125 13.890625 
Q 47.125 21.390625 47.125 36.375 
Q 47.125 51.421875 43.28125 58.90625 
Q 39.453125 66.40625 31.78125 66.40625 
z
M 31.78125 74.21875 
Q 44.046875 74.21875 50.515625 64.515625 
Q 56.984375 54.828125 56.984375 36.375 
Q 56.984375 17.96875 50.515625 8.265625 
Q 44.046875 -1.421875 31.78125 -1.421875 
Q 19.53125 -1.421875 13.0625 8.265625 
Q 6.59375 17.96875 6.59375 36.375 
Q 6.59375 54.828125 13.0625 64.515625 
Q 19.53125 74.21875 31.78125 74.21875 
z
" id="DejaVuSans-30"/>
       <path d="M 10.6875 12.40625 
L 21 12.40625 
L 21 0 
L 10.6875 0 
z
" id="DejaVuSans-2e"/>
       <path d="M 19.1875 8.296875 
L 53.609375 8.296875 
L 53.609375 0 
L 7.328125 0 
L 7.328125 8.296875 
Q 12.9375 14.109375 22.625 23.890625 
Q 32.328125 33.6875 34.8125 36.53125 
Q 39.546875 41.84375 41.421875 45.53125 
Q 43.3125 49.21875 43.3125 52.78125 
Q 43.3125 58.59375 39.234375 62.25 
Q 35.15625 65.921875 28.609375 65.921875 
Q 23.96875 65.921875 18.8125 64.3125 
Q 13.671875 62.703125 7.8125 59.421875 
L 7.8125 69.390625 
Q 13.765625 71.78125 18.9375 73 
Q 24.125 74.21875 28.421875 74.21875 
Q 39.75 74.21875 46.484375 68.546875 
Q 53.21875 62.890625 53.21875 53.421875 
Q 53.21875 48.921875 51.53125 44.890625 
Q 49.859375 40.875 45.40625 35.40625 
Q 44.1875 33.984375 37.640625 27.21875 
Q 31.109375 20.453125 19.1875 8.296875 
z
" id="DejaVuSans-32"/>
      </defs>
      <g transform="translate(96.910415 308.077932)scale(0.1 -0.1)">
       <use xlink:href="#DejaVuSans-30"/>
       <use x="63.623047" xlink:href="#DejaVuSans-2e"/>
       <use x="95.410156" xlink:href="#DejaVuSans-32"/>
      </g>
     </g>
    </g>
    <g id="xtick_2">
     <g id="line2d_2">
      <g>
       <use style="stroke:#000000;stroke-width:0.8;" x="152.654989" xlink:href="#m64515984b7" y="293.479494"/>
      </g>
     </g>
     <g id="text_2">
      <!-- 0.4 -->
      <defs>
       <path d="M 37.796875 64.3125 
L 12.890625 25.390625 
L 37.796875 25.390625 
z
M 35.203125 72.90625 
L 47.609375 72.90625 
L 47.609375 25.390625 
L 58.015625 25.390625 
L 58.015625 17.1875 
L 47.609375 17.1875 
L 47.609375 0 
L 37.796875 0 
L 37.796875 17.1875 
L 4.890625 17.1875 
L 4.890625 26.703125 
z
" id="DejaVuSans-34"/>
      </defs>
      <g transform="translate(144.703426 308.077932)scale(0.1 -0.1)">
       <use xlink:href="#DejaVuSans-30"/>
       <use x="63.623047" xlink:href="#DejaVuSans-2e"/>
       <use x="95.410156" xlink:href="#DejaVuSans-34"/>
      </g>
     </g>
    </g>
    <g id="xtick_3">
     <g id="line2d_3">
      <g>
       <use style="stroke:#000000;stroke-width:0.8;" x="200.448" xlink:href="#m64515984b7" y="293.479494"/>
      </g>
     </g>
     <g id="text_3">
      <!-- 0.6 -->
      <defs>
       <path d="M 33.015625 40.375 
Q 26.375 40.375 22.484375 35.828125 
Q 18.609375 31.296875 18.609375 23.390625 
Q 18.609375 15.53125 22.484375 10.953125 
Q 26.375 6.390625 33.015625 6.390625 
Q 39.65625 6.390625 43.53125 10.953125 
Q 47.40625 15.53125 47.40625 23.390625 
Q 47.40625 31.296875 43.53125 35.828125 
Q 39.65625 40.375 33.015625 40.375 
z
M 52.59375 71.296875 
L 52.59375 62.3125 
Q 48.875 64.0625 45.09375 64.984375 
Q 41.3125 65.921875 37.59375 65.921875 
Q 27.828125 65.921875 22.671875 59.328125 
Q 17.53125 52.734375 16.796875 39.40625 
Q 19.671875 43.65625 24.015625 45.921875 
Q 28.375 48.1875 33.59375 48.1875 
Q 44.578125 48.1875 50.953125 41.515625 
Q 57.328125 34.859375 57.328125 23.390625 
Q 57.328125 12.15625 50.6875 5.359375 
Q 44.046875 -1.421875 33.015625 -1.421875 
Q 20.359375 -1.421875 13.671875 8.265625 
Q 6.984375 17.96875 6.984375 36.375 
Q 6.984375 53.65625 15.1875 63.9375 
Q 23.390625 74.21875 37.203125 74.21875 
Q 40.921875 74.21875 44.703125 73.484375 
Q 48.484375 72.75 52.59375 71.296875 
z
" id="DejaVuSans-36"/>
      </defs>
      <g transform="translate(192.496438 308.077932)scale(0.1 -0.1)">
       <use xlink:href="#DejaVuSans-30"/>
       <use x="63.623047" xlink:href="#DejaVuSans-2e"/>
       <use x="95.410156" xlink:href="#DejaVuSans-36"/>
      </g>
     </g>
    </g>
    <g id="xtick_4">
     <g id="line2d_4">
      <g>
       <use style="stroke:#000000;stroke-width:0.8;" x="248.241011" xlink:href="#m64515984b7" y="293.479494"/>
      </g>
     </g>
     <g id="text_4">
      <!-- 0.8 -->
      <defs>
       <path d="M 31.78125 34.625 
Q 24.75 34.625 20.71875 30.859375 
Q 16.703125 27.09375 16.703125 20.515625 
Q 16.703125 13.921875 20.71875 10.15625 
Q 24.75 6.390625 31.78125 6.390625 
Q 38.8125 6.390625 42.859375 10.171875 
Q 46.921875 13.96875 46.921875 20.515625 
Q 46.921875 27.09375 42.890625 30.859375 
Q 38.875 34.625 31.78125 34.625 
z
M 21.921875 38.8125 
Q 15.578125 40.375 12.03125 44.71875 
Q 8.5 49.078125 8.5 55.328125 
Q 8.5 64.0625 14.71875 69.140625 
Q 20.953125 74.21875 31.78125 74.21875 
Q 42.671875 74.21875 48.875 69.140625 
Q 55.078125 64.0625 55.078125 55.328125 
Q 55.078125 49.078125 51.53125 44.71875 
Q 48 40.375 41.703125 38.8125 
Q 48.828125 37.15625 52.796875 32.3125 
Q 56.78125 27.484375 56.78125 20.515625 
Q 56.78125 9.90625 50.3125 4.234375 
Q 43.84375 -1.421875 31.78125 -1.421875 
Q 19.734375 -1.421875 13.25 4.234375 
Q 6.78125 9.90625 6.78125 20.515625 
Q 6.78125 27.484375 10.78125 32.3125 
Q 14.796875 37.15625 21.921875 38.8125 
z
M 18.3125 54.390625 
Q 18.3125 48.734375 21.84375 45.5625 
Q 25.390625 42.390625 31.78125 42.390625 
Q 38.140625 42.390625 41.71875 45.5625 
Q 45.3125 48.734375 45.3125 54.390625 
Q 45.3125 60.0625 41.71875 63.234375 
Q 38.140625 66.40625 31.78125 66.40625 
Q 25.390625 66.40625 21.84375 63.234375 
Q 18.3125 60.0625 18.3125 54.390625 
z
" id="DejaVuSans-38"/>
      </defs>
      <g transform="translate(240.289449 308.077932)scale(0.1 -0.1)">
       <use xlink:href="#DejaVuSans-30"/>
       <use x="63.623047" xlink:href="#DejaVuSans-2e"/>
       <use x="95.410156" xlink:href="#DejaVuSans-38"/>
      </g>
     </g>
    </g>
    <g id="xtick_5">
     <g id="line2d_5">
      <g>
       <use style="stroke:#000000;stroke-width:0.8;" x="296.034022" xlink:href="#m64515984b7" y="293.479494"/>
      </g>
     </g>
     <g id="text_5">
      <!-- 1.0 -->
      <defs>
       <path d="M 12.40625 8.296875 
L 28.515625 8.296875 
L 28.515625 63.921875 
L 10.984375 60.40625 
L 10.984375 69.390625 
L 28.421875 72.90625 
L 38.28125 72.90625 
L 38.28125 8.296875 
L 54.390625 8.296875 
L 54.390625 0 
L 12.40625 0 
z
" id="DejaVuSans-31"/>
      </defs>
      <g transform="translate(288.08246 308.077932)scale(0.1 -0.1)">
       <use xlink:href="#DejaVuSans-31"/>
       <use x="63.623047" xlink:href="#DejaVuSans-2e"/>
       <use x="95.410156" xlink:href="#DejaVuSans-30"/>
      </g>
     </g>
    </g>
   </g>
   <g id="matplotlib.axis_2">
    <g id="ytick_1">
     <g id="line2d_6">
      <defs>
       <path d="M 0 0 
L -3.5 0 
" id="maeea9fb6b1" style="stroke:#000000;stroke-width:0.8;"/>
      </defs>
      <g>
       <use style="stroke:#000000;stroke-width:0.8;" x="57.6" xlink:href="#maeea9fb6b1" y="246.217517"/>
      </g>
     </g>
     <g id="text_6">
      <!-- 0.2 -->
      <g transform="translate(34.696875 250.016735)scale(0.1 -0.1)">
       <use xlink:href="#DejaVuSans-30"/>
       <use x="63.623047" xlink:href="#DejaVuSans-2e"/>
       <use x="95.410156" xlink:href="#DejaVuSans-32"/>
      </g>
     </g>
    </g>
    <g id="ytick_2">
     <g id="line2d_7">
      <g>
       <use style="stroke:#000000;stroke-width:0.8;" x="57.6" xlink:href="#maeea9fb6b1" y="198.424506"/>
      </g>
     </g>
     <g id="text_7">
      <!-- 0.4 -->
      <g transform="translate(34.696875 202.223724)scale(0.1 -0.1)">
       <use xlink:href="#DejaVuSans-30"/>
       <use x="63.623047" xlink:href="#DejaVuSans-2e"/>
       <use x="95.410156" xlink:href="#DejaVuSans-34"/>
      </g>
     </g>
    </g>
    <g id="ytick_3">
     <g id="line2d_8">
      <g>
       <use style="stroke:#000000;stroke-width:0.8;" x="57.6" xlink:href="#maeea9fb6b1" y="150.631494"/>
      </g>
     </g>
     <g id="text_8">
      <!-- 0.6 -->
      <g transform="translate(34.696875 154.430713)scale(0.1 -0.1)">
       <use xlink:href="#DejaVuSans-30"/>
       <use x="63.623047" xlink:href="#DejaVuSans-2e"/>
       <use x="95.410156" xlink:href="#DejaVuSans-36"/>
      </g>
     </g>
    </g>
    <g id="ytick_4">
     <g id="line2d_9">
      <g>
       <use style="stroke:#000000;stroke-width:0.8;" x="57.6" xlink:href="#maeea9fb6b1" y="102.838483"/>
      </g>
     </g>
     <g id="text_9">
      <!-- 0.8 -->
      <g transform="translate(34.696875 106.637702)scale(0.1 -0.1)">
       <use xlink:href="#DejaVuSans-30"/>
       <use x="63.623047" xlink:href="#DejaVuSans-2e"/>
       <use x="95.410156" xlink:href="#DejaVuSans-38"/>
      </g>
     </g>
    </g>
   </g>
   <g id="LineCollection_1">
    <path clip-path="url(#p4a8b4401f4)" d="M 126.717206 293.479494 
L 126.355147 291.355361 
L 126.008523 290.293294 
L 125.488087 289.231227 
L 124.510216 287.956341 
L 123.448149 287.012412 
L 121.805311 286.045026 
L 120.261948 285.478842 
L 118.137814 284.933635 
L 114.951613 284.557182 
L 111.765413 284.441128 
L 107.517145 284.518799 
L 90.524074 285.091304 
L 86.275807 284.915642 
L 83.089606 284.598152 
L 79.903405 284.029216 
L 77.779271 283.459805 
L 75.655138 282.668035 
L 73.531004 281.560863 
L 72.327999 280.734691 
L 71.084756 279.672625 
L 70.073825 278.610558 
L 69.228219 277.548491 
L 67.901683 275.424357 
L 66.883838 273.300223 
L 66.072776 271.176089 
L 65.034468 267.5906 
L 64.225711 263.741621 
L 63.56663 259.493353 
L 62.910335 253.666418 
L 62.292788 245.686483 
L 61.625861 234.003747 
L 60.739489 213.824476 
L 60.012382 191.521071 
L 59.371904 164.969398 
L 58.717278 127.797056 
L 58.127198 81.066112 
L 57.92975 55.576506 
L 57.92975 55.576506 
" style="fill:none;stroke:#000080;stroke-width:1.5;"/>
   </g>
   <g id="LineCollection_2">
    <path clip-path="url(#p4a8b4401f4)" d="M 286.423753 293.479494 
L 286.812612 291.355361 
L 287.199308 289.231227 
L 287.377021 287.107093 
L 287.353192 283.920892 
L 286.960988 278.610558 
L 284.574907 258.431286 
L 283.222296 249.934751 
L 282.351458 245.686483 
L 281.554261 242.500283 
L 280.496394 239.314082 
L 279.559331 237.189948 
L 278.14143 235.065814 
L 277.084632 234.003747 
L 276.385784 233.472097 
L 275.323717 232.937174 
L 274.261651 232.60492 
L 272.137517 232.307171 
L 268.951316 232.286324 
L 254.082379 232.671666 
L 217.972104 233.093751 
L 204.165234 233.612581 
L 189.296297 234.160341 
L 181.861829 234.200704 
L 175.084158 234.003747 
L 169.117026 233.642601 
L 160.620491 232.900702 
L 144.689487 231.429828 
L 137.255019 231.00798 
L 130.882617 230.856553 
L 123.448149 230.89296 
L 110.703346 231.219136 
L 106.455078 231.483448 
L 103.268877 231.921601 
L 101.144743 232.45305 
L 99.02061 233.284383 
L 97.720218 234.003747 
L 96.249888 235.065814 
L 95.092073 236.127881 
L 94.139823 237.189948 
L 93.327157 238.252015 
L 92.00064 240.376149 
L 90.955223 242.500283 
L 90.114302 244.624416 
L 89.145217 247.810617 
L 88.399941 251.224548 
L 87.059044 258.431286 
L 86.262337 260.55542 
L 85.21374 262.072199 
L 84.151673 262.970149 
L 83.089606 263.480977 
L 82.027539 263.724231 
L 80.965472 263.729253 
L 79.903405 263.519624 
L 78.841338 263.111825 
L 77.779271 262.502184 
L 76.673437 261.617487 
L 75.647159 260.55542 
L 74.150281 258.431286 
L 73.50528 257.369219 
L 72.056921 254.183019 
L 70.929806 250.996818 
L 70.015879 247.810617 
L 69.02077 243.562349 
L 67.835426 237.189948 
L 66.726053 229.75548 
L 65.689801 221.258944 
L 64.637831 210.638275 
L 63.629203 197.893472 
L 62.63372 181.962468 
L 61.648092 161.783197 
L 60.680871 136.293591 
L 59.75156 104.431584 
L 58.749912 61.948907 
L 58.776038 56.638572 
L 58.799239 55.576506 
L 58.799239 55.576506 
" style="fill:none;stroke:#0000e8;stroke-width:1.5;"/>
   </g>
   <g id="LineCollection_3">
    <path clip-path="url(#p4a8b4401f4)" d="M 290.264197 293.479494 
L 290.65215 287.107093 
L 290.51632 282.858825 
L 289.960399 274.36229 
L 288.207587 248.872684 
L 287.448827 239.314082 
L 286.46911 228.693413 
L 285.501427 220.196877 
L 284.423985 212.762409 
L 283.427656 207.452074 
L 282.374937 203.203807 
L 281.696119 200.977427 
L 280.634052 198.489054 
L 279.571985 196.805347 
L 278.509918 195.750748 
L 277.447851 195.174174 
L 276.385784 194.947846 
L 275.323717 194.967641 
L 273.199584 195.431268 
L 266.827182 197.325791 
L 263.640981 197.896015 
L 260.454781 198.211889 
L 256.206513 198.383655 
L 247.709978 198.410669 
L 213.723836 198.410788 
L 178.675628 198.539407 
L 146.813621 198.96972 
L 126.634349 199.196222 
L 121.324015 199.036129 
L 117.075747 198.728616 
L 111.765413 198.097362 
L 102.20681 196.783092 
L 99.02061 196.637024 
L 96.896476 196.750818 
L 94.772342 197.109383 
L 92.648208 197.786488 
L 91.586141 198.271652 
L 89.462007 199.583193 
L 87.684992 201.079673 
L 86.275807 202.514344 
L 83.971317 205.327941 
L 79.903405 210.75723 
L 78.841338 211.947533 
L 77.779271 212.894328 
L 76.717204 213.514255 
L 75.655138 213.721605 
L 74.593071 213.432017 
L 73.531004 212.557704 
L 72.300313 210.638275 
L 71.351157 208.514141 
L 70.043185 204.265874 
L 69.046738 200.017606 
L 67.889678 193.645204 
L 66.823258 186.210736 
L 65.727859 176.652134 
L 64.652398 164.969398 
L 63.55188 150.100461 
L 62.477609 132.045323 
L 61.461654 110.803985 
L 60.403566 83.190245 
L 59.621239 58.762706 
L 59.718362 55.576506 
L 59.718362 55.576506 
" style="fill:none;stroke:#0038ff;stroke-width:1.5;"/>
   </g>
   <g id="LineCollection_4">
    <path clip-path="url(#p4a8b4401f4)" d="M 292.440619 293.479494 
L 292.554733 284.982959 
L 292.176596 276.486424 
L 290.606862 244.624416 
L 289.547286 225.507212 
L 288.54227 210.638275 
L 287.575034 198.955539 
L 286.480201 188.33487 
L 285.517398 180.900401 
L 284.470251 174.528 
L 283.584714 170.279732 
L 282.376902 166.031465 
L 281.570467 163.907331 
L 280.328776 161.783197 
L 279.571985 160.907135 
L 278.509918 160.292829 
L 277.447851 160.16133 
L 276.385784 160.3923 
L 275.323717 160.88101 
L 273.199584 162.293258 
L 269.498962 164.969398 
L 267.751116 166.031465 
L 265.524121 167.093532 
L 263.640981 167.754445 
L 261.516848 168.259105 
L 259.392714 168.56549 
L 256.206513 168.760981 
L 251.958245 168.746257 
L 234.965175 168.423498 
L 153.186022 168.201745 
L 122.386082 168.204759 
L 109.616599 168.155599 
L 95.834409 167.961301 
L 92.648208 168.217212 
L 90.524074 168.583065 
L 88.264163 169.217665 
L 86.275807 170.02775 
L 83.924166 171.341799 
L 82.027539 172.647651 
L 78.841338 175.004628 
L 77.779271 175.655885 
L 76.717204 176.120836 
L 75.655138 176.302781 
L 74.593071 176.095337 
L 73.531004 175.381635 
L 72.468937 174.038967 
L 71.196964 171.341799 
L 70.140469 168.155599 
L 69.08534 163.907331 
L 67.888919 157.534929 
L 66.796088 150.100461 
L 65.675461 140.541859 
L 64.573405 128.859123 
L 63.51738 115.052253 
L 62.462506 98.059182 
L 60.693098 64.073041 
L 60.596264 59.824773 
L 60.752772 55.576506 
L 60.752772 55.576506 
" style="fill:none;stroke:#0094ff;stroke-width:1.5;"/>
   </g>
   <g id="LineCollection_5">
    <path clip-path="url(#p4a8b4401f4)" d="M 294.120221 293.479494 
L 294.031669 281.796758 
L 292.91098 250.996818 
L 291.661482 220.196877 
L 290.645248 200.017606 
L 289.660862 184.086602 
L 288.604408 170.279732 
L 287.586423 159.659063 
L 286.561884 151.162528 
L 285.59282 144.790126 
L 284.556946 139.479792 
L 283.452023 135.231524 
L 282.758186 133.084508 
L 281.696119 130.753906 
L 280.634052 129.237355 
L 279.571985 128.399639 
L 278.509918 128.1241 
L 277.447851 128.30756 
L 276.380188 128.859123 
L 275.076374 129.92119 
L 273.199584 131.857077 
L 268.951316 136.614319 
L 266.827182 138.589679 
L 264.703048 140.136179 
L 262.578914 141.254369 
L 260.454781 141.991354 
L 258.330647 142.412117 
L 256.206513 142.584842 
L 253.020312 142.517733 
L 248.772045 142.095439 
L 241.337576 141.26093 
L 237.089309 140.991793 
L 231.778974 140.906417 
L 223.282439 141.075762 
L 210.537636 141.289841 
L 192.482498 141.274334 
L 156.372223 141.294677 
L 90.524074 141.539576 
L 87.337874 141.89888 
L 84.151673 142.553606 
L 80.965472 143.528084 
L 77.779271 144.517555 
L 76.717204 144.690451 
L 75.655138 144.679024 
L 74.593071 144.392097 
L 73.531004 143.718476 
L 72.468937 142.53437 
L 71.344629 140.541859 
L 70.140325 137.355658 
L 68.987906 133.10739 
L 67.899967 127.797056 
L 66.730958 120.362587 
L 65.678415 111.866052 
L 64.622345 101.245383 
L 63.512838 87.438513 
L 61.818676 63.010974 
L 61.762791 59.824773 
L 61.946296 56.638572 
L 62.013037 55.576506 
L 62.013037 55.576506 
" style="fill:none;stroke:#0cf4eb;stroke-width:1.5;"/>
   </g>
   <g id="LineCollection_6">
    <path clip-path="url(#p4a8b4401f4)" d="M 295.669255 293.479494 
L 295.459646 279.672625 
L 294.701996 252.058885 
L 293.580945 217.010677 
L 292.614496 192.583138 
L 291.629991 172.403866 
L 290.663827 156.472862 
L 289.700168 143.728059 
L 288.689067 133.10739 
L 287.658937 124.610855 
L 286.679433 118.238454 
L 285.638765 112.928119 
L 284.552753 108.679851 
L 283.460468 105.493651 
L 282.464366 103.369517 
L 281.696119 102.119834 
L 280.634052 101.033832 
L 279.571985 100.50241 
L 278.509918 100.449462 
L 277.447851 100.806523 
L 276.385784 101.508285 
L 275.323717 102.486162 
L 273.199584 104.996261 
L 267.889249 111.945129 
L 265.765115 114.264971 
L 263.640981 116.130985 
L 261.516848 117.519094 
L 259.392714 118.450937 
L 257.26858 118.978516 
L 255.144446 119.1679 
L 253.020312 119.091538 
L 250.896178 118.820399 
L 247.709978 118.189535 
L 239.213442 116.346936 
L 234.965175 115.726986 
L 230.716907 115.376362 
L 226.468639 115.256033 
L 221.158305 115.32951 
L 208.413502 115.837799 
L 195.668699 116.216377 
L 179.737695 116.448707 
L 145.751554 116.652002 
L 105.393011 117.011271 
L 89.462007 117.282479 
L 84.151673 117.610975 
L 77.779271 118.095671 
L 76.717204 118.024252 
L 75.655138 117.811418 
L 74.288237 117.176387 
L 73.531004 116.653964 
L 72.192934 115.052253 
L 71.40687 113.779316 
L 70.180469 110.803985 
L 68.955416 106.555717 
L 68.018525 102.30745 
L 66.787093 94.872981 
L 65.694613 86.376446 
L 64.361396 73.631643 
L 63.584356 65.135108 
L 63.395915 60.88684 
L 63.481236 58.762706 
L 63.754387 55.576506 
L 63.754387 55.576506 
" style="fill:none;stroke:#56ffa0;stroke-width:1.5;"/>
   </g>
   <g id="LineCollection_7">
    <path clip-path="url(#p4a8b4401f4)" d="M 301.051661 293.479494 
L 300.943777 287.107093 
L 300.625289 280.734691 
L 300.026916 273.300223 
L 298.827151 261.617487 
L 296.84399 244.624416 
L 296.527042 241.438216 
L 295.0834 204.265874 
L 294.079486 175.590067 
L 293.089963 153.286662 
L 292.058954 135.231524 
L 291.034177 121.424654 
L 289.906251 109.741918 
L 288.856812 101.245383 
L 287.849449 94.872981 
L 286.729335 89.562647 
L 285.851256 86.376446 
L 284.668261 83.190245 
L 283.616713 81.066112 
L 282.758186 79.692718 
L 281.696119 78.385927 
L 280.634052 77.396029 
L 279.571985 76.656703 
L 278.509918 76.138053 
L 277.285276 75.755777 
L 276.385784 75.604732 
L 275.323717 75.563197 
L 273.706251 75.755777 
L 273.199584 75.866382 
L 271.07545 76.687363 
L 270.013383 77.3128 
L 268.951316 78.079472 
L 267.889249 79.029003 
L 266.827182 80.205864 
L 265.44295 82.128178 
L 264.230752 84.252312 
L 260.966967 90.624714 
L 260.284925 91.686781 
L 259.392714 92.870516 
L 258.330647 94.013192 
L 257.26858 94.927635 
L 255.695326 95.935048 
L 254.082379 96.666121 
L 251.958245 97.2727 
L 249.834112 97.59631 
L 247.709978 97.727853 
L 244.523777 97.688727 
L 240.275509 97.382408 
L 232.841041 96.549579 
L 216.910037 94.696352 
L 209.475569 94.085673 
L 202.0411 93.711074 
L 193.544565 93.531716 
L 178.675628 93.516403 
L 161.682558 93.419995 
L 144.689487 93.069809 
L 114.951613 92.17919 
L 78.841338 90.9664 
L 76.717204 90.534374 
L 75.655138 90.135922 
L 74.593071 89.544995 
L 73.39127 88.50058 
L 72.468937 87.397122 
L 71.29449 85.314379 
L 70.064557 82.128178 
L 69.134575 78.941978 
L 67.801454 72.569576 
L 66.954093 67.259242 
L 66.58821 63.010974 
L 66.614312 60.88684 
L 66.858974 58.762706 
L 67.158602 56.418657 
L 67.170511 55.576506 
L 67.170511 55.576506 
" style="fill:none;stroke:#a0ff56;stroke-width:1.5;"/>
   </g>
   <g id="LineCollection_8">
    <path clip-path="url(#p4a8b4401f4)" d="M 308.50987 293.479494 
L 308.368779 284.982959 
L 307.989771 276.486424 
L 307.262099 265.865755 
L 306.072424 252.058885 
L 304.282728 234.003747 
L 302.27603 215.94861 
L 300.166691 198.955539 
L 298.108565 184.086602 
L 296.483528 172.403866 
L 294.983216 142.665993 
L 294.094553 124.610855 
L 293.157796 109.741918 
L 292.121465 96.997115 
L 291.254721 89.103885 
L 290.511246 84.252312 
L 289.878933 81.066112 
L 289.062988 77.879911 
L 287.924488 74.69371 
L 286.874024 72.569576 
L 285.944387 71.138647 
L 284.88232 69.880004 
L 283.820253 68.911779 
L 282.758186 68.156596 
L 280.634052 67.114276 
L 278.509918 66.496208 
L 276.385784 66.158519 
L 274.261651 66.036691 
L 271.07545 66.153799 
L 267.889249 66.559445 
L 264.447223 67.259242 
L 260.454781 68.347451 
L 255.144446 70.096719 
L 248.772045 72.241091 
L 245.585844 73.131553 
L 242.399643 73.799654 
L 239.213442 74.192366 
L 236.027242 74.30262 
L 232.841041 74.141207 
L 229.65484 73.747913 
L 226.468639 73.146136 
L 222.220372 72.119375 
L 216.424106 70.445442 
L 208.413502 67.737473 
L 204.391368 66.197175 
L 199.916967 64.07199 
L 197.792833 62.704184 
L 196.730766 61.867563 
L 195.668699 60.756247 
L 195.009664 59.824773 
L 194.515734 58.762706 
L 194.228672 57.700639 
L 194.048384 55.576506 
L 194.048384 55.576506 
" style="fill:none;stroke:#ebff0c;stroke-width:1.5;"/>
   </g>
   <g id="LineCollection_9">
    <path clip-path="url(#p4a8b4401f4)" d="M 316.163085 293.479494 
L 316.041655 283.920892 
L 315.67121 273.300223 
L 314.981664 260.55542 
L 313.885679 244.624416 
L 312.350334 225.507212 
L 310.603527 206.390007 
L 308.731048 188.33487 
L 306.852482 172.403866 
L 305.003374 158.596996 
L 303.234232 146.91426 
L 301.420761 136.293591 
L 299.580764 126.734989 
L 297.627123 117.734665 
L 296.536791 112.928119 
L 293.803235 81.066112 
L 293.173704 76.817844 
L 292.316788 72.700891 
L 291.658565 70.445442 
L 290.839226 68.321309 
L 289.689026 66.197175 
L 288.92245 65.135108 
L 287.964982 64.073041 
L 286.745521 63.010974 
L 284.88232 61.740849 
L 281.696119 60.063254 
L 280.634052 59.51997 
L 279.22577 58.762706 
L 277.889174 57.700639 
L 277.232807 56.638572 
L 277.072872 55.576506 
L 277.072872 55.576506 
" style="fill:none;stroke:#ffab00;stroke-width:1.5;"/>
   </g>
   <g id="LineCollection_10">
    <path clip-path="url(#p4a8b4401f4)" d="M 323.959126 293.479494 
L 323.84344 281.796758 
L 323.464988 267.989888 
L 322.795263 252.058885 
L 321.717925 231.879613 
L 320.311373 209.576208 
L 318.751687 188.33487 
L 317.209149 170.279732 
L 315.625263 154.348729 
L 314.02859 140.541859 
L 312.465788 128.859123 
L 310.82999 118.238454 
L 309.136532 108.679851 
L 307.407296 100.183316 
L 305.667091 92.748848 
L 303.945361 86.376446 
L 302.284968 81.066112 
L 300.749265 76.817844 
L 298.94507 72.569576 
L 297.627123 69.9364 
L 296.565056 68.096385 
L 295.815502 65.135108 
L 295.271861 63.010974 
L 293.485818 55.576506 
L 293.485818 55.576506 
" style="fill:none;stroke:#ff5500;stroke-width:1.5;"/>
   </g>
   <g id="LineCollection_11">
    <path clip-path="url(#p4a8b4401f4)" d="M 331.852032 293.479494 
L 331.73242 277.548491 
L 331.334807 257.369219 
L 330.630601 234.003747 
L 329.539902 205.327941 
L 328.360546 179.838335 
L 327.165126 158.596996 
L 325.931344 140.541859 
L 324.70941 125.672922 
L 323.3522 111.866052 
L 321.990118 100.183316 
L 320.416539 88.50058 
L 317.314956 66.197175 
L 316.876356 60.88684 
L 316.73245 56.638572 
L 316.729075 55.576506 
L 316.729075 55.576506 
" style="fill:none;stroke:#e80000;stroke-width:1.5;"/>
   </g>
   <g id="LineCollection_12">
    <path clip-path="url(#p4a8b4401f4)" d="M 339.804447 293.479494 
L 339.679512 260.55542 
L 339.365919 228.693413 
L 338.690086 180.900401 
L 338.038848 147.976327 
L 337.263031 119.30052 
L 336.580717 100.183316 
L 335.287436 67.259242 
L 335.121033 57.700639 
L 335.116375 55.576506 
L 335.116375 55.576506 
" style="fill:none;stroke:#800000;stroke-width:1.5;"/>
   </g>
   <g id="patch_3">
    <path d="M 57.6 293.479494 
L 57.6 55.576506 
" style="fill:none;stroke:#000000;stroke-linecap:square;stroke-linejoin:miter;stroke-width:0.8;"/>
   </g>
   <g id="patch_4">
    <path d="M 343.296 293.479494 
L 343.296 55.576506 
" style="fill:none;stroke:#000000;stroke-linecap:square;stroke-linejoin:miter;stroke-width:0.8;"/>
   </g>
   <g id="patch_5">
    <path d="M 57.6 293.479494 
L 343.296 293.479494 
" style="fill:none;stroke:#000000;stroke-linecap:square;stroke-linejoin:miter;stroke-width:0.8;"/>
   </g>
   <g id="patch_6">
    <path d="M 57.6 55.576506 
L 343.296 55.576506 
" style="fill:none;stroke:#000000;stroke-linecap:square;stroke-linejoin:miter;stroke-width:0.8;"/>
   </g>
   <g id="text_10">
    <!-- Time:0.09218 s -->
    <defs>
     <path d="M -0.296875 72.90625 
L 61.375 72.90625 
L 61.375 64.59375 
L 35.5 64.59375 
L 35.5 0 
L 25.59375 0 
L 25.59375 64.59375 
L -0.296875 64.59375 
z
" id="DejaVuSans-54"/>
     <path d="M 9.421875 54.6875 
L 18.40625 54.6875 
L 18.40625 0 
L 9.421875 0 
z
M 9.421875 75.984375 
L 18.40625 75.984375 
L 18.40625 64.59375 
L 9.421875 64.59375 
z
" id="DejaVuSans-69"/>
     <path d="M 52 44.1875 
Q 55.375 50.25 60.0625 53.125 
Q 64.75 56 71.09375 56 
Q 79.640625 56 84.28125 50.015625 
Q 88.921875 44.046875 88.921875 33.015625 
L 88.921875 0 
L 79.890625 0 
L 79.890625 32.71875 
Q 79.890625 40.578125 77.09375 44.375 
Q 74.3125 48.1875 68.609375 48.1875 
Q 61.625 48.1875 57.5625 43.546875 
Q 53.515625 38.921875 53.515625 30.90625 
L 53.515625 0 
L 44.484375 0 
L 44.484375 32.71875 
Q 44.484375 40.625 41.703125 44.40625 
Q 38.921875 48.1875 33.109375 48.1875 
Q 26.21875 48.1875 22.15625 43.53125 
Q 18.109375 38.875 18.109375 30.90625 
L 18.109375 0 
L 9.078125 0 
L 9.078125 54.6875 
L 18.109375 54.6875 
L 18.109375 46.1875 
Q 21.1875 51.21875 25.484375 53.609375 
Q 29.78125 56 35.6875 56 
Q 41.65625 56 45.828125 52.96875 
Q 50 49.953125 52 44.1875 
z
" id="DejaVuSans-6d"/>
     <path d="M 56.203125 29.59375 
L 56.203125 25.203125 
L 14.890625 25.203125 
Q 15.484375 15.921875 20.484375 11.0625 
Q 25.484375 6.203125 34.421875 6.203125 
Q 39.59375 6.203125 44.453125 7.46875 
Q 49.3125 8.734375 54.109375 11.28125 
L 54.109375 2.78125 
Q 49.265625 0.734375 44.1875 -0.34375 
Q 39.109375 -1.421875 33.890625 -1.421875 
Q 20.796875 -1.421875 13.15625 6.1875 
Q 5.515625 13.8125 5.515625 26.8125 
Q 5.515625 40.234375 12.765625 48.109375 
Q 20.015625 56 32.328125 56 
Q 43.359375 56 49.78125 48.890625 
Q 56.203125 41.796875 56.203125 29.59375 
z
M 47.21875 32.234375 
Q 47.125 39.59375 43.09375 43.984375 
Q 39.0625 48.390625 32.421875 48.390625 
Q 24.90625 48.390625 20.390625 44.140625 
Q 15.875 39.890625 15.1875 32.171875 
z
" id="DejaVuSans-65"/>
     <path d="M 11.71875 12.40625 
L 22.015625 12.40625 
L 22.015625 0 
L 11.71875 0 
z
M 11.71875 51.703125 
L 22.015625 51.703125 
L 22.015625 39.3125 
L 11.71875 39.3125 
z
" id="DejaVuSans-3a"/>
     <path d="M 10.984375 1.515625 
L 10.984375 10.5 
Q 14.703125 8.734375 18.5 7.8125 
Q 22.3125 6.890625 25.984375 6.890625 
Q 35.75 6.890625 40.890625 13.453125 
Q 46.046875 20.015625 46.78125 33.40625 
Q 43.953125 29.203125 39.59375 26.953125 
Q 35.25 24.703125 29.984375 24.703125 
Q 19.046875 24.703125 12.671875 31.3125 
Q 6.296875 37.9375 6.296875 49.421875 
Q 6.296875 60.640625 12.9375 67.421875 
Q 19.578125 74.21875 30.609375 74.21875 
Q 43.265625 74.21875 49.921875 64.515625 
Q 56.59375 54.828125 56.59375 36.375 
Q 56.59375 19.140625 48.40625 8.859375 
Q 40.234375 -1.421875 26.421875 -1.421875 
Q 22.703125 -1.421875 18.890625 -0.6875 
Q 15.09375 0.046875 10.984375 1.515625 
z
M 30.609375 32.421875 
Q 37.25 32.421875 41.125 36.953125 
Q 45.015625 41.5 45.015625 49.421875 
Q 45.015625 57.28125 41.125 61.84375 
Q 37.25 66.40625 30.609375 66.40625 
Q 23.96875 66.40625 20.09375 61.84375 
Q 16.21875 57.28125 16.21875 49.421875 
Q 16.21875 41.5 20.09375 36.953125 
Q 23.96875 32.421875 30.609375 32.421875 
z
" id="DejaVuSans-39"/>
     <path id="DejaVuSans-20"/>
     <path d="M 44.28125 53.078125 
L 44.28125 44.578125 
Q 40.484375 46.53125 36.375 47.5 
Q 32.28125 48.484375 27.875 48.484375 
Q 21.1875 48.484375 17.84375 46.4375 
Q 14.5 44.390625 14.5 40.28125 
Q 14.5 37.15625 16.890625 35.375 
Q 19.28125 33.59375 26.515625 31.984375 
L 29.59375 31.296875 
Q 39.15625 29.25 43.1875 25.515625 
Q 47.21875 21.78125 47.21875 15.09375 
Q 47.21875 7.46875 41.1875 3.015625 
Q 35.15625 -1.421875 24.609375 -1.421875 
Q 20.21875 -1.421875 15.453125 -0.5625 
Q 10.6875 0.296875 5.421875 2 
L 5.421875 11.28125 
Q 10.40625 8.6875 15.234375 7.390625 
Q 20.0625 6.109375 24.8125 6.109375 
Q 31.15625 6.109375 34.5625 8.28125 
Q 37.984375 10.453125 37.984375 14.40625 
Q 37.984375 18.0625 35.515625 20.015625 
Q 33.0625 21.96875 24.703125 23.78125 
L 21.578125 24.515625 
Q 13.234375 26.265625 9.515625 29.90625 
Q 5.8125 33.546875 5.8125 39.890625 
Q 5.8125 47.609375 11.28125 51.796875 
Q 16.75 56 26.8125 56 
Q 31.78125 56 36.171875 55.265625 
Q 40.578125 54.546875 44.28125 53.078125 
z
" id="DejaVuSans-73"/>
    </defs>
    <g transform="translate(153.717375 49.576506)scale(0.12 -0.12)">
     <use xlink:href="#DejaVuSans-54"/>
     <use x="61.037109" xlink:href="#DejaVuSans-69"/>
     <use x="88.820312" xlink:href="#DejaVuSans-6d"/>
     <use x="186.232422" xlink:href="#DejaVuSans-65"/>
     <use x="247.755859" xlink:href="#DejaVuSans-3a"/>
     <use x="281.447266" xlink:href="#DejaVuSans-30"/>
     <use x="345.070312" xlink:href="#DejaVuSans-2e"/>
     <use x="376.857422" xlink:href="#DejaVuSans-30"/>
     <use x="440.480469" xlink:href="#DejaVuSans-39"/>
     <use x="504.103516" xlink:href="#DejaVuSans-32"/>
     <use x="567.726562" xlink:href="#DejaVuSans-31"/>
     <use x="631.349609" xlink:href="#DejaVuSans-38"/>
     <use x="694.972656" xlink:href="#DejaVuSans-20"/>
     <use x="726.759766" xlink:href="#DejaVuSans-73"/>
    </g>
   </g>
  </g>
  <g id="axes_2">
   <g id="patch_7">
    <path clip-path="url(#p98e72b27fe)" d="M 361.152 307.584 
L 361.152 283.392 
L 361.152 65.664 
L 361.152 41.472 
L 374.4576 41.472 
L 374.4576 65.664 
L 374.4576 283.392 
L 374.4576 307.584 
z
" style="fill:#ffffff;stroke:#ffffff;stroke-linejoin:miter;stroke-width:0.01;"/>
   </g>
   <g id="matplotlib.axis_3"/>
   <g id="matplotlib.axis_4">
    <g id="ytick_5">
     <g id="line2d_10">
      <defs>
       <path d="M 0 0 
L 3.5 0 
" id="m3414d580b6" style="stroke:#000000;stroke-width:0.8;"/>
      </defs>
      <g>
       <use style="stroke:#000000;stroke-width:0.8;" x="374.4576" xlink:href="#m3414d580b6" y="307.584"/>
      </g>
     </g>
     <g id="text_11">
      <!-- 0.08 -->
      <g transform="translate(381.4576 311.383219)scale(0.1 -0.1)">
       <use xlink:href="#DejaVuSans-30"/>
       <use x="63.623047" xlink:href="#DejaVuSans-2e"/>
       <use x="95.410156" xlink:href="#DejaVuSans-30"/>
       <use x="159.033203" xlink:href="#DejaVuSans-38"/>
      </g>
     </g>
    </g>
    <g id="ytick_6">
     <g id="line2d_11">
      <g>
       <use style="stroke:#000000;stroke-width:0.8;" x="374.4576" xlink:href="#m3414d580b6" y="259.2"/>
      </g>
     </g>
     <g id="text_12">
      <!-- 0.24 -->
      <g transform="translate(381.4576 262.999219)scale(0.1 -0.1)">
       <use xlink:href="#DejaVuSans-30"/>
       <use x="63.623047" xlink:href="#DejaVuSans-2e"/>
       <use x="95.410156" xlink:href="#DejaVuSans-32"/>
       <use x="159.033203" xlink:href="#DejaVuSans-34"/>
      </g>
     </g>
    </g>
    <g id="ytick_7">
     <g id="line2d_12">
      <g>
       <use style="stroke:#000000;stroke-width:0.8;" x="374.4576" xlink:href="#m3414d580b6" y="210.816"/>
      </g>
     </g>
     <g id="text_13">
      <!-- 0.40 -->
      <g transform="translate(381.4576 214.615219)scale(0.1 -0.1)">
       <use xlink:href="#DejaVuSans-30"/>
       <use x="63.623047" xlink:href="#DejaVuSans-2e"/>
       <use x="95.410156" xlink:href="#DejaVuSans-34"/>
       <use x="159.033203" xlink:href="#DejaVuSans-30"/>
      </g>
     </g>
    </g>
    <g id="ytick_8">
     <g id="line2d_13">
      <g>
       <use style="stroke:#000000;stroke-width:0.8;" x="374.4576" xlink:href="#m3414d580b6" y="162.432"/>
      </g>
     </g>
     <g id="text_14">
      <!-- 0.56 -->
      <defs>
       <path d="M 10.796875 72.90625 
L 49.515625 72.90625 
L 49.515625 64.59375 
L 19.828125 64.59375 
L 19.828125 46.734375 
Q 21.96875 47.46875 24.109375 47.828125 
Q 26.265625 48.1875 28.421875 48.1875 
Q 40.625 48.1875 47.75 41.5 
Q 54.890625 34.8125 54.890625 23.390625 
Q 54.890625 11.625 47.5625 5.09375 
Q 40.234375 -1.421875 26.90625 -1.421875 
Q 22.3125 -1.421875 17.546875 -0.640625 
Q 12.796875 0.140625 7.71875 1.703125 
L 7.71875 11.625 
Q 12.109375 9.234375 16.796875 8.0625 
Q 21.484375 6.890625 26.703125 6.890625 
Q 35.15625 6.890625 40.078125 11.328125 
Q 45.015625 15.765625 45.015625 23.390625 
Q 45.015625 31 40.078125 35.4375 
Q 35.15625 39.890625 26.703125 39.890625 
Q 22.75 39.890625 18.8125 39.015625 
Q 14.890625 38.140625 10.796875 36.28125 
z
" id="DejaVuSans-35"/>
      </defs>
      <g transform="translate(381.4576 166.231219)scale(0.1 -0.1)">
       <use xlink:href="#DejaVuSans-30"/>
       <use x="63.623047" xlink:href="#DejaVuSans-2e"/>
       <use x="95.410156" xlink:href="#DejaVuSans-35"/>
       <use x="159.033203" xlink:href="#DejaVuSans-36"/>
      </g>
     </g>
    </g>
    <g id="ytick_9">
     <g id="line2d_14">
      <g>
       <use style="stroke:#000000;stroke-width:0.8;" x="374.4576" xlink:href="#m3414d580b6" y="114.048"/>
      </g>
     </g>
     <g id="text_15">
      <!-- 0.72 -->
      <defs>
       <path d="M 8.203125 72.90625 
L 55.078125 72.90625 
L 55.078125 68.703125 
L 28.609375 0 
L 18.3125 0 
L 43.21875 64.59375 
L 8.203125 64.59375 
z
" id="DejaVuSans-37"/>
      </defs>
      <g transform="translate(381.4576 117.847219)scale(0.1 -0.1)">
       <use xlink:href="#DejaVuSans-30"/>
       <use x="63.623047" xlink:href="#DejaVuSans-2e"/>
       <use x="95.410156" xlink:href="#DejaVuSans-37"/>
       <use x="159.033203" xlink:href="#DejaVuSans-32"/>
      </g>
     </g>
    </g>
    <g id="ytick_10">
     <g id="line2d_15">
      <g>
       <use style="stroke:#000000;stroke-width:0.8;" x="374.4576" xlink:href="#m3414d580b6" y="65.664"/>
      </g>
     </g>
     <g id="text_16">
      <!-- 0.88 -->
      <g transform="translate(381.4576 69.463219)scale(0.1 -0.1)">
       <use xlink:href="#DejaVuSans-30"/>
       <use x="63.623047" xlink:href="#DejaVuSans-2e"/>
       <use x="95.410156" xlink:href="#DejaVuSans-38"/>
       <use x="159.033203" xlink:href="#DejaVuSans-38"/>
      </g>
     </g>
    </g>
   </g>
   <g id="LineCollection_13">
    <path clip-path="url(#p98e72b27fe)" d="M 361.152 307.584 
L 374.4576 307.584 
" style="fill:none;stroke:#000080;stroke-width:1.5;"/>
    <path clip-path="url(#p98e72b27fe)" d="M 361.152 283.392 
L 374.4576 283.392 
" style="fill:none;stroke:#0000e8;stroke-width:1.5;"/>
    <path clip-path="url(#p98e72b27fe)" d="M 361.152 259.2 
L 374.4576 259.2 
" style="fill:none;stroke:#0038ff;stroke-width:1.5;"/>
    <path clip-path="url(#p98e72b27fe)" d="M 361.152 235.008 
L 374.4576 235.008 
" style="fill:none;stroke:#0094ff;stroke-width:1.5;"/>
    <path clip-path="url(#p98e72b27fe)" d="M 361.152 210.816 
L 374.4576 210.816 
" style="fill:none;stroke:#0cf4eb;stroke-width:1.5;"/>
    <path clip-path="url(#p98e72b27fe)" d="M 361.152 186.624 
L 374.4576 186.624 
" style="fill:none;stroke:#56ffa0;stroke-width:1.5;"/>
    <path clip-path="url(#p98e72b27fe)" d="M 361.152 162.432 
L 374.4576 162.432 
" style="fill:none;stroke:#a0ff56;stroke-width:1.5;"/>
    <path clip-path="url(#p98e72b27fe)" d="M 361.152 138.24 
L 374.4576 138.24 
" style="fill:none;stroke:#ebff0c;stroke-width:1.5;"/>
    <path clip-path="url(#p98e72b27fe)" d="M 361.152 114.048 
L 374.4576 114.048 
" style="fill:none;stroke:#ffab00;stroke-width:1.5;"/>
    <path clip-path="url(#p98e72b27fe)" d="M 361.152 89.856 
L 374.4576 89.856 
" style="fill:none;stroke:#ff5500;stroke-width:1.5;"/>
    <path clip-path="url(#p98e72b27fe)" d="M 361.152 65.664 
L 374.4576 65.664 
" style="fill:none;stroke:#e80000;stroke-width:1.5;"/>
    <path clip-path="url(#p98e72b27fe)" d="M 361.152 41.472 
L 374.4576 41.472 
" style="fill:none;stroke:#800000;stroke-width:1.5;"/>
   </g>
   <g id="patch_8">
    <path d="M 361.152 307.584 
L 361.152 283.392 
L 361.152 65.664 
L 361.152 41.472 
L 374.4576 41.472 
L 374.4576 65.664 
L 374.4576 283.392 
L 374.4576 307.584 
z
" style="fill:none;stroke:#000000;stroke-linejoin:miter;stroke-width:0.8;"/>
   </g>
  </g>
 </g>
 <defs>
  <clipPath id="p4a8b4401f4">
   <rect height="237.902989" width="285.696" x="57.6" y="55.576506"/>
  </clipPath>
  <clipPath id="p98e72b27fe">
   <rect height="266.112" width="13.3056" x="361.152" y="41.472"/>
  </clipPath>
 </defs>
</svg>
