<?xml version="1.0" encoding="utf-8" standalone="no"?>
<!DOCTYPE svg PUBLIC "-//W3C//DTD SVG 1.1//EN"
  "http://www.w3.org/Graphics/SVG/1.1/DTD/svg11.dtd">
<!-- Created with matplotlib (http://matplotlib.org/) -->
<svg height="345.6pt" version="1.1" viewBox="0 0 460.8 345.6" width="460.8pt" xmlns="http://www.w3.org/2000/svg" xmlns:xlink="http://www.w3.org/1999/xlink">
 <defs>
  <style type="text/css">
*{stroke-linecap:butt;stroke-linejoin:round;}
  </style>
 </defs>
 <g id="figure_1">
  <g id="patch_1">
   <path d="M 0 345.6 
L 460.8 345.6 
L 460.8 0 
L 0 0 
z
" style="fill:#ffffff;"/>
  </g>
  <g id="axes_1">
   <g id="patch_2">
    <path d="M 57.6 293.479494 
L 343.296 293.479494 
L 343.296 55.576506 
L 57.6 55.576506 
z
" style="fill:#ffffff;"/>
   </g>
   <g id="matplotlib.axis_1">
    <g id="xtick_1">
     <g id="line2d_1">
      <defs>
       <path d="M 0 0 
L 0 3.5 
" id="m61d9cf4061" style="stroke:#000000;stroke-width:0.8;"/>
      </defs>
      <g>
       <use style="stroke:#000000;stroke-width:0.8;" x="104.861978" xlink:href="#m61d9cf4061" y="293.479494"/>
      </g>
     </g>
     <g id="text_1">
      <!-- 0.2 -->
      <defs>
       <path d="M 31.78125 66.40625 
Q 24.171875 66.40625 20.328125 58.90625 
Q 16.5 51.421875 16.5 36.375 
Q 16.5 21.390625 20.328125 13.890625 
Q 24.171875 6.390625 31.78125 6.390625 
Q 39.453125 6.390625 43.28125 13.890625 
Q 47.125 21.390625 47.125 36.375 
Q 47.125 51.421875 43.28125 58.90625 
Q 39.453125 66.40625 31.78125 66.40625 
z
M 31.78125 74.21875 
Q 44.046875 74.21875 50.515625 64.515625 
Q 56.984375 54.828125 56.984375 36.375 
Q 56.984375 17.96875 50.515625 8.265625 
Q 44.046875 -1.421875 31.78125 -1.421875 
Q 19.53125 -1.421875 13.0625 8.265625 
Q 6.59375 17.96875 6.59375 36.375 
Q 6.59375 54.828125 13.0625 64.515625 
Q 19.53125 74.21875 31.78125 74.21875 
z
" id="DejaVuSans-30"/>
       <path d="M 10.6875 12.40625 
L 21 12.40625 
L 21 0 
L 10.6875 0 
z
" id="DejaVuSans-2e"/>
       <path d="M 19.1875 8.296875 
L 53.609375 8.296875 
L 53.609375 0 
L 7.328125 0 
L 7.328125 8.296875 
Q 12.9375 14.109375 22.625 23.890625 
Q 32.328125 33.6875 34.8125 36.53125 
Q 39.546875 41.84375 41.421875 45.53125 
Q 43.3125 49.21875 43.3125 52.78125 
Q 43.3125 58.59375 39.234375 62.25 
Q 35.15625 65.921875 28.609375 65.921875 
Q 23.96875 65.921875 18.8125 64.3125 
Q 13.671875 62.703125 7.8125 59.421875 
L 7.8125 69.390625 
Q 13.765625 71.78125 18.9375 73 
Q 24.125 74.21875 28.421875 74.21875 
Q 39.75 74.21875 46.484375 68.546875 
Q 53.21875 62.890625 53.21875 53.421875 
Q 53.21875 48.921875 51.53125 44.890625 
Q 49.859375 40.875 45.40625 35.40625 
Q 44.1875 33.984375 37.640625 27.21875 
Q 31.109375 20.453125 19.1875 8.296875 
z
" id="DejaVuSans-32"/>
      </defs>
      <g transform="translate(96.910415 308.077932)scale(0.1 -0.1)">
       <use xlink:href="#DejaVuSans-30"/>
       <use x="63.623047" xlink:href="#DejaVuSans-2e"/>
       <use x="95.410156" xlink:href="#DejaVuSans-32"/>
      </g>
     </g>
    </g>
    <g id="xtick_2">
     <g id="line2d_2">
      <g>
       <use style="stroke:#000000;stroke-width:0.8;" x="152.654989" xlink:href="#m61d9cf4061" y="293.479494"/>
      </g>
     </g>
     <g id="text_2">
      <!-- 0.4 -->
      <defs>
       <path d="M 37.796875 64.3125 
L 12.890625 25.390625 
L 37.796875 25.390625 
z
M 35.203125 72.90625 
L 47.609375 72.90625 
L 47.609375 25.390625 
L 58.015625 25.390625 
L 58.015625 17.1875 
L 47.609375 17.1875 
L 47.609375 0 
L 37.796875 0 
L 37.796875 17.1875 
L 4.890625 17.1875 
L 4.890625 26.703125 
z
" id="DejaVuSans-34"/>
      </defs>
      <g transform="translate(144.703426 308.077932)scale(0.1 -0.1)">
       <use xlink:href="#DejaVuSans-30"/>
       <use x="63.623047" xlink:href="#DejaVuSans-2e"/>
       <use x="95.410156" xlink:href="#DejaVuSans-34"/>
      </g>
     </g>
    </g>
    <g id="xtick_3">
     <g id="line2d_3">
      <g>
       <use style="stroke:#000000;stroke-width:0.8;" x="200.448" xlink:href="#m61d9cf4061" y="293.479494"/>
      </g>
     </g>
     <g id="text_3">
      <!-- 0.6 -->
      <defs>
       <path d="M 33.015625 40.375 
Q 26.375 40.375 22.484375 35.828125 
Q 18.609375 31.296875 18.609375 23.390625 
Q 18.609375 15.53125 22.484375 10.953125 
Q 26.375 6.390625 33.015625 6.390625 
Q 39.65625 6.390625 43.53125 10.953125 
Q 47.40625 15.53125 47.40625 23.390625 
Q 47.40625 31.296875 43.53125 35.828125 
Q 39.65625 40.375 33.015625 40.375 
z
M 52.59375 71.296875 
L 52.59375 62.3125 
Q 48.875 64.0625 45.09375 64.984375 
Q 41.3125 65.921875 37.59375 65.921875 
Q 27.828125 65.921875 22.671875 59.328125 
Q 17.53125 52.734375 16.796875 39.40625 
Q 19.671875 43.65625 24.015625 45.921875 
Q 28.375 48.1875 33.59375 48.1875 
Q 44.578125 48.1875 50.953125 41.515625 
Q 57.328125 34.859375 57.328125 23.390625 
Q 57.328125 12.15625 50.6875 5.359375 
Q 44.046875 -1.421875 33.015625 -1.421875 
Q 20.359375 -1.421875 13.671875 8.265625 
Q 6.984375 17.96875 6.984375 36.375 
Q 6.984375 53.65625 15.1875 63.9375 
Q 23.390625 74.21875 37.203125 74.21875 
Q 40.921875 74.21875 44.703125 73.484375 
Q 48.484375 72.75 52.59375 71.296875 
z
" id="DejaVuSans-36"/>
      </defs>
      <g transform="translate(192.496438 308.077932)scale(0.1 -0.1)">
       <use xlink:href="#DejaVuSans-30"/>
       <use x="63.623047" xlink:href="#DejaVuSans-2e"/>
       <use x="95.410156" xlink:href="#DejaVuSans-36"/>
      </g>
     </g>
    </g>
    <g id="xtick_4">
     <g id="line2d_4">
      <g>
       <use style="stroke:#000000;stroke-width:0.8;" x="248.241011" xlink:href="#m61d9cf4061" y="293.479494"/>
      </g>
     </g>
     <g id="text_4">
      <!-- 0.8 -->
      <defs>
       <path d="M 31.78125 34.625 
Q 24.75 34.625 20.71875 30.859375 
Q 16.703125 27.09375 16.703125 20.515625 
Q 16.703125 13.921875 20.71875 10.15625 
Q 24.75 6.390625 31.78125 6.390625 
Q 38.8125 6.390625 42.859375 10.171875 
Q 46.921875 13.96875 46.921875 20.515625 
Q 46.921875 27.09375 42.890625 30.859375 
Q 38.875 34.625 31.78125 34.625 
z
M 21.921875 38.8125 
Q 15.578125 40.375 12.03125 44.71875 
Q 8.5 49.078125 8.5 55.328125 
Q 8.5 64.0625 14.71875 69.140625 
Q 20.953125 74.21875 31.78125 74.21875 
Q 42.671875 74.21875 48.875 69.140625 
Q 55.078125 64.0625 55.078125 55.328125 
Q 55.078125 49.078125 51.53125 44.71875 
Q 48 40.375 41.703125 38.8125 
Q 48.828125 37.15625 52.796875 32.3125 
Q 56.78125 27.484375 56.78125 20.515625 
Q 56.78125 9.90625 50.3125 4.234375 
Q 43.84375 -1.421875 31.78125 -1.421875 
Q 19.734375 -1.421875 13.25 4.234375 
Q 6.78125 9.90625 6.78125 20.515625 
Q 6.78125 27.484375 10.78125 32.3125 
Q 14.796875 37.15625 21.921875 38.8125 
z
M 18.3125 54.390625 
Q 18.3125 48.734375 21.84375 45.5625 
Q 25.390625 42.390625 31.78125 42.390625 
Q 38.140625 42.390625 41.71875 45.5625 
Q 45.3125 48.734375 45.3125 54.390625 
Q 45.3125 60.0625 41.71875 63.234375 
Q 38.140625 66.40625 31.78125 66.40625 
Q 25.390625 66.40625 21.84375 63.234375 
Q 18.3125 60.0625 18.3125 54.390625 
z
" id="DejaVuSans-38"/>
      </defs>
      <g transform="translate(240.289449 308.077932)scale(0.1 -0.1)">
       <use xlink:href="#DejaVuSans-30"/>
       <use x="63.623047" xlink:href="#DejaVuSans-2e"/>
       <use x="95.410156" xlink:href="#DejaVuSans-38"/>
      </g>
     </g>
    </g>
    <g id="xtick_5">
     <g id="line2d_5">
      <g>
       <use style="stroke:#000000;stroke-width:0.8;" x="296.034022" xlink:href="#m61d9cf4061" y="293.479494"/>
      </g>
     </g>
     <g id="text_5">
      <!-- 1.0 -->
      <defs>
       <path d="M 12.40625 8.296875 
L 28.515625 8.296875 
L 28.515625 63.921875 
L 10.984375 60.40625 
L 10.984375 69.390625 
L 28.421875 72.90625 
L 38.28125 72.90625 
L 38.28125 8.296875 
L 54.390625 8.296875 
L 54.390625 0 
L 12.40625 0 
z
" id="DejaVuSans-31"/>
      </defs>
      <g transform="translate(288.08246 308.077932)scale(0.1 -0.1)">
       <use xlink:href="#DejaVuSans-31"/>
       <use x="63.623047" xlink:href="#DejaVuSans-2e"/>
       <use x="95.410156" xlink:href="#DejaVuSans-30"/>
      </g>
     </g>
    </g>
   </g>
   <g id="matplotlib.axis_2">
    <g id="ytick_1">
     <g id="line2d_6">
      <defs>
       <path d="M 0 0 
L -3.5 0 
" id="md710fb74f8" style="stroke:#000000;stroke-width:0.8;"/>
      </defs>
      <g>
       <use style="stroke:#000000;stroke-width:0.8;" x="57.6" xlink:href="#md710fb74f8" y="246.217517"/>
      </g>
     </g>
     <g id="text_6">
      <!-- 0.2 -->
      <g transform="translate(34.696875 250.016735)scale(0.1 -0.1)">
       <use xlink:href="#DejaVuSans-30"/>
       <use x="63.623047" xlink:href="#DejaVuSans-2e"/>
       <use x="95.410156" xlink:href="#DejaVuSans-32"/>
      </g>
     </g>
    </g>
    <g id="ytick_2">
     <g id="line2d_7">
      <g>
       <use style="stroke:#000000;stroke-width:0.8;" x="57.6" xlink:href="#md710fb74f8" y="198.424506"/>
      </g>
     </g>
     <g id="text_7">
      <!-- 0.4 -->
      <g transform="translate(34.696875 202.223724)scale(0.1 -0.1)">
       <use xlink:href="#DejaVuSans-30"/>
       <use x="63.623047" xlink:href="#DejaVuSans-2e"/>
       <use x="95.410156" xlink:href="#DejaVuSans-34"/>
      </g>
     </g>
    </g>
    <g id="ytick_3">
     <g id="line2d_8">
      <g>
       <use style="stroke:#000000;stroke-width:0.8;" x="57.6" xlink:href="#md710fb74f8" y="150.631494"/>
      </g>
     </g>
     <g id="text_8">
      <!-- 0.6 -->
      <g transform="translate(34.696875 154.430713)scale(0.1 -0.1)">
       <use xlink:href="#DejaVuSans-30"/>
       <use x="63.623047" xlink:href="#DejaVuSans-2e"/>
       <use x="95.410156" xlink:href="#DejaVuSans-36"/>
      </g>
     </g>
    </g>
    <g id="ytick_4">
     <g id="line2d_9">
      <g>
       <use style="stroke:#000000;stroke-width:0.8;" x="57.6" xlink:href="#md710fb74f8" y="102.838483"/>
      </g>
     </g>
     <g id="text_9">
      <!-- 0.8 -->
      <g transform="translate(34.696875 106.637702)scale(0.1 -0.1)">
       <use xlink:href="#DejaVuSans-30"/>
       <use x="63.623047" xlink:href="#DejaVuSans-2e"/>
       <use x="95.410156" xlink:href="#DejaVuSans-38"/>
      </g>
     </g>
    </g>
   </g>
   <g id="LineCollection_1">
    <path clip-path="url(#p8e3d02d09e)" d="M 116.762341 293.479494 
L 116.542784 292.417428 
L 116.01368 291.007488 
L 115.635974 290.293294 
L 114.729905 289.231227 
L 113.217295 288.16916 
L 111.765413 287.567221 
L 109.641279 286.957774 
L 106.455078 286.487329 
L 102.20681 286.194171 
L 94.772342 286.020422 
L 88.399941 285.792506 
L 84.151673 285.41082 
L 80.965472 284.902717 
L 78.841338 284.420585 
L 76.717204 283.758181 
L 74.593071 282.854531 
L 72.468937 281.589018 
L 71.372764 280.734691 
L 70.26197 279.672625 
L 69.282736 278.528794 
L 67.925266 276.486424 
L 66.851001 274.36229 
L 66.004164 272.238156 
L 65.028618 269.051955 
L 64.09265 264.803688 
L 63.423822 260.55542 
L 62.814373 255.245086 
L 62.224573 247.810617 
L 61.616571 237.189948 
L 60.780995 218.072743 
L 60.047666 195.769338 
L 59.401472 169.217665 
L 58.760213 133.10739 
L 58.174499 87.438513 
L 57.907623 55.576506 
L 57.907623 55.576506 
" style="fill:none;stroke:#000080;stroke-width:1.5;"/>
   </g>
   <g id="LineCollection_2">
    <path clip-path="url(#p8e3d02d09e)" d="M 285.992935 293.479494 
L 286.359153 291.355361 
L 286.940168 288.16916 
L 287.055425 286.045026 
L 286.960827 282.858825 
L 286.347329 276.486424 
L 285.365617 267.989888 
L 284.240347 259.493353 
L 283.394344 254.183019 
L 282.340593 248.872684 
L 281.556496 245.686483 
L 280.524348 242.500283 
L 279.571985 240.289073 
L 278.280548 238.252015 
L 277.331466 237.189948 
L 276.385784 236.439109 
L 275.323717 235.876627 
L 274.261651 235.516961 
L 272.137517 235.172887 
L 268.951316 235.103155 
L 246.647911 235.486986 
L 228.592773 235.703334 
L 215.84797 236.091319 
L 190.358364 237.014723 
L 183.985963 236.948513 
L 177.613561 236.655012 
L 171.084555 236.127881 
L 162.744625 235.220595 
L 147.875688 233.563393 
L 141.503286 233.08302 
L 135.130885 232.842381 
L 128.758483 232.867247 
L 122.386082 233.141769 
L 116.01368 233.625011 
L 110.703346 234.199726 
L 106.455078 234.892626 
L 104.330944 235.406011 
L 102.158471 236.127881 
L 99.96691 237.189948 
L 98.408074 238.252015 
L 97.2026 239.314082 
L 96.238168 240.376149 
L 95.441591 241.438216 
L 94.209669 243.562349 
L 93.324292 245.686483 
L 92.648208 248.014804 
L 92.283283 249.934751 
L 91.962526 253.120952 
L 91.586141 259.929153 
L 91.232131 261.617487 
L 90.524074 263.360984 
L 90.324484 263.741621 
L 89.462007 264.923977 
L 88.399941 265.932905 
L 86.742918 266.927822 
L 86.275807 267.120864 
L 85.21374 267.438538 
L 84.151673 267.620344 
L 83.089606 267.665404 
L 82.027539 267.574991 
L 80.965472 267.351178 
L 79.762862 266.927822 
L 78.841338 266.465672 
L 77.779271 265.782386 
L 76.629572 264.803688 
L 75.62506 263.741621 
L 74.116391 261.617487 
L 73.471824 260.55542 
L 71.998256 257.369219 
L 71.199961 255.245086 
L 69.9462 250.996818 
L 68.957343 246.74855 
L 67.788309 240.376149 
L 66.700752 232.94168 
L 65.682192 224.445145 
L 64.640692 213.824476 
L 63.636864 201.079673 
L 62.644993 185.148669 
L 61.663706 164.969398 
L 60.701288 139.479792 
L 59.773972 107.617784 
L 58.722955 63.010974 
L 58.70484 57.700639 
L 58.752071 55.576506 
L 58.752071 55.576506 
" style="fill:none;stroke:#0000e8;stroke-width:1.5;"/>
   </g>
   <g id="LineCollection_3">
    <path clip-path="url(#p8e3d02d09e)" d="M 290.079069 293.479494 
L 290.486733 288.16916 
L 290.459073 284.982959 
L 290.107275 278.610558 
L 288.466031 255.245086 
L 287.406879 241.438216 
L 286.526191 231.879613 
L 285.571648 223.383078 
L 284.507616 215.94861 
L 283.526573 210.638275 
L 282.492714 206.390007 
L 281.434342 203.203807 
L 280.453098 201.079673 
L 279.571985 199.709669 
L 278.509918 198.671791 
L 277.447851 198.101085 
L 276.385784 197.871934 
L 275.251747 197.893472 
L 273.199584 198.312914 
L 266.827182 200.095957 
L 263.640981 200.632009 
L 260.454781 200.927774 
L 256.206513 201.089513 
L 247.709978 201.120501 
L 212.66177 201.151171 
L 185.04803 201.314223 
L 162.744625 201.703405 
L 136.192952 202.111721 
L 126.634349 202.109296 
L 121.324015 201.906295 
L 117.075747 201.559144 
L 111.765413 200.87256 
L 102.20681 199.476461 
L 99.02061 199.328696 
L 96.896476 199.456559 
L 94.772342 199.842623 
L 92.648208 200.567323 
L 90.524074 201.713683 
L 88.582427 203.203807 
L 87.337874 204.386652 
L 85.21374 206.837324 
L 82.42292 210.638275 
L 79.903405 214.055624 
L 78.841338 215.266766 
L 77.779271 216.227187 
L 76.717204 216.853546 
L 75.474333 217.010677 
L 74.593071 216.765983 
L 73.531004 215.879768 
L 72.248478 213.824476 
L 71.32044 211.700342 
L 70.029018 207.452074 
L 69.042196 203.203807 
L 67.893508 196.831405 
L 66.833467 189.396937 
L 65.744127 179.838335 
L 64.674592 168.155599 
L 63.580265 153.286662 
L 62.510682 135.231524 
L 61.450172 112.928119 
L 60.399191 85.314379 
L 59.553496 58.762706 
L 59.648404 55.576506 
L 59.648404 55.576506 
" style="fill:none;stroke:#0038ff;stroke-width:1.5;"/>
   </g>
   <g id="LineCollection_4">
    <path clip-path="url(#p8e3d02d09e)" d="M 292.331625 293.479494 
L 292.454072 284.982959 
L 292.120031 277.548491 
L 288.820752 217.010677 
L 287.618583 202.14174 
L 286.521376 191.521071 
L 285.556452 184.086602 
L 284.506166 177.714201 
L 283.61964 173.465933 
L 282.408157 169.217665 
L 281.604115 167.093532 
L 280.365581 164.969398 
L 279.314246 163.907331 
L 278.509918 163.444203 
L 277.447851 163.305265 
L 276.385784 163.521683 
L 275.323717 163.989751 
L 273.199584 165.348633 
L 269.123524 168.155599 
L 267.889249 168.867533 
L 265.765115 169.862453 
L 263.640981 170.580731 
L 261.516848 171.059903 
L 259.392714 171.348744 
L 256.206513 171.53307 
L 251.958245 171.519517 
L 234.965175 171.217489 
L 106.455078 170.853587 
L 96.896476 170.668992 
L 93.710275 170.84836 
L 91.586141 171.142465 
L 89.462007 171.640028 
L 87.326944 172.403866 
L 85.21374 173.46841 
L 83.089606 174.85977 
L 77.779271 178.820045 
L 76.717204 179.312212 
L 75.655138 179.512448 
L 74.593071 179.312864 
L 73.531004 178.595367 
L 72.468937 177.236552 
L 71.206103 174.528 
L 70.159138 171.341799 
L 68.900728 166.031465 
L 67.924317 160.72113 
L 66.704052 152.224595 
L 65.613823 142.665993 
L 64.534163 130.983257 
L 63.492548 117.176387 
L 62.445203 100.183316 
L 60.740074 67.259242 
L 60.497154 59.824773 
L 60.649858 55.576506 
L 60.649858 55.576506 
" style="fill:none;stroke:#0094ff;stroke-width:1.5;"/>
   </g>
   <g id="LineCollection_5">
    <path clip-path="url(#p8e3d02d09e)" d="M 294.033393 293.479494 
L 293.948767 281.796758 
L 292.856281 252.058885 
L 291.640823 222.321011 
L 290.613436 202.14174 
L 289.612371 186.210736 
L 288.626043 173.465933 
L 287.605844 162.845264 
L 286.580195 154.348729 
L 285.611422 147.976327 
L 284.577009 142.665993 
L 283.475206 138.417725 
L 282.758186 136.204095 
L 281.696119 133.879656 
L 280.634052 132.366684 
L 279.571985 131.530178 
L 278.509918 131.252808 
L 277.447851 131.431128 
L 276.286942 132.045323 
L 274.981404 133.10739 
L 273.199584 134.913268 
L 268.951316 139.532494 
L 266.603616 141.603926 
L 264.703048 142.9169 
L 262.578914 143.983842 
L 260.454781 144.683539 
L 258.330647 145.08142 
L 256.206513 145.243931 
L 253.020312 145.181026 
L 248.756498 144.790126 
L 241.337576 144.048181 
L 236.027242 143.790338 
L 230.716907 143.768438 
L 200.979033 144.060195 
L 164.868758 144.027113 
L 91.586141 144.173618 
L 88.399941 144.478257 
L 85.21374 145.067699 
L 82.50118 145.852193 
L 77.779271 147.455705 
L 76.717204 147.648418 
L 75.655138 147.649752 
L 74.593071 147.366067 
L 73.531004 146.685265 
L 72.468937 145.480414 
L 71.40687 143.609071 
L 70.236518 140.541859 
L 69.075555 136.293591 
L 67.980013 130.983257 
L 66.803914 123.548788 
L 65.741865 115.052253 
L 64.581706 103.369517 
L 63.478966 89.562647 
L 61.726814 64.073041 
L 61.617431 59.824773 
L 61.831048 55.576506 
L 61.831048 55.576506 
" style="fill:none;stroke:#0cf4eb;stroke-width:1.5;"/>
   </g>
   <g id="LineCollection_6">
    <path clip-path="url(#p8e3d02d09e)" d="M 295.557062 293.479494 
L 295.310492 276.486424 
L 294.237534 239.314082 
L 293.119672 207.452074 
L 292.034693 183.024535 
L 290.958542 163.907331 
L 289.892661 149.038394 
L 288.820495 137.355658 
L 287.681705 127.797056 
L 286.709117 121.424654 
L 285.675385 116.11432 
L 284.596168 111.866052 
L 283.511557 108.679851 
L 282.526012 106.555717 
L 281.696119 105.223811 
L 280.634052 104.161709 
L 279.571985 103.65196 
L 278.509918 103.612586 
L 277.447851 103.969797 
L 276.385784 104.654527 
L 275.323717 105.599012 
L 273.199584 108.012004 
L 267.618265 115.052253 
L 265.595702 117.176387 
L 263.640981 118.851934 
L 261.516848 120.213 
L 259.392714 121.125135 
L 257.26858 121.638558 
L 255.144446 121.81934 
L 253.020312 121.737109 
L 250.697166 121.424654 
L 247.709978 120.821556 
L 239.213442 118.944602 
L 234.965175 118.330833 
L 231.778974 118.070488 
L 227.530706 117.955319 
L 222.220372 118.06978 
L 197.792833 118.974285 
L 180.799762 119.130786 
L 104.330944 119.649111 
L 89.462007 119.885268 
L 85.21374 120.142485 
L 77.779271 120.819403 
L 76.717204 120.7695 
L 75.655138 120.57728 
L 74.593071 120.170092 
L 73.388828 119.30052 
L 72.424765 118.238454 
L 71.197445 116.11432 
L 70.293771 113.990186 
L 69.037128 109.741918 
L 67.886128 104.431584 
L 66.826125 98.059182 
L 65.718987 89.562647 
L 64.389904 76.817844 
L 63.324758 65.135108 
L 63.113142 60.88684 
L 63.191913 58.762706 
L 63.476769 55.576506 
L 63.476769 55.576506 
" style="fill:none;stroke:#56ffa0;stroke-width:1.5;"/>
   </g>
   <g id="LineCollection_7">
    <path clip-path="url(#p8e3d02d09e)" d="M 300.752177 293.479494 
L 300.644566 287.107093 
L 300.322612 280.734691 
L 299.716263 273.300223 
L 298.504444 261.617487 
L 296.455973 242.500283 
L 295.096009 207.452074 
L 294.089907 178.776268 
L 293.09892 156.472862 
L 292.069389 138.417725 
L 291.049017 124.610855 
L 289.921952 112.928119 
L 288.870263 104.431584 
L 287.873056 98.059182 
L 286.794321 92.748848 
L 285.633911 88.50058 
L 284.449527 85.314379 
L 283.396164 83.190245 
L 282.758186 82.113132 
L 281.696119 80.749389 
L 280.634052 79.726933 
L 279.489689 78.941978 
L 278.509918 78.488996 
L 277.447851 78.193587 
L 276.385784 78.08429 
L 275.323717 78.154367 
L 274.261651 78.397006 
L 272.931874 78.941978 
L 271.326688 80.004045 
L 270.193472 81.066112 
L 269.300855 82.128178 
L 268.551408 83.190245 
L 267.314507 85.314379 
L 263.507947 92.748848 
L 262.039778 94.872981 
L 261.135673 95.935048 
L 260.044703 96.997115 
L 258.656678 98.059182 
L 257.26858 98.857893 
L 256.206513 99.315508 
L 254.082379 99.919958 
L 251.958245 100.213666 
L 249.834112 100.285456 
L 246.647911 100.12992 
L 242.399643 99.66111 
L 224.344506 97.360896 
L 217.972104 96.825345 
L 210.537636 96.444138 
L 203.103167 96.286541 
L 191.420431 96.302204 
L 169.117026 96.367843 
L 152.123955 96.158401 
L 114.951613 95.394178 
L 88.399941 94.940614 
L 79.903405 94.819184 
L 77.779271 94.590525 
L 76.717204 94.360075 
L 75.292333 93.810914 
L 74.593071 93.443304 
L 73.531004 92.612503 
L 72.468937 91.393531 
L 71.3688 89.562647 
L 70.083642 86.376446 
L 69.12334 83.190245 
L 67.94238 77.879911 
L 66.691226 70.445442 
L 65.993632 65.135108 
L 65.835701 61.948907 
L 65.92126 59.824773 
L 66.406157 55.576506 
L 66.406157 55.576506 
" style="fill:none;stroke:#a0ff56;stroke-width:1.5;"/>
   </g>
   <g id="LineCollection_8">
    <path clip-path="url(#p8e3d02d09e)" d="M 308.259736 293.479494 
L 308.117434 284.982959 
L 307.733795 276.486424 
L 306.996956 265.865755 
L 305.792531 252.058885 
L 303.978181 234.003747 
L 301.936593 215.94861 
L 299.923418 200.017606 
L 297.829082 185.148669 
L 296.493578 175.590067 
L 294.941941 144.790126 
L 294.041875 126.734989 
L 293.088127 111.866052 
L 292.032019 99.121249 
L 291.090552 90.624714 
L 290.192654 84.794797 
L 289.39275 81.066112 
L 288.818197 78.941978 
L 288.06852 76.669662 
L 287.006454 74.255046 
L 285.944387 72.454074 
L 284.88232 71.099278 
L 283.820253 70.058418 
L 282.758186 69.251475 
L 281.021353 68.321309 
L 279.571985 67.79584 
L 277.447851 67.332631 
L 275.323717 67.148425 
L 273.199584 67.174322 
L 271.07545 67.375176 
L 267.889249 67.952966 
L 264.703048 68.819434 
L 261.516848 69.935847 
L 257.747103 71.507509 
L 248.772045 75.574049 
L 245.238486 76.817844 
L 243.46171 77.298922 
L 241.337576 77.722103 
L 239.213442 77.987429 
L 236.027242 78.11232 
L 232.841041 77.967057 
L 229.65484 77.604552 
L 224.977124 76.817844 
L 217.972104 75.322063 
L 202.0411 71.863308 
L 189.296297 69.2123 
L 182.923896 67.654535 
L 179.737695 66.731002 
L 176.551494 65.640368 
L 174.427361 64.770209 
L 172.303227 63.706948 
L 171.120677 63.010974 
L 169.731655 61.948907 
L 168.71424 60.88684 
L 168.018088 59.824773 
L 167.590422 58.762706 
L 167.381755 57.700639 
L 167.397281 55.576506 
L 167.397281 55.576506 
" style="fill:none;stroke:#ebff0c;stroke-width:1.5;"/>
   </g>
   <g id="LineCollection_9">
    <path clip-path="url(#p8e3d02d09e)" d="M 315.969771 293.479494 
L 315.84654 283.920892 
L 315.470406 273.300223 
L 314.768875 260.55542 
L 313.654873 244.624416 
L 312.093557 225.507212 
L 310.311436 206.390007 
L 308.513348 189.396937 
L 306.734299 174.528 
L 304.86424 160.72113 
L 302.937457 148.203456 
L 301.23851 138.417725 
L 299.375572 128.859123 
L 297.513846 120.362587 
L 296.542541 116.11432 
L 293.512295 81.066112 
L 292.833124 76.817844 
L 292.149308 73.631643 
L 291.19307 70.445442 
L 290.192654 68.134098 
L 288.99231 66.197175 
L 288.06852 65.083598 
L 286.999926 64.073041 
L 284.88232 62.5871 
L 282.758186 61.489911 
L 276.705899 58.762706 
L 275.463145 57.700639 
L 274.960045 56.638572 
L 274.961513 55.576506 
L 274.961513 55.576506 
" style="fill:none;stroke:#ffab00;stroke-width:1.5;"/>
   </g>
   <g id="LineCollection_10">
    <path clip-path="url(#p8e3d02d09e)" d="M 323.828861 293.479494 
L 323.711146 281.796758 
L 323.360732 269.051955 
L 322.686903 253.120952 
L 321.599273 232.94168 
L 320.175526 210.638275 
L 318.676761 190.459004 
L 317.119322 172.403866 
L 315.518761 156.472862 
L 313.902582 142.665993 
L 312.318599 130.983257 
L 310.658378 120.362587 
L 308.939045 110.803985 
L 307.185101 102.30745 
L 305.425723 94.872981 
L 303.693769 88.50058 
L 301.87539 82.726644 
L 300.504471 78.941978 
L 298.68919 74.628323 
L 297.12469 71.507509 
L 296.549991 70.445442 
L 295.79167 67.259242 
L 295.280509 65.135108 
L 294.440922 61.803968 
L 292.546614 55.576506 
L 292.546614 55.576506 
" style="fill:none;stroke:#ff5500;stroke-width:1.5;"/>
   </g>
   <g id="LineCollection_11">
    <path clip-path="url(#p8e3d02d09e)" d="M 331.789021 293.479494 
L 331.668537 277.548491 
L 331.300664 259.493353 
L 330.594284 236.127881 
L 329.543304 208.514141 
L 328.365904 183.024535 
L 327.17584 161.783197 
L 325.944773 143.728059 
L 324.724036 128.859123 
L 323.474055 116.11432 
L 322.054662 103.880886 
L 320.543473 92.748848 
L 318.421646 78.941978 
L 316.860554 68.321309 
L 316.287623 63.010974 
L 316.024992 58.762706 
L 315.971006 55.576506 
L 315.971006 55.576506 
" style="fill:none;stroke:#e80000;stroke-width:1.5;"/>
   </g>
   <g id="LineCollection_12">
    <path clip-path="url(#p8e3d02d09e)" d="M 339.807957 293.479494 
L 339.694703 265.865755 
L 339.288756 225.507212 
L 338.586436 177.714201 
L 337.774442 139.479792 
L 337.156853 118.238454 
L 335.951475 88.50058 
L 335.147132 70.445442 
L 334.904888 59.824773 
L 334.88409 55.576506 
L 334.88409 55.576506 
" style="fill:none;stroke:#800000;stroke-width:1.5;"/>
   </g>
   <g id="patch_3">
    <path d="M 57.6 293.479494 
L 57.6 55.576506 
" style="fill:none;stroke:#000000;stroke-linecap:square;stroke-linejoin:miter;stroke-width:0.8;"/>
   </g>
   <g id="patch_4">
    <path d="M 343.296 293.479494 
L 343.296 55.576506 
" style="fill:none;stroke:#000000;stroke-linecap:square;stroke-linejoin:miter;stroke-width:0.8;"/>
   </g>
   <g id="patch_5">
    <path d="M 57.6 293.479494 
L 343.296 293.479494 
" style="fill:none;stroke:#000000;stroke-linecap:square;stroke-linejoin:miter;stroke-width:0.8;"/>
   </g>
   <g id="patch_6">
    <path d="M 57.6 55.576506 
L 343.296 55.576506 
" style="fill:none;stroke:#000000;stroke-linecap:square;stroke-linejoin:miter;stroke-width:0.8;"/>
   </g>
   <g id="text_10">
    <!-- Time:0.13827 s -->
    <defs>
     <path d="M -0.296875 72.90625 
L 61.375 72.90625 
L 61.375 64.59375 
L 35.5 64.59375 
L 35.5 0 
L 25.59375 0 
L 25.59375 64.59375 
L -0.296875 64.59375 
z
" id="DejaVuSans-54"/>
     <path d="M 9.421875 54.6875 
L 18.40625 54.6875 
L 18.40625 0 
L 9.421875 0 
z
M 9.421875 75.984375 
L 18.40625 75.984375 
L 18.40625 64.59375 
L 9.421875 64.59375 
z
" id="DejaVuSans-69"/>
     <path d="M 52 44.1875 
Q 55.375 50.25 60.0625 53.125 
Q 64.75 56 71.09375 56 
Q 79.640625 56 84.28125 50.015625 
Q 88.921875 44.046875 88.921875 33.015625 
L 88.921875 0 
L 79.890625 0 
L 79.890625 32.71875 
Q 79.890625 40.578125 77.09375 44.375 
Q 74.3125 48.1875 68.609375 48.1875 
Q 61.625 48.1875 57.5625 43.546875 
Q 53.515625 38.921875 53.515625 30.90625 
L 53.515625 0 
L 44.484375 0 
L 44.484375 32.71875 
Q 44.484375 40.625 41.703125 44.40625 
Q 38.921875 48.1875 33.109375 48.1875 
Q 26.21875 48.1875 22.15625 43.53125 
Q 18.109375 38.875 18.109375 30.90625 
L 18.109375 0 
L 9.078125 0 
L 9.078125 54.6875 
L 18.109375 54.6875 
L 18.109375 46.1875 
Q 21.1875 51.21875 25.484375 53.609375 
Q 29.78125 56 35.6875 56 
Q 41.65625 56 45.828125 52.96875 
Q 50 49.953125 52 44.1875 
z
" id="DejaVuSans-6d"/>
     <path d="M 56.203125 29.59375 
L 56.203125 25.203125 
L 14.890625 25.203125 
Q 15.484375 15.921875 20.484375 11.0625 
Q 25.484375 6.203125 34.421875 6.203125 
Q 39.59375 6.203125 44.453125 7.46875 
Q 49.3125 8.734375 54.109375 11.28125 
L 54.109375 2.78125 
Q 49.265625 0.734375 44.1875 -0.34375 
Q 39.109375 -1.421875 33.890625 -1.421875 
Q 20.796875 -1.421875 13.15625 6.1875 
Q 5.515625 13.8125 5.515625 26.8125 
Q 5.515625 40.234375 12.765625 48.109375 
Q 20.015625 56 32.328125 56 
Q 43.359375 56 49.78125 48.890625 
Q 56.203125 41.796875 56.203125 29.59375 
z
M 47.21875 32.234375 
Q 47.125 39.59375 43.09375 43.984375 
Q 39.0625 48.390625 32.421875 48.390625 
Q 24.90625 48.390625 20.390625 44.140625 
Q 15.875 39.890625 15.1875 32.171875 
z
" id="DejaVuSans-65"/>
     <path d="M 11.71875 12.40625 
L 22.015625 12.40625 
L 22.015625 0 
L 11.71875 0 
z
M 11.71875 51.703125 
L 22.015625 51.703125 
L 22.015625 39.3125 
L 11.71875 39.3125 
z
" id="DejaVuSans-3a"/>
     <path d="M 40.578125 39.3125 
Q 47.65625 37.796875 51.625 33 
Q 55.609375 28.21875 55.609375 21.1875 
Q 55.609375 10.40625 48.1875 4.484375 
Q 40.765625 -1.421875 27.09375 -1.421875 
Q 22.515625 -1.421875 17.65625 -0.515625 
Q 12.796875 0.390625 7.625 2.203125 
L 7.625 11.71875 
Q 11.71875 9.328125 16.59375 8.109375 
Q 21.484375 6.890625 26.8125 6.890625 
Q 36.078125 6.890625 40.9375 10.546875 
Q 45.796875 14.203125 45.796875 21.1875 
Q 45.796875 27.640625 41.28125 31.265625 
Q 36.765625 34.90625 28.71875 34.90625 
L 20.21875 34.90625 
L 20.21875 43.015625 
L 29.109375 43.015625 
Q 36.375 43.015625 40.234375 45.921875 
Q 44.09375 48.828125 44.09375 54.296875 
Q 44.09375 59.90625 40.109375 62.90625 
Q 36.140625 65.921875 28.71875 65.921875 
Q 24.65625 65.921875 20.015625 65.03125 
Q 15.375 64.15625 9.8125 62.3125 
L 9.8125 71.09375 
Q 15.4375 72.65625 20.34375 73.4375 
Q 25.25 74.21875 29.59375 74.21875 
Q 40.828125 74.21875 47.359375 69.109375 
Q 53.90625 64.015625 53.90625 55.328125 
Q 53.90625 49.265625 50.4375 45.09375 
Q 46.96875 40.921875 40.578125 39.3125 
z
" id="DejaVuSans-33"/>
     <path d="M 8.203125 72.90625 
L 55.078125 72.90625 
L 55.078125 68.703125 
L 28.609375 0 
L 18.3125 0 
L 43.21875 64.59375 
L 8.203125 64.59375 
z
" id="DejaVuSans-37"/>
     <path id="DejaVuSans-20"/>
     <path d="M 44.28125 53.078125 
L 44.28125 44.578125 
Q 40.484375 46.53125 36.375 47.5 
Q 32.28125 48.484375 27.875 48.484375 
Q 21.1875 48.484375 17.84375 46.4375 
Q 14.5 44.390625 14.5 40.28125 
Q 14.5 37.15625 16.890625 35.375 
Q 19.28125 33.59375 26.515625 31.984375 
L 29.59375 31.296875 
Q 39.15625 29.25 43.1875 25.515625 
Q 47.21875 21.78125 47.21875 15.09375 
Q 47.21875 7.46875 41.1875 3.015625 
Q 35.15625 -1.421875 24.609375 -1.421875 
Q 20.21875 -1.421875 15.453125 -0.5625 
Q 10.6875 0.296875 5.421875 2 
L 5.421875 11.28125 
Q 10.40625 8.6875 15.234375 7.390625 
Q 20.0625 6.109375 24.8125 6.109375 
Q 31.15625 6.109375 34.5625 8.28125 
Q 37.984375 10.453125 37.984375 14.40625 
Q 37.984375 18.0625 35.515625 20.015625 
Q 33.0625 21.96875 24.703125 23.78125 
L 21.578125 24.515625 
Q 13.234375 26.265625 9.515625 29.90625 
Q 5.8125 33.546875 5.8125 39.890625 
Q 5.8125 47.609375 11.28125 51.796875 
Q 16.75 56 26.8125 56 
Q 31.78125 56 36.171875 55.265625 
Q 40.578125 54.546875 44.28125 53.078125 
z
" id="DejaVuSans-73"/>
    </defs>
    <g transform="translate(153.717375 49.576506)scale(0.12 -0.12)">
     <use xlink:href="#DejaVuSans-54"/>
     <use x="61.037109" xlink:href="#DejaVuSans-69"/>
     <use x="88.820312" xlink:href="#DejaVuSans-6d"/>
     <use x="186.232422" xlink:href="#DejaVuSans-65"/>
     <use x="247.755859" xlink:href="#DejaVuSans-3a"/>
     <use x="281.447266" xlink:href="#DejaVuSans-30"/>
     <use x="345.070312" xlink:href="#DejaVuSans-2e"/>
     <use x="376.857422" xlink:href="#DejaVuSans-31"/>
     <use x="440.480469" xlink:href="#DejaVuSans-33"/>
     <use x="504.103516" xlink:href="#DejaVuSans-38"/>
     <use x="567.726562" xlink:href="#DejaVuSans-32"/>
     <use x="631.349609" xlink:href="#DejaVuSans-37"/>
     <use x="694.972656" xlink:href="#DejaVuSans-20"/>
     <use x="726.759766" xlink:href="#DejaVuSans-73"/>
    </g>
   </g>
  </g>
  <g id="axes_2">
   <g id="patch_7">
    <path clip-path="url(#p462426a244)" d="M 361.152 307.584 
L 361.152 283.392 
L 361.152 65.664 
L 361.152 41.472 
L 374.4576 41.472 
L 374.4576 65.664 
L 374.4576 283.392 
L 374.4576 307.584 
z
" style="fill:#ffffff;stroke:#ffffff;stroke-linejoin:miter;stroke-width:0.01;"/>
   </g>
   <g id="matplotlib.axis_3"/>
   <g id="matplotlib.axis_4">
    <g id="ytick_5">
     <g id="line2d_10">
      <defs>
       <path d="M 0 0 
L 3.5 0 
" id="mb38de963ee" style="stroke:#000000;stroke-width:0.8;"/>
      </defs>
      <g>
       <use style="stroke:#000000;stroke-width:0.8;" x="374.4576" xlink:href="#mb38de963ee" y="307.584"/>
      </g>
     </g>
     <g id="text_11">
      <!-- 0.08 -->
      <g transform="translate(381.4576 311.383219)scale(0.1 -0.1)">
       <use xlink:href="#DejaVuSans-30"/>
       <use x="63.623047" xlink:href="#DejaVuSans-2e"/>
       <use x="95.410156" xlink:href="#DejaVuSans-30"/>
       <use x="159.033203" xlink:href="#DejaVuSans-38"/>
      </g>
     </g>
    </g>
    <g id="ytick_6">
     <g id="line2d_11">
      <g>
       <use style="stroke:#000000;stroke-width:0.8;" x="374.4576" xlink:href="#mb38de963ee" y="259.2"/>
      </g>
     </g>
     <g id="text_12">
      <!-- 0.24 -->
      <g transform="translate(381.4576 262.999219)scale(0.1 -0.1)">
       <use xlink:href="#DejaVuSans-30"/>
       <use x="63.623047" xlink:href="#DejaVuSans-2e"/>
       <use x="95.410156" xlink:href="#DejaVuSans-32"/>
       <use x="159.033203" xlink:href="#DejaVuSans-34"/>
      </g>
     </g>
    </g>
    <g id="ytick_7">
     <g id="line2d_12">
      <g>
       <use style="stroke:#000000;stroke-width:0.8;" x="374.4576" xlink:href="#mb38de963ee" y="210.816"/>
      </g>
     </g>
     <g id="text_13">
      <!-- 0.40 -->
      <g transform="translate(381.4576 214.615219)scale(0.1 -0.1)">
       <use xlink:href="#DejaVuSans-30"/>
       <use x="63.623047" xlink:href="#DejaVuSans-2e"/>
       <use x="95.410156" xlink:href="#DejaVuSans-34"/>
       <use x="159.033203" xlink:href="#DejaVuSans-30"/>
      </g>
     </g>
    </g>
    <g id="ytick_8">
     <g id="line2d_13">
      <g>
       <use style="stroke:#000000;stroke-width:0.8;" x="374.4576" xlink:href="#mb38de963ee" y="162.432"/>
      </g>
     </g>
     <g id="text_14">
      <!-- 0.56 -->
      <defs>
       <path d="M 10.796875 72.90625 
L 49.515625 72.90625 
L 49.515625 64.59375 
L 19.828125 64.59375 
L 19.828125 46.734375 
Q 21.96875 47.46875 24.109375 47.828125 
Q 26.265625 48.1875 28.421875 48.1875 
Q 40.625 48.1875 47.75 41.5 
Q 54.890625 34.8125 54.890625 23.390625 
Q 54.890625 11.625 47.5625 5.09375 
Q 40.234375 -1.421875 26.90625 -1.421875 
Q 22.3125 -1.421875 17.546875 -0.640625 
Q 12.796875 0.140625 7.71875 1.703125 
L 7.71875 11.625 
Q 12.109375 9.234375 16.796875 8.0625 
Q 21.484375 6.890625 26.703125 6.890625 
Q 35.15625 6.890625 40.078125 11.328125 
Q 45.015625 15.765625 45.015625 23.390625 
Q 45.015625 31 40.078125 35.4375 
Q 35.15625 39.890625 26.703125 39.890625 
Q 22.75 39.890625 18.8125 39.015625 
Q 14.890625 38.140625 10.796875 36.28125 
z
" id="DejaVuSans-35"/>
      </defs>
      <g transform="translate(381.4576 166.231219)scale(0.1 -0.1)">
       <use xlink:href="#DejaVuSans-30"/>
       <use x="63.623047" xlink:href="#DejaVuSans-2e"/>
       <use x="95.410156" xlink:href="#DejaVuSans-35"/>
       <use x="159.033203" xlink:href="#DejaVuSans-36"/>
      </g>
     </g>
    </g>
    <g id="ytick_9">
     <g id="line2d_14">
      <g>
       <use style="stroke:#000000;stroke-width:0.8;" x="374.4576" xlink:href="#mb38de963ee" y="114.048"/>
      </g>
     </g>
     <g id="text_15">
      <!-- 0.72 -->
      <g transform="translate(381.4576 117.847219)scale(0.1 -0.1)">
       <use xlink:href="#DejaVuSans-30"/>
       <use x="63.623047" xlink:href="#DejaVuSans-2e"/>
       <use x="95.410156" xlink:href="#DejaVuSans-37"/>
       <use x="159.033203" xlink:href="#DejaVuSans-32"/>
      </g>
     </g>
    </g>
    <g id="ytick_10">
     <g id="line2d_15">
      <g>
       <use style="stroke:#000000;stroke-width:0.8;" x="374.4576" xlink:href="#mb38de963ee" y="65.664"/>
      </g>
     </g>
     <g id="text_16">
      <!-- 0.88 -->
      <g transform="translate(381.4576 69.463219)scale(0.1 -0.1)">
       <use xlink:href="#DejaVuSans-30"/>
       <use x="63.623047" xlink:href="#DejaVuSans-2e"/>
       <use x="95.410156" xlink:href="#DejaVuSans-38"/>
       <use x="159.033203" xlink:href="#DejaVuSans-38"/>
      </g>
     </g>
    </g>
   </g>
   <g id="LineCollection_13">
    <path clip-path="url(#p462426a244)" d="M 361.152 307.584 
L 374.4576 307.584 
" style="fill:none;stroke:#000080;stroke-width:1.5;"/>
    <path clip-path="url(#p462426a244)" d="M 361.152 283.392 
L 374.4576 283.392 
" style="fill:none;stroke:#0000e8;stroke-width:1.5;"/>
    <path clip-path="url(#p462426a244)" d="M 361.152 259.2 
L 374.4576 259.2 
" style="fill:none;stroke:#0038ff;stroke-width:1.5;"/>
    <path clip-path="url(#p462426a244)" d="M 361.152 235.008 
L 374.4576 235.008 
" style="fill:none;stroke:#0094ff;stroke-width:1.5;"/>
    <path clip-path="url(#p462426a244)" d="M 361.152 210.816 
L 374.4576 210.816 
" style="fill:none;stroke:#0cf4eb;stroke-width:1.5;"/>
    <path clip-path="url(#p462426a244)" d="M 361.152 186.624 
L 374.4576 186.624 
" style="fill:none;stroke:#56ffa0;stroke-width:1.5;"/>
    <path clip-path="url(#p462426a244)" d="M 361.152 162.432 
L 374.4576 162.432 
" style="fill:none;stroke:#a0ff56;stroke-width:1.5;"/>
    <path clip-path="url(#p462426a244)" d="M 361.152 138.24 
L 374.4576 138.24 
" style="fill:none;stroke:#ebff0c;stroke-width:1.5;"/>
    <path clip-path="url(#p462426a244)" d="M 361.152 114.048 
L 374.4576 114.048 
" style="fill:none;stroke:#ffab00;stroke-width:1.5;"/>
    <path clip-path="url(#p462426a244)" d="M 361.152 89.856 
L 374.4576 89.856 
" style="fill:none;stroke:#ff5500;stroke-width:1.5;"/>
    <path clip-path="url(#p462426a244)" d="M 361.152 65.664 
L 374.4576 65.664 
" style="fill:none;stroke:#e80000;stroke-width:1.5;"/>
    <path clip-path="url(#p462426a244)" d="M 361.152 41.472 
L 374.4576 41.472 
" style="fill:none;stroke:#800000;stroke-width:1.5;"/>
   </g>
   <g id="patch_8">
    <path d="M 361.152 307.584 
L 361.152 283.392 
L 361.152 65.664 
L 361.152 41.472 
L 374.4576 41.472 
L 374.4576 65.664 
L 374.4576 283.392 
L 374.4576 307.584 
z
" style="fill:none;stroke:#000000;stroke-linejoin:miter;stroke-width:0.8;"/>
   </g>
  </g>
 </g>
 <defs>
  <clipPath id="p8e3d02d09e">
   <rect height="237.902989" width="285.696" x="57.6" y="55.576506"/>
  </clipPath>
  <clipPath id="p462426a244">
   <rect height="266.112" width="13.3056" x="361.152" y="41.472"/>
  </clipPath>
 </defs>
</svg>
