<?xml version="1.0" encoding="utf-8" standalone="no"?>
<!DOCTYPE svg PUBLIC "-//W3C//DTD SVG 1.1//EN"
  "http://www.w3.org/Graphics/SVG/1.1/DTD/svg11.dtd">
<!-- Created with matplotlib (http://matplotlib.org/) -->
<svg height="345.6pt" version="1.1" viewBox="0 0 460.8 345.6" width="460.8pt" xmlns="http://www.w3.org/2000/svg" xmlns:xlink="http://www.w3.org/1999/xlink">
 <defs>
  <style type="text/css">
*{stroke-linecap:butt;stroke-linejoin:round;}
  </style>
 </defs>
 <g id="figure_1">
  <g id="patch_1">
   <path d="M 0 345.6 
L 460.8 345.6 
L 460.8 0 
L 0 0 
z
" style="fill:#ffffff;"/>
  </g>
  <g id="axes_1">
   <g id="patch_2">
    <path d="M 57.6 293.479494 
L 343.296 293.479494 
L 343.296 55.576506 
L 57.6 55.576506 
z
" style="fill:#ffffff;"/>
   </g>
   <g id="matplotlib.axis_1">
    <g id="xtick_1">
     <g id="line2d_1">
      <defs>
       <path d="M 0 0 
L 0 3.5 
" id="mc4f4e20b78" style="stroke:#000000;stroke-width:0.8;"/>
      </defs>
      <g>
       <use style="stroke:#000000;stroke-width:0.8;" x="104.861978" xlink:href="#mc4f4e20b78" y="293.479494"/>
      </g>
     </g>
     <g id="text_1">
      <!-- 0.2 -->
      <defs>
       <path d="M 31.78125 66.40625 
Q 24.171875 66.40625 20.328125 58.90625 
Q 16.5 51.421875 16.5 36.375 
Q 16.5 21.390625 20.328125 13.890625 
Q 24.171875 6.390625 31.78125 6.390625 
Q 39.453125 6.390625 43.28125 13.890625 
Q 47.125 21.390625 47.125 36.375 
Q 47.125 51.421875 43.28125 58.90625 
Q 39.453125 66.40625 31.78125 66.40625 
z
M 31.78125 74.21875 
Q 44.046875 74.21875 50.515625 64.515625 
Q 56.984375 54.828125 56.984375 36.375 
Q 56.984375 17.96875 50.515625 8.265625 
Q 44.046875 -1.421875 31.78125 -1.421875 
Q 19.53125 -1.421875 13.0625 8.265625 
Q 6.59375 17.96875 6.59375 36.375 
Q 6.59375 54.828125 13.0625 64.515625 
Q 19.53125 74.21875 31.78125 74.21875 
z
" id="DejaVuSans-30"/>
       <path d="M 10.6875 12.40625 
L 21 12.40625 
L 21 0 
L 10.6875 0 
z
" id="DejaVuSans-2e"/>
       <path d="M 19.1875 8.296875 
L 53.609375 8.296875 
L 53.609375 0 
L 7.328125 0 
L 7.328125 8.296875 
Q 12.9375 14.109375 22.625 23.890625 
Q 32.328125 33.6875 34.8125 36.53125 
Q 39.546875 41.84375 41.421875 45.53125 
Q 43.3125 49.21875 43.3125 52.78125 
Q 43.3125 58.59375 39.234375 62.25 
Q 35.15625 65.921875 28.609375 65.921875 
Q 23.96875 65.921875 18.8125 64.3125 
Q 13.671875 62.703125 7.8125 59.421875 
L 7.8125 69.390625 
Q 13.765625 71.78125 18.9375 73 
Q 24.125 74.21875 28.421875 74.21875 
Q 39.75 74.21875 46.484375 68.546875 
Q 53.21875 62.890625 53.21875 53.421875 
Q 53.21875 48.921875 51.53125 44.890625 
Q 49.859375 40.875 45.40625 35.40625 
Q 44.1875 33.984375 37.640625 27.21875 
Q 31.109375 20.453125 19.1875 8.296875 
z
" id="DejaVuSans-32"/>
      </defs>
      <g transform="translate(96.910415 308.077932)scale(0.1 -0.1)">
       <use xlink:href="#DejaVuSans-30"/>
       <use x="63.623047" xlink:href="#DejaVuSans-2e"/>
       <use x="95.410156" xlink:href="#DejaVuSans-32"/>
      </g>
     </g>
    </g>
    <g id="xtick_2">
     <g id="line2d_2">
      <g>
       <use style="stroke:#000000;stroke-width:0.8;" x="152.654989" xlink:href="#mc4f4e20b78" y="293.479494"/>
      </g>
     </g>
     <g id="text_2">
      <!-- 0.4 -->
      <defs>
       <path d="M 37.796875 64.3125 
L 12.890625 25.390625 
L 37.796875 25.390625 
z
M 35.203125 72.90625 
L 47.609375 72.90625 
L 47.609375 25.390625 
L 58.015625 25.390625 
L 58.015625 17.1875 
L 47.609375 17.1875 
L 47.609375 0 
L 37.796875 0 
L 37.796875 17.1875 
L 4.890625 17.1875 
L 4.890625 26.703125 
z
" id="DejaVuSans-34"/>
      </defs>
      <g transform="translate(144.703426 308.077932)scale(0.1 -0.1)">
       <use xlink:href="#DejaVuSans-30"/>
       <use x="63.623047" xlink:href="#DejaVuSans-2e"/>
       <use x="95.410156" xlink:href="#DejaVuSans-34"/>
      </g>
     </g>
    </g>
    <g id="xtick_3">
     <g id="line2d_3">
      <g>
       <use style="stroke:#000000;stroke-width:0.8;" x="200.448" xlink:href="#mc4f4e20b78" y="293.479494"/>
      </g>
     </g>
     <g id="text_3">
      <!-- 0.6 -->
      <defs>
       <path d="M 33.015625 40.375 
Q 26.375 40.375 22.484375 35.828125 
Q 18.609375 31.296875 18.609375 23.390625 
Q 18.609375 15.53125 22.484375 10.953125 
Q 26.375 6.390625 33.015625 6.390625 
Q 39.65625 6.390625 43.53125 10.953125 
Q 47.40625 15.53125 47.40625 23.390625 
Q 47.40625 31.296875 43.53125 35.828125 
Q 39.65625 40.375 33.015625 40.375 
z
M 52.59375 71.296875 
L 52.59375 62.3125 
Q 48.875 64.0625 45.09375 64.984375 
Q 41.3125 65.921875 37.59375 65.921875 
Q 27.828125 65.921875 22.671875 59.328125 
Q 17.53125 52.734375 16.796875 39.40625 
Q 19.671875 43.65625 24.015625 45.921875 
Q 28.375 48.1875 33.59375 48.1875 
Q 44.578125 48.1875 50.953125 41.515625 
Q 57.328125 34.859375 57.328125 23.390625 
Q 57.328125 12.15625 50.6875 5.359375 
Q 44.046875 -1.421875 33.015625 -1.421875 
Q 20.359375 -1.421875 13.671875 8.265625 
Q 6.984375 17.96875 6.984375 36.375 
Q 6.984375 53.65625 15.1875 63.9375 
Q 23.390625 74.21875 37.203125 74.21875 
Q 40.921875 74.21875 44.703125 73.484375 
Q 48.484375 72.75 52.59375 71.296875 
z
" id="DejaVuSans-36"/>
      </defs>
      <g transform="translate(192.496438 308.077932)scale(0.1 -0.1)">
       <use xlink:href="#DejaVuSans-30"/>
       <use x="63.623047" xlink:href="#DejaVuSans-2e"/>
       <use x="95.410156" xlink:href="#DejaVuSans-36"/>
      </g>
     </g>
    </g>
    <g id="xtick_4">
     <g id="line2d_4">
      <g>
       <use style="stroke:#000000;stroke-width:0.8;" x="248.241011" xlink:href="#mc4f4e20b78" y="293.479494"/>
      </g>
     </g>
     <g id="text_4">
      <!-- 0.8 -->
      <defs>
       <path d="M 31.78125 34.625 
Q 24.75 34.625 20.71875 30.859375 
Q 16.703125 27.09375 16.703125 20.515625 
Q 16.703125 13.921875 20.71875 10.15625 
Q 24.75 6.390625 31.78125 6.390625 
Q 38.8125 6.390625 42.859375 10.171875 
Q 46.921875 13.96875 46.921875 20.515625 
Q 46.921875 27.09375 42.890625 30.859375 
Q 38.875 34.625 31.78125 34.625 
z
M 21.921875 38.8125 
Q 15.578125 40.375 12.03125 44.71875 
Q 8.5 49.078125 8.5 55.328125 
Q 8.5 64.0625 14.71875 69.140625 
Q 20.953125 74.21875 31.78125 74.21875 
Q 42.671875 74.21875 48.875 69.140625 
Q 55.078125 64.0625 55.078125 55.328125 
Q 55.078125 49.078125 51.53125 44.71875 
Q 48 40.375 41.703125 38.8125 
Q 48.828125 37.15625 52.796875 32.3125 
Q 56.78125 27.484375 56.78125 20.515625 
Q 56.78125 9.90625 50.3125 4.234375 
Q 43.84375 -1.421875 31.78125 -1.421875 
Q 19.734375 -1.421875 13.25 4.234375 
Q 6.78125 9.90625 6.78125 20.515625 
Q 6.78125 27.484375 10.78125 32.3125 
Q 14.796875 37.15625 21.921875 38.8125 
z
M 18.3125 54.390625 
Q 18.3125 48.734375 21.84375 45.5625 
Q 25.390625 42.390625 31.78125 42.390625 
Q 38.140625 42.390625 41.71875 45.5625 
Q 45.3125 48.734375 45.3125 54.390625 
Q 45.3125 60.0625 41.71875 63.234375 
Q 38.140625 66.40625 31.78125 66.40625 
Q 25.390625 66.40625 21.84375 63.234375 
Q 18.3125 60.0625 18.3125 54.390625 
z
" id="DejaVuSans-38"/>
      </defs>
      <g transform="translate(240.289449 308.077932)scale(0.1 -0.1)">
       <use xlink:href="#DejaVuSans-30"/>
       <use x="63.623047" xlink:href="#DejaVuSans-2e"/>
       <use x="95.410156" xlink:href="#DejaVuSans-38"/>
      </g>
     </g>
    </g>
    <g id="xtick_5">
     <g id="line2d_5">
      <g>
       <use style="stroke:#000000;stroke-width:0.8;" x="296.034022" xlink:href="#mc4f4e20b78" y="293.479494"/>
      </g>
     </g>
     <g id="text_5">
      <!-- 1.0 -->
      <defs>
       <path d="M 12.40625 8.296875 
L 28.515625 8.296875 
L 28.515625 63.921875 
L 10.984375 60.40625 
L 10.984375 69.390625 
L 28.421875 72.90625 
L 38.28125 72.90625 
L 38.28125 8.296875 
L 54.390625 8.296875 
L 54.390625 0 
L 12.40625 0 
z
" id="DejaVuSans-31"/>
      </defs>
      <g transform="translate(288.08246 308.077932)scale(0.1 -0.1)">
       <use xlink:href="#DejaVuSans-31"/>
       <use x="63.623047" xlink:href="#DejaVuSans-2e"/>
       <use x="95.410156" xlink:href="#DejaVuSans-30"/>
      </g>
     </g>
    </g>
   </g>
   <g id="matplotlib.axis_2">
    <g id="ytick_1">
     <g id="line2d_6">
      <defs>
       <path d="M 0 0 
L -3.5 0 
" id="md93e42bb13" style="stroke:#000000;stroke-width:0.8;"/>
      </defs>
      <g>
       <use style="stroke:#000000;stroke-width:0.8;" x="57.6" xlink:href="#md93e42bb13" y="246.217517"/>
      </g>
     </g>
     <g id="text_6">
      <!-- 0.2 -->
      <g transform="translate(34.696875 250.016735)scale(0.1 -0.1)">
       <use xlink:href="#DejaVuSans-30"/>
       <use x="63.623047" xlink:href="#DejaVuSans-2e"/>
       <use x="95.410156" xlink:href="#DejaVuSans-32"/>
      </g>
     </g>
    </g>
    <g id="ytick_2">
     <g id="line2d_7">
      <g>
       <use style="stroke:#000000;stroke-width:0.8;" x="57.6" xlink:href="#md93e42bb13" y="198.424506"/>
      </g>
     </g>
     <g id="text_7">
      <!-- 0.4 -->
      <g transform="translate(34.696875 202.223724)scale(0.1 -0.1)">
       <use xlink:href="#DejaVuSans-30"/>
       <use x="63.623047" xlink:href="#DejaVuSans-2e"/>
       <use x="95.410156" xlink:href="#DejaVuSans-34"/>
      </g>
     </g>
    </g>
    <g id="ytick_3">
     <g id="line2d_8">
      <g>
       <use style="stroke:#000000;stroke-width:0.8;" x="57.6" xlink:href="#md93e42bb13" y="150.631494"/>
      </g>
     </g>
     <g id="text_8">
      <!-- 0.6 -->
      <g transform="translate(34.696875 154.430713)scale(0.1 -0.1)">
       <use xlink:href="#DejaVuSans-30"/>
       <use x="63.623047" xlink:href="#DejaVuSans-2e"/>
       <use x="95.410156" xlink:href="#DejaVuSans-36"/>
      </g>
     </g>
    </g>
    <g id="ytick_4">
     <g id="line2d_9">
      <g>
       <use style="stroke:#000000;stroke-width:0.8;" x="57.6" xlink:href="#md93e42bb13" y="102.838483"/>
      </g>
     </g>
     <g id="text_9">
      <!-- 0.8 -->
      <g transform="translate(34.696875 106.637702)scale(0.1 -0.1)">
       <use xlink:href="#DejaVuSans-30"/>
       <use x="63.623047" xlink:href="#DejaVuSans-2e"/>
       <use x="95.410156" xlink:href="#DejaVuSans-38"/>
      </g>
     </g>
    </g>
   </g>
   <g id="LineCollection_1">
    <path clip-path="url(#p66eed2165c)" d="M 287.829155 293.479494 
L 288.557204 288.16916 
L 288.588781 284.982959 
L 288.266755 279.672625 
L 287.429525 270.114022 
L 285.985256 250.996818 
L 285.11627 239.314082 
L 283.820253 222.219749 
L 281.96261 200.017606 
L 280.903907 188.33487 
L 280.037602 179.838335 
L 278.914497 170.279732 
L 278.019674 163.907331 
L 276.936819 157.534929 
L 276.048217 153.286662 
L 274.903844 149.038394 
L 274.193097 146.91426 
L 273.199584 144.677146 
L 271.841521 142.665993 
L 270.71178 141.603926 
L 270.013383 141.140038 
L 268.951316 140.734125 
L 267.889249 140.554732 
L 266.802776 140.541859 
L 264.703048 140.821537 
L 261.516848 141.61855 
L 253.020312 144.22263 
L 221.158305 154.089238 
L 213.723836 156.074043 
L 206.289368 157.830035 
L 199.916967 159.120595 
L 193.544565 160.185838 
L 187.172164 161.00259 
L 181.861829 161.479236 
L 175.77057 161.783197 
L 171.24116 161.837889 
L 165.930825 161.707495 
L 160.620491 161.366705 
L 155.310156 160.811685 
L 148.937755 159.879181 
L 142.154638 158.596996 
L 135.130885 157.063222 
L 125.572283 154.998328 
L 121.324015 154.301758 
L 118.137814 153.990003 
L 114.951613 153.940522 
L 112.82748 154.1111 
L 110.703346 154.502202 
L 108.579212 155.183037 
L 107.517145 155.657555 
L 105.393011 156.94728 
L 104.330944 157.792375 
L 102.481833 159.659063 
L 101.144743 161.338482 
L 99.432658 163.907331 
L 97.556489 167.093532 
L 93.710275 173.69291 
L 91.586141 176.86256 
L 89.462007 179.555143 
L 88.225824 180.900401 
L 86.275807 182.704885 
L 84.383049 184.086602 
L 83.089606 184.837294 
L 80.965472 185.702887 
L 79.903405 185.96382 
L 78.841338 186.104341 
L 77.779271 186.11745 
L 76.717204 185.993816 
L 75.655138 185.721122 
L 74.360545 185.148669 
L 73.531004 184.656815 
L 72.468937 183.813898 
L 71.40687 182.714672 
L 70.092655 180.900401 
L 68.917931 178.776268 
L 67.981148 176.652134 
L 66.867725 173.465933 
L 65.721772 169.217665 
L 64.824402 164.969398 
L 63.944468 159.659063 
L 63.149727 153.286662 
L 62.457931 145.852193 
L 61.808262 136.293591 
L 61.157749 122.486721 
L 60.409933 101.245383 
L 59.678988 74.69371 
L 59.559466 63.010974 
L 59.724134 56.598098 
L 59.747495 55.576506 
L 59.747495 55.576506 
" style="fill:none;stroke:#000080;stroke-width:1.5;"/>
   </g>
   <g id="LineCollection_2">
    <path clip-path="url(#p66eed2165c)" d="M 290.735987 293.479494 
L 291.130111 287.107093 
L 290.983394 282.858825 
L 288.423366 235.065814 
L 284.821673 156.472862 
L 283.111589 127.797056 
L 282.216191 116.11432 
L 281.206386 105.493651 
L 280.273977 98.059182 
L 279.334736 92.748848 
L 278.509918 89.4069 
L 277.420047 86.376446 
L 276.324429 84.252312 
L 275.323717 82.839602 
L 274.261651 81.730689 
L 273.199584 80.915655 
L 272.137517 80.360362 
L 271.07545 79.980294 
L 270.013383 79.812519 
L 268.951316 79.801815 
L 267.687806 80.004045 
L 266.827182 80.321562 
L 265.544482 81.066112 
L 264.505477 82.128178 
L 263.640981 83.71788 
L 263.130719 85.314379 
L 261.590578 91.686781 
L 260.706364 93.810914 
L 259.506182 95.935048 
L 258.330647 97.560618 
L 256.988687 99.121249 
L 254.765814 101.245383 
L 251.958245 103.452548 
L 248.772045 105.582375 
L 244.523777 108.04931 
L 240.275509 110.242161 
L 234.965175 112.708141 
L 229.356746 115.052253 
L 223.282439 117.34517 
L 216.910037 119.521892 
L 209.475569 121.829184 
L 199.688836 124.610855 
L 162.744625 134.827597 
L 158.496357 135.735263 
L 154.248089 136.446125 
L 149.999822 136.929084 
L 145.751554 137.183003 
L 141.503286 137.211598 
L 137.255019 137.035162 
L 131.944684 136.579696 
L 125.572283 135.788122 
L 112.82748 134.113036 
L 108.579212 133.793603 
L 105.393011 133.744328 
L 102.20681 133.930696 
L 100.082677 134.228438 
L 97.958543 134.703129 
L 95.834409 135.39539 
L 93.710275 136.355143 
L 91.586141 137.643789 
L 89.462007 139.322258 
L 88.187997 140.541859 
L 86.275807 142.682481 
L 83.84757 145.852193 
L 80.965472 149.715268 
L 79.631916 151.162528 
L 78.314113 152.224595 
L 77.779271 152.567011 
L 76.717204 152.920861 
L 75.655138 152.911539 
L 74.593071 152.506382 
L 73.531004 151.665601 
L 72.336495 150.100461 
L 71.217143 147.976327 
L 70.019384 144.790126 
L 69.108358 141.603926 
L 67.979699 136.293591 
L 66.975354 129.92119 
L 65.968478 121.424654 
L 64.808217 108.679851 
L 63.486712 90.624714 
L 62.699059 76.817844 
L 62.414098 68.321309 
L 62.433321 63.010974 
L 62.705916 58.762706 
L 62.965428 55.576506 
L 62.965428 55.576506 
" style="fill:none;stroke:#0000e8;stroke-width:1.5;"/>
   </g>
   <g id="LineCollection_3">
    <path clip-path="url(#p66eed2165c)" d="M 292.611334 293.479494 
L 292.765261 286.045026 
L 292.484524 278.610558 
L 291.144051 246.74855 
L 290.170313 218.072743 
L 288.490009 166.031465 
L 287.137724 127.797056 
L 286.350312 109.741918 
L 285.756856 99.121249 
L 285.09228 91.686781 
L 284.663671 88.50058 
L 283.820253 84.111216 
L 282.758186 80.55121 
L 281.605888 77.879911 
L 280.328196 75.755777 
L 279.53017 74.69371 
L 278.509918 73.592993 
L 277.31573 72.569576 
L 275.323717 71.312667 
L 273.199584 70.417293 
L 271.07545 69.880853 
L 268.951316 69.579842 
L 266.827182 69.481164 
L 264.703048 69.553666 
L 261.516848 69.917956 
L 258.330647 70.517528 
L 254.082379 71.691567 
L 250.896178 72.822226 
L 247.709978 74.173783 
L 244.476563 75.755777 
L 240.275509 78.22224 
L 237.089309 80.37139 
L 233.903108 82.759959 
L 230.716907 85.318327 
L 224.344506 90.523819 
L 220.096238 93.545465 
L 216.910037 95.457831 
L 213.723836 97.081678 
L 210.537636 98.470904 
L 206.289368 100.009776 
L 202.0411 101.276056 
L 197.792833 102.343392 
L 192.482498 103.482224 
L 185.04803 104.854317 
L 175.489428 106.380036 
L 168.054959 107.350428 
L 161.682558 107.962624 
L 155.310156 108.338201 
L 148.937755 108.477081 
L 142.565353 108.396418 
L 136.192952 108.108876 
L 128.758483 107.525231 
L 112.82748 106.070643 
L 108.579212 106.000809 
L 105.393011 106.149154 
L 101.803895 106.555717 
L 99.02061 107.046357 
L 95.834409 107.783913 
L 91.586141 109.021302 
L 86.275807 110.873715 
L 83.089606 111.961869 
L 80.965472 112.468772 
L 79.903405 112.574097 
L 78.841338 112.519677 
L 77.779271 112.245874 
L 76.717204 111.679869 
L 75.655138 110.735935 
L 74.593071 109.320714 
L 73.214735 106.555717 
L 72.38263 104.431584 
L 71.121351 100.183316 
L 69.900783 94.872981 
L 68.932721 89.562647 
L 68.023474 83.190245 
L 67.297924 75.755777 
L 67.084708 71.507509 
L 67.118574 67.259242 
L 67.296112 65.135108 
L 67.63521 63.010974 
L 68.220669 60.548604 
L 69.130951 57.700639 
L 69.363693 56.638572 
L 69.435241 55.576506 
L 69.435241 55.576506 
" style="fill:none;stroke:#0038ff;stroke-width:1.5;"/>
   </g>
   <g id="LineCollection_4">
    <path clip-path="url(#p66eed2165c)" d="M 294.107586 293.479494 
L 294.074711 282.858825 
L 291.586571 196.831405 
L 289.752078 125.672922 
L 288.926952 101.245383 
L 288.41516 92.748848 
L 287.882801 87.438513 
L 287.214872 83.190245 
L 286.484647 80.004045 
L 285.853193 77.879911 
L 284.88232 75.39779 
L 283.820253 73.337345 
L 282.589113 71.507509 
L 281.696119 70.435603 
L 280.627451 69.383375 
L 279.266025 68.321309 
L 277.447851 67.239402 
L 275.323717 66.369429 
L 273.199584 65.797275 
L 271.07545 65.440013 
L 267.889249 65.203468 
L 264.703048 65.242872 
L 261.516848 65.486991 
L 257.26858 66.053411 
L 253.020312 66.873112 
L 248.772045 67.91959 
L 244.523777 69.189514 
L 240.275509 70.682219 
L 235.571728 72.569576 
L 229.65484 75.235262 
L 216.910037 81.130427 
L 212.66177 82.791347 
L 209.475569 83.847893 
L 206.289368 84.720573 
L 203.103167 85.40363 
L 199.916967 85.894796 
L 195.668699 86.283277 
L 191.420431 86.403606 
L 187.172164 86.31461 
L 180.799762 85.929464 
L 157.43429 84.056851 
L 152.123955 83.494482 
L 148.937755 83.015786 
L 144.855668 82.128178 
L 142.565353 81.425443 
L 140.441219 80.629945 
L 138.317086 79.669442 
L 136.192952 78.521375 
L 133.516048 76.817844 
L 130.821946 74.69371 
L 129.717664 73.631643 
L 128.758483 72.488963 
L 128.123047 71.507509 
L 127.690358 70.445442 
L 127.508524 69.383375 
L 127.696416 67.800654 
L 127.828625 67.259242 
L 128.771574 65.135108 
L 130.949995 60.88684 
L 131.619843 58.762706 
L 131.785907 57.700639 
L 131.831334 56.638572 
L 131.752671 55.576506 
L 131.752671 55.576506 
" style="fill:none;stroke:#0094ff;stroke-width:1.5;"/>
   </g>
   <g id="LineCollection_5">
    <path clip-path="url(#p66eed2165c)" d="M 295.442062 293.479494 
L 295.308881 279.672625 
L 293.196634 186.210736 
L 291.52682 108.679851 
L 291.063943 95.935048 
L 290.558076 88.50058 
L 290.093391 84.252312 
L 289.388182 80.004045 
L 288.627897 76.817844 
L 287.970066 74.69371 
L 287.006454 72.288477 
L 285.944387 70.254337 
L 284.615914 68.321309 
L 283.697812 67.259242 
L 282.568636 66.197175 
L 280.634052 64.830371 
L 278.509918 63.79032 
L 276.152726 63.010974 
L 274.261651 62.583224 
L 271.07545 62.128808 
L 267.889249 61.905714 
L 263.640981 61.842008 
L 258.330647 62.020475 
L 251.958245 62.465888 
L 244.523777 63.243763 
L 232.841041 64.422226 
L 229.65484 64.460186 
L 227.530706 64.267357 
L 226.468639 64.05607 
L 225.406572 63.59981 
L 224.344506 62.862151 
L 223.735139 61.948907 
L 223.487462 60.88684 
L 223.4985 59.824773 
L 223.910022 57.700639 
L 224.527867 55.576506 
L 224.527867 55.576506 
" style="fill:none;stroke:#0cf4eb;stroke-width:1.5;"/>
   </g>
   <g id="LineCollection_6">
    <path clip-path="url(#p66eed2165c)" d="M 299.441522 293.479494 
L 299.308508 286.045026 
L 298.946286 279.672625 
L 298.213583 271.176089 
L 296.478535 252.058885 
L 295.456301 218.072743 
L 293.272096 99.121249 
L 292.878357 90.624714 
L 292.374652 84.252312 
L 291.835362 80.004045 
L 291.254721 76.704602 
L 290.510289 73.631643 
L 289.845726 71.507509 
L 289.009121 69.383375 
L 287.913046 67.259242 
L 287.006454 65.898895 
L 285.944387 64.637689 
L 284.88232 63.637133 
L 283.820253 62.826553 
L 281.696119 61.600708 
L 279.571985 60.711599 
L 276.689904 59.824773 
L 274.261651 59.172773 
L 271.07545 58.355727 
L 268.916969 57.700639 
L 267.448986 56.638572 
L 267.471628 55.576506 
L 267.471628 55.576506 
" style="fill:none;stroke:#56ffa0;stroke-width:1.5;"/>
   </g>
   <g id="LineCollection_7">
    <path clip-path="url(#p66eed2165c)" d="M 305.988608 293.479494 
L 305.877449 286.045026 
L 305.51615 277.548491 
L 304.815182 266.927822 
L 302.655434 239.314082 
L 300.37255 208.514141 
L 297.482948 166.031465 
L 296.508708 150.100461 
L 295.582072 115.052253 
L 294.524365 85.314379 
L 294.05385 80.004045 
L 293.378855 74.968509 
L 292.702136 71.507509 
L 291.839357 68.321309 
L 291.054713 66.197175 
L 289.976927 64.073041 
L 289.130587 62.817874 
L 288.06852 61.569054 
L 286.111741 59.824773 
L 284.88232 58.8792 
L 284.702634 58.762706 
L 282.20255 56.638572 
L 281.520142 55.576506 
L 281.520142 55.576506 
" style="fill:none;stroke:#a0ff56;stroke-width:1.5;"/>
   </g>
   <g id="LineCollection_8">
    <path clip-path="url(#p66eed2165c)" d="M 312.683096 293.479494 
L 312.554613 283.920892 
L 312.169283 273.300223 
L 311.365498 258.431286 
L 306.782309 179.838335 
L 304.381519 137.355658 
L 303.264154 121.424654 
L 302.327649 110.803985 
L 301.375639 102.30745 
L 300.469284 95.935048 
L 299.524046 90.624714 
L 298.592535 86.376446 
L 297.447522 82.128178 
L 296.507341 78.941978 
L 295.707255 73.631643 
L 295.375888 71.507509 
L 294.721749 67.259242 
L 294.00169 64.073041 
L 293.342009 61.948907 
L 291.254721 56.128667 
L 291.115957 55.576506 
L 291.115957 55.576506 
" style="fill:none;stroke:#ebff0c;stroke-width:1.5;"/>
   </g>
   <g id="LineCollection_9">
    <path clip-path="url(#p66eed2165c)" d="M 319.491502 293.479494 
L 319.362291 281.796758 
L 318.991005 269.051955 
L 318.187658 249.934751 
L 315.000364 177.714201 
L 313.261837 138.417725 
L 312.287218 121.424654 
L 311.404628 109.741918 
L 310.458234 100.183316 
L 309.514711 92.748848 
L 308.512698 86.376446 
L 307.292916 80.004045 
L 305.835966 73.631643 
L 302.470162 59.824773 
L 302.205351 57.700639 
L 302.128935 55.576506 
L 302.128935 55.576506 
" style="fill:none;stroke:#ffab00;stroke-width:1.5;"/>
   </g>
   <g id="LineCollection_10">
    <path clip-path="url(#p66eed2165c)" d="M 326.380303 293.479494 
L 326.264543 279.672625 
L 325.890131 262.679554 
L 324.938183 231.879613 
L 322.929659 166.031465 
L 321.862781 134.169457 
L 321.081202 117.176387 
L 320.279174 104.431584 
L 319.398081 93.810914 
L 318.293729 83.190245 
L 316.219179 64.073041 
L 315.931864 58.762706 
L 315.888404 55.576506 
L 315.888404 55.576506 
" style="fill:none;stroke:#ff5500;stroke-width:1.5;"/>
   </g>
   <g id="LineCollection_11">
    <path clip-path="url(#p66eed2165c)" d="M 333.322925 293.479494 
L 333.201781 274.36229 
L 332.781172 246.74855 
L 330.466486 126.734989 
L 329.82569 107.617784 
L 329.065632 91.686781 
L 327.588478 63.010974 
L 327.487887 55.576506 
L 327.487887 55.576506 
" style="fill:none;stroke:#e80000;stroke-width:1.5;"/>
   </g>
   <g id="LineCollection_12">
    <path clip-path="url(#p66eed2165c)" d="M 340.296119 293.479494 
L 340.203083 258.431286 
L 339.731517 178.776268 
L 339.240452 113.990186 
L 338.709774 78.941978 
L 338.449456 59.824773 
L 338.439796 55.576506 
L 338.439796 55.576506 
" style="fill:none;stroke:#800000;stroke-width:1.5;"/>
   </g>
   <g id="patch_3">
    <path d="M 57.6 293.479494 
L 57.6 55.576506 
" style="fill:none;stroke:#000000;stroke-linecap:square;stroke-linejoin:miter;stroke-width:0.8;"/>
   </g>
   <g id="patch_4">
    <path d="M 343.296 293.479494 
L 343.296 55.576506 
" style="fill:none;stroke:#000000;stroke-linecap:square;stroke-linejoin:miter;stroke-width:0.8;"/>
   </g>
   <g id="patch_5">
    <path d="M 57.6 293.479494 
L 343.296 293.479494 
" style="fill:none;stroke:#000000;stroke-linecap:square;stroke-linejoin:miter;stroke-width:0.8;"/>
   </g>
   <g id="patch_6">
    <path d="M 57.6 55.576506 
L 343.296 55.576506 
" style="fill:none;stroke:#000000;stroke-linecap:square;stroke-linejoin:miter;stroke-width:0.8;"/>
   </g>
   <g id="text_10">
    <!-- Time:0.01317 s -->
    <defs>
     <path d="M -0.296875 72.90625 
L 61.375 72.90625 
L 61.375 64.59375 
L 35.5 64.59375 
L 35.5 0 
L 25.59375 0 
L 25.59375 64.59375 
L -0.296875 64.59375 
z
" id="DejaVuSans-54"/>
     <path d="M 9.421875 54.6875 
L 18.40625 54.6875 
L 18.40625 0 
L 9.421875 0 
z
M 9.421875 75.984375 
L 18.40625 75.984375 
L 18.40625 64.59375 
L 9.421875 64.59375 
z
" id="DejaVuSans-69"/>
     <path d="M 52 44.1875 
Q 55.375 50.25 60.0625 53.125 
Q 64.75 56 71.09375 56 
Q 79.640625 56 84.28125 50.015625 
Q 88.921875 44.046875 88.921875 33.015625 
L 88.921875 0 
L 79.890625 0 
L 79.890625 32.71875 
Q 79.890625 40.578125 77.09375 44.375 
Q 74.3125 48.1875 68.609375 48.1875 
Q 61.625 48.1875 57.5625 43.546875 
Q 53.515625 38.921875 53.515625 30.90625 
L 53.515625 0 
L 44.484375 0 
L 44.484375 32.71875 
Q 44.484375 40.625 41.703125 44.40625 
Q 38.921875 48.1875 33.109375 48.1875 
Q 26.21875 48.1875 22.15625 43.53125 
Q 18.109375 38.875 18.109375 30.90625 
L 18.109375 0 
L 9.078125 0 
L 9.078125 54.6875 
L 18.109375 54.6875 
L 18.109375 46.1875 
Q 21.1875 51.21875 25.484375 53.609375 
Q 29.78125 56 35.6875 56 
Q 41.65625 56 45.828125 52.96875 
Q 50 49.953125 52 44.1875 
z
" id="DejaVuSans-6d"/>
     <path d="M 56.203125 29.59375 
L 56.203125 25.203125 
L 14.890625 25.203125 
Q 15.484375 15.921875 20.484375 11.0625 
Q 25.484375 6.203125 34.421875 6.203125 
Q 39.59375 6.203125 44.453125 7.46875 
Q 49.3125 8.734375 54.109375 11.28125 
L 54.109375 2.78125 
Q 49.265625 0.734375 44.1875 -0.34375 
Q 39.109375 -1.421875 33.890625 -1.421875 
Q 20.796875 -1.421875 13.15625 6.1875 
Q 5.515625 13.8125 5.515625 26.8125 
Q 5.515625 40.234375 12.765625 48.109375 
Q 20.015625 56 32.328125 56 
Q 43.359375 56 49.78125 48.890625 
Q 56.203125 41.796875 56.203125 29.59375 
z
M 47.21875 32.234375 
Q 47.125 39.59375 43.09375 43.984375 
Q 39.0625 48.390625 32.421875 48.390625 
Q 24.90625 48.390625 20.390625 44.140625 
Q 15.875 39.890625 15.1875 32.171875 
z
" id="DejaVuSans-65"/>
     <path d="M 11.71875 12.40625 
L 22.015625 12.40625 
L 22.015625 0 
L 11.71875 0 
z
M 11.71875 51.703125 
L 22.015625 51.703125 
L 22.015625 39.3125 
L 11.71875 39.3125 
z
" id="DejaVuSans-3a"/>
     <path d="M 40.578125 39.3125 
Q 47.65625 37.796875 51.625 33 
Q 55.609375 28.21875 55.609375 21.1875 
Q 55.609375 10.40625 48.1875 4.484375 
Q 40.765625 -1.421875 27.09375 -1.421875 
Q 22.515625 -1.421875 17.65625 -0.515625 
Q 12.796875 0.390625 7.625 2.203125 
L 7.625 11.71875 
Q 11.71875 9.328125 16.59375 8.109375 
Q 21.484375 6.890625 26.8125 6.890625 
Q 36.078125 6.890625 40.9375 10.546875 
Q 45.796875 14.203125 45.796875 21.1875 
Q 45.796875 27.640625 41.28125 31.265625 
Q 36.765625 34.90625 28.71875 34.90625 
L 20.21875 34.90625 
L 20.21875 43.015625 
L 29.109375 43.015625 
Q 36.375 43.015625 40.234375 45.921875 
Q 44.09375 48.828125 44.09375 54.296875 
Q 44.09375 59.90625 40.109375 62.90625 
Q 36.140625 65.921875 28.71875 65.921875 
Q 24.65625 65.921875 20.015625 65.03125 
Q 15.375 64.15625 9.8125 62.3125 
L 9.8125 71.09375 
Q 15.4375 72.65625 20.34375 73.4375 
Q 25.25 74.21875 29.59375 74.21875 
Q 40.828125 74.21875 47.359375 69.109375 
Q 53.90625 64.015625 53.90625 55.328125 
Q 53.90625 49.265625 50.4375 45.09375 
Q 46.96875 40.921875 40.578125 39.3125 
z
" id="DejaVuSans-33"/>
     <path d="M 8.203125 72.90625 
L 55.078125 72.90625 
L 55.078125 68.703125 
L 28.609375 0 
L 18.3125 0 
L 43.21875 64.59375 
L 8.203125 64.59375 
z
" id="DejaVuSans-37"/>
     <path id="DejaVuSans-20"/>
     <path d="M 44.28125 53.078125 
L 44.28125 44.578125 
Q 40.484375 46.53125 36.375 47.5 
Q 32.28125 48.484375 27.875 48.484375 
Q 21.1875 48.484375 17.84375 46.4375 
Q 14.5 44.390625 14.5 40.28125 
Q 14.5 37.15625 16.890625 35.375 
Q 19.28125 33.59375 26.515625 31.984375 
L 29.59375 31.296875 
Q 39.15625 29.25 43.1875 25.515625 
Q 47.21875 21.78125 47.21875 15.09375 
Q 47.21875 7.46875 41.1875 3.015625 
Q 35.15625 -1.421875 24.609375 -1.421875 
Q 20.21875 -1.421875 15.453125 -0.5625 
Q 10.6875 0.296875 5.421875 2 
L 5.421875 11.28125 
Q 10.40625 8.6875 15.234375 7.390625 
Q 20.0625 6.109375 24.8125 6.109375 
Q 31.15625 6.109375 34.5625 8.28125 
Q 37.984375 10.453125 37.984375 14.40625 
Q 37.984375 18.0625 35.515625 20.015625 
Q 33.0625 21.96875 24.703125 23.78125 
L 21.578125 24.515625 
Q 13.234375 26.265625 9.515625 29.90625 
Q 5.8125 33.546875 5.8125 39.890625 
Q 5.8125 47.609375 11.28125 51.796875 
Q 16.75 56 26.8125 56 
Q 31.78125 56 36.171875 55.265625 
Q 40.578125 54.546875 44.28125 53.078125 
z
" id="DejaVuSans-73"/>
    </defs>
    <g transform="translate(153.717375 49.576506)scale(0.12 -0.12)">
     <use xlink:href="#DejaVuSans-54"/>
     <use x="61.037109" xlink:href="#DejaVuSans-69"/>
     <use x="88.820312" xlink:href="#DejaVuSans-6d"/>
     <use x="186.232422" xlink:href="#DejaVuSans-65"/>
     <use x="247.755859" xlink:href="#DejaVuSans-3a"/>
     <use x="281.447266" xlink:href="#DejaVuSans-30"/>
     <use x="345.070312" xlink:href="#DejaVuSans-2e"/>
     <use x="376.857422" xlink:href="#DejaVuSans-30"/>
     <use x="440.480469" xlink:href="#DejaVuSans-31"/>
     <use x="504.103516" xlink:href="#DejaVuSans-33"/>
     <use x="567.726562" xlink:href="#DejaVuSans-31"/>
     <use x="631.349609" xlink:href="#DejaVuSans-37"/>
     <use x="694.972656" xlink:href="#DejaVuSans-20"/>
     <use x="726.759766" xlink:href="#DejaVuSans-73"/>
    </g>
   </g>
  </g>
  <g id="axes_2">
   <g id="patch_7">
    <path clip-path="url(#pcde179b773)" d="M 361.152 307.584 
L 361.152 283.392 
L 361.152 65.664 
L 361.152 41.472 
L 374.4576 41.472 
L 374.4576 65.664 
L 374.4576 283.392 
L 374.4576 307.584 
z
" style="fill:#ffffff;stroke:#ffffff;stroke-linejoin:miter;stroke-width:0.01;"/>
   </g>
   <g id="matplotlib.axis_3"/>
   <g id="matplotlib.axis_4">
    <g id="ytick_5">
     <g id="line2d_10">
      <defs>
       <path d="M 0 0 
L 3.5 0 
" id="me792f5d7b6" style="stroke:#000000;stroke-width:0.8;"/>
      </defs>
      <g>
       <use style="stroke:#000000;stroke-width:0.8;" x="374.4576" xlink:href="#me792f5d7b6" y="307.584"/>
      </g>
     </g>
     <g id="text_11">
      <!-- 0.08 -->
      <g transform="translate(381.4576 311.383219)scale(0.1 -0.1)">
       <use xlink:href="#DejaVuSans-30"/>
       <use x="63.623047" xlink:href="#DejaVuSans-2e"/>
       <use x="95.410156" xlink:href="#DejaVuSans-30"/>
       <use x="159.033203" xlink:href="#DejaVuSans-38"/>
      </g>
     </g>
    </g>
    <g id="ytick_6">
     <g id="line2d_11">
      <g>
       <use style="stroke:#000000;stroke-width:0.8;" x="374.4576" xlink:href="#me792f5d7b6" y="259.2"/>
      </g>
     </g>
     <g id="text_12">
      <!-- 0.24 -->
      <g transform="translate(381.4576 262.999219)scale(0.1 -0.1)">
       <use xlink:href="#DejaVuSans-30"/>
       <use x="63.623047" xlink:href="#DejaVuSans-2e"/>
       <use x="95.410156" xlink:href="#DejaVuSans-32"/>
       <use x="159.033203" xlink:href="#DejaVuSans-34"/>
      </g>
     </g>
    </g>
    <g id="ytick_7">
     <g id="line2d_12">
      <g>
       <use style="stroke:#000000;stroke-width:0.8;" x="374.4576" xlink:href="#me792f5d7b6" y="210.816"/>
      </g>
     </g>
     <g id="text_13">
      <!-- 0.40 -->
      <g transform="translate(381.4576 214.615219)scale(0.1 -0.1)">
       <use xlink:href="#DejaVuSans-30"/>
       <use x="63.623047" xlink:href="#DejaVuSans-2e"/>
       <use x="95.410156" xlink:href="#DejaVuSans-34"/>
       <use x="159.033203" xlink:href="#DejaVuSans-30"/>
      </g>
     </g>
    </g>
    <g id="ytick_8">
     <g id="line2d_13">
      <g>
       <use style="stroke:#000000;stroke-width:0.8;" x="374.4576" xlink:href="#me792f5d7b6" y="162.432"/>
      </g>
     </g>
     <g id="text_14">
      <!-- 0.56 -->
      <defs>
       <path d="M 10.796875 72.90625 
L 49.515625 72.90625 
L 49.515625 64.59375 
L 19.828125 64.59375 
L 19.828125 46.734375 
Q 21.96875 47.46875 24.109375 47.828125 
Q 26.265625 48.1875 28.421875 48.1875 
Q 40.625 48.1875 47.75 41.5 
Q 54.890625 34.8125 54.890625 23.390625 
Q 54.890625 11.625 47.5625 5.09375 
Q 40.234375 -1.421875 26.90625 -1.421875 
Q 22.3125 -1.421875 17.546875 -0.640625 
Q 12.796875 0.140625 7.71875 1.703125 
L 7.71875 11.625 
Q 12.109375 9.234375 16.796875 8.0625 
Q 21.484375 6.890625 26.703125 6.890625 
Q 35.15625 6.890625 40.078125 11.328125 
Q 45.015625 15.765625 45.015625 23.390625 
Q 45.015625 31 40.078125 35.4375 
Q 35.15625 39.890625 26.703125 39.890625 
Q 22.75 39.890625 18.8125 39.015625 
Q 14.890625 38.140625 10.796875 36.28125 
z
" id="DejaVuSans-35"/>
      </defs>
      <g transform="translate(381.4576 166.231219)scale(0.1 -0.1)">
       <use xlink:href="#DejaVuSans-30"/>
       <use x="63.623047" xlink:href="#DejaVuSans-2e"/>
       <use x="95.410156" xlink:href="#DejaVuSans-35"/>
       <use x="159.033203" xlink:href="#DejaVuSans-36"/>
      </g>
     </g>
    </g>
    <g id="ytick_9">
     <g id="line2d_14">
      <g>
       <use style="stroke:#000000;stroke-width:0.8;" x="374.4576" xlink:href="#me792f5d7b6" y="114.048"/>
      </g>
     </g>
     <g id="text_15">
      <!-- 0.72 -->
      <g transform="translate(381.4576 117.847219)scale(0.1 -0.1)">
       <use xlink:href="#DejaVuSans-30"/>
       <use x="63.623047" xlink:href="#DejaVuSans-2e"/>
       <use x="95.410156" xlink:href="#DejaVuSans-37"/>
       <use x="159.033203" xlink:href="#DejaVuSans-32"/>
      </g>
     </g>
    </g>
    <g id="ytick_10">
     <g id="line2d_15">
      <g>
       <use style="stroke:#000000;stroke-width:0.8;" x="374.4576" xlink:href="#me792f5d7b6" y="65.664"/>
      </g>
     </g>
     <g id="text_16">
      <!-- 0.88 -->
      <g transform="translate(381.4576 69.463219)scale(0.1 -0.1)">
       <use xlink:href="#DejaVuSans-30"/>
       <use x="63.623047" xlink:href="#DejaVuSans-2e"/>
       <use x="95.410156" xlink:href="#DejaVuSans-38"/>
       <use x="159.033203" xlink:href="#DejaVuSans-38"/>
      </g>
     </g>
    </g>
   </g>
   <g id="LineCollection_13">
    <path clip-path="url(#pcde179b773)" d="M 361.152 307.584 
L 374.4576 307.584 
" style="fill:none;stroke:#000080;stroke-width:1.5;"/>
    <path clip-path="url(#pcde179b773)" d="M 361.152 283.392 
L 374.4576 283.392 
" style="fill:none;stroke:#0000e8;stroke-width:1.5;"/>
    <path clip-path="url(#pcde179b773)" d="M 361.152 259.2 
L 374.4576 259.2 
" style="fill:none;stroke:#0038ff;stroke-width:1.5;"/>
    <path clip-path="url(#pcde179b773)" d="M 361.152 235.008 
L 374.4576 235.008 
" style="fill:none;stroke:#0094ff;stroke-width:1.5;"/>
    <path clip-path="url(#pcde179b773)" d="M 361.152 210.816 
L 374.4576 210.816 
" style="fill:none;stroke:#0cf4eb;stroke-width:1.5;"/>
    <path clip-path="url(#pcde179b773)" d="M 361.152 186.624 
L 374.4576 186.624 
" style="fill:none;stroke:#56ffa0;stroke-width:1.5;"/>
    <path clip-path="url(#pcde179b773)" d="M 361.152 162.432 
L 374.4576 162.432 
" style="fill:none;stroke:#a0ff56;stroke-width:1.5;"/>
    <path clip-path="url(#pcde179b773)" d="M 361.152 138.24 
L 374.4576 138.24 
" style="fill:none;stroke:#ebff0c;stroke-width:1.5;"/>
    <path clip-path="url(#pcde179b773)" d="M 361.152 114.048 
L 374.4576 114.048 
" style="fill:none;stroke:#ffab00;stroke-width:1.5;"/>
    <path clip-path="url(#pcde179b773)" d="M 361.152 89.856 
L 374.4576 89.856 
" style="fill:none;stroke:#ff5500;stroke-width:1.5;"/>
    <path clip-path="url(#pcde179b773)" d="M 361.152 65.664 
L 374.4576 65.664 
" style="fill:none;stroke:#e80000;stroke-width:1.5;"/>
    <path clip-path="url(#pcde179b773)" d="M 361.152 41.472 
L 374.4576 41.472 
" style="fill:none;stroke:#800000;stroke-width:1.5;"/>
   </g>
   <g id="patch_8">
    <path d="M 361.152 307.584 
L 361.152 283.392 
L 361.152 65.664 
L 361.152 41.472 
L 374.4576 41.472 
L 374.4576 65.664 
L 374.4576 283.392 
L 374.4576 307.584 
z
" style="fill:none;stroke:#000000;stroke-linejoin:miter;stroke-width:0.8;"/>
   </g>
  </g>
 </g>
 <defs>
  <clipPath id="p66eed2165c">
   <rect height="237.902989" width="285.696" x="57.6" y="55.576506"/>
  </clipPath>
  <clipPath id="pcde179b773">
   <rect height="266.112" width="13.3056" x="361.152" y="41.472"/>
  </clipPath>
 </defs>
</svg>
