<?xml version="1.0" encoding="utf-8" standalone="no"?>
<!DOCTYPE svg PUBLIC "-//W3C//DTD SVG 1.1//EN"
  "http://www.w3.org/Graphics/SVG/1.1/DTD/svg11.dtd">
<!-- Created with matplotlib (http://matplotlib.org/) -->
<svg height="345.6pt" version="1.1" viewBox="0 0 460.8 345.6" width="460.8pt" xmlns="http://www.w3.org/2000/svg" xmlns:xlink="http://www.w3.org/1999/xlink">
 <defs>
  <style type="text/css">
*{stroke-linecap:butt;stroke-linejoin:round;}
  </style>
 </defs>
 <g id="figure_1">
  <g id="patch_1">
   <path d="M 0 345.6 
L 460.8 345.6 
L 460.8 0 
L 0 0 
z
" style="fill:#ffffff;"/>
  </g>
  <g id="axes_1">
   <g id="patch_2">
    <path d="M 57.6 293.479494 
L 343.296 293.479494 
L 343.296 55.576506 
L 57.6 55.576506 
z
" style="fill:#ffffff;"/>
   </g>
   <g id="matplotlib.axis_1">
    <g id="xtick_1">
     <g id="line2d_1">
      <defs>
       <path d="M 0 0 
L 0 3.5 
" id="m7d5825768c" style="stroke:#000000;stroke-width:0.8;"/>
      </defs>
      <g>
       <use style="stroke:#000000;stroke-width:0.8;" x="104.861978" xlink:href="#m7d5825768c" y="293.479494"/>
      </g>
     </g>
     <g id="text_1">
      <!-- 0.2 -->
      <defs>
       <path d="M 31.78125 66.40625 
Q 24.171875 66.40625 20.328125 58.90625 
Q 16.5 51.421875 16.5 36.375 
Q 16.5 21.390625 20.328125 13.890625 
Q 24.171875 6.390625 31.78125 6.390625 
Q 39.453125 6.390625 43.28125 13.890625 
Q 47.125 21.390625 47.125 36.375 
Q 47.125 51.421875 43.28125 58.90625 
Q 39.453125 66.40625 31.78125 66.40625 
z
M 31.78125 74.21875 
Q 44.046875 74.21875 50.515625 64.515625 
Q 56.984375 54.828125 56.984375 36.375 
Q 56.984375 17.96875 50.515625 8.265625 
Q 44.046875 -1.421875 31.78125 -1.421875 
Q 19.53125 -1.421875 13.0625 8.265625 
Q 6.59375 17.96875 6.59375 36.375 
Q 6.59375 54.828125 13.0625 64.515625 
Q 19.53125 74.21875 31.78125 74.21875 
z
" id="DejaVuSans-30"/>
       <path d="M 10.6875 12.40625 
L 21 12.40625 
L 21 0 
L 10.6875 0 
z
" id="DejaVuSans-2e"/>
       <path d="M 19.1875 8.296875 
L 53.609375 8.296875 
L 53.609375 0 
L 7.328125 0 
L 7.328125 8.296875 
Q 12.9375 14.109375 22.625 23.890625 
Q 32.328125 33.6875 34.8125 36.53125 
Q 39.546875 41.84375 41.421875 45.53125 
Q 43.3125 49.21875 43.3125 52.78125 
Q 43.3125 58.59375 39.234375 62.25 
Q 35.15625 65.921875 28.609375 65.921875 
Q 23.96875 65.921875 18.8125 64.3125 
Q 13.671875 62.703125 7.8125 59.421875 
L 7.8125 69.390625 
Q 13.765625 71.78125 18.9375 73 
Q 24.125 74.21875 28.421875 74.21875 
Q 39.75 74.21875 46.484375 68.546875 
Q 53.21875 62.890625 53.21875 53.421875 
Q 53.21875 48.921875 51.53125 44.890625 
Q 49.859375 40.875 45.40625 35.40625 
Q 44.1875 33.984375 37.640625 27.21875 
Q 31.109375 20.453125 19.1875 8.296875 
z
" id="DejaVuSans-32"/>
      </defs>
      <g transform="translate(96.910415 308.077932)scale(0.1 -0.1)">
       <use xlink:href="#DejaVuSans-30"/>
       <use x="63.623047" xlink:href="#DejaVuSans-2e"/>
       <use x="95.410156" xlink:href="#DejaVuSans-32"/>
      </g>
     </g>
    </g>
    <g id="xtick_2">
     <g id="line2d_2">
      <g>
       <use style="stroke:#000000;stroke-width:0.8;" x="152.654989" xlink:href="#m7d5825768c" y="293.479494"/>
      </g>
     </g>
     <g id="text_2">
      <!-- 0.4 -->
      <defs>
       <path d="M 37.796875 64.3125 
L 12.890625 25.390625 
L 37.796875 25.390625 
z
M 35.203125 72.90625 
L 47.609375 72.90625 
L 47.609375 25.390625 
L 58.015625 25.390625 
L 58.015625 17.1875 
L 47.609375 17.1875 
L 47.609375 0 
L 37.796875 0 
L 37.796875 17.1875 
L 4.890625 17.1875 
L 4.890625 26.703125 
z
" id="DejaVuSans-34"/>
      </defs>
      <g transform="translate(144.703426 308.077932)scale(0.1 -0.1)">
       <use xlink:href="#DejaVuSans-30"/>
       <use x="63.623047" xlink:href="#DejaVuSans-2e"/>
       <use x="95.410156" xlink:href="#DejaVuSans-34"/>
      </g>
     </g>
    </g>
    <g id="xtick_3">
     <g id="line2d_3">
      <g>
       <use style="stroke:#000000;stroke-width:0.8;" x="200.448" xlink:href="#m7d5825768c" y="293.479494"/>
      </g>
     </g>
     <g id="text_3">
      <!-- 0.6 -->
      <defs>
       <path d="M 33.015625 40.375 
Q 26.375 40.375 22.484375 35.828125 
Q 18.609375 31.296875 18.609375 23.390625 
Q 18.609375 15.53125 22.484375 10.953125 
Q 26.375 6.390625 33.015625 6.390625 
Q 39.65625 6.390625 43.53125 10.953125 
Q 47.40625 15.53125 47.40625 23.390625 
Q 47.40625 31.296875 43.53125 35.828125 
Q 39.65625 40.375 33.015625 40.375 
z
M 52.59375 71.296875 
L 52.59375 62.3125 
Q 48.875 64.0625 45.09375 64.984375 
Q 41.3125 65.921875 37.59375 65.921875 
Q 27.828125 65.921875 22.671875 59.328125 
Q 17.53125 52.734375 16.796875 39.40625 
Q 19.671875 43.65625 24.015625 45.921875 
Q 28.375 48.1875 33.59375 48.1875 
Q 44.578125 48.1875 50.953125 41.515625 
Q 57.328125 34.859375 57.328125 23.390625 
Q 57.328125 12.15625 50.6875 5.359375 
Q 44.046875 -1.421875 33.015625 -1.421875 
Q 20.359375 -1.421875 13.671875 8.265625 
Q 6.984375 17.96875 6.984375 36.375 
Q 6.984375 53.65625 15.1875 63.9375 
Q 23.390625 74.21875 37.203125 74.21875 
Q 40.921875 74.21875 44.703125 73.484375 
Q 48.484375 72.75 52.59375 71.296875 
z
" id="DejaVuSans-36"/>
      </defs>
      <g transform="translate(192.496438 308.077932)scale(0.1 -0.1)">
       <use xlink:href="#DejaVuSans-30"/>
       <use x="63.623047" xlink:href="#DejaVuSans-2e"/>
       <use x="95.410156" xlink:href="#DejaVuSans-36"/>
      </g>
     </g>
    </g>
    <g id="xtick_4">
     <g id="line2d_4">
      <g>
       <use style="stroke:#000000;stroke-width:0.8;" x="248.241011" xlink:href="#m7d5825768c" y="293.479494"/>
      </g>
     </g>
     <g id="text_4">
      <!-- 0.8 -->
      <defs>
       <path d="M 31.78125 34.625 
Q 24.75 34.625 20.71875 30.859375 
Q 16.703125 27.09375 16.703125 20.515625 
Q 16.703125 13.921875 20.71875 10.15625 
Q 24.75 6.390625 31.78125 6.390625 
Q 38.8125 6.390625 42.859375 10.171875 
Q 46.921875 13.96875 46.921875 20.515625 
Q 46.921875 27.09375 42.890625 30.859375 
Q 38.875 34.625 31.78125 34.625 
z
M 21.921875 38.8125 
Q 15.578125 40.375 12.03125 44.71875 
Q 8.5 49.078125 8.5 55.328125 
Q 8.5 64.0625 14.71875 69.140625 
Q 20.953125 74.21875 31.78125 74.21875 
Q 42.671875 74.21875 48.875 69.140625 
Q 55.078125 64.0625 55.078125 55.328125 
Q 55.078125 49.078125 51.53125 44.71875 
Q 48 40.375 41.703125 38.8125 
Q 48.828125 37.15625 52.796875 32.3125 
Q 56.78125 27.484375 56.78125 20.515625 
Q 56.78125 9.90625 50.3125 4.234375 
Q 43.84375 -1.421875 31.78125 -1.421875 
Q 19.734375 -1.421875 13.25 4.234375 
Q 6.78125 9.90625 6.78125 20.515625 
Q 6.78125 27.484375 10.78125 32.3125 
Q 14.796875 37.15625 21.921875 38.8125 
z
M 18.3125 54.390625 
Q 18.3125 48.734375 21.84375 45.5625 
Q 25.390625 42.390625 31.78125 42.390625 
Q 38.140625 42.390625 41.71875 45.5625 
Q 45.3125 48.734375 45.3125 54.390625 
Q 45.3125 60.0625 41.71875 63.234375 
Q 38.140625 66.40625 31.78125 66.40625 
Q 25.390625 66.40625 21.84375 63.234375 
Q 18.3125 60.0625 18.3125 54.390625 
z
" id="DejaVuSans-38"/>
      </defs>
      <g transform="translate(240.289449 308.077932)scale(0.1 -0.1)">
       <use xlink:href="#DejaVuSans-30"/>
       <use x="63.623047" xlink:href="#DejaVuSans-2e"/>
       <use x="95.410156" xlink:href="#DejaVuSans-38"/>
      </g>
     </g>
    </g>
    <g id="xtick_5">
     <g id="line2d_5">
      <g>
       <use style="stroke:#000000;stroke-width:0.8;" x="296.034022" xlink:href="#m7d5825768c" y="293.479494"/>
      </g>
     </g>
     <g id="text_5">
      <!-- 1.0 -->
      <defs>
       <path d="M 12.40625 8.296875 
L 28.515625 8.296875 
L 28.515625 63.921875 
L 10.984375 60.40625 
L 10.984375 69.390625 
L 28.421875 72.90625 
L 38.28125 72.90625 
L 38.28125 8.296875 
L 54.390625 8.296875 
L 54.390625 0 
L 12.40625 0 
z
" id="DejaVuSans-31"/>
      </defs>
      <g transform="translate(288.08246 308.077932)scale(0.1 -0.1)">
       <use xlink:href="#DejaVuSans-31"/>
       <use x="63.623047" xlink:href="#DejaVuSans-2e"/>
       <use x="95.410156" xlink:href="#DejaVuSans-30"/>
      </g>
     </g>
    </g>
   </g>
   <g id="matplotlib.axis_2">
    <g id="ytick_1">
     <g id="line2d_6">
      <defs>
       <path d="M 0 0 
L -3.5 0 
" id="m7bca905d7e" style="stroke:#000000;stroke-width:0.8;"/>
      </defs>
      <g>
       <use style="stroke:#000000;stroke-width:0.8;" x="57.6" xlink:href="#m7bca905d7e" y="246.217517"/>
      </g>
     </g>
     <g id="text_6">
      <!-- 0.2 -->
      <g transform="translate(34.696875 250.016735)scale(0.1 -0.1)">
       <use xlink:href="#DejaVuSans-30"/>
       <use x="63.623047" xlink:href="#DejaVuSans-2e"/>
       <use x="95.410156" xlink:href="#DejaVuSans-32"/>
      </g>
     </g>
    </g>
    <g id="ytick_2">
     <g id="line2d_7">
      <g>
       <use style="stroke:#000000;stroke-width:0.8;" x="57.6" xlink:href="#m7bca905d7e" y="198.424506"/>
      </g>
     </g>
     <g id="text_7">
      <!-- 0.4 -->
      <g transform="translate(34.696875 202.223724)scale(0.1 -0.1)">
       <use xlink:href="#DejaVuSans-30"/>
       <use x="63.623047" xlink:href="#DejaVuSans-2e"/>
       <use x="95.410156" xlink:href="#DejaVuSans-34"/>
      </g>
     </g>
    </g>
    <g id="ytick_3">
     <g id="line2d_8">
      <g>
       <use style="stroke:#000000;stroke-width:0.8;" x="57.6" xlink:href="#m7bca905d7e" y="150.631494"/>
      </g>
     </g>
     <g id="text_8">
      <!-- 0.6 -->
      <g transform="translate(34.696875 154.430713)scale(0.1 -0.1)">
       <use xlink:href="#DejaVuSans-30"/>
       <use x="63.623047" xlink:href="#DejaVuSans-2e"/>
       <use x="95.410156" xlink:href="#DejaVuSans-36"/>
      </g>
     </g>
    </g>
    <g id="ytick_4">
     <g id="line2d_9">
      <g>
       <use style="stroke:#000000;stroke-width:0.8;" x="57.6" xlink:href="#m7bca905d7e" y="102.838483"/>
      </g>
     </g>
     <g id="text_9">
      <!-- 0.8 -->
      <g transform="translate(34.696875 106.637702)scale(0.1 -0.1)">
       <use xlink:href="#DejaVuSans-30"/>
       <use x="63.623047" xlink:href="#DejaVuSans-2e"/>
       <use x="95.410156" xlink:href="#DejaVuSans-38"/>
      </g>
     </g>
    </g>
   </g>
   <g id="LineCollection_1">
    <path clip-path="url(#p86a2b53519)" d="M 282.373558 293.479494 
L 282.858857 291.355361 
L 283.663664 288.16916 
L 283.888639 286.045026 
L 283.820253 283.50322 
L 283.429648 280.734691 
L 282.560177 276.486424 
L 281.330188 272.238156 
L 280.58817 270.114022 
L 279.020373 266.927822 
L 278.360007 265.865755 
L 277.447851 264.70468 
L 276.385784 263.70039 
L 274.789593 262.679554 
L 274.261651 262.407076 
L 272.137517 261.679139 
L 270.013383 261.240928 
L 265.765115 260.707208 
L 257.26858 259.981975 
L 242.399643 258.934565 
L 229.65484 258.255687 
L 219.034171 257.914409 
L 208.413502 257.796502 
L 185.04803 257.669945 
L 178.675628 257.347942 
L 173.365294 256.892858 
L 168.054959 256.239175 
L 161.850209 255.245086 
L 156.239529 254.183019 
L 140.441219 251.153424 
L 136.192952 250.576674 
L 131.944684 250.223587 
L 128.758483 250.172254 
L 125.572283 250.385086 
L 123.448149 250.725342 
L 121.324015 251.2898 
L 119.199881 252.155082 
L 117.075747 253.44321 
L 116.01368 254.281857 
L 113.889546 256.406228 
L 111.410586 259.493353 
L 107.184827 264.803688 
L 105.215936 266.927822 
L 102.953055 269.051955 
L 100.082677 271.291293 
L 97.958543 272.66244 
L 95.834409 273.820136 
L 93.710275 274.77858 
L 91.586141 275.551743 
L 89.462007 276.137862 
L 87.337874 276.54941 
L 85.21374 276.767348 
L 83.089606 276.785163 
L 80.965472 276.575517 
L 78.841338 276.084789 
L 76.717204 275.251858 
L 75.188319 274.36229 
L 73.795111 273.300223 
L 72.697084 272.238156 
L 71.794825 271.176089 
L 71.024634 270.114022 
L 69.771951 267.989888 
L 68.783205 265.865755 
L 67.973813 263.741621 
L 67.002714 260.55542 
L 66.01333 256.307152 
L 65.034468 250.639956 
L 64.13721 243.562349 
L 63.401617 236.127881 
L 62.471272 224.445145 
L 61.60664 210.638275 
L 60.786201 193.376941 
L 60.052592 172.403866 
L 59.384811 146.91426 
L 58.756711 113.990186 
L 58.136106 68.321309 
L 58.081934 56.638572 
L 58.093784 55.576506 
L 58.093784 55.576506 
" style="fill:none;stroke:#000080;stroke-width:1.5;"/>
   </g>
   <g id="LineCollection_2">
    <path clip-path="url(#p86a2b53519)" d="M 288.885024 293.479494 
L 289.442454 288.16916 
L 289.418916 284.982959 
L 289.069337 279.672625 
L 285.462386 243.562349 
L 284.339139 235.065814 
L 283.290284 228.693413 
L 282.423995 224.445145 
L 281.299359 220.196877 
L 280.607099 218.072743 
L 279.571985 215.736771 
L 278.298862 213.824476 
L 277.222959 212.762409 
L 276.385784 212.194552 
L 274.973112 211.700342 
L 274.261651 211.559293 
L 272.137517 211.514656 
L 268.951316 211.827297 
L 263.640981 212.36154 
L 258.330647 212.632732 
L 248.772045 212.806248 
L 215.84797 213.066711 
L 174.427361 213.342497 
L 160.620491 213.670815 
L 135.130885 214.456228 
L 130.882617 214.297039 
L 126.634349 213.920203 
L 122.386082 213.290599 
L 118.137814 212.416352 
L 105.393011 209.495612 
L 103.268877 209.297757 
L 101.144743 209.312983 
L 99.02061 209.608417 
L 96.896476 210.262367 
L 95.834409 210.747077 
L 94.262466 211.700342 
L 92.648208 212.955568 
L 90.524074 215.122771 
L 88.399941 217.846051 
L 86.126382 221.258944 
L 81.331174 228.693413 
L 80.504901 229.75548 
L 79.552283 230.817546 
L 78.841338 231.502259 
L 77.779271 232.214817 
L 76.717204 232.564069 
L 75.655138 232.500879 
L 74.494194 231.879613 
L 73.448329 230.817546 
L 72.160647 228.693413 
L 71.213311 226.569279 
L 70.127694 223.383078 
L 69.004218 219.13481 
L 67.895684 213.824476 
L 66.832225 207.452074 
L 65.705615 198.955539 
L 64.693612 189.396937 
L 63.620607 176.652134 
L 62.627518 161.783197 
L 61.621664 142.665993 
L 60.674239 119.30052 
L 59.835574 91.686781 
L 59.065347 59.824773 
L 59.146642 55.576506 
L 59.146642 55.576506 
" style="fill:none;stroke:#0000e8;stroke-width:1.5;"/>
   </g>
   <g id="LineCollection_3">
    <path clip-path="url(#p86a2b53519)" d="M 291.451324 293.479494 
L 291.709358 287.107093 
L 291.509848 281.796758 
L 290.701643 269.051955 
L 287.882341 225.507212 
L 286.419735 208.514141 
L 285.504784 200.017606 
L 284.520184 192.583138 
L 283.434358 186.210736 
L 282.493859 181.962468 
L 281.571801 178.776268 
L 280.634052 176.387253 
L 279.523846 174.528 
L 278.478246 173.465933 
L 277.447851 172.935344 
L 276.385784 172.794923 
L 275.323717 172.943567 
L 273.844348 173.465933 
L 271.603854 174.528 
L 268.951316 175.797921 
L 266.773005 176.652134 
L 264.703048 177.269778 
L 262.578914 177.715748 
L 259.392714 178.108103 
L 255.144446 178.298512 
L 247.709978 178.284147 
L 230.716907 178.232455 
L 126.634349 178.534772 
L 118.137814 178.527612 
L 111.765413 178.28085 
L 97.958543 177.516506 
L 95.216221 177.714201 
L 93.710275 177.947853 
L 91.586141 178.500729 
L 89.462007 179.36764 
L 87.337874 180.611036 
L 85.21374 182.265354 
L 83.089606 184.292231 
L 78.841338 188.587386 
L 77.772273 189.396937 
L 76.717204 189.941536 
L 75.655138 190.142926 
L 74.593071 189.909539 
L 73.531004 189.150403 
L 72.216439 187.272803 
L 71.215458 185.148669 
L 70.128709 181.962468 
L 69.03619 177.714201 
L 67.790946 171.341799 
L 66.801947 164.969398 
L 65.734978 156.472862 
L 64.659981 145.852193 
L 63.621549 133.10739 
L 62.589734 117.176387 
L 61.572122 96.997115 
L 60.195613 63.010974 
L 60.168803 58.762706 
L 60.292717 55.576506 
L 60.292717 55.576506 
" style="fill:none;stroke:#0038ff;stroke-width:1.5;"/>
   </g>
   <g id="LineCollection_4">
    <path clip-path="url(#p86a2b53519)" d="M 293.248713 293.479494 
L 293.302831 284.982959 
L 292.842617 274.36229 
L 289.495494 205.327941 
L 288.463232 189.396937 
L 287.542248 177.714201 
L 286.510213 167.093532 
L 285.462422 158.596996 
L 284.453502 152.224595 
L 283.604751 147.976327 
L 282.455798 143.728059 
L 281.696119 141.563987 
L 280.597455 139.479792 
L 279.571985 138.300484 
L 278.509918 137.743087 
L 277.447851 137.712885 
L 276.385784 138.087856 
L 275.323717 138.758973 
L 273.199584 140.620816 
L 268.951316 144.643245 
L 266.827182 146.255501 
L 264.703048 147.489161 
L 262.578914 148.363417 
L 260.454781 148.929732 
L 258.330647 149.250972 
L 255.144446 149.403438 
L 250.896178 149.255743 
L 239.213442 148.6305 
L 232.841041 148.591019 
L 192.482498 148.853066 
L 127.696416 148.820205 
L 105.393011 148.720713 
L 95.834409 148.657626 
L 92.648208 148.805476 
L 89.462007 149.193876 
L 87.337874 149.657083 
L 85.21374 150.330407 
L 83.089606 151.23382 
L 76.717204 154.303179 
L 75.655138 154.439045 
L 74.593071 154.265689 
L 73.531004 153.677587 
L 72.271451 152.224595 
L 71.127705 150.100461 
L 70.275612 147.976327 
L 69.062552 143.728059 
L 67.929673 138.417725 
L 66.874063 132.045323 
L 65.772892 123.548788 
L 64.693606 112.928119 
L 63.597087 99.121249 
L 62.465878 81.066112 
L 61.415982 60.88684 
L 61.505383 57.700639 
L 61.629658 55.576506 
L 61.629658 55.576506 
" style="fill:none;stroke:#0094ff;stroke-width:1.5;"/>
   </g>
   <g id="LineCollection_5">
    <path clip-path="url(#p86a2b53519)" d="M 294.74159 293.479494 
L 294.608897 280.734691 
L 293.657507 253.120952 
L 292.086901 210.638275 
L 290.831449 183.024535 
L 289.731812 163.907331 
L 288.730665 150.100461 
L 287.654321 138.417725 
L 286.654728 129.92119 
L 285.518456 122.486721 
L 284.448507 117.176387 
L 283.633792 113.990186 
L 282.53203 110.803985 
L 281.467692 108.679851 
L 280.634052 107.522652 
L 279.571985 106.736833 
L 278.417145 106.555717 
L 277.447851 106.805588 
L 276.218357 107.617784 
L 275.091563 108.679851 
L 273.199584 110.900026 
L 268.275347 117.176387 
L 266.827182 118.759794 
L 264.703048 120.686049 
L 262.578914 122.129663 
L 260.454781 123.114627 
L 258.330647 123.697354 
L 256.206513 123.949069 
L 254.082379 123.943412 
L 250.896178 123.605799 
L 245.585844 122.65877 
L 240.275509 121.765237 
L 236.027242 121.269854 
L 231.778974 120.982364 
L 226.468639 120.841973 
L 219.034171 120.887808 
L 207.351435 121.216589 
L 170.179093 122.470129 
L 140.441219 122.957179 
L 91.586141 123.843028 
L 87.337874 124.138118 
L 83.770735 124.610855 
L 76.717204 125.710032 
L 75.655138 125.605329 
L 74.593071 125.272193 
L 73.530619 124.610855 
L 72.468937 123.502435 
L 71.243488 121.424654 
L 70.332523 119.30052 
L 69.081503 115.052253 
L 67.944799 109.741918 
L 66.905884 103.369517 
L 65.722348 93.810914 
L 64.597544 82.128178 
L 63.230937 65.135108 
L 63.072395 60.88684 
L 63.16632 58.762706 
L 63.445626 55.576506 
L 63.445626 55.576506 
" style="fill:none;stroke:#0cf4eb;stroke-width:1.5;"/>
   </g>
   <g id="LineCollection_6">
    <path clip-path="url(#p86a2b53519)" d="M 296.509459 293.479494 
L 296.391423 282.858825 
L 295.964875 271.176089 
L 295.290638 253.120952 
L 293.720366 201.079673 
L 292.692007 173.465933 
L 291.757425 153.286662 
L 290.766202 136.293591 
L 289.822388 123.548788 
L 288.720094 111.866052 
L 287.709456 103.369517 
L 286.760112 96.997115 
L 285.732426 91.686781 
L 284.620966 87.438513 
L 283.486197 84.252312 
L 282.490369 82.128178 
L 281.696119 80.757056 
L 280.257561 78.941978 
L 279.105196 77.879911 
L 278.509918 77.431567 
L 277.447851 76.814279 
L 276.385784 76.409222 
L 275.323717 76.150241 
L 274.261651 76.0328 
L 273.199584 76.052315 
L 272.137517 76.202885 
L 270.1329 76.817844 
L 268.951316 77.441504 
L 267.889249 78.161144 
L 266.827182 79.090982 
L 265.765115 80.329979 
L 264.633752 82.128178 
L 263.640981 84.52503 
L 262.795793 87.438513 
L 261.907959 90.624714 
L 261.11915 92.748848 
L 260.004107 94.872981 
L 259.265025 95.935048 
L 258.330647 97.010811 
L 257.158761 98.059182 
L 255.144446 99.350521 
L 253.020312 100.261084 
L 250.896178 100.864386 
L 248.772045 101.276535 
L 245.585844 101.644268 
L 241.337576 101.860993 
L 236.027242 101.859456 
L 230.716907 101.644075 
L 224.344506 101.16054 
L 215.84797 100.249977 
L 202.0411 98.715494 
L 195.668699 98.231805 
L 189.296297 97.96454 
L 181.861829 97.898549 
L 171.24116 98.071303 
L 152.123955 98.396372 
L 137.255019 98.390994 
L 91.586141 98.166368 
L 78.841338 98.285897 
L 76.717204 97.88217 
L 75.655138 97.462949 
L 74.593071 96.813776 
L 73.531004 95.837388 
L 72.156009 93.810914 
L 71.148778 91.686781 
L 70.060074 88.50058 
L 68.994462 84.252312 
L 67.982798 78.941978 
L 66.772578 70.445442 
L 66.140904 64.073041 
L 66.104271 61.948907 
L 66.274125 59.824773 
L 66.772855 56.638572 
L 66.802327 55.576506 
L 66.802327 55.576506 
" style="fill:none;stroke:#56ffa0;stroke-width:1.5;"/>
   </g>
   <g id="LineCollection_7">
    <path clip-path="url(#p86a2b53519)" d="M 303.31529 293.479494 
L 303.171549 286.045026 
L 302.767929 278.610558 
L 302.05927 270.114022 
L 300.742541 257.369219 
L 298.292896 236.127881 
L 296.489526 220.196877 
L 295.170495 186.210736 
L 294.139374 155.410796 
L 293.174808 133.10739 
L 292.15636 115.052253 
L 291.070196 100.183316 
L 290.192654 91.237193 
L 289.344648 85.314379 
L 288.722588 82.128178 
L 287.918636 78.941978 
L 286.799372 75.755777 
L 285.779593 73.631643 
L 284.370444 71.507509 
L 283.436283 70.445442 
L 282.235846 69.383375 
L 280.598609 68.321309 
L 278.509918 67.454737 
L 276.385784 66.939737 
L 274.261651 66.689248 
L 272.137517 66.639048 
L 268.951316 66.862489 
L 265.765115 67.381391 
L 262.016575 68.321309 
L 258.330647 69.561444 
L 254.082379 71.322463 
L 250.896178 72.831912 
L 240.275509 78.037403 
L 237.089309 79.281648 
L 233.903108 80.23416 
L 230.716907 80.86857 
L 227.530706 81.192433 
L 224.344506 81.233084 
L 221.158305 81.033615 
L 217.972104 80.625873 
L 213.723836 79.852482 
L 208.413502 78.621696 
L 172.213165 69.383375 
L 166.992892 67.631512 
L 164.868758 66.74485 
L 162.744625 65.665736 
L 161.682558 65.027484 
L 160.407448 64.073041 
L 159.364126 63.010974 
L 158.496357 61.591358 
L 158.202698 60.88684 
L 157.981206 59.824773 
L 157.928694 58.762706 
L 158.200114 55.576506 
L 158.200114 55.576506 
" style="fill:none;stroke:#a0ff56;stroke-width:1.5;"/>
   </g>
   <g id="LineCollection_8">
    <path clip-path="url(#p86a2b53519)" d="M 310.430951 293.479494 
L 310.295681 284.982959 
L 309.933798 276.486424 
L 309.236545 265.865755 
L 308.00082 250.996818 
L 305.994671 229.75548 
L 303.575827 206.390007 
L 301.268648 186.210736 
L 299.099176 169.217665 
L 297.125913 155.410796 
L 296.533705 151.162528 
L 294.679374 113.990186 
L 293.810158 98.059182 
L 293.093193 88.50058 
L 292.390912 82.128178 
L 291.706792 77.879911 
L 291.011707 74.69371 
L 290.048132 71.507509 
L 289.130587 69.326131 
L 287.907586 67.259242 
L 287.006454 66.124009 
L 285.944387 65.082592 
L 284.5881 64.073041 
L 282.657151 63.010974 
L 280.634052 62.198759 
L 277.447851 61.270361 
L 270.013383 59.458348 
L 268.235357 58.762706 
L 267.07737 57.700639 
L 266.914103 56.638572 
L 267.322968 55.576506 
L 267.322968 55.576506 
" style="fill:none;stroke:#ebff0c;stroke-width:1.5;"/>
   </g>
   <g id="LineCollection_9">
    <path clip-path="url(#p86a2b53519)" d="M 317.704922 293.479494 
L 317.587544 283.920892 
L 317.229416 273.300223 
L 316.563273 260.55542 
L 315.368967 242.500283 
L 313.518031 218.072743 
L 311.447011 193.645204 
L 309.621241 174.528 
L 307.780323 157.534929 
L 306.075847 143.728059 
L 304.279155 130.983257 
L 302.570434 120.362587 
L 300.813323 110.746682 
L 299.059041 102.30745 
L 297.282 94.872981 
L 296.517881 91.686781 
L 295.7121 84.252312 
L 295.268952 80.004045 
L 294.668554 74.69371 
L 293.9704 70.445442 
L 293.200548 67.259242 
L 292.316788 64.7717 
L 291.254721 62.689379 
L 289.999029 60.88684 
L 286.67858 56.638572 
L 286.15074 55.576506 
L 286.15074 55.576506 
" style="fill:none;stroke:#ffab00;stroke-width:1.5;"/>
   </g>
   <g id="LineCollection_10">
    <path clip-path="url(#p86a2b53519)" d="M 325.090606 293.479494 
L 324.977639 281.796758 
L 324.607536 267.989888 
L 323.910838 250.996818 
L 322.668344 226.569279 
L 320.988524 197.893472 
L 319.413183 174.528 
L 317.919981 155.410796 
L 316.470897 139.479792 
L 315.00108 125.672922 
L 313.549079 113.990186 
L 312.009071 103.369517 
L 310.575295 94.872981 
L 309.126148 87.438513 
L 307.446225 80.004045 
L 305.794327 73.631643 
L 302.058104 59.824773 
L 301.753968 57.700639 
L 301.662392 55.576506 
L 301.662392 55.576506 
" style="fill:none;stroke:#ff5500;stroke-width:1.5;"/>
   </g>
   <g id="LineCollection_11">
    <path clip-path="url(#p86a2b53519)" d="M 332.546358 293.479494 
L 332.429389 277.548491 
L 332.036667 257.369219 
L 331.238891 229.75548 
L 330.010452 194.707271 
L 328.755791 164.969398 
L 327.554387 141.603926 
L 326.404195 123.548788 
L 325.240862 108.574424 
L 323.962208 94.872981 
L 320.905329 64.073041 
L 320.679747 58.762706 
L 320.646143 55.576506 
L 320.646143 55.576506 
" style="fill:none;stroke:#e80000;stroke-width:1.5;"/>
   </g>
   <g id="LineCollection_12">
    <path clip-path="url(#p86a2b53519)" d="M 340.039455 293.479494 
L 339.908461 259.493353 
L 339.527427 220.196877 
L 338.788347 163.907331 
L 338.079269 125.672922 
L 337.2806 95.935048 
L 336.4065 65.135108 
L 336.317113 55.576506 
L 336.317113 55.576506 
" style="fill:none;stroke:#800000;stroke-width:1.5;"/>
   </g>
   <g id="patch_3">
    <path d="M 57.6 293.479494 
L 57.6 55.576506 
" style="fill:none;stroke:#000000;stroke-linecap:square;stroke-linejoin:miter;stroke-width:0.8;"/>
   </g>
   <g id="patch_4">
    <path d="M 343.296 293.479494 
L 343.296 55.576506 
" style="fill:none;stroke:#000000;stroke-linecap:square;stroke-linejoin:miter;stroke-width:0.8;"/>
   </g>
   <g id="patch_5">
    <path d="M 57.6 293.479494 
L 343.296 293.479494 
" style="fill:none;stroke:#000000;stroke-linecap:square;stroke-linejoin:miter;stroke-width:0.8;"/>
   </g>
   <g id="patch_6">
    <path d="M 57.6 55.576506 
L 343.296 55.576506 
" style="fill:none;stroke:#000000;stroke-linecap:square;stroke-linejoin:miter;stroke-width:0.8;"/>
   </g>
   <g id="text_10">
    <!-- Time:0.04609 s -->
    <defs>
     <path d="M -0.296875 72.90625 
L 61.375 72.90625 
L 61.375 64.59375 
L 35.5 64.59375 
L 35.5 0 
L 25.59375 0 
L 25.59375 64.59375 
L -0.296875 64.59375 
z
" id="DejaVuSans-54"/>
     <path d="M 9.421875 54.6875 
L 18.40625 54.6875 
L 18.40625 0 
L 9.421875 0 
z
M 9.421875 75.984375 
L 18.40625 75.984375 
L 18.40625 64.59375 
L 9.421875 64.59375 
z
" id="DejaVuSans-69"/>
     <path d="M 52 44.1875 
Q 55.375 50.25 60.0625 53.125 
Q 64.75 56 71.09375 56 
Q 79.640625 56 84.28125 50.015625 
Q 88.921875 44.046875 88.921875 33.015625 
L 88.921875 0 
L 79.890625 0 
L 79.890625 32.71875 
Q 79.890625 40.578125 77.09375 44.375 
Q 74.3125 48.1875 68.609375 48.1875 
Q 61.625 48.1875 57.5625 43.546875 
Q 53.515625 38.921875 53.515625 30.90625 
L 53.515625 0 
L 44.484375 0 
L 44.484375 32.71875 
Q 44.484375 40.625 41.703125 44.40625 
Q 38.921875 48.1875 33.109375 48.1875 
Q 26.21875 48.1875 22.15625 43.53125 
Q 18.109375 38.875 18.109375 30.90625 
L 18.109375 0 
L 9.078125 0 
L 9.078125 54.6875 
L 18.109375 54.6875 
L 18.109375 46.1875 
Q 21.1875 51.21875 25.484375 53.609375 
Q 29.78125 56 35.6875 56 
Q 41.65625 56 45.828125 52.96875 
Q 50 49.953125 52 44.1875 
z
" id="DejaVuSans-6d"/>
     <path d="M 56.203125 29.59375 
L 56.203125 25.203125 
L 14.890625 25.203125 
Q 15.484375 15.921875 20.484375 11.0625 
Q 25.484375 6.203125 34.421875 6.203125 
Q 39.59375 6.203125 44.453125 7.46875 
Q 49.3125 8.734375 54.109375 11.28125 
L 54.109375 2.78125 
Q 49.265625 0.734375 44.1875 -0.34375 
Q 39.109375 -1.421875 33.890625 -1.421875 
Q 20.796875 -1.421875 13.15625 6.1875 
Q 5.515625 13.8125 5.515625 26.8125 
Q 5.515625 40.234375 12.765625 48.109375 
Q 20.015625 56 32.328125 56 
Q 43.359375 56 49.78125 48.890625 
Q 56.203125 41.796875 56.203125 29.59375 
z
M 47.21875 32.234375 
Q 47.125 39.59375 43.09375 43.984375 
Q 39.0625 48.390625 32.421875 48.390625 
Q 24.90625 48.390625 20.390625 44.140625 
Q 15.875 39.890625 15.1875 32.171875 
z
" id="DejaVuSans-65"/>
     <path d="M 11.71875 12.40625 
L 22.015625 12.40625 
L 22.015625 0 
L 11.71875 0 
z
M 11.71875 51.703125 
L 22.015625 51.703125 
L 22.015625 39.3125 
L 11.71875 39.3125 
z
" id="DejaVuSans-3a"/>
     <path d="M 10.984375 1.515625 
L 10.984375 10.5 
Q 14.703125 8.734375 18.5 7.8125 
Q 22.3125 6.890625 25.984375 6.890625 
Q 35.75 6.890625 40.890625 13.453125 
Q 46.046875 20.015625 46.78125 33.40625 
Q 43.953125 29.203125 39.59375 26.953125 
Q 35.25 24.703125 29.984375 24.703125 
Q 19.046875 24.703125 12.671875 31.3125 
Q 6.296875 37.9375 6.296875 49.421875 
Q 6.296875 60.640625 12.9375 67.421875 
Q 19.578125 74.21875 30.609375 74.21875 
Q 43.265625 74.21875 49.921875 64.515625 
Q 56.59375 54.828125 56.59375 36.375 
Q 56.59375 19.140625 48.40625 8.859375 
Q 40.234375 -1.421875 26.421875 -1.421875 
Q 22.703125 -1.421875 18.890625 -0.6875 
Q 15.09375 0.046875 10.984375 1.515625 
z
M 30.609375 32.421875 
Q 37.25 32.421875 41.125 36.953125 
Q 45.015625 41.5 45.015625 49.421875 
Q 45.015625 57.28125 41.125 61.84375 
Q 37.25 66.40625 30.609375 66.40625 
Q 23.96875 66.40625 20.09375 61.84375 
Q 16.21875 57.28125 16.21875 49.421875 
Q 16.21875 41.5 20.09375 36.953125 
Q 23.96875 32.421875 30.609375 32.421875 
z
" id="DejaVuSans-39"/>
     <path id="DejaVuSans-20"/>
     <path d="M 44.28125 53.078125 
L 44.28125 44.578125 
Q 40.484375 46.53125 36.375 47.5 
Q 32.28125 48.484375 27.875 48.484375 
Q 21.1875 48.484375 17.84375 46.4375 
Q 14.5 44.390625 14.5 40.28125 
Q 14.5 37.15625 16.890625 35.375 
Q 19.28125 33.59375 26.515625 31.984375 
L 29.59375 31.296875 
Q 39.15625 29.25 43.1875 25.515625 
Q 47.21875 21.78125 47.21875 15.09375 
Q 47.21875 7.46875 41.1875 3.015625 
Q 35.15625 -1.421875 24.609375 -1.421875 
Q 20.21875 -1.421875 15.453125 -0.5625 
Q 10.6875 0.296875 5.421875 2 
L 5.421875 11.28125 
Q 10.40625 8.6875 15.234375 7.390625 
Q 20.0625 6.109375 24.8125 6.109375 
Q 31.15625 6.109375 34.5625 8.28125 
Q 37.984375 10.453125 37.984375 14.40625 
Q 37.984375 18.0625 35.515625 20.015625 
Q 33.0625 21.96875 24.703125 23.78125 
L 21.578125 24.515625 
Q 13.234375 26.265625 9.515625 29.90625 
Q 5.8125 33.546875 5.8125 39.890625 
Q 5.8125 47.609375 11.28125 51.796875 
Q 16.75 56 26.8125 56 
Q 31.78125 56 36.171875 55.265625 
Q 40.578125 54.546875 44.28125 53.078125 
z
" id="DejaVuSans-73"/>
    </defs>
    <g transform="translate(153.717375 49.576506)scale(0.12 -0.12)">
     <use xlink:href="#DejaVuSans-54"/>
     <use x="61.037109" xlink:href="#DejaVuSans-69"/>
     <use x="88.820312" xlink:href="#DejaVuSans-6d"/>
     <use x="186.232422" xlink:href="#DejaVuSans-65"/>
     <use x="247.755859" xlink:href="#DejaVuSans-3a"/>
     <use x="281.447266" xlink:href="#DejaVuSans-30"/>
     <use x="345.070312" xlink:href="#DejaVuSans-2e"/>
     <use x="376.857422" xlink:href="#DejaVuSans-30"/>
     <use x="440.480469" xlink:href="#DejaVuSans-34"/>
     <use x="504.103516" xlink:href="#DejaVuSans-36"/>
     <use x="567.726562" xlink:href="#DejaVuSans-30"/>
     <use x="631.349609" xlink:href="#DejaVuSans-39"/>
     <use x="694.972656" xlink:href="#DejaVuSans-20"/>
     <use x="726.759766" xlink:href="#DejaVuSans-73"/>
    </g>
   </g>
  </g>
  <g id="axes_2">
   <g id="patch_7">
    <path clip-path="url(#pd76665dd51)" d="M 361.152 307.584 
L 361.152 283.392 
L 361.152 65.664 
L 361.152 41.472 
L 374.4576 41.472 
L 374.4576 65.664 
L 374.4576 283.392 
L 374.4576 307.584 
z
" style="fill:#ffffff;stroke:#ffffff;stroke-linejoin:miter;stroke-width:0.01;"/>
   </g>
   <g id="matplotlib.axis_3"/>
   <g id="matplotlib.axis_4">
    <g id="ytick_5">
     <g id="line2d_10">
      <defs>
       <path d="M 0 0 
L 3.5 0 
" id="m9f911fe90d" style="stroke:#000000;stroke-width:0.8;"/>
      </defs>
      <g>
       <use style="stroke:#000000;stroke-width:0.8;" x="374.4576" xlink:href="#m9f911fe90d" y="307.584"/>
      </g>
     </g>
     <g id="text_11">
      <!-- 0.08 -->
      <g transform="translate(381.4576 311.383219)scale(0.1 -0.1)">
       <use xlink:href="#DejaVuSans-30"/>
       <use x="63.623047" xlink:href="#DejaVuSans-2e"/>
       <use x="95.410156" xlink:href="#DejaVuSans-30"/>
       <use x="159.033203" xlink:href="#DejaVuSans-38"/>
      </g>
     </g>
    </g>
    <g id="ytick_6">
     <g id="line2d_11">
      <g>
       <use style="stroke:#000000;stroke-width:0.8;" x="374.4576" xlink:href="#m9f911fe90d" y="259.2"/>
      </g>
     </g>
     <g id="text_12">
      <!-- 0.24 -->
      <g transform="translate(381.4576 262.999219)scale(0.1 -0.1)">
       <use xlink:href="#DejaVuSans-30"/>
       <use x="63.623047" xlink:href="#DejaVuSans-2e"/>
       <use x="95.410156" xlink:href="#DejaVuSans-32"/>
       <use x="159.033203" xlink:href="#DejaVuSans-34"/>
      </g>
     </g>
    </g>
    <g id="ytick_7">
     <g id="line2d_12">
      <g>
       <use style="stroke:#000000;stroke-width:0.8;" x="374.4576" xlink:href="#m9f911fe90d" y="210.816"/>
      </g>
     </g>
     <g id="text_13">
      <!-- 0.40 -->
      <g transform="translate(381.4576 214.615219)scale(0.1 -0.1)">
       <use xlink:href="#DejaVuSans-30"/>
       <use x="63.623047" xlink:href="#DejaVuSans-2e"/>
       <use x="95.410156" xlink:href="#DejaVuSans-34"/>
       <use x="159.033203" xlink:href="#DejaVuSans-30"/>
      </g>
     </g>
    </g>
    <g id="ytick_8">
     <g id="line2d_13">
      <g>
       <use style="stroke:#000000;stroke-width:0.8;" x="374.4576" xlink:href="#m9f911fe90d" y="162.432"/>
      </g>
     </g>
     <g id="text_14">
      <!-- 0.56 -->
      <defs>
       <path d="M 10.796875 72.90625 
L 49.515625 72.90625 
L 49.515625 64.59375 
L 19.828125 64.59375 
L 19.828125 46.734375 
Q 21.96875 47.46875 24.109375 47.828125 
Q 26.265625 48.1875 28.421875 48.1875 
Q 40.625 48.1875 47.75 41.5 
Q 54.890625 34.8125 54.890625 23.390625 
Q 54.890625 11.625 47.5625 5.09375 
Q 40.234375 -1.421875 26.90625 -1.421875 
Q 22.3125 -1.421875 17.546875 -0.640625 
Q 12.796875 0.140625 7.71875 1.703125 
L 7.71875 11.625 
Q 12.109375 9.234375 16.796875 8.0625 
Q 21.484375 6.890625 26.703125 6.890625 
Q 35.15625 6.890625 40.078125 11.328125 
Q 45.015625 15.765625 45.015625 23.390625 
Q 45.015625 31 40.078125 35.4375 
Q 35.15625 39.890625 26.703125 39.890625 
Q 22.75 39.890625 18.8125 39.015625 
Q 14.890625 38.140625 10.796875 36.28125 
z
" id="DejaVuSans-35"/>
      </defs>
      <g transform="translate(381.4576 166.231219)scale(0.1 -0.1)">
       <use xlink:href="#DejaVuSans-30"/>
       <use x="63.623047" xlink:href="#DejaVuSans-2e"/>
       <use x="95.410156" xlink:href="#DejaVuSans-35"/>
       <use x="159.033203" xlink:href="#DejaVuSans-36"/>
      </g>
     </g>
    </g>
    <g id="ytick_9">
     <g id="line2d_14">
      <g>
       <use style="stroke:#000000;stroke-width:0.8;" x="374.4576" xlink:href="#m9f911fe90d" y="114.048"/>
      </g>
     </g>
     <g id="text_15">
      <!-- 0.72 -->
      <defs>
       <path d="M 8.203125 72.90625 
L 55.078125 72.90625 
L 55.078125 68.703125 
L 28.609375 0 
L 18.3125 0 
L 43.21875 64.59375 
L 8.203125 64.59375 
z
" id="DejaVuSans-37"/>
      </defs>
      <g transform="translate(381.4576 117.847219)scale(0.1 -0.1)">
       <use xlink:href="#DejaVuSans-30"/>
       <use x="63.623047" xlink:href="#DejaVuSans-2e"/>
       <use x="95.410156" xlink:href="#DejaVuSans-37"/>
       <use x="159.033203" xlink:href="#DejaVuSans-32"/>
      </g>
     </g>
    </g>
    <g id="ytick_10">
     <g id="line2d_15">
      <g>
       <use style="stroke:#000000;stroke-width:0.8;" x="374.4576" xlink:href="#m9f911fe90d" y="65.664"/>
      </g>
     </g>
     <g id="text_16">
      <!-- 0.88 -->
      <g transform="translate(381.4576 69.463219)scale(0.1 -0.1)">
       <use xlink:href="#DejaVuSans-30"/>
       <use x="63.623047" xlink:href="#DejaVuSans-2e"/>
       <use x="95.410156" xlink:href="#DejaVuSans-38"/>
       <use x="159.033203" xlink:href="#DejaVuSans-38"/>
      </g>
     </g>
    </g>
   </g>
   <g id="LineCollection_13">
    <path clip-path="url(#pd76665dd51)" d="M 361.152 307.584 
L 374.4576 307.584 
" style="fill:none;stroke:#000080;stroke-width:1.5;"/>
    <path clip-path="url(#pd76665dd51)" d="M 361.152 283.392 
L 374.4576 283.392 
" style="fill:none;stroke:#0000e8;stroke-width:1.5;"/>
    <path clip-path="url(#pd76665dd51)" d="M 361.152 259.2 
L 374.4576 259.2 
" style="fill:none;stroke:#0038ff;stroke-width:1.5;"/>
    <path clip-path="url(#pd76665dd51)" d="M 361.152 235.008 
L 374.4576 235.008 
" style="fill:none;stroke:#0094ff;stroke-width:1.5;"/>
    <path clip-path="url(#pd76665dd51)" d="M 361.152 210.816 
L 374.4576 210.816 
" style="fill:none;stroke:#0cf4eb;stroke-width:1.5;"/>
    <path clip-path="url(#pd76665dd51)" d="M 361.152 186.624 
L 374.4576 186.624 
" style="fill:none;stroke:#56ffa0;stroke-width:1.5;"/>
    <path clip-path="url(#pd76665dd51)" d="M 361.152 162.432 
L 374.4576 162.432 
" style="fill:none;stroke:#a0ff56;stroke-width:1.5;"/>
    <path clip-path="url(#pd76665dd51)" d="M 361.152 138.24 
L 374.4576 138.24 
" style="fill:none;stroke:#ebff0c;stroke-width:1.5;"/>
    <path clip-path="url(#pd76665dd51)" d="M 361.152 114.048 
L 374.4576 114.048 
" style="fill:none;stroke:#ffab00;stroke-width:1.5;"/>
    <path clip-path="url(#pd76665dd51)" d="M 361.152 89.856 
L 374.4576 89.856 
" style="fill:none;stroke:#ff5500;stroke-width:1.5;"/>
    <path clip-path="url(#pd76665dd51)" d="M 361.152 65.664 
L 374.4576 65.664 
" style="fill:none;stroke:#e80000;stroke-width:1.5;"/>
    <path clip-path="url(#pd76665dd51)" d="M 361.152 41.472 
L 374.4576 41.472 
" style="fill:none;stroke:#800000;stroke-width:1.5;"/>
   </g>
   <g id="patch_8">
    <path d="M 361.152 307.584 
L 361.152 283.392 
L 361.152 65.664 
L 361.152 41.472 
L 374.4576 41.472 
L 374.4576 65.664 
L 374.4576 283.392 
L 374.4576 307.584 
z
" style="fill:none;stroke:#000000;stroke-linejoin:miter;stroke-width:0.8;"/>
   </g>
  </g>
 </g>
 <defs>
  <clipPath id="p86a2b53519">
   <rect height="237.902989" width="285.696" x="57.6" y="55.576506"/>
  </clipPath>
  <clipPath id="pd76665dd51">
   <rect height="266.112" width="13.3056" x="361.152" y="41.472"/>
  </clipPath>
 </defs>
</svg>
