<?xml version="1.0" encoding="utf-8" standalone="no"?>
<!DOCTYPE svg PUBLIC "-//W3C//DTD SVG 1.1//EN"
  "http://www.w3.org/Graphics/SVG/1.1/DTD/svg11.dtd">
<!-- Created with matplotlib (http://matplotlib.org/) -->
<svg height="345.6pt" version="1.1" viewBox="0 0 460.8 345.6" width="460.8pt" xmlns="http://www.w3.org/2000/svg" xmlns:xlink="http://www.w3.org/1999/xlink">
 <defs>
  <style type="text/css">
*{stroke-linecap:butt;stroke-linejoin:round;}
  </style>
 </defs>
 <g id="figure_1">
  <g id="patch_1">
   <path d="M 0 345.6 
L 460.8 345.6 
L 460.8 0 
L 0 0 
z
" style="fill:#ffffff;"/>
  </g>
  <g id="axes_1">
   <g id="patch_2">
    <path d="M 57.6 293.479494 
L 343.296 293.479494 
L 343.296 55.576506 
L 57.6 55.576506 
z
" style="fill:#ffffff;"/>
   </g>
   <g id="matplotlib.axis_1">
    <g id="xtick_1">
     <g id="line2d_1">
      <defs>
       <path d="M 0 0 
L 0 3.5 
" id="m5bfe0b0eda" style="stroke:#000000;stroke-width:0.8;"/>
      </defs>
      <g>
       <use style="stroke:#000000;stroke-width:0.8;" x="104.861978" xlink:href="#m5bfe0b0eda" y="293.479494"/>
      </g>
     </g>
     <g id="text_1">
      <!-- 0.2 -->
      <defs>
       <path d="M 31.78125 66.40625 
Q 24.171875 66.40625 20.328125 58.90625 
Q 16.5 51.421875 16.5 36.375 
Q 16.5 21.390625 20.328125 13.890625 
Q 24.171875 6.390625 31.78125 6.390625 
Q 39.453125 6.390625 43.28125 13.890625 
Q 47.125 21.390625 47.125 36.375 
Q 47.125 51.421875 43.28125 58.90625 
Q 39.453125 66.40625 31.78125 66.40625 
z
M 31.78125 74.21875 
Q 44.046875 74.21875 50.515625 64.515625 
Q 56.984375 54.828125 56.984375 36.375 
Q 56.984375 17.96875 50.515625 8.265625 
Q 44.046875 -1.421875 31.78125 -1.421875 
Q 19.53125 -1.421875 13.0625 8.265625 
Q 6.59375 17.96875 6.59375 36.375 
Q 6.59375 54.828125 13.0625 64.515625 
Q 19.53125 74.21875 31.78125 74.21875 
z
" id="DejaVuSans-30"/>
       <path d="M 10.6875 12.40625 
L 21 12.40625 
L 21 0 
L 10.6875 0 
z
" id="DejaVuSans-2e"/>
       <path d="M 19.1875 8.296875 
L 53.609375 8.296875 
L 53.609375 0 
L 7.328125 0 
L 7.328125 8.296875 
Q 12.9375 14.109375 22.625 23.890625 
Q 32.328125 33.6875 34.8125 36.53125 
Q 39.546875 41.84375 41.421875 45.53125 
Q 43.3125 49.21875 43.3125 52.78125 
Q 43.3125 58.59375 39.234375 62.25 
Q 35.15625 65.921875 28.609375 65.921875 
Q 23.96875 65.921875 18.8125 64.3125 
Q 13.671875 62.703125 7.8125 59.421875 
L 7.8125 69.390625 
Q 13.765625 71.78125 18.9375 73 
Q 24.125 74.21875 28.421875 74.21875 
Q 39.75 74.21875 46.484375 68.546875 
Q 53.21875 62.890625 53.21875 53.421875 
Q 53.21875 48.921875 51.53125 44.890625 
Q 49.859375 40.875 45.40625 35.40625 
Q 44.1875 33.984375 37.640625 27.21875 
Q 31.109375 20.453125 19.1875 8.296875 
z
" id="DejaVuSans-32"/>
      </defs>
      <g transform="translate(96.910415 308.077932)scale(0.1 -0.1)">
       <use xlink:href="#DejaVuSans-30"/>
       <use x="63.623047" xlink:href="#DejaVuSans-2e"/>
       <use x="95.410156" xlink:href="#DejaVuSans-32"/>
      </g>
     </g>
    </g>
    <g id="xtick_2">
     <g id="line2d_2">
      <g>
       <use style="stroke:#000000;stroke-width:0.8;" x="152.654989" xlink:href="#m5bfe0b0eda" y="293.479494"/>
      </g>
     </g>
     <g id="text_2">
      <!-- 0.4 -->
      <defs>
       <path d="M 37.796875 64.3125 
L 12.890625 25.390625 
L 37.796875 25.390625 
z
M 35.203125 72.90625 
L 47.609375 72.90625 
L 47.609375 25.390625 
L 58.015625 25.390625 
L 58.015625 17.1875 
L 47.609375 17.1875 
L 47.609375 0 
L 37.796875 0 
L 37.796875 17.1875 
L 4.890625 17.1875 
L 4.890625 26.703125 
z
" id="DejaVuSans-34"/>
      </defs>
      <g transform="translate(144.703426 308.077932)scale(0.1 -0.1)">
       <use xlink:href="#DejaVuSans-30"/>
       <use x="63.623047" xlink:href="#DejaVuSans-2e"/>
       <use x="95.410156" xlink:href="#DejaVuSans-34"/>
      </g>
     </g>
    </g>
    <g id="xtick_3">
     <g id="line2d_3">
      <g>
       <use style="stroke:#000000;stroke-width:0.8;" x="200.448" xlink:href="#m5bfe0b0eda" y="293.479494"/>
      </g>
     </g>
     <g id="text_3">
      <!-- 0.6 -->
      <defs>
       <path d="M 33.015625 40.375 
Q 26.375 40.375 22.484375 35.828125 
Q 18.609375 31.296875 18.609375 23.390625 
Q 18.609375 15.53125 22.484375 10.953125 
Q 26.375 6.390625 33.015625 6.390625 
Q 39.65625 6.390625 43.53125 10.953125 
Q 47.40625 15.53125 47.40625 23.390625 
Q 47.40625 31.296875 43.53125 35.828125 
Q 39.65625 40.375 33.015625 40.375 
z
M 52.59375 71.296875 
L 52.59375 62.3125 
Q 48.875 64.0625 45.09375 64.984375 
Q 41.3125 65.921875 37.59375 65.921875 
Q 27.828125 65.921875 22.671875 59.328125 
Q 17.53125 52.734375 16.796875 39.40625 
Q 19.671875 43.65625 24.015625 45.921875 
Q 28.375 48.1875 33.59375 48.1875 
Q 44.578125 48.1875 50.953125 41.515625 
Q 57.328125 34.859375 57.328125 23.390625 
Q 57.328125 12.15625 50.6875 5.359375 
Q 44.046875 -1.421875 33.015625 -1.421875 
Q 20.359375 -1.421875 13.671875 8.265625 
Q 6.984375 17.96875 6.984375 36.375 
Q 6.984375 53.65625 15.1875 63.9375 
Q 23.390625 74.21875 37.203125 74.21875 
Q 40.921875 74.21875 44.703125 73.484375 
Q 48.484375 72.75 52.59375 71.296875 
z
" id="DejaVuSans-36"/>
      </defs>
      <g transform="translate(192.496438 308.077932)scale(0.1 -0.1)">
       <use xlink:href="#DejaVuSans-30"/>
       <use x="63.623047" xlink:href="#DejaVuSans-2e"/>
       <use x="95.410156" xlink:href="#DejaVuSans-36"/>
      </g>
     </g>
    </g>
    <g id="xtick_4">
     <g id="line2d_4">
      <g>
       <use style="stroke:#000000;stroke-width:0.8;" x="248.241011" xlink:href="#m5bfe0b0eda" y="293.479494"/>
      </g>
     </g>
     <g id="text_4">
      <!-- 0.8 -->
      <defs>
       <path d="M 31.78125 34.625 
Q 24.75 34.625 20.71875 30.859375 
Q 16.703125 27.09375 16.703125 20.515625 
Q 16.703125 13.921875 20.71875 10.15625 
Q 24.75 6.390625 31.78125 6.390625 
Q 38.8125 6.390625 42.859375 10.171875 
Q 46.921875 13.96875 46.921875 20.515625 
Q 46.921875 27.09375 42.890625 30.859375 
Q 38.875 34.625 31.78125 34.625 
z
M 21.921875 38.8125 
Q 15.578125 40.375 12.03125 44.71875 
Q 8.5 49.078125 8.5 55.328125 
Q 8.5 64.0625 14.71875 69.140625 
Q 20.953125 74.21875 31.78125 74.21875 
Q 42.671875 74.21875 48.875 69.140625 
Q 55.078125 64.0625 55.078125 55.328125 
Q 55.078125 49.078125 51.53125 44.71875 
Q 48 40.375 41.703125 38.8125 
Q 48.828125 37.15625 52.796875 32.3125 
Q 56.78125 27.484375 56.78125 20.515625 
Q 56.78125 9.90625 50.3125 4.234375 
Q 43.84375 -1.421875 31.78125 -1.421875 
Q 19.734375 -1.421875 13.25 4.234375 
Q 6.78125 9.90625 6.78125 20.515625 
Q 6.78125 27.484375 10.78125 32.3125 
Q 14.796875 37.15625 21.921875 38.8125 
z
M 18.3125 54.390625 
Q 18.3125 48.734375 21.84375 45.5625 
Q 25.390625 42.390625 31.78125 42.390625 
Q 38.140625 42.390625 41.71875 45.5625 
Q 45.3125 48.734375 45.3125 54.390625 
Q 45.3125 60.0625 41.71875 63.234375 
Q 38.140625 66.40625 31.78125 66.40625 
Q 25.390625 66.40625 21.84375 63.234375 
Q 18.3125 60.0625 18.3125 54.390625 
z
" id="DejaVuSans-38"/>
      </defs>
      <g transform="translate(240.289449 308.077932)scale(0.1 -0.1)">
       <use xlink:href="#DejaVuSans-30"/>
       <use x="63.623047" xlink:href="#DejaVuSans-2e"/>
       <use x="95.410156" xlink:href="#DejaVuSans-38"/>
      </g>
     </g>
    </g>
    <g id="xtick_5">
     <g id="line2d_5">
      <g>
       <use style="stroke:#000000;stroke-width:0.8;" x="296.034022" xlink:href="#m5bfe0b0eda" y="293.479494"/>
      </g>
     </g>
     <g id="text_5">
      <!-- 1.0 -->
      <defs>
       <path d="M 12.40625 8.296875 
L 28.515625 8.296875 
L 28.515625 63.921875 
L 10.984375 60.40625 
L 10.984375 69.390625 
L 28.421875 72.90625 
L 38.28125 72.90625 
L 38.28125 8.296875 
L 54.390625 8.296875 
L 54.390625 0 
L 12.40625 0 
z
" id="DejaVuSans-31"/>
      </defs>
      <g transform="translate(288.08246 308.077932)scale(0.1 -0.1)">
       <use xlink:href="#DejaVuSans-31"/>
       <use x="63.623047" xlink:href="#DejaVuSans-2e"/>
       <use x="95.410156" xlink:href="#DejaVuSans-30"/>
      </g>
     </g>
    </g>
   </g>
   <g id="matplotlib.axis_2">
    <g id="ytick_1">
     <g id="line2d_6">
      <defs>
       <path d="M 0 0 
L -3.5 0 
" id="m92ca5ccea0" style="stroke:#000000;stroke-width:0.8;"/>
      </defs>
      <g>
       <use style="stroke:#000000;stroke-width:0.8;" x="57.6" xlink:href="#m92ca5ccea0" y="246.217517"/>
      </g>
     </g>
     <g id="text_6">
      <!-- 0.2 -->
      <g transform="translate(34.696875 250.016735)scale(0.1 -0.1)">
       <use xlink:href="#DejaVuSans-30"/>
       <use x="63.623047" xlink:href="#DejaVuSans-2e"/>
       <use x="95.410156" xlink:href="#DejaVuSans-32"/>
      </g>
     </g>
    </g>
    <g id="ytick_2">
     <g id="line2d_7">
      <g>
       <use style="stroke:#000000;stroke-width:0.8;" x="57.6" xlink:href="#m92ca5ccea0" y="198.424506"/>
      </g>
     </g>
     <g id="text_7">
      <!-- 0.4 -->
      <g transform="translate(34.696875 202.223724)scale(0.1 -0.1)">
       <use xlink:href="#DejaVuSans-30"/>
       <use x="63.623047" xlink:href="#DejaVuSans-2e"/>
       <use x="95.410156" xlink:href="#DejaVuSans-34"/>
      </g>
     </g>
    </g>
    <g id="ytick_3">
     <g id="line2d_8">
      <g>
       <use style="stroke:#000000;stroke-width:0.8;" x="57.6" xlink:href="#m92ca5ccea0" y="150.631494"/>
      </g>
     </g>
     <g id="text_8">
      <!-- 0.6 -->
      <g transform="translate(34.696875 154.430713)scale(0.1 -0.1)">
       <use xlink:href="#DejaVuSans-30"/>
       <use x="63.623047" xlink:href="#DejaVuSans-2e"/>
       <use x="95.410156" xlink:href="#DejaVuSans-36"/>
      </g>
     </g>
    </g>
    <g id="ytick_4">
     <g id="line2d_9">
      <g>
       <use style="stroke:#000000;stroke-width:0.8;" x="57.6" xlink:href="#m92ca5ccea0" y="102.838483"/>
      </g>
     </g>
     <g id="text_9">
      <!-- 0.8 -->
      <g transform="translate(34.696875 106.637702)scale(0.1 -0.1)">
       <use xlink:href="#DejaVuSans-30"/>
       <use x="63.623047" xlink:href="#DejaVuSans-2e"/>
       <use x="95.410156" xlink:href="#DejaVuSans-38"/>
      </g>
     </g>
    </g>
   </g>
   <g id="LineCollection_1">
    <path clip-path="url(#p3cddf54255)" d="M 148.504547 293.479494 
L 148.316651 291.355361 
L 147.875688 289.754947 
L 147.691038 289.231227 
L 146.813621 287.605454 
L 146.495303 287.107093 
L 145.634502 286.045026 
L 144.562947 284.982959 
L 142.565353 283.482056 
L 141.503286 282.821464 
L 139.379152 281.780932 
L 136.33238 280.734691 
L 134.068818 280.239972 
L 130.882617 279.82372 
L 127.696416 279.705309 
L 124.510216 279.829547 
L 120.261948 280.257436 
L 114.951613 281.038897 
L 102.20681 283.076241 
L 96.896476 283.687617 
L 92.648208 283.982327 
L 88.399941 284.061225 
L 85.176434 283.920892 
L 82.027539 283.573218 
L 79.903405 283.17255 
L 77.779271 282.593077 
L 75.655138 281.774636 
L 73.531004 280.610803 
L 72.252996 279.672625 
L 71.089402 278.610558 
L 70.133706 277.548491 
L 68.650861 275.424357 
L 67.53166 273.300223 
L 66.652715 271.176089 
L 65.634764 267.989888 
L 64.861611 264.803688 
L 64.091023 260.55542 
L 63.521064 256.307152 
L 62.881426 249.934751 
L 62.204814 240.376149 
L 61.454981 226.569279 
L 60.638978 207.452074 
L 59.932084 185.148669 
L 59.286087 157.534929 
L 58.648413 120.362587 
L 57.962099 65.135108 
L 57.955482 55.576506 
L 57.955482 55.576506 
" style="fill:none;stroke:#000080;stroke-width:1.5;"/>
   </g>
   <g id="LineCollection_2">
    <path clip-path="url(#p3cddf54255)" d="M 286.949172 293.479494 
L 287.744006 288.16916 
L 287.822135 286.045026 
L 287.691949 282.858825 
L 287.006454 275.08739 
L 284.055531 250.996818 
L 283.332207 246.74855 
L 282.479502 242.500283 
L 281.363406 238.252015 
L 280.210034 235.065814 
L 279.571985 233.645655 
L 278.439156 231.879613 
L 277.447851 230.791778 
L 275.850813 229.75548 
L 275.323717 229.508422 
L 274.261651 229.203194 
L 272.137517 228.954598 
L 268.951316 228.99024 
L 258.330647 229.38929 
L 246.647911 229.496178 
L 219.034171 229.695435 
L 206.289368 230.032786 
L 178.675628 230.896923 
L 171.24116 230.788894 
L 163.806691 230.445948 
L 153.186022 229.692131 
L 140.441219 228.823992 
L 131.944684 228.474497 
L 110.703346 227.748356 
L 106.455078 227.609771 
L 103.268877 227.728328 
L 101.144743 228.033751 
L 98.838825 228.693413 
L 96.896476 229.607029 
L 95.145505 230.817546 
L 93.710275 232.109538 
L 92.0888 234.003747 
L 90.623096 236.127881 
L 89.411358 238.252015 
L 87.904847 241.438216 
L 86.636612 244.624416 
L 84.804862 249.934751 
L 83.637432 253.120952 
L 82.584492 255.245086 
L 81.820731 256.307152 
L 80.965472 257.104868 
L 79.903405 257.607615 
L 78.841338 257.702433 
L 77.632576 257.369219 
L 76.717204 256.873848 
L 75.655138 255.970615 
L 74.259504 254.183019 
L 73.531004 253.061556 
L 72.075178 249.934751 
L 71.268802 247.810617 
L 70.014336 243.562349 
L 69.010516 239.314082 
L 67.809697 232.94168 
L 66.68541 225.507212 
L 65.641539 217.010677 
L 64.589362 206.390007 
L 63.583992 193.645204 
L 62.590846 177.714201 
L 61.605252 157.534929 
L 60.637128 132.045323 
L 59.724134 100.728193 
L 58.789125 58.762706 
L 58.853992 55.576506 
L 58.853992 55.576506 
" style="fill:none;stroke:#0000e8;stroke-width:1.5;"/>
   </g>
   <g id="LineCollection_3">
    <path clip-path="url(#p3cddf54255)" d="M 290.463998 293.479494 
L 290.839572 287.107093 
L 290.696076 282.858825 
L 290.006736 272.238156 
L 288.131481 244.624416 
L 287.444971 236.127881 
L 286.464987 225.507212 
L 285.501276 217.010677 
L 284.435262 209.576208 
L 283.457909 204.265874 
L 282.43623 200.017606 
L 281.399399 196.831405 
L 280.448523 194.707271 
L 279.571985 193.294712 
L 278.509918 192.222809 
L 277.447851 191.641195 
L 276.385784 191.420686 
L 274.975648 191.521071 
L 273.199584 191.960926 
L 266.827182 193.995065 
L 263.640981 194.60892 
L 260.454781 194.949153 
L 256.206513 195.133139 
L 248.772045 195.159506 
L 216.910037 195.131071 
L 166.992892 195.232189 
L 139.379152 195.559582 
L 125.572283 195.72838 
L 120.261948 195.580946 
L 114.951613 195.182524 
L 109.641279 194.539749 
L 102.20681 193.61456 
L 99.02061 193.472125 
L 96.294236 193.645204 
L 94.772342 193.898468 
L 92.648208 194.523838 
L 90.524074 195.528514 
L 88.607147 196.831405 
L 87.337874 197.907509 
L 85.21374 200.125258 
L 82.750887 203.203807 
L 79.903405 206.86681 
L 78.28662 208.514141 
L 77.779271 208.958384 
L 76.68169 209.576208 
L 75.655138 209.777358 
L 74.593071 209.495567 
L 73.445728 208.514141 
L 72.468937 207.11112 
L 71.222711 204.265874 
L 70.20307 201.079673 
L 68.952172 195.769338 
L 67.804351 189.396937 
L 66.74467 181.962468 
L 65.653177 172.403866 
L 64.579495 160.72113 
L 63.54966 146.91426 
L 62.463268 128.859123 
L 61.442784 107.617784 
L 60.34199 78.941978 
L 59.699916 58.762706 
L 59.808972 55.576506 
L 59.808972 55.576506 
" style="fill:none;stroke:#0038ff;stroke-width:1.5;"/>
   </g>
   <g id="LineCollection_4">
    <path clip-path="url(#p3cddf54255)" d="M 292.573177 293.479494 
L 292.677172 284.982959 
L 292.257302 275.424357 
L 290.969796 248.872684 
L 289.53997 222.321011 
L 288.540399 207.452074 
L 287.58404 195.769338 
L 286.506831 185.148669 
L 285.565026 177.714201 
L 284.546889 171.341799 
L 283.428703 166.031465 
L 282.55189 162.845264 
L 281.696119 160.448937 
L 280.634052 158.425639 
L 279.571985 157.186122 
L 278.509918 156.575224 
L 277.378627 156.472862 
L 276.385784 156.708165 
L 274.849214 157.534929 
L 273.199584 158.70434 
L 268.951316 161.887514 
L 266.827182 163.140189 
L 264.703048 164.085701 
L 262.578914 164.747365 
L 260.454781 165.172061 
L 257.26858 165.48133 
L 254.082379 165.540305 
L 247.709978 165.369829 
L 238.151375 165.166818 
L 222.220372 165.17576 
L 188.23423 165.07499 
L 101.144743 164.70196 
L 95.834409 164.716121 
L 92.529888 164.969398 
L 90.524074 165.292645 
L 88.399941 165.837426 
L 86.275807 166.640352 
L 84.151673 167.734464 
L 81.858656 169.217665 
L 78.810471 171.341799 
L 77.779271 171.940366 
L 76.538012 172.403866 
L 75.655138 172.541388 
L 74.593071 172.329489 
L 73.531004 171.626529 
L 72.454006 170.279732 
L 71.373384 168.155599 
L 70.254352 164.969398 
L 68.937595 159.659063 
L 67.925151 154.348729 
L 66.807791 146.91426 
L 65.668584 137.355658 
L 64.554796 125.672922 
L 63.494504 111.866052 
L 62.441133 94.872981 
L 60.76579 63.010974 
L 60.727427 58.762706 
L 60.888125 55.576506 
L 60.888125 55.576506 
" style="fill:none;stroke:#0094ff;stroke-width:1.5;"/>
   </g>
   <g id="LineCollection_5">
    <path clip-path="url(#p3cddf54255)" d="M 294.226351 293.479494 
L 294.09838 280.734691 
L 292.588406 239.314082 
L 291.513808 213.824476 
L 290.53112 194.707271 
L 289.602576 179.838335 
L 288.631588 167.093532 
L 287.627949 156.472862 
L 286.620231 147.976327 
L 285.671579 141.603926 
L 284.663308 136.293591 
L 283.59823 132.045323 
L 282.497404 128.859123 
L 281.437617 126.734989 
L 280.634052 125.592509 
L 279.571985 124.759044 
L 278.509918 124.489937 
L 277.447851 124.682023 
L 276.385784 125.242598 
L 274.66402 126.734989 
L 273.199584 128.306616 
L 268.951316 133.213239 
L 266.827182 135.273152 
L 264.703048 136.895873 
L 262.578914 138.075482 
L 260.454781 138.857058 
L 258.330647 139.305453 
L 256.206513 139.490245 
L 254.082379 139.477493 
L 250.896178 139.214594 
L 237.089309 137.66206 
L 232.841041 137.539179 
L 226.468639 137.620243 
L 208.413502 138.02101 
L 190.358364 138.048012 
L 146.813621 138.1321 
L 90.399956 138.417725 
L 87.337874 138.736856 
L 84.151673 139.337541 
L 80.965472 140.234068 
L 77.779271 141.140777 
L 76.717204 141.293512 
L 75.655138 141.269621 
L 74.593071 140.98054 
L 73.531004 140.31877 
L 72.468937 139.160625 
L 71.403108 137.355658 
L 70.163156 134.169457 
L 68.988035 129.92119 
L 67.886917 124.610855 
L 66.856563 118.238454 
L 65.773877 109.741918 
L 64.605761 98.059182 
L 63.498952 84.252312 
L 61.972156 61.948907 
L 61.992019 58.762706 
L 62.226826 55.576506 
L 62.226826 55.576506 
" style="fill:none;stroke:#0cf4eb;stroke-width:1.5;"/>
   </g>
   <g id="LineCollection_6">
    <path clip-path="url(#p3cddf54255)" d="M 295.807445 293.479494 
L 295.648961 281.796758 
L 295.095548 262.679554 
L 293.764583 219.13481 
L 292.711337 191.521071 
L 291.701775 170.279732 
L 290.758749 154.348729 
L 289.732744 140.541859 
L 288.729532 129.92119 
L 287.708486 121.424654 
L 286.742883 115.052253 
L 285.725291 109.741918 
L 284.676082 105.493651 
L 283.643015 102.30745 
L 282.748639 100.183316 
L 281.365855 98.059182 
L 280.634052 97.266297 
L 279.571985 96.666412 
L 278.509918 96.550727 
L 277.247237 96.997115 
L 276.385784 97.558173 
L 274.85261 99.121249 
L 273.199584 101.230357 
L 268.651214 107.617784 
L 266.827182 109.858369 
L 264.703048 112.033901 
L 262.578914 113.711667 
L 260.454781 114.902689 
L 258.330647 115.651651 
L 256.206513 116.023073 
L 254.082379 116.091182 
L 251.958245 115.932132 
L 248.772045 115.421219 
L 237.089309 113.17997 
L 232.841041 112.692722 
L 228.592773 112.412109 
L 223.282439 112.286175 
L 215.84797 112.371341 
L 196.730766 112.954313 
L 179.737695 113.336752 
L 160.620491 113.520867 
L 108.579212 113.920924 
L 89.462007 114.260523 
L 84.151673 114.566174 
L 78.841338 114.950576 
L 76.717204 114.847004 
L 75.655138 114.608864 
L 74.353082 113.990186 
L 73.531004 113.406315 
L 72.243999 111.866052 
L 71.40687 110.497205 
L 70.216498 107.617784 
L 68.989201 103.369517 
L 67.862163 98.059182 
L 66.822607 91.686781 
L 65.731372 83.190245 
L 64.057003 67.259242 
L 63.814258 64.073041 
L 63.717872 60.88684 
L 63.810522 58.762706 
L 64.104432 55.576506 
L 64.104432 55.576506 
" style="fill:none;stroke:#56ffa0;stroke-width:1.5;"/>
   </g>
   <g id="LineCollection_7">
    <path clip-path="url(#p3cddf54255)" d="M 301.424968 293.479494 
L 301.317026 287.107093 
L 301.000996 280.734691 
L 300.40897 273.300223 
L 299.217924 261.617487 
L 297.120864 243.562349 
L 296.532023 238.252015 
L 295.087922 201.079673 
L 294.049798 171.341799 
L 293.055859 149.038394 
L 292.08464 132.045323 
L 291.065492 118.238454 
L 289.951781 106.555717 
L 288.915633 98.059182 
L 287.89729 91.686781 
L 287.003805 87.438513 
L 285.752065 83.190245 
L 284.88232 80.958494 
L 283.820253 78.880091 
L 282.348856 76.817844 
L 281.330628 75.755777 
L 279.94377 74.69371 
L 279.571985 74.458992 
L 277.600947 73.631643 
L 277.447851 73.582665 
L 276.385784 73.368424 
L 274.261651 73.271841 
L 272.137517 73.563024 
L 271.07545 73.858746 
L 268.951316 74.704558 
L 266.827182 75.96869 
L 265.690259 76.817844 
L 263.640981 78.78187 
L 262.578914 80.038079 
L 261.103689 82.128178 
L 258.605881 86.376446 
L 257.26858 88.519035 
L 255.567302 90.624714 
L 254.420612 91.686781 
L 253.020312 92.679879 
L 251.958245 93.248285 
L 249.834112 94.065353 
L 247.709978 94.565352 
L 245.359479 94.872981 
L 242.399643 95.011436 
L 238.151375 94.905882 
L 232.841041 94.474522 
L 225.406572 93.593376 
L 208.413502 91.47038 
L 200.979033 90.836297 
L 193.544565 90.449863 
L 185.04803 90.241146 
L 147.875688 89.633665 
L 130.882617 88.972622 
L 105.393011 87.741368 
L 82.027539 86.432904 
L 78.841338 86.057307 
L 76.717204 85.528181 
L 75.655138 85.078949 
L 74.394148 84.252312 
L 73.301485 83.190245 
L 72.468465 82.128178 
L 71.329348 80.004045 
L 70.149545 76.817844 
L 69.029307 72.569576 
L 68.040881 67.259242 
L 67.726104 64.073041 
L 67.695919 61.948907 
L 67.896031 59.824773 
L 68.418601 56.638572 
L 68.401993 55.576506 
L 68.401993 55.576506 
" style="fill:none;stroke:#a0ff56;stroke-width:1.5;"/>
   </g>
   <g id="LineCollection_8">
    <path clip-path="url(#p3cddf54255)" d="M 308.829631 293.479494 
L 308.689229 284.982959 
L 308.311742 276.486424 
L 307.587964 265.865755 
L 306.405763 252.058885 
L 304.637517 234.003747 
L 302.546953 214.886543 
L 300.476747 197.893472 
L 298.31217 181.962468 
L 296.504997 169.217665 
L 294.909968 137.355658 
L 293.9975 119.30052 
L 293.033937 104.431584 
L 292.146219 93.810914 
L 291.254721 86.164096 
L 290.380568 81.066112 
L 289.627088 77.879911 
L 288.993433 75.755777 
L 288.06852 73.362344 
L 287.006454 71.325037 
L 285.578848 69.383375 
L 284.513582 68.321309 
L 283.085074 67.259242 
L 281.696119 66.506726 
L 279.571985 65.728956 
L 277.447851 65.254755 
L 275.323717 64.996563 
L 272.137517 64.900648 
L 268.951316 65.067704 
L 264.703048 65.58561 
L 260.454781 66.356952 
L 246.647911 69.083462 
L 243.46171 69.392684 
L 240.275509 69.436647 
L 238.151375 69.301834 
L 234.965175 68.818833 
L 232.822772 68.321309 
L 229.65484 67.239954 
L 227.392585 66.197175 
L 225.406572 65.025694 
L 223.282439 63.370741 
L 222.872888 63.010974 
L 221.919021 61.948907 
L 221.158305 60.841852 
L 220.627072 59.824773 
L 219.929004 57.700639 
L 219.479615 55.576506 
L 219.479615 55.576506 
" style="fill:none;stroke:#ebff0c;stroke-width:1.5;"/>
   </g>
   <g id="LineCollection_9">
    <path clip-path="url(#p3cddf54255)" d="M 316.424632 293.479494 
L 316.30319 283.920892 
L 315.932308 273.300223 
L 315.242268 260.55542 
L 314.075049 243.562349 
L 312.464954 223.383078 
L 310.634278 203.203807 
L 308.775295 185.148669 
L 306.912707 169.217665 
L 305.061591 155.289978 
L 303.321844 143.728059 
L 301.518047 133.10739 
L 299.6853 123.548788 
L 297.853516 115.052253 
L 296.486575 108.679851 
L 293.981594 80.004045 
L 293.352285 75.755777 
L 292.703484 72.569576 
L 292.141118 70.445442 
L 291.254721 67.956039 
L 290.192654 65.867742 
L 288.881105 64.073041 
L 287.850363 63.010974 
L 285.944387 61.486925 
L 280.16006 57.700639 
L 279.397473 56.638572 
L 279.093049 55.576506 
L 279.093049 55.576506 
" style="fill:none;stroke:#ffab00;stroke-width:1.5;"/>
   </g>
   <g id="LineCollection_10">
    <path clip-path="url(#p3cddf54255)" d="M 324.159556 293.479494 
L 324.043041 281.796758 
L 323.695921 269.051955 
L 323.032356 253.120952 
L 321.920526 231.879613 
L 320.478847 208.514141 
L 318.954004 187.272803 
L 317.452979 169.217665 
L 315.916271 153.286662 
L 314.368584 139.479792 
L 312.854497 127.797056 
L 311.269935 117.176387 
L 309.630151 107.617784 
L 307.954862 99.121249 
L 306.266984 91.686781 
L 304.596573 85.314379 
L 302.937457 79.849438 
L 301.507208 75.755777 
L 299.751257 71.430098 
L 298.259716 68.321309 
L 296.507917 65.135108 
L 294.757805 57.700639 
L 294.424812 55.576506 
L 294.424812 55.576506 
" style="fill:none;stroke:#ff5500;stroke-width:1.5;"/>
   </g>
   <g id="LineCollection_11">
    <path clip-path="url(#p3cddf54255)" d="M 331.989656 293.479494 
L 331.869303 277.548491 
L 331.496855 259.493353 
L 330.674651 231.879613 
L 329.645525 204.265874 
L 328.427063 177.403951 
L 327.21219 155.410796 
L 325.993631 137.355658 
L 324.78163 122.486721 
L 323.428551 108.679851 
L 322.054662 96.839452 
L 320.37184 84.252312 
L 318.245003 68.321309 
L 317.749363 63.010974 
L 317.494822 57.700639 
L 317.476163 55.576506 
L 317.476163 55.576506 
" style="fill:none;stroke:#e80000;stroke-width:1.5;"/>
   </g>
   <g id="LineCollection_12">
    <path clip-path="url(#p3cddf54255)" d="M 339.87504 293.479494 
L 339.761219 266.927822 
L 338.852403 187.272803 
L 338.120642 146.91426 
L 337.274162 115.052253 
L 336.238517 87.438513 
L 335.560533 70.445442 
L 335.341539 59.824773 
L 335.322737 55.576506 
L 335.322737 55.576506 
" style="fill:none;stroke:#800000;stroke-width:1.5;"/>
   </g>
   <g id="patch_3">
    <path d="M 57.6 293.479494 
L 57.6 55.576506 
" style="fill:none;stroke:#000000;stroke-linecap:square;stroke-linejoin:miter;stroke-width:0.8;"/>
   </g>
   <g id="patch_4">
    <path d="M 343.296 293.479494 
L 343.296 55.576506 
" style="fill:none;stroke:#000000;stroke-linecap:square;stroke-linejoin:miter;stroke-width:0.8;"/>
   </g>
   <g id="patch_5">
    <path d="M 57.6 293.479494 
L 343.296 293.479494 
" style="fill:none;stroke:#000000;stroke-linecap:square;stroke-linejoin:miter;stroke-width:0.8;"/>
   </g>
   <g id="patch_6">
    <path d="M 57.6 55.576506 
L 343.296 55.576506 
" style="fill:none;stroke:#000000;stroke-linecap:square;stroke-linejoin:miter;stroke-width:0.8;"/>
   </g>
   <g id="text_10">
    <!-- Time:0.07572 s -->
    <defs>
     <path d="M -0.296875 72.90625 
L 61.375 72.90625 
L 61.375 64.59375 
L 35.5 64.59375 
L 35.5 0 
L 25.59375 0 
L 25.59375 64.59375 
L -0.296875 64.59375 
z
" id="DejaVuSans-54"/>
     <path d="M 9.421875 54.6875 
L 18.40625 54.6875 
L 18.40625 0 
L 9.421875 0 
z
M 9.421875 75.984375 
L 18.40625 75.984375 
L 18.40625 64.59375 
L 9.421875 64.59375 
z
" id="DejaVuSans-69"/>
     <path d="M 52 44.1875 
Q 55.375 50.25 60.0625 53.125 
Q 64.75 56 71.09375 56 
Q 79.640625 56 84.28125 50.015625 
Q 88.921875 44.046875 88.921875 33.015625 
L 88.921875 0 
L 79.890625 0 
L 79.890625 32.71875 
Q 79.890625 40.578125 77.09375 44.375 
Q 74.3125 48.1875 68.609375 48.1875 
Q 61.625 48.1875 57.5625 43.546875 
Q 53.515625 38.921875 53.515625 30.90625 
L 53.515625 0 
L 44.484375 0 
L 44.484375 32.71875 
Q 44.484375 40.625 41.703125 44.40625 
Q 38.921875 48.1875 33.109375 48.1875 
Q 26.21875 48.1875 22.15625 43.53125 
Q 18.109375 38.875 18.109375 30.90625 
L 18.109375 0 
L 9.078125 0 
L 9.078125 54.6875 
L 18.109375 54.6875 
L 18.109375 46.1875 
Q 21.1875 51.21875 25.484375 53.609375 
Q 29.78125 56 35.6875 56 
Q 41.65625 56 45.828125 52.96875 
Q 50 49.953125 52 44.1875 
z
" id="DejaVuSans-6d"/>
     <path d="M 56.203125 29.59375 
L 56.203125 25.203125 
L 14.890625 25.203125 
Q 15.484375 15.921875 20.484375 11.0625 
Q 25.484375 6.203125 34.421875 6.203125 
Q 39.59375 6.203125 44.453125 7.46875 
Q 49.3125 8.734375 54.109375 11.28125 
L 54.109375 2.78125 
Q 49.265625 0.734375 44.1875 -0.34375 
Q 39.109375 -1.421875 33.890625 -1.421875 
Q 20.796875 -1.421875 13.15625 6.1875 
Q 5.515625 13.8125 5.515625 26.8125 
Q 5.515625 40.234375 12.765625 48.109375 
Q 20.015625 56 32.328125 56 
Q 43.359375 56 49.78125 48.890625 
Q 56.203125 41.796875 56.203125 29.59375 
z
M 47.21875 32.234375 
Q 47.125 39.59375 43.09375 43.984375 
Q 39.0625 48.390625 32.421875 48.390625 
Q 24.90625 48.390625 20.390625 44.140625 
Q 15.875 39.890625 15.1875 32.171875 
z
" id="DejaVuSans-65"/>
     <path d="M 11.71875 12.40625 
L 22.015625 12.40625 
L 22.015625 0 
L 11.71875 0 
z
M 11.71875 51.703125 
L 22.015625 51.703125 
L 22.015625 39.3125 
L 11.71875 39.3125 
z
" id="DejaVuSans-3a"/>
     <path d="M 8.203125 72.90625 
L 55.078125 72.90625 
L 55.078125 68.703125 
L 28.609375 0 
L 18.3125 0 
L 43.21875 64.59375 
L 8.203125 64.59375 
z
" id="DejaVuSans-37"/>
     <path d="M 10.796875 72.90625 
L 49.515625 72.90625 
L 49.515625 64.59375 
L 19.828125 64.59375 
L 19.828125 46.734375 
Q 21.96875 47.46875 24.109375 47.828125 
Q 26.265625 48.1875 28.421875 48.1875 
Q 40.625 48.1875 47.75 41.5 
Q 54.890625 34.8125 54.890625 23.390625 
Q 54.890625 11.625 47.5625 5.09375 
Q 40.234375 -1.421875 26.90625 -1.421875 
Q 22.3125 -1.421875 17.546875 -0.640625 
Q 12.796875 0.140625 7.71875 1.703125 
L 7.71875 11.625 
Q 12.109375 9.234375 16.796875 8.0625 
Q 21.484375 6.890625 26.703125 6.890625 
Q 35.15625 6.890625 40.078125 11.328125 
Q 45.015625 15.765625 45.015625 23.390625 
Q 45.015625 31 40.078125 35.4375 
Q 35.15625 39.890625 26.703125 39.890625 
Q 22.75 39.890625 18.8125 39.015625 
Q 14.890625 38.140625 10.796875 36.28125 
z
" id="DejaVuSans-35"/>
     <path id="DejaVuSans-20"/>
     <path d="M 44.28125 53.078125 
L 44.28125 44.578125 
Q 40.484375 46.53125 36.375 47.5 
Q 32.28125 48.484375 27.875 48.484375 
Q 21.1875 48.484375 17.84375 46.4375 
Q 14.5 44.390625 14.5 40.28125 
Q 14.5 37.15625 16.890625 35.375 
Q 19.28125 33.59375 26.515625 31.984375 
L 29.59375 31.296875 
Q 39.15625 29.25 43.1875 25.515625 
Q 47.21875 21.78125 47.21875 15.09375 
Q 47.21875 7.46875 41.1875 3.015625 
Q 35.15625 -1.421875 24.609375 -1.421875 
Q 20.21875 -1.421875 15.453125 -0.5625 
Q 10.6875 0.296875 5.421875 2 
L 5.421875 11.28125 
Q 10.40625 8.6875 15.234375 7.390625 
Q 20.0625 6.109375 24.8125 6.109375 
Q 31.15625 6.109375 34.5625 8.28125 
Q 37.984375 10.453125 37.984375 14.40625 
Q 37.984375 18.0625 35.515625 20.015625 
Q 33.0625 21.96875 24.703125 23.78125 
L 21.578125 24.515625 
Q 13.234375 26.265625 9.515625 29.90625 
Q 5.8125 33.546875 5.8125 39.890625 
Q 5.8125 47.609375 11.28125 51.796875 
Q 16.75 56 26.8125 56 
Q 31.78125 56 36.171875 55.265625 
Q 40.578125 54.546875 44.28125 53.078125 
z
" id="DejaVuSans-73"/>
    </defs>
    <g transform="translate(153.717375 49.576506)scale(0.12 -0.12)">
     <use xlink:href="#DejaVuSans-54"/>
     <use x="61.037109" xlink:href="#DejaVuSans-69"/>
     <use x="88.820312" xlink:href="#DejaVuSans-6d"/>
     <use x="186.232422" xlink:href="#DejaVuSans-65"/>
     <use x="247.755859" xlink:href="#DejaVuSans-3a"/>
     <use x="281.447266" xlink:href="#DejaVuSans-30"/>
     <use x="345.070312" xlink:href="#DejaVuSans-2e"/>
     <use x="376.857422" xlink:href="#DejaVuSans-30"/>
     <use x="440.480469" xlink:href="#DejaVuSans-37"/>
     <use x="504.103516" xlink:href="#DejaVuSans-35"/>
     <use x="567.726562" xlink:href="#DejaVuSans-37"/>
     <use x="631.349609" xlink:href="#DejaVuSans-32"/>
     <use x="694.972656" xlink:href="#DejaVuSans-20"/>
     <use x="726.759766" xlink:href="#DejaVuSans-73"/>
    </g>
   </g>
  </g>
  <g id="axes_2">
   <g id="patch_7">
    <path clip-path="url(#p9bb9f6b76c)" d="M 361.152 307.584 
L 361.152 283.392 
L 361.152 65.664 
L 361.152 41.472 
L 374.4576 41.472 
L 374.4576 65.664 
L 374.4576 283.392 
L 374.4576 307.584 
z
" style="fill:#ffffff;stroke:#ffffff;stroke-linejoin:miter;stroke-width:0.01;"/>
   </g>
   <g id="matplotlib.axis_3"/>
   <g id="matplotlib.axis_4">
    <g id="ytick_5">
     <g id="line2d_10">
      <defs>
       <path d="M 0 0 
L 3.5 0 
" id="m2e2105c300" style="stroke:#000000;stroke-width:0.8;"/>
      </defs>
      <g>
       <use style="stroke:#000000;stroke-width:0.8;" x="374.4576" xlink:href="#m2e2105c300" y="307.584"/>
      </g>
     </g>
     <g id="text_11">
      <!-- 0.08 -->
      <g transform="translate(381.4576 311.383219)scale(0.1 -0.1)">
       <use xlink:href="#DejaVuSans-30"/>
       <use x="63.623047" xlink:href="#DejaVuSans-2e"/>
       <use x="95.410156" xlink:href="#DejaVuSans-30"/>
       <use x="159.033203" xlink:href="#DejaVuSans-38"/>
      </g>
     </g>
    </g>
    <g id="ytick_6">
     <g id="line2d_11">
      <g>
       <use style="stroke:#000000;stroke-width:0.8;" x="374.4576" xlink:href="#m2e2105c300" y="259.2"/>
      </g>
     </g>
     <g id="text_12">
      <!-- 0.24 -->
      <g transform="translate(381.4576 262.999219)scale(0.1 -0.1)">
       <use xlink:href="#DejaVuSans-30"/>
       <use x="63.623047" xlink:href="#DejaVuSans-2e"/>
       <use x="95.410156" xlink:href="#DejaVuSans-32"/>
       <use x="159.033203" xlink:href="#DejaVuSans-34"/>
      </g>
     </g>
    </g>
    <g id="ytick_7">
     <g id="line2d_12">
      <g>
       <use style="stroke:#000000;stroke-width:0.8;" x="374.4576" xlink:href="#m2e2105c300" y="210.816"/>
      </g>
     </g>
     <g id="text_13">
      <!-- 0.40 -->
      <g transform="translate(381.4576 214.615219)scale(0.1 -0.1)">
       <use xlink:href="#DejaVuSans-30"/>
       <use x="63.623047" xlink:href="#DejaVuSans-2e"/>
       <use x="95.410156" xlink:href="#DejaVuSans-34"/>
       <use x="159.033203" xlink:href="#DejaVuSans-30"/>
      </g>
     </g>
    </g>
    <g id="ytick_8">
     <g id="line2d_13">
      <g>
       <use style="stroke:#000000;stroke-width:0.8;" x="374.4576" xlink:href="#m2e2105c300" y="162.432"/>
      </g>
     </g>
     <g id="text_14">
      <!-- 0.56 -->
      <g transform="translate(381.4576 166.231219)scale(0.1 -0.1)">
       <use xlink:href="#DejaVuSans-30"/>
       <use x="63.623047" xlink:href="#DejaVuSans-2e"/>
       <use x="95.410156" xlink:href="#DejaVuSans-35"/>
       <use x="159.033203" xlink:href="#DejaVuSans-36"/>
      </g>
     </g>
    </g>
    <g id="ytick_9">
     <g id="line2d_14">
      <g>
       <use style="stroke:#000000;stroke-width:0.8;" x="374.4576" xlink:href="#m2e2105c300" y="114.048"/>
      </g>
     </g>
     <g id="text_15">
      <!-- 0.72 -->
      <g transform="translate(381.4576 117.847219)scale(0.1 -0.1)">
       <use xlink:href="#DejaVuSans-30"/>
       <use x="63.623047" xlink:href="#DejaVuSans-2e"/>
       <use x="95.410156" xlink:href="#DejaVuSans-37"/>
       <use x="159.033203" xlink:href="#DejaVuSans-32"/>
      </g>
     </g>
    </g>
    <g id="ytick_10">
     <g id="line2d_15">
      <g>
       <use style="stroke:#000000;stroke-width:0.8;" x="374.4576" xlink:href="#m2e2105c300" y="65.664"/>
      </g>
     </g>
     <g id="text_16">
      <!-- 0.88 -->
      <g transform="translate(381.4576 69.463219)scale(0.1 -0.1)">
       <use xlink:href="#DejaVuSans-30"/>
       <use x="63.623047" xlink:href="#DejaVuSans-2e"/>
       <use x="95.410156" xlink:href="#DejaVuSans-38"/>
       <use x="159.033203" xlink:href="#DejaVuSans-38"/>
      </g>
     </g>
    </g>
   </g>
   <g id="LineCollection_13">
    <path clip-path="url(#p9bb9f6b76c)" d="M 361.152 307.584 
L 374.4576 307.584 
" style="fill:none;stroke:#000080;stroke-width:1.5;"/>
    <path clip-path="url(#p9bb9f6b76c)" d="M 361.152 283.392 
L 374.4576 283.392 
" style="fill:none;stroke:#0000e8;stroke-width:1.5;"/>
    <path clip-path="url(#p9bb9f6b76c)" d="M 361.152 259.2 
L 374.4576 259.2 
" style="fill:none;stroke:#0038ff;stroke-width:1.5;"/>
    <path clip-path="url(#p9bb9f6b76c)" d="M 361.152 235.008 
L 374.4576 235.008 
" style="fill:none;stroke:#0094ff;stroke-width:1.5;"/>
    <path clip-path="url(#p9bb9f6b76c)" d="M 361.152 210.816 
L 374.4576 210.816 
" style="fill:none;stroke:#0cf4eb;stroke-width:1.5;"/>
    <path clip-path="url(#p9bb9f6b76c)" d="M 361.152 186.624 
L 374.4576 186.624 
" style="fill:none;stroke:#56ffa0;stroke-width:1.5;"/>
    <path clip-path="url(#p9bb9f6b76c)" d="M 361.152 162.432 
L 374.4576 162.432 
" style="fill:none;stroke:#a0ff56;stroke-width:1.5;"/>
    <path clip-path="url(#p9bb9f6b76c)" d="M 361.152 138.24 
L 374.4576 138.24 
" style="fill:none;stroke:#ebff0c;stroke-width:1.5;"/>
    <path clip-path="url(#p9bb9f6b76c)" d="M 361.152 114.048 
L 374.4576 114.048 
" style="fill:none;stroke:#ffab00;stroke-width:1.5;"/>
    <path clip-path="url(#p9bb9f6b76c)" d="M 361.152 89.856 
L 374.4576 89.856 
" style="fill:none;stroke:#ff5500;stroke-width:1.5;"/>
    <path clip-path="url(#p9bb9f6b76c)" d="M 361.152 65.664 
L 374.4576 65.664 
" style="fill:none;stroke:#e80000;stroke-width:1.5;"/>
    <path clip-path="url(#p9bb9f6b76c)" d="M 361.152 41.472 
L 374.4576 41.472 
" style="fill:none;stroke:#800000;stroke-width:1.5;"/>
   </g>
   <g id="patch_8">
    <path d="M 361.152 307.584 
L 361.152 283.392 
L 361.152 65.664 
L 361.152 41.472 
L 374.4576 41.472 
L 374.4576 65.664 
L 374.4576 283.392 
L 374.4576 307.584 
z
" style="fill:none;stroke:#000000;stroke-linejoin:miter;stroke-width:0.8;"/>
   </g>
  </g>
 </g>
 <defs>
  <clipPath id="p3cddf54255">
   <rect height="237.902989" width="285.696" x="57.6" y="55.576506"/>
  </clipPath>
  <clipPath id="p9bb9f6b76c">
   <rect height="266.112" width="13.3056" x="361.152" y="41.472"/>
  </clipPath>
 </defs>
</svg>
