<?xml version="1.0" encoding="utf-8" standalone="no"?>
<!DOCTYPE svg PUBLIC "-//W3C//DTD SVG 1.1//EN"
  "http://www.w3.org/Graphics/SVG/1.1/DTD/svg11.dtd">
<!-- Created with matplotlib (http://matplotlib.org/) -->
<svg height="345.6pt" version="1.1" viewBox="0 0 460.8 345.6" width="460.8pt" xmlns="http://www.w3.org/2000/svg" xmlns:xlink="http://www.w3.org/1999/xlink">
 <defs>
  <style type="text/css">
*{stroke-linecap:butt;stroke-linejoin:round;}
  </style>
 </defs>
 <g id="figure_1">
  <g id="patch_1">
   <path d="M 0 345.6 
L 460.8 345.6 
L 460.8 0 
L 0 0 
z
" style="fill:#ffffff;"/>
  </g>
  <g id="axes_1">
   <g id="patch_2">
    <path d="M 57.6 293.479494 
L 343.296 293.479494 
L 343.296 55.576506 
L 57.6 55.576506 
z
" style="fill:#ffffff;"/>
   </g>
   <g id="matplotlib.axis_1">
    <g id="xtick_1">
     <g id="line2d_1">
      <defs>
       <path d="M 0 0 
L 0 3.5 
" id="m6291f27b28" style="stroke:#000000;stroke-width:0.8;"/>
      </defs>
      <g>
       <use style="stroke:#000000;stroke-width:0.8;" x="104.861978" xlink:href="#m6291f27b28" y="293.479494"/>
      </g>
     </g>
     <g id="text_1">
      <!-- 0.2 -->
      <defs>
       <path d="M 31.78125 66.40625 
Q 24.171875 66.40625 20.328125 58.90625 
Q 16.5 51.421875 16.5 36.375 
Q 16.5 21.390625 20.328125 13.890625 
Q 24.171875 6.390625 31.78125 6.390625 
Q 39.453125 6.390625 43.28125 13.890625 
Q 47.125 21.390625 47.125 36.375 
Q 47.125 51.421875 43.28125 58.90625 
Q 39.453125 66.40625 31.78125 66.40625 
z
M 31.78125 74.21875 
Q 44.046875 74.21875 50.515625 64.515625 
Q 56.984375 54.828125 56.984375 36.375 
Q 56.984375 17.96875 50.515625 8.265625 
Q 44.046875 -1.421875 31.78125 -1.421875 
Q 19.53125 -1.421875 13.0625 8.265625 
Q 6.59375 17.96875 6.59375 36.375 
Q 6.59375 54.828125 13.0625 64.515625 
Q 19.53125 74.21875 31.78125 74.21875 
z
" id="DejaVuSans-30"/>
       <path d="M 10.6875 12.40625 
L 21 12.40625 
L 21 0 
L 10.6875 0 
z
" id="DejaVuSans-2e"/>
       <path d="M 19.1875 8.296875 
L 53.609375 8.296875 
L 53.609375 0 
L 7.328125 0 
L 7.328125 8.296875 
Q 12.9375 14.109375 22.625 23.890625 
Q 32.328125 33.6875 34.8125 36.53125 
Q 39.546875 41.84375 41.421875 45.53125 
Q 43.3125 49.21875 43.3125 52.78125 
Q 43.3125 58.59375 39.234375 62.25 
Q 35.15625 65.921875 28.609375 65.921875 
Q 23.96875 65.921875 18.8125 64.3125 
Q 13.671875 62.703125 7.8125 59.421875 
L 7.8125 69.390625 
Q 13.765625 71.78125 18.9375 73 
Q 24.125 74.21875 28.421875 74.21875 
Q 39.75 74.21875 46.484375 68.546875 
Q 53.21875 62.890625 53.21875 53.421875 
Q 53.21875 48.921875 51.53125 44.890625 
Q 49.859375 40.875 45.40625 35.40625 
Q 44.1875 33.984375 37.640625 27.21875 
Q 31.109375 20.453125 19.1875 8.296875 
z
" id="DejaVuSans-32"/>
      </defs>
      <g transform="translate(96.910415 308.077932)scale(0.1 -0.1)">
       <use xlink:href="#DejaVuSans-30"/>
       <use x="63.623047" xlink:href="#DejaVuSans-2e"/>
       <use x="95.410156" xlink:href="#DejaVuSans-32"/>
      </g>
     </g>
    </g>
    <g id="xtick_2">
     <g id="line2d_2">
      <g>
       <use style="stroke:#000000;stroke-width:0.8;" x="152.654989" xlink:href="#m6291f27b28" y="293.479494"/>
      </g>
     </g>
     <g id="text_2">
      <!-- 0.4 -->
      <defs>
       <path d="M 37.796875 64.3125 
L 12.890625 25.390625 
L 37.796875 25.390625 
z
M 35.203125 72.90625 
L 47.609375 72.90625 
L 47.609375 25.390625 
L 58.015625 25.390625 
L 58.015625 17.1875 
L 47.609375 17.1875 
L 47.609375 0 
L 37.796875 0 
L 37.796875 17.1875 
L 4.890625 17.1875 
L 4.890625 26.703125 
z
" id="DejaVuSans-34"/>
      </defs>
      <g transform="translate(144.703426 308.077932)scale(0.1 -0.1)">
       <use xlink:href="#DejaVuSans-30"/>
       <use x="63.623047" xlink:href="#DejaVuSans-2e"/>
       <use x="95.410156" xlink:href="#DejaVuSans-34"/>
      </g>
     </g>
    </g>
    <g id="xtick_3">
     <g id="line2d_3">
      <g>
       <use style="stroke:#000000;stroke-width:0.8;" x="200.448" xlink:href="#m6291f27b28" y="293.479494"/>
      </g>
     </g>
     <g id="text_3">
      <!-- 0.6 -->
      <defs>
       <path d="M 33.015625 40.375 
Q 26.375 40.375 22.484375 35.828125 
Q 18.609375 31.296875 18.609375 23.390625 
Q 18.609375 15.53125 22.484375 10.953125 
Q 26.375 6.390625 33.015625 6.390625 
Q 39.65625 6.390625 43.53125 10.953125 
Q 47.40625 15.53125 47.40625 23.390625 
Q 47.40625 31.296875 43.53125 35.828125 
Q 39.65625 40.375 33.015625 40.375 
z
M 52.59375 71.296875 
L 52.59375 62.3125 
Q 48.875 64.0625 45.09375 64.984375 
Q 41.3125 65.921875 37.59375 65.921875 
Q 27.828125 65.921875 22.671875 59.328125 
Q 17.53125 52.734375 16.796875 39.40625 
Q 19.671875 43.65625 24.015625 45.921875 
Q 28.375 48.1875 33.59375 48.1875 
Q 44.578125 48.1875 50.953125 41.515625 
Q 57.328125 34.859375 57.328125 23.390625 
Q 57.328125 12.15625 50.6875 5.359375 
Q 44.046875 -1.421875 33.015625 -1.421875 
Q 20.359375 -1.421875 13.671875 8.265625 
Q 6.984375 17.96875 6.984375 36.375 
Q 6.984375 53.65625 15.1875 63.9375 
Q 23.390625 74.21875 37.203125 74.21875 
Q 40.921875 74.21875 44.703125 73.484375 
Q 48.484375 72.75 52.59375 71.296875 
z
" id="DejaVuSans-36"/>
      </defs>
      <g transform="translate(192.496438 308.077932)scale(0.1 -0.1)">
       <use xlink:href="#DejaVuSans-30"/>
       <use x="63.623047" xlink:href="#DejaVuSans-2e"/>
       <use x="95.410156" xlink:href="#DejaVuSans-36"/>
      </g>
     </g>
    </g>
    <g id="xtick_4">
     <g id="line2d_4">
      <g>
       <use style="stroke:#000000;stroke-width:0.8;" x="248.241011" xlink:href="#m6291f27b28" y="293.479494"/>
      </g>
     </g>
     <g id="text_4">
      <!-- 0.8 -->
      <defs>
       <path d="M 31.78125 34.625 
Q 24.75 34.625 20.71875 30.859375 
Q 16.703125 27.09375 16.703125 20.515625 
Q 16.703125 13.921875 20.71875 10.15625 
Q 24.75 6.390625 31.78125 6.390625 
Q 38.8125 6.390625 42.859375 10.171875 
Q 46.921875 13.96875 46.921875 20.515625 
Q 46.921875 27.09375 42.890625 30.859375 
Q 38.875 34.625 31.78125 34.625 
z
M 21.921875 38.8125 
Q 15.578125 40.375 12.03125 44.71875 
Q 8.5 49.078125 8.5 55.328125 
Q 8.5 64.0625 14.71875 69.140625 
Q 20.953125 74.21875 31.78125 74.21875 
Q 42.671875 74.21875 48.875 69.140625 
Q 55.078125 64.0625 55.078125 55.328125 
Q 55.078125 49.078125 51.53125 44.71875 
Q 48 40.375 41.703125 38.8125 
Q 48.828125 37.15625 52.796875 32.3125 
Q 56.78125 27.484375 56.78125 20.515625 
Q 56.78125 9.90625 50.3125 4.234375 
Q 43.84375 -1.421875 31.78125 -1.421875 
Q 19.734375 -1.421875 13.25 4.234375 
Q 6.78125 9.90625 6.78125 20.515625 
Q 6.78125 27.484375 10.78125 32.3125 
Q 14.796875 37.15625 21.921875 38.8125 
z
M 18.3125 54.390625 
Q 18.3125 48.734375 21.84375 45.5625 
Q 25.390625 42.390625 31.78125 42.390625 
Q 38.140625 42.390625 41.71875 45.5625 
Q 45.3125 48.734375 45.3125 54.390625 
Q 45.3125 60.0625 41.71875 63.234375 
Q 38.140625 66.40625 31.78125 66.40625 
Q 25.390625 66.40625 21.84375 63.234375 
Q 18.3125 60.0625 18.3125 54.390625 
z
" id="DejaVuSans-38"/>
      </defs>
      <g transform="translate(240.289449 308.077932)scale(0.1 -0.1)">
       <use xlink:href="#DejaVuSans-30"/>
       <use x="63.623047" xlink:href="#DejaVuSans-2e"/>
       <use x="95.410156" xlink:href="#DejaVuSans-38"/>
      </g>
     </g>
    </g>
    <g id="xtick_5">
     <g id="line2d_5">
      <g>
       <use style="stroke:#000000;stroke-width:0.8;" x="296.034022" xlink:href="#m6291f27b28" y="293.479494"/>
      </g>
     </g>
     <g id="text_5">
      <!-- 1.0 -->
      <defs>
       <path d="M 12.40625 8.296875 
L 28.515625 8.296875 
L 28.515625 63.921875 
L 10.984375 60.40625 
L 10.984375 69.390625 
L 28.421875 72.90625 
L 38.28125 72.90625 
L 38.28125 8.296875 
L 54.390625 8.296875 
L 54.390625 0 
L 12.40625 0 
z
" id="DejaVuSans-31"/>
      </defs>
      <g transform="translate(288.08246 308.077932)scale(0.1 -0.1)">
       <use xlink:href="#DejaVuSans-31"/>
       <use x="63.623047" xlink:href="#DejaVuSans-2e"/>
       <use x="95.410156" xlink:href="#DejaVuSans-30"/>
      </g>
     </g>
    </g>
   </g>
   <g id="matplotlib.axis_2">
    <g id="ytick_1">
     <g id="line2d_6">
      <defs>
       <path d="M 0 0 
L -3.5 0 
" id="m8d6ef45400" style="stroke:#000000;stroke-width:0.8;"/>
      </defs>
      <g>
       <use style="stroke:#000000;stroke-width:0.8;" x="57.6" xlink:href="#m8d6ef45400" y="246.217517"/>
      </g>
     </g>
     <g id="text_6">
      <!-- 0.2 -->
      <g transform="translate(34.696875 250.016735)scale(0.1 -0.1)">
       <use xlink:href="#DejaVuSans-30"/>
       <use x="63.623047" xlink:href="#DejaVuSans-2e"/>
       <use x="95.410156" xlink:href="#DejaVuSans-32"/>
      </g>
     </g>
    </g>
    <g id="ytick_2">
     <g id="line2d_7">
      <g>
       <use style="stroke:#000000;stroke-width:0.8;" x="57.6" xlink:href="#m8d6ef45400" y="198.424506"/>
      </g>
     </g>
     <g id="text_7">
      <!-- 0.4 -->
      <g transform="translate(34.696875 202.223724)scale(0.1 -0.1)">
       <use xlink:href="#DejaVuSans-30"/>
       <use x="63.623047" xlink:href="#DejaVuSans-2e"/>
       <use x="95.410156" xlink:href="#DejaVuSans-34"/>
      </g>
     </g>
    </g>
    <g id="ytick_3">
     <g id="line2d_8">
      <g>
       <use style="stroke:#000000;stroke-width:0.8;" x="57.6" xlink:href="#m8d6ef45400" y="150.631494"/>
      </g>
     </g>
     <g id="text_8">
      <!-- 0.6 -->
      <g transform="translate(34.696875 154.430713)scale(0.1 -0.1)">
       <use xlink:href="#DejaVuSans-30"/>
       <use x="63.623047" xlink:href="#DejaVuSans-2e"/>
       <use x="95.410156" xlink:href="#DejaVuSans-36"/>
      </g>
     </g>
    </g>
    <g id="ytick_4">
     <g id="line2d_9">
      <g>
       <use style="stroke:#000000;stroke-width:0.8;" x="57.6" xlink:href="#m8d6ef45400" y="102.838483"/>
      </g>
     </g>
     <g id="text_9">
      <!-- 0.8 -->
      <g transform="translate(34.696875 106.637702)scale(0.1 -0.1)">
       <use xlink:href="#DejaVuSans-30"/>
       <use x="63.623047" xlink:href="#DejaVuSans-2e"/>
       <use x="95.410156" xlink:href="#DejaVuSans-38"/>
      </g>
     </g>
    </g>
   </g>
   <g id="LineCollection_1">
    <path clip-path="url(#pc3d012a7aa)" d="M 287.669227 293.479494 
L 288.45337 287.107093 
L 288.395848 283.920892 
L 288.034138 278.610558 
L 287.09941 267.989888 
L 285.78909 252.058885 
L 283.820253 231.32137 
L 282.402967 221.258944 
L 281.39914 215.94861 
L 280.311012 211.700342 
L 279.571985 209.429216 
L 278.509918 207.11009 
L 277.25853 205.327941 
L 276.066612 204.265874 
L 275.323717 203.8069 
L 274.261651 203.419888 
L 273.045173 203.203807 
L 271.07545 203.112966 
L 264.703048 203.131245 
L 261.516848 202.879546 
L 257.26858 202.271403 
L 251.148331 201.079673 
L 226.468639 196.040784 
L 220.096238 195.058568 
L 213.723836 194.293852 
L 207.351435 193.766343 
L 200.979033 193.47884 
L 194.606632 193.409984 
L 187.172164 193.55337 
L 176.551494 194.020409 
L 133.006751 196.167913 
L 128.758483 196.138609 
L 125.572283 195.936734 
L 122.386082 195.546425 
L 119.199881 194.961386 
L 114.951613 193.937761 
L 108.579212 192.341609 
L 106.455078 191.981486 
L 104.330944 191.812001 
L 102.20681 191.907638 
L 100.082677 192.342673 
L 97.958543 193.186106 
L 95.834409 194.484406 
L 93.710275 196.244692 
L 91.586141 198.408998 
L 84.151673 206.781619 
L 82.027539 208.567804 
L 80.322828 209.576208 
L 79.903405 209.782384 
L 78.841338 210.13754 
L 77.779271 210.304713 
L 76.717204 210.266453 
L 75.655138 210.003184 
L 74.593071 209.491439 
L 73.348702 208.514141 
L 72.36162 207.452074 
L 70.946478 205.327941 
L 69.869966 203.203807 
L 68.992811 201.079673 
L 67.924821 197.893472 
L 66.792995 193.645204 
L 65.675284 188.33487 
L 64.615168 181.962468 
L 63.632059 174.528 
L 62.63302 164.969398 
L 61.680574 153.286662 
L 60.820614 139.479792 
L 60.224469 126.734989 
L 59.637637 109.741918 
L 59.1523 88.50058 
L 58.759333 60.88684 
L 58.832036 55.576506 
L 58.832036 55.576506 
" style="fill:none;stroke:#000080;stroke-width:1.5;"/>
   </g>
   <g id="LineCollection_2">
    <path clip-path="url(#pc3d012a7aa)" d="M 290.655168 293.479494 
L 291.039781 287.107093 
L 290.888614 282.858825 
L 286.78238 211.700342 
L 285.490233 195.769338 
L 284.376059 185.148669 
L 283.382483 177.714201 
L 282.489626 172.403866 
L 281.577223 168.155599 
L 280.634052 164.861478 
L 279.571985 162.316789 
L 278.509918 160.708749 
L 277.447851 159.83067 
L 276.385784 159.501212 
L 275.033813 159.659063 
L 274.261651 159.901086 
L 272.137517 160.99263 
L 268.858076 162.845264 
L 266.461643 163.907331 
L 264.703048 164.479502 
L 262.240058 164.969398 
L 260.454781 165.148029 
L 258.330647 165.189584 
L 254.840824 164.969398 
L 250.896178 164.447623 
L 245.585844 163.495474 
L 236.027242 161.501645 
L 224.344506 159.090151 
L 216.910037 157.794594 
L 210.537636 156.895822 
L 203.103167 156.093419 
L 195.668699 155.525869 
L 187.172164 155.121859 
L 177.613561 154.920688 
L 164.868758 154.92153 
L 140.441219 154.953186 
L 127.696416 154.831194 
L 122.386082 154.536992 
L 118.137814 154.077802 
L 113.889546 153.390143 
L 106.455078 151.848483 
L 102.20681 151.070908 
L 99.02061 150.754715 
L 96.896476 150.757091 
L 94.772342 150.997059 
L 92.648208 151.545278 
L 90.524074 152.468279 
L 88.399941 153.834548 
L 86.275807 155.672916 
L 84.151673 157.93918 
L 79.903405 162.862125 
L 78.828061 163.907331 
L 77.368823 164.969398 
L 76.717204 165.332446 
L 75.655138 165.623025 
L 74.593071 165.560693 
L 73.38798 164.969398 
L 72.27181 163.907331 
L 71.40687 162.742857 
L 70.340469 160.72113 
L 69.118348 157.534929 
L 67.888559 153.286662 
L 66.910575 149.038394 
L 65.753074 142.665993 
L 64.696364 135.231524 
L 63.750785 126.734989 
L 62.842672 116.11432 
L 61.981556 102.30745 
L 61.445982 90.624714 
L 60.753069 70.445442 
L 60.573447 60.88684 
L 60.744356 55.576506 
L 60.744356 55.576506 
" style="fill:none;stroke:#0000e8;stroke-width:1.5;"/>
   </g>
   <g id="LineCollection_3">
    <path clip-path="url(#pc3d012a7aa)" d="M 292.555718 293.479494 
L 292.704086 286.045026 
L 292.417094 278.610558 
L 290.921043 243.562349 
L 289.130587 200.950273 
L 287.692774 175.590067 
L 286.544682 159.659063 
L 285.479998 147.976327 
L 284.496474 139.479792 
L 283.558652 133.10739 
L 282.533456 127.797056 
L 281.393413 123.548788 
L 280.634052 121.379273 
L 279.524072 119.30052 
L 278.509918 118.150609 
L 277.447851 117.608857 
L 276.385784 117.596568 
L 274.959908 118.238454 
L 274.261651 118.701929 
L 272.137517 120.664756 
L 268.222504 124.610855 
L 266.827182 125.807702 
L 264.703048 127.264466 
L 262.578914 128.281997 
L 260.454781 128.901907 
L 258.330647 129.195248 
L 256.206513 129.241267 
L 253.020312 129.01141 
L 238.151375 127.344989 
L 230.716907 126.930708 
L 216.910037 126.429234 
L 206.289368 126.214814 
L 197.792833 126.272104 
L 188.23423 126.59223 
L 142.565353 128.500523 
L 126.139209 128.859123 
L 119.199881 128.840552 
L 112.82748 128.609036 
L 106.455078 128.143137 
L 96.896476 127.381825 
L 93.710275 127.321916 
L 90.524074 127.497639 
L 88.399941 127.798229 
L 86.275807 128.284432 
L 84.151673 128.978254 
L 81.935507 129.92119 
L 77.417159 132.045323 
L 76.717204 132.297737 
L 75.655138 132.515783 
L 74.593071 132.496075 
L 73.382436 132.045323 
L 72.468937 131.385693 
L 71.314706 129.92119 
L 70.213287 127.797056 
L 69.066154 124.610855 
L 67.959207 120.362587 
L 66.925523 115.052253 
L 65.847402 107.617784 
L 64.824324 98.059182 
L 63.914609 86.376446 
L 63.062627 70.445442 
L 62.822365 63.010974 
L 62.910335 59.427507 
L 63.223285 55.576506 
L 63.223285 55.576506 
" style="fill:none;stroke:#0038ff;stroke-width:1.5;"/>
   </g>
   <g id="LineCollection_4">
    <path clip-path="url(#pc3d012a7aa)" d="M 294.060851 293.479494 
L 294.051687 283.920892 
L 293.36784 263.741621 
L 292.273544 228.693413 
L 290.757817 185.148669 
L 289.6429 159.659063 
L 288.600384 140.541859 
L 287.654819 126.734989 
L 286.554368 113.990186 
L 285.525633 104.431584 
L 284.527758 96.997115 
L 283.617721 91.686781 
L 282.653697 87.438513 
L 281.683736 84.252312 
L 280.304621 81.066112 
L 279.024538 78.941978 
L 278.2061 77.879911 
L 277.190421 76.817844 
L 275.853911 75.755777 
L 274.261651 74.843576 
L 273.199584 74.423075 
L 271.07545 73.900568 
L 268.951316 73.726033 
L 266.827182 73.860872 
L 264.703048 74.256019 
L 262.578914 74.885747 
L 260.454781 75.773205 
L 258.330647 76.986498 
L 256.206513 78.600448 
L 255.144446 79.622529 
L 254.082379 80.861558 
L 253.91815 81.066112 
L 253.020312 82.509267 
L 252.229725 84.252312 
L 251.69136 86.376446 
L 251.500354 88.50058 
L 251.557396 91.686781 
L 251.580645 93.810914 
L 251.395348 95.935048 
L 250.851539 98.059182 
L 250.399765 99.121249 
L 249.801567 100.183316 
L 248.772045 101.535355 
L 247.709978 102.615305 
L 246.647911 103.496612 
L 244.523777 104.856019 
L 242.399643 105.889255 
L 240.275509 106.700753 
L 237.066788 107.617784 
L 233.903108 108.244467 
L 230.555411 108.679851 
L 227.530706 108.895871 
L 223.282439 108.951583 
L 219.034171 108.74728 
L 214.785903 108.311032 
L 210.270085 107.617784 
L 205.227301 106.615216 
L 198.8549 105.095371 
L 183.985963 101.417791 
L 179.737695 100.611846 
L 175.489428 100.002422 
L 171.24116 99.61631 
L 166.992892 99.445303 
L 161.682558 99.498195 
L 155.310156 99.840911 
L 141.503286 100.938903 
L 131.944684 101.572871 
L 122.386082 101.98604 
L 111.765413 102.212155 
L 89.462007 102.533344 
L 83.089606 102.998802 
L 79.903405 103.173429 
L 77.779271 103.033627 
L 76.717204 102.789623 
L 75.574262 102.30745 
L 74.593071 101.656198 
L 73.254848 100.183316 
L 72.468937 99.015656 
L 71.122982 95.935048 
L 70.133252 92.748848 
L 69.16287 88.50058 
L 68.139457 82.128178 
L 67.25977 73.631643 
L 66.998134 69.383375 
L 66.917707 65.135108 
L 67.082968 61.948907 
L 67.416608 59.824773 
L 68.012233 56.638572 
L 68.045683 55.576506 
L 68.045683 55.576506 
" style="fill:none;stroke:#0094ff;stroke-width:1.5;"/>
   </g>
   <g id="LineCollection_5">
    <path clip-path="url(#pc3d012a7aa)" d="M 295.401649 293.479494 
L 295.286782 280.734691 
L 293.954582 228.693413 
L 292.614119 179.838335 
L 291.598549 150.100461 
L 290.690154 128.859123 
L 289.662357 109.741918 
L 288.777382 96.997115 
L 288.025088 89.562647 
L 287.182317 84.252312 
L 286.457577 81.066112 
L 285.850536 78.941978 
L 284.88232 76.358475 
L 283.820253 74.226117 
L 282.756807 72.569576 
L 281.696119 71.281046 
L 280.634052 70.241972 
L 279.551453 69.383375 
L 277.447851 68.176788 
L 275.323717 67.385112 
L 273.199584 66.908406 
L 271.07545 66.655301 
L 268.951316 66.577718 
L 265.765115 66.726868 
L 262.578914 67.130355 
L 259.392714 67.77438 
L 256.206513 68.628559 
L 253.020312 69.702294 
L 249.834112 71.003887 
L 246.586699 72.569576 
L 242.86823 74.69371 
L 239.213442 77.143222 
L 236.027242 79.547645 
L 232.841041 82.155617 
L 226.468639 87.446991 
L 224.344506 88.939607 
L 222.220372 90.153896 
L 220.096238 91.069241 
L 217.972104 91.701919 
L 215.84797 92.07445 
L 213.723836 92.229228 
L 211.599703 92.194091 
L 208.413502 91.840813 
L 205.227301 91.171735 
L 202.0411 90.246739 
L 198.8549 89.102268 
L 194.606632 87.310258 
L 188.23423 84.237774 
L 178.675628 79.453692 
L 171.24116 76.10335 
L 157.582336 70.445442 
L 153.662234 68.321309 
L 152.123955 67.17993 
L 151.061888 66.149783 
L 150.319146 65.135108 
L 149.852493 64.073041 
L 149.661908 63.010974 
L 149.710125 61.948907 
L 149.999822 60.755638 
L 150.796626 58.762706 
L 151.652227 56.638572 
L 151.859955 55.576506 
L 151.859955 55.576506 
" style="fill:none;stroke:#0cf4eb;stroke-width:1.5;"/>
   </g>
   <g id="LineCollection_6">
    <path clip-path="url(#pc3d012a7aa)" d="M 299.257166 293.479494 
L 299.117554 286.045026 
L 298.740597 279.672625 
L 297.984642 271.176089 
L 296.488257 255.245086 
L 295.363288 220.196877 
L 294.108633 166.031465 
L 293.132246 133.10739 
L 292.145041 107.617784 
L 291.400424 93.810914 
L 290.850712 87.438513 
L 290.167793 82.128178 
L 289.330735 77.879911 
L 288.767481 75.755777 
L 288.06852 73.606168 
L 287.006454 71.142196 
L 285.944387 69.280863 
L 284.88232 67.852366 
L 283.820253 66.727085 
L 282.758186 65.830734 
L 281.696119 65.102932 
L 279.571985 64.03791 
L 277.447851 63.319442 
L 275.323717 62.819934 
L 272.137517 62.356608 
L 268.951316 62.123162 
L 264.703048 62.044411 
L 259.392714 62.176702 
L 246.647911 62.686704 
L 244.523777 62.518293 
L 243.46171 62.323897 
L 242.239337 61.948907 
L 241.101848 60.88684 
L 240.907779 59.824773 
L 241.337576 58.310511 
L 241.605067 57.700639 
L 242.882342 55.576506 
L 242.882342 55.576506 
" style="fill:none;stroke:#56ffa0;stroke-width:1.5;"/>
   </g>
   <g id="LineCollection_7">
    <path clip-path="url(#pc3d012a7aa)" d="M 305.8215 293.479494 
L 305.705233 286.045026 
L 305.328043 277.548491 
L 304.595458 266.927822 
L 302.915214 246.74855 
L 298.152359 192.583138 
L 296.477965 173.465933 
L 294.789291 120.362587 
L 294.043456 99.121249 
L 293.46341 88.50058 
L 293.000108 83.190245 
L 292.316788 77.852783 
L 291.495063 73.631643 
L 290.93844 71.507509 
L 290.192654 69.256432 
L 289.130587 66.910615 
L 288.011374 65.135108 
L 287.006454 63.9423 
L 285.944387 62.951556 
L 283.820253 61.479911 
L 281.696119 60.39375 
L 275.323717 57.605442 
L 274.238611 56.638572 
L 273.941073 55.576506 
L 273.941073 55.576506 
" style="fill:none;stroke:#a0ff56;stroke-width:1.5;"/>
   </g>
   <g id="LineCollection_8">
    <path clip-path="url(#pc3d012a7aa)" d="M 312.538906 293.479494 
L 312.404084 283.920892 
L 312.048592 274.36229 
L 311.342183 261.617487 
L 309.713752 237.189948 
L 306.123658 186.692587 
L 304.21987 162.845264 
L 302.475288 143.728059 
L 300.813323 127.998637 
L 299.364592 116.11432 
L 297.861487 105.493651 
L 296.447074 95.935048 
L 295.78621 87.438513 
L 294.306796 72.569576 
L 293.521483 68.321309 
L 292.961504 66.197175 
L 292.210953 64.073041 
L 291.160516 61.948907 
L 289.743278 59.824773 
L 287.59217 56.638572 
L 287.113983 55.576506 
L 287.113983 55.576506 
" style="fill:none;stroke:#ebff0c;stroke-width:1.5;"/>
   </g>
   <g id="LineCollection_9">
    <path clip-path="url(#pc3d012a7aa)" d="M 319.378136 293.479494 
L 319.263698 282.858825 
L 318.885197 270.114022 
L 318.128521 253.120952 
L 316.133855 214.886543 
L 313.86638 174.528 
L 312.347634 151.162528 
L 310.965094 133.10739 
L 309.606846 118.238454 
L 308.316821 106.555717 
L 307.180322 98.059182 
L 305.975568 90.624714 
L 304.720292 84.252312 
L 303.464009 78.941978 
L 301.963956 73.631643 
L 300.5478 69.383375 
L 298.68919 64.607003 
L 296.564362 59.824773 
L 296.149266 56.638572 
L 296.10262 55.576506 
L 296.10262 55.576506 
" style="fill:none;stroke:#ffab00;stroke-width:1.5;"/>
   </g>
   <g id="LineCollection_10">
    <path clip-path="url(#pc3d012a7aa)" d="M 326.30481 293.479494 
L 326.181742 279.672625 
L 325.803625 263.741621 
L 324.939105 238.252015 
L 322.658133 178.776268 
L 321.361255 150.100461 
L 320.244697 129.92119 
L 319.149952 113.990186 
L 318.053544 101.245383 
L 316.923999 90.624714 
L 315.43604 78.941978 
L 313.796187 66.197175 
L 313.340283 60.88684 
L 313.186073 56.638572 
L 313.182473 55.576506 
L 313.182473 55.576506 
" style="fill:none;stroke:#ff5500;stroke-width:1.5;"/>
   </g>
   <g id="LineCollection_11">
    <path clip-path="url(#pc3d012a7aa)" d="M 333.29102 293.479494 
L 333.175162 275.424357 
L 332.785886 252.058885 
L 331.526216 194.707271 
L 330.381665 150.100461 
L 329.47506 123.548788 
L 328.590672 104.431584 
L 327.631443 88.50058 
L 326.302929 67.082768 
L 326.069864 59.824773 
L 326.034499 55.576506 
L 326.034499 55.576506 
" style="fill:none;stroke:#e80000;stroke-width:1.5;"/>
   </g>
   <g id="LineCollection_12">
    <path clip-path="url(#pc3d012a7aa)" d="M 340.311256 293.479494 
L 340.192528 259.493353 
L 339.591637 176.652134 
L 338.850597 108.679851 
L 338.451483 87.438513 
L 338.062606 68.321309 
L 337.971387 55.576506 
L 337.971387 55.576506 
" style="fill:none;stroke:#800000;stroke-width:1.5;"/>
   </g>
   <g id="patch_3">
    <path d="M 57.6 293.479494 
L 57.6 55.576506 
" style="fill:none;stroke:#000000;stroke-linecap:square;stroke-linejoin:miter;stroke-width:0.8;"/>
   </g>
   <g id="patch_4">
    <path d="M 343.296 293.479494 
L 343.296 55.576506 
" style="fill:none;stroke:#000000;stroke-linecap:square;stroke-linejoin:miter;stroke-width:0.8;"/>
   </g>
   <g id="patch_5">
    <path d="M 57.6 293.479494 
L 343.296 293.479494 
" style="fill:none;stroke:#000000;stroke-linecap:square;stroke-linejoin:miter;stroke-width:0.8;"/>
   </g>
   <g id="patch_6">
    <path d="M 57.6 55.576506 
L 343.296 55.576506 
" style="fill:none;stroke:#000000;stroke-linecap:square;stroke-linejoin:miter;stroke-width:0.8;"/>
   </g>
   <g id="text_10">
    <!-- Time:0.01975 s -->
    <defs>
     <path d="M -0.296875 72.90625 
L 61.375 72.90625 
L 61.375 64.59375 
L 35.5 64.59375 
L 35.5 0 
L 25.59375 0 
L 25.59375 64.59375 
L -0.296875 64.59375 
z
" id="DejaVuSans-54"/>
     <path d="M 9.421875 54.6875 
L 18.40625 54.6875 
L 18.40625 0 
L 9.421875 0 
z
M 9.421875 75.984375 
L 18.40625 75.984375 
L 18.40625 64.59375 
L 9.421875 64.59375 
z
" id="DejaVuSans-69"/>
     <path d="M 52 44.1875 
Q 55.375 50.25 60.0625 53.125 
Q 64.75 56 71.09375 56 
Q 79.640625 56 84.28125 50.015625 
Q 88.921875 44.046875 88.921875 33.015625 
L 88.921875 0 
L 79.890625 0 
L 79.890625 32.71875 
Q 79.890625 40.578125 77.09375 44.375 
Q 74.3125 48.1875 68.609375 48.1875 
Q 61.625 48.1875 57.5625 43.546875 
Q 53.515625 38.921875 53.515625 30.90625 
L 53.515625 0 
L 44.484375 0 
L 44.484375 32.71875 
Q 44.484375 40.625 41.703125 44.40625 
Q 38.921875 48.1875 33.109375 48.1875 
Q 26.21875 48.1875 22.15625 43.53125 
Q 18.109375 38.875 18.109375 30.90625 
L 18.109375 0 
L 9.078125 0 
L 9.078125 54.6875 
L 18.109375 54.6875 
L 18.109375 46.1875 
Q 21.1875 51.21875 25.484375 53.609375 
Q 29.78125 56 35.6875 56 
Q 41.65625 56 45.828125 52.96875 
Q 50 49.953125 52 44.1875 
z
" id="DejaVuSans-6d"/>
     <path d="M 56.203125 29.59375 
L 56.203125 25.203125 
L 14.890625 25.203125 
Q 15.484375 15.921875 20.484375 11.0625 
Q 25.484375 6.203125 34.421875 6.203125 
Q 39.59375 6.203125 44.453125 7.46875 
Q 49.3125 8.734375 54.109375 11.28125 
L 54.109375 2.78125 
Q 49.265625 0.734375 44.1875 -0.34375 
Q 39.109375 -1.421875 33.890625 -1.421875 
Q 20.796875 -1.421875 13.15625 6.1875 
Q 5.515625 13.8125 5.515625 26.8125 
Q 5.515625 40.234375 12.765625 48.109375 
Q 20.015625 56 32.328125 56 
Q 43.359375 56 49.78125 48.890625 
Q 56.203125 41.796875 56.203125 29.59375 
z
M 47.21875 32.234375 
Q 47.125 39.59375 43.09375 43.984375 
Q 39.0625 48.390625 32.421875 48.390625 
Q 24.90625 48.390625 20.390625 44.140625 
Q 15.875 39.890625 15.1875 32.171875 
z
" id="DejaVuSans-65"/>
     <path d="M 11.71875 12.40625 
L 22.015625 12.40625 
L 22.015625 0 
L 11.71875 0 
z
M 11.71875 51.703125 
L 22.015625 51.703125 
L 22.015625 39.3125 
L 11.71875 39.3125 
z
" id="DejaVuSans-3a"/>
     <path d="M 10.984375 1.515625 
L 10.984375 10.5 
Q 14.703125 8.734375 18.5 7.8125 
Q 22.3125 6.890625 25.984375 6.890625 
Q 35.75 6.890625 40.890625 13.453125 
Q 46.046875 20.015625 46.78125 33.40625 
Q 43.953125 29.203125 39.59375 26.953125 
Q 35.25 24.703125 29.984375 24.703125 
Q 19.046875 24.703125 12.671875 31.3125 
Q 6.296875 37.9375 6.296875 49.421875 
Q 6.296875 60.640625 12.9375 67.421875 
Q 19.578125 74.21875 30.609375 74.21875 
Q 43.265625 74.21875 49.921875 64.515625 
Q 56.59375 54.828125 56.59375 36.375 
Q 56.59375 19.140625 48.40625 8.859375 
Q 40.234375 -1.421875 26.421875 -1.421875 
Q 22.703125 -1.421875 18.890625 -0.6875 
Q 15.09375 0.046875 10.984375 1.515625 
z
M 30.609375 32.421875 
Q 37.25 32.421875 41.125 36.953125 
Q 45.015625 41.5 45.015625 49.421875 
Q 45.015625 57.28125 41.125 61.84375 
Q 37.25 66.40625 30.609375 66.40625 
Q 23.96875 66.40625 20.09375 61.84375 
Q 16.21875 57.28125 16.21875 49.421875 
Q 16.21875 41.5 20.09375 36.953125 
Q 23.96875 32.421875 30.609375 32.421875 
z
" id="DejaVuSans-39"/>
     <path d="M 8.203125 72.90625 
L 55.078125 72.90625 
L 55.078125 68.703125 
L 28.609375 0 
L 18.3125 0 
L 43.21875 64.59375 
L 8.203125 64.59375 
z
" id="DejaVuSans-37"/>
     <path d="M 10.796875 72.90625 
L 49.515625 72.90625 
L 49.515625 64.59375 
L 19.828125 64.59375 
L 19.828125 46.734375 
Q 21.96875 47.46875 24.109375 47.828125 
Q 26.265625 48.1875 28.421875 48.1875 
Q 40.625 48.1875 47.75 41.5 
Q 54.890625 34.8125 54.890625 23.390625 
Q 54.890625 11.625 47.5625 5.09375 
Q 40.234375 -1.421875 26.90625 -1.421875 
Q 22.3125 -1.421875 17.546875 -0.640625 
Q 12.796875 0.140625 7.71875 1.703125 
L 7.71875 11.625 
Q 12.109375 9.234375 16.796875 8.0625 
Q 21.484375 6.890625 26.703125 6.890625 
Q 35.15625 6.890625 40.078125 11.328125 
Q 45.015625 15.765625 45.015625 23.390625 
Q 45.015625 31 40.078125 35.4375 
Q 35.15625 39.890625 26.703125 39.890625 
Q 22.75 39.890625 18.8125 39.015625 
Q 14.890625 38.140625 10.796875 36.28125 
z
" id="DejaVuSans-35"/>
     <path id="DejaVuSans-20"/>
     <path d="M 44.28125 53.078125 
L 44.28125 44.578125 
Q 40.484375 46.53125 36.375 47.5 
Q 32.28125 48.484375 27.875 48.484375 
Q 21.1875 48.484375 17.84375 46.4375 
Q 14.5 44.390625 14.5 40.28125 
Q 14.5 37.15625 16.890625 35.375 
Q 19.28125 33.59375 26.515625 31.984375 
L 29.59375 31.296875 
Q 39.15625 29.25 43.1875 25.515625 
Q 47.21875 21.78125 47.21875 15.09375 
Q 47.21875 7.46875 41.1875 3.015625 
Q 35.15625 -1.421875 24.609375 -1.421875 
Q 20.21875 -1.421875 15.453125 -0.5625 
Q 10.6875 0.296875 5.421875 2 
L 5.421875 11.28125 
Q 10.40625 8.6875 15.234375 7.390625 
Q 20.0625 6.109375 24.8125 6.109375 
Q 31.15625 6.109375 34.5625 8.28125 
Q 37.984375 10.453125 37.984375 14.40625 
Q 37.984375 18.0625 35.515625 20.015625 
Q 33.0625 21.96875 24.703125 23.78125 
L 21.578125 24.515625 
Q 13.234375 26.265625 9.515625 29.90625 
Q 5.8125 33.546875 5.8125 39.890625 
Q 5.8125 47.609375 11.28125 51.796875 
Q 16.75 56 26.8125 56 
Q 31.78125 56 36.171875 55.265625 
Q 40.578125 54.546875 44.28125 53.078125 
z
" id="DejaVuSans-73"/>
    </defs>
    <g transform="translate(153.717375 49.576506)scale(0.12 -0.12)">
     <use xlink:href="#DejaVuSans-54"/>
     <use x="61.037109" xlink:href="#DejaVuSans-69"/>
     <use x="88.820312" xlink:href="#DejaVuSans-6d"/>
     <use x="186.232422" xlink:href="#DejaVuSans-65"/>
     <use x="247.755859" xlink:href="#DejaVuSans-3a"/>
     <use x="281.447266" xlink:href="#DejaVuSans-30"/>
     <use x="345.070312" xlink:href="#DejaVuSans-2e"/>
     <use x="376.857422" xlink:href="#DejaVuSans-30"/>
     <use x="440.480469" xlink:href="#DejaVuSans-31"/>
     <use x="504.103516" xlink:href="#DejaVuSans-39"/>
     <use x="567.726562" xlink:href="#DejaVuSans-37"/>
     <use x="631.349609" xlink:href="#DejaVuSans-35"/>
     <use x="694.972656" xlink:href="#DejaVuSans-20"/>
     <use x="726.759766" xlink:href="#DejaVuSans-73"/>
    </g>
   </g>
  </g>
  <g id="axes_2">
   <g id="patch_7">
    <path clip-path="url(#pb3cee6787a)" d="M 361.152 307.584 
L 361.152 283.392 
L 361.152 65.664 
L 361.152 41.472 
L 374.4576 41.472 
L 374.4576 65.664 
L 374.4576 283.392 
L 374.4576 307.584 
z
" style="fill:#ffffff;stroke:#ffffff;stroke-linejoin:miter;stroke-width:0.01;"/>
   </g>
   <g id="matplotlib.axis_3"/>
   <g id="matplotlib.axis_4">
    <g id="ytick_5">
     <g id="line2d_10">
      <defs>
       <path d="M 0 0 
L 3.5 0 
" id="m587881ec74" style="stroke:#000000;stroke-width:0.8;"/>
      </defs>
      <g>
       <use style="stroke:#000000;stroke-width:0.8;" x="374.4576" xlink:href="#m587881ec74" y="307.584"/>
      </g>
     </g>
     <g id="text_11">
      <!-- 0.08 -->
      <g transform="translate(381.4576 311.383219)scale(0.1 -0.1)">
       <use xlink:href="#DejaVuSans-30"/>
       <use x="63.623047" xlink:href="#DejaVuSans-2e"/>
       <use x="95.410156" xlink:href="#DejaVuSans-30"/>
       <use x="159.033203" xlink:href="#DejaVuSans-38"/>
      </g>
     </g>
    </g>
    <g id="ytick_6">
     <g id="line2d_11">
      <g>
       <use style="stroke:#000000;stroke-width:0.8;" x="374.4576" xlink:href="#m587881ec74" y="259.2"/>
      </g>
     </g>
     <g id="text_12">
      <!-- 0.24 -->
      <g transform="translate(381.4576 262.999219)scale(0.1 -0.1)">
       <use xlink:href="#DejaVuSans-30"/>
       <use x="63.623047" xlink:href="#DejaVuSans-2e"/>
       <use x="95.410156" xlink:href="#DejaVuSans-32"/>
       <use x="159.033203" xlink:href="#DejaVuSans-34"/>
      </g>
     </g>
    </g>
    <g id="ytick_7">
     <g id="line2d_12">
      <g>
       <use style="stroke:#000000;stroke-width:0.8;" x="374.4576" xlink:href="#m587881ec74" y="210.816"/>
      </g>
     </g>
     <g id="text_13">
      <!-- 0.40 -->
      <g transform="translate(381.4576 214.615219)scale(0.1 -0.1)">
       <use xlink:href="#DejaVuSans-30"/>
       <use x="63.623047" xlink:href="#DejaVuSans-2e"/>
       <use x="95.410156" xlink:href="#DejaVuSans-34"/>
       <use x="159.033203" xlink:href="#DejaVuSans-30"/>
      </g>
     </g>
    </g>
    <g id="ytick_8">
     <g id="line2d_13">
      <g>
       <use style="stroke:#000000;stroke-width:0.8;" x="374.4576" xlink:href="#m587881ec74" y="162.432"/>
      </g>
     </g>
     <g id="text_14">
      <!-- 0.56 -->
      <g transform="translate(381.4576 166.231219)scale(0.1 -0.1)">
       <use xlink:href="#DejaVuSans-30"/>
       <use x="63.623047" xlink:href="#DejaVuSans-2e"/>
       <use x="95.410156" xlink:href="#DejaVuSans-35"/>
       <use x="159.033203" xlink:href="#DejaVuSans-36"/>
      </g>
     </g>
    </g>
    <g id="ytick_9">
     <g id="line2d_14">
      <g>
       <use style="stroke:#000000;stroke-width:0.8;" x="374.4576" xlink:href="#m587881ec74" y="114.048"/>
      </g>
     </g>
     <g id="text_15">
      <!-- 0.72 -->
      <g transform="translate(381.4576 117.847219)scale(0.1 -0.1)">
       <use xlink:href="#DejaVuSans-30"/>
       <use x="63.623047" xlink:href="#DejaVuSans-2e"/>
       <use x="95.410156" xlink:href="#DejaVuSans-37"/>
       <use x="159.033203" xlink:href="#DejaVuSans-32"/>
      </g>
     </g>
    </g>
    <g id="ytick_10">
     <g id="line2d_15">
      <g>
       <use style="stroke:#000000;stroke-width:0.8;" x="374.4576" xlink:href="#m587881ec74" y="65.664"/>
      </g>
     </g>
     <g id="text_16">
      <!-- 0.88 -->
      <g transform="translate(381.4576 69.463219)scale(0.1 -0.1)">
       <use xlink:href="#DejaVuSans-30"/>
       <use x="63.623047" xlink:href="#DejaVuSans-2e"/>
       <use x="95.410156" xlink:href="#DejaVuSans-38"/>
       <use x="159.033203" xlink:href="#DejaVuSans-38"/>
      </g>
     </g>
    </g>
   </g>
   <g id="LineCollection_13">
    <path clip-path="url(#pb3cee6787a)" d="M 361.152 307.584 
L 374.4576 307.584 
" style="fill:none;stroke:#000080;stroke-width:1.5;"/>
    <path clip-path="url(#pb3cee6787a)" d="M 361.152 283.392 
L 374.4576 283.392 
" style="fill:none;stroke:#0000e8;stroke-width:1.5;"/>
    <path clip-path="url(#pb3cee6787a)" d="M 361.152 259.2 
L 374.4576 259.2 
" style="fill:none;stroke:#0038ff;stroke-width:1.5;"/>
    <path clip-path="url(#pb3cee6787a)" d="M 361.152 235.008 
L 374.4576 235.008 
" style="fill:none;stroke:#0094ff;stroke-width:1.5;"/>
    <path clip-path="url(#pb3cee6787a)" d="M 361.152 210.816 
L 374.4576 210.816 
" style="fill:none;stroke:#0cf4eb;stroke-width:1.5;"/>
    <path clip-path="url(#pb3cee6787a)" d="M 361.152 186.624 
L 374.4576 186.624 
" style="fill:none;stroke:#56ffa0;stroke-width:1.5;"/>
    <path clip-path="url(#pb3cee6787a)" d="M 361.152 162.432 
L 374.4576 162.432 
" style="fill:none;stroke:#a0ff56;stroke-width:1.5;"/>
    <path clip-path="url(#pb3cee6787a)" d="M 361.152 138.24 
L 374.4576 138.24 
" style="fill:none;stroke:#ebff0c;stroke-width:1.5;"/>
    <path clip-path="url(#pb3cee6787a)" d="M 361.152 114.048 
L 374.4576 114.048 
" style="fill:none;stroke:#ffab00;stroke-width:1.5;"/>
    <path clip-path="url(#pb3cee6787a)" d="M 361.152 89.856 
L 374.4576 89.856 
" style="fill:none;stroke:#ff5500;stroke-width:1.5;"/>
    <path clip-path="url(#pb3cee6787a)" d="M 361.152 65.664 
L 374.4576 65.664 
" style="fill:none;stroke:#e80000;stroke-width:1.5;"/>
    <path clip-path="url(#pb3cee6787a)" d="M 361.152 41.472 
L 374.4576 41.472 
" style="fill:none;stroke:#800000;stroke-width:1.5;"/>
   </g>
   <g id="patch_8">
    <path d="M 361.152 307.584 
L 361.152 283.392 
L 361.152 65.664 
L 361.152 41.472 
L 374.4576 41.472 
L 374.4576 65.664 
L 374.4576 283.392 
L 374.4576 307.584 
z
" style="fill:none;stroke:#000000;stroke-linejoin:miter;stroke-width:0.8;"/>
   </g>
  </g>
 </g>
 <defs>
  <clipPath id="pc3d012a7aa">
   <rect height="237.902989" width="285.696" x="57.6" y="55.576506"/>
  </clipPath>
  <clipPath id="pb3cee6787a">
   <rect height="266.112" width="13.3056" x="361.152" y="41.472"/>
  </clipPath>
 </defs>
</svg>
