<?xml version="1.0" encoding="utf-8" standalone="no"?>
<!DOCTYPE svg PUBLIC "-//W3C//DTD SVG 1.1//EN"
  "http://www.w3.org/Graphics/SVG/1.1/DTD/svg11.dtd">
<!-- Created with matplotlib (http://matplotlib.org/) -->
<svg height="345.6pt" version="1.1" viewBox="0 0 460.8 345.6" width="460.8pt" xmlns="http://www.w3.org/2000/svg" xmlns:xlink="http://www.w3.org/1999/xlink">
 <defs>
  <style type="text/css">
*{stroke-linecap:butt;stroke-linejoin:round;}
  </style>
 </defs>
 <g id="figure_1">
  <g id="patch_1">
   <path d="M 0 345.6 
L 460.8 345.6 
L 460.8 0 
L 0 0 
z
" style="fill:#ffffff;"/>
  </g>
  <g id="axes_1">
   <g id="patch_2">
    <path d="M 57.6 293.479494 
L 343.296 293.479494 
L 343.296 55.576506 
L 57.6 55.576506 
z
" style="fill:#ffffff;"/>
   </g>
   <g id="matplotlib.axis_1">
    <g id="xtick_1">
     <g id="line2d_1">
      <defs>
       <path d="M 0 0 
L 0 3.5 
" id="m63a95574ff" style="stroke:#000000;stroke-width:0.8;"/>
      </defs>
      <g>
       <use style="stroke:#000000;stroke-width:0.8;" x="104.861978" xlink:href="#m63a95574ff" y="293.479494"/>
      </g>
     </g>
     <g id="text_1">
      <!-- 0.2 -->
      <defs>
       <path d="M 31.78125 66.40625 
Q 24.171875 66.40625 20.328125 58.90625 
Q 16.5 51.421875 16.5 36.375 
Q 16.5 21.390625 20.328125 13.890625 
Q 24.171875 6.390625 31.78125 6.390625 
Q 39.453125 6.390625 43.28125 13.890625 
Q 47.125 21.390625 47.125 36.375 
Q 47.125 51.421875 43.28125 58.90625 
Q 39.453125 66.40625 31.78125 66.40625 
z
M 31.78125 74.21875 
Q 44.046875 74.21875 50.515625 64.515625 
Q 56.984375 54.828125 56.984375 36.375 
Q 56.984375 17.96875 50.515625 8.265625 
Q 44.046875 -1.421875 31.78125 -1.421875 
Q 19.53125 -1.421875 13.0625 8.265625 
Q 6.59375 17.96875 6.59375 36.375 
Q 6.59375 54.828125 13.0625 64.515625 
Q 19.53125 74.21875 31.78125 74.21875 
z
" id="DejaVuSans-30"/>
       <path d="M 10.6875 12.40625 
L 21 12.40625 
L 21 0 
L 10.6875 0 
z
" id="DejaVuSans-2e"/>
       <path d="M 19.1875 8.296875 
L 53.609375 8.296875 
L 53.609375 0 
L 7.328125 0 
L 7.328125 8.296875 
Q 12.9375 14.109375 22.625 23.890625 
Q 32.328125 33.6875 34.8125 36.53125 
Q 39.546875 41.84375 41.421875 45.53125 
Q 43.3125 49.21875 43.3125 52.78125 
Q 43.3125 58.59375 39.234375 62.25 
Q 35.15625 65.921875 28.609375 65.921875 
Q 23.96875 65.921875 18.8125 64.3125 
Q 13.671875 62.703125 7.8125 59.421875 
L 7.8125 69.390625 
Q 13.765625 71.78125 18.9375 73 
Q 24.125 74.21875 28.421875 74.21875 
Q 39.75 74.21875 46.484375 68.546875 
Q 53.21875 62.890625 53.21875 53.421875 
Q 53.21875 48.921875 51.53125 44.890625 
Q 49.859375 40.875 45.40625 35.40625 
Q 44.1875 33.984375 37.640625 27.21875 
Q 31.109375 20.453125 19.1875 8.296875 
z
" id="DejaVuSans-32"/>
      </defs>
      <g transform="translate(96.910415 308.077932)scale(0.1 -0.1)">
       <use xlink:href="#DejaVuSans-30"/>
       <use x="63.623047" xlink:href="#DejaVuSans-2e"/>
       <use x="95.410156" xlink:href="#DejaVuSans-32"/>
      </g>
     </g>
    </g>
    <g id="xtick_2">
     <g id="line2d_2">
      <g>
       <use style="stroke:#000000;stroke-width:0.8;" x="152.654989" xlink:href="#m63a95574ff" y="293.479494"/>
      </g>
     </g>
     <g id="text_2">
      <!-- 0.4 -->
      <defs>
       <path d="M 37.796875 64.3125 
L 12.890625 25.390625 
L 37.796875 25.390625 
z
M 35.203125 72.90625 
L 47.609375 72.90625 
L 47.609375 25.390625 
L 58.015625 25.390625 
L 58.015625 17.1875 
L 47.609375 17.1875 
L 47.609375 0 
L 37.796875 0 
L 37.796875 17.1875 
L 4.890625 17.1875 
L 4.890625 26.703125 
z
" id="DejaVuSans-34"/>
      </defs>
      <g transform="translate(144.703426 308.077932)scale(0.1 -0.1)">
       <use xlink:href="#DejaVuSans-30"/>
       <use x="63.623047" xlink:href="#DejaVuSans-2e"/>
       <use x="95.410156" xlink:href="#DejaVuSans-34"/>
      </g>
     </g>
    </g>
    <g id="xtick_3">
     <g id="line2d_3">
      <g>
       <use style="stroke:#000000;stroke-width:0.8;" x="200.448" xlink:href="#m63a95574ff" y="293.479494"/>
      </g>
     </g>
     <g id="text_3">
      <!-- 0.6 -->
      <defs>
       <path d="M 33.015625 40.375 
Q 26.375 40.375 22.484375 35.828125 
Q 18.609375 31.296875 18.609375 23.390625 
Q 18.609375 15.53125 22.484375 10.953125 
Q 26.375 6.390625 33.015625 6.390625 
Q 39.65625 6.390625 43.53125 10.953125 
Q 47.40625 15.53125 47.40625 23.390625 
Q 47.40625 31.296875 43.53125 35.828125 
Q 39.65625 40.375 33.015625 40.375 
z
M 52.59375 71.296875 
L 52.59375 62.3125 
Q 48.875 64.0625 45.09375 64.984375 
Q 41.3125 65.921875 37.59375 65.921875 
Q 27.828125 65.921875 22.671875 59.328125 
Q 17.53125 52.734375 16.796875 39.40625 
Q 19.671875 43.65625 24.015625 45.921875 
Q 28.375 48.1875 33.59375 48.1875 
Q 44.578125 48.1875 50.953125 41.515625 
Q 57.328125 34.859375 57.328125 23.390625 
Q 57.328125 12.15625 50.6875 5.359375 
Q 44.046875 -1.421875 33.015625 -1.421875 
Q 20.359375 -1.421875 13.671875 8.265625 
Q 6.984375 17.96875 6.984375 36.375 
Q 6.984375 53.65625 15.1875 63.9375 
Q 23.390625 74.21875 37.203125 74.21875 
Q 40.921875 74.21875 44.703125 73.484375 
Q 48.484375 72.75 52.59375 71.296875 
z
" id="DejaVuSans-36"/>
      </defs>
      <g transform="translate(192.496438 308.077932)scale(0.1 -0.1)">
       <use xlink:href="#DejaVuSans-30"/>
       <use x="63.623047" xlink:href="#DejaVuSans-2e"/>
       <use x="95.410156" xlink:href="#DejaVuSans-36"/>
      </g>
     </g>
    </g>
    <g id="xtick_4">
     <g id="line2d_4">
      <g>
       <use style="stroke:#000000;stroke-width:0.8;" x="248.241011" xlink:href="#m63a95574ff" y="293.479494"/>
      </g>
     </g>
     <g id="text_4">
      <!-- 0.8 -->
      <defs>
       <path d="M 31.78125 34.625 
Q 24.75 34.625 20.71875 30.859375 
Q 16.703125 27.09375 16.703125 20.515625 
Q 16.703125 13.921875 20.71875 10.15625 
Q 24.75 6.390625 31.78125 6.390625 
Q 38.8125 6.390625 42.859375 10.171875 
Q 46.921875 13.96875 46.921875 20.515625 
Q 46.921875 27.09375 42.890625 30.859375 
Q 38.875 34.625 31.78125 34.625 
z
M 21.921875 38.8125 
Q 15.578125 40.375 12.03125 44.71875 
Q 8.5 49.078125 8.5 55.328125 
Q 8.5 64.0625 14.71875 69.140625 
Q 20.953125 74.21875 31.78125 74.21875 
Q 42.671875 74.21875 48.875 69.140625 
Q 55.078125 64.0625 55.078125 55.328125 
Q 55.078125 49.078125 51.53125 44.71875 
Q 48 40.375 41.703125 38.8125 
Q 48.828125 37.15625 52.796875 32.3125 
Q 56.78125 27.484375 56.78125 20.515625 
Q 56.78125 9.90625 50.3125 4.234375 
Q 43.84375 -1.421875 31.78125 -1.421875 
Q 19.734375 -1.421875 13.25 4.234375 
Q 6.78125 9.90625 6.78125 20.515625 
Q 6.78125 27.484375 10.78125 32.3125 
Q 14.796875 37.15625 21.921875 38.8125 
z
M 18.3125 54.390625 
Q 18.3125 48.734375 21.84375 45.5625 
Q 25.390625 42.390625 31.78125 42.390625 
Q 38.140625 42.390625 41.71875 45.5625 
Q 45.3125 48.734375 45.3125 54.390625 
Q 45.3125 60.0625 41.71875 63.234375 
Q 38.140625 66.40625 31.78125 66.40625 
Q 25.390625 66.40625 21.84375 63.234375 
Q 18.3125 60.0625 18.3125 54.390625 
z
" id="DejaVuSans-38"/>
      </defs>
      <g transform="translate(240.289449 308.077932)scale(0.1 -0.1)">
       <use xlink:href="#DejaVuSans-30"/>
       <use x="63.623047" xlink:href="#DejaVuSans-2e"/>
       <use x="95.410156" xlink:href="#DejaVuSans-38"/>
      </g>
     </g>
    </g>
    <g id="xtick_5">
     <g id="line2d_5">
      <g>
       <use style="stroke:#000000;stroke-width:0.8;" x="296.034022" xlink:href="#m63a95574ff" y="293.479494"/>
      </g>
     </g>
     <g id="text_5">
      <!-- 1.0 -->
      <defs>
       <path d="M 12.40625 8.296875 
L 28.515625 8.296875 
L 28.515625 63.921875 
L 10.984375 60.40625 
L 10.984375 69.390625 
L 28.421875 72.90625 
L 38.28125 72.90625 
L 38.28125 8.296875 
L 54.390625 8.296875 
L 54.390625 0 
L 12.40625 0 
z
" id="DejaVuSans-31"/>
      </defs>
      <g transform="translate(288.08246 308.077932)scale(0.1 -0.1)">
       <use xlink:href="#DejaVuSans-31"/>
       <use x="63.623047" xlink:href="#DejaVuSans-2e"/>
       <use x="95.410156" xlink:href="#DejaVuSans-30"/>
      </g>
     </g>
    </g>
   </g>
   <g id="matplotlib.axis_2">
    <g id="ytick_1">
     <g id="line2d_6">
      <defs>
       <path d="M 0 0 
L -3.5 0 
" id="m382a0fd492" style="stroke:#000000;stroke-width:0.8;"/>
      </defs>
      <g>
       <use style="stroke:#000000;stroke-width:0.8;" x="57.6" xlink:href="#m382a0fd492" y="246.217517"/>
      </g>
     </g>
     <g id="text_6">
      <!-- 0.2 -->
      <g transform="translate(34.696875 250.016735)scale(0.1 -0.1)">
       <use xlink:href="#DejaVuSans-30"/>
       <use x="63.623047" xlink:href="#DejaVuSans-2e"/>
       <use x="95.410156" xlink:href="#DejaVuSans-32"/>
      </g>
     </g>
    </g>
    <g id="ytick_2">
     <g id="line2d_7">
      <g>
       <use style="stroke:#000000;stroke-width:0.8;" x="57.6" xlink:href="#m382a0fd492" y="198.424506"/>
      </g>
     </g>
     <g id="text_7">
      <!-- 0.4 -->
      <g transform="translate(34.696875 202.223724)scale(0.1 -0.1)">
       <use xlink:href="#DejaVuSans-30"/>
       <use x="63.623047" xlink:href="#DejaVuSans-2e"/>
       <use x="95.410156" xlink:href="#DejaVuSans-34"/>
      </g>
     </g>
    </g>
    <g id="ytick_3">
     <g id="line2d_8">
      <g>
       <use style="stroke:#000000;stroke-width:0.8;" x="57.6" xlink:href="#m382a0fd492" y="150.631494"/>
      </g>
     </g>
     <g id="text_8">
      <!-- 0.6 -->
      <g transform="translate(34.696875 154.430713)scale(0.1 -0.1)">
       <use xlink:href="#DejaVuSans-30"/>
       <use x="63.623047" xlink:href="#DejaVuSans-2e"/>
       <use x="95.410156" xlink:href="#DejaVuSans-36"/>
      </g>
     </g>
    </g>
    <g id="ytick_4">
     <g id="line2d_9">
      <g>
       <use style="stroke:#000000;stroke-width:0.8;" x="57.6" xlink:href="#m382a0fd492" y="102.838483"/>
      </g>
     </g>
     <g id="text_9">
      <!-- 0.8 -->
      <g transform="translate(34.696875 106.637702)scale(0.1 -0.1)">
       <use xlink:href="#DejaVuSans-30"/>
       <use x="63.623047" xlink:href="#DejaVuSans-2e"/>
       <use x="95.410156" xlink:href="#DejaVuSans-38"/>
      </g>
     </g>
    </g>
   </g>
   <g id="LineCollection_1">
    <path clip-path="url(#p956a501540)" d="M 287.239091 293.479494 
L 287.576013 291.355361 
L 287.938533 289.231227 
L 288.090792 287.107093 
L 288.003657 283.920892 
L 287.48717 278.610558 
L 285.944387 265.333635 
L 283.91069 249.934751 
L 283.412362 246.74855 
L 282.13804 239.314082 
L 281.254076 235.065814 
L 280.162952 230.817546 
L 279.106131 227.631346 
L 278.198776 225.507212 
L 277.447851 224.077302 
L 276.086697 222.321011 
L 274.843612 221.258944 
L 274.261651 220.872895 
L 272.466576 220.196877 
L 272.137517 220.105453 
L 270.013383 219.835774 
L 266.827182 219.817245 
L 236.027242 220.698463 
L 217.972104 220.914217 
L 199.916967 220.885063 
L 177.613561 220.845501 
L 166.992892 221.094506 
L 146.813621 221.719228 
L 141.503286 221.550688 
L 137.255019 221.199598 
L 133.006751 220.636108 
L 128.758483 219.868855 
L 122.386082 218.448342 
L 115.949848 217.010677 
L 112.82748 216.497143 
L 110.703346 216.289725 
L 108.579212 216.249433 
L 106.455078 216.430702 
L 104.330944 216.894642 
L 102.20681 217.716288 
L 101.144743 218.28243 
L 99.02061 219.771723 
L 97.400737 221.258944 
L 95.834409 222.962173 
L 93.710275 225.682308 
L 86.275807 235.910529 
L 85.076128 237.189948 
L 83.089606 238.912488 
L 82.027539 239.607457 
L 80.266427 240.376149 
L 79.903405 240.496653 
L 78.841338 240.675636 
L 77.779271 240.666125 
L 76.521608 240.376149 
L 75.655138 240.024782 
L 74.546579 239.314082 
L 73.390501 238.252015 
L 72.468937 237.167881 
L 71.140145 235.065814 
L 70.088277 232.94168 
L 68.853146 229.75548 
L 67.866815 226.569279 
L 66.806718 222.321011 
L 65.749332 217.010677 
L 64.737441 210.638275 
L 63.676255 202.14174 
L 62.74246 192.583138 
L 61.848268 180.795687 
L 61.004096 166.031465 
L 60.309989 150.100461 
L 59.65067 129.92119 
L 59.092691 105.493651 
L 58.455492 66.197175 
L 58.425851 57.700639 
L 58.457138 55.576506 
L 58.457138 55.576506 
" style="fill:none;stroke:#000080;stroke-width:1.5;"/>
   </g>
   <g id="LineCollection_2">
    <path clip-path="url(#p956a501540)" d="M 290.454622 293.479494 
L 290.843546 287.107093 
L 290.681254 282.858825 
L 290.00394 273.300223 
L 288.842197 257.369219 
L 285.587429 213.824476 
L 284.312248 201.079673 
L 283.371667 193.645204 
L 282.338609 187.272803 
L 281.443118 183.024535 
L 280.568893 179.838335 
L 279.571985 177.239814 
L 278.509918 175.407198 
L 277.447851 174.293809 
L 276.385784 173.714593 
L 275.323717 173.51846 
L 274.261651 173.586169 
L 272.137517 174.160816 
L 266.827182 176.010087 
L 264.112413 176.652134 
L 261.516848 177.053838 
L 258.330647 177.319672 
L 253.020312 177.471926 
L 238.151375 177.726185 
L 226.468639 178.234407 
L 190.358364 180.013954 
L 179.737695 180.195856 
L 169.117026 180.149976 
L 154.248089 179.8298 
L 135.130885 179.461355 
L 125.572283 179.210529 
L 120.261948 178.86097 
L 114.951613 178.277492 
L 102.20681 176.596239 
L 100.082677 176.54223 
L 97.958543 176.670359 
L 95.834409 177.049089 
L 93.710275 177.751169 
L 91.586141 178.859684 
L 89.462007 180.443114 
L 87.337874 182.527851 
L 85.140191 185.148669 
L 80.965472 190.509357 
L 79.903405 191.67968 
L 78.841338 192.660984 
L 77.779271 193.399711 
L 76.717204 193.843533 
L 75.655138 193.94381 
L 74.584378 193.645204 
L 73.531004 192.917084 
L 72.373028 191.521071 
L 71.192899 189.396937 
L 70.286207 187.272803 
L 68.955052 183.024535 
L 67.919022 178.776268 
L 66.881914 173.465933 
L 65.733009 166.031465 
L 64.690866 157.534929 
L 63.65884 146.91426 
L 62.691929 134.169457 
L 61.773854 118.238454 
L 60.963162 99.121249 
L 60.233887 76.817844 
L 59.800179 59.824773 
L 59.923874 55.576506 
L 59.923874 55.576506 
" style="fill:none;stroke:#0000e8;stroke-width:1.5;"/>
   </g>
   <g id="LineCollection_3">
    <path clip-path="url(#p956a501540)" d="M 292.422685 293.479494 
L 292.576363 286.045026 
L 292.316788 279.660771 
L 290.854102 252.058885 
L 287.850544 193.645204 
L 286.579676 175.590067 
L 285.508843 163.907331 
L 284.500852 155.410796 
L 283.517978 149.038394 
L 282.405735 143.728059 
L 281.496225 140.541859 
L 280.634052 138.320569 
L 279.571985 136.594858 
L 278.509918 135.683064 
L 277.447851 135.407312 
L 276.385784 135.614154 
L 275.159151 136.293591 
L 273.814964 137.355658 
L 271.513687 139.479792 
L 268.951316 141.754619 
L 266.827182 143.296371 
L 264.703048 144.459666 
L 262.578914 145.265477 
L 260.454781 145.76647 
L 258.330647 146.026164 
L 255.144446 146.093054 
L 250.896178 145.841549 
L 240.275509 145.040826 
L 234.965175 144.914812 
L 228.592773 144.997726 
L 219.034171 145.381552 
L 183.985963 147.01516 
L 172.303227 147.216245 
L 158.496357 147.210099 
L 141.503286 146.962622 
L 111.765413 146.277975 
L 96.896476 145.719288 
L 93.710275 145.904376 
L 91.586141 146.222458 
L 89.462007 146.756624 
L 87.337874 147.5683 
L 85.21374 148.702015 
L 83.089606 150.167529 
L 77.779271 154.424665 
L 76.717204 155.03508 
L 75.419778 155.410796 
L 74.504944 155.410796 
L 73.531004 155.065169 
L 72.468937 154.173371 
L 71.19627 152.224595 
L 70.230249 150.100461 
L 69.172987 146.91426 
L 67.899697 141.603926 
L 66.921565 136.293591 
L 65.859712 128.859123 
L 64.811768 119.30052 
L 63.752966 106.555717 
L 62.751216 90.624714 
L 61.459202 64.073041 
L 61.422723 59.824773 
L 61.631775 55.576506 
L 61.631775 55.576506 
" style="fill:none;stroke:#0038ff;stroke-width:1.5;"/>
   </g>
   <g id="LineCollection_4">
    <path clip-path="url(#p956a501540)" d="M 293.951817 293.479494 
L 293.942042 283.920892 
L 293.375051 269.051955 
L 292.234957 239.314082 
L 289.826179 178.776268 
L 288.739706 158.596996 
L 287.710317 143.728059 
L 286.665352 132.045323 
L 285.545978 122.486721 
L 284.584689 116.11432 
L 283.549588 110.803985 
L 282.436364 106.555717 
L 281.696119 104.306092 
L 280.634052 102.046 
L 279.571985 100.595256 
L 278.509918 99.842015 
L 277.447851 99.703357 
L 276.295081 100.183316 
L 275.084501 101.245383 
L 274.175529 102.30745 
L 271.953354 105.493651 
L 268.951316 109.850235 
L 266.827182 112.436642 
L 265.250245 113.990186 
L 263.640981 115.283409 
L 261.516848 116.522584 
L 259.392714 117.324575 
L 257.26858 117.784502 
L 255.144446 118.000899 
L 251.958245 118.055522 
L 236.027242 117.862198 
L 224.344506 117.875615 
L 214.785903 117.6199 
L 200.979033 117.20758 
L 194.606632 117.245678 
L 188.23423 117.507334 
L 180.799762 118.042668 
L 156.372223 119.985338 
L 143.62742 120.665844 
L 125.572283 121.380548 
L 108.579212 121.849927 
L 93.710275 122.209162 
L 89.462007 122.593904 
L 86.275807 123.121461 
L 83.089606 123.915402 
L 77.779271 125.465453 
L 76.717204 125.611462 
L 75.655138 125.585921 
L 74.593071 125.305454 
L 73.476489 124.610855 
L 72.468937 123.545856 
L 71.251736 121.424654 
L 70.344803 119.229548 
L 69.15101 115.052253 
L 68.048307 109.741918 
L 66.907308 102.30745 
L 65.80651 92.748848 
L 64.693838 80.004045 
L 63.665749 65.135108 
L 63.605396 60.88684 
L 63.832326 57.700639 
L 63.993026 55.576506 
L 63.993026 55.576506 
" style="fill:none;stroke:#0094ff;stroke-width:1.5;"/>
   </g>
   <g id="LineCollection_5">
    <path clip-path="url(#p956a501540)" d="M 295.30957 293.479494 
L 295.185158 280.734691 
L 294.328391 252.058885 
L 291.564784 164.969398 
L 290.66554 144.790126 
L 289.705569 127.797056 
L 288.72107 113.990186 
L 287.682903 102.30745 
L 286.84022 94.872981 
L 285.832315 88.50058 
L 284.863602 84.252312 
L 283.820253 81.018519 
L 282.758186 78.62212 
L 281.696119 76.798857 
L 280.634052 75.410447 
L 279.571985 74.317807 
L 278.509918 73.454132 
L 277.0364 72.569576 
L 275.323717 71.871542 
L 273.199584 71.381901 
L 271.07545 71.234987 
L 268.951316 71.342959 
L 266.827182 71.683032 
L 264.703048 72.235729 
L 262.578914 72.981703 
L 260.454781 73.92261 
L 258.330647 75.079924 
L 256.206513 76.46594 
L 254.347012 77.879911 
L 251.958245 80.072736 
L 249.834112 82.443414 
L 248.422522 84.252312 
L 246.271128 87.438513 
L 243.46171 91.721981 
L 241.755978 93.810914 
L 240.275509 95.233127 
L 239.213442 96.081465 
L 237.089309 97.434798 
L 234.965175 98.465946 
L 232.841041 99.264445 
L 229.65484 100.127789 
L 227.530706 100.523535 
L 224.344506 100.912674 
L 221.158305 101.089115 
L 217.972104 101.081957 
L 213.723836 100.832947 
L 209.475569 100.362535 
L 204.165234 99.531727 
L 196.553854 98.059182 
L 183.985963 95.576633 
L 177.613561 94.579619 
L 172.303227 93.961621 
L 166.992892 93.546913 
L 160.620491 93.292652 
L 153.186022 93.252356 
L 141.503286 93.476775 
L 122.386082 93.846094 
L 107.517145 93.875384 
L 80.965472 93.672446 
L 78.841338 93.349003 
L 77.109826 92.748848 
L 76.717204 92.571563 
L 75.457473 91.686781 
L 74.424814 90.624714 
L 73.531004 89.387536 
L 72.468937 87.308308 
L 71.3734 84.252312 
L 70.107206 78.941978 
L 69.211568 73.631643 
L 68.671017 68.321309 
L 68.53483 65.135108 
L 68.619293 63.010974 
L 68.901041 60.88684 
L 69.786033 56.638572 
L 69.788426 55.576506 
L 69.788426 55.576506 
" style="fill:none;stroke:#0cf4eb;stroke-width:1.5;"/>
   </g>
   <g id="LineCollection_6">
    <path clip-path="url(#p956a501540)" d="M 298.846685 293.479494 
L 298.737348 287.107093 
L 298.445091 281.796758 
L 297.773578 274.36229 
L 296.481802 261.617487 
L 295.34434 230.817546 
L 293.693035 167.093532 
L 292.783454 140.541859 
L 291.844518 119.30052 
L 290.828571 101.245383 
L 290.088804 91.686781 
L 289.324124 85.314379 
L 288.777224 82.128178 
L 288.067924 78.941978 
L 287.006454 75.581792 
L 285.944387 73.171243 
L 284.88232 71.354366 
L 283.820253 69.960925 
L 282.758186 68.864608 
L 281.696119 67.994433 
L 280.572218 67.259242 
L 278.509918 66.301687 
L 277.447851 65.954873 
L 275.323717 65.4699 
L 273.199584 65.195524 
L 270.013383 65.090989 
L 266.827182 65.259752 
L 263.640981 65.643224 
L 260.454781 66.210123 
L 256.094923 67.259242 
L 251.958245 68.518819 
L 247.709978 70.042372 
L 241.337576 72.632302 
L 233.647434 75.755777 
L 229.65484 77.119491 
L 226.468639 77.978644 
L 223.282439 78.583741 
L 220.096238 78.923708 
L 216.910037 78.973784 
L 213.723836 78.735028 
L 210.537636 78.222469 
L 207.351435 77.449671 
L 204.165234 76.434566 
L 200.979033 75.190369 
L 197.565761 73.631643 
L 193.544565 71.417574 
L 190.358364 69.267429 
L 188.23423 67.439293 
L 188.036114 67.259242 
L 187.09447 66.197175 
L 186.110097 64.671926 
L 185.793697 64.073041 
L 185.414225 63.010974 
L 185.186377 61.948907 
L 185.04803 59.685594 
L 184.970935 56.638572 
L 184.782148 55.576506 
L 184.782148 55.576506 
" style="fill:none;stroke:#56ffa0;stroke-width:1.5;"/>
   </g>
   <g id="LineCollection_7">
    <path clip-path="url(#p956a501540)" d="M 305.458312 293.479494 
L 305.330349 286.045026 
L 304.979466 278.610558 
L 304.276381 269.051955 
L 302.911486 254.183019 
L 298.787394 212.762409 
L 296.491816 189.396937 
L 295.013687 145.852193 
L 294.128528 119.30052 
L 293.255546 99.121249 
L 292.650256 89.562647 
L 292.028559 83.190245 
L 291.416813 78.941978 
L 290.777255 75.755777 
L 289.908555 72.569576 
L 289.130587 70.437491 
L 288.06852 68.280699 
L 287.006454 66.698198 
L 285.944387 65.493693 
L 284.88232 64.557623 
L 283.820253 63.809232 
L 281.696119 62.697951 
L 279.571985 61.916039 
L 277.447851 61.321745 
L 273.199584 60.455918 
L 267.889249 59.467902 
L 265.36271 58.762706 
L 263.858019 57.700639 
L 263.675012 56.638572 
L 264.195839 55.576506 
L 264.195839 55.576506 
" style="fill:none;stroke:#a0ff56;stroke-width:1.5;"/>
   </g>
   <g id="LineCollection_8">
    <path clip-path="url(#p956a501540)" d="M 312.233762 293.479494 
L 312.114889 284.982959 
L 311.746527 275.424357 
L 311.050143 263.741621 
L 309.718352 245.686483 
L 306.631985 207.452074 
L 304.214108 179.838335 
L 302.33343 160.72113 
L 300.557746 144.790126 
L 298.804399 130.983257 
L 297.11712 119.30052 
L 296.525788 115.052253 
L 295.559167 99.121249 
L 295.346078 94.872981 
L 294.787034 85.314379 
L 294.211383 78.941978 
L 293.651872 74.69371 
L 293.074928 71.507509 
L 292.273325 68.321309 
L 291.254721 65.60382 
L 290.44169 64.073041 
L 289.72467 63.010974 
L 288.848164 61.948907 
L 287.006454 60.192945 
L 283.913729 57.700639 
L 282.758186 56.206444 
L 282.427204 55.576506 
L 282.427204 55.576506 
" style="fill:none;stroke:#ebff0c;stroke-width:1.5;"/>
   </g>
   <g id="LineCollection_9">
    <path clip-path="url(#p956a501540)" d="M 319.137391 293.479494 
L 319.011663 282.858825 
L 318.63768 271.176089 
L 317.920598 256.307152 
L 316.426357 230.817546 
L 313.967358 192.583138 
L 312.11974 167.093532 
L 310.521266 147.976327 
L 308.972589 132.045323 
L 307.529637 119.30052 
L 306.123658 108.641443 
L 304.81835 100.183316 
L 303.461006 92.748848 
L 302.061931 86.376446 
L 300.65169 81.066112 
L 299.294757 76.817844 
L 298.090048 73.631643 
L 296.40513 69.383375 
L 295.717951 66.197175 
L 295.273679 64.073041 
L 294.440922 60.38657 
L 293.763174 57.700639 
L 293.349904 55.576506 
L 293.349904 55.576506 
" style="fill:none;stroke:#ffab00;stroke-width:1.5;"/>
   </g>
   <g id="LineCollection_10">
    <path clip-path="url(#p956a501540)" d="M 326.132044 293.479494 
L 326.015666 280.734691 
L 325.645848 265.865755 
L 324.859557 244.624416 
L 323.181517 206.390007 
L 321.499513 172.403866 
L 320.136195 149.038394 
L 318.868461 130.850826 
L 317.632371 116.11432 
L 316.453459 104.431584 
L 315.163842 93.810914 
L 313.7796 84.252312 
L 311.662202 71.507509 
L 310.537182 64.073041 
L 310.114659 59.824773 
L 309.97839 56.638572 
L 309.973227 55.576506 
L 309.973227 55.576506 
" style="fill:none;stroke:#ff5500;stroke-width:1.5;"/>
   </g>
   <g id="LineCollection_11">
    <path clip-path="url(#p956a501540)" d="M 333.187054 293.479494 
L 333.073287 276.486424 
L 332.694854 255.245086 
L 331.768552 218.072743 
L 330.376526 170.279732 
L 329.336989 141.603926 
L 328.360352 120.362587 
L 327.360859 103.369517 
L 326.273435 88.50058 
L 324.689463 67.259242 
L 324.398028 59.824773 
L 324.355093 55.576506 
L 324.355093 55.576506 
" style="fill:none;stroke:#e80000;stroke-width:1.5;"/>
   </g>
   <g id="LineCollection_12">
    <path clip-path="url(#p956a501540)" d="M 340.276476 293.479494 
L 340.157894 261.617487 
L 339.702502 206.390007 
L 338.830723 127.797056 
L 338.250454 96.997115 
L 337.438083 57.700639 
L 337.435633 55.576506 
L 337.435633 55.576506 
" style="fill:none;stroke:#800000;stroke-width:1.5;"/>
   </g>
   <g id="patch_3">
    <path d="M 57.6 293.479494 
L 57.6 55.576506 
" style="fill:none;stroke:#000000;stroke-linecap:square;stroke-linejoin:miter;stroke-width:0.8;"/>
   </g>
   <g id="patch_4">
    <path d="M 343.296 293.479494 
L 343.296 55.576506 
" style="fill:none;stroke:#000000;stroke-linecap:square;stroke-linejoin:miter;stroke-width:0.8;"/>
   </g>
   <g id="patch_5">
    <path d="M 57.6 293.479494 
L 343.296 293.479494 
" style="fill:none;stroke:#000000;stroke-linecap:square;stroke-linejoin:miter;stroke-width:0.8;"/>
   </g>
   <g id="patch_6">
    <path d="M 57.6 55.576506 
L 343.296 55.576506 
" style="fill:none;stroke:#000000;stroke-linecap:square;stroke-linejoin:miter;stroke-width:0.8;"/>
   </g>
   <g id="text_10">
    <!-- Time:0.02634 s -->
    <defs>
     <path d="M -0.296875 72.90625 
L 61.375 72.90625 
L 61.375 64.59375 
L 35.5 64.59375 
L 35.5 0 
L 25.59375 0 
L 25.59375 64.59375 
L -0.296875 64.59375 
z
" id="DejaVuSans-54"/>
     <path d="M 9.421875 54.6875 
L 18.40625 54.6875 
L 18.40625 0 
L 9.421875 0 
z
M 9.421875 75.984375 
L 18.40625 75.984375 
L 18.40625 64.59375 
L 9.421875 64.59375 
z
" id="DejaVuSans-69"/>
     <path d="M 52 44.1875 
Q 55.375 50.25 60.0625 53.125 
Q 64.75 56 71.09375 56 
Q 79.640625 56 84.28125 50.015625 
Q 88.921875 44.046875 88.921875 33.015625 
L 88.921875 0 
L 79.890625 0 
L 79.890625 32.71875 
Q 79.890625 40.578125 77.09375 44.375 
Q 74.3125 48.1875 68.609375 48.1875 
Q 61.625 48.1875 57.5625 43.546875 
Q 53.515625 38.921875 53.515625 30.90625 
L 53.515625 0 
L 44.484375 0 
L 44.484375 32.71875 
Q 44.484375 40.625 41.703125 44.40625 
Q 38.921875 48.1875 33.109375 48.1875 
Q 26.21875 48.1875 22.15625 43.53125 
Q 18.109375 38.875 18.109375 30.90625 
L 18.109375 0 
L 9.078125 0 
L 9.078125 54.6875 
L 18.109375 54.6875 
L 18.109375 46.1875 
Q 21.1875 51.21875 25.484375 53.609375 
Q 29.78125 56 35.6875 56 
Q 41.65625 56 45.828125 52.96875 
Q 50 49.953125 52 44.1875 
z
" id="DejaVuSans-6d"/>
     <path d="M 56.203125 29.59375 
L 56.203125 25.203125 
L 14.890625 25.203125 
Q 15.484375 15.921875 20.484375 11.0625 
Q 25.484375 6.203125 34.421875 6.203125 
Q 39.59375 6.203125 44.453125 7.46875 
Q 49.3125 8.734375 54.109375 11.28125 
L 54.109375 2.78125 
Q 49.265625 0.734375 44.1875 -0.34375 
Q 39.109375 -1.421875 33.890625 -1.421875 
Q 20.796875 -1.421875 13.15625 6.1875 
Q 5.515625 13.8125 5.515625 26.8125 
Q 5.515625 40.234375 12.765625 48.109375 
Q 20.015625 56 32.328125 56 
Q 43.359375 56 49.78125 48.890625 
Q 56.203125 41.796875 56.203125 29.59375 
z
M 47.21875 32.234375 
Q 47.125 39.59375 43.09375 43.984375 
Q 39.0625 48.390625 32.421875 48.390625 
Q 24.90625 48.390625 20.390625 44.140625 
Q 15.875 39.890625 15.1875 32.171875 
z
" id="DejaVuSans-65"/>
     <path d="M 11.71875 12.40625 
L 22.015625 12.40625 
L 22.015625 0 
L 11.71875 0 
z
M 11.71875 51.703125 
L 22.015625 51.703125 
L 22.015625 39.3125 
L 11.71875 39.3125 
z
" id="DejaVuSans-3a"/>
     <path d="M 40.578125 39.3125 
Q 47.65625 37.796875 51.625 33 
Q 55.609375 28.21875 55.609375 21.1875 
Q 55.609375 10.40625 48.1875 4.484375 
Q 40.765625 -1.421875 27.09375 -1.421875 
Q 22.515625 -1.421875 17.65625 -0.515625 
Q 12.796875 0.390625 7.625 2.203125 
L 7.625 11.71875 
Q 11.71875 9.328125 16.59375 8.109375 
Q 21.484375 6.890625 26.8125 6.890625 
Q 36.078125 6.890625 40.9375 10.546875 
Q 45.796875 14.203125 45.796875 21.1875 
Q 45.796875 27.640625 41.28125 31.265625 
Q 36.765625 34.90625 28.71875 34.90625 
L 20.21875 34.90625 
L 20.21875 43.015625 
L 29.109375 43.015625 
Q 36.375 43.015625 40.234375 45.921875 
Q 44.09375 48.828125 44.09375 54.296875 
Q 44.09375 59.90625 40.109375 62.90625 
Q 36.140625 65.921875 28.71875 65.921875 
Q 24.65625 65.921875 20.015625 65.03125 
Q 15.375 64.15625 9.8125 62.3125 
L 9.8125 71.09375 
Q 15.4375 72.65625 20.34375 73.4375 
Q 25.25 74.21875 29.59375 74.21875 
Q 40.828125 74.21875 47.359375 69.109375 
Q 53.90625 64.015625 53.90625 55.328125 
Q 53.90625 49.265625 50.4375 45.09375 
Q 46.96875 40.921875 40.578125 39.3125 
z
" id="DejaVuSans-33"/>
     <path id="DejaVuSans-20"/>
     <path d="M 44.28125 53.078125 
L 44.28125 44.578125 
Q 40.484375 46.53125 36.375 47.5 
Q 32.28125 48.484375 27.875 48.484375 
Q 21.1875 48.484375 17.84375 46.4375 
Q 14.5 44.390625 14.5 40.28125 
Q 14.5 37.15625 16.890625 35.375 
Q 19.28125 33.59375 26.515625 31.984375 
L 29.59375 31.296875 
Q 39.15625 29.25 43.1875 25.515625 
Q 47.21875 21.78125 47.21875 15.09375 
Q 47.21875 7.46875 41.1875 3.015625 
Q 35.15625 -1.421875 24.609375 -1.421875 
Q 20.21875 -1.421875 15.453125 -0.5625 
Q 10.6875 0.296875 5.421875 2 
L 5.421875 11.28125 
Q 10.40625 8.6875 15.234375 7.390625 
Q 20.0625 6.109375 24.8125 6.109375 
Q 31.15625 6.109375 34.5625 8.28125 
Q 37.984375 10.453125 37.984375 14.40625 
Q 37.984375 18.0625 35.515625 20.015625 
Q 33.0625 21.96875 24.703125 23.78125 
L 21.578125 24.515625 
Q 13.234375 26.265625 9.515625 29.90625 
Q 5.8125 33.546875 5.8125 39.890625 
Q 5.8125 47.609375 11.28125 51.796875 
Q 16.75 56 26.8125 56 
Q 31.78125 56 36.171875 55.265625 
Q 40.578125 54.546875 44.28125 53.078125 
z
" id="DejaVuSans-73"/>
    </defs>
    <g transform="translate(153.717375 49.576506)scale(0.12 -0.12)">
     <use xlink:href="#DejaVuSans-54"/>
     <use x="61.037109" xlink:href="#DejaVuSans-69"/>
     <use x="88.820312" xlink:href="#DejaVuSans-6d"/>
     <use x="186.232422" xlink:href="#DejaVuSans-65"/>
     <use x="247.755859" xlink:href="#DejaVuSans-3a"/>
     <use x="281.447266" xlink:href="#DejaVuSans-30"/>
     <use x="345.070312" xlink:href="#DejaVuSans-2e"/>
     <use x="376.857422" xlink:href="#DejaVuSans-30"/>
     <use x="440.480469" xlink:href="#DejaVuSans-32"/>
     <use x="504.103516" xlink:href="#DejaVuSans-36"/>
     <use x="567.726562" xlink:href="#DejaVuSans-33"/>
     <use x="631.349609" xlink:href="#DejaVuSans-34"/>
     <use x="694.972656" xlink:href="#DejaVuSans-20"/>
     <use x="726.759766" xlink:href="#DejaVuSans-73"/>
    </g>
   </g>
  </g>
  <g id="axes_2">
   <g id="patch_7">
    <path clip-path="url(#pf8d034d913)" d="M 361.152 307.584 
L 361.152 283.392 
L 361.152 65.664 
L 361.152 41.472 
L 374.4576 41.472 
L 374.4576 65.664 
L 374.4576 283.392 
L 374.4576 307.584 
z
" style="fill:#ffffff;stroke:#ffffff;stroke-linejoin:miter;stroke-width:0.01;"/>
   </g>
   <g id="matplotlib.axis_3"/>
   <g id="matplotlib.axis_4">
    <g id="ytick_5">
     <g id="line2d_10">
      <defs>
       <path d="M 0 0 
L 3.5 0 
" id="m1badd81e63" style="stroke:#000000;stroke-width:0.8;"/>
      </defs>
      <g>
       <use style="stroke:#000000;stroke-width:0.8;" x="374.4576" xlink:href="#m1badd81e63" y="307.584"/>
      </g>
     </g>
     <g id="text_11">
      <!-- 0.08 -->
      <g transform="translate(381.4576 311.383219)scale(0.1 -0.1)">
       <use xlink:href="#DejaVuSans-30"/>
       <use x="63.623047" xlink:href="#DejaVuSans-2e"/>
       <use x="95.410156" xlink:href="#DejaVuSans-30"/>
       <use x="159.033203" xlink:href="#DejaVuSans-38"/>
      </g>
     </g>
    </g>
    <g id="ytick_6">
     <g id="line2d_11">
      <g>
       <use style="stroke:#000000;stroke-width:0.8;" x="374.4576" xlink:href="#m1badd81e63" y="259.2"/>
      </g>
     </g>
     <g id="text_12">
      <!-- 0.24 -->
      <g transform="translate(381.4576 262.999219)scale(0.1 -0.1)">
       <use xlink:href="#DejaVuSans-30"/>
       <use x="63.623047" xlink:href="#DejaVuSans-2e"/>
       <use x="95.410156" xlink:href="#DejaVuSans-32"/>
       <use x="159.033203" xlink:href="#DejaVuSans-34"/>
      </g>
     </g>
    </g>
    <g id="ytick_7">
     <g id="line2d_12">
      <g>
       <use style="stroke:#000000;stroke-width:0.8;" x="374.4576" xlink:href="#m1badd81e63" y="210.816"/>
      </g>
     </g>
     <g id="text_13">
      <!-- 0.40 -->
      <g transform="translate(381.4576 214.615219)scale(0.1 -0.1)">
       <use xlink:href="#DejaVuSans-30"/>
       <use x="63.623047" xlink:href="#DejaVuSans-2e"/>
       <use x="95.410156" xlink:href="#DejaVuSans-34"/>
       <use x="159.033203" xlink:href="#DejaVuSans-30"/>
      </g>
     </g>
    </g>
    <g id="ytick_8">
     <g id="line2d_13">
      <g>
       <use style="stroke:#000000;stroke-width:0.8;" x="374.4576" xlink:href="#m1badd81e63" y="162.432"/>
      </g>
     </g>
     <g id="text_14">
      <!-- 0.56 -->
      <defs>
       <path d="M 10.796875 72.90625 
L 49.515625 72.90625 
L 49.515625 64.59375 
L 19.828125 64.59375 
L 19.828125 46.734375 
Q 21.96875 47.46875 24.109375 47.828125 
Q 26.265625 48.1875 28.421875 48.1875 
Q 40.625 48.1875 47.75 41.5 
Q 54.890625 34.8125 54.890625 23.390625 
Q 54.890625 11.625 47.5625 5.09375 
Q 40.234375 -1.421875 26.90625 -1.421875 
Q 22.3125 -1.421875 17.546875 -0.640625 
Q 12.796875 0.140625 7.71875 1.703125 
L 7.71875 11.625 
Q 12.109375 9.234375 16.796875 8.0625 
Q 21.484375 6.890625 26.703125 6.890625 
Q 35.15625 6.890625 40.078125 11.328125 
Q 45.015625 15.765625 45.015625 23.390625 
Q 45.015625 31 40.078125 35.4375 
Q 35.15625 39.890625 26.703125 39.890625 
Q 22.75 39.890625 18.8125 39.015625 
Q 14.890625 38.140625 10.796875 36.28125 
z
" id="DejaVuSans-35"/>
      </defs>
      <g transform="translate(381.4576 166.231219)scale(0.1 -0.1)">
       <use xlink:href="#DejaVuSans-30"/>
       <use x="63.623047" xlink:href="#DejaVuSans-2e"/>
       <use x="95.410156" xlink:href="#DejaVuSans-35"/>
       <use x="159.033203" xlink:href="#DejaVuSans-36"/>
      </g>
     </g>
    </g>
    <g id="ytick_9">
     <g id="line2d_14">
      <g>
       <use style="stroke:#000000;stroke-width:0.8;" x="374.4576" xlink:href="#m1badd81e63" y="114.048"/>
      </g>
     </g>
     <g id="text_15">
      <!-- 0.72 -->
      <defs>
       <path d="M 8.203125 72.90625 
L 55.078125 72.90625 
L 55.078125 68.703125 
L 28.609375 0 
L 18.3125 0 
L 43.21875 64.59375 
L 8.203125 64.59375 
z
" id="DejaVuSans-37"/>
      </defs>
      <g transform="translate(381.4576 117.847219)scale(0.1 -0.1)">
       <use xlink:href="#DejaVuSans-30"/>
       <use x="63.623047" xlink:href="#DejaVuSans-2e"/>
       <use x="95.410156" xlink:href="#DejaVuSans-37"/>
       <use x="159.033203" xlink:href="#DejaVuSans-32"/>
      </g>
     </g>
    </g>
    <g id="ytick_10">
     <g id="line2d_15">
      <g>
       <use style="stroke:#000000;stroke-width:0.8;" x="374.4576" xlink:href="#m1badd81e63" y="65.664"/>
      </g>
     </g>
     <g id="text_16">
      <!-- 0.88 -->
      <g transform="translate(381.4576 69.463219)scale(0.1 -0.1)">
       <use xlink:href="#DejaVuSans-30"/>
       <use x="63.623047" xlink:href="#DejaVuSans-2e"/>
       <use x="95.410156" xlink:href="#DejaVuSans-38"/>
       <use x="159.033203" xlink:href="#DejaVuSans-38"/>
      </g>
     </g>
    </g>
   </g>
   <g id="LineCollection_13">
    <path clip-path="url(#pf8d034d913)" d="M 361.152 307.584 
L 374.4576 307.584 
" style="fill:none;stroke:#000080;stroke-width:1.5;"/>
    <path clip-path="url(#pf8d034d913)" d="M 361.152 283.392 
L 374.4576 283.392 
" style="fill:none;stroke:#0000e8;stroke-width:1.5;"/>
    <path clip-path="url(#pf8d034d913)" d="M 361.152 259.2 
L 374.4576 259.2 
" style="fill:none;stroke:#0038ff;stroke-width:1.5;"/>
    <path clip-path="url(#pf8d034d913)" d="M 361.152 235.008 
L 374.4576 235.008 
" style="fill:none;stroke:#0094ff;stroke-width:1.5;"/>
    <path clip-path="url(#pf8d034d913)" d="M 361.152 210.816 
L 374.4576 210.816 
" style="fill:none;stroke:#0cf4eb;stroke-width:1.5;"/>
    <path clip-path="url(#pf8d034d913)" d="M 361.152 186.624 
L 374.4576 186.624 
" style="fill:none;stroke:#56ffa0;stroke-width:1.5;"/>
    <path clip-path="url(#pf8d034d913)" d="M 361.152 162.432 
L 374.4576 162.432 
" style="fill:none;stroke:#a0ff56;stroke-width:1.5;"/>
    <path clip-path="url(#pf8d034d913)" d="M 361.152 138.24 
L 374.4576 138.24 
" style="fill:none;stroke:#ebff0c;stroke-width:1.5;"/>
    <path clip-path="url(#pf8d034d913)" d="M 361.152 114.048 
L 374.4576 114.048 
" style="fill:none;stroke:#ffab00;stroke-width:1.5;"/>
    <path clip-path="url(#pf8d034d913)" d="M 361.152 89.856 
L 374.4576 89.856 
" style="fill:none;stroke:#ff5500;stroke-width:1.5;"/>
    <path clip-path="url(#pf8d034d913)" d="M 361.152 65.664 
L 374.4576 65.664 
" style="fill:none;stroke:#e80000;stroke-width:1.5;"/>
    <path clip-path="url(#pf8d034d913)" d="M 361.152 41.472 
L 374.4576 41.472 
" style="fill:none;stroke:#800000;stroke-width:1.5;"/>
   </g>
   <g id="patch_8">
    <path d="M 361.152 307.584 
L 361.152 283.392 
L 361.152 65.664 
L 361.152 41.472 
L 374.4576 41.472 
L 374.4576 65.664 
L 374.4576 283.392 
L 374.4576 307.584 
z
" style="fill:none;stroke:#000000;stroke-linejoin:miter;stroke-width:0.8;"/>
   </g>
  </g>
 </g>
 <defs>
  <clipPath id="p956a501540">
   <rect height="237.902989" width="285.696" x="57.6" y="55.576506"/>
  </clipPath>
  <clipPath id="pf8d034d913">
   <rect height="266.112" width="13.3056" x="361.152" y="41.472"/>
  </clipPath>
 </defs>
</svg>
