<?xml version="1.0" encoding="utf-8" standalone="no"?>
<!DOCTYPE svg PUBLIC "-//W3C//DTD SVG 1.1//EN"
  "http://www.w3.org/Graphics/SVG/1.1/DTD/svg11.dtd">
<!-- Created with matplotlib (http://matplotlib.org/) -->
<svg height="345.6pt" version="1.1" viewBox="0 0 460.8 345.6" width="460.8pt" xmlns="http://www.w3.org/2000/svg" xmlns:xlink="http://www.w3.org/1999/xlink">
 <defs>
  <style type="text/css">
*{stroke-linecap:butt;stroke-linejoin:round;}
  </style>
 </defs>
 <g id="figure_1">
  <g id="patch_1">
   <path d="M 0 345.6 
L 460.8 345.6 
L 460.8 0 
L 0 0 
z
" style="fill:#ffffff;"/>
  </g>
  <g id="axes_1">
   <g id="patch_2">
    <path d="M 57.6 293.479494 
L 343.296 293.479494 
L 343.296 55.576506 
L 57.6 55.576506 
z
" style="fill:#ffffff;"/>
   </g>
   <g id="matplotlib.axis_1">
    <g id="xtick_1">
     <g id="line2d_1">
      <defs>
       <path d="M 0 0 
L 0 3.5 
" id="mc05ccd86e1" style="stroke:#000000;stroke-width:0.8;"/>
      </defs>
      <g>
       <use style="stroke:#000000;stroke-width:0.8;" x="104.861978" xlink:href="#mc05ccd86e1" y="293.479494"/>
      </g>
     </g>
     <g id="text_1">
      <!-- 0.2 -->
      <defs>
       <path d="M 31.78125 66.40625 
Q 24.171875 66.40625 20.328125 58.90625 
Q 16.5 51.421875 16.5 36.375 
Q 16.5 21.390625 20.328125 13.890625 
Q 24.171875 6.390625 31.78125 6.390625 
Q 39.453125 6.390625 43.28125 13.890625 
Q 47.125 21.390625 47.125 36.375 
Q 47.125 51.421875 43.28125 58.90625 
Q 39.453125 66.40625 31.78125 66.40625 
z
M 31.78125 74.21875 
Q 44.046875 74.21875 50.515625 64.515625 
Q 56.984375 54.828125 56.984375 36.375 
Q 56.984375 17.96875 50.515625 8.265625 
Q 44.046875 -1.421875 31.78125 -1.421875 
Q 19.53125 -1.421875 13.0625 8.265625 
Q 6.59375 17.96875 6.59375 36.375 
Q 6.59375 54.828125 13.0625 64.515625 
Q 19.53125 74.21875 31.78125 74.21875 
z
" id="DejaVuSans-30"/>
       <path d="M 10.6875 12.40625 
L 21 12.40625 
L 21 0 
L 10.6875 0 
z
" id="DejaVuSans-2e"/>
       <path d="M 19.1875 8.296875 
L 53.609375 8.296875 
L 53.609375 0 
L 7.328125 0 
L 7.328125 8.296875 
Q 12.9375 14.109375 22.625 23.890625 
Q 32.328125 33.6875 34.8125 36.53125 
Q 39.546875 41.84375 41.421875 45.53125 
Q 43.3125 49.21875 43.3125 52.78125 
Q 43.3125 58.59375 39.234375 62.25 
Q 35.15625 65.921875 28.609375 65.921875 
Q 23.96875 65.921875 18.8125 64.3125 
Q 13.671875 62.703125 7.8125 59.421875 
L 7.8125 69.390625 
Q 13.765625 71.78125 18.9375 73 
Q 24.125 74.21875 28.421875 74.21875 
Q 39.75 74.21875 46.484375 68.546875 
Q 53.21875 62.890625 53.21875 53.421875 
Q 53.21875 48.921875 51.53125 44.890625 
Q 49.859375 40.875 45.40625 35.40625 
Q 44.1875 33.984375 37.640625 27.21875 
Q 31.109375 20.453125 19.1875 8.296875 
z
" id="DejaVuSans-32"/>
      </defs>
      <g transform="translate(96.910415 308.077932)scale(0.1 -0.1)">
       <use xlink:href="#DejaVuSans-30"/>
       <use x="63.623047" xlink:href="#DejaVuSans-2e"/>
       <use x="95.410156" xlink:href="#DejaVuSans-32"/>
      </g>
     </g>
    </g>
    <g id="xtick_2">
     <g id="line2d_2">
      <g>
       <use style="stroke:#000000;stroke-width:0.8;" x="152.654989" xlink:href="#mc05ccd86e1" y="293.479494"/>
      </g>
     </g>
     <g id="text_2">
      <!-- 0.4 -->
      <defs>
       <path d="M 37.796875 64.3125 
L 12.890625 25.390625 
L 37.796875 25.390625 
z
M 35.203125 72.90625 
L 47.609375 72.90625 
L 47.609375 25.390625 
L 58.015625 25.390625 
L 58.015625 17.1875 
L 47.609375 17.1875 
L 47.609375 0 
L 37.796875 0 
L 37.796875 17.1875 
L 4.890625 17.1875 
L 4.890625 26.703125 
z
" id="DejaVuSans-34"/>
      </defs>
      <g transform="translate(144.703426 308.077932)scale(0.1 -0.1)">
       <use xlink:href="#DejaVuSans-30"/>
       <use x="63.623047" xlink:href="#DejaVuSans-2e"/>
       <use x="95.410156" xlink:href="#DejaVuSans-34"/>
      </g>
     </g>
    </g>
    <g id="xtick_3">
     <g id="line2d_3">
      <g>
       <use style="stroke:#000000;stroke-width:0.8;" x="200.448" xlink:href="#mc05ccd86e1" y="293.479494"/>
      </g>
     </g>
     <g id="text_3">
      <!-- 0.6 -->
      <defs>
       <path d="M 33.015625 40.375 
Q 26.375 40.375 22.484375 35.828125 
Q 18.609375 31.296875 18.609375 23.390625 
Q 18.609375 15.53125 22.484375 10.953125 
Q 26.375 6.390625 33.015625 6.390625 
Q 39.65625 6.390625 43.53125 10.953125 
Q 47.40625 15.53125 47.40625 23.390625 
Q 47.40625 31.296875 43.53125 35.828125 
Q 39.65625 40.375 33.015625 40.375 
z
M 52.59375 71.296875 
L 52.59375 62.3125 
Q 48.875 64.0625 45.09375 64.984375 
Q 41.3125 65.921875 37.59375 65.921875 
Q 27.828125 65.921875 22.671875 59.328125 
Q 17.53125 52.734375 16.796875 39.40625 
Q 19.671875 43.65625 24.015625 45.921875 
Q 28.375 48.1875 33.59375 48.1875 
Q 44.578125 48.1875 50.953125 41.515625 
Q 57.328125 34.859375 57.328125 23.390625 
Q 57.328125 12.15625 50.6875 5.359375 
Q 44.046875 -1.421875 33.015625 -1.421875 
Q 20.359375 -1.421875 13.671875 8.265625 
Q 6.984375 17.96875 6.984375 36.375 
Q 6.984375 53.65625 15.1875 63.9375 
Q 23.390625 74.21875 37.203125 74.21875 
Q 40.921875 74.21875 44.703125 73.484375 
Q 48.484375 72.75 52.59375 71.296875 
z
" id="DejaVuSans-36"/>
      </defs>
      <g transform="translate(192.496438 308.077932)scale(0.1 -0.1)">
       <use xlink:href="#DejaVuSans-30"/>
       <use x="63.623047" xlink:href="#DejaVuSans-2e"/>
       <use x="95.410156" xlink:href="#DejaVuSans-36"/>
      </g>
     </g>
    </g>
    <g id="xtick_4">
     <g id="line2d_4">
      <g>
       <use style="stroke:#000000;stroke-width:0.8;" x="248.241011" xlink:href="#mc05ccd86e1" y="293.479494"/>
      </g>
     </g>
     <g id="text_4">
      <!-- 0.8 -->
      <defs>
       <path d="M 31.78125 34.625 
Q 24.75 34.625 20.71875 30.859375 
Q 16.703125 27.09375 16.703125 20.515625 
Q 16.703125 13.921875 20.71875 10.15625 
Q 24.75 6.390625 31.78125 6.390625 
Q 38.8125 6.390625 42.859375 10.171875 
Q 46.921875 13.96875 46.921875 20.515625 
Q 46.921875 27.09375 42.890625 30.859375 
Q 38.875 34.625 31.78125 34.625 
z
M 21.921875 38.8125 
Q 15.578125 40.375 12.03125 44.71875 
Q 8.5 49.078125 8.5 55.328125 
Q 8.5 64.0625 14.71875 69.140625 
Q 20.953125 74.21875 31.78125 74.21875 
Q 42.671875 74.21875 48.875 69.140625 
Q 55.078125 64.0625 55.078125 55.328125 
Q 55.078125 49.078125 51.53125 44.71875 
Q 48 40.375 41.703125 38.8125 
Q 48.828125 37.15625 52.796875 32.3125 
Q 56.78125 27.484375 56.78125 20.515625 
Q 56.78125 9.90625 50.3125 4.234375 
Q 43.84375 -1.421875 31.78125 -1.421875 
Q 19.734375 -1.421875 13.25 4.234375 
Q 6.78125 9.90625 6.78125 20.515625 
Q 6.78125 27.484375 10.78125 32.3125 
Q 14.796875 37.15625 21.921875 38.8125 
z
M 18.3125 54.390625 
Q 18.3125 48.734375 21.84375 45.5625 
Q 25.390625 42.390625 31.78125 42.390625 
Q 38.140625 42.390625 41.71875 45.5625 
Q 45.3125 48.734375 45.3125 54.390625 
Q 45.3125 60.0625 41.71875 63.234375 
Q 38.140625 66.40625 31.78125 66.40625 
Q 25.390625 66.40625 21.84375 63.234375 
Q 18.3125 60.0625 18.3125 54.390625 
z
" id="DejaVuSans-38"/>
      </defs>
      <g transform="translate(240.289449 308.077932)scale(0.1 -0.1)">
       <use xlink:href="#DejaVuSans-30"/>
       <use x="63.623047" xlink:href="#DejaVuSans-2e"/>
       <use x="95.410156" xlink:href="#DejaVuSans-38"/>
      </g>
     </g>
    </g>
    <g id="xtick_5">
     <g id="line2d_5">
      <g>
       <use style="stroke:#000000;stroke-width:0.8;" x="296.034022" xlink:href="#mc05ccd86e1" y="293.479494"/>
      </g>
     </g>
     <g id="text_5">
      <!-- 1.0 -->
      <defs>
       <path d="M 12.40625 8.296875 
L 28.515625 8.296875 
L 28.515625 63.921875 
L 10.984375 60.40625 
L 10.984375 69.390625 
L 28.421875 72.90625 
L 38.28125 72.90625 
L 38.28125 8.296875 
L 54.390625 8.296875 
L 54.390625 0 
L 12.40625 0 
z
" id="DejaVuSans-31"/>
      </defs>
      <g transform="translate(288.08246 308.077932)scale(0.1 -0.1)">
       <use xlink:href="#DejaVuSans-31"/>
       <use x="63.623047" xlink:href="#DejaVuSans-2e"/>
       <use x="95.410156" xlink:href="#DejaVuSans-30"/>
      </g>
     </g>
    </g>
   </g>
   <g id="matplotlib.axis_2">
    <g id="ytick_1">
     <g id="line2d_6">
      <defs>
       <path d="M 0 0 
L -3.5 0 
" id="m77a85656e4" style="stroke:#000000;stroke-width:0.8;"/>
      </defs>
      <g>
       <use style="stroke:#000000;stroke-width:0.8;" x="57.6" xlink:href="#m77a85656e4" y="246.217517"/>
      </g>
     </g>
     <g id="text_6">
      <!-- 0.2 -->
      <g transform="translate(34.696875 250.016735)scale(0.1 -0.1)">
       <use xlink:href="#DejaVuSans-30"/>
       <use x="63.623047" xlink:href="#DejaVuSans-2e"/>
       <use x="95.410156" xlink:href="#DejaVuSans-32"/>
      </g>
     </g>
    </g>
    <g id="ytick_2">
     <g id="line2d_7">
      <g>
       <use style="stroke:#000000;stroke-width:0.8;" x="57.6" xlink:href="#m77a85656e4" y="198.424506"/>
      </g>
     </g>
     <g id="text_7">
      <!-- 0.4 -->
      <g transform="translate(34.696875 202.223724)scale(0.1 -0.1)">
       <use xlink:href="#DejaVuSans-30"/>
       <use x="63.623047" xlink:href="#DejaVuSans-2e"/>
       <use x="95.410156" xlink:href="#DejaVuSans-34"/>
      </g>
     </g>
    </g>
    <g id="ytick_3">
     <g id="line2d_8">
      <g>
       <use style="stroke:#000000;stroke-width:0.8;" x="57.6" xlink:href="#m77a85656e4" y="150.631494"/>
      </g>
     </g>
     <g id="text_8">
      <!-- 0.6 -->
      <g transform="translate(34.696875 154.430713)scale(0.1 -0.1)">
       <use xlink:href="#DejaVuSans-30"/>
       <use x="63.623047" xlink:href="#DejaVuSans-2e"/>
       <use x="95.410156" xlink:href="#DejaVuSans-36"/>
      </g>
     </g>
    </g>
    <g id="ytick_4">
     <g id="line2d_9">
      <g>
       <use style="stroke:#000000;stroke-width:0.8;" x="57.6" xlink:href="#m77a85656e4" y="102.838483"/>
      </g>
     </g>
     <g id="text_9">
      <!-- 0.8 -->
      <g transform="translate(34.696875 106.637702)scale(0.1 -0.1)">
       <use xlink:href="#DejaVuSans-30"/>
       <use x="63.623047" xlink:href="#DejaVuSans-2e"/>
       <use x="95.410156" xlink:href="#DejaVuSans-38"/>
      </g>
     </g>
    </g>
   </g>
   <g id="LineCollection_1">
    <path clip-path="url(#p345d27b1e0)" d="M 121.188259 293.479494 
L 120.729097 291.355361 
L 120.261948 290.257167 
L 119.602183 289.231227 
L 118.532202 288.16916 
L 116.770067 287.107093 
L 114.951613 286.47308 
L 112.82748 285.97669 
L 109.641279 285.627013 
L 105.393011 285.474477 
L 97.958543 285.536458 
L 90.524074 285.510793 
L 86.275807 285.28507 
L 83.089606 284.933728 
L 79.903405 284.364439 
L 77.779271 283.793604 
L 75.317012 282.858825 
L 73.323673 281.796758 
L 71.836779 280.734691 
L 70.660128 279.672625 
L 69.70206 278.610558 
L 68.898851 277.548491 
L 67.620771 275.424357 
L 66.639605 273.300223 
L 65.857294 271.176089 
L 64.94497 267.989888 
L 64.059626 263.741621 
L 63.423282 259.493353 
L 62.835308 254.183019 
L 62.188001 245.686483 
L 61.543237 234.003747 
L 60.681632 213.824476 
L 59.941553 190.459004 
L 59.300569 162.845264 
L 58.652542 124.610855 
L 57.977602 69.383375 
L 57.918799 55.576506 
L 57.918799 55.576506 
" style="fill:none;stroke:#000080;stroke-width:1.5;"/>
   </g>
   <g id="LineCollection_2">
    <path clip-path="url(#p345d27b1e0)" d="M 286.20677 293.479494 
L 286.584183 291.355361 
L 287.020177 289.231227 
L 287.200341 287.107093 
L 287.186207 283.920892 
L 286.876634 279.672625 
L 285.188002 264.803688 
L 284.33129 258.431286 
L 283.311124 252.058885 
L 282.474957 247.810617 
L 281.390683 243.562349 
L 280.284984 240.376149 
L 279.276885 238.252015 
L 278.509918 236.995706 
L 277.447851 235.777425 
L 276.385784 234.946972 
L 275.323717 234.400832 
L 274.016427 234.003747 
L 272.137517 233.733578 
L 268.951316 233.688829 
L 250.896178 234.069484 
L 225.406572 234.339571 
L 212.66177 234.738747 
L 189.296297 235.599565 
L 182.923896 235.578221 
L 176.551494 235.34367 
L 170.179093 234.898502 
L 161.099947 234.003747 
L 145.751554 232.456437 
L 139.379152 232.046905 
L 133.006751 231.858975 
L 126.634349 231.896263 
L 119.199881 232.166725 
L 110.703346 232.697009 
L 106.455078 233.16263 
L 103.268877 233.781589 
L 101.144743 234.448443 
L 99.02061 235.442779 
L 97.928404 236.127881 
L 96.60416 237.189948 
L 95.541521 238.252015 
L 94.657317 239.314082 
L 93.278671 241.438216 
L 92.236019 243.562349 
L 91.436344 245.686483 
L 90.594764 248.872684 
L 90.082574 252.058885 
L 89.228861 259.493353 
L 88.58666 261.617487 
L 88.046161 262.679554 
L 87.269817 263.741621 
L 86.035159 264.803688 
L 85.21374 265.254652 
L 84.151673 265.647379 
L 83.089606 265.847376 
L 82.027539 265.864736 
L 80.965472 265.710024 
L 79.903405 265.392122 
L 78.661522 264.803688 
L 77.174417 263.741621 
L 76.717204 263.362851 
L 75.181666 261.617487 
L 74.41686 260.55542 
L 73.203176 258.431286 
L 72.220852 256.307152 
L 71.053419 253.120952 
L 70.110467 249.934751 
L 68.880654 244.624416 
L 67.898222 239.314082 
L 66.784441 231.879613 
L 65.629409 222.321011 
L 64.593598 211.700342 
L 63.596865 198.955539 
L 62.611145 183.024535 
L 61.634111 162.845264 
L 60.674295 137.355658 
L 59.749349 105.493651 
L 58.727765 61.948907 
L 58.75285 56.638572 
L 58.775906 55.576506 
L 58.775906 55.576506 
" style="fill:none;stroke:#0000e8;stroke-width:1.5;"/>
   </g>
   <g id="LineCollection_3">
    <path clip-path="url(#p345d27b1e0)" d="M 290.178483 293.479494 
L 290.563962 288.16916 
L 290.533658 284.982959 
L 290.192654 278.600141 
L 288.856475 259.493353 
L 287.164054 237.189948 
L 286.442493 229.75548 
L 285.466167 221.258944 
L 284.554181 214.886543 
L 283.593817 209.576208 
L 282.59223 205.327941 
L 281.584668 202.14174 
L 280.634052 199.934891 
L 279.571985 198.265533 
L 278.509918 197.218957 
L 277.447851 196.6448 
L 276.385784 196.41696 
L 275.323717 196.431607 
L 273.199584 196.878143 
L 266.827182 198.716244 
L 263.640981 199.269244 
L 260.454781 199.574883 
L 256.206513 199.741513 
L 247.709978 199.770434 
L 212.66177 199.784469 
L 181.861829 199.930964 
L 154.248089 200.356222 
L 127.696416 200.665687 
L 122.386082 200.524933 
L 117.075747 200.141709 
L 111.765413 199.481748 
L 102.20681 198.125034 
L 99.02061 197.977389 
L 96.896476 198.098521 
L 94.772342 198.471106 
L 92.648208 199.171287 
L 90.524074 200.284341 
L 88.399941 201.887771 
L 87.039148 203.203807 
L 85.180855 205.327941 
L 82.790049 208.514141 
L 79.903405 212.403057 
L 78.595506 213.824476 
L 77.779271 214.557569 
L 76.717204 215.180598 
L 75.655138 215.388338 
L 74.593071 215.095215 
L 73.531004 214.21505 
L 72.468937 212.655993 
L 71.162332 209.576208 
L 70.170146 206.390007 
L 68.941967 201.079673 
L 67.810567 194.707271 
L 66.763512 187.272803 
L 65.683938 177.714201 
L 64.621586 166.031465 
L 63.532398 151.162528 
L 62.467069 133.10739 
L 61.456543 111.866052 
L 60.402038 84.252312 
L 59.587725 58.762706 
L 59.683751 55.576506 
L 59.683751 55.576506 
" style="fill:none;stroke:#0038ff;stroke-width:1.5;"/>
   </g>
   <g id="LineCollection_4">
    <path clip-path="url(#p345d27b1e0)" d="M 292.385164 293.479494 
L 292.503511 284.982959 
L 292.119257 276.486424 
L 290.328351 240.376149 
L 289.469375 225.507212 
L 288.52292 211.700342 
L 287.546339 200.017606 
L 286.561756 190.459004 
L 285.456368 181.962468 
L 284.590088 176.652134 
L 283.463785 171.341799 
L 282.58276 168.155599 
L 281.696119 165.707862 
L 280.634052 163.710254 
L 279.571985 162.480697 
L 278.509918 161.865631 
L 277.19585 161.783197 
L 276.385784 161.953177 
L 274.64549 162.845264 
L 273.076518 163.907331 
L 268.951316 166.790026 
L 266.827182 167.953018 
L 264.703048 168.827132 
L 262.578914 169.435272 
L 260.454781 169.823873 
L 257.26858 170.1045 
L 253.020312 170.146932 
L 229.65484 169.813734 
L 194.606632 169.73309 
L 122.386082 169.591765 
L 109.641279 169.540548 
L 95.834409 169.328849 
L 92.648208 169.593014 
L 90.524074 169.969958 
L 88.399941 170.573092 
L 86.275807 171.457144 
L 84.151673 172.657012 
L 81.528475 174.528 
L 78.69952 176.652134 
L 77.779271 177.232785 
L 76.691889 177.714201 
L 75.655138 177.900785 
L 74.593071 177.69635 
L 73.531004 176.980934 
L 72.449597 175.590067 
L 71.391146 173.465933 
L 70.014356 169.217665 
L 68.994655 164.969398 
L 67.824858 158.596996 
L 66.751485 151.162528 
L 65.645946 141.603926 
L 64.554939 129.92119 
L 63.505941 116.11432 
L 62.454685 99.121249 
L 60.738643 66.197175 
L 60.54727 59.824773 
L 60.70189 55.576506 
L 60.70189 55.576506 
" style="fill:none;stroke:#0094ff;stroke-width:1.5;"/>
   </g>
   <g id="LineCollection_5">
    <path clip-path="url(#p345d27b1e0)" d="M 294.075588 293.479494 
L 293.989058 281.796758 
L 292.862859 250.996818 
L 291.650368 221.258944 
L 290.628619 201.079673 
L 289.636003 185.148669 
L 288.660253 172.403866 
L 287.653287 161.783197 
L 286.644295 153.286662 
L 285.507571 145.852193 
L 284.442853 140.541859 
L 283.634764 137.355658 
L 282.547412 134.169457 
L 281.513953 132.045323 
L 280.634052 130.792229 
L 279.44776 129.92119 
L 278.509918 129.677495 
L 277.323941 129.92119 
L 276.385784 130.401384 
L 275.323717 131.220278 
L 273.199584 133.374654 
L 268.951316 138.064224 
L 266.827182 140.003303 
L 264.703048 141.517246 
L 262.578914 142.609704 
L 260.454781 143.328468 
L 258.330647 143.7372 
L 256.206513 143.905287 
L 253.020312 143.840373 
L 248.772045 143.435697 
L 241.337576 142.647779 
L 237.089309 142.400725 
L 231.778974 142.328634 
L 222.220372 142.515816 
L 210.537636 142.677027 
L 190.358364 142.638373 
L 153.186022 142.66433 
L 90.524074 142.885433 
L 87.337874 143.258638 
L 84.987889 143.728059 
L 82.027539 144.582166 
L 77.779271 145.974019 
L 76.717204 146.157058 
L 75.655138 146.151602 
L 74.573056 145.852193 
L 73.531004 145.188628 
L 72.31772 143.728059 
L 71.194682 141.603926 
L 70.038869 138.417725 
L 69.152236 135.231524 
L 67.851721 128.859123 
L 66.841588 122.486721 
L 65.654019 112.928119 
L 64.603219 102.30745 
L 63.496994 88.50058 
L 61.749347 63.010974 
L 61.691012 59.824773 
L 61.852918 56.638572 
L 61.921095 55.576506 
L 61.921095 55.576506 
" style="fill:none;stroke:#0cf4eb;stroke-width:1.5;"/>
   </g>
   <g id="LineCollection_6">
    <path clip-path="url(#p345d27b1e0)" d="M 295.610785 293.479494 
L 295.397789 278.610558 
L 294.50679 246.74855 
L 293.457155 214.886543 
L 292.506662 191.521071 
L 291.550602 172.403866 
L 290.634248 157.534929 
L 289.661615 144.790126 
L 288.639868 134.169457 
L 287.596631 125.672922 
L 286.599904 119.30052 
L 285.534404 113.990186 
L 284.74036 110.803985 
L 283.713244 107.617784 
L 282.758186 105.38739 
L 281.402855 103.369517 
L 280.634052 102.595671 
L 279.571985 102.07818 
L 278.509918 102.035115 
L 277.447851 102.39556 
L 276.07817 103.369517 
L 274.977414 104.431584 
L 273.164966 106.555717 
L 267.315384 113.990186 
L 265.765115 115.63371 
L 263.640981 117.481305 
L 261.516848 118.855438 
L 259.392714 119.777117 
L 257.26858 120.296905 
L 255.144446 120.481451 
L 252.67523 120.362587 
L 250.896178 120.125929 
L 246.896952 119.30052 
L 239.213442 117.619768 
L 234.965175 116.999646 
L 230.716907 116.668155 
L 226.468639 116.579192 
L 221.158305 116.695748 
L 194.606632 117.618216 
L 176.551494 117.802272 
L 96.896476 118.404342 
L 88.399941 118.621237 
L 84.151673 118.914051 
L 77.779271 119.44618 
L 76.271043 119.30052 
L 75.655138 119.182692 
L 74.593071 118.766318 
L 73.531004 118.042129 
L 72.468937 116.893049 
L 71.352716 115.052253 
L 70.073558 111.866052 
L 69.123222 108.679851 
L 67.954255 103.369517 
L 66.882304 96.997115 
L 65.648065 87.438513 
L 64.430372 75.755777 
L 63.456489 65.135108 
L 63.256702 60.88684 
L 63.3388 58.762706 
L 63.617616 55.576506 
L 63.617616 55.576506 
" style="fill:none;stroke:#56ffa0;stroke-width:1.5;"/>
   </g>
   <g id="LineCollection_7">
    <path clip-path="url(#p345d27b1e0)" d="M 300.892523 293.479494 
L 300.78469 287.107093 
L 300.465001 280.734691 
L 299.862999 273.300223 
L 298.658446 261.617487 
L 296.667766 244.624416 
L 296.511839 242.500283 
L 295.0724 205.327941 
L 294.062946 176.652134 
L 293.06679 154.348729 
L 292.028404 136.293591 
L 290.99521 122.486721 
L 289.973803 111.866052 
L 288.787454 102.30745 
L 287.764659 95.935048 
L 286.636033 90.624714 
L 285.754076 87.438513 
L 284.577881 84.252312 
L 283.535059 82.128178 
L 282.758186 80.849221 
L 281.696119 79.50939 
L 280.634052 78.499364 
L 279.571985 77.752629 
L 278.509918 77.240771 
L 276.847019 76.817844 
L 276.385784 76.752912 
L 274.849839 76.817844 
L 274.261651 76.90675 
L 273.199584 77.213983 
L 271.723101 77.879911 
L 270.154832 78.941978 
L 268.951316 80.061801 
L 267.316077 82.128178 
L 266.048585 84.252312 
L 263.973054 88.50058 
L 262.578914 91.187944 
L 261.516848 92.878403 
L 259.888194 94.872981 
L 258.745351 95.935048 
L 257.255984 96.997115 
L 255.144446 97.998456 
L 254.082379 98.334684 
L 251.958245 98.764914 
L 249.834112 98.952841 
L 246.647911 98.936692 
L 242.399643 98.605631 
L 234.965175 97.710901 
L 223.282439 96.298921 
L 215.84797 95.616014 
L 208.413502 95.168682 
L 200.979033 94.946548 
L 190.358364 94.892418 
L 162.964976 94.872981 
L 146.813621 94.589722 
L 108.579212 93.626575 
L 85.21374 93.133159 
L 79.903405 92.973165 
L 77.779271 92.719731 
L 76.717204 92.472617 
L 75.655138 92.093474 
L 74.593071 91.520553 
L 73.493912 90.624714 
L 72.468937 89.42325 
L 71.318509 87.438513 
L 70.063785 84.252312 
L 69.120601 81.066112 
L 67.955524 75.755777 
L 66.8803 69.383375 
L 66.246827 64.073041 
L 66.155516 61.948907 
L 66.287647 59.824773 
L 66.773101 56.638572 
L 66.793851 55.576506 
L 66.793851 55.576506 
" style="fill:none;stroke:#a0ff56;stroke-width:1.5;"/>
   </g>
   <g id="LineCollection_8">
    <path clip-path="url(#p345d27b1e0)" d="M 308.373332 293.479494 
L 308.231653 284.982959 
L 307.851143 276.486424 
L 307.120378 265.865755 
L 305.92597 252.058885 
L 304.126707 234.003747 
L 302.104084 215.94861 
L 299.972313 198.955539 
L 297.887987 184.086602 
L 296.515865 174.528 
L 294.915144 142.665993 
L 294.007093 124.610855 
L 293.044425 109.741918 
L 292.077225 98.059182 
L 291.133955 89.562647 
L 290.192654 83.616682 
L 289.385067 80.004045 
L 288.780963 77.879911 
L 288.044007 75.755777 
L 287.006454 73.495849 
L 285.746661 71.507509 
L 284.870783 70.445442 
L 283.728662 69.383375 
L 282.140613 68.321309 
L 280.634052 67.615424 
L 278.509918 66.987832 
L 276.385784 66.665459 
L 274.261651 66.564876 
L 272.137517 66.64203 
L 268.951316 67.028764 
L 265.765115 67.693271 
L 262.578914 68.590216 
L 258.330647 70.075541 
L 245.585844 74.868074 
L 242.399643 75.637333 
L 239.213442 76.095893 
L 236.027242 76.246389 
L 232.841041 76.121899 
L 229.521822 75.755777 
L 225.406572 75.030053 
L 221.158305 74.08721 
L 214.785903 72.491646 
L 196.730766 67.54309 
L 193.544565 66.506574 
L 191.420431 65.729249 
L 189.296297 64.854796 
L 187.172164 63.809105 
L 185.04803 62.446195 
L 183.985963 61.540242 
L 183.345673 60.88684 
L 182.627116 59.824773 
L 182.182161 58.762706 
L 181.958159 57.700639 
L 181.93909 55.576506 
L 181.93909 55.576506 
" style="fill:none;stroke:#ebff0c;stroke-width:1.5;"/>
   </g>
   <g id="LineCollection_9">
    <path clip-path="url(#p345d27b1e0)" d="M 316.052604 293.479494 
L 315.930459 283.920892 
L 315.55846 273.300223 
L 314.866242 260.55542 
L 313.76532 244.624416 
L 312.219635 225.507212 
L 310.455981 206.390007 
L 308.679003 189.396937 
L 306.789753 173.465933 
L 304.92937 159.659063 
L 303.149052 147.976327 
L 301.32393 137.355658 
L 299.471964 127.797056 
L 297.621916 119.30052 
L 296.493193 113.990186 
L 294.810905 92.748848 
L 294.154452 85.314379 
L 293.378855 79.054885 
L 292.806527 75.755777 
L 292.078224 72.569576 
L 291.254721 69.944693 
L 290.569536 68.321309 
L 290.021823 67.259242 
L 289.130587 65.877032 
L 288.06852 64.61786 
L 287.006454 63.632684 
L 284.88232 62.160912 
L 281.696119 60.541072 
L 278.509918 59.001782 
L 278.042701 58.762706 
L 276.737051 57.700639 
L 276.150246 56.638572 
L 276.066728 55.576506 
L 276.066728 55.576506 
" style="fill:none;stroke:#ffab00;stroke-width:1.5;"/>
   </g>
   <g id="LineCollection_10">
    <path clip-path="url(#p345d27b1e0)" d="M 323.877852 293.479494 
L 323.760661 281.796758 
L 323.380481 267.989888 
L 322.708775 252.058885 
L 321.625086 231.879613 
L 320.205667 209.576208 
L 318.711564 189.396937 
L 317.15971 171.341799 
L 315.565693 155.410796 
L 313.957722 141.603926 
L 312.382624 129.92119 
L 310.733225 119.30052 
L 309.02603 109.741918 
L 307.284355 101.245383 
L 305.535298 93.810914 
L 303.80968 87.438513 
L 302.150066 82.128178 
L 300.618742 77.879911 
L 298.82397 73.631643 
L 297.627123 71.207646 
L 296.565056 69.322041 
L 295.798607 66.197175 
L 295.27099 64.073041 
L 294.440922 60.788196 
L 293.023079 55.576506 
L 293.023079 55.576506 
" style="fill:none;stroke:#ff5500;stroke-width:1.5;"/>
   </g>
   <g id="LineCollection_11">
    <path clip-path="url(#p345d27b1e0)" d="M 331.802812 293.479494 
L 331.678271 277.548491 
L 331.28197 257.369219 
L 330.574213 234.003747 
L 329.48913 205.705301 
L 328.331956 180.900401 
L 327.129223 159.659063 
L 325.887292 141.603926 
L 324.652911 126.734989 
L 323.279564 112.928119 
L 321.900366 101.245383 
L 320.29994 89.562647 
L 316.948612 66.197175 
L 316.493341 60.88684 
L 316.342918 56.638572 
L 316.339428 55.576506 
L 316.339428 55.576506 
" style="fill:none;stroke:#e80000;stroke-width:1.5;"/>
   </g>
   <g id="LineCollection_12">
    <path clip-path="url(#p345d27b1e0)" d="M 339.787688 293.479494 
L 339.694055 271.176089 
L 339.395358 232.94168 
L 338.750252 186.210736 
L 338.050029 150.100461 
L 337.30288 122.486721 
L 336.497877 100.183316 
L 335.146553 67.259242 
L 334.992541 57.700639 
L 334.988239 55.576506 
L 334.988239 55.576506 
" style="fill:none;stroke:#800000;stroke-width:1.5;"/>
   </g>
   <g id="patch_3">
    <path d="M 57.6 293.479494 
L 57.6 55.576506 
" style="fill:none;stroke:#000000;stroke-linecap:square;stroke-linejoin:miter;stroke-width:0.8;"/>
   </g>
   <g id="patch_4">
    <path d="M 343.296 293.479494 
L 343.296 55.576506 
" style="fill:none;stroke:#000000;stroke-linecap:square;stroke-linejoin:miter;stroke-width:0.8;"/>
   </g>
   <g id="patch_5">
    <path d="M 57.6 293.479494 
L 343.296 293.479494 
" style="fill:none;stroke:#000000;stroke-linecap:square;stroke-linejoin:miter;stroke-width:0.8;"/>
   </g>
   <g id="patch_6">
    <path d="M 57.6 55.576506 
L 343.296 55.576506 
" style="fill:none;stroke:#000000;stroke-linecap:square;stroke-linejoin:miter;stroke-width:0.8;"/>
   </g>
   <g id="text_10">
    <!-- Time:0.10535 s -->
    <defs>
     <path d="M -0.296875 72.90625 
L 61.375 72.90625 
L 61.375 64.59375 
L 35.5 64.59375 
L 35.5 0 
L 25.59375 0 
L 25.59375 64.59375 
L -0.296875 64.59375 
z
" id="DejaVuSans-54"/>
     <path d="M 9.421875 54.6875 
L 18.40625 54.6875 
L 18.40625 0 
L 9.421875 0 
z
M 9.421875 75.984375 
L 18.40625 75.984375 
L 18.40625 64.59375 
L 9.421875 64.59375 
z
" id="DejaVuSans-69"/>
     <path d="M 52 44.1875 
Q 55.375 50.25 60.0625 53.125 
Q 64.75 56 71.09375 56 
Q 79.640625 56 84.28125 50.015625 
Q 88.921875 44.046875 88.921875 33.015625 
L 88.921875 0 
L 79.890625 0 
L 79.890625 32.71875 
Q 79.890625 40.578125 77.09375 44.375 
Q 74.3125 48.1875 68.609375 48.1875 
Q 61.625 48.1875 57.5625 43.546875 
Q 53.515625 38.921875 53.515625 30.90625 
L 53.515625 0 
L 44.484375 0 
L 44.484375 32.71875 
Q 44.484375 40.625 41.703125 44.40625 
Q 38.921875 48.1875 33.109375 48.1875 
Q 26.21875 48.1875 22.15625 43.53125 
Q 18.109375 38.875 18.109375 30.90625 
L 18.109375 0 
L 9.078125 0 
L 9.078125 54.6875 
L 18.109375 54.6875 
L 18.109375 46.1875 
Q 21.1875 51.21875 25.484375 53.609375 
Q 29.78125 56 35.6875 56 
Q 41.65625 56 45.828125 52.96875 
Q 50 49.953125 52 44.1875 
z
" id="DejaVuSans-6d"/>
     <path d="M 56.203125 29.59375 
L 56.203125 25.203125 
L 14.890625 25.203125 
Q 15.484375 15.921875 20.484375 11.0625 
Q 25.484375 6.203125 34.421875 6.203125 
Q 39.59375 6.203125 44.453125 7.46875 
Q 49.3125 8.734375 54.109375 11.28125 
L 54.109375 2.78125 
Q 49.265625 0.734375 44.1875 -0.34375 
Q 39.109375 -1.421875 33.890625 -1.421875 
Q 20.796875 -1.421875 13.15625 6.1875 
Q 5.515625 13.8125 5.515625 26.8125 
Q 5.515625 40.234375 12.765625 48.109375 
Q 20.015625 56 32.328125 56 
Q 43.359375 56 49.78125 48.890625 
Q 56.203125 41.796875 56.203125 29.59375 
z
M 47.21875 32.234375 
Q 47.125 39.59375 43.09375 43.984375 
Q 39.0625 48.390625 32.421875 48.390625 
Q 24.90625 48.390625 20.390625 44.140625 
Q 15.875 39.890625 15.1875 32.171875 
z
" id="DejaVuSans-65"/>
     <path d="M 11.71875 12.40625 
L 22.015625 12.40625 
L 22.015625 0 
L 11.71875 0 
z
M 11.71875 51.703125 
L 22.015625 51.703125 
L 22.015625 39.3125 
L 11.71875 39.3125 
z
" id="DejaVuSans-3a"/>
     <path d="M 10.796875 72.90625 
L 49.515625 72.90625 
L 49.515625 64.59375 
L 19.828125 64.59375 
L 19.828125 46.734375 
Q 21.96875 47.46875 24.109375 47.828125 
Q 26.265625 48.1875 28.421875 48.1875 
Q 40.625 48.1875 47.75 41.5 
Q 54.890625 34.8125 54.890625 23.390625 
Q 54.890625 11.625 47.5625 5.09375 
Q 40.234375 -1.421875 26.90625 -1.421875 
Q 22.3125 -1.421875 17.546875 -0.640625 
Q 12.796875 0.140625 7.71875 1.703125 
L 7.71875 11.625 
Q 12.109375 9.234375 16.796875 8.0625 
Q 21.484375 6.890625 26.703125 6.890625 
Q 35.15625 6.890625 40.078125 11.328125 
Q 45.015625 15.765625 45.015625 23.390625 
Q 45.015625 31 40.078125 35.4375 
Q 35.15625 39.890625 26.703125 39.890625 
Q 22.75 39.890625 18.8125 39.015625 
Q 14.890625 38.140625 10.796875 36.28125 
z
" id="DejaVuSans-35"/>
     <path d="M 40.578125 39.3125 
Q 47.65625 37.796875 51.625 33 
Q 55.609375 28.21875 55.609375 21.1875 
Q 55.609375 10.40625 48.1875 4.484375 
Q 40.765625 -1.421875 27.09375 -1.421875 
Q 22.515625 -1.421875 17.65625 -0.515625 
Q 12.796875 0.390625 7.625 2.203125 
L 7.625 11.71875 
Q 11.71875 9.328125 16.59375 8.109375 
Q 21.484375 6.890625 26.8125 6.890625 
Q 36.078125 6.890625 40.9375 10.546875 
Q 45.796875 14.203125 45.796875 21.1875 
Q 45.796875 27.640625 41.28125 31.265625 
Q 36.765625 34.90625 28.71875 34.90625 
L 20.21875 34.90625 
L 20.21875 43.015625 
L 29.109375 43.015625 
Q 36.375 43.015625 40.234375 45.921875 
Q 44.09375 48.828125 44.09375 54.296875 
Q 44.09375 59.90625 40.109375 62.90625 
Q 36.140625 65.921875 28.71875 65.921875 
Q 24.65625 65.921875 20.015625 65.03125 
Q 15.375 64.15625 9.8125 62.3125 
L 9.8125 71.09375 
Q 15.4375 72.65625 20.34375 73.4375 
Q 25.25 74.21875 29.59375 74.21875 
Q 40.828125 74.21875 47.359375 69.109375 
Q 53.90625 64.015625 53.90625 55.328125 
Q 53.90625 49.265625 50.4375 45.09375 
Q 46.96875 40.921875 40.578125 39.3125 
z
" id="DejaVuSans-33"/>
     <path id="DejaVuSans-20"/>
     <path d="M 44.28125 53.078125 
L 44.28125 44.578125 
Q 40.484375 46.53125 36.375 47.5 
Q 32.28125 48.484375 27.875 48.484375 
Q 21.1875 48.484375 17.84375 46.4375 
Q 14.5 44.390625 14.5 40.28125 
Q 14.5 37.15625 16.890625 35.375 
Q 19.28125 33.59375 26.515625 31.984375 
L 29.59375 31.296875 
Q 39.15625 29.25 43.1875 25.515625 
Q 47.21875 21.78125 47.21875 15.09375 
Q 47.21875 7.46875 41.1875 3.015625 
Q 35.15625 -1.421875 24.609375 -1.421875 
Q 20.21875 -1.421875 15.453125 -0.5625 
Q 10.6875 0.296875 5.421875 2 
L 5.421875 11.28125 
Q 10.40625 8.6875 15.234375 7.390625 
Q 20.0625 6.109375 24.8125 6.109375 
Q 31.15625 6.109375 34.5625 8.28125 
Q 37.984375 10.453125 37.984375 14.40625 
Q 37.984375 18.0625 35.515625 20.015625 
Q 33.0625 21.96875 24.703125 23.78125 
L 21.578125 24.515625 
Q 13.234375 26.265625 9.515625 29.90625 
Q 5.8125 33.546875 5.8125 39.890625 
Q 5.8125 47.609375 11.28125 51.796875 
Q 16.75 56 26.8125 56 
Q 31.78125 56 36.171875 55.265625 
Q 40.578125 54.546875 44.28125 53.078125 
z
" id="DejaVuSans-73"/>
    </defs>
    <g transform="translate(153.717375 49.576506)scale(0.12 -0.12)">
     <use xlink:href="#DejaVuSans-54"/>
     <use x="61.037109" xlink:href="#DejaVuSans-69"/>
     <use x="88.820312" xlink:href="#DejaVuSans-6d"/>
     <use x="186.232422" xlink:href="#DejaVuSans-65"/>
     <use x="247.755859" xlink:href="#DejaVuSans-3a"/>
     <use x="281.447266" xlink:href="#DejaVuSans-30"/>
     <use x="345.070312" xlink:href="#DejaVuSans-2e"/>
     <use x="376.857422" xlink:href="#DejaVuSans-31"/>
     <use x="440.480469" xlink:href="#DejaVuSans-30"/>
     <use x="504.103516" xlink:href="#DejaVuSans-35"/>
     <use x="567.726562" xlink:href="#DejaVuSans-33"/>
     <use x="631.349609" xlink:href="#DejaVuSans-35"/>
     <use x="694.972656" xlink:href="#DejaVuSans-20"/>
     <use x="726.759766" xlink:href="#DejaVuSans-73"/>
    </g>
   </g>
  </g>
  <g id="axes_2">
   <g id="patch_7">
    <path clip-path="url(#p2d1396dfe5)" d="M 361.152 307.584 
L 361.152 283.392 
L 361.152 65.664 
L 361.152 41.472 
L 374.4576 41.472 
L 374.4576 65.664 
L 374.4576 283.392 
L 374.4576 307.584 
z
" style="fill:#ffffff;stroke:#ffffff;stroke-linejoin:miter;stroke-width:0.01;"/>
   </g>
   <g id="matplotlib.axis_3"/>
   <g id="matplotlib.axis_4">
    <g id="ytick_5">
     <g id="line2d_10">
      <defs>
       <path d="M 0 0 
L 3.5 0 
" id="mc23777a544" style="stroke:#000000;stroke-width:0.8;"/>
      </defs>
      <g>
       <use style="stroke:#000000;stroke-width:0.8;" x="374.4576" xlink:href="#mc23777a544" y="307.584"/>
      </g>
     </g>
     <g id="text_11">
      <!-- 0.08 -->
      <g transform="translate(381.4576 311.383219)scale(0.1 -0.1)">
       <use xlink:href="#DejaVuSans-30"/>
       <use x="63.623047" xlink:href="#DejaVuSans-2e"/>
       <use x="95.410156" xlink:href="#DejaVuSans-30"/>
       <use x="159.033203" xlink:href="#DejaVuSans-38"/>
      </g>
     </g>
    </g>
    <g id="ytick_6">
     <g id="line2d_11">
      <g>
       <use style="stroke:#000000;stroke-width:0.8;" x="374.4576" xlink:href="#mc23777a544" y="259.2"/>
      </g>
     </g>
     <g id="text_12">
      <!-- 0.24 -->
      <g transform="translate(381.4576 262.999219)scale(0.1 -0.1)">
       <use xlink:href="#DejaVuSans-30"/>
       <use x="63.623047" xlink:href="#DejaVuSans-2e"/>
       <use x="95.410156" xlink:href="#DejaVuSans-32"/>
       <use x="159.033203" xlink:href="#DejaVuSans-34"/>
      </g>
     </g>
    </g>
    <g id="ytick_7">
     <g id="line2d_12">
      <g>
       <use style="stroke:#000000;stroke-width:0.8;" x="374.4576" xlink:href="#mc23777a544" y="210.816"/>
      </g>
     </g>
     <g id="text_13">
      <!-- 0.40 -->
      <g transform="translate(381.4576 214.615219)scale(0.1 -0.1)">
       <use xlink:href="#DejaVuSans-30"/>
       <use x="63.623047" xlink:href="#DejaVuSans-2e"/>
       <use x="95.410156" xlink:href="#DejaVuSans-34"/>
       <use x="159.033203" xlink:href="#DejaVuSans-30"/>
      </g>
     </g>
    </g>
    <g id="ytick_8">
     <g id="line2d_13">
      <g>
       <use style="stroke:#000000;stroke-width:0.8;" x="374.4576" xlink:href="#mc23777a544" y="162.432"/>
      </g>
     </g>
     <g id="text_14">
      <!-- 0.56 -->
      <g transform="translate(381.4576 166.231219)scale(0.1 -0.1)">
       <use xlink:href="#DejaVuSans-30"/>
       <use x="63.623047" xlink:href="#DejaVuSans-2e"/>
       <use x="95.410156" xlink:href="#DejaVuSans-35"/>
       <use x="159.033203" xlink:href="#DejaVuSans-36"/>
      </g>
     </g>
    </g>
    <g id="ytick_9">
     <g id="line2d_14">
      <g>
       <use style="stroke:#000000;stroke-width:0.8;" x="374.4576" xlink:href="#mc23777a544" y="114.048"/>
      </g>
     </g>
     <g id="text_15">
      <!-- 0.72 -->
      <defs>
       <path d="M 8.203125 72.90625 
L 55.078125 72.90625 
L 55.078125 68.703125 
L 28.609375 0 
L 18.3125 0 
L 43.21875 64.59375 
L 8.203125 64.59375 
z
" id="DejaVuSans-37"/>
      </defs>
      <g transform="translate(381.4576 117.847219)scale(0.1 -0.1)">
       <use xlink:href="#DejaVuSans-30"/>
       <use x="63.623047" xlink:href="#DejaVuSans-2e"/>
       <use x="95.410156" xlink:href="#DejaVuSans-37"/>
       <use x="159.033203" xlink:href="#DejaVuSans-32"/>
      </g>
     </g>
    </g>
    <g id="ytick_10">
     <g id="line2d_15">
      <g>
       <use style="stroke:#000000;stroke-width:0.8;" x="374.4576" xlink:href="#mc23777a544" y="65.664"/>
      </g>
     </g>
     <g id="text_16">
      <!-- 0.88 -->
      <g transform="translate(381.4576 69.463219)scale(0.1 -0.1)">
       <use xlink:href="#DejaVuSans-30"/>
       <use x="63.623047" xlink:href="#DejaVuSans-2e"/>
       <use x="95.410156" xlink:href="#DejaVuSans-38"/>
       <use x="159.033203" xlink:href="#DejaVuSans-38"/>
      </g>
     </g>
    </g>
   </g>
   <g id="LineCollection_13">
    <path clip-path="url(#p2d1396dfe5)" d="M 361.152 307.584 
L 374.4576 307.584 
" style="fill:none;stroke:#000080;stroke-width:1.5;"/>
    <path clip-path="url(#p2d1396dfe5)" d="M 361.152 283.392 
L 374.4576 283.392 
" style="fill:none;stroke:#0000e8;stroke-width:1.5;"/>
    <path clip-path="url(#p2d1396dfe5)" d="M 361.152 259.2 
L 374.4576 259.2 
" style="fill:none;stroke:#0038ff;stroke-width:1.5;"/>
    <path clip-path="url(#p2d1396dfe5)" d="M 361.152 235.008 
L 374.4576 235.008 
" style="fill:none;stroke:#0094ff;stroke-width:1.5;"/>
    <path clip-path="url(#p2d1396dfe5)" d="M 361.152 210.816 
L 374.4576 210.816 
" style="fill:none;stroke:#0cf4eb;stroke-width:1.5;"/>
    <path clip-path="url(#p2d1396dfe5)" d="M 361.152 186.624 
L 374.4576 186.624 
" style="fill:none;stroke:#56ffa0;stroke-width:1.5;"/>
    <path clip-path="url(#p2d1396dfe5)" d="M 361.152 162.432 
L 374.4576 162.432 
" style="fill:none;stroke:#a0ff56;stroke-width:1.5;"/>
    <path clip-path="url(#p2d1396dfe5)" d="M 361.152 138.24 
L 374.4576 138.24 
" style="fill:none;stroke:#ebff0c;stroke-width:1.5;"/>
    <path clip-path="url(#p2d1396dfe5)" d="M 361.152 114.048 
L 374.4576 114.048 
" style="fill:none;stroke:#ffab00;stroke-width:1.5;"/>
    <path clip-path="url(#p2d1396dfe5)" d="M 361.152 89.856 
L 374.4576 89.856 
" style="fill:none;stroke:#ff5500;stroke-width:1.5;"/>
    <path clip-path="url(#p2d1396dfe5)" d="M 361.152 65.664 
L 374.4576 65.664 
" style="fill:none;stroke:#e80000;stroke-width:1.5;"/>
    <path clip-path="url(#p2d1396dfe5)" d="M 361.152 41.472 
L 374.4576 41.472 
" style="fill:none;stroke:#800000;stroke-width:1.5;"/>
   </g>
   <g id="patch_8">
    <path d="M 361.152 307.584 
L 361.152 283.392 
L 361.152 65.664 
L 361.152 41.472 
L 374.4576 41.472 
L 374.4576 65.664 
L 374.4576 283.392 
L 374.4576 307.584 
z
" style="fill:none;stroke:#000000;stroke-linejoin:miter;stroke-width:0.8;"/>
   </g>
  </g>
 </g>
 <defs>
  <clipPath id="p345d27b1e0">
   <rect height="237.902989" width="285.696" x="57.6" y="55.576506"/>
  </clipPath>
  <clipPath id="p2d1396dfe5">
   <rect height="266.112" width="13.3056" x="361.152" y="41.472"/>
  </clipPath>
 </defs>
</svg>
