<?xml version="1.0" encoding="utf-8" standalone="no"?>
<!DOCTYPE svg PUBLIC "-//W3C//DTD SVG 1.1//EN"
  "http://www.w3.org/Graphics/SVG/1.1/DTD/svg11.dtd">
<!-- Created with matplotlib (http://matplotlib.org/) -->
<svg height="345.6pt" version="1.1" viewBox="0 0 460.8 345.6" width="460.8pt" xmlns="http://www.w3.org/2000/svg" xmlns:xlink="http://www.w3.org/1999/xlink">
 <defs>
  <style type="text/css">
*{stroke-linecap:butt;stroke-linejoin:round;}
  </style>
 </defs>
 <g id="figure_1">
  <g id="patch_1">
   <path d="M 0 345.6 
L 460.8 345.6 
L 460.8 0 
L 0 0 
z
" style="fill:#ffffff;"/>
  </g>
  <g id="axes_1">
   <g id="patch_2">
    <path d="M 57.6 293.479494 
L 343.296 293.479494 
L 343.296 55.576506 
L 57.6 55.576506 
z
" style="fill:#ffffff;"/>
   </g>
   <g id="matplotlib.axis_1">
    <g id="xtick_1">
     <g id="line2d_1">
      <defs>
       <path d="M 0 0 
L 0 3.5 
" id="mb7c10d98e8" style="stroke:#000000;stroke-width:0.8;"/>
      </defs>
      <g>
       <use style="stroke:#000000;stroke-width:0.8;" x="104.861978" xlink:href="#mb7c10d98e8" y="293.479494"/>
      </g>
     </g>
     <g id="text_1">
      <!-- 0.2 -->
      <defs>
       <path d="M 31.78125 66.40625 
Q 24.171875 66.40625 20.328125 58.90625 
Q 16.5 51.421875 16.5 36.375 
Q 16.5 21.390625 20.328125 13.890625 
Q 24.171875 6.390625 31.78125 6.390625 
Q 39.453125 6.390625 43.28125 13.890625 
Q 47.125 21.390625 47.125 36.375 
Q 47.125 51.421875 43.28125 58.90625 
Q 39.453125 66.40625 31.78125 66.40625 
z
M 31.78125 74.21875 
Q 44.046875 74.21875 50.515625 64.515625 
Q 56.984375 54.828125 56.984375 36.375 
Q 56.984375 17.96875 50.515625 8.265625 
Q 44.046875 -1.421875 31.78125 -1.421875 
Q 19.53125 -1.421875 13.0625 8.265625 
Q 6.59375 17.96875 6.59375 36.375 
Q 6.59375 54.828125 13.0625 64.515625 
Q 19.53125 74.21875 31.78125 74.21875 
z
" id="DejaVuSans-30"/>
       <path d="M 10.6875 12.40625 
L 21 12.40625 
L 21 0 
L 10.6875 0 
z
" id="DejaVuSans-2e"/>
       <path d="M 19.1875 8.296875 
L 53.609375 8.296875 
L 53.609375 0 
L 7.328125 0 
L 7.328125 8.296875 
Q 12.9375 14.109375 22.625 23.890625 
Q 32.328125 33.6875 34.8125 36.53125 
Q 39.546875 41.84375 41.421875 45.53125 
Q 43.3125 49.21875 43.3125 52.78125 
Q 43.3125 58.59375 39.234375 62.25 
Q 35.15625 65.921875 28.609375 65.921875 
Q 23.96875 65.921875 18.8125 64.3125 
Q 13.671875 62.703125 7.8125 59.421875 
L 7.8125 69.390625 
Q 13.765625 71.78125 18.9375 73 
Q 24.125 74.21875 28.421875 74.21875 
Q 39.75 74.21875 46.484375 68.546875 
Q 53.21875 62.890625 53.21875 53.421875 
Q 53.21875 48.921875 51.53125 44.890625 
Q 49.859375 40.875 45.40625 35.40625 
Q 44.1875 33.984375 37.640625 27.21875 
Q 31.109375 20.453125 19.1875 8.296875 
z
" id="DejaVuSans-32"/>
      </defs>
      <g transform="translate(96.910415 308.077932)scale(0.1 -0.1)">
       <use xlink:href="#DejaVuSans-30"/>
       <use x="63.623047" xlink:href="#DejaVuSans-2e"/>
       <use x="95.410156" xlink:href="#DejaVuSans-32"/>
      </g>
     </g>
    </g>
    <g id="xtick_2">
     <g id="line2d_2">
      <g>
       <use style="stroke:#000000;stroke-width:0.8;" x="152.654989" xlink:href="#mb7c10d98e8" y="293.479494"/>
      </g>
     </g>
     <g id="text_2">
      <!-- 0.4 -->
      <defs>
       <path d="M 37.796875 64.3125 
L 12.890625 25.390625 
L 37.796875 25.390625 
z
M 35.203125 72.90625 
L 47.609375 72.90625 
L 47.609375 25.390625 
L 58.015625 25.390625 
L 58.015625 17.1875 
L 47.609375 17.1875 
L 47.609375 0 
L 37.796875 0 
L 37.796875 17.1875 
L 4.890625 17.1875 
L 4.890625 26.703125 
z
" id="DejaVuSans-34"/>
      </defs>
      <g transform="translate(144.703426 308.077932)scale(0.1 -0.1)">
       <use xlink:href="#DejaVuSans-30"/>
       <use x="63.623047" xlink:href="#DejaVuSans-2e"/>
       <use x="95.410156" xlink:href="#DejaVuSans-34"/>
      </g>
     </g>
    </g>
    <g id="xtick_3">
     <g id="line2d_3">
      <g>
       <use style="stroke:#000000;stroke-width:0.8;" x="200.448" xlink:href="#mb7c10d98e8" y="293.479494"/>
      </g>
     </g>
     <g id="text_3">
      <!-- 0.6 -->
      <defs>
       <path d="M 33.015625 40.375 
Q 26.375 40.375 22.484375 35.828125 
Q 18.609375 31.296875 18.609375 23.390625 
Q 18.609375 15.53125 22.484375 10.953125 
Q 26.375 6.390625 33.015625 6.390625 
Q 39.65625 6.390625 43.53125 10.953125 
Q 47.40625 15.53125 47.40625 23.390625 
Q 47.40625 31.296875 43.53125 35.828125 
Q 39.65625 40.375 33.015625 40.375 
z
M 52.59375 71.296875 
L 52.59375 62.3125 
Q 48.875 64.0625 45.09375 64.984375 
Q 41.3125 65.921875 37.59375 65.921875 
Q 27.828125 65.921875 22.671875 59.328125 
Q 17.53125 52.734375 16.796875 39.40625 
Q 19.671875 43.65625 24.015625 45.921875 
Q 28.375 48.1875 33.59375 48.1875 
Q 44.578125 48.1875 50.953125 41.515625 
Q 57.328125 34.859375 57.328125 23.390625 
Q 57.328125 12.15625 50.6875 5.359375 
Q 44.046875 -1.421875 33.015625 -1.421875 
Q 20.359375 -1.421875 13.671875 8.265625 
Q 6.984375 17.96875 6.984375 36.375 
Q 6.984375 53.65625 15.1875 63.9375 
Q 23.390625 74.21875 37.203125 74.21875 
Q 40.921875 74.21875 44.703125 73.484375 
Q 48.484375 72.75 52.59375 71.296875 
z
" id="DejaVuSans-36"/>
      </defs>
      <g transform="translate(192.496438 308.077932)scale(0.1 -0.1)">
       <use xlink:href="#DejaVuSans-30"/>
       <use x="63.623047" xlink:href="#DejaVuSans-2e"/>
       <use x="95.410156" xlink:href="#DejaVuSans-36"/>
      </g>
     </g>
    </g>
    <g id="xtick_4">
     <g id="line2d_4">
      <g>
       <use style="stroke:#000000;stroke-width:0.8;" x="248.241011" xlink:href="#mb7c10d98e8" y="293.479494"/>
      </g>
     </g>
     <g id="text_4">
      <!-- 0.8 -->
      <defs>
       <path d="M 31.78125 34.625 
Q 24.75 34.625 20.71875 30.859375 
Q 16.703125 27.09375 16.703125 20.515625 
Q 16.703125 13.921875 20.71875 10.15625 
Q 24.75 6.390625 31.78125 6.390625 
Q 38.8125 6.390625 42.859375 10.171875 
Q 46.921875 13.96875 46.921875 20.515625 
Q 46.921875 27.09375 42.890625 30.859375 
Q 38.875 34.625 31.78125 34.625 
z
M 21.921875 38.8125 
Q 15.578125 40.375 12.03125 44.71875 
Q 8.5 49.078125 8.5 55.328125 
Q 8.5 64.0625 14.71875 69.140625 
Q 20.953125 74.21875 31.78125 74.21875 
Q 42.671875 74.21875 48.875 69.140625 
Q 55.078125 64.0625 55.078125 55.328125 
Q 55.078125 49.078125 51.53125 44.71875 
Q 48 40.375 41.703125 38.8125 
Q 48.828125 37.15625 52.796875 32.3125 
Q 56.78125 27.484375 56.78125 20.515625 
Q 56.78125 9.90625 50.3125 4.234375 
Q 43.84375 -1.421875 31.78125 -1.421875 
Q 19.734375 -1.421875 13.25 4.234375 
Q 6.78125 9.90625 6.78125 20.515625 
Q 6.78125 27.484375 10.78125 32.3125 
Q 14.796875 37.15625 21.921875 38.8125 
z
M 18.3125 54.390625 
Q 18.3125 48.734375 21.84375 45.5625 
Q 25.390625 42.390625 31.78125 42.390625 
Q 38.140625 42.390625 41.71875 45.5625 
Q 45.3125 48.734375 45.3125 54.390625 
Q 45.3125 60.0625 41.71875 63.234375 
Q 38.140625 66.40625 31.78125 66.40625 
Q 25.390625 66.40625 21.84375 63.234375 
Q 18.3125 60.0625 18.3125 54.390625 
z
" id="DejaVuSans-38"/>
      </defs>
      <g transform="translate(240.289449 308.077932)scale(0.1 -0.1)">
       <use xlink:href="#DejaVuSans-30"/>
       <use x="63.623047" xlink:href="#DejaVuSans-2e"/>
       <use x="95.410156" xlink:href="#DejaVuSans-38"/>
      </g>
     </g>
    </g>
    <g id="xtick_5">
     <g id="line2d_5">
      <g>
       <use style="stroke:#000000;stroke-width:0.8;" x="296.034022" xlink:href="#mb7c10d98e8" y="293.479494"/>
      </g>
     </g>
     <g id="text_5">
      <!-- 1.0 -->
      <defs>
       <path d="M 12.40625 8.296875 
L 28.515625 8.296875 
L 28.515625 63.921875 
L 10.984375 60.40625 
L 10.984375 69.390625 
L 28.421875 72.90625 
L 38.28125 72.90625 
L 38.28125 8.296875 
L 54.390625 8.296875 
L 54.390625 0 
L 12.40625 0 
z
" id="DejaVuSans-31"/>
      </defs>
      <g transform="translate(288.08246 308.077932)scale(0.1 -0.1)">
       <use xlink:href="#DejaVuSans-31"/>
       <use x="63.623047" xlink:href="#DejaVuSans-2e"/>
       <use x="95.410156" xlink:href="#DejaVuSans-30"/>
      </g>
     </g>
    </g>
   </g>
   <g id="matplotlib.axis_2">
    <g id="ytick_1">
     <g id="line2d_6">
      <defs>
       <path d="M 0 0 
L -3.5 0 
" id="mb4a8dc567f" style="stroke:#000000;stroke-width:0.8;"/>
      </defs>
      <g>
       <use style="stroke:#000000;stroke-width:0.8;" x="57.6" xlink:href="#mb4a8dc567f" y="246.217517"/>
      </g>
     </g>
     <g id="text_6">
      <!-- 0.2 -->
      <g transform="translate(34.696875 250.016735)scale(0.1 -0.1)">
       <use xlink:href="#DejaVuSans-30"/>
       <use x="63.623047" xlink:href="#DejaVuSans-2e"/>
       <use x="95.410156" xlink:href="#DejaVuSans-32"/>
      </g>
     </g>
    </g>
    <g id="ytick_2">
     <g id="line2d_7">
      <g>
       <use style="stroke:#000000;stroke-width:0.8;" x="57.6" xlink:href="#mb4a8dc567f" y="198.424506"/>
      </g>
     </g>
     <g id="text_7">
      <!-- 0.4 -->
      <g transform="translate(34.696875 202.223724)scale(0.1 -0.1)">
       <use xlink:href="#DejaVuSans-30"/>
       <use x="63.623047" xlink:href="#DejaVuSans-2e"/>
       <use x="95.410156" xlink:href="#DejaVuSans-34"/>
      </g>
     </g>
    </g>
    <g id="ytick_3">
     <g id="line2d_8">
      <g>
       <use style="stroke:#000000;stroke-width:0.8;" x="57.6" xlink:href="#mb4a8dc567f" y="150.631494"/>
      </g>
     </g>
     <g id="text_8">
      <!-- 0.6 -->
      <g transform="translate(34.696875 154.430713)scale(0.1 -0.1)">
       <use xlink:href="#DejaVuSans-30"/>
       <use x="63.623047" xlink:href="#DejaVuSans-2e"/>
       <use x="95.410156" xlink:href="#DejaVuSans-36"/>
      </g>
     </g>
    </g>
    <g id="ytick_4">
     <g id="line2d_9">
      <g>
       <use style="stroke:#000000;stroke-width:0.8;" x="57.6" xlink:href="#mb4a8dc567f" y="102.838483"/>
      </g>
     </g>
     <g id="text_9">
      <!-- 0.8 -->
      <g transform="translate(34.696875 106.637702)scale(0.1 -0.1)">
       <use xlink:href="#DejaVuSans-30"/>
       <use x="63.623047" xlink:href="#DejaVuSans-2e"/>
       <use x="95.410156" xlink:href="#DejaVuSans-38"/>
      </g>
     </g>
    </g>
   </g>
   <g id="LineCollection_1">
    <path clip-path="url(#p4521476dd2)" d="M 117.190117 293.479494 
L 116.974199 292.417428 
L 116.63659 291.355361 
L 116.01368 290.198983 
L 114.951613 289.026655 
L 113.750569 288.16916 
L 111.765413 287.346591 
L 110.703346 287.030207 
L 107.517145 286.489301 
L 104.330944 286.208761 
L 99.02061 286.03281 
L 89.462007 285.812936 
L 85.21374 285.497175 
L 81.603131 284.982959 
L 78.841338 284.387523 
L 76.717204 283.724722 
L 74.593071 282.819352 
L 72.468937 281.551015 
L 71.40687 280.725003 
L 70.301155 279.672625 
L 69.282736 278.482515 
L 67.95461 276.486424 
L 66.876413 274.36229 
L 66.026535 272.238156 
L 65.034468 268.999127 
L 64.109788 264.803688 
L 63.438615 260.55542 
L 62.827047 255.245086 
L 62.235614 247.810617 
L 61.62547 237.189948 
L 60.786201 218.04128 
L 60.052294 195.769338 
L 59.404678 169.217665 
L 58.762305 133.10739 
L 58.175878 87.438513 
L 57.908847 55.576506 
L 57.908847 55.576506 
" style="fill:none;stroke:#000080;stroke-width:1.5;"/>
   </g>
   <g id="LineCollection_2">
    <path clip-path="url(#p4521476dd2)" d="M 286.01519 293.479494 
L 286.382595 291.355361 
L 286.964708 288.16916 
L 287.073303 286.045026 
L 286.983307 282.858825 
L 286.36664 276.486424 
L 285.259309 266.927822 
L 284.265889 259.493353 
L 283.426238 254.183019 
L 282.381166 248.872684 
L 281.275675 244.624416 
L 280.595752 242.500283 
L 279.571985 240.125674 
L 278.418526 238.252015 
L 277.447851 237.123902 
L 276.101911 236.127881 
L 275.323717 235.720262 
L 274.261651 235.36108 
L 272.137517 235.019283 
L 268.951316 234.95313 
L 246.647911 235.338538 
L 227.530706 235.574328 
L 214.785903 235.977205 
L 190.358364 236.8641 
L 183.985963 236.806398 
L 177.613561 236.523235 
L 171.24116 236.021946 
L 162.355288 235.065814 
L 147.875688 233.4658 
L 140.705826 232.94168 
L 135.130885 232.742567 
L 128.758483 232.761024 
L 122.386082 233.022413 
L 114.951613 233.583461 
L 109.641279 234.178255 
L 106.455078 234.707645 
L 104.330944 235.20084 
L 102.20681 235.890364 
L 101.144743 236.338136 
L 99.02061 237.535754 
L 97.958543 238.329981 
L 96.892556 239.314082 
L 95.834409 240.538361 
L 94.537166 242.500283 
L 93.510932 244.624416 
L 92.648208 247.198701 
L 92.261025 248.872684 
L 91.930138 250.996818 
L 91.687293 254.183019 
L 91.396797 259.493353 
L 90.959142 261.617487 
L 90.524074 262.786034 
L 90.021731 263.741621 
L 89.243319 264.803688 
L 88.103029 265.865755 
L 87.337874 266.364725 
L 86.228257 266.927822 
L 85.21374 267.239799 
L 84.151673 267.431713 
L 83.089606 267.487042 
L 82.027539 267.406767 
L 80.164525 266.927822 
L 79.903405 266.83727 
L 78.146572 265.865755 
L 77.779271 265.62403 
L 76.717204 264.741616 
L 75.655138 263.623022 
L 74.214403 261.617487 
L 73.024966 259.493353 
L 72.065532 257.369219 
L 70.915797 254.183019 
L 69.991822 250.996818 
L 68.994577 246.74855 
L 67.818119 240.376149 
L 66.72446 232.94168 
L 65.587105 223.383078 
L 64.563365 212.762409 
L 63.575183 200.017606 
L 62.596421 184.086602 
L 61.625635 163.907331 
L 60.671363 138.417725 
L 59.749692 106.555717 
L 58.725435 63.010974 
L 58.707403 57.700639 
L 58.754681 55.576506 
L 58.754681 55.576506 
" style="fill:none;stroke:#0000e8;stroke-width:1.5;"/>
   </g>
   <g id="LineCollection_3">
    <path clip-path="url(#p4521476dd2)" d="M 290.088947 293.479494 
L 290.494427 288.16916 
L 290.466482 284.982959 
L 290.1158 278.610558 
L 288.475104 255.245086 
L 287.417853 241.438216 
L 286.539943 231.879613 
L 285.450602 222.321011 
L 284.531289 215.94861 
L 283.55865 210.638275 
L 282.537348 206.390007 
L 281.498454 203.203807 
L 280.549112 201.079673 
L 279.571985 199.557147 
L 278.509918 198.518173 
L 277.203139 197.893472 
L 276.385784 197.717927 
L 275.323717 197.728403 
L 273.199584 198.160868 
L 266.827182 199.949851 
L 263.640981 200.487778 
L 260.454781 200.784699 
L 256.206513 200.946983 
L 247.709978 200.977628 
L 212.66177 201.006146 
L 185.04803 201.163169 
L 162.744625 201.544859 
L 135.130885 201.964215 
L 126.634349 201.953953 
L 121.324015 201.75305 
L 117.075747 201.407691 
L 111.765413 200.72393 
L 102.20681 199.331716 
L 99.02061 199.183814 
L 96.896476 199.311081 
L 94.772342 199.696134 
L 92.648208 200.417883 
L 90.524074 201.560826 
L 89.462007 202.314953 
L 87.337874 204.226227 
L 85.44236 206.390007 
L 83.821477 208.514141 
L 79.903405 213.879139 
L 78.841338 215.089366 
L 77.779271 216.049023 
L 76.717204 216.675429 
L 75.655138 216.883117 
L 74.593071 216.58799 
L 73.531004 215.70244 
L 72.32828 213.824476 
L 71.378056 211.700342 
L 70.072275 207.452074 
L 69.075747 203.203807 
L 67.919751 196.831405 
L 66.722944 188.33487 
L 65.654735 178.776268 
L 64.601894 167.093532 
L 63.521062 152.224595 
L 62.462393 134.169457 
L 61.411247 111.866052 
L 60.366826 84.252312 
L 59.557246 58.762706 
L 59.652275 55.576506 
L 59.652275 55.576506 
" style="fill:none;stroke:#0038ff;stroke-width:1.5;"/>
   </g>
   <g id="LineCollection_4">
    <path clip-path="url(#p4521476dd2)" d="M 292.336515 293.479494 
L 292.458588 284.982959 
L 292.125084 277.548491 
L 288.830472 217.010677 
L 287.631698 202.14174 
L 286.538866 191.521071 
L 285.579576 184.086602 
L 284.537227 177.714201 
L 283.385315 172.403866 
L 282.468076 169.217665 
L 281.692601 167.093532 
L 280.510981 164.969398 
L 279.571985 163.888168 
L 278.509918 163.274618 
L 277.447851 163.13589 
L 276.385784 163.353111 
L 275.182765 163.907331 
L 273.199584 165.183853 
L 270.013383 167.433867 
L 267.889249 168.710993 
L 265.765115 169.708479 
L 263.640981 170.428581 
L 261.516848 170.909498 
L 259.392714 171.199446 
L 256.206513 171.383898 
L 251.958245 171.370309 
L 234.965175 171.067529 
L 106.455078 170.7051 
L 96.896476 170.522072 
L 93.710275 170.701034 
L 91.586141 170.994352 
L 89.462007 171.490108 
L 87.337874 172.247063 
L 85.21374 173.31353 
L 83.089606 174.700474 
L 77.504442 178.776268 
L 76.717204 179.140869 
L 75.655138 179.340196 
L 74.593071 179.139927 
L 73.531004 178.422757 
L 72.264042 176.652134 
L 71.265526 174.528 
L 70.202649 171.341799 
L 68.933463 166.031465 
L 67.94959 160.72113 
L 66.723558 152.224595 
L 65.629008 142.665993 
L 64.546008 130.983257 
L 63.501879 117.176387 
L 62.452699 100.183316 
L 60.745458 67.259242 
L 60.50265 59.824773 
L 60.65556 55.576506 
L 60.65556 55.576506 
" style="fill:none;stroke:#0094ff;stroke-width:1.5;"/>
   </g>
   <g id="LineCollection_5">
    <path clip-path="url(#p4521476dd2)" d="M 294.036747 293.479494 
L 293.951997 281.796758 
L 292.860507 252.058885 
L 291.646755 222.321011 
L 290.621342 202.14174 
L 289.62275 186.210736 
L 288.639517 173.465933 
L 287.623327 162.845264 
L 286.602908 154.348729 
L 285.641036 147.976327 
L 284.616395 142.665993 
L 283.529104 138.417725 
L 282.394623 135.231524 
L 281.696119 133.710109 
L 280.444086 132.045323 
L 279.571985 131.359966 
L 278.509918 131.082415 
L 277.447851 131.261179 
L 276.066992 132.045323 
L 274.804299 133.10739 
L 273.199584 134.747349 
L 268.951316 139.374093 
L 266.827182 141.28042 
L 264.703048 142.765699 
L 262.578914 143.835387 
L 260.454781 144.537476 
L 258.330647 144.936225 
L 256.206513 145.099442 
L 253.020312 145.036336 
L 248.772045 144.645964 
L 241.337576 143.897486 
L 237.089309 143.667721 
L 231.778974 143.605696 
L 221.158305 143.805571 
L 209.475569 143.926697 
L 107.517145 143.90909 
L 93.710275 143.929488 
L 89.462007 144.203793 
L 86.275807 144.684312 
L 84.151673 145.192553 
L 80.965472 146.234827 
L 77.779271 147.296724 
L 76.717204 147.488474 
L 75.655138 147.489004 
L 74.593071 147.204718 
L 73.531004 146.524526 
L 72.468937 145.320466 
L 71.40687 143.45098 
L 70.281369 140.541859 
L 69.108912 136.293591 
L 67.824314 129.92119 
L 66.82361 123.548788 
L 65.642243 113.990186 
L 64.594258 103.369517 
L 63.489395 89.562647 
L 61.734562 64.073041 
L 61.625509 59.824773 
L 61.839306 55.576506 
L 61.839306 55.576506 
" style="fill:none;stroke:#0cf4eb;stroke-width:1.5;"/>
   </g>
   <g id="LineCollection_6">
    <path clip-path="url(#p4521476dd2)" d="M 295.560439 293.479494 
L 295.312809 276.486424 
L 294.207806 238.252015 
L 293.082729 206.390007 
L 291.988198 181.962468 
L 290.899544 162.845264 
L 289.817276 147.976327 
L 288.723465 136.293591 
L 287.704229 127.797056 
L 286.738117 121.424654 
L 285.71333 116.11432 
L 284.646901 111.866052 
L 283.581589 108.679851 
L 282.62785 106.555717 
L 281.696119 105.057545 
L 280.634052 103.994755 
L 279.571985 103.48461 
L 278.509918 103.445364 
L 277.447851 103.803084 
L 276.385784 104.489334 
L 275.270019 105.493651 
L 273.199584 107.852998 
L 267.484097 115.052253 
L 265.434094 117.176387 
L 263.640981 118.703999 
L 261.516848 120.066245 
L 259.392714 120.979042 
L 257.26858 121.49264 
L 255.144446 121.673714 
L 253.020312 121.591412 
L 250.896178 121.314989 
L 247.709978 120.675723 
L 239.213442 118.799662 
L 234.965175 118.184908 
L 230.716907 117.871985 
L 226.468639 117.809814 
L 220.096238 118.006787 
L 203.103167 118.711041 
L 190.358364 118.915667 
L 159.558424 119.085866 
L 113.889546 119.420529 
L 89.462007 119.744135 
L 85.21374 120.000538 
L 77.779271 120.671355 
L 76.717204 120.620178 
L 75.487719 120.362587 
L 74.593071 120.018553 
L 73.530729 119.30052 
L 72.468937 118.156448 
L 71.264177 116.11432 
L 70.342272 113.990186 
L 69.073669 109.741918 
L 67.914447 104.431584 
L 66.848634 98.059182 
L 65.737435 89.562647 
L 64.405951 76.817844 
L 63.339282 65.135108 
L 63.128953 60.88684 
L 63.208081 58.762706 
L 63.492258 55.576506 
L 63.492258 55.576506 
" style="fill:none;stroke:#56ffa0;stroke-width:1.5;"/>
   </g>
   <g id="LineCollection_7">
    <path clip-path="url(#p4521476dd2)" d="M 300.757471 293.479494 
L 300.65009 287.107093 
L 300.328839 280.734691 
L 299.723893 273.300223 
L 298.515186 261.617487 
L 296.461391 242.500283 
L 295.100811 207.452074 
L 294.09605 178.776268 
L 293.106776 156.472862 
L 292.079635 138.417725 
L 291.062403 124.610855 
L 289.939742 112.928119 
L 288.893593 104.431584 
L 287.704426 96.997115 
L 286.833664 92.748848 
L 285.684704 88.50058 
L 284.514584 85.314379 
L 283.479291 83.190245 
L 282.758186 81.976323 
L 281.696119 80.612832 
L 280.634052 79.591479 
L 279.571985 78.845737 
L 278.509918 78.348656 
L 277.447851 78.04564 
L 276.385784 77.92846 
L 275.323717 77.9906 
L 274.261651 78.225493 
L 272.583626 78.941978 
L 272.137517 79.204757 
L 271.04679 80.004045 
L 269.952731 81.066112 
L 268.344498 83.190245 
L 267.120854 85.314379 
L 263.310602 92.748848 
L 261.827131 94.872981 
L 260.454781 96.392107 
L 259.392714 97.319573 
L 258.330647 98.071477 
L 256.206513 99.133423 
L 254.082379 99.751216 
L 251.958245 100.058028 
L 249.834112 100.142068 
L 246.647911 99.999983 
L 242.399643 99.546009 
L 222.220372 97.054213 
L 215.84797 96.573276 
L 208.413502 96.246971 
L 199.916967 96.123436 
L 185.04803 96.195603 
L 168.054959 96.205862 
L 149.999822 95.96332 
L 105.393011 95.021779 
L 86.275807 94.73726 
L 79.903405 94.619997 
L 77.779271 94.389088 
L 76.717204 94.1577 
L 75.655138 93.795887 
L 74.593071 93.236456 
L 73.531004 92.402431 
L 72.468937 91.181094 
L 71.40687 89.434947 
L 70.153139 86.376446 
L 68.927718 82.128178 
L 67.984939 77.879911 
L 66.728092 70.445442 
L 66.024169 65.135108 
L 65.869037 61.948907 
L 65.955416 59.824773 
L 66.2546 57.700639 
L 66.418963 56.638572 
L 66.448965 55.576506 
L 66.448965 55.576506 
" style="fill:none;stroke:#a0ff56;stroke-width:1.5;"/>
   </g>
   <g id="LineCollection_8">
    <path clip-path="url(#p4521476dd2)" d="M 308.258839 293.479494 
L 308.11711 284.982959 
L 307.73515 276.486424 
L 307.0019 265.865755 
L 305.80308 252.058885 
L 304.107253 235.065814 
L 302.083108 217.010677 
L 300.086334 201.079673 
L 298.009857 186.210736 
L 296.501821 175.590067 
L 294.948286 144.790126 
L 294.050009 126.734989 
L 293.098933 111.866052 
L 292.046729 99.121249 
L 291.109616 90.624714 
L 290.192654 84.67149 
L 289.418824 81.066112 
L 288.848678 78.941978 
L 288.06852 76.580133 
L 287.006454 74.174104 
L 285.944387 72.381588 
L 284.88232 71.03084 
L 283.820253 69.993857 
L 282.758186 69.190535 
L 281.155494 68.321309 
L 279.571985 67.736671 
L 277.345325 67.259242 
L 275.323717 67.087177 
L 273.199584 67.109174 
L 271.07545 67.303057 
L 267.889249 67.87167 
L 264.703048 68.724011 
L 261.516848 69.823238 
L 257.26858 71.588098 
L 247.79113 75.755777 
L 246.647911 76.167911 
L 243.46171 77.093225 
L 241.337576 77.516299 
L 238.151375 77.865208 
L 234.965175 77.899556 
L 231.778974 77.675408 
L 227.530706 77.087191 
L 223.282439 76.279366 
L 215.84797 74.6421 
L 205.227301 72.269516 
L 186.110097 68.040334 
L 180.799762 66.513217 
L 178.675628 65.777166 
L 176.551494 64.938 
L 174.427361 63.920232 
L 172.303227 62.574687 
L 171.24116 61.693123 
L 170.179093 60.444447 
L 169.772897 59.824773 
L 169.347535 58.762706 
L 169.117026 57.111197 
L 169.159488 55.576506 
L 169.159488 55.576506 
" style="fill:none;stroke:#ebff0c;stroke-width:1.5;"/>
   </g>
   <g id="LineCollection_9">
    <path clip-path="url(#p4521476dd2)" d="M 315.96113 293.479494 
L 315.838645 283.920892 
L 315.465696 273.300223 
L 314.771113 260.55542 
L 313.665349 244.624416 
L 312.109522 225.507212 
L 310.329471 206.390007 
L 308.531804 189.396937 
L 306.752963 174.528 
L 304.883535 160.72113 
L 302.937457 148.077081 
L 301.26111 138.417725 
L 299.400868 128.859123 
L 297.5425 120.362587 
L 296.552875 116.11432 
L 293.52661 81.066112 
L 292.850236 76.817844 
L 292.169704 73.631643 
L 291.218412 70.445442 
L 290.192654 68.075999 
L 289.031708 66.197175 
L 288.06852 65.035303 
L 287.006454 64.031837 
L 284.88232 62.542259 
L 282.758186 61.442999 
L 277.447851 59.067364 
L 276.849659 58.762706 
L 275.597764 57.700639 
L 275.088026 56.638572 
L 275.080425 55.576506 
L 275.080425 55.576506 
" style="fill:none;stroke:#ffab00;stroke-width:1.5;"/>
   </g>
   <g id="LineCollection_10">
    <path clip-path="url(#p4521476dd2)" d="M 323.810966 293.479494 
L 323.693542 281.796758 
L 323.312401 267.989888 
L 322.638223 252.058885 
L 321.548161 231.879613 
L 320.116102 209.576208 
L 318.604473 189.396937 
L 317.031055 171.341799 
L 315.52823 156.472862 
L 313.911787 142.665993 
L 312.328406 130.983257 
L 310.670252 120.362587 
L 308.95429 110.803985 
L 307.185725 102.220842 
L 305.45111 94.872981 
L 303.725334 88.50058 
L 301.87539 82.613634 
L 300.548319 78.941978 
L 298.770781 74.69371 
L 297.627123 72.340328 
L 296.565056 70.41088 
L 295.818946 67.259242 
L 295.300082 65.135108 
L 294.440922 61.708494 
L 292.592696 55.576506 
L 292.592696 55.576506 
" style="fill:none;stroke:#ff5500;stroke-width:1.5;"/>
   </g>
   <g id="LineCollection_11">
    <path clip-path="url(#p4521476dd2)" d="M 331.761679 293.479494 
L 331.636878 277.548491 
L 331.239719 257.369219 
L 330.551197 234.672761 
L 329.48913 207.017215 
L 328.316337 181.962468 
L 327.10728 160.72113 
L 325.858162 142.665993 
L 324.616538 127.797056 
L 323.349958 115.052253 
L 321.981013 103.369517 
L 320.384707 91.686781 
L 317.778816 74.69371 
L 316.744327 67.185335 
L 316.229804 61.948907 
L 316.02061 57.700639 
L 315.999056 55.576506 
L 315.999056 55.576506 
" style="fill:none;stroke:#e80000;stroke-width:1.5;"/>
   </g>
   <g id="LineCollection_12">
    <path clip-path="url(#p4521476dd2)" d="M 339.773748 293.479494 
L 339.684156 272.238156 
L 339.402177 235.065814 
L 338.762877 188.33487 
L 338.065703 152.224595 
L 337.322725 124.610855 
L 336.479811 101.245383 
L 335.023834 66.197175 
L 334.89026 56.638572 
L 334.889525 55.576506 
L 334.889525 55.576506 
" style="fill:none;stroke:#800000;stroke-width:1.5;"/>
   </g>
   <g id="patch_3">
    <path d="M 57.6 293.479494 
L 57.6 55.576506 
" style="fill:none;stroke:#000000;stroke-linecap:square;stroke-linejoin:miter;stroke-width:0.8;"/>
   </g>
   <g id="patch_4">
    <path d="M 343.296 293.479494 
L 343.296 55.576506 
" style="fill:none;stroke:#000000;stroke-linecap:square;stroke-linejoin:miter;stroke-width:0.8;"/>
   </g>
   <g id="patch_5">
    <path d="M 57.6 293.479494 
L 343.296 293.479494 
" style="fill:none;stroke:#000000;stroke-linecap:square;stroke-linejoin:miter;stroke-width:0.8;"/>
   </g>
   <g id="patch_6">
    <path d="M 57.6 55.576506 
L 343.296 55.576506 
" style="fill:none;stroke:#000000;stroke-linecap:square;stroke-linejoin:miter;stroke-width:0.8;"/>
   </g>
   <g id="text_10">
    <!-- Time:0.13169 s -->
    <defs>
     <path d="M -0.296875 72.90625 
L 61.375 72.90625 
L 61.375 64.59375 
L 35.5 64.59375 
L 35.5 0 
L 25.59375 0 
L 25.59375 64.59375 
L -0.296875 64.59375 
z
" id="DejaVuSans-54"/>
     <path d="M 9.421875 54.6875 
L 18.40625 54.6875 
L 18.40625 0 
L 9.421875 0 
z
M 9.421875 75.984375 
L 18.40625 75.984375 
L 18.40625 64.59375 
L 9.421875 64.59375 
z
" id="DejaVuSans-69"/>
     <path d="M 52 44.1875 
Q 55.375 50.25 60.0625 53.125 
Q 64.75 56 71.09375 56 
Q 79.640625 56 84.28125 50.015625 
Q 88.921875 44.046875 88.921875 33.015625 
L 88.921875 0 
L 79.890625 0 
L 79.890625 32.71875 
Q 79.890625 40.578125 77.09375 44.375 
Q 74.3125 48.1875 68.609375 48.1875 
Q 61.625 48.1875 57.5625 43.546875 
Q 53.515625 38.921875 53.515625 30.90625 
L 53.515625 0 
L 44.484375 0 
L 44.484375 32.71875 
Q 44.484375 40.625 41.703125 44.40625 
Q 38.921875 48.1875 33.109375 48.1875 
Q 26.21875 48.1875 22.15625 43.53125 
Q 18.109375 38.875 18.109375 30.90625 
L 18.109375 0 
L 9.078125 0 
L 9.078125 54.6875 
L 18.109375 54.6875 
L 18.109375 46.1875 
Q 21.1875 51.21875 25.484375 53.609375 
Q 29.78125 56 35.6875 56 
Q 41.65625 56 45.828125 52.96875 
Q 50 49.953125 52 44.1875 
z
" id="DejaVuSans-6d"/>
     <path d="M 56.203125 29.59375 
L 56.203125 25.203125 
L 14.890625 25.203125 
Q 15.484375 15.921875 20.484375 11.0625 
Q 25.484375 6.203125 34.421875 6.203125 
Q 39.59375 6.203125 44.453125 7.46875 
Q 49.3125 8.734375 54.109375 11.28125 
L 54.109375 2.78125 
Q 49.265625 0.734375 44.1875 -0.34375 
Q 39.109375 -1.421875 33.890625 -1.421875 
Q 20.796875 -1.421875 13.15625 6.1875 
Q 5.515625 13.8125 5.515625 26.8125 
Q 5.515625 40.234375 12.765625 48.109375 
Q 20.015625 56 32.328125 56 
Q 43.359375 56 49.78125 48.890625 
Q 56.203125 41.796875 56.203125 29.59375 
z
M 47.21875 32.234375 
Q 47.125 39.59375 43.09375 43.984375 
Q 39.0625 48.390625 32.421875 48.390625 
Q 24.90625 48.390625 20.390625 44.140625 
Q 15.875 39.890625 15.1875 32.171875 
z
" id="DejaVuSans-65"/>
     <path d="M 11.71875 12.40625 
L 22.015625 12.40625 
L 22.015625 0 
L 11.71875 0 
z
M 11.71875 51.703125 
L 22.015625 51.703125 
L 22.015625 39.3125 
L 11.71875 39.3125 
z
" id="DejaVuSans-3a"/>
     <path d="M 40.578125 39.3125 
Q 47.65625 37.796875 51.625 33 
Q 55.609375 28.21875 55.609375 21.1875 
Q 55.609375 10.40625 48.1875 4.484375 
Q 40.765625 -1.421875 27.09375 -1.421875 
Q 22.515625 -1.421875 17.65625 -0.515625 
Q 12.796875 0.390625 7.625 2.203125 
L 7.625 11.71875 
Q 11.71875 9.328125 16.59375 8.109375 
Q 21.484375 6.890625 26.8125 6.890625 
Q 36.078125 6.890625 40.9375 10.546875 
Q 45.796875 14.203125 45.796875 21.1875 
Q 45.796875 27.640625 41.28125 31.265625 
Q 36.765625 34.90625 28.71875 34.90625 
L 20.21875 34.90625 
L 20.21875 43.015625 
L 29.109375 43.015625 
Q 36.375 43.015625 40.234375 45.921875 
Q 44.09375 48.828125 44.09375 54.296875 
Q 44.09375 59.90625 40.109375 62.90625 
Q 36.140625 65.921875 28.71875 65.921875 
Q 24.65625 65.921875 20.015625 65.03125 
Q 15.375 64.15625 9.8125 62.3125 
L 9.8125 71.09375 
Q 15.4375 72.65625 20.34375 73.4375 
Q 25.25 74.21875 29.59375 74.21875 
Q 40.828125 74.21875 47.359375 69.109375 
Q 53.90625 64.015625 53.90625 55.328125 
Q 53.90625 49.265625 50.4375 45.09375 
Q 46.96875 40.921875 40.578125 39.3125 
z
" id="DejaVuSans-33"/>
     <path d="M 10.984375 1.515625 
L 10.984375 10.5 
Q 14.703125 8.734375 18.5 7.8125 
Q 22.3125 6.890625 25.984375 6.890625 
Q 35.75 6.890625 40.890625 13.453125 
Q 46.046875 20.015625 46.78125 33.40625 
Q 43.953125 29.203125 39.59375 26.953125 
Q 35.25 24.703125 29.984375 24.703125 
Q 19.046875 24.703125 12.671875 31.3125 
Q 6.296875 37.9375 6.296875 49.421875 
Q 6.296875 60.640625 12.9375 67.421875 
Q 19.578125 74.21875 30.609375 74.21875 
Q 43.265625 74.21875 49.921875 64.515625 
Q 56.59375 54.828125 56.59375 36.375 
Q 56.59375 19.140625 48.40625 8.859375 
Q 40.234375 -1.421875 26.421875 -1.421875 
Q 22.703125 -1.421875 18.890625 -0.6875 
Q 15.09375 0.046875 10.984375 1.515625 
z
M 30.609375 32.421875 
Q 37.25 32.421875 41.125 36.953125 
Q 45.015625 41.5 45.015625 49.421875 
Q 45.015625 57.28125 41.125 61.84375 
Q 37.25 66.40625 30.609375 66.40625 
Q 23.96875 66.40625 20.09375 61.84375 
Q 16.21875 57.28125 16.21875 49.421875 
Q 16.21875 41.5 20.09375 36.953125 
Q 23.96875 32.421875 30.609375 32.421875 
z
" id="DejaVuSans-39"/>
     <path id="DejaVuSans-20"/>
     <path d="M 44.28125 53.078125 
L 44.28125 44.578125 
Q 40.484375 46.53125 36.375 47.5 
Q 32.28125 48.484375 27.875 48.484375 
Q 21.1875 48.484375 17.84375 46.4375 
Q 14.5 44.390625 14.5 40.28125 
Q 14.5 37.15625 16.890625 35.375 
Q 19.28125 33.59375 26.515625 31.984375 
L 29.59375 31.296875 
Q 39.15625 29.25 43.1875 25.515625 
Q 47.21875 21.78125 47.21875 15.09375 
Q 47.21875 7.46875 41.1875 3.015625 
Q 35.15625 -1.421875 24.609375 -1.421875 
Q 20.21875 -1.421875 15.453125 -0.5625 
Q 10.6875 0.296875 5.421875 2 
L 5.421875 11.28125 
Q 10.40625 8.6875 15.234375 7.390625 
Q 20.0625 6.109375 24.8125 6.109375 
Q 31.15625 6.109375 34.5625 8.28125 
Q 37.984375 10.453125 37.984375 14.40625 
Q 37.984375 18.0625 35.515625 20.015625 
Q 33.0625 21.96875 24.703125 23.78125 
L 21.578125 24.515625 
Q 13.234375 26.265625 9.515625 29.90625 
Q 5.8125 33.546875 5.8125 39.890625 
Q 5.8125 47.609375 11.28125 51.796875 
Q 16.75 56 26.8125 56 
Q 31.78125 56 36.171875 55.265625 
Q 40.578125 54.546875 44.28125 53.078125 
z
" id="DejaVuSans-73"/>
    </defs>
    <g transform="translate(153.717375 49.576506)scale(0.12 -0.12)">
     <use xlink:href="#DejaVuSans-54"/>
     <use x="61.037109" xlink:href="#DejaVuSans-69"/>
     <use x="88.820312" xlink:href="#DejaVuSans-6d"/>
     <use x="186.232422" xlink:href="#DejaVuSans-65"/>
     <use x="247.755859" xlink:href="#DejaVuSans-3a"/>
     <use x="281.447266" xlink:href="#DejaVuSans-30"/>
     <use x="345.070312" xlink:href="#DejaVuSans-2e"/>
     <use x="376.857422" xlink:href="#DejaVuSans-31"/>
     <use x="440.480469" xlink:href="#DejaVuSans-33"/>
     <use x="504.103516" xlink:href="#DejaVuSans-31"/>
     <use x="567.726562" xlink:href="#DejaVuSans-36"/>
     <use x="631.349609" xlink:href="#DejaVuSans-39"/>
     <use x="694.972656" xlink:href="#DejaVuSans-20"/>
     <use x="726.759766" xlink:href="#DejaVuSans-73"/>
    </g>
   </g>
  </g>
  <g id="axes_2">
   <g id="patch_7">
    <path clip-path="url(#p4d45e10aeb)" d="M 361.152 307.584 
L 361.152 283.392 
L 361.152 65.664 
L 361.152 41.472 
L 374.4576 41.472 
L 374.4576 65.664 
L 374.4576 283.392 
L 374.4576 307.584 
z
" style="fill:#ffffff;stroke:#ffffff;stroke-linejoin:miter;stroke-width:0.01;"/>
   </g>
   <g id="matplotlib.axis_3"/>
   <g id="matplotlib.axis_4">
    <g id="ytick_5">
     <g id="line2d_10">
      <defs>
       <path d="M 0 0 
L 3.5 0 
" id="m91d4723886" style="stroke:#000000;stroke-width:0.8;"/>
      </defs>
      <g>
       <use style="stroke:#000000;stroke-width:0.8;" x="374.4576" xlink:href="#m91d4723886" y="307.584"/>
      </g>
     </g>
     <g id="text_11">
      <!-- 0.08 -->
      <g transform="translate(381.4576 311.383219)scale(0.1 -0.1)">
       <use xlink:href="#DejaVuSans-30"/>
       <use x="63.623047" xlink:href="#DejaVuSans-2e"/>
       <use x="95.410156" xlink:href="#DejaVuSans-30"/>
       <use x="159.033203" xlink:href="#DejaVuSans-38"/>
      </g>
     </g>
    </g>
    <g id="ytick_6">
     <g id="line2d_11">
      <g>
       <use style="stroke:#000000;stroke-width:0.8;" x="374.4576" xlink:href="#m91d4723886" y="259.2"/>
      </g>
     </g>
     <g id="text_12">
      <!-- 0.24 -->
      <g transform="translate(381.4576 262.999219)scale(0.1 -0.1)">
       <use xlink:href="#DejaVuSans-30"/>
       <use x="63.623047" xlink:href="#DejaVuSans-2e"/>
       <use x="95.410156" xlink:href="#DejaVuSans-32"/>
       <use x="159.033203" xlink:href="#DejaVuSans-34"/>
      </g>
     </g>
    </g>
    <g id="ytick_7">
     <g id="line2d_12">
      <g>
       <use style="stroke:#000000;stroke-width:0.8;" x="374.4576" xlink:href="#m91d4723886" y="210.816"/>
      </g>
     </g>
     <g id="text_13">
      <!-- 0.40 -->
      <g transform="translate(381.4576 214.615219)scale(0.1 -0.1)">
       <use xlink:href="#DejaVuSans-30"/>
       <use x="63.623047" xlink:href="#DejaVuSans-2e"/>
       <use x="95.410156" xlink:href="#DejaVuSans-34"/>
       <use x="159.033203" xlink:href="#DejaVuSans-30"/>
      </g>
     </g>
    </g>
    <g id="ytick_8">
     <g id="line2d_13">
      <g>
       <use style="stroke:#000000;stroke-width:0.8;" x="374.4576" xlink:href="#m91d4723886" y="162.432"/>
      </g>
     </g>
     <g id="text_14">
      <!-- 0.56 -->
      <defs>
       <path d="M 10.796875 72.90625 
L 49.515625 72.90625 
L 49.515625 64.59375 
L 19.828125 64.59375 
L 19.828125 46.734375 
Q 21.96875 47.46875 24.109375 47.828125 
Q 26.265625 48.1875 28.421875 48.1875 
Q 40.625 48.1875 47.75 41.5 
Q 54.890625 34.8125 54.890625 23.390625 
Q 54.890625 11.625 47.5625 5.09375 
Q 40.234375 -1.421875 26.90625 -1.421875 
Q 22.3125 -1.421875 17.546875 -0.640625 
Q 12.796875 0.140625 7.71875 1.703125 
L 7.71875 11.625 
Q 12.109375 9.234375 16.796875 8.0625 
Q 21.484375 6.890625 26.703125 6.890625 
Q 35.15625 6.890625 40.078125 11.328125 
Q 45.015625 15.765625 45.015625 23.390625 
Q 45.015625 31 40.078125 35.4375 
Q 35.15625 39.890625 26.703125 39.890625 
Q 22.75 39.890625 18.8125 39.015625 
Q 14.890625 38.140625 10.796875 36.28125 
z
" id="DejaVuSans-35"/>
      </defs>
      <g transform="translate(381.4576 166.231219)scale(0.1 -0.1)">
       <use xlink:href="#DejaVuSans-30"/>
       <use x="63.623047" xlink:href="#DejaVuSans-2e"/>
       <use x="95.410156" xlink:href="#DejaVuSans-35"/>
       <use x="159.033203" xlink:href="#DejaVuSans-36"/>
      </g>
     </g>
    </g>
    <g id="ytick_9">
     <g id="line2d_14">
      <g>
       <use style="stroke:#000000;stroke-width:0.8;" x="374.4576" xlink:href="#m91d4723886" y="114.048"/>
      </g>
     </g>
     <g id="text_15">
      <!-- 0.72 -->
      <defs>
       <path d="M 8.203125 72.90625 
L 55.078125 72.90625 
L 55.078125 68.703125 
L 28.609375 0 
L 18.3125 0 
L 43.21875 64.59375 
L 8.203125 64.59375 
z
" id="DejaVuSans-37"/>
      </defs>
      <g transform="translate(381.4576 117.847219)scale(0.1 -0.1)">
       <use xlink:href="#DejaVuSans-30"/>
       <use x="63.623047" xlink:href="#DejaVuSans-2e"/>
       <use x="95.410156" xlink:href="#DejaVuSans-37"/>
       <use x="159.033203" xlink:href="#DejaVuSans-32"/>
      </g>
     </g>
    </g>
    <g id="ytick_10">
     <g id="line2d_15">
      <g>
       <use style="stroke:#000000;stroke-width:0.8;" x="374.4576" xlink:href="#m91d4723886" y="65.664"/>
      </g>
     </g>
     <g id="text_16">
      <!-- 0.88 -->
      <g transform="translate(381.4576 69.463219)scale(0.1 -0.1)">
       <use xlink:href="#DejaVuSans-30"/>
       <use x="63.623047" xlink:href="#DejaVuSans-2e"/>
       <use x="95.410156" xlink:href="#DejaVuSans-38"/>
       <use x="159.033203" xlink:href="#DejaVuSans-38"/>
      </g>
     </g>
    </g>
   </g>
   <g id="LineCollection_13">
    <path clip-path="url(#p4d45e10aeb)" d="M 361.152 307.584 
L 374.4576 307.584 
" style="fill:none;stroke:#000080;stroke-width:1.5;"/>
    <path clip-path="url(#p4d45e10aeb)" d="M 361.152 283.392 
L 374.4576 283.392 
" style="fill:none;stroke:#0000e8;stroke-width:1.5;"/>
    <path clip-path="url(#p4d45e10aeb)" d="M 361.152 259.2 
L 374.4576 259.2 
" style="fill:none;stroke:#0038ff;stroke-width:1.5;"/>
    <path clip-path="url(#p4d45e10aeb)" d="M 361.152 235.008 
L 374.4576 235.008 
" style="fill:none;stroke:#0094ff;stroke-width:1.5;"/>
    <path clip-path="url(#p4d45e10aeb)" d="M 361.152 210.816 
L 374.4576 210.816 
" style="fill:none;stroke:#0cf4eb;stroke-width:1.5;"/>
    <path clip-path="url(#p4d45e10aeb)" d="M 361.152 186.624 
L 374.4576 186.624 
" style="fill:none;stroke:#56ffa0;stroke-width:1.5;"/>
    <path clip-path="url(#p4d45e10aeb)" d="M 361.152 162.432 
L 374.4576 162.432 
" style="fill:none;stroke:#a0ff56;stroke-width:1.5;"/>
    <path clip-path="url(#p4d45e10aeb)" d="M 361.152 138.24 
L 374.4576 138.24 
" style="fill:none;stroke:#ebff0c;stroke-width:1.5;"/>
    <path clip-path="url(#p4d45e10aeb)" d="M 361.152 114.048 
L 374.4576 114.048 
" style="fill:none;stroke:#ffab00;stroke-width:1.5;"/>
    <path clip-path="url(#p4d45e10aeb)" d="M 361.152 89.856 
L 374.4576 89.856 
" style="fill:none;stroke:#ff5500;stroke-width:1.5;"/>
    <path clip-path="url(#p4d45e10aeb)" d="M 361.152 65.664 
L 374.4576 65.664 
" style="fill:none;stroke:#e80000;stroke-width:1.5;"/>
    <path clip-path="url(#p4d45e10aeb)" d="M 361.152 41.472 
L 374.4576 41.472 
" style="fill:none;stroke:#800000;stroke-width:1.5;"/>
   </g>
   <g id="patch_8">
    <path d="M 361.152 307.584 
L 361.152 283.392 
L 361.152 65.664 
L 361.152 41.472 
L 374.4576 41.472 
L 374.4576 65.664 
L 374.4576 283.392 
L 374.4576 307.584 
z
" style="fill:none;stroke:#000000;stroke-linejoin:miter;stroke-width:0.8;"/>
   </g>
  </g>
 </g>
 <defs>
  <clipPath id="p4521476dd2">
   <rect height="237.902989" width="285.696" x="57.6" y="55.576506"/>
  </clipPath>
  <clipPath id="p4d45e10aeb">
   <rect height="266.112" width="13.3056" x="361.152" y="41.472"/>
  </clipPath>
 </defs>
</svg>
