<?xml version="1.0" encoding="utf-8" standalone="no"?>
<!DOCTYPE svg PUBLIC "-//W3C//DTD SVG 1.1//EN"
  "http://www.w3.org/Graphics/SVG/1.1/DTD/svg11.dtd">
<!-- Created with matplotlib (http://matplotlib.org/) -->
<svg height="345.6pt" version="1.1" viewBox="0 0 460.8 345.6" width="460.8pt" xmlns="http://www.w3.org/2000/svg" xmlns:xlink="http://www.w3.org/1999/xlink">
 <defs>
  <style type="text/css">
*{stroke-linecap:butt;stroke-linejoin:round;}
  </style>
 </defs>
 <g id="figure_1">
  <g id="patch_1">
   <path d="M 0 345.6 
L 460.8 345.6 
L 460.8 0 
L 0 0 
z
" style="fill:#ffffff;"/>
  </g>
  <g id="axes_1">
   <g id="patch_2">
    <path d="M 57.6 293.479494 
L 343.296 293.479494 
L 343.296 55.576506 
L 57.6 55.576506 
z
" style="fill:#ffffff;"/>
   </g>
   <g id="matplotlib.axis_1">
    <g id="xtick_1">
     <g id="line2d_1">
      <defs>
       <path d="M 0 0 
L 0 3.5 
" id="m4cf191089b" style="stroke:#000000;stroke-width:0.8;"/>
      </defs>
      <g>
       <use style="stroke:#000000;stroke-width:0.8;" x="104.861978" xlink:href="#m4cf191089b" y="293.479494"/>
      </g>
     </g>
     <g id="text_1">
      <!-- 0.2 -->
      <defs>
       <path d="M 31.78125 66.40625 
Q 24.171875 66.40625 20.328125 58.90625 
Q 16.5 51.421875 16.5 36.375 
Q 16.5 21.390625 20.328125 13.890625 
Q 24.171875 6.390625 31.78125 6.390625 
Q 39.453125 6.390625 43.28125 13.890625 
Q 47.125 21.390625 47.125 36.375 
Q 47.125 51.421875 43.28125 58.90625 
Q 39.453125 66.40625 31.78125 66.40625 
z
M 31.78125 74.21875 
Q 44.046875 74.21875 50.515625 64.515625 
Q 56.984375 54.828125 56.984375 36.375 
Q 56.984375 17.96875 50.515625 8.265625 
Q 44.046875 -1.421875 31.78125 -1.421875 
Q 19.53125 -1.421875 13.0625 8.265625 
Q 6.59375 17.96875 6.59375 36.375 
Q 6.59375 54.828125 13.0625 64.515625 
Q 19.53125 74.21875 31.78125 74.21875 
z
" id="DejaVuSans-30"/>
       <path d="M 10.6875 12.40625 
L 21 12.40625 
L 21 0 
L 10.6875 0 
z
" id="DejaVuSans-2e"/>
       <path d="M 19.1875 8.296875 
L 53.609375 8.296875 
L 53.609375 0 
L 7.328125 0 
L 7.328125 8.296875 
Q 12.9375 14.109375 22.625 23.890625 
Q 32.328125 33.6875 34.8125 36.53125 
Q 39.546875 41.84375 41.421875 45.53125 
Q 43.3125 49.21875 43.3125 52.78125 
Q 43.3125 58.59375 39.234375 62.25 
Q 35.15625 65.921875 28.609375 65.921875 
Q 23.96875 65.921875 18.8125 64.3125 
Q 13.671875 62.703125 7.8125 59.421875 
L 7.8125 69.390625 
Q 13.765625 71.78125 18.9375 73 
Q 24.125 74.21875 28.421875 74.21875 
Q 39.75 74.21875 46.484375 68.546875 
Q 53.21875 62.890625 53.21875 53.421875 
Q 53.21875 48.921875 51.53125 44.890625 
Q 49.859375 40.875 45.40625 35.40625 
Q 44.1875 33.984375 37.640625 27.21875 
Q 31.109375 20.453125 19.1875 8.296875 
z
" id="DejaVuSans-32"/>
      </defs>
      <g transform="translate(96.910415 308.077932)scale(0.1 -0.1)">
       <use xlink:href="#DejaVuSans-30"/>
       <use x="63.623047" xlink:href="#DejaVuSans-2e"/>
       <use x="95.410156" xlink:href="#DejaVuSans-32"/>
      </g>
     </g>
    </g>
    <g id="xtick_2">
     <g id="line2d_2">
      <g>
       <use style="stroke:#000000;stroke-width:0.8;" x="152.654989" xlink:href="#m4cf191089b" y="293.479494"/>
      </g>
     </g>
     <g id="text_2">
      <!-- 0.4 -->
      <defs>
       <path d="M 37.796875 64.3125 
L 12.890625 25.390625 
L 37.796875 25.390625 
z
M 35.203125 72.90625 
L 47.609375 72.90625 
L 47.609375 25.390625 
L 58.015625 25.390625 
L 58.015625 17.1875 
L 47.609375 17.1875 
L 47.609375 0 
L 37.796875 0 
L 37.796875 17.1875 
L 4.890625 17.1875 
L 4.890625 26.703125 
z
" id="DejaVuSans-34"/>
      </defs>
      <g transform="translate(144.703426 308.077932)scale(0.1 -0.1)">
       <use xlink:href="#DejaVuSans-30"/>
       <use x="63.623047" xlink:href="#DejaVuSans-2e"/>
       <use x="95.410156" xlink:href="#DejaVuSans-34"/>
      </g>
     </g>
    </g>
    <g id="xtick_3">
     <g id="line2d_3">
      <g>
       <use style="stroke:#000000;stroke-width:0.8;" x="200.448" xlink:href="#m4cf191089b" y="293.479494"/>
      </g>
     </g>
     <g id="text_3">
      <!-- 0.6 -->
      <defs>
       <path d="M 33.015625 40.375 
Q 26.375 40.375 22.484375 35.828125 
Q 18.609375 31.296875 18.609375 23.390625 
Q 18.609375 15.53125 22.484375 10.953125 
Q 26.375 6.390625 33.015625 6.390625 
Q 39.65625 6.390625 43.53125 10.953125 
Q 47.40625 15.53125 47.40625 23.390625 
Q 47.40625 31.296875 43.53125 35.828125 
Q 39.65625 40.375 33.015625 40.375 
z
M 52.59375 71.296875 
L 52.59375 62.3125 
Q 48.875 64.0625 45.09375 64.984375 
Q 41.3125 65.921875 37.59375 65.921875 
Q 27.828125 65.921875 22.671875 59.328125 
Q 17.53125 52.734375 16.796875 39.40625 
Q 19.671875 43.65625 24.015625 45.921875 
Q 28.375 48.1875 33.59375 48.1875 
Q 44.578125 48.1875 50.953125 41.515625 
Q 57.328125 34.859375 57.328125 23.390625 
Q 57.328125 12.15625 50.6875 5.359375 
Q 44.046875 -1.421875 33.015625 -1.421875 
Q 20.359375 -1.421875 13.671875 8.265625 
Q 6.984375 17.96875 6.984375 36.375 
Q 6.984375 53.65625 15.1875 63.9375 
Q 23.390625 74.21875 37.203125 74.21875 
Q 40.921875 74.21875 44.703125 73.484375 
Q 48.484375 72.75 52.59375 71.296875 
z
" id="DejaVuSans-36"/>
      </defs>
      <g transform="translate(192.496438 308.077932)scale(0.1 -0.1)">
       <use xlink:href="#DejaVuSans-30"/>
       <use x="63.623047" xlink:href="#DejaVuSans-2e"/>
       <use x="95.410156" xlink:href="#DejaVuSans-36"/>
      </g>
     </g>
    </g>
    <g id="xtick_4">
     <g id="line2d_4">
      <g>
       <use style="stroke:#000000;stroke-width:0.8;" x="248.241011" xlink:href="#m4cf191089b" y="293.479494"/>
      </g>
     </g>
     <g id="text_4">
      <!-- 0.8 -->
      <defs>
       <path d="M 31.78125 34.625 
Q 24.75 34.625 20.71875 30.859375 
Q 16.703125 27.09375 16.703125 20.515625 
Q 16.703125 13.921875 20.71875 10.15625 
Q 24.75 6.390625 31.78125 6.390625 
Q 38.8125 6.390625 42.859375 10.171875 
Q 46.921875 13.96875 46.921875 20.515625 
Q 46.921875 27.09375 42.890625 30.859375 
Q 38.875 34.625 31.78125 34.625 
z
M 21.921875 38.8125 
Q 15.578125 40.375 12.03125 44.71875 
Q 8.5 49.078125 8.5 55.328125 
Q 8.5 64.0625 14.71875 69.140625 
Q 20.953125 74.21875 31.78125 74.21875 
Q 42.671875 74.21875 48.875 69.140625 
Q 55.078125 64.0625 55.078125 55.328125 
Q 55.078125 49.078125 51.53125 44.71875 
Q 48 40.375 41.703125 38.8125 
Q 48.828125 37.15625 52.796875 32.3125 
Q 56.78125 27.484375 56.78125 20.515625 
Q 56.78125 9.90625 50.3125 4.234375 
Q 43.84375 -1.421875 31.78125 -1.421875 
Q 19.734375 -1.421875 13.25 4.234375 
Q 6.78125 9.90625 6.78125 20.515625 
Q 6.78125 27.484375 10.78125 32.3125 
Q 14.796875 37.15625 21.921875 38.8125 
z
M 18.3125 54.390625 
Q 18.3125 48.734375 21.84375 45.5625 
Q 25.390625 42.390625 31.78125 42.390625 
Q 38.140625 42.390625 41.71875 45.5625 
Q 45.3125 48.734375 45.3125 54.390625 
Q 45.3125 60.0625 41.71875 63.234375 
Q 38.140625 66.40625 31.78125 66.40625 
Q 25.390625 66.40625 21.84375 63.234375 
Q 18.3125 60.0625 18.3125 54.390625 
z
" id="DejaVuSans-38"/>
      </defs>
      <g transform="translate(240.289449 308.077932)scale(0.1 -0.1)">
       <use xlink:href="#DejaVuSans-30"/>
       <use x="63.623047" xlink:href="#DejaVuSans-2e"/>
       <use x="95.410156" xlink:href="#DejaVuSans-38"/>
      </g>
     </g>
    </g>
    <g id="xtick_5">
     <g id="line2d_5">
      <g>
       <use style="stroke:#000000;stroke-width:0.8;" x="296.034022" xlink:href="#m4cf191089b" y="293.479494"/>
      </g>
     </g>
     <g id="text_5">
      <!-- 1.0 -->
      <defs>
       <path d="M 12.40625 8.296875 
L 28.515625 8.296875 
L 28.515625 63.921875 
L 10.984375 60.40625 
L 10.984375 69.390625 
L 28.421875 72.90625 
L 38.28125 72.90625 
L 38.28125 8.296875 
L 54.390625 8.296875 
L 54.390625 0 
L 12.40625 0 
z
" id="DejaVuSans-31"/>
      </defs>
      <g transform="translate(288.08246 308.077932)scale(0.1 -0.1)">
       <use xlink:href="#DejaVuSans-31"/>
       <use x="63.623047" xlink:href="#DejaVuSans-2e"/>
       <use x="95.410156" xlink:href="#DejaVuSans-30"/>
      </g>
     </g>
    </g>
   </g>
   <g id="matplotlib.axis_2">
    <g id="ytick_1">
     <g id="line2d_6">
      <defs>
       <path d="M 0 0 
L -3.5 0 
" id="m5e367ca977" style="stroke:#000000;stroke-width:0.8;"/>
      </defs>
      <g>
       <use style="stroke:#000000;stroke-width:0.8;" x="57.6" xlink:href="#m5e367ca977" y="246.217517"/>
      </g>
     </g>
     <g id="text_6">
      <!-- 0.2 -->
      <g transform="translate(34.696875 250.016735)scale(0.1 -0.1)">
       <use xlink:href="#DejaVuSans-30"/>
       <use x="63.623047" xlink:href="#DejaVuSans-2e"/>
       <use x="95.410156" xlink:href="#DejaVuSans-32"/>
      </g>
     </g>
    </g>
    <g id="ytick_2">
     <g id="line2d_7">
      <g>
       <use style="stroke:#000000;stroke-width:0.8;" x="57.6" xlink:href="#m5e367ca977" y="198.424506"/>
      </g>
     </g>
     <g id="text_7">
      <!-- 0.4 -->
      <g transform="translate(34.696875 202.223724)scale(0.1 -0.1)">
       <use xlink:href="#DejaVuSans-30"/>
       <use x="63.623047" xlink:href="#DejaVuSans-2e"/>
       <use x="95.410156" xlink:href="#DejaVuSans-34"/>
      </g>
     </g>
    </g>
    <g id="ytick_3">
     <g id="line2d_8">
      <g>
       <use style="stroke:#000000;stroke-width:0.8;" x="57.6" xlink:href="#m5e367ca977" y="150.631494"/>
      </g>
     </g>
     <g id="text_8">
      <!-- 0.6 -->
      <g transform="translate(34.696875 154.430713)scale(0.1 -0.1)">
       <use xlink:href="#DejaVuSans-30"/>
       <use x="63.623047" xlink:href="#DejaVuSans-2e"/>
       <use x="95.410156" xlink:href="#DejaVuSans-36"/>
      </g>
     </g>
    </g>
    <g id="ytick_4">
     <g id="line2d_9">
      <g>
       <use style="stroke:#000000;stroke-width:0.8;" x="57.6" xlink:href="#m5e367ca977" y="102.838483"/>
      </g>
     </g>
     <g id="text_9">
      <!-- 0.8 -->
      <g transform="translate(34.696875 106.637702)scale(0.1 -0.1)">
       <use xlink:href="#DejaVuSans-30"/>
       <use x="63.623047" xlink:href="#DejaVuSans-2e"/>
       <use x="95.410156" xlink:href="#DejaVuSans-38"/>
      </g>
     </g>
    </g>
   </g>
   <g id="LineCollection_1">
    <path clip-path="url(#pa5dd3e219c)" d="M 129.02476 293.479494 
L 128.690573 291.355361 
L 128.372119 290.293294 
L 127.696416 288.914146 
L 127.2125 288.16916 
L 126.220979 287.107093 
L 124.510216 285.92644 
L 122.292443 284.982959 
L 120.261948 284.494664 
L 118.137814 284.172184 
L 114.951613 283.961823 
L 110.703346 284.010274 
L 103.268877 284.453459 
L 95.834409 284.857115 
L 90.524074 284.9407 
L 86.275807 284.78825 
L 83.089606 284.475393 
L 79.903405 283.907222 
L 77.779271 283.338445 
L 75.655138 282.542536 
L 73.531004 281.427278 
L 72.468937 280.70501 
L 71.239057 279.672625 
L 70.208776 278.610558 
L 68.632221 276.486424 
L 67.457464 274.36229 
L 66.544719 272.238156 
L 65.809395 270.114022 
L 64.943137 266.927822 
L 64.096326 262.679554 
L 63.480678 258.431286 
L 62.810489 252.058885 
L 62.192387 243.562349 
L 61.498624 230.817546 
L 60.641859 210.638275 
L 59.909294 187.272803 
L 59.27416 159.659063 
L 58.630073 121.424654 
L 57.92947 64.073041 
L 57.933578 55.576506 
L 57.933578 55.576506 
" style="fill:none;stroke:#000080;stroke-width:1.5;"/>
   </g>
   <g id="LineCollection_2">
    <path clip-path="url(#pa5dd3e219c)" d="M 286.500728 293.479494 
L 286.893663 291.355361 
L 287.262839 289.231227 
L 287.439689 287.107093 
L 287.412424 283.920892 
L 287.006454 278.39875 
L 284.504875 257.369219 
L 283.326588 249.934751 
L 282.485388 245.686483 
L 281.390087 241.438216 
L 280.26754 238.252015 
L 279.234777 236.127881 
L 278.509918 234.958776 
L 277.447851 233.763879 
L 276.361074 232.94168 
L 275.323717 232.427755 
L 274.261651 232.097623 
L 272.137517 231.806475 
L 268.951316 231.79412 
L 254.082379 232.191727 
L 215.84797 232.650589 
L 202.0411 233.181615 
L 188.23423 233.674091 
L 180.799762 233.707614 
L 174.427361 233.526478 
L 166.992892 233.069786 
L 157.43429 232.219843 
L 144.689487 231.092177 
L 137.255019 230.669689 
L 129.82055 230.495065 
L 120.261948 230.545048 
L 107.517145 230.828468 
L 104.330944 231.122802 
L 102.20681 231.500972 
L 100.082677 232.122172 
L 97.958543 233.102506 
L 96.586305 234.003747 
L 95.316664 235.065814 
L 94.282799 236.127881 
L 93.407413 237.189948 
L 91.988273 239.314082 
L 90.864652 241.438216 
L 89.953183 243.562349 
L 89.200963 245.686483 
L 88.310729 248.872684 
L 87.337874 253.593745 
L 86.525729 257.369219 
L 86.202906 258.431286 
L 85.774669 259.493353 
L 85.204349 260.55542 
L 84.151673 261.776129 
L 83.089606 262.479368 
L 82.027539 262.836382 
L 80.965472 262.922498 
L 79.600589 262.679554 
L 78.841338 262.418517 
L 77.500856 261.617487 
L 76.273139 260.55542 
L 75.323308 259.493353 
L 74.521305 258.431286 
L 73.290167 256.307152 
L 72.29634 254.183019 
L 71.122891 250.996818 
L 69.905495 246.74855 
L 68.931405 242.500283 
L 67.761392 236.127881 
L 66.662829 228.693413 
L 65.635761 220.196877 
L 64.592903 209.576208 
L 63.592618 196.831405 
L 62.604012 180.900401 
L 61.623655 160.72113 
L 60.660421 135.231524 
L 59.734253 103.369517 
L 58.757653 61.948907 
L 58.784139 56.638572 
L 58.807392 55.576506 
L 58.807392 55.576506 
" style="fill:none;stroke:#0000e8;stroke-width:1.5;"/>
   </g>
   <g id="LineCollection_3">
    <path clip-path="url(#pa5dd3e219c)" d="M 290.293876 293.479494 
L 290.679967 287.107093 
L 290.543021 282.858825 
L 289.912838 273.300223 
L 286.841432 231.879613 
L 285.562508 220.196877 
L 284.504632 212.762409 
L 283.536173 207.452074 
L 282.524964 203.203807 
L 281.503638 200.017606 
L 280.581165 197.893472 
L 279.571985 196.29049 
L 278.509918 195.233184 
L 277.447851 194.655297 
L 276.385784 194.429862 
L 275.323717 194.451493 
L 273.199584 194.921032 
L 266.827182 196.835059 
L 263.640981 197.412233 
L 260.454781 197.731063 
L 256.206513 197.904294 
L 247.709978 197.930713 
L 213.723836 197.92706 
L 177.613561 198.047828 
L 144.689487 198.47845 
L 125.572283 198.670502 
L 120.261948 198.474407 
L 116.01368 198.129409 
L 110.703346 197.461983 
L 102.20681 196.313954 
L 99.02061 196.167978 
L 96.896476 196.279943 
L 94.772342 196.632733 
L 92.648208 197.302917 
L 90.524074 198.371481 
L 89.462007 199.079687 
L 87.337874 200.884963 
L 86.137317 202.14174 
L 84.151673 204.5433 
L 78.841338 211.367687 
L 77.779271 212.312242 
L 76.717204 212.930574 
L 75.655138 213.138387 
L 74.487794 212.762409 
L 73.341325 211.700342 
L 72.468937 210.431335 
L 71.188738 207.452074 
L 70.185307 204.265874 
L 68.947971 198.955539 
L 67.809993 192.583138 
L 66.757906 185.148669 
L 65.673625 175.590067 
L 64.60678 163.907331 
L 63.513086 149.038394 
L 62.444562 130.983257 
L 61.434137 109.741918 
L 60.379693 82.128178 
L 59.632953 58.762706 
L 59.731253 55.576506 
L 59.731253 55.576506 
" style="fill:none;stroke:#0038ff;stroke-width:1.5;"/>
   </g>
   <g id="LineCollection_4">
    <path clip-path="url(#pa5dd3e219c)" d="M 292.460667 293.479494 
L 292.573243 284.982959 
L 292.197283 276.486424 
L 290.735706 246.74855 
L 289.510446 224.445145 
L 288.576643 210.638275 
L 287.521349 197.893472 
L 286.538449 188.33487 
L 285.593657 180.900401 
L 284.571843 174.528 
L 283.449353 169.217665 
L 282.57067 166.031465 
L 281.696119 163.601523 
L 280.634052 161.591953 
L 279.571985 160.357069 
L 278.509918 159.742575 
L 277.238729 159.659063 
L 276.385784 159.846599 
L 274.714969 160.72113 
L 273.170127 161.783197 
L 268.951316 164.81635 
L 266.789881 166.031465 
L 264.703048 166.916482 
L 262.578914 167.545946 
L 260.454781 167.948418 
L 257.26858 168.240205 
L 253.020312 168.284394 
L 230.716907 167.937443 
L 197.792833 167.877534 
L 120.261948 167.727119 
L 108.579212 167.652234 
L 95.834409 167.481732 
L 92.648208 167.735071 
L 90.278916 168.155599 
L 88.399941 168.676053 
L 86.275807 169.526809 
L 84.151673 170.683191 
L 81.644573 172.403866 
L 78.726437 174.528 
L 77.779271 175.105683 
L 76.568561 175.590067 
L 75.655138 175.744706 
L 74.593071 175.536123 
L 73.531004 174.82429 
L 72.459644 173.465933 
L 71.390618 171.341799 
L 70.281768 168.155599 
L 68.976864 162.845264 
L 67.80066 156.472862 
L 66.722827 149.038394 
L 65.613797 139.479792 
L 64.610779 128.859123 
L 63.546539 115.052253 
L 62.485731 98.059182 
L 60.709806 64.073041 
L 60.613372 59.824773 
L 60.770538 55.576506 
L 60.770538 55.576506 
" style="fill:none;stroke:#0094ff;stroke-width:1.5;"/>
   </g>
   <g id="LineCollection_5">
    <path clip-path="url(#pa5dd3e219c)" d="M 294.13666 293.479494 
L 294.012495 280.734691 
L 292.4891 239.314082 
L 291.488956 215.94861 
L 290.553376 197.893472 
L 289.548873 181.962468 
L 288.557312 169.217665 
L 287.528254 158.596996 
L 286.488677 150.100461 
L 285.499192 143.728059 
L 284.434045 138.417725 
L 283.624307 135.231524 
L 282.53426 132.045323 
L 281.495194 129.92119 
L 280.634052 128.694173 
L 279.345445 127.797056 
L 278.509918 127.581691 
L 277.387325 127.797056 
L 276.385784 128.315942 
L 275.323717 129.144159 
L 273.199584 131.327369 
L 268.764815 136.293591 
L 266.827182 138.096146 
L 264.703048 139.653727 
L 262.578914 140.78107 
L 260.454781 141.524365 
L 258.330647 141.949651 
L 256.206513 142.124561 
L 253.020312 142.056391 
L 248.587811 141.603926 
L 241.337576 140.77557 
L 237.089309 140.498088 
L 231.778974 140.407638 
L 223.282439 140.578945 
L 210.537636 140.803266 
L 193.544565 140.797717 
L 157.43429 140.815868 
L 90.524074 141.073172 
L 87.337874 141.427084 
L 84.151673 142.074252 
L 80.965472 143.036645 
L 77.779271 144.013318 
L 76.717204 144.183655 
L 75.655138 144.170267 
L 74.349602 143.728059 
L 73.531004 143.211341 
L 72.222277 141.603926 
L 71.117577 139.479792 
L 70.283395 137.355658 
L 69.093737 133.10739 
L 67.980161 127.797056 
L 66.792738 120.362587 
L 65.727029 111.866052 
L 64.661423 101.245383 
L 63.46834 86.376446 
L 61.842871 63.010974 
L 61.787824 59.824773 
L 61.978793 56.638572 
L 62.045044 55.576506 
L 62.045044 55.576506 
" style="fill:none;stroke:#0cf4eb;stroke-width:1.5;"/>
   </g>
   <g id="LineCollection_6">
    <path clip-path="url(#pa5dd3e219c)" d="M 295.691334 293.479494 
L 295.497263 280.734691 
L 294.838102 256.307152 
L 293.6343 218.072743 
L 292.635357 192.583138 
L 291.657276 172.403866 
L 290.698974 156.472862 
L 289.745037 143.728059 
L 288.746429 133.10739 
L 287.732367 124.610855 
L 286.583049 117.176387 
L 285.514069 111.866052 
L 284.716551 108.679851 
L 283.686414 105.493651 
L 282.758186 103.312407 
L 281.378258 101.245383 
L 280.634052 100.48046 
L 279.571985 99.942238 
L 278.509918 99.883584 
L 277.447851 100.239154 
L 276.058429 101.245383 
L 274.984785 102.30745 
L 273.199584 104.456319 
L 267.531882 111.866052 
L 265.546971 113.990186 
L 263.640981 115.65779 
L 261.516848 117.051067 
L 259.392714 117.987177 
L 257.26858 118.517739 
L 255.144446 118.70978 
L 253.020312 118.635421 
L 250.173361 118.238454 
L 247.709978 117.74099 
L 239.213442 115.910896 
L 234.965175 115.291465 
L 230.716907 114.934644 
L 226.468639 114.80458 
L 221.158305 114.860847 
L 210.537636 115.262647 
L 196.730766 115.708913 
L 180.799762 115.972298 
L 153.186022 116.152523 
L 112.82748 116.477952 
L 89.462007 116.834628 
L 83.966096 117.176387 
L 77.779271 117.628298 
L 76.717204 117.553152 
L 75.256874 117.176387 
L 74.593071 116.907506 
L 73.477168 116.11432 
L 72.468937 115.015563 
L 71.24884 112.928119 
L 70.333371 110.803985 
L 69.070554 106.555717 
L 67.917379 101.245383 
L 66.857885 94.872981 
L 65.633607 85.314379 
L 64.304143 72.569576 
L 63.62886 65.135108 
L 63.444291 60.88684 
L 63.530712 58.762706 
L 63.80193 55.576506 
L 63.80193 55.576506 
" style="fill:none;stroke:#56ffa0;stroke-width:1.5;"/>
   </g>
   <g id="LineCollection_7">
    <path clip-path="url(#pa5dd3e219c)" d="M 301.114001 293.479494 
L 301.005876 287.107093 
L 300.68704 280.734691 
L 300.088651 273.300223 
L 298.887778 261.617487 
L 296.903594 244.624416 
L 296.546951 241.438216 
L 295.06508 203.203807 
L 294.0577 174.528 
L 293.062948 152.224595 
L 292.023701 134.169457 
L 290.987851 120.362587 
L 289.846915 108.679851 
L 288.781234 100.183316 
L 287.746853 93.810914 
L 286.855384 89.562647 
L 285.642489 85.314379 
L 284.864336 83.190245 
L 283.820253 80.999942 
L 282.469177 78.941978 
L 281.563144 77.879911 
L 280.33908 76.817844 
L 279.571985 76.301707 
L 278.475543 75.755777 
L 277.447851 75.43021 
L 276.385784 75.238824 
L 275.323717 75.183664 
L 274.261651 75.256541 
L 272.125959 75.755777 
L 269.918286 76.817844 
L 268.433754 77.879911 
L 266.827182 79.42434 
L 265.502946 81.066112 
L 264.165607 83.190245 
L 262.529285 86.376446 
L 260.887117 89.562647 
L 259.530497 91.686781 
L 258.330647 93.128486 
L 257.26858 94.129983 
L 256.206513 94.928803 
L 254.082379 96.050096 
L 251.958245 96.727496 
L 249.834112 97.109155 
L 247.709978 97.282594 
L 244.523777 97.293996 
L 240.275509 97.035087 
L 233.903108 96.366763 
L 213.723836 94.046236 
L 206.289368 93.491315 
L 198.8549 93.172084 
L 190.358364 93.033619 
L 151.061888 92.715362 
L 129.82055 92.103582 
L 79.903405 90.398301 
L 77.779271 90.10069 
L 75.997654 89.562647 
L 75.655138 89.431083 
L 74.197258 88.50058 
L 73.531004 87.943178 
L 72.303411 86.376446 
L 71.165903 84.252312 
L 70.29608 82.128178 
L 69.075727 77.879911 
L 67.949884 72.569576 
L 66.962822 66.197175 
L 66.729657 63.010974 
L 66.761074 60.88684 
L 67.158602 57.738086 
L 67.338793 56.638572 
L 67.349643 55.576506 
L 67.349643 55.576506 
" style="fill:none;stroke:#a0ff56;stroke-width:1.5;"/>
   </g>
   <g id="LineCollection_8">
    <path clip-path="url(#pa5dd3e219c)" d="M 308.567239 293.479494 
L 308.425697 284.982959 
L 308.045335 276.486424 
L 307.315189 265.865755 
L 306.122281 252.058885 
L 304.332729 234.003747 
L 302.331621 215.94861 
L 300.231291 198.955539 
L 298.183732 184.086602 
L 296.512003 172.403866 
L 294.914188 140.541859 
L 294.005013 122.486721 
L 293.042754 107.617784 
L 292.069424 95.935048 
L 291.236137 88.50058 
L 290.39307 83.190245 
L 289.711396 80.004045 
L 288.817589 76.817844 
L 288.040987 74.69371 
L 287.006454 72.557372 
L 285.557786 70.445442 
L 284.571014 69.383375 
L 283.263707 68.321309 
L 281.696119 67.400754 
L 280.634052 66.950435 
L 278.509918 66.329717 
L 276.385784 65.992546 
L 274.261651 65.862335 
L 271.07545 65.960479 
L 267.889249 66.340005 
L 264.703048 66.944007 
L 260.454781 68.032766 
L 255.144446 69.691051 
L 248.772045 71.712868 
L 245.494746 72.569576 
L 242.399643 73.165819 
L 239.213442 73.52707 
L 236.027242 73.608532 
L 232.841041 73.413394 
L 229.65484 72.977778 
L 226.468639 72.343382 
L 222.220372 71.242608 
L 216.316282 69.383375 
L 209.475569 66.785733 
L 205.796927 65.135108 
L 203.103167 63.606245 
L 202.0411 62.907658 
L 200.832246 61.948907 
L 199.801252 60.88684 
L 198.8549 59.41392 
L 198.544625 58.762706 
L 198.234643 57.700639 
L 197.98062 55.576506 
L 197.98062 55.576506 
" style="fill:none;stroke:#ebff0c;stroke-width:1.5;"/>
   </g>
   <g id="LineCollection_9">
    <path clip-path="url(#pa5dd3e219c)" d="M 316.21596 293.479494 
L 316.093641 283.920892 
L 315.719966 273.300223 
L 315.024183 260.55542 
L 313.843426 243.562349 
L 312.207494 223.383078 
L 310.371926 203.535232 
L 308.553334 186.210736 
L 306.65419 170.279732 
L 304.780486 156.472862 
L 302.937457 144.510073 
L 301.137551 134.169457 
L 299.261276 124.610855 
L 297.384326 116.11432 
L 296.496081 111.866052 
L 293.714637 80.004045 
L 293.039652 75.755777 
L 292.316788 72.433138 
L 291.367701 69.383375 
L 290.930837 68.321309 
L 289.801898 66.197175 
L 289.054433 65.135108 
L 288.06852 64.021179 
L 286.933575 63.010974 
L 284.88232 61.594067 
L 279.571985 58.734598 
L 278.260465 57.700639 
L 277.5825 56.638572 
L 277.401512 55.576506 
L 277.401512 55.576506 
" style="fill:none;stroke:#ffab00;stroke-width:1.5;"/>
   </g>
   <g id="LineCollection_10">
    <path clip-path="url(#pa5dd3e219c)" d="M 324.008411 293.479494 
L 323.89132 281.796758 
L 323.54242 269.051955 
L 322.872824 253.120952 
L 321.742975 231.879613 
L 320.344144 209.576208 
L 318.794547 188.33487 
L 317.26451 170.279732 
L 315.68226 154.25619 
L 314.105585 140.541859 
L 312.496059 128.45104 
L 310.932887 118.238454 
L 309.254813 108.679851 
L 307.540792 100.183316 
L 305.815274 92.748848 
L 303.999524 86.000963 
L 302.463922 81.066112 
L 300.813323 76.476658 
L 299.165687 72.569576 
L 297.57207 69.383375 
L 296.474361 67.259242 
L 293.640376 55.576506 
L 293.640376 55.576506 
" style="fill:none;stroke:#ff5500;stroke-width:1.5;"/>
   </g>
   <g id="LineCollection_11">
    <path clip-path="url(#pa5dd3e219c)" d="M 331.898344 293.479494 
L 331.777993 277.548491 
L 331.406359 259.493353 
L 330.640183 234.003747 
L 329.60472 206.390007 
L 328.392562 179.838335 
L 327.213209 158.596996 
L 325.983998 140.541859 
L 324.677448 124.610855 
L 323.32309 110.803985 
L 321.962478 99.121249 
L 320.235566 86.376446 
L 317.591561 67.259242 
L 317.111397 61.948907 
L 316.92027 57.700639 
L 316.900609 55.576506 
L 316.900609 55.576506 
" style="fill:none;stroke:#e80000;stroke-width:1.5;"/>
   </g>
   <g id="LineCollection_12">
    <path clip-path="url(#pa5dd3e219c)" d="M 339.844642 293.479494 
L 339.729233 265.865755 
L 339.085789 206.390007 
L 338.332686 159.659063 
L 337.743065 135.231524 
L 336.758872 102.30745 
L 335.310579 60.88684 
L 335.272456 55.576506 
L 335.272456 55.576506 
" style="fill:none;stroke:#800000;stroke-width:1.5;"/>
   </g>
   <g id="patch_3">
    <path d="M 57.6 293.479494 
L 57.6 55.576506 
" style="fill:none;stroke:#000000;stroke-linecap:square;stroke-linejoin:miter;stroke-width:0.8;"/>
   </g>
   <g id="patch_4">
    <path d="M 343.296 293.479494 
L 343.296 55.576506 
" style="fill:none;stroke:#000000;stroke-linecap:square;stroke-linejoin:miter;stroke-width:0.8;"/>
   </g>
   <g id="patch_5">
    <path d="M 57.6 293.479494 
L 343.296 293.479494 
" style="fill:none;stroke:#000000;stroke-linecap:square;stroke-linejoin:miter;stroke-width:0.8;"/>
   </g>
   <g id="patch_6">
    <path d="M 57.6 55.576506 
L 343.296 55.576506 
" style="fill:none;stroke:#000000;stroke-linecap:square;stroke-linejoin:miter;stroke-width:0.8;"/>
   </g>
   <g id="text_10">
    <!-- Time:0.08889 s -->
    <defs>
     <path d="M -0.296875 72.90625 
L 61.375 72.90625 
L 61.375 64.59375 
L 35.5 64.59375 
L 35.5 0 
L 25.59375 0 
L 25.59375 64.59375 
L -0.296875 64.59375 
z
" id="DejaVuSans-54"/>
     <path d="M 9.421875 54.6875 
L 18.40625 54.6875 
L 18.40625 0 
L 9.421875 0 
z
M 9.421875 75.984375 
L 18.40625 75.984375 
L 18.40625 64.59375 
L 9.421875 64.59375 
z
" id="DejaVuSans-69"/>
     <path d="M 52 44.1875 
Q 55.375 50.25 60.0625 53.125 
Q 64.75 56 71.09375 56 
Q 79.640625 56 84.28125 50.015625 
Q 88.921875 44.046875 88.921875 33.015625 
L 88.921875 0 
L 79.890625 0 
L 79.890625 32.71875 
Q 79.890625 40.578125 77.09375 44.375 
Q 74.3125 48.1875 68.609375 48.1875 
Q 61.625 48.1875 57.5625 43.546875 
Q 53.515625 38.921875 53.515625 30.90625 
L 53.515625 0 
L 44.484375 0 
L 44.484375 32.71875 
Q 44.484375 40.625 41.703125 44.40625 
Q 38.921875 48.1875 33.109375 48.1875 
Q 26.21875 48.1875 22.15625 43.53125 
Q 18.109375 38.875 18.109375 30.90625 
L 18.109375 0 
L 9.078125 0 
L 9.078125 54.6875 
L 18.109375 54.6875 
L 18.109375 46.1875 
Q 21.1875 51.21875 25.484375 53.609375 
Q 29.78125 56 35.6875 56 
Q 41.65625 56 45.828125 52.96875 
Q 50 49.953125 52 44.1875 
z
" id="DejaVuSans-6d"/>
     <path d="M 56.203125 29.59375 
L 56.203125 25.203125 
L 14.890625 25.203125 
Q 15.484375 15.921875 20.484375 11.0625 
Q 25.484375 6.203125 34.421875 6.203125 
Q 39.59375 6.203125 44.453125 7.46875 
Q 49.3125 8.734375 54.109375 11.28125 
L 54.109375 2.78125 
Q 49.265625 0.734375 44.1875 -0.34375 
Q 39.109375 -1.421875 33.890625 -1.421875 
Q 20.796875 -1.421875 13.15625 6.1875 
Q 5.515625 13.8125 5.515625 26.8125 
Q 5.515625 40.234375 12.765625 48.109375 
Q 20.015625 56 32.328125 56 
Q 43.359375 56 49.78125 48.890625 
Q 56.203125 41.796875 56.203125 29.59375 
z
M 47.21875 32.234375 
Q 47.125 39.59375 43.09375 43.984375 
Q 39.0625 48.390625 32.421875 48.390625 
Q 24.90625 48.390625 20.390625 44.140625 
Q 15.875 39.890625 15.1875 32.171875 
z
" id="DejaVuSans-65"/>
     <path d="M 11.71875 12.40625 
L 22.015625 12.40625 
L 22.015625 0 
L 11.71875 0 
z
M 11.71875 51.703125 
L 22.015625 51.703125 
L 22.015625 39.3125 
L 11.71875 39.3125 
z
" id="DejaVuSans-3a"/>
     <path d="M 10.984375 1.515625 
L 10.984375 10.5 
Q 14.703125 8.734375 18.5 7.8125 
Q 22.3125 6.890625 25.984375 6.890625 
Q 35.75 6.890625 40.890625 13.453125 
Q 46.046875 20.015625 46.78125 33.40625 
Q 43.953125 29.203125 39.59375 26.953125 
Q 35.25 24.703125 29.984375 24.703125 
Q 19.046875 24.703125 12.671875 31.3125 
Q 6.296875 37.9375 6.296875 49.421875 
Q 6.296875 60.640625 12.9375 67.421875 
Q 19.578125 74.21875 30.609375 74.21875 
Q 43.265625 74.21875 49.921875 64.515625 
Q 56.59375 54.828125 56.59375 36.375 
Q 56.59375 19.140625 48.40625 8.859375 
Q 40.234375 -1.421875 26.421875 -1.421875 
Q 22.703125 -1.421875 18.890625 -0.6875 
Q 15.09375 0.046875 10.984375 1.515625 
z
M 30.609375 32.421875 
Q 37.25 32.421875 41.125 36.953125 
Q 45.015625 41.5 45.015625 49.421875 
Q 45.015625 57.28125 41.125 61.84375 
Q 37.25 66.40625 30.609375 66.40625 
Q 23.96875 66.40625 20.09375 61.84375 
Q 16.21875 57.28125 16.21875 49.421875 
Q 16.21875 41.5 20.09375 36.953125 
Q 23.96875 32.421875 30.609375 32.421875 
z
" id="DejaVuSans-39"/>
     <path id="DejaVuSans-20"/>
     <path d="M 44.28125 53.078125 
L 44.28125 44.578125 
Q 40.484375 46.53125 36.375 47.5 
Q 32.28125 48.484375 27.875 48.484375 
Q 21.1875 48.484375 17.84375 46.4375 
Q 14.5 44.390625 14.5 40.28125 
Q 14.5 37.15625 16.890625 35.375 
Q 19.28125 33.59375 26.515625 31.984375 
L 29.59375 31.296875 
Q 39.15625 29.25 43.1875 25.515625 
Q 47.21875 21.78125 47.21875 15.09375 
Q 47.21875 7.46875 41.1875 3.015625 
Q 35.15625 -1.421875 24.609375 -1.421875 
Q 20.21875 -1.421875 15.453125 -0.5625 
Q 10.6875 0.296875 5.421875 2 
L 5.421875 11.28125 
Q 10.40625 8.6875 15.234375 7.390625 
Q 20.0625 6.109375 24.8125 6.109375 
Q 31.15625 6.109375 34.5625 8.28125 
Q 37.984375 10.453125 37.984375 14.40625 
Q 37.984375 18.0625 35.515625 20.015625 
Q 33.0625 21.96875 24.703125 23.78125 
L 21.578125 24.515625 
Q 13.234375 26.265625 9.515625 29.90625 
Q 5.8125 33.546875 5.8125 39.890625 
Q 5.8125 47.609375 11.28125 51.796875 
Q 16.75 56 26.8125 56 
Q 31.78125 56 36.171875 55.265625 
Q 40.578125 54.546875 44.28125 53.078125 
z
" id="DejaVuSans-73"/>
    </defs>
    <g transform="translate(153.717375 49.576506)scale(0.12 -0.12)">
     <use xlink:href="#DejaVuSans-54"/>
     <use x="61.037109" xlink:href="#DejaVuSans-69"/>
     <use x="88.820312" xlink:href="#DejaVuSans-6d"/>
     <use x="186.232422" xlink:href="#DejaVuSans-65"/>
     <use x="247.755859" xlink:href="#DejaVuSans-3a"/>
     <use x="281.447266" xlink:href="#DejaVuSans-30"/>
     <use x="345.070312" xlink:href="#DejaVuSans-2e"/>
     <use x="376.857422" xlink:href="#DejaVuSans-30"/>
     <use x="440.480469" xlink:href="#DejaVuSans-38"/>
     <use x="504.103516" xlink:href="#DejaVuSans-38"/>
     <use x="567.726562" xlink:href="#DejaVuSans-38"/>
     <use x="631.349609" xlink:href="#DejaVuSans-39"/>
     <use x="694.972656" xlink:href="#DejaVuSans-20"/>
     <use x="726.759766" xlink:href="#DejaVuSans-73"/>
    </g>
   </g>
  </g>
  <g id="axes_2">
   <g id="patch_7">
    <path clip-path="url(#p45d1effa3d)" d="M 361.152 307.584 
L 361.152 283.392 
L 361.152 65.664 
L 361.152 41.472 
L 374.4576 41.472 
L 374.4576 65.664 
L 374.4576 283.392 
L 374.4576 307.584 
z
" style="fill:#ffffff;stroke:#ffffff;stroke-linejoin:miter;stroke-width:0.01;"/>
   </g>
   <g id="matplotlib.axis_3"/>
   <g id="matplotlib.axis_4">
    <g id="ytick_5">
     <g id="line2d_10">
      <defs>
       <path d="M 0 0 
L 3.5 0 
" id="m6302386552" style="stroke:#000000;stroke-width:0.8;"/>
      </defs>
      <g>
       <use style="stroke:#000000;stroke-width:0.8;" x="374.4576" xlink:href="#m6302386552" y="307.584"/>
      </g>
     </g>
     <g id="text_11">
      <!-- 0.08 -->
      <g transform="translate(381.4576 311.383219)scale(0.1 -0.1)">
       <use xlink:href="#DejaVuSans-30"/>
       <use x="63.623047" xlink:href="#DejaVuSans-2e"/>
       <use x="95.410156" xlink:href="#DejaVuSans-30"/>
       <use x="159.033203" xlink:href="#DejaVuSans-38"/>
      </g>
     </g>
    </g>
    <g id="ytick_6">
     <g id="line2d_11">
      <g>
       <use style="stroke:#000000;stroke-width:0.8;" x="374.4576" xlink:href="#m6302386552" y="259.2"/>
      </g>
     </g>
     <g id="text_12">
      <!-- 0.24 -->
      <g transform="translate(381.4576 262.999219)scale(0.1 -0.1)">
       <use xlink:href="#DejaVuSans-30"/>
       <use x="63.623047" xlink:href="#DejaVuSans-2e"/>
       <use x="95.410156" xlink:href="#DejaVuSans-32"/>
       <use x="159.033203" xlink:href="#DejaVuSans-34"/>
      </g>
     </g>
    </g>
    <g id="ytick_7">
     <g id="line2d_12">
      <g>
       <use style="stroke:#000000;stroke-width:0.8;" x="374.4576" xlink:href="#m6302386552" y="210.816"/>
      </g>
     </g>
     <g id="text_13">
      <!-- 0.40 -->
      <g transform="translate(381.4576 214.615219)scale(0.1 -0.1)">
       <use xlink:href="#DejaVuSans-30"/>
       <use x="63.623047" xlink:href="#DejaVuSans-2e"/>
       <use x="95.410156" xlink:href="#DejaVuSans-34"/>
       <use x="159.033203" xlink:href="#DejaVuSans-30"/>
      </g>
     </g>
    </g>
    <g id="ytick_8">
     <g id="line2d_13">
      <g>
       <use style="stroke:#000000;stroke-width:0.8;" x="374.4576" xlink:href="#m6302386552" y="162.432"/>
      </g>
     </g>
     <g id="text_14">
      <!-- 0.56 -->
      <defs>
       <path d="M 10.796875 72.90625 
L 49.515625 72.90625 
L 49.515625 64.59375 
L 19.828125 64.59375 
L 19.828125 46.734375 
Q 21.96875 47.46875 24.109375 47.828125 
Q 26.265625 48.1875 28.421875 48.1875 
Q 40.625 48.1875 47.75 41.5 
Q 54.890625 34.8125 54.890625 23.390625 
Q 54.890625 11.625 47.5625 5.09375 
Q 40.234375 -1.421875 26.90625 -1.421875 
Q 22.3125 -1.421875 17.546875 -0.640625 
Q 12.796875 0.140625 7.71875 1.703125 
L 7.71875 11.625 
Q 12.109375 9.234375 16.796875 8.0625 
Q 21.484375 6.890625 26.703125 6.890625 
Q 35.15625 6.890625 40.078125 11.328125 
Q 45.015625 15.765625 45.015625 23.390625 
Q 45.015625 31 40.078125 35.4375 
Q 35.15625 39.890625 26.703125 39.890625 
Q 22.75 39.890625 18.8125 39.015625 
Q 14.890625 38.140625 10.796875 36.28125 
z
" id="DejaVuSans-35"/>
      </defs>
      <g transform="translate(381.4576 166.231219)scale(0.1 -0.1)">
       <use xlink:href="#DejaVuSans-30"/>
       <use x="63.623047" xlink:href="#DejaVuSans-2e"/>
       <use x="95.410156" xlink:href="#DejaVuSans-35"/>
       <use x="159.033203" xlink:href="#DejaVuSans-36"/>
      </g>
     </g>
    </g>
    <g id="ytick_9">
     <g id="line2d_14">
      <g>
       <use style="stroke:#000000;stroke-width:0.8;" x="374.4576" xlink:href="#m6302386552" y="114.048"/>
      </g>
     </g>
     <g id="text_15">
      <!-- 0.72 -->
      <defs>
       <path d="M 8.203125 72.90625 
L 55.078125 72.90625 
L 55.078125 68.703125 
L 28.609375 0 
L 18.3125 0 
L 43.21875 64.59375 
L 8.203125 64.59375 
z
" id="DejaVuSans-37"/>
      </defs>
      <g transform="translate(381.4576 117.847219)scale(0.1 -0.1)">
       <use xlink:href="#DejaVuSans-30"/>
       <use x="63.623047" xlink:href="#DejaVuSans-2e"/>
       <use x="95.410156" xlink:href="#DejaVuSans-37"/>
       <use x="159.033203" xlink:href="#DejaVuSans-32"/>
      </g>
     </g>
    </g>
    <g id="ytick_10">
     <g id="line2d_15">
      <g>
       <use style="stroke:#000000;stroke-width:0.8;" x="374.4576" xlink:href="#m6302386552" y="65.664"/>
      </g>
     </g>
     <g id="text_16">
      <!-- 0.88 -->
      <g transform="translate(381.4576 69.463219)scale(0.1 -0.1)">
       <use xlink:href="#DejaVuSans-30"/>
       <use x="63.623047" xlink:href="#DejaVuSans-2e"/>
       <use x="95.410156" xlink:href="#DejaVuSans-38"/>
       <use x="159.033203" xlink:href="#DejaVuSans-38"/>
      </g>
     </g>
    </g>
   </g>
   <g id="LineCollection_13">
    <path clip-path="url(#p45d1effa3d)" d="M 361.152 307.584 
L 374.4576 307.584 
" style="fill:none;stroke:#000080;stroke-width:1.5;"/>
    <path clip-path="url(#p45d1effa3d)" d="M 361.152 283.392 
L 374.4576 283.392 
" style="fill:none;stroke:#0000e8;stroke-width:1.5;"/>
    <path clip-path="url(#p45d1effa3d)" d="M 361.152 259.2 
L 374.4576 259.2 
" style="fill:none;stroke:#0038ff;stroke-width:1.5;"/>
    <path clip-path="url(#p45d1effa3d)" d="M 361.152 235.008 
L 374.4576 235.008 
" style="fill:none;stroke:#0094ff;stroke-width:1.5;"/>
    <path clip-path="url(#p45d1effa3d)" d="M 361.152 210.816 
L 374.4576 210.816 
" style="fill:none;stroke:#0cf4eb;stroke-width:1.5;"/>
    <path clip-path="url(#p45d1effa3d)" d="M 361.152 186.624 
L 374.4576 186.624 
" style="fill:none;stroke:#56ffa0;stroke-width:1.5;"/>
    <path clip-path="url(#p45d1effa3d)" d="M 361.152 162.432 
L 374.4576 162.432 
" style="fill:none;stroke:#a0ff56;stroke-width:1.5;"/>
    <path clip-path="url(#p45d1effa3d)" d="M 361.152 138.24 
L 374.4576 138.24 
" style="fill:none;stroke:#ebff0c;stroke-width:1.5;"/>
    <path clip-path="url(#p45d1effa3d)" d="M 361.152 114.048 
L 374.4576 114.048 
" style="fill:none;stroke:#ffab00;stroke-width:1.5;"/>
    <path clip-path="url(#p45d1effa3d)" d="M 361.152 89.856 
L 374.4576 89.856 
" style="fill:none;stroke:#ff5500;stroke-width:1.5;"/>
    <path clip-path="url(#p45d1effa3d)" d="M 361.152 65.664 
L 374.4576 65.664 
" style="fill:none;stroke:#e80000;stroke-width:1.5;"/>
    <path clip-path="url(#p45d1effa3d)" d="M 361.152 41.472 
L 374.4576 41.472 
" style="fill:none;stroke:#800000;stroke-width:1.5;"/>
   </g>
   <g id="patch_8">
    <path d="M 361.152 307.584 
L 361.152 283.392 
L 361.152 65.664 
L 361.152 41.472 
L 374.4576 41.472 
L 374.4576 65.664 
L 374.4576 283.392 
L 374.4576 307.584 
z
" style="fill:none;stroke:#000000;stroke-linejoin:miter;stroke-width:0.8;"/>
   </g>
  </g>
 </g>
 <defs>
  <clipPath id="pa5dd3e219c">
   <rect height="237.902989" width="285.696" x="57.6" y="55.576506"/>
  </clipPath>
  <clipPath id="p45d1effa3d">
   <rect height="266.112" width="13.3056" x="361.152" y="41.472"/>
  </clipPath>
 </defs>
</svg>
