<?xml version="1.0" encoding="utf-8" standalone="no"?>
<!DOCTYPE svg PUBLIC "-//W3C//DTD SVG 1.1//EN"
  "http://www.w3.org/Graphics/SVG/1.1/DTD/svg11.dtd">
<!-- Created with matplotlib (http://matplotlib.org/) -->
<svg height="345.6pt" version="1.1" viewBox="0 0 460.8 345.6" width="460.8pt" xmlns="http://www.w3.org/2000/svg" xmlns:xlink="http://www.w3.org/1999/xlink">
 <defs>
  <style type="text/css">
*{stroke-linecap:butt;stroke-linejoin:round;}
  </style>
 </defs>
 <g id="figure_1">
  <g id="patch_1">
   <path d="M 0 345.6 
L 460.8 345.6 
L 460.8 0 
L 0 0 
z
" style="fill:#ffffff;"/>
  </g>
  <g id="axes_1">
   <g id="patch_2">
    <path d="M 57.6 293.479494 
L 343.296 293.479494 
L 343.296 55.576506 
L 57.6 55.576506 
z
" style="fill:#ffffff;"/>
   </g>
   <g id="matplotlib.axis_1">
    <g id="xtick_1">
     <g id="line2d_1">
      <defs>
       <path d="M 0 0 
L 0 3.5 
" id="mc86a3f412e" style="stroke:#000000;stroke-width:0.8;"/>
      </defs>
      <g>
       <use style="stroke:#000000;stroke-width:0.8;" x="104.861978" xlink:href="#mc86a3f412e" y="293.479494"/>
      </g>
     </g>
     <g id="text_1">
      <!-- 0.2 -->
      <defs>
       <path d="M 31.78125 66.40625 
Q 24.171875 66.40625 20.328125 58.90625 
Q 16.5 51.421875 16.5 36.375 
Q 16.5 21.390625 20.328125 13.890625 
Q 24.171875 6.390625 31.78125 6.390625 
Q 39.453125 6.390625 43.28125 13.890625 
Q 47.125 21.390625 47.125 36.375 
Q 47.125 51.421875 43.28125 58.90625 
Q 39.453125 66.40625 31.78125 66.40625 
z
M 31.78125 74.21875 
Q 44.046875 74.21875 50.515625 64.515625 
Q 56.984375 54.828125 56.984375 36.375 
Q 56.984375 17.96875 50.515625 8.265625 
Q 44.046875 -1.421875 31.78125 -1.421875 
Q 19.53125 -1.421875 13.0625 8.265625 
Q 6.59375 17.96875 6.59375 36.375 
Q 6.59375 54.828125 13.0625 64.515625 
Q 19.53125 74.21875 31.78125 74.21875 
z
" id="DejaVuSans-30"/>
       <path d="M 10.6875 12.40625 
L 21 12.40625 
L 21 0 
L 10.6875 0 
z
" id="DejaVuSans-2e"/>
       <path d="M 19.1875 8.296875 
L 53.609375 8.296875 
L 53.609375 0 
L 7.328125 0 
L 7.328125 8.296875 
Q 12.9375 14.109375 22.625 23.890625 
Q 32.328125 33.6875 34.8125 36.53125 
Q 39.546875 41.84375 41.421875 45.53125 
Q 43.3125 49.21875 43.3125 52.78125 
Q 43.3125 58.59375 39.234375 62.25 
Q 35.15625 65.921875 28.609375 65.921875 
Q 23.96875 65.921875 18.8125 64.3125 
Q 13.671875 62.703125 7.8125 59.421875 
L 7.8125 69.390625 
Q 13.765625 71.78125 18.9375 73 
Q 24.125 74.21875 28.421875 74.21875 
Q 39.75 74.21875 46.484375 68.546875 
Q 53.21875 62.890625 53.21875 53.421875 
Q 53.21875 48.921875 51.53125 44.890625 
Q 49.859375 40.875 45.40625 35.40625 
Q 44.1875 33.984375 37.640625 27.21875 
Q 31.109375 20.453125 19.1875 8.296875 
z
" id="DejaVuSans-32"/>
      </defs>
      <g transform="translate(96.910415 308.077932)scale(0.1 -0.1)">
       <use xlink:href="#DejaVuSans-30"/>
       <use x="63.623047" xlink:href="#DejaVuSans-2e"/>
       <use x="95.410156" xlink:href="#DejaVuSans-32"/>
      </g>
     </g>
    </g>
    <g id="xtick_2">
     <g id="line2d_2">
      <g>
       <use style="stroke:#000000;stroke-width:0.8;" x="152.654989" xlink:href="#mc86a3f412e" y="293.479494"/>
      </g>
     </g>
     <g id="text_2">
      <!-- 0.4 -->
      <defs>
       <path d="M 37.796875 64.3125 
L 12.890625 25.390625 
L 37.796875 25.390625 
z
M 35.203125 72.90625 
L 47.609375 72.90625 
L 47.609375 25.390625 
L 58.015625 25.390625 
L 58.015625 17.1875 
L 47.609375 17.1875 
L 47.609375 0 
L 37.796875 0 
L 37.796875 17.1875 
L 4.890625 17.1875 
L 4.890625 26.703125 
z
" id="DejaVuSans-34"/>
      </defs>
      <g transform="translate(144.703426 308.077932)scale(0.1 -0.1)">
       <use xlink:href="#DejaVuSans-30"/>
       <use x="63.623047" xlink:href="#DejaVuSans-2e"/>
       <use x="95.410156" xlink:href="#DejaVuSans-34"/>
      </g>
     </g>
    </g>
    <g id="xtick_3">
     <g id="line2d_3">
      <g>
       <use style="stroke:#000000;stroke-width:0.8;" x="200.448" xlink:href="#mc86a3f412e" y="293.479494"/>
      </g>
     </g>
     <g id="text_3">
      <!-- 0.6 -->
      <defs>
       <path d="M 33.015625 40.375 
Q 26.375 40.375 22.484375 35.828125 
Q 18.609375 31.296875 18.609375 23.390625 
Q 18.609375 15.53125 22.484375 10.953125 
Q 26.375 6.390625 33.015625 6.390625 
Q 39.65625 6.390625 43.53125 10.953125 
Q 47.40625 15.53125 47.40625 23.390625 
Q 47.40625 31.296875 43.53125 35.828125 
Q 39.65625 40.375 33.015625 40.375 
z
M 52.59375 71.296875 
L 52.59375 62.3125 
Q 48.875 64.0625 45.09375 64.984375 
Q 41.3125 65.921875 37.59375 65.921875 
Q 27.828125 65.921875 22.671875 59.328125 
Q 17.53125 52.734375 16.796875 39.40625 
Q 19.671875 43.65625 24.015625 45.921875 
Q 28.375 48.1875 33.59375 48.1875 
Q 44.578125 48.1875 50.953125 41.515625 
Q 57.328125 34.859375 57.328125 23.390625 
Q 57.328125 12.15625 50.6875 5.359375 
Q 44.046875 -1.421875 33.015625 -1.421875 
Q 20.359375 -1.421875 13.671875 8.265625 
Q 6.984375 17.96875 6.984375 36.375 
Q 6.984375 53.65625 15.1875 63.9375 
Q 23.390625 74.21875 37.203125 74.21875 
Q 40.921875 74.21875 44.703125 73.484375 
Q 48.484375 72.75 52.59375 71.296875 
z
" id="DejaVuSans-36"/>
      </defs>
      <g transform="translate(192.496438 308.077932)scale(0.1 -0.1)">
       <use xlink:href="#DejaVuSans-30"/>
       <use x="63.623047" xlink:href="#DejaVuSans-2e"/>
       <use x="95.410156" xlink:href="#DejaVuSans-36"/>
      </g>
     </g>
    </g>
    <g id="xtick_4">
     <g id="line2d_4">
      <g>
       <use style="stroke:#000000;stroke-width:0.8;" x="248.241011" xlink:href="#mc86a3f412e" y="293.479494"/>
      </g>
     </g>
     <g id="text_4">
      <!-- 0.8 -->
      <defs>
       <path d="M 31.78125 34.625 
Q 24.75 34.625 20.71875 30.859375 
Q 16.703125 27.09375 16.703125 20.515625 
Q 16.703125 13.921875 20.71875 10.15625 
Q 24.75 6.390625 31.78125 6.390625 
Q 38.8125 6.390625 42.859375 10.171875 
Q 46.921875 13.96875 46.921875 20.515625 
Q 46.921875 27.09375 42.890625 30.859375 
Q 38.875 34.625 31.78125 34.625 
z
M 21.921875 38.8125 
Q 15.578125 40.375 12.03125 44.71875 
Q 8.5 49.078125 8.5 55.328125 
Q 8.5 64.0625 14.71875 69.140625 
Q 20.953125 74.21875 31.78125 74.21875 
Q 42.671875 74.21875 48.875 69.140625 
Q 55.078125 64.0625 55.078125 55.328125 
Q 55.078125 49.078125 51.53125 44.71875 
Q 48 40.375 41.703125 38.8125 
Q 48.828125 37.15625 52.796875 32.3125 
Q 56.78125 27.484375 56.78125 20.515625 
Q 56.78125 9.90625 50.3125 4.234375 
Q 43.84375 -1.421875 31.78125 -1.421875 
Q 19.734375 -1.421875 13.25 4.234375 
Q 6.78125 9.90625 6.78125 20.515625 
Q 6.78125 27.484375 10.78125 32.3125 
Q 14.796875 37.15625 21.921875 38.8125 
z
M 18.3125 54.390625 
Q 18.3125 48.734375 21.84375 45.5625 
Q 25.390625 42.390625 31.78125 42.390625 
Q 38.140625 42.390625 41.71875 45.5625 
Q 45.3125 48.734375 45.3125 54.390625 
Q 45.3125 60.0625 41.71875 63.234375 
Q 38.140625 66.40625 31.78125 66.40625 
Q 25.390625 66.40625 21.84375 63.234375 
Q 18.3125 60.0625 18.3125 54.390625 
z
" id="DejaVuSans-38"/>
      </defs>
      <g transform="translate(240.289449 308.077932)scale(0.1 -0.1)">
       <use xlink:href="#DejaVuSans-30"/>
       <use x="63.623047" xlink:href="#DejaVuSans-2e"/>
       <use x="95.410156" xlink:href="#DejaVuSans-38"/>
      </g>
     </g>
    </g>
    <g id="xtick_5">
     <g id="line2d_5">
      <g>
       <use style="stroke:#000000;stroke-width:0.8;" x="296.034022" xlink:href="#mc86a3f412e" y="293.479494"/>
      </g>
     </g>
     <g id="text_5">
      <!-- 1.0 -->
      <defs>
       <path d="M 12.40625 8.296875 
L 28.515625 8.296875 
L 28.515625 63.921875 
L 10.984375 60.40625 
L 10.984375 69.390625 
L 28.421875 72.90625 
L 38.28125 72.90625 
L 38.28125 8.296875 
L 54.390625 8.296875 
L 54.390625 0 
L 12.40625 0 
z
" id="DejaVuSans-31"/>
      </defs>
      <g transform="translate(288.08246 308.077932)scale(0.1 -0.1)">
       <use xlink:href="#DejaVuSans-31"/>
       <use x="63.623047" xlink:href="#DejaVuSans-2e"/>
       <use x="95.410156" xlink:href="#DejaVuSans-30"/>
      </g>
     </g>
    </g>
   </g>
   <g id="matplotlib.axis_2">
    <g id="ytick_1">
     <g id="line2d_6">
      <defs>
       <path d="M 0 0 
L -3.5 0 
" id="m8d9172e0bf" style="stroke:#000000;stroke-width:0.8;"/>
      </defs>
      <g>
       <use style="stroke:#000000;stroke-width:0.8;" x="57.6" xlink:href="#m8d9172e0bf" y="246.217517"/>
      </g>
     </g>
     <g id="text_6">
      <!-- 0.2 -->
      <g transform="translate(34.696875 250.016735)scale(0.1 -0.1)">
       <use xlink:href="#DejaVuSans-30"/>
       <use x="63.623047" xlink:href="#DejaVuSans-2e"/>
       <use x="95.410156" xlink:href="#DejaVuSans-32"/>
      </g>
     </g>
    </g>
    <g id="ytick_2">
     <g id="line2d_7">
      <g>
       <use style="stroke:#000000;stroke-width:0.8;" x="57.6" xlink:href="#m8d9172e0bf" y="198.424506"/>
      </g>
     </g>
     <g id="text_7">
      <!-- 0.4 -->
      <g transform="translate(34.696875 202.223724)scale(0.1 -0.1)">
       <use xlink:href="#DejaVuSans-30"/>
       <use x="63.623047" xlink:href="#DejaVuSans-2e"/>
       <use x="95.410156" xlink:href="#DejaVuSans-34"/>
      </g>
     </g>
    </g>
    <g id="ytick_3">
     <g id="line2d_8">
      <g>
       <use style="stroke:#000000;stroke-width:0.8;" x="57.6" xlink:href="#m8d9172e0bf" y="150.631494"/>
      </g>
     </g>
     <g id="text_8">
      <!-- 0.6 -->
      <g transform="translate(34.696875 154.430713)scale(0.1 -0.1)">
       <use xlink:href="#DejaVuSans-30"/>
       <use x="63.623047" xlink:href="#DejaVuSans-2e"/>
       <use x="95.410156" xlink:href="#DejaVuSans-36"/>
      </g>
     </g>
    </g>
    <g id="ytick_4">
     <g id="line2d_9">
      <g>
       <use style="stroke:#000000;stroke-width:0.8;" x="57.6" xlink:href="#m8d9172e0bf" y="102.838483"/>
      </g>
     </g>
     <g id="text_9">
      <!-- 0.8 -->
      <g transform="translate(34.696875 106.637702)scale(0.1 -0.1)">
       <use xlink:href="#DejaVuSans-30"/>
       <use x="63.623047" xlink:href="#DejaVuSans-2e"/>
       <use x="95.410156" xlink:href="#DejaVuSans-38"/>
      </g>
     </g>
    </g>
   </g>
   <g id="LineCollection_1">
    <path clip-path="url(#pb053192d59)" d="M 116.319857 293.479494 
L 116.01368 292.178116 
L 115.740372 291.355361 
L 114.951613 290.038293 
L 113.889546 288.97734 
L 112.661866 288.16916 
L 110.703346 287.422094 
L 108.579212 286.907504 
L 105.393011 286.496786 
L 101.144743 286.237751 
L 86.275807 285.672722 
L 83.089606 285.303073 
L 79.903405 284.715348 
L 77.098138 283.920892 
L 75.655138 283.378973 
L 73.531004 282.31411 
L 72.468937 281.62866 
L 71.325983 280.734691 
L 70.221155 279.672625 
L 69.282736 278.577028 
L 67.894714 276.486424 
L 66.824545 274.36229 
L 65.980877 272.238156 
L 65.008548 269.051955 
L 64.074806 264.803688 
L 63.40842 260.55542 
L 62.801177 255.245086 
L 62.21308 247.810617 
L 61.607318 237.189948 
L 60.77436 218.072743 
L 60.042886 195.769338 
L 59.398181 169.217665 
L 58.758101 133.10739 
L 58.173132 87.438513 
L 57.90637 55.576506 
L 57.90637 55.576506 
" style="fill:none;stroke:#000080;stroke-width:1.5;"/>
   </g>
   <g id="LineCollection_2">
    <path clip-path="url(#pb053192d59)" d="M 285.96911 293.479494 
L 286.334089 291.355361 
L 286.913965 288.16916 
L 287.036325 286.045026 
L 286.936786 282.858825 
L 286.326646 276.486424 
L 285.342331 267.989888 
L 284.213075 259.493353 
L 283.360354 254.183019 
L 282.297456 248.872684 
L 281.499902 245.686483 
L 280.448705 242.500283 
L 279.520601 240.376149 
L 278.134812 238.252015 
L 277.121253 237.189948 
L 276.385784 236.606597 
L 275.323717 236.04106 
L 274.261651 235.680801 
L 272.137517 235.335115 
L 268.951316 235.262905 
L 245.585844 235.650015 
L 228.592773 235.863037 
L 215.84797 236.257143 
L 191.420431 237.164787 
L 185.04803 237.125195 
L 178.675628 236.85959 
L 172.303227 236.370143 
L 163.806691 235.460016 
L 147.875688 233.665231 
L 141.503286 233.184831 
L 135.130885 232.946709 
L 129.82055 232.95479 
L 123.448149 233.202695 
L 117.075747 233.671274 
L 111.765413 234.230926 
L 107.517145 234.87669 
L 105.393011 235.335576 
L 102.774543 236.127881 
L 101.144743 236.820942 
L 100.082677 237.386767 
L 98.780449 238.252015 
L 97.529343 239.314082 
L 96.528909 240.376149 
L 95.703653 241.438216 
L 94.447518 243.562349 
L 93.546079 245.686483 
L 92.918469 247.810617 
L 92.501955 249.934751 
L 92.194733 253.120952 
L 91.922339 259.493353 
L 91.519645 261.617487 
L 91.154215 262.679554 
L 90.524074 263.91791 
L 89.462007 265.284907 
L 88.399941 266.21695 
L 87.273782 266.927822 
L 86.275807 267.340159 
L 85.21374 267.647619 
L 84.151673 267.818702 
L 83.089606 267.852873 
L 82.027539 267.751717 
L 80.965472 267.517571 
L 79.438039 266.927822 
L 78.841338 266.628162 
L 77.686855 265.865755 
L 76.479644 264.803688 
L 75.503127 263.741621 
L 74.593071 262.554059 
L 73.388085 260.55542 
L 72.354465 258.431286 
L 71.141961 255.245086 
L 69.898583 250.996818 
L 68.918508 246.74855 
L 67.928697 241.438216 
L 66.815339 234.003747 
L 65.662636 224.445145 
L 64.625396 213.824476 
L 63.625014 201.079673 
L 62.635992 185.148669 
L 61.657085 164.969398 
L 60.696628 139.479792 
L 59.770607 107.617784 
L 58.720428 63.010974 
L 58.702216 57.700639 
L 58.749398 55.576506 
L 58.749398 55.576506 
" style="fill:none;stroke:#0000e8;stroke-width:1.5;"/>
   </g>
   <g id="LineCollection_3">
    <path clip-path="url(#pb053192d59)" d="M 290.067998 293.479494 
L 290.478132 288.16916 
L 290.45077 284.982959 
L 290.097696 278.610558 
L 288.382364 254.183019 
L 287.394965 241.438216 
L 286.511426 231.879613 
L 285.552725 223.383078 
L 284.48258 215.94861 
L 283.492783 210.638275 
L 282.445833 206.390007 
L 281.367128 203.203807 
L 280.352521 201.079673 
L 279.571985 199.868538 
L 278.509918 198.831661 
L 277.447851 198.261536 
L 276.385784 198.032336 
L 275.323717 198.041925 
L 273.199584 198.47113 
L 266.827182 200.248601 
L 263.640981 200.782684 
L 260.413038 201.079673 
L 256.206513 201.238983 
L 247.709978 201.270182 
L 212.66177 201.302864 
L 185.04803 201.471699 
L 162.744625 201.868405 
L 137.255019 202.265039 
L 126.634349 202.2707 
L 121.324015 202.065393 
L 117.075747 201.716394 
L 111.765413 201.026904 
L 102.20681 199.626804 
L 99.02061 199.479198 
L 96.896476 199.607697 
L 94.69449 200.017606 
L 92.648208 200.722646 
L 91.586141 201.238954 
L 89.462007 202.632189 
L 87.629805 204.265874 
L 86.275807 205.719121 
L 84.072655 208.514141 
L 79.336128 214.886543 
L 78.292499 215.94861 
L 77.779271 216.412946 
L 76.717204 217.039351 
L 75.655138 217.247659 
L 74.593071 216.951463 
L 73.452634 215.94861 
L 72.468937 214.496896 
L 71.260527 211.700342 
L 69.984087 207.452074 
L 69.007383 203.203807 
L 67.866312 196.831405 
L 66.812016 189.396937 
L 65.727275 179.838335 
L 64.661456 168.155599 
L 63.570242 153.286662 
L 62.503184 135.231524 
L 61.444605 112.928119 
L 60.394845 85.314379 
L 59.54966 58.762706 
L 59.644441 55.576506 
L 59.644441 55.576506 
" style="fill:none;stroke:#0038ff;stroke-width:1.5;"/>
   </g>
   <g id="LineCollection_4">
    <path clip-path="url(#pb053192d59)" d="M 292.325677 293.479494 
L 292.448586 284.982959 
L 292.11391 277.548491 
L 288.810634 217.010677 
L 287.605075 202.14174 
L 286.503403 191.521071 
L 285.532699 184.086602 
L 284.474258 177.714201 
L 283.576319 173.465933 
L 282.730405 170.279732 
L 281.513167 167.093532 
L 280.634052 165.454212 
L 279.571985 164.231245 
L 278.509918 163.617785 
L 277.447851 163.47865 
L 276.385784 163.694291 
L 275.323717 164.161625 
L 273.199584 165.51768 
L 269.384458 168.155599 
L 267.51499 169.217665 
L 265.765115 170.021574 
L 263.640981 170.738232 
L 261.516848 171.2158 
L 259.392714 171.504309 
L 256.206513 171.687937 
L 251.958245 171.674438 
L 234.965175 171.373088 
L 106.455078 171.007623 
L 96.896476 170.821477 
L 93.710275 171.001306 
L 91.365049 171.341799 
L 89.462007 171.795738 
L 87.337874 172.557181 
L 85.21374 173.630094 
L 83.089606 175.025342 
L 77.779271 178.997023 
L 76.717204 179.490342 
L 75.655138 179.691498 
L 74.593071 179.492586 
L 73.531004 178.774685 
L 72.468937 177.415291 
L 71.144484 174.528 
L 70.114077 171.341799 
L 69.077942 167.093532 
L 67.898259 160.72113 
L 66.81757 153.286662 
L 65.70664 143.728059 
L 64.610509 132.045323 
L 63.483218 117.176387 
L 62.437778 100.183316 
L 60.785987 68.321309 
L 60.497545 60.88684 
L 60.542035 57.700639 
L 60.644021 55.576506 
L 60.644021 55.576506 
" style="fill:none;stroke:#0094ff;stroke-width:1.5;"/>
   </g>
   <g id="LineCollection_5">
    <path clip-path="url(#pb053192d59)" d="M 294.028724 293.479494 
L 293.944333 281.796758 
L 292.851437 252.058885 
L 291.634917 222.321011 
L 290.665103 203.203807 
L 289.675687 187.272803 
L 288.612591 173.465933 
L 287.588258 162.845264 
L 286.557238 154.348729 
L 285.581396 147.976327 
L 284.536979 142.665993 
L 283.420319 138.417725 
L 282.721074 136.293591 
L 281.696119 134.052135 
L 280.634052 132.540072 
L 279.571985 131.70363 
L 278.509918 131.426539 
L 277.447851 131.604466 
L 276.385784 132.142208 
L 275.161992 133.10739 
L 273.067196 135.231524 
L 268.951316 139.694526 
L 266.812258 141.603926 
L 264.703048 143.071656 
L 262.578914 144.135977 
L 260.454781 144.833562 
L 258.330647 145.230482 
L 256.206513 145.392338 
L 253.020312 145.329675 
L 248.772045 144.942427 
L 241.337576 144.202859 
L 236.027242 143.947339 
L 230.716907 143.926125 
L 200.979033 144.213557 
L 164.868758 144.180741 
L 91.586141 144.325988 
L 88.399941 144.631748 
L 86.275807 144.988339 
L 84.151673 145.500366 
L 80.965472 146.55068 
L 77.779271 147.621138 
L 76.717204 147.814707 
L 75.655138 147.816693 
L 74.593071 147.533409 
L 73.531004 146.851702 
L 72.468937 145.645697 
L 71.389561 143.728059 
L 70.190486 140.541859 
L 69.041484 136.293591 
L 67.954202 130.983257 
L 66.78407 123.548788 
L 65.726298 115.052253 
L 64.569256 103.369517 
L 63.468646 89.562647 
L 61.718934 64.073041 
L 61.609175 59.824773 
L 61.822596 55.576506 
L 61.822596 55.576506 
" style="fill:none;stroke:#0cf4eb;stroke-width:1.5;"/>
   </g>
   <g id="LineCollection_6">
    <path clip-path="url(#pb053192d59)" d="M 295.551145 293.479494 
L 295.306803 276.486424 
L 294.233592 239.314082 
L 293.11448 207.452074 
L 292.027391 183.024535 
L 290.948562 163.907331 
L 289.879379 149.038394 
L 288.803051 137.355658 
L 287.6588 127.797056 
L 286.679519 121.424654 
L 285.636543 116.11432 
L 284.544096 111.866052 
L 283.439493 108.679851 
L 282.420984 106.555717 
L 281.696119 105.394778 
L 280.634052 104.333675 
L 279.571985 103.824587 
L 278.509918 103.78527 
L 277.447851 104.142076 
L 276.385784 104.825309 
L 274.589513 106.555717 
L 273.199584 108.176232 
L 267.75602 115.052253 
L 265.761219 117.176387 
L 263.640981 119.003331 
L 261.516848 120.362994 
L 259.392714 121.274302 
L 257.26858 121.78743 
L 255.144446 121.967825 
L 253.020312 121.885607 
L 249.86961 121.424654 
L 247.709978 120.970178 
L 239.213442 119.092781 
L 234.965175 118.481189 
L 230.716907 118.170299 
L 226.468639 118.114466 
L 220.096238 118.32042 
L 204.165234 118.997387 
L 192.482498 119.198409 
L 165.930825 119.34931 
L 118.137814 119.673374 
L 89.462007 120.030015 
L 84.382297 120.362587 
L 77.779271 120.970725 
L 76.717204 120.921911 
L 75.655138 120.730735 
L 74.593071 120.324161 
L 73.244908 119.30052 
L 72.328661 118.238454 
L 71.130243 116.11432 
L 70.245101 113.990186 
L 69.000652 109.741918 
L 67.857993 104.431584 
L 66.803838 98.059182 
L 65.700737 89.562647 
L 64.478631 77.879911 
L 63.310019 65.135108 
L 63.097001 60.88684 
L 63.175375 58.762706 
L 63.460914 55.576506 
L 63.460914 55.576506 
" style="fill:none;stroke:#56ffa0;stroke-width:1.5;"/>
   </g>
   <g id="LineCollection_7">
    <path clip-path="url(#pb053192d59)" d="M 300.736718 293.479494 
L 300.62919 287.107093 
L 300.307261 280.734691 
L 299.700995 273.300223 
L 298.489498 261.617487 
L 296.451061 242.500283 
L 295.092199 207.452074 
L 294.084355 178.776268 
L 293.091242 156.472862 
L 292.059003 138.417725 
L 291.035238 124.610855 
L 289.903521 112.928119 
L 288.846027 104.431584 
L 287.841537 98.059182 
L 286.753311 92.748848 
L 285.580885 88.50058 
L 284.846419 86.376446 
L 283.820253 84.0756 
L 282.657567 82.128178 
L 281.696119 80.891694 
L 280.634052 79.868156 
L 279.177642 78.941978 
L 278.509918 78.635388 
L 277.447851 78.34791 
L 276.385784 78.246825 
L 275.323717 78.325167 
L 274.261651 78.575873 
L 273.199584 78.995429 
L 271.621215 80.004045 
L 270.449009 81.066112 
L 269.532049 82.128178 
L 268.108001 84.252312 
L 266.827182 86.665801 
L 264.317254 91.686781 
L 263.02447 93.810914 
L 262.259496 94.872981 
L 261.377336 95.935048 
L 260.316948 96.997115 
L 258.972019 98.059182 
L 257.26858 99.05658 
L 256.206513 99.500559 
L 254.082379 100.090871 
L 251.958245 100.368777 
L 249.834112 100.429462 
L 246.647911 100.259971 
L 242.399643 99.776528 
L 225.406572 97.572526 
L 218.780601 96.997115 
L 212.66177 96.654926 
L 205.227301 96.454962 
L 194.606632 96.436427 
L 166.992892 96.511057 
L 148.937755 96.260339 
L 78.398811 94.872981 
L 76.717204 94.56046 
L 75.655138 94.200178 
L 74.593071 93.647902 
L 73.469598 92.748848 
L 72.468937 91.603456 
L 71.277444 89.562647 
L 70.014749 86.376446 
L 69.070864 83.190245 
L 67.899985 77.879911 
L 66.809008 71.507509 
L 65.962678 65.135108 
L 65.801741 61.948907 
L 65.886377 59.824773 
L 66.362337 55.576506 
L 66.362337 55.576506 
" style="fill:none;stroke:#a0ff56;stroke-width:1.5;"/>
   </g>
   <g id="LineCollection_8">
    <path clip-path="url(#pb053192d59)" d="M 308.246344 293.479494 
L 308.104191 284.982959 
L 307.720912 276.486424 
L 306.984974 265.865755 
L 305.781675 252.058885 
L 303.999524 234.305038 
L 302.050944 217.010677 
L 300.049314 201.079673 
L 297.967777 186.210736 
L 296.48637 175.590067 
L 294.981955 145.852193 
L 294.093267 127.797056 
L 293.154217 112.928119 
L 292.118771 100.183316 
L 291.211677 91.686781 
L 290.261131 85.314379 
L 289.611765 82.128178 
L 288.785914 78.941978 
L 288.06852 76.764091 
L 287.006454 74.340292 
L 285.944387 72.530317 
L 284.88232 71.171168 
L 283.820253 70.126154 
L 282.758186 69.315348 
L 280.880113 68.321309 
L 279.571985 67.857678 
L 277.447851 67.39655 
L 275.323717 67.212281 
L 272.972297 67.259242 
L 271.07545 67.45013 
L 267.889249 68.03732 
L 264.703048 68.918189 
L 261.516848 70.052056 
L 258.061878 71.507509 
L 247.709978 76.189665 
L 244.523777 77.234445 
L 241.600808 77.879911 
L 240.275509 78.075444 
L 237.089309 78.297425 
L 233.903108 78.227743 
L 230.307592 77.879911 
L 226.468639 77.272987 
L 221.158305 76.213656 
L 194.606632 70.6543 
L 188.23423 69.346222 
L 180.799762 67.544727 
L 177.613561 66.603924 
L 174.427361 65.486288 
L 172.303227 64.579758 
L 170.179093 63.464115 
L 169.117026 62.786427 
L 168.024986 61.948907 
L 166.992892 60.864811 
L 166.308505 59.824773 
L 165.880439 58.762706 
L 165.669051 57.700639 
L 165.680752 55.576506 
L 165.680752 55.576506 
" style="fill:none;stroke:#ebff0c;stroke-width:1.5;"/>
   </g>
   <g id="LineCollection_9">
    <path clip-path="url(#pb053192d59)" d="M 315.956789 293.479494 
L 315.83362 283.920892 
L 315.458539 273.300223 
L 314.759836 260.55542 
L 313.648191 244.624416 
L 312.086663 225.507212 
L 310.302026 206.390007 
L 308.500632 189.396937 
L 306.718386 174.528 
L 304.845074 160.72113 
L 302.937457 148.341156 
L 301.212552 138.417725 
L 299.345644 128.859123 
L 297.479612 120.362587 
L 296.530195 116.11432 
L 294.769955 93.810914 
L 294.007548 85.314379 
L 293.346998 80.004045 
L 292.607986 75.755777 
L 291.842457 72.569576 
L 291.166067 70.445442 
L 290.192654 68.1955 
L 288.950797 66.197175 
L 288.06852 65.134214 
L 286.940095 64.073041 
L 284.88232 62.633721 
L 282.758186 61.538506 
L 276.558955 58.762706 
L 275.323717 57.696081 
L 274.829737 56.638572 
L 274.84041 55.576506 
L 274.84041 55.576506 
" style="fill:none;stroke:#ffab00;stroke-width:1.5;"/>
   </g>
   <g id="LineCollection_10">
    <path clip-path="url(#pb053192d59)" d="M 323.812434 293.479494 
L 323.693845 281.796758 
L 323.346717 269.051955 
L 322.681227 253.120952 
L 321.596309 232.94168 
L 320.17063 210.638275 
L 318.668435 190.459004 
L 317.107761 172.403866 
L 315.50404 156.472862 
L 313.884934 142.665993 
L 312.29773 130.983257 
L 310.634121 120.362587 
L 308.910872 110.803985 
L 307.152532 102.30745 
L 305.388618 94.872981 
L 303.652125 88.50058 
L 301.87539 82.863864 
L 300.453221 78.941978 
L 298.661252 74.69371 
L 297.059102 71.507509 
L 296.525768 70.445442 
L 295.76234 67.259242 
L 295.259683 65.135108 
L 294.440922 61.903794 
L 292.499377 55.576506 
L 292.499377 55.576506 
" style="fill:none;stroke:#ff5500;stroke-width:1.5;"/>
   </g>
   <g id="LineCollection_11">
    <path clip-path="url(#pb053192d59)" d="M 331.764287 293.479494 
L 331.637251 277.548491 
L 331.236973 257.369219 
L 330.551197 234.901991 
L 329.48913 207.317936 
L 328.303603 181.962468 
L 327.095787 160.72113 
L 325.846922 142.665993 
L 324.605328 127.797056 
L 323.337631 115.052253 
L 321.963381 103.369517 
L 320.358054 91.686781 
L 317.806394 75.171991 
L 316.697792 67.259242 
L 316.170306 61.948907 
L 315.959339 57.700639 
L 315.937601 55.576506 
L 315.937601 55.576506 
" style="fill:none;stroke:#e80000;stroke-width:1.5;"/>
   </g>
   <g id="LineCollection_12">
    <path clip-path="url(#pb053192d59)" d="M 339.776148 293.479494 
L 339.672291 271.176089 
L 339.42539 237.189948 
L 338.808832 191.521071 
L 338.13459 155.410796 
L 337.387806 126.734989 
L 336.569262 103.369517 
L 334.961632 64.073041 
L 334.874592 55.576506 
L 334.874592 55.576506 
" style="fill:none;stroke:#800000;stroke-width:1.5;"/>
   </g>
   <g id="patch_3">
    <path d="M 57.6 293.479494 
L 57.6 55.576506 
" style="fill:none;stroke:#000000;stroke-linecap:square;stroke-linejoin:miter;stroke-width:0.8;"/>
   </g>
   <g id="patch_4">
    <path d="M 343.296 293.479494 
L 343.296 55.576506 
" style="fill:none;stroke:#000000;stroke-linecap:square;stroke-linejoin:miter;stroke-width:0.8;"/>
   </g>
   <g id="patch_5">
    <path d="M 57.6 293.479494 
L 343.296 293.479494 
" style="fill:none;stroke:#000000;stroke-linecap:square;stroke-linejoin:miter;stroke-width:0.8;"/>
   </g>
   <g id="patch_6">
    <path d="M 57.6 55.576506 
L 343.296 55.576506 
" style="fill:none;stroke:#000000;stroke-linecap:square;stroke-linejoin:miter;stroke-width:0.8;"/>
   </g>
   <g id="text_10">
    <!-- Time:0.14815 s -->
    <defs>
     <path d="M -0.296875 72.90625 
L 61.375 72.90625 
L 61.375 64.59375 
L 35.5 64.59375 
L 35.5 0 
L 25.59375 0 
L 25.59375 64.59375 
L -0.296875 64.59375 
z
" id="DejaVuSans-54"/>
     <path d="M 9.421875 54.6875 
L 18.40625 54.6875 
L 18.40625 0 
L 9.421875 0 
z
M 9.421875 75.984375 
L 18.40625 75.984375 
L 18.40625 64.59375 
L 9.421875 64.59375 
z
" id="DejaVuSans-69"/>
     <path d="M 52 44.1875 
Q 55.375 50.25 60.0625 53.125 
Q 64.75 56 71.09375 56 
Q 79.640625 56 84.28125 50.015625 
Q 88.921875 44.046875 88.921875 33.015625 
L 88.921875 0 
L 79.890625 0 
L 79.890625 32.71875 
Q 79.890625 40.578125 77.09375 44.375 
Q 74.3125 48.1875 68.609375 48.1875 
Q 61.625 48.1875 57.5625 43.546875 
Q 53.515625 38.921875 53.515625 30.90625 
L 53.515625 0 
L 44.484375 0 
L 44.484375 32.71875 
Q 44.484375 40.625 41.703125 44.40625 
Q 38.921875 48.1875 33.109375 48.1875 
Q 26.21875 48.1875 22.15625 43.53125 
Q 18.109375 38.875 18.109375 30.90625 
L 18.109375 0 
L 9.078125 0 
L 9.078125 54.6875 
L 18.109375 54.6875 
L 18.109375 46.1875 
Q 21.1875 51.21875 25.484375 53.609375 
Q 29.78125 56 35.6875 56 
Q 41.65625 56 45.828125 52.96875 
Q 50 49.953125 52 44.1875 
z
" id="DejaVuSans-6d"/>
     <path d="M 56.203125 29.59375 
L 56.203125 25.203125 
L 14.890625 25.203125 
Q 15.484375 15.921875 20.484375 11.0625 
Q 25.484375 6.203125 34.421875 6.203125 
Q 39.59375 6.203125 44.453125 7.46875 
Q 49.3125 8.734375 54.109375 11.28125 
L 54.109375 2.78125 
Q 49.265625 0.734375 44.1875 -0.34375 
Q 39.109375 -1.421875 33.890625 -1.421875 
Q 20.796875 -1.421875 13.15625 6.1875 
Q 5.515625 13.8125 5.515625 26.8125 
Q 5.515625 40.234375 12.765625 48.109375 
Q 20.015625 56 32.328125 56 
Q 43.359375 56 49.78125 48.890625 
Q 56.203125 41.796875 56.203125 29.59375 
z
M 47.21875 32.234375 
Q 47.125 39.59375 43.09375 43.984375 
Q 39.0625 48.390625 32.421875 48.390625 
Q 24.90625 48.390625 20.390625 44.140625 
Q 15.875 39.890625 15.1875 32.171875 
z
" id="DejaVuSans-65"/>
     <path d="M 11.71875 12.40625 
L 22.015625 12.40625 
L 22.015625 0 
L 11.71875 0 
z
M 11.71875 51.703125 
L 22.015625 51.703125 
L 22.015625 39.3125 
L 11.71875 39.3125 
z
" id="DejaVuSans-3a"/>
     <path d="M 10.796875 72.90625 
L 49.515625 72.90625 
L 49.515625 64.59375 
L 19.828125 64.59375 
L 19.828125 46.734375 
Q 21.96875 47.46875 24.109375 47.828125 
Q 26.265625 48.1875 28.421875 48.1875 
Q 40.625 48.1875 47.75 41.5 
Q 54.890625 34.8125 54.890625 23.390625 
Q 54.890625 11.625 47.5625 5.09375 
Q 40.234375 -1.421875 26.90625 -1.421875 
Q 22.3125 -1.421875 17.546875 -0.640625 
Q 12.796875 0.140625 7.71875 1.703125 
L 7.71875 11.625 
Q 12.109375 9.234375 16.796875 8.0625 
Q 21.484375 6.890625 26.703125 6.890625 
Q 35.15625 6.890625 40.078125 11.328125 
Q 45.015625 15.765625 45.015625 23.390625 
Q 45.015625 31 40.078125 35.4375 
Q 35.15625 39.890625 26.703125 39.890625 
Q 22.75 39.890625 18.8125 39.015625 
Q 14.890625 38.140625 10.796875 36.28125 
z
" id="DejaVuSans-35"/>
     <path id="DejaVuSans-20"/>
     <path d="M 44.28125 53.078125 
L 44.28125 44.578125 
Q 40.484375 46.53125 36.375 47.5 
Q 32.28125 48.484375 27.875 48.484375 
Q 21.1875 48.484375 17.84375 46.4375 
Q 14.5 44.390625 14.5 40.28125 
Q 14.5 37.15625 16.890625 35.375 
Q 19.28125 33.59375 26.515625 31.984375 
L 29.59375 31.296875 
Q 39.15625 29.25 43.1875 25.515625 
Q 47.21875 21.78125 47.21875 15.09375 
Q 47.21875 7.46875 41.1875 3.015625 
Q 35.15625 -1.421875 24.609375 -1.421875 
Q 20.21875 -1.421875 15.453125 -0.5625 
Q 10.6875 0.296875 5.421875 2 
L 5.421875 11.28125 
Q 10.40625 8.6875 15.234375 7.390625 
Q 20.0625 6.109375 24.8125 6.109375 
Q 31.15625 6.109375 34.5625 8.28125 
Q 37.984375 10.453125 37.984375 14.40625 
Q 37.984375 18.0625 35.515625 20.015625 
Q 33.0625 21.96875 24.703125 23.78125 
L 21.578125 24.515625 
Q 13.234375 26.265625 9.515625 29.90625 
Q 5.8125 33.546875 5.8125 39.890625 
Q 5.8125 47.609375 11.28125 51.796875 
Q 16.75 56 26.8125 56 
Q 31.78125 56 36.171875 55.265625 
Q 40.578125 54.546875 44.28125 53.078125 
z
" id="DejaVuSans-73"/>
    </defs>
    <g transform="translate(153.717375 49.576506)scale(0.12 -0.12)">
     <use xlink:href="#DejaVuSans-54"/>
     <use x="61.037109" xlink:href="#DejaVuSans-69"/>
     <use x="88.820312" xlink:href="#DejaVuSans-6d"/>
     <use x="186.232422" xlink:href="#DejaVuSans-65"/>
     <use x="247.755859" xlink:href="#DejaVuSans-3a"/>
     <use x="281.447266" xlink:href="#DejaVuSans-30"/>
     <use x="345.070312" xlink:href="#DejaVuSans-2e"/>
     <use x="376.857422" xlink:href="#DejaVuSans-31"/>
     <use x="440.480469" xlink:href="#DejaVuSans-34"/>
     <use x="504.103516" xlink:href="#DejaVuSans-38"/>
     <use x="567.726562" xlink:href="#DejaVuSans-31"/>
     <use x="631.349609" xlink:href="#DejaVuSans-35"/>
     <use x="694.972656" xlink:href="#DejaVuSans-20"/>
     <use x="726.759766" xlink:href="#DejaVuSans-73"/>
    </g>
   </g>
  </g>
  <g id="axes_2">
   <g id="patch_7">
    <path clip-path="url(#p1dd29c4427)" d="M 361.152 307.584 
L 361.152 283.392 
L 361.152 65.664 
L 361.152 41.472 
L 374.4576 41.472 
L 374.4576 65.664 
L 374.4576 283.392 
L 374.4576 307.584 
z
" style="fill:#ffffff;stroke:#ffffff;stroke-linejoin:miter;stroke-width:0.01;"/>
   </g>
   <g id="matplotlib.axis_3"/>
   <g id="matplotlib.axis_4">
    <g id="ytick_5">
     <g id="line2d_10">
      <defs>
       <path d="M 0 0 
L 3.5 0 
" id="mf7e9d99a96" style="stroke:#000000;stroke-width:0.8;"/>
      </defs>
      <g>
       <use style="stroke:#000000;stroke-width:0.8;" x="374.4576" xlink:href="#mf7e9d99a96" y="307.584"/>
      </g>
     </g>
     <g id="text_11">
      <!-- 0.08 -->
      <g transform="translate(381.4576 311.383219)scale(0.1 -0.1)">
       <use xlink:href="#DejaVuSans-30"/>
       <use x="63.623047" xlink:href="#DejaVuSans-2e"/>
       <use x="95.410156" xlink:href="#DejaVuSans-30"/>
       <use x="159.033203" xlink:href="#DejaVuSans-38"/>
      </g>
     </g>
    </g>
    <g id="ytick_6">
     <g id="line2d_11">
      <g>
       <use style="stroke:#000000;stroke-width:0.8;" x="374.4576" xlink:href="#mf7e9d99a96" y="259.2"/>
      </g>
     </g>
     <g id="text_12">
      <!-- 0.24 -->
      <g transform="translate(381.4576 262.999219)scale(0.1 -0.1)">
       <use xlink:href="#DejaVuSans-30"/>
       <use x="63.623047" xlink:href="#DejaVuSans-2e"/>
       <use x="95.410156" xlink:href="#DejaVuSans-32"/>
       <use x="159.033203" xlink:href="#DejaVuSans-34"/>
      </g>
     </g>
    </g>
    <g id="ytick_7">
     <g id="line2d_12">
      <g>
       <use style="stroke:#000000;stroke-width:0.8;" x="374.4576" xlink:href="#mf7e9d99a96" y="210.816"/>
      </g>
     </g>
     <g id="text_13">
      <!-- 0.40 -->
      <g transform="translate(381.4576 214.615219)scale(0.1 -0.1)">
       <use xlink:href="#DejaVuSans-30"/>
       <use x="63.623047" xlink:href="#DejaVuSans-2e"/>
       <use x="95.410156" xlink:href="#DejaVuSans-34"/>
       <use x="159.033203" xlink:href="#DejaVuSans-30"/>
      </g>
     </g>
    </g>
    <g id="ytick_8">
     <g id="line2d_13">
      <g>
       <use style="stroke:#000000;stroke-width:0.8;" x="374.4576" xlink:href="#mf7e9d99a96" y="162.432"/>
      </g>
     </g>
     <g id="text_14">
      <!-- 0.56 -->
      <g transform="translate(381.4576 166.231219)scale(0.1 -0.1)">
       <use xlink:href="#DejaVuSans-30"/>
       <use x="63.623047" xlink:href="#DejaVuSans-2e"/>
       <use x="95.410156" xlink:href="#DejaVuSans-35"/>
       <use x="159.033203" xlink:href="#DejaVuSans-36"/>
      </g>
     </g>
    </g>
    <g id="ytick_9">
     <g id="line2d_14">
      <g>
       <use style="stroke:#000000;stroke-width:0.8;" x="374.4576" xlink:href="#mf7e9d99a96" y="114.048"/>
      </g>
     </g>
     <g id="text_15">
      <!-- 0.72 -->
      <defs>
       <path d="M 8.203125 72.90625 
L 55.078125 72.90625 
L 55.078125 68.703125 
L 28.609375 0 
L 18.3125 0 
L 43.21875 64.59375 
L 8.203125 64.59375 
z
" id="DejaVuSans-37"/>
      </defs>
      <g transform="translate(381.4576 117.847219)scale(0.1 -0.1)">
       <use xlink:href="#DejaVuSans-30"/>
       <use x="63.623047" xlink:href="#DejaVuSans-2e"/>
       <use x="95.410156" xlink:href="#DejaVuSans-37"/>
       <use x="159.033203" xlink:href="#DejaVuSans-32"/>
      </g>
     </g>
    </g>
    <g id="ytick_10">
     <g id="line2d_15">
      <g>
       <use style="stroke:#000000;stroke-width:0.8;" x="374.4576" xlink:href="#mf7e9d99a96" y="65.664"/>
      </g>
     </g>
     <g id="text_16">
      <!-- 0.88 -->
      <g transform="translate(381.4576 69.463219)scale(0.1 -0.1)">
       <use xlink:href="#DejaVuSans-30"/>
       <use x="63.623047" xlink:href="#DejaVuSans-2e"/>
       <use x="95.410156" xlink:href="#DejaVuSans-38"/>
       <use x="159.033203" xlink:href="#DejaVuSans-38"/>
      </g>
     </g>
    </g>
   </g>
   <g id="LineCollection_13">
    <path clip-path="url(#p1dd29c4427)" d="M 361.152 307.584 
L 374.4576 307.584 
" style="fill:none;stroke:#000080;stroke-width:1.5;"/>
    <path clip-path="url(#p1dd29c4427)" d="M 361.152 283.392 
L 374.4576 283.392 
" style="fill:none;stroke:#0000e8;stroke-width:1.5;"/>
    <path clip-path="url(#p1dd29c4427)" d="M 361.152 259.2 
L 374.4576 259.2 
" style="fill:none;stroke:#0038ff;stroke-width:1.5;"/>
    <path clip-path="url(#p1dd29c4427)" d="M 361.152 235.008 
L 374.4576 235.008 
" style="fill:none;stroke:#0094ff;stroke-width:1.5;"/>
    <path clip-path="url(#p1dd29c4427)" d="M 361.152 210.816 
L 374.4576 210.816 
" style="fill:none;stroke:#0cf4eb;stroke-width:1.5;"/>
    <path clip-path="url(#p1dd29c4427)" d="M 361.152 186.624 
L 374.4576 186.624 
" style="fill:none;stroke:#56ffa0;stroke-width:1.5;"/>
    <path clip-path="url(#p1dd29c4427)" d="M 361.152 162.432 
L 374.4576 162.432 
" style="fill:none;stroke:#a0ff56;stroke-width:1.5;"/>
    <path clip-path="url(#p1dd29c4427)" d="M 361.152 138.24 
L 374.4576 138.24 
" style="fill:none;stroke:#ebff0c;stroke-width:1.5;"/>
    <path clip-path="url(#p1dd29c4427)" d="M 361.152 114.048 
L 374.4576 114.048 
" style="fill:none;stroke:#ffab00;stroke-width:1.5;"/>
    <path clip-path="url(#p1dd29c4427)" d="M 361.152 89.856 
L 374.4576 89.856 
" style="fill:none;stroke:#ff5500;stroke-width:1.5;"/>
    <path clip-path="url(#p1dd29c4427)" d="M 361.152 65.664 
L 374.4576 65.664 
" style="fill:none;stroke:#e80000;stroke-width:1.5;"/>
    <path clip-path="url(#p1dd29c4427)" d="M 361.152 41.472 
L 374.4576 41.472 
" style="fill:none;stroke:#800000;stroke-width:1.5;"/>
   </g>
   <g id="patch_8">
    <path d="M 361.152 307.584 
L 361.152 283.392 
L 361.152 65.664 
L 361.152 41.472 
L 374.4576 41.472 
L 374.4576 65.664 
L 374.4576 283.392 
L 374.4576 307.584 
z
" style="fill:none;stroke:#000000;stroke-linejoin:miter;stroke-width:0.8;"/>
   </g>
  </g>
 </g>
 <defs>
  <clipPath id="pb053192d59">
   <rect height="237.902989" width="285.696" x="57.6" y="55.576506"/>
  </clipPath>
  <clipPath id="p1dd29c4427">
   <rect height="266.112" width="13.3056" x="361.152" y="41.472"/>
  </clipPath>
 </defs>
</svg>
