<?xml version="1.0" encoding="utf-8" standalone="no"?>
<!DOCTYPE svg PUBLIC "-//W3C//DTD SVG 1.1//EN"
  "http://www.w3.org/Graphics/SVG/1.1/DTD/svg11.dtd">
<!-- Created with matplotlib (http://matplotlib.org/) -->
<svg height="345.6pt" version="1.1" viewBox="0 0 460.8 345.6" width="460.8pt" xmlns="http://www.w3.org/2000/svg" xmlns:xlink="http://www.w3.org/1999/xlink">
 <defs>
  <style type="text/css">
*{stroke-linecap:butt;stroke-linejoin:round;}
  </style>
 </defs>
 <g id="figure_1">
  <g id="patch_1">
   <path d="M 0 345.6 
L 460.8 345.6 
L 460.8 0 
L 0 0 
z
" style="fill:#ffffff;"/>
  </g>
  <g id="axes_1">
   <g id="patch_2">
    <path d="M 57.6 293.479494 
L 343.296 293.479494 
L 343.296 55.576506 
L 57.6 55.576506 
z
" style="fill:#ffffff;"/>
   </g>
   <g id="matplotlib.axis_1">
    <g id="xtick_1">
     <g id="line2d_1">
      <defs>
       <path d="M 0 0 
L 0 3.5 
" id="m41347effe7" style="stroke:#000000;stroke-width:0.8;"/>
      </defs>
      <g>
       <use style="stroke:#000000;stroke-width:0.8;" x="104.861978" xlink:href="#m41347effe7" y="293.479494"/>
      </g>
     </g>
     <g id="text_1">
      <!-- 0.2 -->
      <defs>
       <path d="M 31.78125 66.40625 
Q 24.171875 66.40625 20.328125 58.90625 
Q 16.5 51.421875 16.5 36.375 
Q 16.5 21.390625 20.328125 13.890625 
Q 24.171875 6.390625 31.78125 6.390625 
Q 39.453125 6.390625 43.28125 13.890625 
Q 47.125 21.390625 47.125 36.375 
Q 47.125 51.421875 43.28125 58.90625 
Q 39.453125 66.40625 31.78125 66.40625 
z
M 31.78125 74.21875 
Q 44.046875 74.21875 50.515625 64.515625 
Q 56.984375 54.828125 56.984375 36.375 
Q 56.984375 17.96875 50.515625 8.265625 
Q 44.046875 -1.421875 31.78125 -1.421875 
Q 19.53125 -1.421875 13.0625 8.265625 
Q 6.59375 17.96875 6.59375 36.375 
Q 6.59375 54.828125 13.0625 64.515625 
Q 19.53125 74.21875 31.78125 74.21875 
z
" id="DejaVuSans-30"/>
       <path d="M 10.6875 12.40625 
L 21 12.40625 
L 21 0 
L 10.6875 0 
z
" id="DejaVuSans-2e"/>
       <path d="M 19.1875 8.296875 
L 53.609375 8.296875 
L 53.609375 0 
L 7.328125 0 
L 7.328125 8.296875 
Q 12.9375 14.109375 22.625 23.890625 
Q 32.328125 33.6875 34.8125 36.53125 
Q 39.546875 41.84375 41.421875 45.53125 
Q 43.3125 49.21875 43.3125 52.78125 
Q 43.3125 58.59375 39.234375 62.25 
Q 35.15625 65.921875 28.609375 65.921875 
Q 23.96875 65.921875 18.8125 64.3125 
Q 13.671875 62.703125 7.8125 59.421875 
L 7.8125 69.390625 
Q 13.765625 71.78125 18.9375 73 
Q 24.125 74.21875 28.421875 74.21875 
Q 39.75 74.21875 46.484375 68.546875 
Q 53.21875 62.890625 53.21875 53.421875 
Q 53.21875 48.921875 51.53125 44.890625 
Q 49.859375 40.875 45.40625 35.40625 
Q 44.1875 33.984375 37.640625 27.21875 
Q 31.109375 20.453125 19.1875 8.296875 
z
" id="DejaVuSans-32"/>
      </defs>
      <g transform="translate(96.910415 308.077932)scale(0.1 -0.1)">
       <use xlink:href="#DejaVuSans-30"/>
       <use x="63.623047" xlink:href="#DejaVuSans-2e"/>
       <use x="95.410156" xlink:href="#DejaVuSans-32"/>
      </g>
     </g>
    </g>
    <g id="xtick_2">
     <g id="line2d_2">
      <g>
       <use style="stroke:#000000;stroke-width:0.8;" x="152.654989" xlink:href="#m41347effe7" y="293.479494"/>
      </g>
     </g>
     <g id="text_2">
      <!-- 0.4 -->
      <defs>
       <path d="M 37.796875 64.3125 
L 12.890625 25.390625 
L 37.796875 25.390625 
z
M 35.203125 72.90625 
L 47.609375 72.90625 
L 47.609375 25.390625 
L 58.015625 25.390625 
L 58.015625 17.1875 
L 47.609375 17.1875 
L 47.609375 0 
L 37.796875 0 
L 37.796875 17.1875 
L 4.890625 17.1875 
L 4.890625 26.703125 
z
" id="DejaVuSans-34"/>
      </defs>
      <g transform="translate(144.703426 308.077932)scale(0.1 -0.1)">
       <use xlink:href="#DejaVuSans-30"/>
       <use x="63.623047" xlink:href="#DejaVuSans-2e"/>
       <use x="95.410156" xlink:href="#DejaVuSans-34"/>
      </g>
     </g>
    </g>
    <g id="xtick_3">
     <g id="line2d_3">
      <g>
       <use style="stroke:#000000;stroke-width:0.8;" x="200.448" xlink:href="#m41347effe7" y="293.479494"/>
      </g>
     </g>
     <g id="text_3">
      <!-- 0.6 -->
      <defs>
       <path d="M 33.015625 40.375 
Q 26.375 40.375 22.484375 35.828125 
Q 18.609375 31.296875 18.609375 23.390625 
Q 18.609375 15.53125 22.484375 10.953125 
Q 26.375 6.390625 33.015625 6.390625 
Q 39.65625 6.390625 43.53125 10.953125 
Q 47.40625 15.53125 47.40625 23.390625 
Q 47.40625 31.296875 43.53125 35.828125 
Q 39.65625 40.375 33.015625 40.375 
z
M 52.59375 71.296875 
L 52.59375 62.3125 
Q 48.875 64.0625 45.09375 64.984375 
Q 41.3125 65.921875 37.59375 65.921875 
Q 27.828125 65.921875 22.671875 59.328125 
Q 17.53125 52.734375 16.796875 39.40625 
Q 19.671875 43.65625 24.015625 45.921875 
Q 28.375 48.1875 33.59375 48.1875 
Q 44.578125 48.1875 50.953125 41.515625 
Q 57.328125 34.859375 57.328125 23.390625 
Q 57.328125 12.15625 50.6875 5.359375 
Q 44.046875 -1.421875 33.015625 -1.421875 
Q 20.359375 -1.421875 13.671875 8.265625 
Q 6.984375 17.96875 6.984375 36.375 
Q 6.984375 53.65625 15.1875 63.9375 
Q 23.390625 74.21875 37.203125 74.21875 
Q 40.921875 74.21875 44.703125 73.484375 
Q 48.484375 72.75 52.59375 71.296875 
z
" id="DejaVuSans-36"/>
      </defs>
      <g transform="translate(192.496438 308.077932)scale(0.1 -0.1)">
       <use xlink:href="#DejaVuSans-30"/>
       <use x="63.623047" xlink:href="#DejaVuSans-2e"/>
       <use x="95.410156" xlink:href="#DejaVuSans-36"/>
      </g>
     </g>
    </g>
    <g id="xtick_4">
     <g id="line2d_4">
      <g>
       <use style="stroke:#000000;stroke-width:0.8;" x="248.241011" xlink:href="#m41347effe7" y="293.479494"/>
      </g>
     </g>
     <g id="text_4">
      <!-- 0.8 -->
      <defs>
       <path d="M 31.78125 34.625 
Q 24.75 34.625 20.71875 30.859375 
Q 16.703125 27.09375 16.703125 20.515625 
Q 16.703125 13.921875 20.71875 10.15625 
Q 24.75 6.390625 31.78125 6.390625 
Q 38.8125 6.390625 42.859375 10.171875 
Q 46.921875 13.96875 46.921875 20.515625 
Q 46.921875 27.09375 42.890625 30.859375 
Q 38.875 34.625 31.78125 34.625 
z
M 21.921875 38.8125 
Q 15.578125 40.375 12.03125 44.71875 
Q 8.5 49.078125 8.5 55.328125 
Q 8.5 64.0625 14.71875 69.140625 
Q 20.953125 74.21875 31.78125 74.21875 
Q 42.671875 74.21875 48.875 69.140625 
Q 55.078125 64.0625 55.078125 55.328125 
Q 55.078125 49.078125 51.53125 44.71875 
Q 48 40.375 41.703125 38.8125 
Q 48.828125 37.15625 52.796875 32.3125 
Q 56.78125 27.484375 56.78125 20.515625 
Q 56.78125 9.90625 50.3125 4.234375 
Q 43.84375 -1.421875 31.78125 -1.421875 
Q 19.734375 -1.421875 13.25 4.234375 
Q 6.78125 9.90625 6.78125 20.515625 
Q 6.78125 27.484375 10.78125 32.3125 
Q 14.796875 37.15625 21.921875 38.8125 
z
M 18.3125 54.390625 
Q 18.3125 48.734375 21.84375 45.5625 
Q 25.390625 42.390625 31.78125 42.390625 
Q 38.140625 42.390625 41.71875 45.5625 
Q 45.3125 48.734375 45.3125 54.390625 
Q 45.3125 60.0625 41.71875 63.234375 
Q 38.140625 66.40625 31.78125 66.40625 
Q 25.390625 66.40625 21.84375 63.234375 
Q 18.3125 60.0625 18.3125 54.390625 
z
" id="DejaVuSans-38"/>
      </defs>
      <g transform="translate(240.289449 308.077932)scale(0.1 -0.1)">
       <use xlink:href="#DejaVuSans-30"/>
       <use x="63.623047" xlink:href="#DejaVuSans-2e"/>
       <use x="95.410156" xlink:href="#DejaVuSans-38"/>
      </g>
     </g>
    </g>
    <g id="xtick_5">
     <g id="line2d_5">
      <g>
       <use style="stroke:#000000;stroke-width:0.8;" x="296.034022" xlink:href="#m41347effe7" y="293.479494"/>
      </g>
     </g>
     <g id="text_5">
      <!-- 1.0 -->
      <defs>
       <path d="M 12.40625 8.296875 
L 28.515625 8.296875 
L 28.515625 63.921875 
L 10.984375 60.40625 
L 10.984375 69.390625 
L 28.421875 72.90625 
L 38.28125 72.90625 
L 38.28125 8.296875 
L 54.390625 8.296875 
L 54.390625 0 
L 12.40625 0 
z
" id="DejaVuSans-31"/>
      </defs>
      <g transform="translate(288.08246 308.077932)scale(0.1 -0.1)">
       <use xlink:href="#DejaVuSans-31"/>
       <use x="63.623047" xlink:href="#DejaVuSans-2e"/>
       <use x="95.410156" xlink:href="#DejaVuSans-30"/>
      </g>
     </g>
    </g>
   </g>
   <g id="matplotlib.axis_2">
    <g id="ytick_1">
     <g id="line2d_6">
      <defs>
       <path d="M 0 0 
L -3.5 0 
" id="m0ec0405f29" style="stroke:#000000;stroke-width:0.8;"/>
      </defs>
      <g>
       <use style="stroke:#000000;stroke-width:0.8;" x="57.6" xlink:href="#m0ec0405f29" y="246.217517"/>
      </g>
     </g>
     <g id="text_6">
      <!-- 0.2 -->
      <g transform="translate(34.696875 250.016735)scale(0.1 -0.1)">
       <use xlink:href="#DejaVuSans-30"/>
       <use x="63.623047" xlink:href="#DejaVuSans-2e"/>
       <use x="95.410156" xlink:href="#DejaVuSans-32"/>
      </g>
     </g>
    </g>
    <g id="ytick_2">
     <g id="line2d_7">
      <g>
       <use style="stroke:#000000;stroke-width:0.8;" x="57.6" xlink:href="#m0ec0405f29" y="198.424506"/>
      </g>
     </g>
     <g id="text_7">
      <!-- 0.4 -->
      <g transform="translate(34.696875 202.223724)scale(0.1 -0.1)">
       <use xlink:href="#DejaVuSans-30"/>
       <use x="63.623047" xlink:href="#DejaVuSans-2e"/>
       <use x="95.410156" xlink:href="#DejaVuSans-34"/>
      </g>
     </g>
    </g>
    <g id="ytick_3">
     <g id="line2d_8">
      <g>
       <use style="stroke:#000000;stroke-width:0.8;" x="57.6" xlink:href="#m0ec0405f29" y="150.631494"/>
      </g>
     </g>
     <g id="text_8">
      <!-- 0.6 -->
      <g transform="translate(34.696875 154.430713)scale(0.1 -0.1)">
       <use xlink:href="#DejaVuSans-30"/>
       <use x="63.623047" xlink:href="#DejaVuSans-2e"/>
       <use x="95.410156" xlink:href="#DejaVuSans-36"/>
      </g>
     </g>
    </g>
    <g id="ytick_4">
     <g id="line2d_9">
      <g>
       <use style="stroke:#000000;stroke-width:0.8;" x="57.6" xlink:href="#m0ec0405f29" y="102.838483"/>
      </g>
     </g>
     <g id="text_9">
      <!-- 0.8 -->
      <g transform="translate(34.696875 106.637702)scale(0.1 -0.1)">
       <use xlink:href="#DejaVuSans-30"/>
       <use x="63.623047" xlink:href="#DejaVuSans-2e"/>
       <use x="95.410156" xlink:href="#DejaVuSans-38"/>
      </g>
     </g>
    </g>
   </g>
   <g id="LineCollection_1">
    <path clip-path="url(#p05fedfbe71)" d="M 116.114131 293.479494 
L 115.887701 292.417428 
L 115.531539 291.355361 
L 114.94791 290.293294 
L 113.889546 289.147427 
L 112.404901 288.16916 
L 110.703346 287.520157 
L 108.579212 286.972361 
L 105.393011 286.547965 
L 101.144743 286.276039 
L 85.21374 285.586802 
L 82.027539 285.15013 
L 78.841338 284.471199 
L 76.717204 283.809402 
L 74.498876 282.858825 
L 72.468937 281.647146 
L 71.304186 280.734691 
L 70.202139 279.672625 
L 69.282736 278.599513 
L 67.880483 276.486424 
L 66.812223 274.36229 
L 65.970031 272.238156 
L 64.9992 269.051955 
L 64.066493 264.803688 
L 63.401241 260.55542 
L 62.795022 255.245086 
L 62.207713 247.810617 
L 61.602991 237.189948 
L 60.771252 218.072743 
L 60.040644 195.769338 
L 59.396632 169.217665 
L 58.757093 133.10739 
L 58.172483 87.438513 
L 57.905799 55.576506 
L 57.905799 55.576506 
" style="fill:none;stroke:#000080;stroke-width:1.5;"/>
   </g>
   <g id="LineCollection_2">
    <path clip-path="url(#p05fedfbe71)" d="M 285.958028 293.479494 
L 286.322435 291.355361 
L 286.901786 288.16916 
L 287.027444 286.045026 
L 286.9256 282.858825 
L 286.317007 276.486424 
L 285.331463 267.989888 
L 284.35224 260.55542 
L 283.34447 254.183019 
L 282.277291 248.872684 
L 281.473441 245.686483 
L 280.41333 242.500283 
L 279.472113 240.376149 
L 278.509918 238.774994 
L 277.022847 237.189948 
L 276.385784 236.684891 
L 275.323717 236.117923 
L 274.261651 235.757384 
L 272.137517 235.410934 
L 268.951316 235.337542 
L 244.523777 235.730253 
L 227.530706 235.961583 
L 214.785903 236.378391 
L 192.482498 237.227169 
L 186.110097 237.217978 
L 179.737695 236.986277 
L 173.365294 236.526485 
L 165.930825 235.761344 
L 145.751554 233.528909 
L 139.379152 233.124413 
L 134.068818 232.982959 
L 128.758483 233.031697 
L 122.386082 233.325336 
L 116.01368 233.836247 
L 110.703346 234.450772 
L 107.004986 235.065814 
L 104.330944 235.721914 
L 102.20681 236.460053 
L 100.082677 237.513127 
L 98.955698 238.252015 
L 97.683123 239.314082 
L 96.665739 240.376149 
L 95.826972 241.438216 
L 94.559404 243.562349 
L 93.650365 245.686483 
L 93.024162 247.810617 
L 92.604682 249.934751 
L 92.303746 253.120952 
L 92.048714 259.493353 
L 91.653231 261.617487 
L 91.29312 262.679554 
L 90.524074 264.139075 
L 90.059157 264.803688 
L 89.037226 265.865755 
L 87.493127 266.927822 
L 86.275807 267.442848 
L 85.21374 267.745504 
L 84.151673 267.911547 
L 83.089606 267.940601 
L 82.027539 267.834399 
L 80.965472 267.595402 
L 79.286441 266.927822 
L 78.841338 266.70415 
L 77.60019 265.865755 
L 76.409647 264.803688 
L 75.446197 263.741621 
L 74.593071 262.631892 
L 73.348981 260.55542 
L 72.3219 258.431286 
L 71.114863 255.245086 
L 70.14738 252.058885 
L 68.900349 246.74855 
L 67.913983 241.438216 
L 66.80363 234.003747 
L 65.653478 224.445145 
L 64.61823 213.824476 
L 63.619459 201.079673 
L 62.631766 185.148669 
L 61.653965 164.969398 
L 60.694412 139.479792 
L 59.768991 107.617784 
L 58.71927 63.010974 
L 58.701019 57.700639 
L 58.748178 55.576506 
L 58.748178 55.576506 
" style="fill:none;stroke:#0000e8;stroke-width:1.5;"/>
   </g>
   <g id="LineCollection_3">
    <path clip-path="url(#p05fedfbe71)" d="M 290.062787 293.479494 
L 290.474085 288.16916 
L 290.446858 284.982959 
L 290.093172 278.610558 
L 288.377609 254.183019 
L 287.389292 241.438216 
L 286.504402 231.879613 
L 285.543735 223.383078 
L 284.470706 215.94861 
L 283.476776 210.638275 
L 282.423643 206.390007 
L 281.335328 203.203807 
L 280.304934 201.079673 
L 279.571985 199.943434 
L 278.509918 198.907001 
L 277.447851 198.337126 
L 276.385784 198.107896 
L 275.323717 198.117241 
L 273.199584 198.545557 
L 266.827182 200.320222 
L 263.640981 200.853315 
L 260.454781 201.147603 
L 256.206513 201.308969 
L 247.709978 201.340242 
L 212.66177 201.373795 
L 185.04803 201.545454 
L 162.744625 201.945902 
L 137.255019 202.342838 
L 126.634349 202.346771 
L 121.324015 202.140381 
L 117.075747 201.790521 
L 111.765413 201.099757 
L 102.20681 199.697732 
L 99.02061 199.55021 
L 96.896476 199.679008 
L 94.772342 200.067147 
L 92.648208 200.795903 
L 91.586141 201.313433 
L 89.462007 202.708413 
L 87.709907 204.265874 
L 86.275807 205.799195 
L 84.133013 208.514141 
L 79.412031 214.886543 
L 78.388633 215.94861 
L 77.779271 216.500161 
L 76.717204 217.126857 
L 75.655138 217.33509 
L 74.559872 217.010677 
L 73.394015 215.94861 
L 72.468937 214.583251 
L 71.232438 211.700342 
L 70.227377 208.514141 
L 68.991066 203.203807 
L 67.853564 196.831405 
L 66.801957 189.396937 
L 65.719366 179.838335 
L 64.655277 168.155599 
L 63.565505 153.286662 
L 62.49961 135.231524 
L 61.441929 112.928119 
L 60.392783 85.314379 
L 59.547909 58.762706 
L 59.642632 55.576506 
L 59.642632 55.576506 
" style="fill:none;stroke:#0038ff;stroke-width:1.5;"/>
   </g>
   <g id="LineCollection_4">
    <path clip-path="url(#p05fedfbe71)" d="M 292.322824 293.479494 
L 292.445951 284.982959 
L 292.110954 277.548491 
L 288.805668 217.010677 
L 287.598503 202.14174 
L 286.494718 191.521071 
L 285.521274 184.086602 
L 284.458966 177.714201 
L 283.555603 173.465933 
L 282.7014 170.279732 
L 281.469786 167.093532 
L 280.634052 165.536301 
L 279.571985 164.3137 
L 278.509918 163.700217 
L 277.447851 163.560966 
L 276.090023 163.907331 
L 275.323717 164.243179 
L 273.199584 165.597829 
L 269.50774 168.155599 
L 267.666464 169.217665 
L 265.765115 170.096711 
L 263.640981 170.812533 
L 261.178088 171.341799 
L 259.392714 171.577608 
L 256.206513 171.760883 
L 251.958245 171.747416 
L 234.965175 171.446667 
L 106.455078 171.080035 
L 96.896476 170.893187 
L 93.710275 171.073222 
L 91.586141 171.368644 
L 89.462007 171.868916 
L 87.337874 172.631568 
L 85.21374 173.706016 
L 83.089606 175.103052 
L 77.779271 179.079986 
L 76.717204 179.573831 
L 75.655138 179.775406 
L 74.593071 179.576802 
L 73.466561 178.776268 
L 72.468937 177.499056 
L 71.115606 174.528 
L 70.092948 171.341799 
L 69.061968 167.093532 
L 67.886004 160.72113 
L 66.808049 153.286662 
L 65.699233 143.728059 
L 64.604743 132.045323 
L 63.478731 117.176387 
L 62.434208 100.183316 
L 60.783467 68.321309 
L 60.495002 60.88684 
L 60.539404 57.700639 
L 60.641356 55.576506 
L 60.641356 55.576506 
" style="fill:none;stroke:#0094ff;stroke-width:1.5;"/>
   </g>
   <g id="LineCollection_5">
    <path clip-path="url(#p05fedfbe71)" d="M 294.026429 293.479494 
L 293.942141 281.796758 
L 292.848941 252.058885 
L 291.631848 222.321011 
L 290.661192 203.203807 
L 289.670608 187.272803 
L 288.605954 173.465933 
L 287.579671 162.845264 
L 286.546111 154.348729 
L 285.56692 147.976327 
L 284.517763 142.665993 
L 283.733107 139.479792 
L 282.684038 136.293591 
L 281.696119 134.134197 
L 280.634052 132.622482 
L 279.571985 131.786025 
L 278.509918 131.50905 
L 277.447851 131.686791 
L 276.385784 132.2245 
L 275.247749 133.10739 
L 273.138639 135.231524 
L 268.951316 139.77134 
L 266.827182 141.667508 
L 264.703048 143.144793 
L 262.578914 144.207774 
L 260.454781 144.904499 
L 258.330647 145.300697 
L 256.206513 145.462216 
L 253.020312 145.399667 
L 248.772045 145.013392 
L 241.337576 144.275929 
L 236.027242 144.021592 
L 230.716907 144.000728 
L 200.979033 144.286013 
L 164.868758 144.253 
L 99.02061 144.236568 
L 92.648208 144.33973 
L 89.462007 144.575084 
L 86.275807 145.060993 
L 83.21732 145.852193 
L 80.965472 146.626017 
L 77.779271 147.698558 
L 76.717204 147.892584 
L 75.655138 147.894947 
L 74.593071 147.611939 
L 73.517197 146.91426 
L 72.468937 145.723505 
L 71.359293 143.728059 
L 70.168707 140.541859 
L 69.025299 136.293591 
L 67.941885 130.983257 
L 66.774548 123.548788 
L 65.718798 115.052253 
L 64.563255 103.369517 
L 63.463713 89.562647 
L 61.715315 64.073041 
L 61.6054 59.824773 
L 61.818736 55.576506 
L 61.818736 55.576506 
" style="fill:none;stroke:#0cf4eb;stroke-width:1.5;"/>
   </g>
   <g id="LineCollection_6">
    <path clip-path="url(#p05fedfbe71)" d="M 295.548149 293.479494 
L 295.304895 276.486424 
L 294.23137 239.314082 
L 293.111627 207.452074 
L 292.023567 183.024535 
L 290.943489 163.907331 
L 289.872752 149.038394 
L 288.794466 137.355658 
L 287.795164 128.859123 
L 286.665224 121.424654 
L 285.617902 116.11432 
L 284.519229 111.866052 
L 283.405202 108.679851 
L 282.371114 106.555717 
L 281.696119 105.475579 
L 280.634052 104.414868 
L 279.571985 103.906068 
L 278.509918 103.866791 
L 277.125428 104.431584 
L 276.385784 104.906024 
L 274.663684 106.555717 
L 273.199584 108.253991 
L 267.821168 115.052253 
L 265.765115 117.245224 
L 263.640981 119.074662 
L 261.516848 120.433822 
L 259.392714 121.344293 
L 257.26858 121.857174 
L 255.144446 122.037307 
L 253.020312 121.955048 
L 250.896178 121.678806 
L 247.709978 121.039704 
L 239.213442 119.162385 
L 234.965175 118.551929 
L 230.716907 118.241517 
L 226.468639 118.187171 
L 220.096238 118.395681 
L 204.165234 119.072071 
L 192.482498 119.270787 
L 164.868758 119.424643 
L 117.075747 119.752922 
L 89.462007 120.098866 
L 85.155329 120.362587 
L 77.779271 121.042868 
L 76.717204 120.994641 
L 75.655138 120.804048 
L 74.540446 120.362587 
L 73.531004 119.682531 
L 72.282494 118.238454 
L 71.40687 116.827424 
L 70.221625 113.990186 
L 68.983024 109.741918 
L 67.844392 104.431584 
L 66.793087 98.059182 
L 65.691992 89.562647 
L 64.471183 77.879911 
L 63.303227 65.135108 
L 63.089605 60.88684 
L 63.167809 58.762706 
L 63.453666 55.576506 
L 63.453666 55.576506 
" style="fill:none;stroke:#56ffa0;stroke-width:1.5;"/>
   </g>
   <g id="LineCollection_7">
    <path clip-path="url(#p05fedfbe71)" d="M 300.728748 293.479494 
L 300.62122 287.107093 
L 300.299176 280.734691 
L 299.692685 273.300223 
L 298.480798 261.617487 
L 296.447962 242.500283 
L 295.089896 207.452074 
L 294.081288 178.776268 
L 293.087177 156.472862 
L 292.053645 138.417725 
L 291.028271 124.610855 
L 289.894369 112.928119 
L 288.834158 104.431584 
L 287.826268 98.059182 
L 286.733625 92.748848 
L 285.555614 88.50058 
L 284.814585 86.376446 
L 283.820253 84.145604 
L 282.604528 82.128178 
L 281.696119 80.958323 
L 280.634052 79.934123 
L 279.030835 78.941978 
L 278.509918 78.703515 
L 277.447851 78.41962 
L 276.385784 78.32226 
L 275.323717 78.404365 
L 273.534933 78.941978 
L 273.199584 79.091026 
L 271.757324 80.004045 
L 270.567325 81.066112 
L 269.639283 82.128178 
L 268.205886 84.252312 
L 266.827182 86.851968 
L 264.408813 91.686781 
L 263.120415 93.810914 
L 262.362852 94.872981 
L 261.491062 95.935048 
L 260.4451 96.997115 
L 259.120479 98.059182 
L 257.26858 99.148784 
L 255.144446 99.923862 
L 253.020312 100.338173 
L 250.896178 100.49159 
L 247.709978 100.405652 
L 243.46171 99.969389 
L 223.282439 97.416504 
L 216.910037 96.9299 
L 209.475569 96.607188 
L 200.979033 96.491394 
L 186.110097 96.576475 
L 169.117026 96.600546 
L 151.061888 96.37434 
L 78.841338 95.025114 
L 76.717204 94.65709 
L 75.655138 94.297074 
L 74.593071 93.746503 
L 73.383396 92.748848 
L 72.458362 91.686781 
L 71.233505 89.562647 
L 70.315771 87.438513 
L 69.045838 83.190245 
L 67.879934 77.879911 
L 66.792239 71.507509 
L 65.948377 65.135108 
L 65.786126 61.948907 
L 65.870377 59.824773 
L 66.342274 55.576506 
L 66.342274 55.576506 
" style="fill:none;stroke:#a0ff56;stroke-width:1.5;"/>
   </g>
   <g id="LineCollection_8">
    <path clip-path="url(#p05fedfbe71)" d="M 308.240324 293.479494 
L 308.098142 284.982959 
L 307.714672 276.486424 
L 306.978196 265.865755 
L 305.774143 252.058885 
L 303.999524 234.382322 
L 302.041875 217.010677 
L 300.039147 201.079673 
L 297.956222 186.210736 
L 296.482093 175.590067 
L 294.978372 145.852193 
L 294.088634 127.797056 
L 293.148185 112.928119 
L 292.110821 100.183316 
L 291.201632 91.686781 
L 290.249763 85.314379 
L 289.598444 82.128178 
L 288.77005 78.941978 
L 288.06852 76.81019 
L 287.006454 74.381686 
L 285.944387 72.567175 
L 284.88232 71.205791 
L 283.820253 70.158674 
L 282.758186 69.345934 
L 280.812408 68.321309 
L 279.571985 67.887146 
L 277.447851 67.426958 
L 275.323717 67.242659 
L 273.199584 67.274998 
L 271.07545 67.485816 
L 267.889249 68.077575 
L 264.703048 68.965435 
L 261.516848 70.107825 
L 258.213877 71.507509 
L 247.709978 76.288233 
L 244.523777 77.335649 
L 242.164154 77.879911 
L 240.275509 78.174213 
L 237.089309 78.393531 
L 233.903108 78.32072 
L 230.716907 78.022465 
L 226.468639 77.364451 
L 221.158305 76.308185 
L 197.792833 71.428014 
L 183.985963 68.568813 
L 179.737695 67.490176 
L 176.551494 66.539458 
L 174.427361 65.808544 
L 172.303227 64.973774 
L 170.179093 63.96039 
L 168.054959 62.621244 
L 166.992892 61.754001 
L 165.930825 60.53378 
L 165.464617 59.824773 
L 165.035844 58.762706 
L 164.824574 57.700639 
L 164.834386 55.576506 
L 164.834386 55.576506 
" style="fill:none;stroke:#ebff0c;stroke-width:1.5;"/>
   </g>
   <g id="LineCollection_9">
    <path clip-path="url(#p05fedfbe71)" d="M 315.954722 293.479494 
L 315.831667 283.920892 
L 315.456075 273.300223 
L 314.755383 260.55542 
L 313.642031 244.624416 
L 312.079724 225.507212 
L 310.294292 206.390007 
L 308.491815 189.396937 
L 306.708234 174.528 
L 304.833303 160.72113 
L 302.937457 148.424401 
L 301.196995 138.417725 
L 299.327909 128.859123 
L 297.459568 120.362587 
L 296.523022 116.11432 
L 294.763696 93.810914 
L 293.999952 85.314379 
L 293.338018 80.004045 
L 292.59777 75.755777 
L 291.830343 72.569576 
L 291.151871 70.445442 
L 290.192654 68.227567 
L 288.929172 66.197175 
L 288.043653 65.135108 
L 286.90899 64.073041 
L 284.88232 62.657992 
L 282.758186 61.563948 
L 276.385784 58.684241 
L 275.247783 57.700639 
L 274.758566 56.638572 
L 274.774143 55.576506 
L 274.774143 55.576506 
" style="fill:none;stroke:#ffab00;stroke-width:1.5;"/>
   </g>
   <g id="LineCollection_10">
    <path clip-path="url(#p05fedfbe71)" d="M 323.818282 293.479494 
L 323.700851 281.796758 
L 323.351231 269.051955 
L 322.67866 253.120952 
L 321.591463 232.94168 
L 320.165491 210.638275 
L 318.662874 190.459004 
L 317.101532 172.403866 
L 315.497001 156.472862 
L 313.876118 142.665993 
L 312.286868 130.983257 
L 310.620491 120.362587 
L 308.894347 110.803985 
L 307.133195 102.30745 
L 305.366314 94.872981 
L 303.626761 88.50058 
L 301.87539 82.947944 
L 300.421682 78.941978 
L 298.625551 74.69371 
L 297.018823 71.507509 
L 296.510903 70.445442 
L 295.744396 67.259242 
L 295.459657 66.197175 
L 294.736337 63.010974 
L 293.378855 58.591215 
L 292.469963 55.576506 
L 292.469963 55.576506 
" style="fill:none;stroke:#ff5500;stroke-width:1.5;"/>
   </g>
   <g id="LineCollection_11">
    <path clip-path="url(#p05fedfbe71)" d="M 331.782791 293.479494 
L 331.662641 277.548491 
L 331.295752 259.493353 
L 330.590578 236.127881 
L 329.537997 208.514141 
L 328.356892 183.024535 
L 327.165554 161.783197 
L 326.010149 144.790126 
L 324.705509 128.859123 
L 323.450727 116.11432 
L 322.054662 104.110701 
L 320.508213 92.748848 
L 318.376946 78.941978 
L 316.808191 68.321309 
L 316.23178 63.010974 
L 315.967732 58.762706 
L 315.913453 55.576506 
L 315.913453 55.576506 
" style="fill:none;stroke:#e80000;stroke-width:1.5;"/>
   </g>
   <g id="LineCollection_12">
    <path clip-path="url(#p05fedfbe71)" d="M 339.805909 293.479494 
L 339.691819 265.865755 
L 339.261174 223.383078 
L 338.562453 176.652134 
L 337.822444 141.603926 
L 337.112032 117.176387 
L 335.941 88.50058 
L 335.168809 71.507509 
L 334.901277 60.88684 
L 334.867825 55.576506 
L 334.867825 55.576506 
" style="fill:none;stroke:#800000;stroke-width:1.5;"/>
   </g>
   <g id="patch_3">
    <path d="M 57.6 293.479494 
L 57.6 55.576506 
" style="fill:none;stroke:#000000;stroke-linecap:square;stroke-linejoin:miter;stroke-width:0.8;"/>
   </g>
   <g id="patch_4">
    <path d="M 343.296 293.479494 
L 343.296 55.576506 
" style="fill:none;stroke:#000000;stroke-linecap:square;stroke-linejoin:miter;stroke-width:0.8;"/>
   </g>
   <g id="patch_5">
    <path d="M 57.6 293.479494 
L 343.296 293.479494 
" style="fill:none;stroke:#000000;stroke-linecap:square;stroke-linejoin:miter;stroke-width:0.8;"/>
   </g>
   <g id="patch_6">
    <path d="M 57.6 55.576506 
L 343.296 55.576506 
" style="fill:none;stroke:#000000;stroke-linecap:square;stroke-linejoin:miter;stroke-width:0.8;"/>
   </g>
   <g id="text_10">
    <!-- Time:0.15473 s -->
    <defs>
     <path d="M -0.296875 72.90625 
L 61.375 72.90625 
L 61.375 64.59375 
L 35.5 64.59375 
L 35.5 0 
L 25.59375 0 
L 25.59375 64.59375 
L -0.296875 64.59375 
z
" id="DejaVuSans-54"/>
     <path d="M 9.421875 54.6875 
L 18.40625 54.6875 
L 18.40625 0 
L 9.421875 0 
z
M 9.421875 75.984375 
L 18.40625 75.984375 
L 18.40625 64.59375 
L 9.421875 64.59375 
z
" id="DejaVuSans-69"/>
     <path d="M 52 44.1875 
Q 55.375 50.25 60.0625 53.125 
Q 64.75 56 71.09375 56 
Q 79.640625 56 84.28125 50.015625 
Q 88.921875 44.046875 88.921875 33.015625 
L 88.921875 0 
L 79.890625 0 
L 79.890625 32.71875 
Q 79.890625 40.578125 77.09375 44.375 
Q 74.3125 48.1875 68.609375 48.1875 
Q 61.625 48.1875 57.5625 43.546875 
Q 53.515625 38.921875 53.515625 30.90625 
L 53.515625 0 
L 44.484375 0 
L 44.484375 32.71875 
Q 44.484375 40.625 41.703125 44.40625 
Q 38.921875 48.1875 33.109375 48.1875 
Q 26.21875 48.1875 22.15625 43.53125 
Q 18.109375 38.875 18.109375 30.90625 
L 18.109375 0 
L 9.078125 0 
L 9.078125 54.6875 
L 18.109375 54.6875 
L 18.109375 46.1875 
Q 21.1875 51.21875 25.484375 53.609375 
Q 29.78125 56 35.6875 56 
Q 41.65625 56 45.828125 52.96875 
Q 50 49.953125 52 44.1875 
z
" id="DejaVuSans-6d"/>
     <path d="M 56.203125 29.59375 
L 56.203125 25.203125 
L 14.890625 25.203125 
Q 15.484375 15.921875 20.484375 11.0625 
Q 25.484375 6.203125 34.421875 6.203125 
Q 39.59375 6.203125 44.453125 7.46875 
Q 49.3125 8.734375 54.109375 11.28125 
L 54.109375 2.78125 
Q 49.265625 0.734375 44.1875 -0.34375 
Q 39.109375 -1.421875 33.890625 -1.421875 
Q 20.796875 -1.421875 13.15625 6.1875 
Q 5.515625 13.8125 5.515625 26.8125 
Q 5.515625 40.234375 12.765625 48.109375 
Q 20.015625 56 32.328125 56 
Q 43.359375 56 49.78125 48.890625 
Q 56.203125 41.796875 56.203125 29.59375 
z
M 47.21875 32.234375 
Q 47.125 39.59375 43.09375 43.984375 
Q 39.0625 48.390625 32.421875 48.390625 
Q 24.90625 48.390625 20.390625 44.140625 
Q 15.875 39.890625 15.1875 32.171875 
z
" id="DejaVuSans-65"/>
     <path d="M 11.71875 12.40625 
L 22.015625 12.40625 
L 22.015625 0 
L 11.71875 0 
z
M 11.71875 51.703125 
L 22.015625 51.703125 
L 22.015625 39.3125 
L 11.71875 39.3125 
z
" id="DejaVuSans-3a"/>
     <path d="M 10.796875 72.90625 
L 49.515625 72.90625 
L 49.515625 64.59375 
L 19.828125 64.59375 
L 19.828125 46.734375 
Q 21.96875 47.46875 24.109375 47.828125 
Q 26.265625 48.1875 28.421875 48.1875 
Q 40.625 48.1875 47.75 41.5 
Q 54.890625 34.8125 54.890625 23.390625 
Q 54.890625 11.625 47.5625 5.09375 
Q 40.234375 -1.421875 26.90625 -1.421875 
Q 22.3125 -1.421875 17.546875 -0.640625 
Q 12.796875 0.140625 7.71875 1.703125 
L 7.71875 11.625 
Q 12.109375 9.234375 16.796875 8.0625 
Q 21.484375 6.890625 26.703125 6.890625 
Q 35.15625 6.890625 40.078125 11.328125 
Q 45.015625 15.765625 45.015625 23.390625 
Q 45.015625 31 40.078125 35.4375 
Q 35.15625 39.890625 26.703125 39.890625 
Q 22.75 39.890625 18.8125 39.015625 
Q 14.890625 38.140625 10.796875 36.28125 
z
" id="DejaVuSans-35"/>
     <path d="M 8.203125 72.90625 
L 55.078125 72.90625 
L 55.078125 68.703125 
L 28.609375 0 
L 18.3125 0 
L 43.21875 64.59375 
L 8.203125 64.59375 
z
" id="DejaVuSans-37"/>
     <path d="M 40.578125 39.3125 
Q 47.65625 37.796875 51.625 33 
Q 55.609375 28.21875 55.609375 21.1875 
Q 55.609375 10.40625 48.1875 4.484375 
Q 40.765625 -1.421875 27.09375 -1.421875 
Q 22.515625 -1.421875 17.65625 -0.515625 
Q 12.796875 0.390625 7.625 2.203125 
L 7.625 11.71875 
Q 11.71875 9.328125 16.59375 8.109375 
Q 21.484375 6.890625 26.8125 6.890625 
Q 36.078125 6.890625 40.9375 10.546875 
Q 45.796875 14.203125 45.796875 21.1875 
Q 45.796875 27.640625 41.28125 31.265625 
Q 36.765625 34.90625 28.71875 34.90625 
L 20.21875 34.90625 
L 20.21875 43.015625 
L 29.109375 43.015625 
Q 36.375 43.015625 40.234375 45.921875 
Q 44.09375 48.828125 44.09375 54.296875 
Q 44.09375 59.90625 40.109375 62.90625 
Q 36.140625 65.921875 28.71875 65.921875 
Q 24.65625 65.921875 20.015625 65.03125 
Q 15.375 64.15625 9.8125 62.3125 
L 9.8125 71.09375 
Q 15.4375 72.65625 20.34375 73.4375 
Q 25.25 74.21875 29.59375 74.21875 
Q 40.828125 74.21875 47.359375 69.109375 
Q 53.90625 64.015625 53.90625 55.328125 
Q 53.90625 49.265625 50.4375 45.09375 
Q 46.96875 40.921875 40.578125 39.3125 
z
" id="DejaVuSans-33"/>
     <path id="DejaVuSans-20"/>
     <path d="M 44.28125 53.078125 
L 44.28125 44.578125 
Q 40.484375 46.53125 36.375 47.5 
Q 32.28125 48.484375 27.875 48.484375 
Q 21.1875 48.484375 17.84375 46.4375 
Q 14.5 44.390625 14.5 40.28125 
Q 14.5 37.15625 16.890625 35.375 
Q 19.28125 33.59375 26.515625 31.984375 
L 29.59375 31.296875 
Q 39.15625 29.25 43.1875 25.515625 
Q 47.21875 21.78125 47.21875 15.09375 
Q 47.21875 7.46875 41.1875 3.015625 
Q 35.15625 -1.421875 24.609375 -1.421875 
Q 20.21875 -1.421875 15.453125 -0.5625 
Q 10.6875 0.296875 5.421875 2 
L 5.421875 11.28125 
Q 10.40625 8.6875 15.234375 7.390625 
Q 20.0625 6.109375 24.8125 6.109375 
Q 31.15625 6.109375 34.5625 8.28125 
Q 37.984375 10.453125 37.984375 14.40625 
Q 37.984375 18.0625 35.515625 20.015625 
Q 33.0625 21.96875 24.703125 23.78125 
L 21.578125 24.515625 
Q 13.234375 26.265625 9.515625 29.90625 
Q 5.8125 33.546875 5.8125 39.890625 
Q 5.8125 47.609375 11.28125 51.796875 
Q 16.75 56 26.8125 56 
Q 31.78125 56 36.171875 55.265625 
Q 40.578125 54.546875 44.28125 53.078125 
z
" id="DejaVuSans-73"/>
    </defs>
    <g transform="translate(153.717375 49.576506)scale(0.12 -0.12)">
     <use xlink:href="#DejaVuSans-54"/>
     <use x="61.037109" xlink:href="#DejaVuSans-69"/>
     <use x="88.820312" xlink:href="#DejaVuSans-6d"/>
     <use x="186.232422" xlink:href="#DejaVuSans-65"/>
     <use x="247.755859" xlink:href="#DejaVuSans-3a"/>
     <use x="281.447266" xlink:href="#DejaVuSans-30"/>
     <use x="345.070312" xlink:href="#DejaVuSans-2e"/>
     <use x="376.857422" xlink:href="#DejaVuSans-31"/>
     <use x="440.480469" xlink:href="#DejaVuSans-35"/>
     <use x="504.103516" xlink:href="#DejaVuSans-34"/>
     <use x="567.726562" xlink:href="#DejaVuSans-37"/>
     <use x="631.349609" xlink:href="#DejaVuSans-33"/>
     <use x="694.972656" xlink:href="#DejaVuSans-20"/>
     <use x="726.759766" xlink:href="#DejaVuSans-73"/>
    </g>
   </g>
  </g>
  <g id="axes_2">
   <g id="patch_7">
    <path clip-path="url(#pd418dbe59e)" d="M 361.152 307.584 
L 361.152 283.392 
L 361.152 65.664 
L 361.152 41.472 
L 374.4576 41.472 
L 374.4576 65.664 
L 374.4576 283.392 
L 374.4576 307.584 
z
" style="fill:#ffffff;stroke:#ffffff;stroke-linejoin:miter;stroke-width:0.01;"/>
   </g>
   <g id="matplotlib.axis_3"/>
   <g id="matplotlib.axis_4">
    <g id="ytick_5">
     <g id="line2d_10">
      <defs>
       <path d="M 0 0 
L 3.5 0 
" id="m53c0f5f6fc" style="stroke:#000000;stroke-width:0.8;"/>
      </defs>
      <g>
       <use style="stroke:#000000;stroke-width:0.8;" x="374.4576" xlink:href="#m53c0f5f6fc" y="307.584"/>
      </g>
     </g>
     <g id="text_11">
      <!-- 0.08 -->
      <g transform="translate(381.4576 311.383219)scale(0.1 -0.1)">
       <use xlink:href="#DejaVuSans-30"/>
       <use x="63.623047" xlink:href="#DejaVuSans-2e"/>
       <use x="95.410156" xlink:href="#DejaVuSans-30"/>
       <use x="159.033203" xlink:href="#DejaVuSans-38"/>
      </g>
     </g>
    </g>
    <g id="ytick_6">
     <g id="line2d_11">
      <g>
       <use style="stroke:#000000;stroke-width:0.8;" x="374.4576" xlink:href="#m53c0f5f6fc" y="259.2"/>
      </g>
     </g>
     <g id="text_12">
      <!-- 0.24 -->
      <g transform="translate(381.4576 262.999219)scale(0.1 -0.1)">
       <use xlink:href="#DejaVuSans-30"/>
       <use x="63.623047" xlink:href="#DejaVuSans-2e"/>
       <use x="95.410156" xlink:href="#DejaVuSans-32"/>
       <use x="159.033203" xlink:href="#DejaVuSans-34"/>
      </g>
     </g>
    </g>
    <g id="ytick_7">
     <g id="line2d_12">
      <g>
       <use style="stroke:#000000;stroke-width:0.8;" x="374.4576" xlink:href="#m53c0f5f6fc" y="210.816"/>
      </g>
     </g>
     <g id="text_13">
      <!-- 0.40 -->
      <g transform="translate(381.4576 214.615219)scale(0.1 -0.1)">
       <use xlink:href="#DejaVuSans-30"/>
       <use x="63.623047" xlink:href="#DejaVuSans-2e"/>
       <use x="95.410156" xlink:href="#DejaVuSans-34"/>
       <use x="159.033203" xlink:href="#DejaVuSans-30"/>
      </g>
     </g>
    </g>
    <g id="ytick_8">
     <g id="line2d_13">
      <g>
       <use style="stroke:#000000;stroke-width:0.8;" x="374.4576" xlink:href="#m53c0f5f6fc" y="162.432"/>
      </g>
     </g>
     <g id="text_14">
      <!-- 0.56 -->
      <g transform="translate(381.4576 166.231219)scale(0.1 -0.1)">
       <use xlink:href="#DejaVuSans-30"/>
       <use x="63.623047" xlink:href="#DejaVuSans-2e"/>
       <use x="95.410156" xlink:href="#DejaVuSans-35"/>
       <use x="159.033203" xlink:href="#DejaVuSans-36"/>
      </g>
     </g>
    </g>
    <g id="ytick_9">
     <g id="line2d_14">
      <g>
       <use style="stroke:#000000;stroke-width:0.8;" x="374.4576" xlink:href="#m53c0f5f6fc" y="114.048"/>
      </g>
     </g>
     <g id="text_15">
      <!-- 0.72 -->
      <g transform="translate(381.4576 117.847219)scale(0.1 -0.1)">
       <use xlink:href="#DejaVuSans-30"/>
       <use x="63.623047" xlink:href="#DejaVuSans-2e"/>
       <use x="95.410156" xlink:href="#DejaVuSans-37"/>
       <use x="159.033203" xlink:href="#DejaVuSans-32"/>
      </g>
     </g>
    </g>
    <g id="ytick_10">
     <g id="line2d_15">
      <g>
       <use style="stroke:#000000;stroke-width:0.8;" x="374.4576" xlink:href="#m53c0f5f6fc" y="65.664"/>
      </g>
     </g>
     <g id="text_16">
      <!-- 0.88 -->
      <g transform="translate(381.4576 69.463219)scale(0.1 -0.1)">
       <use xlink:href="#DejaVuSans-30"/>
       <use x="63.623047" xlink:href="#DejaVuSans-2e"/>
       <use x="95.410156" xlink:href="#DejaVuSans-38"/>
       <use x="159.033203" xlink:href="#DejaVuSans-38"/>
      </g>
     </g>
    </g>
   </g>
   <g id="LineCollection_13">
    <path clip-path="url(#pd418dbe59e)" d="M 361.152 307.584 
L 374.4576 307.584 
" style="fill:none;stroke:#000080;stroke-width:1.5;"/>
    <path clip-path="url(#pd418dbe59e)" d="M 361.152 283.392 
L 374.4576 283.392 
" style="fill:none;stroke:#0000e8;stroke-width:1.5;"/>
    <path clip-path="url(#pd418dbe59e)" d="M 361.152 259.2 
L 374.4576 259.2 
" style="fill:none;stroke:#0038ff;stroke-width:1.5;"/>
    <path clip-path="url(#pd418dbe59e)" d="M 361.152 235.008 
L 374.4576 235.008 
" style="fill:none;stroke:#0094ff;stroke-width:1.5;"/>
    <path clip-path="url(#pd418dbe59e)" d="M 361.152 210.816 
L 374.4576 210.816 
" style="fill:none;stroke:#0cf4eb;stroke-width:1.5;"/>
    <path clip-path="url(#pd418dbe59e)" d="M 361.152 186.624 
L 374.4576 186.624 
" style="fill:none;stroke:#56ffa0;stroke-width:1.5;"/>
    <path clip-path="url(#pd418dbe59e)" d="M 361.152 162.432 
L 374.4576 162.432 
" style="fill:none;stroke:#a0ff56;stroke-width:1.5;"/>
    <path clip-path="url(#pd418dbe59e)" d="M 361.152 138.24 
L 374.4576 138.24 
" style="fill:none;stroke:#ebff0c;stroke-width:1.5;"/>
    <path clip-path="url(#pd418dbe59e)" d="M 361.152 114.048 
L 374.4576 114.048 
" style="fill:none;stroke:#ffab00;stroke-width:1.5;"/>
    <path clip-path="url(#pd418dbe59e)" d="M 361.152 89.856 
L 374.4576 89.856 
" style="fill:none;stroke:#ff5500;stroke-width:1.5;"/>
    <path clip-path="url(#pd418dbe59e)" d="M 361.152 65.664 
L 374.4576 65.664 
" style="fill:none;stroke:#e80000;stroke-width:1.5;"/>
    <path clip-path="url(#pd418dbe59e)" d="M 361.152 41.472 
L 374.4576 41.472 
" style="fill:none;stroke:#800000;stroke-width:1.5;"/>
   </g>
   <g id="patch_8">
    <path d="M 361.152 307.584 
L 361.152 283.392 
L 361.152 65.664 
L 361.152 41.472 
L 374.4576 41.472 
L 374.4576 65.664 
L 374.4576 283.392 
L 374.4576 307.584 
z
" style="fill:none;stroke:#000000;stroke-linejoin:miter;stroke-width:0.8;"/>
   </g>
  </g>
 </g>
 <defs>
  <clipPath id="p05fedfbe71">
   <rect height="237.902989" width="285.696" x="57.6" y="55.576506"/>
  </clipPath>
  <clipPath id="pd418dbe59e">
   <rect height="266.112" width="13.3056" x="361.152" y="41.472"/>
  </clipPath>
 </defs>
</svg>
