<?xml version="1.0" encoding="utf-8" standalone="no"?>
<!DOCTYPE svg PUBLIC "-//W3C//DTD SVG 1.1//EN"
  "http://www.w3.org/Graphics/SVG/1.1/DTD/svg11.dtd">
<!-- Created with matplotlib (http://matplotlib.org/) -->
<svg height="345.6pt" version="1.1" viewBox="0 0 460.8 345.6" width="460.8pt" xmlns="http://www.w3.org/2000/svg" xmlns:xlink="http://www.w3.org/1999/xlink">
 <defs>
  <style type="text/css">
*{stroke-linecap:butt;stroke-linejoin:round;}
  </style>
 </defs>
 <g id="figure_1">
  <g id="patch_1">
   <path d="M 0 345.6 
L 460.8 345.6 
L 460.8 0 
L 0 0 
z
" style="fill:#ffffff;"/>
  </g>
  <g id="axes_1">
   <g id="patch_2">
    <path d="M 57.6 293.479494 
L 343.296 293.479494 
L 343.296 55.576506 
L 57.6 55.576506 
z
" style="fill:#ffffff;"/>
   </g>
   <g id="matplotlib.axis_1">
    <g id="xtick_1">
     <g id="line2d_1">
      <defs>
       <path d="M 0 0 
L 0 3.5 
" id="m4f4661c775" style="stroke:#000000;stroke-width:0.8;"/>
      </defs>
      <g>
       <use style="stroke:#000000;stroke-width:0.8;" x="104.861978" xlink:href="#m4f4661c775" y="293.479494"/>
      </g>
     </g>
     <g id="text_1">
      <!-- 0.2 -->
      <defs>
       <path d="M 31.78125 66.40625 
Q 24.171875 66.40625 20.328125 58.90625 
Q 16.5 51.421875 16.5 36.375 
Q 16.5 21.390625 20.328125 13.890625 
Q 24.171875 6.390625 31.78125 6.390625 
Q 39.453125 6.390625 43.28125 13.890625 
Q 47.125 21.390625 47.125 36.375 
Q 47.125 51.421875 43.28125 58.90625 
Q 39.453125 66.40625 31.78125 66.40625 
z
M 31.78125 74.21875 
Q 44.046875 74.21875 50.515625 64.515625 
Q 56.984375 54.828125 56.984375 36.375 
Q 56.984375 17.96875 50.515625 8.265625 
Q 44.046875 -1.421875 31.78125 -1.421875 
Q 19.53125 -1.421875 13.0625 8.265625 
Q 6.59375 17.96875 6.59375 36.375 
Q 6.59375 54.828125 13.0625 64.515625 
Q 19.53125 74.21875 31.78125 74.21875 
z
" id="DejaVuSans-30"/>
       <path d="M 10.6875 12.40625 
L 21 12.40625 
L 21 0 
L 10.6875 0 
z
" id="DejaVuSans-2e"/>
       <path d="M 19.1875 8.296875 
L 53.609375 8.296875 
L 53.609375 0 
L 7.328125 0 
L 7.328125 8.296875 
Q 12.9375 14.109375 22.625 23.890625 
Q 32.328125 33.6875 34.8125 36.53125 
Q 39.546875 41.84375 41.421875 45.53125 
Q 43.3125 49.21875 43.3125 52.78125 
Q 43.3125 58.59375 39.234375 62.25 
Q 35.15625 65.921875 28.609375 65.921875 
Q 23.96875 65.921875 18.8125 64.3125 
Q 13.671875 62.703125 7.8125 59.421875 
L 7.8125 69.390625 
Q 13.765625 71.78125 18.9375 73 
Q 24.125 74.21875 28.421875 74.21875 
Q 39.75 74.21875 46.484375 68.546875 
Q 53.21875 62.890625 53.21875 53.421875 
Q 53.21875 48.921875 51.53125 44.890625 
Q 49.859375 40.875 45.40625 35.40625 
Q 44.1875 33.984375 37.640625 27.21875 
Q 31.109375 20.453125 19.1875 8.296875 
z
" id="DejaVuSans-32"/>
      </defs>
      <g transform="translate(96.910415 308.077932)scale(0.1 -0.1)">
       <use xlink:href="#DejaVuSans-30"/>
       <use x="63.623047" xlink:href="#DejaVuSans-2e"/>
       <use x="95.410156" xlink:href="#DejaVuSans-32"/>
      </g>
     </g>
    </g>
    <g id="xtick_2">
     <g id="line2d_2">
      <g>
       <use style="stroke:#000000;stroke-width:0.8;" x="152.654989" xlink:href="#m4f4661c775" y="293.479494"/>
      </g>
     </g>
     <g id="text_2">
      <!-- 0.4 -->
      <defs>
       <path d="M 37.796875 64.3125 
L 12.890625 25.390625 
L 37.796875 25.390625 
z
M 35.203125 72.90625 
L 47.609375 72.90625 
L 47.609375 25.390625 
L 58.015625 25.390625 
L 58.015625 17.1875 
L 47.609375 17.1875 
L 47.609375 0 
L 37.796875 0 
L 37.796875 17.1875 
L 4.890625 17.1875 
L 4.890625 26.703125 
z
" id="DejaVuSans-34"/>
      </defs>
      <g transform="translate(144.703426 308.077932)scale(0.1 -0.1)">
       <use xlink:href="#DejaVuSans-30"/>
       <use x="63.623047" xlink:href="#DejaVuSans-2e"/>
       <use x="95.410156" xlink:href="#DejaVuSans-34"/>
      </g>
     </g>
    </g>
    <g id="xtick_3">
     <g id="line2d_3">
      <g>
       <use style="stroke:#000000;stroke-width:0.8;" x="200.448" xlink:href="#m4f4661c775" y="293.479494"/>
      </g>
     </g>
     <g id="text_3">
      <!-- 0.6 -->
      <defs>
       <path d="M 33.015625 40.375 
Q 26.375 40.375 22.484375 35.828125 
Q 18.609375 31.296875 18.609375 23.390625 
Q 18.609375 15.53125 22.484375 10.953125 
Q 26.375 6.390625 33.015625 6.390625 
Q 39.65625 6.390625 43.53125 10.953125 
Q 47.40625 15.53125 47.40625 23.390625 
Q 47.40625 31.296875 43.53125 35.828125 
Q 39.65625 40.375 33.015625 40.375 
z
M 52.59375 71.296875 
L 52.59375 62.3125 
Q 48.875 64.0625 45.09375 64.984375 
Q 41.3125 65.921875 37.59375 65.921875 
Q 27.828125 65.921875 22.671875 59.328125 
Q 17.53125 52.734375 16.796875 39.40625 
Q 19.671875 43.65625 24.015625 45.921875 
Q 28.375 48.1875 33.59375 48.1875 
Q 44.578125 48.1875 50.953125 41.515625 
Q 57.328125 34.859375 57.328125 23.390625 
Q 57.328125 12.15625 50.6875 5.359375 
Q 44.046875 -1.421875 33.015625 -1.421875 
Q 20.359375 -1.421875 13.671875 8.265625 
Q 6.984375 17.96875 6.984375 36.375 
Q 6.984375 53.65625 15.1875 63.9375 
Q 23.390625 74.21875 37.203125 74.21875 
Q 40.921875 74.21875 44.703125 73.484375 
Q 48.484375 72.75 52.59375 71.296875 
z
" id="DejaVuSans-36"/>
      </defs>
      <g transform="translate(192.496438 308.077932)scale(0.1 -0.1)">
       <use xlink:href="#DejaVuSans-30"/>
       <use x="63.623047" xlink:href="#DejaVuSans-2e"/>
       <use x="95.410156" xlink:href="#DejaVuSans-36"/>
      </g>
     </g>
    </g>
    <g id="xtick_4">
     <g id="line2d_4">
      <g>
       <use style="stroke:#000000;stroke-width:0.8;" x="248.241011" xlink:href="#m4f4661c775" y="293.479494"/>
      </g>
     </g>
     <g id="text_4">
      <!-- 0.8 -->
      <defs>
       <path d="M 31.78125 34.625 
Q 24.75 34.625 20.71875 30.859375 
Q 16.703125 27.09375 16.703125 20.515625 
Q 16.703125 13.921875 20.71875 10.15625 
Q 24.75 6.390625 31.78125 6.390625 
Q 38.8125 6.390625 42.859375 10.171875 
Q 46.921875 13.96875 46.921875 20.515625 
Q 46.921875 27.09375 42.890625 30.859375 
Q 38.875 34.625 31.78125 34.625 
z
M 21.921875 38.8125 
Q 15.578125 40.375 12.03125 44.71875 
Q 8.5 49.078125 8.5 55.328125 
Q 8.5 64.0625 14.71875 69.140625 
Q 20.953125 74.21875 31.78125 74.21875 
Q 42.671875 74.21875 48.875 69.140625 
Q 55.078125 64.0625 55.078125 55.328125 
Q 55.078125 49.078125 51.53125 44.71875 
Q 48 40.375 41.703125 38.8125 
Q 48.828125 37.15625 52.796875 32.3125 
Q 56.78125 27.484375 56.78125 20.515625 
Q 56.78125 9.90625 50.3125 4.234375 
Q 43.84375 -1.421875 31.78125 -1.421875 
Q 19.734375 -1.421875 13.25 4.234375 
Q 6.78125 9.90625 6.78125 20.515625 
Q 6.78125 27.484375 10.78125 32.3125 
Q 14.796875 37.15625 21.921875 38.8125 
z
M 18.3125 54.390625 
Q 18.3125 48.734375 21.84375 45.5625 
Q 25.390625 42.390625 31.78125 42.390625 
Q 38.140625 42.390625 41.71875 45.5625 
Q 45.3125 48.734375 45.3125 54.390625 
Q 45.3125 60.0625 41.71875 63.234375 
Q 38.140625 66.40625 31.78125 66.40625 
Q 25.390625 66.40625 21.84375 63.234375 
Q 18.3125 60.0625 18.3125 54.390625 
z
" id="DejaVuSans-38"/>
      </defs>
      <g transform="translate(240.289449 308.077932)scale(0.1 -0.1)">
       <use xlink:href="#DejaVuSans-30"/>
       <use x="63.623047" xlink:href="#DejaVuSans-2e"/>
       <use x="95.410156" xlink:href="#DejaVuSans-38"/>
      </g>
     </g>
    </g>
    <g id="xtick_5">
     <g id="line2d_5">
      <g>
       <use style="stroke:#000000;stroke-width:0.8;" x="296.034022" xlink:href="#m4f4661c775" y="293.479494"/>
      </g>
     </g>
     <g id="text_5">
      <!-- 1.0 -->
      <defs>
       <path d="M 12.40625 8.296875 
L 28.515625 8.296875 
L 28.515625 63.921875 
L 10.984375 60.40625 
L 10.984375 69.390625 
L 28.421875 72.90625 
L 38.28125 72.90625 
L 38.28125 8.296875 
L 54.390625 8.296875 
L 54.390625 0 
L 12.40625 0 
z
" id="DejaVuSans-31"/>
      </defs>
      <g transform="translate(288.08246 308.077932)scale(0.1 -0.1)">
       <use xlink:href="#DejaVuSans-31"/>
       <use x="63.623047" xlink:href="#DejaVuSans-2e"/>
       <use x="95.410156" xlink:href="#DejaVuSans-30"/>
      </g>
     </g>
    </g>
   </g>
   <g id="matplotlib.axis_2">
    <g id="ytick_1">
     <g id="line2d_6">
      <defs>
       <path d="M 0 0 
L -3.5 0 
" id="m928db660c6" style="stroke:#000000;stroke-width:0.8;"/>
      </defs>
      <g>
       <use style="stroke:#000000;stroke-width:0.8;" x="57.6" xlink:href="#m928db660c6" y="246.217517"/>
      </g>
     </g>
     <g id="text_6">
      <!-- 0.2 -->
      <g transform="translate(34.696875 250.016735)scale(0.1 -0.1)">
       <use xlink:href="#DejaVuSans-30"/>
       <use x="63.623047" xlink:href="#DejaVuSans-2e"/>
       <use x="95.410156" xlink:href="#DejaVuSans-32"/>
      </g>
     </g>
    </g>
    <g id="ytick_2">
     <g id="line2d_7">
      <g>
       <use style="stroke:#000000;stroke-width:0.8;" x="57.6" xlink:href="#m928db660c6" y="198.424506"/>
      </g>
     </g>
     <g id="text_7">
      <!-- 0.4 -->
      <g transform="translate(34.696875 202.223724)scale(0.1 -0.1)">
       <use xlink:href="#DejaVuSans-30"/>
       <use x="63.623047" xlink:href="#DejaVuSans-2e"/>
       <use x="95.410156" xlink:href="#DejaVuSans-34"/>
      </g>
     </g>
    </g>
    <g id="ytick_3">
     <g id="line2d_8">
      <g>
       <use style="stroke:#000000;stroke-width:0.8;" x="57.6" xlink:href="#m928db660c6" y="150.631494"/>
      </g>
     </g>
     <g id="text_8">
      <!-- 0.6 -->
      <g transform="translate(34.696875 154.430713)scale(0.1 -0.1)">
       <use xlink:href="#DejaVuSans-30"/>
       <use x="63.623047" xlink:href="#DejaVuSans-2e"/>
       <use x="95.410156" xlink:href="#DejaVuSans-36"/>
      </g>
     </g>
    </g>
    <g id="ytick_4">
     <g id="line2d_9">
      <g>
       <use style="stroke:#000000;stroke-width:0.8;" x="57.6" xlink:href="#m928db660c6" y="102.838483"/>
      </g>
     </g>
     <g id="text_9">
      <!-- 0.8 -->
      <g transform="translate(34.696875 106.637702)scale(0.1 -0.1)">
       <use xlink:href="#DejaVuSans-30"/>
       <use x="63.623047" xlink:href="#DejaVuSans-2e"/>
       <use x="95.410156" xlink:href="#DejaVuSans-38"/>
      </g>
     </g>
    </g>
   </g>
   <g id="LineCollection_1">
    <path clip-path="url(#pcc473fa679)" d="M 285.494569 293.479494 
L 285.944387 291.285821 
L 286.461585 288.16916 
L 286.561442 286.045026 
L 286.401486 282.858825 
L 285.944387 278.597657 
L 283.792861 265.865755 
L 281.696119 257.086203 
L 280.285724 253.120952 
L 279.300988 250.996818 
L 278.509918 249.616245 
L 276.974202 247.810617 
L 276.385784 247.261558 
L 275.323717 246.554338 
L 274.261651 246.057448 
L 272.137517 245.474716 
L 270.013383 245.204268 
L 265.765115 245.01574 
L 238.151375 244.348939 
L 217.698029 243.562349 
L 198.8549 242.86296 
L 189.296297 242.748011 
L 180.799762 242.892152 
L 169.117026 243.383206 
L 161.682558 243.617886 
L 155.903481 243.562349 
L 152.123955 243.359278 
L 147.875688 242.942893 
L 143.62742 242.323506 
L 138.317086 241.288144 
L 133.006751 240.02467 
L 119.199881 236.54619 
L 116.01368 235.993557 
L 113.889546 235.774076 
L 111.765413 235.72189 
L 109.641279 235.896185 
L 107.517145 236.377311 
L 105.393011 237.265156 
L 103.855406 238.252015 
L 102.591486 239.314082 
L 101.569622 240.376149 
L 100.702001 241.438216 
L 99.257949 243.562349 
L 97.958543 245.863151 
L 95.469005 250.996818 
L 93.322493 255.245086 
L 91.586141 258.075866 
L 90.524074 259.524657 
L 88.617422 261.617487 
L 87.337874 262.716905 
L 85.790269 263.741621 
L 84.151673 264.529973 
L 83.089606 264.87794 
L 82.027539 265.096217 
L 80.965472 265.192308 
L 79.903405 265.161635 
L 78.161009 264.803688 
L 77.779271 264.692125 
L 76.717204 264.226823 
L 75.655138 263.592405 
L 74.510213 262.679554 
L 73.462946 261.617487 
L 71.895492 259.493353 
L 71.251124 258.431286 
L 70.185055 256.307152 
L 68.933024 253.120952 
L 67.940054 249.934751 
L 66.887386 245.686483 
L 65.853705 240.376149 
L 64.875869 234.003747 
L 63.853528 225.507212 
L 62.859823 214.886543 
L 61.94547 202.14174 
L 61.236996 189.396937 
L 60.496448 172.403866 
L 59.760442 150.100461 
L 59.140761 124.610855 
L 58.588473 92.748848 
L 58.187855 57.700639 
L 58.215161 55.576506 
L 58.215161 55.576506 
" style="fill:none;stroke:#000080;stroke-width:1.5;"/>
   </g>
   <g id="LineCollection_2">
    <path clip-path="url(#pcc473fa679)" d="M 289.733955 293.479494 
L 290.231846 287.107093 
L 290.125021 283.920892 
L 289.464418 275.424357 
L 287.473619 252.058885 
L 286.076214 237.189948 
L 285.360291 230.817546 
L 284.270864 222.321011 
L 283.448246 217.010677 
L 282.433444 211.700342 
L 281.375181 207.452074 
L 280.299929 204.265874 
L 279.310125 202.14174 
L 278.509918 200.852337 
L 277.447851 199.729945 
L 276.097983 198.955539 
L 275.323717 198.69902 
L 274.261651 198.571184 
L 272.137517 198.71024 
L 262.578914 200.145435 
L 258.330647 200.375093 
L 251.958245 200.44994 
L 225.406572 200.305011 
L 185.04803 199.980781 
L 162.744625 199.788509 
L 154.248089 199.949268 
L 145.751554 200.338953 
L 135.130885 200.858948 
L 130.882617 200.87322 
L 126.634349 200.663781 
L 122.386082 200.192671 
L 118.137814 199.476774 
L 104.330944 196.854491 
L 102.20681 196.731037 
L 99.817515 196.831405 
L 97.958543 197.124887 
L 95.834409 197.773445 
L 94.772342 198.244865 
L 92.648208 199.528674 
L 90.786986 201.079673 
L 89.462007 202.424004 
L 87.337874 205.011903 
L 84.860608 208.514141 
L 81.894434 212.762409 
L 79.903405 215.129459 
L 78.841338 216.073048 
L 77.779271 216.72975 
L 76.717204 217.049543 
L 75.655138 216.9853 
L 74.593071 216.48902 
L 73.531004 215.508558 
L 72.388533 213.824476 
L 71.349786 211.700342 
L 70.195645 208.514141 
L 69.021361 204.265874 
L 67.875445 198.955539 
L 66.783082 192.583138 
L 65.755693 185.148669 
L 64.691752 175.590067 
L 63.649415 163.907331 
L 62.59634 149.038394 
L 61.598144 130.983257 
L 60.704161 109.741918 
L 59.911892 84.252312 
L 59.310106 59.824773 
L 59.401638 55.576506 
L 59.401638 55.576506 
" style="fill:none;stroke:#0000e8;stroke-width:1.5;"/>
   </g>
   <g id="LineCollection_3">
    <path clip-path="url(#pcc473fa679)" d="M 291.952075 293.479494 
L 292.177965 287.107093 
L 291.973522 281.796758 
L 290.017418 247.810617 
L 287.873277 213.824476 
L 286.480219 196.831405 
L 285.496431 187.272803 
L 284.548897 179.838335 
L 283.510717 173.465933 
L 282.626978 169.217665 
L 281.380105 164.969398 
L 280.516435 162.845264 
L 279.571985 161.243789 
L 278.509918 160.189594 
L 277.447851 159.7163 
L 276.385784 159.678302 
L 275.323717 159.951283 
L 273.757054 160.72113 
L 272.012266 161.783197 
L 268.485654 163.907331 
L 266.827182 164.722456 
L 264.703048 165.533329 
L 262.578914 166.107563 
L 260.454781 166.486481 
L 257.26858 166.784549 
L 253.020312 166.884534 
L 239.213442 166.736411 
L 212.66177 166.48682 
L 139.379152 165.208329 
L 121.324015 165.273389 
L 112.82748 165.194856 
L 104.330944 164.854742 
L 99.02061 164.681387 
L 95.834409 164.76618 
L 93.710275 164.983854 
L 91.586141 165.39411 
L 89.462007 166.054964 
L 87.223069 167.093532 
L 85.21374 168.351661 
L 82.775 170.279732 
L 78.841338 173.667853 
L 77.484389 174.528 
L 76.717204 174.894289 
L 75.655138 175.102677 
L 74.593071 174.92594 
L 73.531004 174.273921 
L 72.468937 173.054113 
L 71.40687 171.167839 
L 70.239111 168.155599 
L 69.039117 163.907331 
L 67.895258 158.596996 
L 66.814718 152.224595 
L 65.674694 143.728059 
L 64.650801 134.169457 
L 63.650538 122.486721 
L 62.652188 107.617784 
L 61.666303 88.50058 
L 60.552202 60.88684 
L 60.667739 56.638572 
L 60.709173 55.576506 
L 60.709173 55.576506 
" style="fill:none;stroke:#0038ff;stroke-width:1.5;"/>
   </g>
   <g id="LineCollection_4">
    <path clip-path="url(#pcc473fa679)" d="M 293.612083 293.479494 
L 293.612098 283.920892 
L 293.128556 272.238156 
L 289.453216 192.583138 
L 288.517912 177.714201 
L 287.543519 164.969398 
L 286.533683 154.348729 
L 285.510862 145.852193 
L 284.531068 139.479792 
L 283.457544 134.169457 
L 282.624804 130.983257 
L 281.425179 127.797056 
L 280.634052 126.287114 
L 279.571985 125.087013 
L 278.509918 124.567524 
L 277.408472 124.610855 
L 276.385784 125.045637 
L 275.323717 125.812958 
L 273.199584 127.928392 
L 268.951316 132.599183 
L 266.827182 134.521544 
L 264.703048 136.013448 
L 262.578914 137.081392 
L 260.454781 137.775354 
L 258.330647 138.160946 
L 256.206513 138.305594 
L 253.020312 138.205682 
L 248.772045 137.747531 
L 240.275509 136.735438 
L 234.965175 136.394707 
L 229.65484 136.289382 
L 221.158305 136.381923 
L 188.23423 136.932357 
L 165.930825 136.97809 
L 94.772342 137.02762 
L 90.524074 137.274911 
L 87.337874 137.738935 
L 84.636388 138.417725 
L 83.089606 138.934447 
L 76.717204 141.361513 
L 75.655138 141.469793 
L 74.593071 141.316839 
L 73.531004 140.801103 
L 72.249838 139.479792 
L 71.40687 138.213617 
L 70.134486 135.231524 
L 69.140732 132.045323 
L 67.932371 126.734989 
L 66.839032 120.362587 
L 65.725074 111.866052 
L 64.746787 102.30745 
L 63.65379 88.50058 
L 62.189772 65.135108 
L 62.060363 60.88684 
L 62.198346 57.700639 
L 62.346165 55.576506 
L 62.346165 55.576506 
" style="fill:none;stroke:#0094ff;stroke-width:1.5;"/>
   </g>
   <g id="LineCollection_5">
    <path clip-path="url(#pcc473fa679)" d="M 295.029479 293.479494 
L 294.899416 280.734691 
L 294.069944 255.245086 
L 292.001929 196.831405 
L 290.817244 170.279732 
L 289.734019 151.162528 
L 288.742328 137.355658 
L 287.670284 125.672922 
L 286.677496 117.176387 
L 285.56616 109.741918 
L 284.548 104.431584 
L 283.492421 100.183316 
L 282.448451 96.997115 
L 281.546426 94.872981 
L 280.226299 92.748848 
L 279.571985 91.932552 
L 278.509918 91.154171 
L 277.447851 90.865179 
L 276.385784 91.065269 
L 275.323717 91.77256 
L 274.261651 92.979177 
L 273.056739 94.872981 
L 267.889249 103.901923 
L 266.746027 105.493651 
L 264.703048 107.849212 
L 263.640981 108.840768 
L 261.516848 110.391641 
L 259.392714 111.448564 
L 257.26858 112.110129 
L 255.144446 112.474045 
L 253.020312 112.629944 
L 249.834112 112.631443 
L 242.399643 112.293235 
L 212.66177 110.758038 
L 204.165234 110.357123 
L 197.792833 110.25077 
L 191.420431 110.344271 
L 182.923896 110.704029 
L 159.558424 111.825783 
L 145.751554 112.174501 
L 117.075747 112.579328 
L 94.772342 113.01262 
L 88.399941 113.305975 
L 83.089606 113.794586 
L 78.841338 114.217145 
L 76.717204 114.151237 
L 75.655138 113.918275 
L 74.593071 113.460094 
L 73.531004 112.683633 
L 72.468937 111.467035 
L 71.40687 109.663277 
L 70.183824 106.555717 
L 69.010074 102.30745 
L 67.930972 96.997115 
L 66.804763 89.562647 
L 65.705725 80.004045 
L 64.551201 67.259242 
L 64.31202 63.010974 
L 64.372954 59.824773 
L 64.779292 55.576506 
L 64.779292 55.576506 
" style="fill:none;stroke:#0cf4eb;stroke-width:1.5;"/>
   </g>
   <g id="LineCollection_6">
    <path clip-path="url(#pcc473fa679)" d="M 297.634318 293.479494 
L 297.525929 287.107093 
L 297.206031 281.796758 
L 296.409002 271.176089 
L 295.143084 237.189948 
L 293.594194 185.148669 
L 292.6028 158.596996 
L 291.709493 139.479792 
L 290.774036 123.548788 
L 289.751286 109.741918 
L 288.759638 99.121249 
L 287.838349 91.686781 
L 286.917302 86.376446 
L 285.854798 82.128178 
L 284.717065 78.941978 
L 283.692979 76.817844 
L 282.289499 74.69371 
L 281.37565 73.631643 
L 280.211025 72.569576 
L 278.638722 71.507509 
L 277.447851 70.944024 
L 275.323717 70.283938 
L 273.199584 69.996085 
L 271.07545 69.980121 
L 268.951316 70.19056 
L 266.827182 70.6042 
L 263.640981 71.577729 
L 260.454781 72.985756 
L 258.330647 74.164127 
L 255.908948 75.755777 
L 253.020312 78.106874 
L 250.896178 80.156125 
L 248.772045 82.505479 
L 243.46171 88.571553 
L 241.337576 90.359736 
L 240.275509 91.07071 
L 238.151375 92.19872 
L 236.027242 93.019129 
L 233.903108 93.607485 
L 231.778974 94.014929 
L 228.592773 94.36157 
L 225.406572 94.461862 
L 222.220372 94.364023 
L 217.972104 93.99171 
L 213.723836 93.401763 
L 207.351435 92.253886 
L 189.296297 88.771277 
L 182.923896 87.863823 
L 176.551494 87.201828 
L 170.179093 86.753263 
L 161.436923 86.376446 
L 135.130885 85.404402 
L 125.572283 84.776466 
L 116.01368 83.953186 
L 106.455078 82.920607 
L 96.896476 81.642163 
L 89.462007 80.418686 
L 84.151673 79.335639 
L 80.965472 78.487354 
L 78.841338 77.707123 
L 77.199757 76.817844 
L 76.717204 76.496232 
L 75.655138 75.583219 
L 74.593071 74.292542 
L 73.531004 72.394871 
L 72.521037 69.383375 
L 72.314433 68.321309 
L 72.072577 66.197175 
L 72.084183 64.073041 
L 72.468937 61.589218 
L 73.548915 57.700639 
L 73.6826 56.638572 
L 73.57305 55.576506 
L 73.57305 55.576506 
" style="fill:none;stroke:#56ffa0;stroke-width:1.5;"/>
   </g>
   <g id="LineCollection_7">
    <path clip-path="url(#pcc473fa679)" d="M 304.398099 293.479494 
L 304.260195 286.045026 
L 303.878302 278.610558 
L 303.206468 270.114022 
L 301.945466 257.369219 
L 299.594658 236.127881 
L 296.490576 208.514141 
L 295.168202 173.465933 
L 294.191674 143.728059 
L 293.240745 121.424654 
L 292.177929 102.30745 
L 291.369918 91.686781 
L 290.786232 86.376446 
L 290.16208 82.128178 
L 289.26134 77.879911 
L 288.651462 75.755777 
L 287.897893 73.631643 
L 286.913746 71.507509 
L 285.551419 69.383375 
L 284.653405 68.321309 
L 283.505719 67.259242 
L 281.696119 66.041041 
L 279.571985 65.093937 
L 277.447851 64.488639 
L 275.091987 64.073041 
L 272.137517 63.818273 
L 268.951316 63.786295 
L 265.765115 63.943012 
L 261.516848 64.368595 
L 256.414266 65.135108 
L 242.399643 67.453371 
L 239.213442 67.657013 
L 237.089309 67.624148 
L 234.965175 67.401884 
L 233.903108 67.191929 
L 231.778974 66.452157 
L 230.716907 65.859744 
L 229.65484 65.015112 
L 228.894369 64.073041 
L 228.395966 63.010974 
L 228.149969 61.948907 
L 228.086174 60.88684 
L 228.294813 58.762706 
L 228.762866 55.576506 
L 228.762866 55.576506 
" style="fill:none;stroke:#a0ff56;stroke-width:1.5;"/>
   </g>
   <g id="LineCollection_8">
    <path clip-path="url(#pcc473fa679)" d="M 311.337549 293.479494 
L 311.208469 284.982959 
L 310.863365 276.486424 
L 310.19776 265.865755 
L 309.014598 250.996818 
L 306.90544 227.631346 
L 304.201269 200.017606 
L 301.87539 178.474468 
L 299.861691 161.783197 
L 297.843978 146.91426 
L 296.509901 137.355658 
L 293.642733 85.314379 
L 293.054164 80.004045 
L 292.316788 75.373356 
L 291.688752 72.569576 
L 291.079509 70.445442 
L 290.192654 68.120972 
L 289.130587 66.132959 
L 288.06852 64.693988 
L 287.006454 63.594344 
L 285.944387 62.720184 
L 283.820253 61.385214 
L 280.634052 59.912278 
L 279.571985 59.441537 
L 277.447851 58.461493 
L 276.15031 57.700639 
L 275.260614 56.638572 
L 275.069681 55.576506 
L 275.069681 55.576506 
" style="fill:none;stroke:#ebff0c;stroke-width:1.5;"/>
   </g>
   <g id="LineCollection_9">
    <path clip-path="url(#pcc473fa679)" d="M 318.418436 293.479494 
L 318.305896 283.920892 
L 317.96385 273.300223 
L 317.32942 260.55542 
L 316.192216 242.500283 
L 314.211597 214.886543 
L 312.0188 187.272803 
L 310.109242 166.031465 
L 308.360612 149.038394 
L 306.7334 135.231524 
L 305.008822 122.486721 
L 303.355371 111.866052 
L 301.635943 102.30745 
L 300.07512 94.872981 
L 298.493585 88.50058 
L 297.249712 84.252312 
L 296.559111 82.128178 
L 295.833512 76.817844 
L 295.23182 72.569576 
L 294.567641 68.321309 
L 294.101076 66.197175 
L 293.378855 63.755022 
L 292.316788 61.209992 
L 289.994564 56.638572 
L 289.570859 55.576506 
L 289.570859 55.576506 
" style="fill:none;stroke:#ffab00;stroke-width:1.5;"/>
   </g>
   <g id="LineCollection_10">
    <path clip-path="url(#pcc473fa679)" d="M 325.600297 293.479494 
L 325.471786 280.734691 
L 325.105155 266.927822 
L 324.388857 248.872684 
L 323.035698 221.258944 
L 321.265732 189.396937 
L 319.703622 164.969398 
L 318.273043 145.852193 
L 316.870276 129.92119 
L 315.432965 116.11432 
L 313.990412 104.431584 
L 312.496059 94.242437 
L 311.145054 86.376446 
L 309.459862 77.879911 
L 306.123658 61.921637 
L 305.735057 58.762706 
L 305.609999 55.576506 
L 305.609999 55.576506 
" style="fill:none;stroke:#ff5500;stroke-width:1.5;"/>
   </g>
   <g id="LineCollection_11">
    <path clip-path="url(#pcc473fa679)" d="M 332.850596 293.479494 
L 332.73361 277.548491 
L 332.346569 256.307152 
L 331.589 228.693413 
L 330.226882 187.272803 
L 329.049351 157.534929 
L 327.905805 134.169457 
L 326.806388 116.11432 
L 325.691181 101.245383 
L 324.254957 85.314379 
L 322.738876 68.321309 
L 322.380312 61.948907 
L 322.257724 55.576506 
L 322.257724 55.576506 
" style="fill:none;stroke:#e80000;stroke-width:1.5;"/>
   </g>
   <g id="LineCollection_12">
    <path clip-path="url(#pcc473fa679)" d="M 340.138406 293.479494 
L 340.055663 271.176089 
L 339.705899 224.445145 
L 338.934699 159.659063 
L 338.252326 120.362587 
L 337.616567 94.872981 
L 336.847353 65.135108 
L 336.777012 55.576506 
L 336.777012 55.576506 
" style="fill:none;stroke:#800000;stroke-width:1.5;"/>
   </g>
   <g id="patch_3">
    <path d="M 57.6 293.479494 
L 57.6 55.576506 
" style="fill:none;stroke:#000000;stroke-linecap:square;stroke-linejoin:miter;stroke-width:0.8;"/>
   </g>
   <g id="patch_4">
    <path d="M 343.296 293.479494 
L 343.296 55.576506 
" style="fill:none;stroke:#000000;stroke-linecap:square;stroke-linejoin:miter;stroke-width:0.8;"/>
   </g>
   <g id="patch_5">
    <path d="M 57.6 293.479494 
L 343.296 293.479494 
" style="fill:none;stroke:#000000;stroke-linecap:square;stroke-linejoin:miter;stroke-width:0.8;"/>
   </g>
   <g id="patch_6">
    <path d="M 57.6 55.576506 
L 343.296 55.576506 
" style="fill:none;stroke:#000000;stroke-linecap:square;stroke-linejoin:miter;stroke-width:0.8;"/>
   </g>
   <g id="text_10">
    <!-- Time:0.03621 s -->
    <defs>
     <path d="M -0.296875 72.90625 
L 61.375 72.90625 
L 61.375 64.59375 
L 35.5 64.59375 
L 35.5 0 
L 25.59375 0 
L 25.59375 64.59375 
L -0.296875 64.59375 
z
" id="DejaVuSans-54"/>
     <path d="M 9.421875 54.6875 
L 18.40625 54.6875 
L 18.40625 0 
L 9.421875 0 
z
M 9.421875 75.984375 
L 18.40625 75.984375 
L 18.40625 64.59375 
L 9.421875 64.59375 
z
" id="DejaVuSans-69"/>
     <path d="M 52 44.1875 
Q 55.375 50.25 60.0625 53.125 
Q 64.75 56 71.09375 56 
Q 79.640625 56 84.28125 50.015625 
Q 88.921875 44.046875 88.921875 33.015625 
L 88.921875 0 
L 79.890625 0 
L 79.890625 32.71875 
Q 79.890625 40.578125 77.09375 44.375 
Q 74.3125 48.1875 68.609375 48.1875 
Q 61.625 48.1875 57.5625 43.546875 
Q 53.515625 38.921875 53.515625 30.90625 
L 53.515625 0 
L 44.484375 0 
L 44.484375 32.71875 
Q 44.484375 40.625 41.703125 44.40625 
Q 38.921875 48.1875 33.109375 48.1875 
Q 26.21875 48.1875 22.15625 43.53125 
Q 18.109375 38.875 18.109375 30.90625 
L 18.109375 0 
L 9.078125 0 
L 9.078125 54.6875 
L 18.109375 54.6875 
L 18.109375 46.1875 
Q 21.1875 51.21875 25.484375 53.609375 
Q 29.78125 56 35.6875 56 
Q 41.65625 56 45.828125 52.96875 
Q 50 49.953125 52 44.1875 
z
" id="DejaVuSans-6d"/>
     <path d="M 56.203125 29.59375 
L 56.203125 25.203125 
L 14.890625 25.203125 
Q 15.484375 15.921875 20.484375 11.0625 
Q 25.484375 6.203125 34.421875 6.203125 
Q 39.59375 6.203125 44.453125 7.46875 
Q 49.3125 8.734375 54.109375 11.28125 
L 54.109375 2.78125 
Q 49.265625 0.734375 44.1875 -0.34375 
Q 39.109375 -1.421875 33.890625 -1.421875 
Q 20.796875 -1.421875 13.15625 6.1875 
Q 5.515625 13.8125 5.515625 26.8125 
Q 5.515625 40.234375 12.765625 48.109375 
Q 20.015625 56 32.328125 56 
Q 43.359375 56 49.78125 48.890625 
Q 56.203125 41.796875 56.203125 29.59375 
z
M 47.21875 32.234375 
Q 47.125 39.59375 43.09375 43.984375 
Q 39.0625 48.390625 32.421875 48.390625 
Q 24.90625 48.390625 20.390625 44.140625 
Q 15.875 39.890625 15.1875 32.171875 
z
" id="DejaVuSans-65"/>
     <path d="M 11.71875 12.40625 
L 22.015625 12.40625 
L 22.015625 0 
L 11.71875 0 
z
M 11.71875 51.703125 
L 22.015625 51.703125 
L 22.015625 39.3125 
L 11.71875 39.3125 
z
" id="DejaVuSans-3a"/>
     <path d="M 40.578125 39.3125 
Q 47.65625 37.796875 51.625 33 
Q 55.609375 28.21875 55.609375 21.1875 
Q 55.609375 10.40625 48.1875 4.484375 
Q 40.765625 -1.421875 27.09375 -1.421875 
Q 22.515625 -1.421875 17.65625 -0.515625 
Q 12.796875 0.390625 7.625 2.203125 
L 7.625 11.71875 
Q 11.71875 9.328125 16.59375 8.109375 
Q 21.484375 6.890625 26.8125 6.890625 
Q 36.078125 6.890625 40.9375 10.546875 
Q 45.796875 14.203125 45.796875 21.1875 
Q 45.796875 27.640625 41.28125 31.265625 
Q 36.765625 34.90625 28.71875 34.90625 
L 20.21875 34.90625 
L 20.21875 43.015625 
L 29.109375 43.015625 
Q 36.375 43.015625 40.234375 45.921875 
Q 44.09375 48.828125 44.09375 54.296875 
Q 44.09375 59.90625 40.109375 62.90625 
Q 36.140625 65.921875 28.71875 65.921875 
Q 24.65625 65.921875 20.015625 65.03125 
Q 15.375 64.15625 9.8125 62.3125 
L 9.8125 71.09375 
Q 15.4375 72.65625 20.34375 73.4375 
Q 25.25 74.21875 29.59375 74.21875 
Q 40.828125 74.21875 47.359375 69.109375 
Q 53.90625 64.015625 53.90625 55.328125 
Q 53.90625 49.265625 50.4375 45.09375 
Q 46.96875 40.921875 40.578125 39.3125 
z
" id="DejaVuSans-33"/>
     <path id="DejaVuSans-20"/>
     <path d="M 44.28125 53.078125 
L 44.28125 44.578125 
Q 40.484375 46.53125 36.375 47.5 
Q 32.28125 48.484375 27.875 48.484375 
Q 21.1875 48.484375 17.84375 46.4375 
Q 14.5 44.390625 14.5 40.28125 
Q 14.5 37.15625 16.890625 35.375 
Q 19.28125 33.59375 26.515625 31.984375 
L 29.59375 31.296875 
Q 39.15625 29.25 43.1875 25.515625 
Q 47.21875 21.78125 47.21875 15.09375 
Q 47.21875 7.46875 41.1875 3.015625 
Q 35.15625 -1.421875 24.609375 -1.421875 
Q 20.21875 -1.421875 15.453125 -0.5625 
Q 10.6875 0.296875 5.421875 2 
L 5.421875 11.28125 
Q 10.40625 8.6875 15.234375 7.390625 
Q 20.0625 6.109375 24.8125 6.109375 
Q 31.15625 6.109375 34.5625 8.28125 
Q 37.984375 10.453125 37.984375 14.40625 
Q 37.984375 18.0625 35.515625 20.015625 
Q 33.0625 21.96875 24.703125 23.78125 
L 21.578125 24.515625 
Q 13.234375 26.265625 9.515625 29.90625 
Q 5.8125 33.546875 5.8125 39.890625 
Q 5.8125 47.609375 11.28125 51.796875 
Q 16.75 56 26.8125 56 
Q 31.78125 56 36.171875 55.265625 
Q 40.578125 54.546875 44.28125 53.078125 
z
" id="DejaVuSans-73"/>
    </defs>
    <g transform="translate(153.717375 49.576506)scale(0.12 -0.12)">
     <use xlink:href="#DejaVuSans-54"/>
     <use x="61.037109" xlink:href="#DejaVuSans-69"/>
     <use x="88.820312" xlink:href="#DejaVuSans-6d"/>
     <use x="186.232422" xlink:href="#DejaVuSans-65"/>
     <use x="247.755859" xlink:href="#DejaVuSans-3a"/>
     <use x="281.447266" xlink:href="#DejaVuSans-30"/>
     <use x="345.070312" xlink:href="#DejaVuSans-2e"/>
     <use x="376.857422" xlink:href="#DejaVuSans-30"/>
     <use x="440.480469" xlink:href="#DejaVuSans-33"/>
     <use x="504.103516" xlink:href="#DejaVuSans-36"/>
     <use x="567.726562" xlink:href="#DejaVuSans-32"/>
     <use x="631.349609" xlink:href="#DejaVuSans-31"/>
     <use x="694.972656" xlink:href="#DejaVuSans-20"/>
     <use x="726.759766" xlink:href="#DejaVuSans-73"/>
    </g>
   </g>
  </g>
  <g id="axes_2">
   <g id="patch_7">
    <path clip-path="url(#pa58b76bb47)" d="M 361.152 307.584 
L 361.152 283.392 
L 361.152 65.664 
L 361.152 41.472 
L 374.4576 41.472 
L 374.4576 65.664 
L 374.4576 283.392 
L 374.4576 307.584 
z
" style="fill:#ffffff;stroke:#ffffff;stroke-linejoin:miter;stroke-width:0.01;"/>
   </g>
   <g id="matplotlib.axis_3"/>
   <g id="matplotlib.axis_4">
    <g id="ytick_5">
     <g id="line2d_10">
      <defs>
       <path d="M 0 0 
L 3.5 0 
" id="m9bc0ffbb06" style="stroke:#000000;stroke-width:0.8;"/>
      </defs>
      <g>
       <use style="stroke:#000000;stroke-width:0.8;" x="374.4576" xlink:href="#m9bc0ffbb06" y="307.584"/>
      </g>
     </g>
     <g id="text_11">
      <!-- 0.08 -->
      <g transform="translate(381.4576 311.383219)scale(0.1 -0.1)">
       <use xlink:href="#DejaVuSans-30"/>
       <use x="63.623047" xlink:href="#DejaVuSans-2e"/>
       <use x="95.410156" xlink:href="#DejaVuSans-30"/>
       <use x="159.033203" xlink:href="#DejaVuSans-38"/>
      </g>
     </g>
    </g>
    <g id="ytick_6">
     <g id="line2d_11">
      <g>
       <use style="stroke:#000000;stroke-width:0.8;" x="374.4576" xlink:href="#m9bc0ffbb06" y="259.2"/>
      </g>
     </g>
     <g id="text_12">
      <!-- 0.24 -->
      <g transform="translate(381.4576 262.999219)scale(0.1 -0.1)">
       <use xlink:href="#DejaVuSans-30"/>
       <use x="63.623047" xlink:href="#DejaVuSans-2e"/>
       <use x="95.410156" xlink:href="#DejaVuSans-32"/>
       <use x="159.033203" xlink:href="#DejaVuSans-34"/>
      </g>
     </g>
    </g>
    <g id="ytick_7">
     <g id="line2d_12">
      <g>
       <use style="stroke:#000000;stroke-width:0.8;" x="374.4576" xlink:href="#m9bc0ffbb06" y="210.816"/>
      </g>
     </g>
     <g id="text_13">
      <!-- 0.40 -->
      <g transform="translate(381.4576 214.615219)scale(0.1 -0.1)">
       <use xlink:href="#DejaVuSans-30"/>
       <use x="63.623047" xlink:href="#DejaVuSans-2e"/>
       <use x="95.410156" xlink:href="#DejaVuSans-34"/>
       <use x="159.033203" xlink:href="#DejaVuSans-30"/>
      </g>
     </g>
    </g>
    <g id="ytick_8">
     <g id="line2d_13">
      <g>
       <use style="stroke:#000000;stroke-width:0.8;" x="374.4576" xlink:href="#m9bc0ffbb06" y="162.432"/>
      </g>
     </g>
     <g id="text_14">
      <!-- 0.56 -->
      <defs>
       <path d="M 10.796875 72.90625 
L 49.515625 72.90625 
L 49.515625 64.59375 
L 19.828125 64.59375 
L 19.828125 46.734375 
Q 21.96875 47.46875 24.109375 47.828125 
Q 26.265625 48.1875 28.421875 48.1875 
Q 40.625 48.1875 47.75 41.5 
Q 54.890625 34.8125 54.890625 23.390625 
Q 54.890625 11.625 47.5625 5.09375 
Q 40.234375 -1.421875 26.90625 -1.421875 
Q 22.3125 -1.421875 17.546875 -0.640625 
Q 12.796875 0.140625 7.71875 1.703125 
L 7.71875 11.625 
Q 12.109375 9.234375 16.796875 8.0625 
Q 21.484375 6.890625 26.703125 6.890625 
Q 35.15625 6.890625 40.078125 11.328125 
Q 45.015625 15.765625 45.015625 23.390625 
Q 45.015625 31 40.078125 35.4375 
Q 35.15625 39.890625 26.703125 39.890625 
Q 22.75 39.890625 18.8125 39.015625 
Q 14.890625 38.140625 10.796875 36.28125 
z
" id="DejaVuSans-35"/>
      </defs>
      <g transform="translate(381.4576 166.231219)scale(0.1 -0.1)">
       <use xlink:href="#DejaVuSans-30"/>
       <use x="63.623047" xlink:href="#DejaVuSans-2e"/>
       <use x="95.410156" xlink:href="#DejaVuSans-35"/>
       <use x="159.033203" xlink:href="#DejaVuSans-36"/>
      </g>
     </g>
    </g>
    <g id="ytick_9">
     <g id="line2d_14">
      <g>
       <use style="stroke:#000000;stroke-width:0.8;" x="374.4576" xlink:href="#m9bc0ffbb06" y="114.048"/>
      </g>
     </g>
     <g id="text_15">
      <!-- 0.72 -->
      <defs>
       <path d="M 8.203125 72.90625 
L 55.078125 72.90625 
L 55.078125 68.703125 
L 28.609375 0 
L 18.3125 0 
L 43.21875 64.59375 
L 8.203125 64.59375 
z
" id="DejaVuSans-37"/>
      </defs>
      <g transform="translate(381.4576 117.847219)scale(0.1 -0.1)">
       <use xlink:href="#DejaVuSans-30"/>
       <use x="63.623047" xlink:href="#DejaVuSans-2e"/>
       <use x="95.410156" xlink:href="#DejaVuSans-37"/>
       <use x="159.033203" xlink:href="#DejaVuSans-32"/>
      </g>
     </g>
    </g>
    <g id="ytick_10">
     <g id="line2d_15">
      <g>
       <use style="stroke:#000000;stroke-width:0.8;" x="374.4576" xlink:href="#m9bc0ffbb06" y="65.664"/>
      </g>
     </g>
     <g id="text_16">
      <!-- 0.88 -->
      <g transform="translate(381.4576 69.463219)scale(0.1 -0.1)">
       <use xlink:href="#DejaVuSans-30"/>
       <use x="63.623047" xlink:href="#DejaVuSans-2e"/>
       <use x="95.410156" xlink:href="#DejaVuSans-38"/>
       <use x="159.033203" xlink:href="#DejaVuSans-38"/>
      </g>
     </g>
    </g>
   </g>
   <g id="LineCollection_13">
    <path clip-path="url(#pa58b76bb47)" d="M 361.152 307.584 
L 374.4576 307.584 
" style="fill:none;stroke:#000080;stroke-width:1.5;"/>
    <path clip-path="url(#pa58b76bb47)" d="M 361.152 283.392 
L 374.4576 283.392 
" style="fill:none;stroke:#0000e8;stroke-width:1.5;"/>
    <path clip-path="url(#pa58b76bb47)" d="M 361.152 259.2 
L 374.4576 259.2 
" style="fill:none;stroke:#0038ff;stroke-width:1.5;"/>
    <path clip-path="url(#pa58b76bb47)" d="M 361.152 235.008 
L 374.4576 235.008 
" style="fill:none;stroke:#0094ff;stroke-width:1.5;"/>
    <path clip-path="url(#pa58b76bb47)" d="M 361.152 210.816 
L 374.4576 210.816 
" style="fill:none;stroke:#0cf4eb;stroke-width:1.5;"/>
    <path clip-path="url(#pa58b76bb47)" d="M 361.152 186.624 
L 374.4576 186.624 
" style="fill:none;stroke:#56ffa0;stroke-width:1.5;"/>
    <path clip-path="url(#pa58b76bb47)" d="M 361.152 162.432 
L 374.4576 162.432 
" style="fill:none;stroke:#a0ff56;stroke-width:1.5;"/>
    <path clip-path="url(#pa58b76bb47)" d="M 361.152 138.24 
L 374.4576 138.24 
" style="fill:none;stroke:#ebff0c;stroke-width:1.5;"/>
    <path clip-path="url(#pa58b76bb47)" d="M 361.152 114.048 
L 374.4576 114.048 
" style="fill:none;stroke:#ffab00;stroke-width:1.5;"/>
    <path clip-path="url(#pa58b76bb47)" d="M 361.152 89.856 
L 374.4576 89.856 
" style="fill:none;stroke:#ff5500;stroke-width:1.5;"/>
    <path clip-path="url(#pa58b76bb47)" d="M 361.152 65.664 
L 374.4576 65.664 
" style="fill:none;stroke:#e80000;stroke-width:1.5;"/>
    <path clip-path="url(#pa58b76bb47)" d="M 361.152 41.472 
L 374.4576 41.472 
" style="fill:none;stroke:#800000;stroke-width:1.5;"/>
   </g>
   <g id="patch_8">
    <path d="M 361.152 307.584 
L 361.152 283.392 
L 361.152 65.664 
L 361.152 41.472 
L 374.4576 41.472 
L 374.4576 65.664 
L 374.4576 283.392 
L 374.4576 307.584 
z
" style="fill:none;stroke:#000000;stroke-linejoin:miter;stroke-width:0.8;"/>
   </g>
  </g>
 </g>
 <defs>
  <clipPath id="pcc473fa679">
   <rect height="237.902989" width="285.696" x="57.6" y="55.576506"/>
  </clipPath>
  <clipPath id="pa58b76bb47">
   <rect height="266.112" width="13.3056" x="361.152" y="41.472"/>
  </clipPath>
 </defs>
</svg>
