<?xml version="1.0" encoding="utf-8" standalone="no"?>
<!DOCTYPE svg PUBLIC "-//W3C//DTD SVG 1.1//EN"
  "http://www.w3.org/Graphics/SVG/1.1/DTD/svg11.dtd">
<!-- Created with matplotlib (http://matplotlib.org/) -->
<svg height="345.6pt" version="1.1" viewBox="0 0 460.8 345.6" width="460.8pt" xmlns="http://www.w3.org/2000/svg" xmlns:xlink="http://www.w3.org/1999/xlink">
 <defs>
  <style type="text/css">
*{stroke-linecap:butt;stroke-linejoin:round;}
  </style>
 </defs>
 <g id="figure_1">
  <g id="patch_1">
   <path d="M 0 345.6 
L 460.8 345.6 
L 460.8 0 
L 0 0 
z
" style="fill:#ffffff;"/>
  </g>
  <g id="axes_1">
   <g id="patch_2">
    <path d="M 57.6 293.479494 
L 343.296 293.479494 
L 343.296 55.576506 
L 57.6 55.576506 
z
" style="fill:#ffffff;"/>
   </g>
   <g id="matplotlib.axis_1">
    <g id="xtick_1">
     <g id="line2d_1">
      <defs>
       <path d="M 0 0 
L 0 3.5 
" id="m37b928a0e2" style="stroke:#000000;stroke-width:0.8;"/>
      </defs>
      <g>
       <use style="stroke:#000000;stroke-width:0.8;" x="104.861978" xlink:href="#m37b928a0e2" y="293.479494"/>
      </g>
     </g>
     <g id="text_1">
      <!-- 0.2 -->
      <defs>
       <path d="M 31.78125 66.40625 
Q 24.171875 66.40625 20.328125 58.90625 
Q 16.5 51.421875 16.5 36.375 
Q 16.5 21.390625 20.328125 13.890625 
Q 24.171875 6.390625 31.78125 6.390625 
Q 39.453125 6.390625 43.28125 13.890625 
Q 47.125 21.390625 47.125 36.375 
Q 47.125 51.421875 43.28125 58.90625 
Q 39.453125 66.40625 31.78125 66.40625 
z
M 31.78125 74.21875 
Q 44.046875 74.21875 50.515625 64.515625 
Q 56.984375 54.828125 56.984375 36.375 
Q 56.984375 17.96875 50.515625 8.265625 
Q 44.046875 -1.421875 31.78125 -1.421875 
Q 19.53125 -1.421875 13.0625 8.265625 
Q 6.59375 17.96875 6.59375 36.375 
Q 6.59375 54.828125 13.0625 64.515625 
Q 19.53125 74.21875 31.78125 74.21875 
z
" id="DejaVuSans-30"/>
       <path d="M 10.6875 12.40625 
L 21 12.40625 
L 21 0 
L 10.6875 0 
z
" id="DejaVuSans-2e"/>
       <path d="M 19.1875 8.296875 
L 53.609375 8.296875 
L 53.609375 0 
L 7.328125 0 
L 7.328125 8.296875 
Q 12.9375 14.109375 22.625 23.890625 
Q 32.328125 33.6875 34.8125 36.53125 
Q 39.546875 41.84375 41.421875 45.53125 
Q 43.3125 49.21875 43.3125 52.78125 
Q 43.3125 58.59375 39.234375 62.25 
Q 35.15625 65.921875 28.609375 65.921875 
Q 23.96875 65.921875 18.8125 64.3125 
Q 13.671875 62.703125 7.8125 59.421875 
L 7.8125 69.390625 
Q 13.765625 71.78125 18.9375 73 
Q 24.125 74.21875 28.421875 74.21875 
Q 39.75 74.21875 46.484375 68.546875 
Q 53.21875 62.890625 53.21875 53.421875 
Q 53.21875 48.921875 51.53125 44.890625 
Q 49.859375 40.875 45.40625 35.40625 
Q 44.1875 33.984375 37.640625 27.21875 
Q 31.109375 20.453125 19.1875 8.296875 
z
" id="DejaVuSans-32"/>
      </defs>
      <g transform="translate(96.910415 308.077932)scale(0.1 -0.1)">
       <use xlink:href="#DejaVuSans-30"/>
       <use x="63.623047" xlink:href="#DejaVuSans-2e"/>
       <use x="95.410156" xlink:href="#DejaVuSans-32"/>
      </g>
     </g>
    </g>
    <g id="xtick_2">
     <g id="line2d_2">
      <g>
       <use style="stroke:#000000;stroke-width:0.8;" x="152.654989" xlink:href="#m37b928a0e2" y="293.479494"/>
      </g>
     </g>
     <g id="text_2">
      <!-- 0.4 -->
      <defs>
       <path d="M 37.796875 64.3125 
L 12.890625 25.390625 
L 37.796875 25.390625 
z
M 35.203125 72.90625 
L 47.609375 72.90625 
L 47.609375 25.390625 
L 58.015625 25.390625 
L 58.015625 17.1875 
L 47.609375 17.1875 
L 47.609375 0 
L 37.796875 0 
L 37.796875 17.1875 
L 4.890625 17.1875 
L 4.890625 26.703125 
z
" id="DejaVuSans-34"/>
      </defs>
      <g transform="translate(144.703426 308.077932)scale(0.1 -0.1)">
       <use xlink:href="#DejaVuSans-30"/>
       <use x="63.623047" xlink:href="#DejaVuSans-2e"/>
       <use x="95.410156" xlink:href="#DejaVuSans-34"/>
      </g>
     </g>
    </g>
    <g id="xtick_3">
     <g id="line2d_3">
      <g>
       <use style="stroke:#000000;stroke-width:0.8;" x="200.448" xlink:href="#m37b928a0e2" y="293.479494"/>
      </g>
     </g>
     <g id="text_3">
      <!-- 0.6 -->
      <defs>
       <path d="M 33.015625 40.375 
Q 26.375 40.375 22.484375 35.828125 
Q 18.609375 31.296875 18.609375 23.390625 
Q 18.609375 15.53125 22.484375 10.953125 
Q 26.375 6.390625 33.015625 6.390625 
Q 39.65625 6.390625 43.53125 10.953125 
Q 47.40625 15.53125 47.40625 23.390625 
Q 47.40625 31.296875 43.53125 35.828125 
Q 39.65625 40.375 33.015625 40.375 
z
M 52.59375 71.296875 
L 52.59375 62.3125 
Q 48.875 64.0625 45.09375 64.984375 
Q 41.3125 65.921875 37.59375 65.921875 
Q 27.828125 65.921875 22.671875 59.328125 
Q 17.53125 52.734375 16.796875 39.40625 
Q 19.671875 43.65625 24.015625 45.921875 
Q 28.375 48.1875 33.59375 48.1875 
Q 44.578125 48.1875 50.953125 41.515625 
Q 57.328125 34.859375 57.328125 23.390625 
Q 57.328125 12.15625 50.6875 5.359375 
Q 44.046875 -1.421875 33.015625 -1.421875 
Q 20.359375 -1.421875 13.671875 8.265625 
Q 6.984375 17.96875 6.984375 36.375 
Q 6.984375 53.65625 15.1875 63.9375 
Q 23.390625 74.21875 37.203125 74.21875 
Q 40.921875 74.21875 44.703125 73.484375 
Q 48.484375 72.75 52.59375 71.296875 
z
" id="DejaVuSans-36"/>
      </defs>
      <g transform="translate(192.496438 308.077932)scale(0.1 -0.1)">
       <use xlink:href="#DejaVuSans-30"/>
       <use x="63.623047" xlink:href="#DejaVuSans-2e"/>
       <use x="95.410156" xlink:href="#DejaVuSans-36"/>
      </g>
     </g>
    </g>
    <g id="xtick_4">
     <g id="line2d_4">
      <g>
       <use style="stroke:#000000;stroke-width:0.8;" x="248.241011" xlink:href="#m37b928a0e2" y="293.479494"/>
      </g>
     </g>
     <g id="text_4">
      <!-- 0.8 -->
      <defs>
       <path d="M 31.78125 34.625 
Q 24.75 34.625 20.71875 30.859375 
Q 16.703125 27.09375 16.703125 20.515625 
Q 16.703125 13.921875 20.71875 10.15625 
Q 24.75 6.390625 31.78125 6.390625 
Q 38.8125 6.390625 42.859375 10.171875 
Q 46.921875 13.96875 46.921875 20.515625 
Q 46.921875 27.09375 42.890625 30.859375 
Q 38.875 34.625 31.78125 34.625 
z
M 21.921875 38.8125 
Q 15.578125 40.375 12.03125 44.71875 
Q 8.5 49.078125 8.5 55.328125 
Q 8.5 64.0625 14.71875 69.140625 
Q 20.953125 74.21875 31.78125 74.21875 
Q 42.671875 74.21875 48.875 69.140625 
Q 55.078125 64.0625 55.078125 55.328125 
Q 55.078125 49.078125 51.53125 44.71875 
Q 48 40.375 41.703125 38.8125 
Q 48.828125 37.15625 52.796875 32.3125 
Q 56.78125 27.484375 56.78125 20.515625 
Q 56.78125 9.90625 50.3125 4.234375 
Q 43.84375 -1.421875 31.78125 -1.421875 
Q 19.734375 -1.421875 13.25 4.234375 
Q 6.78125 9.90625 6.78125 20.515625 
Q 6.78125 27.484375 10.78125 32.3125 
Q 14.796875 37.15625 21.921875 38.8125 
z
M 18.3125 54.390625 
Q 18.3125 48.734375 21.84375 45.5625 
Q 25.390625 42.390625 31.78125 42.390625 
Q 38.140625 42.390625 41.71875 45.5625 
Q 45.3125 48.734375 45.3125 54.390625 
Q 45.3125 60.0625 41.71875 63.234375 
Q 38.140625 66.40625 31.78125 66.40625 
Q 25.390625 66.40625 21.84375 63.234375 
Q 18.3125 60.0625 18.3125 54.390625 
z
" id="DejaVuSans-38"/>
      </defs>
      <g transform="translate(240.289449 308.077932)scale(0.1 -0.1)">
       <use xlink:href="#DejaVuSans-30"/>
       <use x="63.623047" xlink:href="#DejaVuSans-2e"/>
       <use x="95.410156" xlink:href="#DejaVuSans-38"/>
      </g>
     </g>
    </g>
    <g id="xtick_5">
     <g id="line2d_5">
      <g>
       <use style="stroke:#000000;stroke-width:0.8;" x="296.034022" xlink:href="#m37b928a0e2" y="293.479494"/>
      </g>
     </g>
     <g id="text_5">
      <!-- 1.0 -->
      <defs>
       <path d="M 12.40625 8.296875 
L 28.515625 8.296875 
L 28.515625 63.921875 
L 10.984375 60.40625 
L 10.984375 69.390625 
L 28.421875 72.90625 
L 38.28125 72.90625 
L 38.28125 8.296875 
L 54.390625 8.296875 
L 54.390625 0 
L 12.40625 0 
z
" id="DejaVuSans-31"/>
      </defs>
      <g transform="translate(288.08246 308.077932)scale(0.1 -0.1)">
       <use xlink:href="#DejaVuSans-31"/>
       <use x="63.623047" xlink:href="#DejaVuSans-2e"/>
       <use x="95.410156" xlink:href="#DejaVuSans-30"/>
      </g>
     </g>
    </g>
   </g>
   <g id="matplotlib.axis_2">
    <g id="ytick_1">
     <g id="line2d_6">
      <defs>
       <path d="M 0 0 
L -3.5 0 
" id="m86725504d1" style="stroke:#000000;stroke-width:0.8;"/>
      </defs>
      <g>
       <use style="stroke:#000000;stroke-width:0.8;" x="57.6" xlink:href="#m86725504d1" y="246.217517"/>
      </g>
     </g>
     <g id="text_6">
      <!-- 0.2 -->
      <g transform="translate(34.696875 250.016735)scale(0.1 -0.1)">
       <use xlink:href="#DejaVuSans-30"/>
       <use x="63.623047" xlink:href="#DejaVuSans-2e"/>
       <use x="95.410156" xlink:href="#DejaVuSans-32"/>
      </g>
     </g>
    </g>
    <g id="ytick_2">
     <g id="line2d_7">
      <g>
       <use style="stroke:#000000;stroke-width:0.8;" x="57.6" xlink:href="#m86725504d1" y="198.424506"/>
      </g>
     </g>
     <g id="text_7">
      <!-- 0.4 -->
      <g transform="translate(34.696875 202.223724)scale(0.1 -0.1)">
       <use xlink:href="#DejaVuSans-30"/>
       <use x="63.623047" xlink:href="#DejaVuSans-2e"/>
       <use x="95.410156" xlink:href="#DejaVuSans-34"/>
      </g>
     </g>
    </g>
    <g id="ytick_3">
     <g id="line2d_8">
      <g>
       <use style="stroke:#000000;stroke-width:0.8;" x="57.6" xlink:href="#m86725504d1" y="150.631494"/>
      </g>
     </g>
     <g id="text_8">
      <!-- 0.6 -->
      <g transform="translate(34.696875 154.430713)scale(0.1 -0.1)">
       <use xlink:href="#DejaVuSans-30"/>
       <use x="63.623047" xlink:href="#DejaVuSans-2e"/>
       <use x="95.410156" xlink:href="#DejaVuSans-36"/>
      </g>
     </g>
    </g>
    <g id="ytick_4">
     <g id="line2d_9">
      <g>
       <use style="stroke:#000000;stroke-width:0.8;" x="57.6" xlink:href="#m86725504d1" y="102.838483"/>
      </g>
     </g>
     <g id="text_9">
      <!-- 0.8 -->
      <g transform="translate(34.696875 106.637702)scale(0.1 -0.1)">
       <use xlink:href="#DejaVuSans-30"/>
       <use x="63.623047" xlink:href="#DejaVuSans-2e"/>
       <use x="95.410156" xlink:href="#DejaVuSans-38"/>
      </g>
     </g>
    </g>
   </g>
   <g id="LineCollection_1">
    <path clip-path="url(#pf0156bc455)" d="M 117.769095 293.479494 
L 117.559241 292.417428 
L 117.075747 291.047072 
L 116.699752 290.293294 
L 115.852092 289.231227 
L 114.462208 288.16916 
L 112.82748 287.433569 
L 111.765413 287.065373 
L 109.641279 286.619114 
L 106.455078 286.221405 
L 102.20681 286.005239 
L 87.337874 285.635511 
L 84.151673 285.329482 
L 80.965472 284.826955 
L 78.841338 284.343739 
L 76.717204 283.680448 
L 74.593071 282.772833 
L 72.468937 281.500788 
L 71.40687 280.671738 
L 70.344803 279.663658 
L 68.660477 277.548491 
L 67.9934 276.486424 
L 66.910001 274.36229 
L 66.056098 272.238156 
L 65.034468 268.898984 
L 64.132432 264.803688 
L 63.458157 260.55542 
L 62.843789 255.245086 
L 62.250192 247.810617 
L 61.63721 237.189948 
L 60.786201 217.819572 
L 60.058379 195.769338 
L 59.408888 169.217665 
L 58.765044 133.10739 
L 58.177641 87.438513 
L 57.910414 55.576506 
L 57.910414 55.576506 
" style="fill:none;stroke:#000080;stroke-width:1.5;"/>
   </g>
   <g id="LineCollection_2">
    <path clip-path="url(#pf0156bc455)" d="M 286.04514 293.479494 
L 286.414063 291.355361 
L 286.997566 288.16916 
L 287.097269 286.045026 
L 287.006454 282.77229 
L 286.392742 276.486424 
L 285.288287 266.927822 
L 284.300389 259.493353 
L 283.469218 254.183019 
L 282.435673 248.872684 
L 281.346734 244.624416 
L 280.23477 241.438216 
L 279.217325 239.314082 
L 278.509918 238.144678 
L 277.447851 236.912543 
L 276.385784 236.069352 
L 275.323717 235.512536 
L 273.834185 235.065814 
L 272.137517 234.818032 
L 268.951316 234.755159 
L 247.709978 235.13535 
L 227.530706 235.372747 
L 214.785903 235.770216 
L 190.358364 236.664949 
L 183.985963 236.618506 
L 177.613561 236.349017 
L 171.24116 235.861579 
L 162.744625 234.967481 
L 147.875688 233.336881 
L 141.503286 232.857111 
L 135.130885 232.610788 
L 128.758483 232.620813 
L 122.386082 232.866245 
L 114.951613 233.39735 
L 109.296591 234.003747 
L 106.455078 234.463445 
L 103.855935 235.065814 
L 102.20681 235.602703 
L 100.082677 236.560238 
L 99.018435 237.189948 
L 97.623866 238.252015 
L 96.521183 239.314082 
L 95.619078 240.376149 
L 94.23863 242.500283 
L 93.234921 244.624416 
L 92.501373 246.74855 
L 91.992207 248.872684 
L 91.586141 251.608801 
L 91.396346 254.183019 
L 91.059825 259.493353 
L 90.599865 261.617487 
L 90.195176 262.679554 
L 89.462007 263.967308 
L 88.399941 265.189745 
L 87.337874 266.025209 
L 86.275807 266.586915 
L 85.21374 266.97818 
L 84.151673 267.183356 
L 83.089606 267.252161 
L 82.027539 267.185189 
L 80.795471 266.927822 
L 79.903405 266.619119 
L 78.464569 265.865755 
L 77.041277 264.803688 
L 76.717204 264.530946 
L 75.096047 262.679554 
L 74.343814 261.617487 
L 73.13253 259.493353 
L 72.154351 257.369219 
L 70.989156 254.183019 
L 70.052041 250.996818 
L 69.043714 246.74855 
L 67.857441 240.376149 
L 66.755715 232.94168 
L 65.611554 223.383078 
L 64.582512 212.762409 
L 63.590045 200.017606 
L 62.607742 184.086602 
L 61.634007 163.907331 
L 60.677318 138.417725 
L 59.754042 106.555717 
L 58.728603 63.010974 
L 58.710686 57.700639 
L 58.758026 55.576506 
L 58.758026 55.576506 
" style="fill:none;stroke:#0000e8;stroke-width:1.5;"/>
   </g>
   <g id="LineCollection_3">
    <path clip-path="url(#pf0156bc455)" d="M 290.103595 293.479494 
L 290.50578 288.16916 
L 290.477481 284.982959 
L 290.128571 278.610558 
L 288.562532 256.307152 
L 287.346103 240.376149 
L 286.450494 230.817546 
L 285.475323 222.321011 
L 284.563563 215.94861 
L 283.60194 210.638275 
L 282.597091 206.390007 
L 281.583723 203.203807 
L 280.634052 201.013135 
L 279.571985 199.354878 
L 278.509918 198.31491 
L 277.447851 197.743294 
L 276.385784 197.514642 
L 275.323717 197.525801 
L 273.199584 197.960285 
L 266.827182 199.757037 
L 263.640981 200.297067 
L 260.454781 200.595461 
L 256.206513 200.758503 
L 247.709978 200.788927 
L 212.66177 200.815139 
L 183.985963 200.977471 
L 160.620491 201.376119 
L 133.006751 201.774915 
L 125.572283 201.727768 
L 120.261948 201.48392 
L 115.888271 201.079673 
L 110.703346 200.366978 
L 103.268877 199.253664 
L 100.082677 199.006144 
L 97.958543 199.029792 
L 95.834409 199.275887 
L 93.710275 199.815929 
L 91.586141 200.733886 
L 90.524074 201.360589 
L 88.399941 202.996604 
L 87.105215 204.265874 
L 85.21374 206.45399 
L 82.895631 209.576208 
L 79.748152 213.824476 
L 78.807982 214.886543 
L 77.553682 215.94861 
L 76.717204 216.441354 
L 75.655138 216.649124 
L 74.593071 216.354076 
L 73.531004 215.46941 
L 72.433167 213.824476 
L 71.10506 210.638275 
L 70.129152 207.452074 
L 68.91304 202.14174 
L 67.790378 195.769338 
L 66.749938 188.33487 
L 65.675974 178.776268 
L 64.618497 167.093532 
L 63.5338 152.224595 
L 62.472008 134.169457 
L 61.41845 111.866052 
L 60.37239 84.252312 
L 59.562047 58.762706 
L 59.657234 55.576506 
L 59.657234 55.576506 
" style="fill:none;stroke:#0038ff;stroke-width:1.5;"/>
   </g>
   <g id="LineCollection_4">
    <path clip-path="url(#pf0156bc455)" d="M 292.345051 293.479494 
L 292.466475 284.982959 
L 292.133945 277.548491 
L 290.280838 240.376149 
L 289.411651 225.507212 
L 288.52938 212.762409 
L 287.550592 201.079673 
L 286.562175 191.521071 
L 285.450814 183.024535 
L 284.577958 177.714201 
L 283.440999 172.403866 
L 282.545999 169.217665 
L 281.696119 166.8828 
L 280.634052 164.893635 
L 279.571985 163.668524 
L 278.509918 163.054446 
L 277.447851 162.916033 
L 276.385784 163.134266 
L 274.821829 163.907331 
L 273.199584 164.969491 
L 270.013383 167.225356 
L 267.889249 168.506176 
L 265.765115 169.50659 
L 263.440545 170.279732 
L 261.516848 170.711676 
L 259.392714 171.002939 
L 256.206513 171.18809 
L 251.958245 171.174471 
L 234.965175 170.870373 
L 107.517145 170.540301 
L 96.896476 170.330541 
L 93.710275 170.508918 
L 91.586141 170.801141 
L 89.313407 171.341799 
L 87.337874 172.048807 
L 85.21374 173.11109 
L 83.040747 174.528 
L 77.779271 178.428339 
L 76.717204 178.916032 
L 75.655138 179.114089 
L 74.391223 178.776268 
L 73.531004 178.196052 
L 72.376423 176.652134 
L 71.343645 174.528 
L 70.259874 171.341799 
L 68.976533 166.031465 
L 67.815909 159.659063 
L 66.749232 152.224595 
L 65.648981 142.665993 
L 64.561553 130.983257 
L 63.514058 117.176387 
L 62.462376 100.183316 
L 60.752322 67.259242 
L 60.509682 59.824773 
L 60.662863 55.576506 
L 60.662863 55.576506 
" style="fill:none;stroke:#0094ff;stroke-width:1.5;"/>
   </g>
   <g id="LineCollection_5">
    <path clip-path="url(#pf0156bc455)" d="M 294.044214 293.479494 
L 293.959106 281.796758 
L 292.868044 252.058885 
L 291.655226 222.321011 
L 290.63192 202.14174 
L 289.636378 186.210736 
L 288.657099 173.465933 
L 287.646059 162.845264 
L 286.632353 154.348729 
L 285.489486 146.91426 
L 284.667229 142.665993 
L 283.598564 138.417725 
L 282.493897 135.231524 
L 281.429586 133.10739 
L 280.634052 131.976714 
L 279.571985 131.13987 
L 278.509918 130.862645 
L 277.447851 131.041186 
L 276.385784 131.581541 
L 274.574701 133.10739 
L 273.199584 134.532326 
L 268.951316 139.168802 
L 266.827182 141.079961 
L 264.703048 142.569467 
L 262.578914 143.64251 
L 260.454781 144.347196 
L 258.330647 144.747107 
L 256.206513 144.910904 
L 253.020312 144.847379 
L 248.772045 144.455293 
L 241.337576 143.700339 
L 237.089309 143.468258 
L 231.778974 143.404705 
L 221.158305 143.606393 
L 209.475569 143.730408 
L 110.626354 143.728059 
L 92.648208 143.779057 
L 89.462007 144.011205 
L 86.275807 144.489546 
L 84.151673 144.99451 
L 80.965472 146.031315 
L 77.779271 147.087291 
L 76.717204 147.277709 
L 75.655138 147.277125 
L 74.471837 146.91426 
L 73.531004 146.312582 
L 72.288114 144.790126 
L 71.179953 142.665993 
L 70.034181 139.479792 
L 68.920236 135.231524 
L 67.857639 129.92119 
L 66.849458 123.548788 
L 65.662522 113.990186 
L 64.610521 103.369517 
L 63.502758 89.562647 
L 61.696063 63.010974 
L 61.635841 59.824773 
L 61.85029 55.576506 
L 61.85029 55.576506 
" style="fill:none;stroke:#0cf4eb;stroke-width:1.5;"/>
   </g>
   <g id="LineCollection_6">
    <path clip-path="url(#pf0156bc455)" d="M 295.57126 293.479494 
L 295.346549 277.548491 
L 294.348186 242.500283 
L 293.17532 208.514141 
L 292.052452 183.024535 
L 290.913085 162.845264 
L 289.835055 147.976327 
L 288.746556 136.293591 
L 287.733849 127.797056 
L 286.585524 120.362587 
L 285.514682 115.052253 
L 284.713051 111.866052 
L 283.672846 108.679851 
L 282.758186 106.551791 
L 281.696119 104.839457 
L 280.634052 103.775318 
L 279.571985 103.264058 
L 278.509918 103.224204 
L 277.447851 103.582526 
L 276.205586 104.431584 
L 275.0695 105.493651 
L 273.199584 107.642192 
L 267.307901 115.052253 
L 265.765115 116.676052 
L 263.640981 118.511194 
L 261.516848 119.875627 
L 259.392714 120.789823 
L 257.26858 121.304551 
L 255.144446 121.485856 
L 253.020312 121.403778 
L 250.896178 121.127962 
L 247.168271 120.362587 
L 239.213442 118.611822 
L 236.027242 118.121392 
L 231.778974 117.732871 
L 227.530706 117.610447 
L 222.220372 117.716523 
L 196.730766 118.640432 
L 178.675628 118.805091 
L 105.393011 119.309329 
L 89.462007 119.557795 
L 84.151673 119.906608 
L 77.779271 120.47557 
L 76.387797 120.362587 
L 75.655138 120.22793 
L 74.593071 119.818449 
L 73.531004 119.099738 
L 72.468937 117.954584 
L 71.351856 116.11432 
L 70.072153 112.928119 
L 69.121406 109.741918 
L 67.951263 104.431584 
L 66.877727 98.059182 
L 65.641369 88.50058 
L 64.426373 76.817844 
L 63.357796 65.135108 
L 63.149147 60.88684 
L 63.22875 58.762706 
L 63.512071 55.576506 
L 63.512071 55.576506 
" style="fill:none;stroke:#56ffa0;stroke-width:1.5;"/>
   </g>
   <g id="LineCollection_7">
    <path clip-path="url(#pf0156bc455)" d="M 300.790761 293.479494 
L 300.683156 287.107093 
L 300.361734 280.734691 
L 299.751257 273.246368 
L 298.545932 261.617487 
L 296.470525 242.500283 
L 295.073304 206.390007 
L 294.06175 177.714201 
L 293.063457 155.410796 
L 292.02338 137.355658 
L 290.988915 123.548788 
L 289.964414 112.928119 
L 288.771998 103.369517 
L 287.746271 96.997115 
L 286.62296 91.686781 
L 285.752433 88.50058 
L 284.600836 85.314379 
L 283.589051 83.190245 
L 282.758186 81.794965 
L 281.259461 80.004045 
L 280.634052 79.412579 
L 279.571985 78.670042 
L 278.509918 78.163629 
L 277.447851 77.85304 
L 276.385784 77.736711 
L 274.817287 77.879911 
L 274.261651 77.999202 
L 273.199584 78.388831 
L 272.123044 78.941978 
L 270.711145 80.004045 
L 269.650195 81.066112 
L 268.791691 82.128178 
L 267.436053 84.252312 
L 265.765115 87.550852 
L 263.640981 91.76345 
L 262.345915 93.810914 
L 261.516848 94.908681 
L 260.454781 96.076353 
L 259.392714 97.030473 
L 257.890604 98.059182 
L 256.206513 98.88909 
L 254.082379 99.532504 
L 251.958245 99.856461 
L 249.834112 99.955811 
L 246.647911 99.832952 
L 242.399643 99.397717 
L 221.158305 96.818107 
L 213.723836 96.294267 
L 206.289368 96.0153 
L 197.792833 95.926208 
L 154.248089 95.832388 
L 125.572283 95.231952 
L 88.399941 94.502341 
L 79.903405 94.360927 
L 77.779271 94.127303 
L 76.471201 93.810914 
L 75.655138 93.527703 
L 74.313332 92.748848 
L 73.145839 91.686781 
L 72.298588 90.624714 
L 71.12593 88.50058 
L 70.242248 86.376446 
L 68.996894 82.128178 
L 67.847674 76.817844 
L 66.774991 70.445442 
L 66.063064 65.135108 
L 65.91155 61.948907 
L 65.99901 59.824773 
L 66.313371 57.700639 
L 66.475122 56.638572 
L 66.503651 55.576506 
L 66.503651 55.576506 
" style="fill:none;stroke:#a0ff56;stroke-width:1.5;"/>
   </g>
   <g id="LineCollection_8">
    <path clip-path="url(#pf0156bc455)" d="M 308.293082 293.479494 
L 308.150857 284.982959 
L 307.767794 276.486424 
L 307.031898 265.865755 
L 305.828779 252.058885 
L 304.0163 234.003747 
L 302.104529 217.010677 
L 299.969902 200.017606 
L 297.88205 185.148669 
L 296.512984 175.590067 
L 294.95827 144.790126 
L 294.06307 126.734989 
L 293.116038 111.866052 
L 292.069236 99.121249 
L 291.137905 90.624714 
L 290.192654 84.491983 
L 289.456138 81.066112 
L 288.559435 77.879911 
L 287.782249 75.755777 
L 286.76971 73.631643 
L 285.944387 72.281112 
L 284.88232 70.936616 
L 283.820253 69.905495 
L 282.758186 69.107563 
L 281.335754 68.321309 
L 279.571985 67.657016 
L 277.447851 67.192681 
L 275.323717 67.005487 
L 273.199584 67.022541 
L 270.70726 67.259242 
L 267.889249 67.764096 
L 264.703048 68.598015 
L 261.516848 69.674831 
L 257.021904 71.507509 
L 248.772045 75.124074 
L 245.585844 76.243735 
L 242.399643 77.052129 
L 240.275509 77.397906 
L 237.089309 77.640605 
L 233.903108 77.587661 
L 230.716907 77.29719 
L 226.468639 76.646861 
L 221.158305 75.564706 
L 188.23423 68.03533 
L 182.923896 66.495396 
L 180.799762 65.755385 
L 178.675628 64.913005 
L 176.551494 63.892791 
L 174.427361 62.545483 
L 173.365294 61.658094 
L 172.303227 60.399744 
L 171.925008 59.824773 
L 171.498227 58.762706 
L 171.29128 57.700639 
L 171.310276 55.576506 
L 171.310276 55.576506 
" style="fill:none;stroke:#ebff0c;stroke-width:1.5;"/>
   </g>
   <g id="LineCollection_9">
    <path clip-path="url(#pf0156bc455)" d="M 315.996812 293.479494 
L 315.873756 283.920892 
L 315.4981 273.300223 
L 314.79746 260.55542 
L 313.6843 244.624416 
L 312.123917 225.507212 
L 310.345579 206.390007 
L 308.553169 189.396937 
L 306.780363 174.528 
L 304.917221 160.72113 
L 303.134151 149.038394 
L 301.306727 138.417725 
L 299.453207 128.859123 
L 297.601985 120.362587 
L 296.565056 116.00328 
L 293.688497 82.128178 
L 293.066921 77.879911 
L 292.202491 73.631643 
L 291.254721 70.436184 
L 290.192654 67.986247 
L 289.091448 66.197175 
L 288.06852 64.962641 
L 287.006454 63.962435 
L 284.88232 62.475982 
L 282.758186 61.373943 
L 278.509918 59.500601 
L 277.063776 58.762706 
L 275.799293 57.700639 
L 275.280114 56.638572 
L 275.259084 55.576506 
L 275.259084 55.576506 
" style="fill:none;stroke:#ffab00;stroke-width:1.5;"/>
   </g>
   <g id="LineCollection_10">
    <path clip-path="url(#pf0156bc455)" d="M 323.848795 293.479494 
L 323.731201 281.796758 
L 323.381188 269.051955 
L 322.707938 253.120952 
L 321.618615 232.94168 
L 320.195959 210.638275 
L 318.703149 190.459004 
L 317.151532 172.403866 
L 315.556404 156.472862 
L 313.94612 142.665993 
L 312.369742 130.983257 
L 310.720426 120.362587 
L 309.01402 110.803985 
L 307.185725 101.908428 
L 305.528142 94.872981 
L 303.809904 88.50058 
L 302.162652 83.190245 
L 300.648181 78.941978 
L 298.881579 74.69371 
L 297.307709 71.507509 
L 296.565056 70.189265 
L 295.873002 67.259242 
L 295.33808 65.135108 
L 294.440922 61.528142 
L 292.677508 55.576506 
L 292.677508 55.576506 
" style="fill:none;stroke:#ff5500;stroke-width:1.5;"/>
   </g>
   <g id="LineCollection_11">
    <path clip-path="url(#pf0156bc455)" d="M 331.80124 293.479494 
L 331.680664 277.548491 
L 331.313009 259.493353 
L 330.602513 236.127881 
L 329.459282 206.390007 
L 328.323863 181.962468 
L 327.125935 160.72113 
L 325.88168 142.665993 
L 324.647086 127.797056 
L 323.279191 113.990186 
L 321.905202 102.30745 
L 320.298985 90.624714 
L 316.600396 65.135108 
L 316.187057 59.824773 
L 316.088088 55.576506 
L 316.088088 55.576506 
" style="fill:none;stroke:#e80000;stroke-width:1.5;"/>
   </g>
   <g id="LineCollection_12">
    <path clip-path="url(#pf0156bc455)" d="M 339.812027 293.479494 
L 339.694983 265.865755 
L 339.284607 226.569279 
L 338.412141 168.155599 
L 337.790202 140.541859 
L 336.893498 110.803985 
L 336.168597 92.748848 
L 335.084546 67.259242 
L 334.926465 57.700639 
L 334.922057 55.576506 
L 334.922057 55.576506 
" style="fill:none;stroke:#800000;stroke-width:1.5;"/>
   </g>
   <g id="patch_3">
    <path d="M 57.6 293.479494 
L 57.6 55.576506 
" style="fill:none;stroke:#000000;stroke-linecap:square;stroke-linejoin:miter;stroke-width:0.8;"/>
   </g>
   <g id="patch_4">
    <path d="M 343.296 293.479494 
L 343.296 55.576506 
" style="fill:none;stroke:#000000;stroke-linecap:square;stroke-linejoin:miter;stroke-width:0.8;"/>
   </g>
   <g id="patch_5">
    <path d="M 57.6 293.479494 
L 343.296 293.479494 
" style="fill:none;stroke:#000000;stroke-linecap:square;stroke-linejoin:miter;stroke-width:0.8;"/>
   </g>
   <g id="patch_6">
    <path d="M 57.6 55.576506 
L 343.296 55.576506 
" style="fill:none;stroke:#000000;stroke-linecap:square;stroke-linejoin:miter;stroke-width:0.8;"/>
   </g>
   <g id="text_10">
    <!-- Time:0.12510 s -->
    <defs>
     <path d="M -0.296875 72.90625 
L 61.375 72.90625 
L 61.375 64.59375 
L 35.5 64.59375 
L 35.5 0 
L 25.59375 0 
L 25.59375 64.59375 
L -0.296875 64.59375 
z
" id="DejaVuSans-54"/>
     <path d="M 9.421875 54.6875 
L 18.40625 54.6875 
L 18.40625 0 
L 9.421875 0 
z
M 9.421875 75.984375 
L 18.40625 75.984375 
L 18.40625 64.59375 
L 9.421875 64.59375 
z
" id="DejaVuSans-69"/>
     <path d="M 52 44.1875 
Q 55.375 50.25 60.0625 53.125 
Q 64.75 56 71.09375 56 
Q 79.640625 56 84.28125 50.015625 
Q 88.921875 44.046875 88.921875 33.015625 
L 88.921875 0 
L 79.890625 0 
L 79.890625 32.71875 
Q 79.890625 40.578125 77.09375 44.375 
Q 74.3125 48.1875 68.609375 48.1875 
Q 61.625 48.1875 57.5625 43.546875 
Q 53.515625 38.921875 53.515625 30.90625 
L 53.515625 0 
L 44.484375 0 
L 44.484375 32.71875 
Q 44.484375 40.625 41.703125 44.40625 
Q 38.921875 48.1875 33.109375 48.1875 
Q 26.21875 48.1875 22.15625 43.53125 
Q 18.109375 38.875 18.109375 30.90625 
L 18.109375 0 
L 9.078125 0 
L 9.078125 54.6875 
L 18.109375 54.6875 
L 18.109375 46.1875 
Q 21.1875 51.21875 25.484375 53.609375 
Q 29.78125 56 35.6875 56 
Q 41.65625 56 45.828125 52.96875 
Q 50 49.953125 52 44.1875 
z
" id="DejaVuSans-6d"/>
     <path d="M 56.203125 29.59375 
L 56.203125 25.203125 
L 14.890625 25.203125 
Q 15.484375 15.921875 20.484375 11.0625 
Q 25.484375 6.203125 34.421875 6.203125 
Q 39.59375 6.203125 44.453125 7.46875 
Q 49.3125 8.734375 54.109375 11.28125 
L 54.109375 2.78125 
Q 49.265625 0.734375 44.1875 -0.34375 
Q 39.109375 -1.421875 33.890625 -1.421875 
Q 20.796875 -1.421875 13.15625 6.1875 
Q 5.515625 13.8125 5.515625 26.8125 
Q 5.515625 40.234375 12.765625 48.109375 
Q 20.015625 56 32.328125 56 
Q 43.359375 56 49.78125 48.890625 
Q 56.203125 41.796875 56.203125 29.59375 
z
M 47.21875 32.234375 
Q 47.125 39.59375 43.09375 43.984375 
Q 39.0625 48.390625 32.421875 48.390625 
Q 24.90625 48.390625 20.390625 44.140625 
Q 15.875 39.890625 15.1875 32.171875 
z
" id="DejaVuSans-65"/>
     <path d="M 11.71875 12.40625 
L 22.015625 12.40625 
L 22.015625 0 
L 11.71875 0 
z
M 11.71875 51.703125 
L 22.015625 51.703125 
L 22.015625 39.3125 
L 11.71875 39.3125 
z
" id="DejaVuSans-3a"/>
     <path d="M 10.796875 72.90625 
L 49.515625 72.90625 
L 49.515625 64.59375 
L 19.828125 64.59375 
L 19.828125 46.734375 
Q 21.96875 47.46875 24.109375 47.828125 
Q 26.265625 48.1875 28.421875 48.1875 
Q 40.625 48.1875 47.75 41.5 
Q 54.890625 34.8125 54.890625 23.390625 
Q 54.890625 11.625 47.5625 5.09375 
Q 40.234375 -1.421875 26.90625 -1.421875 
Q 22.3125 -1.421875 17.546875 -0.640625 
Q 12.796875 0.140625 7.71875 1.703125 
L 7.71875 11.625 
Q 12.109375 9.234375 16.796875 8.0625 
Q 21.484375 6.890625 26.703125 6.890625 
Q 35.15625 6.890625 40.078125 11.328125 
Q 45.015625 15.765625 45.015625 23.390625 
Q 45.015625 31 40.078125 35.4375 
Q 35.15625 39.890625 26.703125 39.890625 
Q 22.75 39.890625 18.8125 39.015625 
Q 14.890625 38.140625 10.796875 36.28125 
z
" id="DejaVuSans-35"/>
     <path id="DejaVuSans-20"/>
     <path d="M 44.28125 53.078125 
L 44.28125 44.578125 
Q 40.484375 46.53125 36.375 47.5 
Q 32.28125 48.484375 27.875 48.484375 
Q 21.1875 48.484375 17.84375 46.4375 
Q 14.5 44.390625 14.5 40.28125 
Q 14.5 37.15625 16.890625 35.375 
Q 19.28125 33.59375 26.515625 31.984375 
L 29.59375 31.296875 
Q 39.15625 29.25 43.1875 25.515625 
Q 47.21875 21.78125 47.21875 15.09375 
Q 47.21875 7.46875 41.1875 3.015625 
Q 35.15625 -1.421875 24.609375 -1.421875 
Q 20.21875 -1.421875 15.453125 -0.5625 
Q 10.6875 0.296875 5.421875 2 
L 5.421875 11.28125 
Q 10.40625 8.6875 15.234375 7.390625 
Q 20.0625 6.109375 24.8125 6.109375 
Q 31.15625 6.109375 34.5625 8.28125 
Q 37.984375 10.453125 37.984375 14.40625 
Q 37.984375 18.0625 35.515625 20.015625 
Q 33.0625 21.96875 24.703125 23.78125 
L 21.578125 24.515625 
Q 13.234375 26.265625 9.515625 29.90625 
Q 5.8125 33.546875 5.8125 39.890625 
Q 5.8125 47.609375 11.28125 51.796875 
Q 16.75 56 26.8125 56 
Q 31.78125 56 36.171875 55.265625 
Q 40.578125 54.546875 44.28125 53.078125 
z
" id="DejaVuSans-73"/>
    </defs>
    <g transform="translate(153.717375 49.576506)scale(0.12 -0.12)">
     <use xlink:href="#DejaVuSans-54"/>
     <use x="61.037109" xlink:href="#DejaVuSans-69"/>
     <use x="88.820312" xlink:href="#DejaVuSans-6d"/>
     <use x="186.232422" xlink:href="#DejaVuSans-65"/>
     <use x="247.755859" xlink:href="#DejaVuSans-3a"/>
     <use x="281.447266" xlink:href="#DejaVuSans-30"/>
     <use x="345.070312" xlink:href="#DejaVuSans-2e"/>
     <use x="376.857422" xlink:href="#DejaVuSans-31"/>
     <use x="440.480469" xlink:href="#DejaVuSans-32"/>
     <use x="504.103516" xlink:href="#DejaVuSans-35"/>
     <use x="567.726562" xlink:href="#DejaVuSans-31"/>
     <use x="631.349609" xlink:href="#DejaVuSans-30"/>
     <use x="694.972656" xlink:href="#DejaVuSans-20"/>
     <use x="726.759766" xlink:href="#DejaVuSans-73"/>
    </g>
   </g>
  </g>
  <g id="axes_2">
   <g id="patch_7">
    <path clip-path="url(#pe0a10a29bb)" d="M 361.152 307.584 
L 361.152 283.392 
L 361.152 65.664 
L 361.152 41.472 
L 374.4576 41.472 
L 374.4576 65.664 
L 374.4576 283.392 
L 374.4576 307.584 
z
" style="fill:#ffffff;stroke:#ffffff;stroke-linejoin:miter;stroke-width:0.01;"/>
   </g>
   <g id="matplotlib.axis_3"/>
   <g id="matplotlib.axis_4">
    <g id="ytick_5">
     <g id="line2d_10">
      <defs>
       <path d="M 0 0 
L 3.5 0 
" id="m959ff960a6" style="stroke:#000000;stroke-width:0.8;"/>
      </defs>
      <g>
       <use style="stroke:#000000;stroke-width:0.8;" x="374.4576" xlink:href="#m959ff960a6" y="307.584"/>
      </g>
     </g>
     <g id="text_11">
      <!-- 0.08 -->
      <g transform="translate(381.4576 311.383219)scale(0.1 -0.1)">
       <use xlink:href="#DejaVuSans-30"/>
       <use x="63.623047" xlink:href="#DejaVuSans-2e"/>
       <use x="95.410156" xlink:href="#DejaVuSans-30"/>
       <use x="159.033203" xlink:href="#DejaVuSans-38"/>
      </g>
     </g>
    </g>
    <g id="ytick_6">
     <g id="line2d_11">
      <g>
       <use style="stroke:#000000;stroke-width:0.8;" x="374.4576" xlink:href="#m959ff960a6" y="259.2"/>
      </g>
     </g>
     <g id="text_12">
      <!-- 0.24 -->
      <g transform="translate(381.4576 262.999219)scale(0.1 -0.1)">
       <use xlink:href="#DejaVuSans-30"/>
       <use x="63.623047" xlink:href="#DejaVuSans-2e"/>
       <use x="95.410156" xlink:href="#DejaVuSans-32"/>
       <use x="159.033203" xlink:href="#DejaVuSans-34"/>
      </g>
     </g>
    </g>
    <g id="ytick_7">
     <g id="line2d_12">
      <g>
       <use style="stroke:#000000;stroke-width:0.8;" x="374.4576" xlink:href="#m959ff960a6" y="210.816"/>
      </g>
     </g>
     <g id="text_13">
      <!-- 0.40 -->
      <g transform="translate(381.4576 214.615219)scale(0.1 -0.1)">
       <use xlink:href="#DejaVuSans-30"/>
       <use x="63.623047" xlink:href="#DejaVuSans-2e"/>
       <use x="95.410156" xlink:href="#DejaVuSans-34"/>
       <use x="159.033203" xlink:href="#DejaVuSans-30"/>
      </g>
     </g>
    </g>
    <g id="ytick_8">
     <g id="line2d_13">
      <g>
       <use style="stroke:#000000;stroke-width:0.8;" x="374.4576" xlink:href="#m959ff960a6" y="162.432"/>
      </g>
     </g>
     <g id="text_14">
      <!-- 0.56 -->
      <g transform="translate(381.4576 166.231219)scale(0.1 -0.1)">
       <use xlink:href="#DejaVuSans-30"/>
       <use x="63.623047" xlink:href="#DejaVuSans-2e"/>
       <use x="95.410156" xlink:href="#DejaVuSans-35"/>
       <use x="159.033203" xlink:href="#DejaVuSans-36"/>
      </g>
     </g>
    </g>
    <g id="ytick_9">
     <g id="line2d_14">
      <g>
       <use style="stroke:#000000;stroke-width:0.8;" x="374.4576" xlink:href="#m959ff960a6" y="114.048"/>
      </g>
     </g>
     <g id="text_15">
      <!-- 0.72 -->
      <defs>
       <path d="M 8.203125 72.90625 
L 55.078125 72.90625 
L 55.078125 68.703125 
L 28.609375 0 
L 18.3125 0 
L 43.21875 64.59375 
L 8.203125 64.59375 
z
" id="DejaVuSans-37"/>
      </defs>
      <g transform="translate(381.4576 117.847219)scale(0.1 -0.1)">
       <use xlink:href="#DejaVuSans-30"/>
       <use x="63.623047" xlink:href="#DejaVuSans-2e"/>
       <use x="95.410156" xlink:href="#DejaVuSans-37"/>
       <use x="159.033203" xlink:href="#DejaVuSans-32"/>
      </g>
     </g>
    </g>
    <g id="ytick_10">
     <g id="line2d_15">
      <g>
       <use style="stroke:#000000;stroke-width:0.8;" x="374.4576" xlink:href="#m959ff960a6" y="65.664"/>
      </g>
     </g>
     <g id="text_16">
      <!-- 0.88 -->
      <g transform="translate(381.4576 69.463219)scale(0.1 -0.1)">
       <use xlink:href="#DejaVuSans-30"/>
       <use x="63.623047" xlink:href="#DejaVuSans-2e"/>
       <use x="95.410156" xlink:href="#DejaVuSans-38"/>
       <use x="159.033203" xlink:href="#DejaVuSans-38"/>
      </g>
     </g>
    </g>
   </g>
   <g id="LineCollection_13">
    <path clip-path="url(#pe0a10a29bb)" d="M 361.152 307.584 
L 374.4576 307.584 
" style="fill:none;stroke:#000080;stroke-width:1.5;"/>
    <path clip-path="url(#pe0a10a29bb)" d="M 361.152 283.392 
L 374.4576 283.392 
" style="fill:none;stroke:#0000e8;stroke-width:1.5;"/>
    <path clip-path="url(#pe0a10a29bb)" d="M 361.152 259.2 
L 374.4576 259.2 
" style="fill:none;stroke:#0038ff;stroke-width:1.5;"/>
    <path clip-path="url(#pe0a10a29bb)" d="M 361.152 235.008 
L 374.4576 235.008 
" style="fill:none;stroke:#0094ff;stroke-width:1.5;"/>
    <path clip-path="url(#pe0a10a29bb)" d="M 361.152 210.816 
L 374.4576 210.816 
" style="fill:none;stroke:#0cf4eb;stroke-width:1.5;"/>
    <path clip-path="url(#pe0a10a29bb)" d="M 361.152 186.624 
L 374.4576 186.624 
" style="fill:none;stroke:#56ffa0;stroke-width:1.5;"/>
    <path clip-path="url(#pe0a10a29bb)" d="M 361.152 162.432 
L 374.4576 162.432 
" style="fill:none;stroke:#a0ff56;stroke-width:1.5;"/>
    <path clip-path="url(#pe0a10a29bb)" d="M 361.152 138.24 
L 374.4576 138.24 
" style="fill:none;stroke:#ebff0c;stroke-width:1.5;"/>
    <path clip-path="url(#pe0a10a29bb)" d="M 361.152 114.048 
L 374.4576 114.048 
" style="fill:none;stroke:#ffab00;stroke-width:1.5;"/>
    <path clip-path="url(#pe0a10a29bb)" d="M 361.152 89.856 
L 374.4576 89.856 
" style="fill:none;stroke:#ff5500;stroke-width:1.5;"/>
    <path clip-path="url(#pe0a10a29bb)" d="M 361.152 65.664 
L 374.4576 65.664 
" style="fill:none;stroke:#e80000;stroke-width:1.5;"/>
    <path clip-path="url(#pe0a10a29bb)" d="M 361.152 41.472 
L 374.4576 41.472 
" style="fill:none;stroke:#800000;stroke-width:1.5;"/>
   </g>
   <g id="patch_8">
    <path d="M 361.152 307.584 
L 361.152 283.392 
L 361.152 65.664 
L 361.152 41.472 
L 374.4576 41.472 
L 374.4576 65.664 
L 374.4576 283.392 
L 374.4576 307.584 
z
" style="fill:none;stroke:#000000;stroke-linejoin:miter;stroke-width:0.8;"/>
   </g>
  </g>
 </g>
 <defs>
  <clipPath id="pf0156bc455">
   <rect height="237.902989" width="285.696" x="57.6" y="55.576506"/>
  </clipPath>
  <clipPath id="pe0a10a29bb">
   <rect height="266.112" width="13.3056" x="361.152" y="41.472"/>
  </clipPath>
 </defs>
</svg>
