<?xml version="1.0" encoding="utf-8" standalone="no"?>
<!DOCTYPE svg PUBLIC "-//W3C//DTD SVG 1.1//EN"
  "http://www.w3.org/Graphics/SVG/1.1/DTD/svg11.dtd">
<!-- Created with matplotlib (http://matplotlib.org/) -->
<svg height="345.6pt" version="1.1" viewBox="0 0 460.8 345.6" width="460.8pt" xmlns="http://www.w3.org/2000/svg" xmlns:xlink="http://www.w3.org/1999/xlink">
 <defs>
  <style type="text/css">
*{stroke-linecap:butt;stroke-linejoin:round;}
  </style>
 </defs>
 <g id="figure_1">
  <g id="patch_1">
   <path d="M 0 345.6 
L 460.8 345.6 
L 460.8 0 
L 0 0 
z
" style="fill:#ffffff;"/>
  </g>
  <g id="axes_1">
   <g id="patch_2">
    <path d="M 57.6 293.479494 
L 343.296 293.479494 
L 343.296 55.576506 
L 57.6 55.576506 
z
" style="fill:#ffffff;"/>
   </g>
   <g id="matplotlib.axis_1">
    <g id="xtick_1">
     <g id="line2d_1">
      <defs>
       <path d="M 0 0 
L 0 3.5 
" id="m3d6037c3a1" style="stroke:#000000;stroke-width:0.8;"/>
      </defs>
      <g>
       <use style="stroke:#000000;stroke-width:0.8;" x="104.861978" xlink:href="#m3d6037c3a1" y="293.479494"/>
      </g>
     </g>
     <g id="text_1">
      <!-- 0.2 -->
      <defs>
       <path d="M 31.78125 66.40625 
Q 24.171875 66.40625 20.328125 58.90625 
Q 16.5 51.421875 16.5 36.375 
Q 16.5 21.390625 20.328125 13.890625 
Q 24.171875 6.390625 31.78125 6.390625 
Q 39.453125 6.390625 43.28125 13.890625 
Q 47.125 21.390625 47.125 36.375 
Q 47.125 51.421875 43.28125 58.90625 
Q 39.453125 66.40625 31.78125 66.40625 
z
M 31.78125 74.21875 
Q 44.046875 74.21875 50.515625 64.515625 
Q 56.984375 54.828125 56.984375 36.375 
Q 56.984375 17.96875 50.515625 8.265625 
Q 44.046875 -1.421875 31.78125 -1.421875 
Q 19.53125 -1.421875 13.0625 8.265625 
Q 6.59375 17.96875 6.59375 36.375 
Q 6.59375 54.828125 13.0625 64.515625 
Q 19.53125 74.21875 31.78125 74.21875 
z
" id="DejaVuSans-30"/>
       <path d="M 10.6875 12.40625 
L 21 12.40625 
L 21 0 
L 10.6875 0 
z
" id="DejaVuSans-2e"/>
       <path d="M 19.1875 8.296875 
L 53.609375 8.296875 
L 53.609375 0 
L 7.328125 0 
L 7.328125 8.296875 
Q 12.9375 14.109375 22.625 23.890625 
Q 32.328125 33.6875 34.8125 36.53125 
Q 39.546875 41.84375 41.421875 45.53125 
Q 43.3125 49.21875 43.3125 52.78125 
Q 43.3125 58.59375 39.234375 62.25 
Q 35.15625 65.921875 28.609375 65.921875 
Q 23.96875 65.921875 18.8125 64.3125 
Q 13.671875 62.703125 7.8125 59.421875 
L 7.8125 69.390625 
Q 13.765625 71.78125 18.9375 73 
Q 24.125 74.21875 28.421875 74.21875 
Q 39.75 74.21875 46.484375 68.546875 
Q 53.21875 62.890625 53.21875 53.421875 
Q 53.21875 48.921875 51.53125 44.890625 
Q 49.859375 40.875 45.40625 35.40625 
Q 44.1875 33.984375 37.640625 27.21875 
Q 31.109375 20.453125 19.1875 8.296875 
z
" id="DejaVuSans-32"/>
      </defs>
      <g transform="translate(96.910415 308.077932)scale(0.1 -0.1)">
       <use xlink:href="#DejaVuSans-30"/>
       <use x="63.623047" xlink:href="#DejaVuSans-2e"/>
       <use x="95.410156" xlink:href="#DejaVuSans-32"/>
      </g>
     </g>
    </g>
    <g id="xtick_2">
     <g id="line2d_2">
      <g>
       <use style="stroke:#000000;stroke-width:0.8;" x="152.654989" xlink:href="#m3d6037c3a1" y="293.479494"/>
      </g>
     </g>
     <g id="text_2">
      <!-- 0.4 -->
      <defs>
       <path d="M 37.796875 64.3125 
L 12.890625 25.390625 
L 37.796875 25.390625 
z
M 35.203125 72.90625 
L 47.609375 72.90625 
L 47.609375 25.390625 
L 58.015625 25.390625 
L 58.015625 17.1875 
L 47.609375 17.1875 
L 47.609375 0 
L 37.796875 0 
L 37.796875 17.1875 
L 4.890625 17.1875 
L 4.890625 26.703125 
z
" id="DejaVuSans-34"/>
      </defs>
      <g transform="translate(144.703426 308.077932)scale(0.1 -0.1)">
       <use xlink:href="#DejaVuSans-30"/>
       <use x="63.623047" xlink:href="#DejaVuSans-2e"/>
       <use x="95.410156" xlink:href="#DejaVuSans-34"/>
      </g>
     </g>
    </g>
    <g id="xtick_3">
     <g id="line2d_3">
      <g>
       <use style="stroke:#000000;stroke-width:0.8;" x="200.448" xlink:href="#m3d6037c3a1" y="293.479494"/>
      </g>
     </g>
     <g id="text_3">
      <!-- 0.6 -->
      <defs>
       <path d="M 33.015625 40.375 
Q 26.375 40.375 22.484375 35.828125 
Q 18.609375 31.296875 18.609375 23.390625 
Q 18.609375 15.53125 22.484375 10.953125 
Q 26.375 6.390625 33.015625 6.390625 
Q 39.65625 6.390625 43.53125 10.953125 
Q 47.40625 15.53125 47.40625 23.390625 
Q 47.40625 31.296875 43.53125 35.828125 
Q 39.65625 40.375 33.015625 40.375 
z
M 52.59375 71.296875 
L 52.59375 62.3125 
Q 48.875 64.0625 45.09375 64.984375 
Q 41.3125 65.921875 37.59375 65.921875 
Q 27.828125 65.921875 22.671875 59.328125 
Q 17.53125 52.734375 16.796875 39.40625 
Q 19.671875 43.65625 24.015625 45.921875 
Q 28.375 48.1875 33.59375 48.1875 
Q 44.578125 48.1875 50.953125 41.515625 
Q 57.328125 34.859375 57.328125 23.390625 
Q 57.328125 12.15625 50.6875 5.359375 
Q 44.046875 -1.421875 33.015625 -1.421875 
Q 20.359375 -1.421875 13.671875 8.265625 
Q 6.984375 17.96875 6.984375 36.375 
Q 6.984375 53.65625 15.1875 63.9375 
Q 23.390625 74.21875 37.203125 74.21875 
Q 40.921875 74.21875 44.703125 73.484375 
Q 48.484375 72.75 52.59375 71.296875 
z
" id="DejaVuSans-36"/>
      </defs>
      <g transform="translate(192.496438 308.077932)scale(0.1 -0.1)">
       <use xlink:href="#DejaVuSans-30"/>
       <use x="63.623047" xlink:href="#DejaVuSans-2e"/>
       <use x="95.410156" xlink:href="#DejaVuSans-36"/>
      </g>
     </g>
    </g>
    <g id="xtick_4">
     <g id="line2d_4">
      <g>
       <use style="stroke:#000000;stroke-width:0.8;" x="248.241011" xlink:href="#m3d6037c3a1" y="293.479494"/>
      </g>
     </g>
     <g id="text_4">
      <!-- 0.8 -->
      <defs>
       <path d="M 31.78125 34.625 
Q 24.75 34.625 20.71875 30.859375 
Q 16.703125 27.09375 16.703125 20.515625 
Q 16.703125 13.921875 20.71875 10.15625 
Q 24.75 6.390625 31.78125 6.390625 
Q 38.8125 6.390625 42.859375 10.171875 
Q 46.921875 13.96875 46.921875 20.515625 
Q 46.921875 27.09375 42.890625 30.859375 
Q 38.875 34.625 31.78125 34.625 
z
M 21.921875 38.8125 
Q 15.578125 40.375 12.03125 44.71875 
Q 8.5 49.078125 8.5 55.328125 
Q 8.5 64.0625 14.71875 69.140625 
Q 20.953125 74.21875 31.78125 74.21875 
Q 42.671875 74.21875 48.875 69.140625 
Q 55.078125 64.0625 55.078125 55.328125 
Q 55.078125 49.078125 51.53125 44.71875 
Q 48 40.375 41.703125 38.8125 
Q 48.828125 37.15625 52.796875 32.3125 
Q 56.78125 27.484375 56.78125 20.515625 
Q 56.78125 9.90625 50.3125 4.234375 
Q 43.84375 -1.421875 31.78125 -1.421875 
Q 19.734375 -1.421875 13.25 4.234375 
Q 6.78125 9.90625 6.78125 20.515625 
Q 6.78125 27.484375 10.78125 32.3125 
Q 14.796875 37.15625 21.921875 38.8125 
z
M 18.3125 54.390625 
Q 18.3125 48.734375 21.84375 45.5625 
Q 25.390625 42.390625 31.78125 42.390625 
Q 38.140625 42.390625 41.71875 45.5625 
Q 45.3125 48.734375 45.3125 54.390625 
Q 45.3125 60.0625 41.71875 63.234375 
Q 38.140625 66.40625 31.78125 66.40625 
Q 25.390625 66.40625 21.84375 63.234375 
Q 18.3125 60.0625 18.3125 54.390625 
z
" id="DejaVuSans-38"/>
      </defs>
      <g transform="translate(240.289449 308.077932)scale(0.1 -0.1)">
       <use xlink:href="#DejaVuSans-30"/>
       <use x="63.623047" xlink:href="#DejaVuSans-2e"/>
       <use x="95.410156" xlink:href="#DejaVuSans-38"/>
      </g>
     </g>
    </g>
    <g id="xtick_5">
     <g id="line2d_5">
      <g>
       <use style="stroke:#000000;stroke-width:0.8;" x="296.034022" xlink:href="#m3d6037c3a1" y="293.479494"/>
      </g>
     </g>
     <g id="text_5">
      <!-- 1.0 -->
      <defs>
       <path d="M 12.40625 8.296875 
L 28.515625 8.296875 
L 28.515625 63.921875 
L 10.984375 60.40625 
L 10.984375 69.390625 
L 28.421875 72.90625 
L 38.28125 72.90625 
L 38.28125 8.296875 
L 54.390625 8.296875 
L 54.390625 0 
L 12.40625 0 
z
" id="DejaVuSans-31"/>
      </defs>
      <g transform="translate(288.08246 308.077932)scale(0.1 -0.1)">
       <use xlink:href="#DejaVuSans-31"/>
       <use x="63.623047" xlink:href="#DejaVuSans-2e"/>
       <use x="95.410156" xlink:href="#DejaVuSans-30"/>
      </g>
     </g>
    </g>
   </g>
   <g id="matplotlib.axis_2">
    <g id="ytick_1">
     <g id="line2d_6">
      <defs>
       <path d="M 0 0 
L -3.5 0 
" id="m72e9fa9574" style="stroke:#000000;stroke-width:0.8;"/>
      </defs>
      <g>
       <use style="stroke:#000000;stroke-width:0.8;" x="57.6" xlink:href="#m72e9fa9574" y="246.217517"/>
      </g>
     </g>
     <g id="text_6">
      <!-- 0.2 -->
      <g transform="translate(34.696875 250.016735)scale(0.1 -0.1)">
       <use xlink:href="#DejaVuSans-30"/>
       <use x="63.623047" xlink:href="#DejaVuSans-2e"/>
       <use x="95.410156" xlink:href="#DejaVuSans-32"/>
      </g>
     </g>
    </g>
    <g id="ytick_2">
     <g id="line2d_7">
      <g>
       <use style="stroke:#000000;stroke-width:0.8;" x="57.6" xlink:href="#m72e9fa9574" y="198.424506"/>
      </g>
     </g>
     <g id="text_7">
      <!-- 0.4 -->
      <g transform="translate(34.696875 202.223724)scale(0.1 -0.1)">
       <use xlink:href="#DejaVuSans-30"/>
       <use x="63.623047" xlink:href="#DejaVuSans-2e"/>
       <use x="95.410156" xlink:href="#DejaVuSans-34"/>
      </g>
     </g>
    </g>
    <g id="ytick_3">
     <g id="line2d_8">
      <g>
       <use style="stroke:#000000;stroke-width:0.8;" x="57.6" xlink:href="#m72e9fa9574" y="150.631494"/>
      </g>
     </g>
     <g id="text_8">
      <!-- 0.6 -->
      <g transform="translate(34.696875 154.430713)scale(0.1 -0.1)">
       <use xlink:href="#DejaVuSans-30"/>
       <use x="63.623047" xlink:href="#DejaVuSans-2e"/>
       <use x="95.410156" xlink:href="#DejaVuSans-36"/>
      </g>
     </g>
    </g>
    <g id="ytick_4">
     <g id="line2d_9">
      <g>
       <use style="stroke:#000000;stroke-width:0.8;" x="57.6" xlink:href="#m72e9fa9574" y="102.838483"/>
      </g>
     </g>
     <g id="text_9">
      <!-- 0.8 -->
      <g transform="translate(34.696875 106.637702)scale(0.1 -0.1)">
       <use xlink:href="#DejaVuSans-30"/>
       <use x="63.623047" xlink:href="#DejaVuSans-2e"/>
       <use x="95.410156" xlink:href="#DejaVuSans-38"/>
      </g>
     </g>
    </g>
   </g>
   <g id="LineCollection_1">
    <path clip-path="url(#pf9ed86fb9b)" d="M 283.654217 293.479494 
L 284.088767 291.355361 
L 284.829311 288.16916 
L 284.985948 286.045026 
L 284.88232 283.223081 
L 284.550246 280.734691 
L 283.589975 275.424357 
L 282.289339 270.114022 
L 281.319814 266.927822 
L 280.558968 264.803688 
L 279.571985 262.63299 
L 278.263422 260.55542 
L 277.402197 259.493353 
L 276.196501 258.431286 
L 275.323717 257.845602 
L 274.261651 257.323913 
L 272.137517 256.665481 
L 270.013383 256.294046 
L 265.765115 255.895455 
L 251.958245 255.053327 
L 225.406572 253.580832 
L 213.723836 253.161433 
L 204.165234 253.023222 
L 192.482498 253.085283 
L 179.737695 253.142413 
L 173.365294 252.972199 
L 168.054959 252.646962 
L 162.236673 252.058885 
L 157.43429 251.402306 
L 151.061888 250.320214 
L 130.882617 246.643867 
L 126.634349 246.171562 
L 123.448149 245.994705 
L 120.261948 246.055247 
L 118.137814 246.286154 
L 115.947788 246.74855 
L 113.889546 247.500919 
L 112.82748 248.046181 
L 111.583348 248.872684 
L 110.363469 249.934751 
L 109.390356 250.996818 
L 107.864207 253.120952 
L 106.455078 255.51361 
L 103.647543 260.55542 
L 101.53574 263.741621 
L 99.830285 265.865755 
L 97.768087 267.989888 
L 95.834409 269.61083 
L 93.710275 271.073474 
L 92.648208 271.681819 
L 90.524074 272.702153 
L 88.399941 273.46869 
L 86.275807 273.983965 
L 84.151673 274.258558 
L 82.027539 274.267283 
L 79.903405 273.976663 
L 77.689897 273.300223 
L 75.641124 272.238156 
L 74.235584 271.176089 
L 73.12593 270.114022 
L 72.210069 269.051955 
L 70.770333 266.927822 
L 69.656025 264.803688 
L 68.759919 262.679554 
L 67.688914 259.493353 
L 66.842918 256.307152 
L 65.949561 252.058885 
L 64.934504 245.686483 
L 63.921214 237.189948 
L 62.859575 225.507212 
L 61.895609 211.700342 
L 61.209543 198.955539 
L 60.455661 180.900401 
L 59.724134 157.457249 
L 59.052807 127.797056 
L 58.489345 92.748848 
L 58.113998 56.638572 
L 58.126033 55.576506 
L 58.126033 55.576506 
" style="fill:none;stroke:#000080;stroke-width:1.5;"/>
   </g>
   <g id="LineCollection_2">
    <path clip-path="url(#pf9ed86fb9b)" d="M 289.191418 293.479494 
L 289.71155 287.107093 
L 289.610448 283.920892 
L 289.130587 277.376525 
L 287.553919 260.55542 
L 285.866809 243.562349 
L 284.058118 229.75548 
L 283.339079 225.507212 
L 282.500859 221.258944 
L 281.422022 217.010677 
L 280.327993 213.824476 
L 279.327316 211.700342 
L 278.509918 210.391343 
L 277.447851 209.2503 
L 276.341086 208.514141 
L 275.323717 208.121922 
L 274.261651 207.92814 
L 272.137517 207.926449 
L 267.889249 208.438662 
L 263.640981 208.886121 
L 259.392714 209.123898 
L 251.958245 209.263328 
L 210.537636 209.473284 
L 162.744625 209.66323 
L 153.186022 210.014378 
L 136.192952 210.778638 
L 131.944684 210.725505 
L 127.696416 210.442097 
L 123.448149 209.887578 
L 119.199881 209.065796 
L 113.889546 207.771491 
L 108.182365 206.390007 
L 105.393011 205.896813 
L 103.268877 205.68777 
L 101.144743 205.681919 
L 99.02061 205.943404 
L 96.896476 206.544749 
L 94.772342 207.567281 
L 93.380961 208.514141 
L 91.586141 210.057159 
L 90.065702 211.700342 
L 88.38183 213.824476 
L 86.196817 217.010677 
L 82.027539 223.41403 
L 80.397154 225.507212 
L 79.383388 226.569279 
L 78.841338 227.075176 
L 77.779271 227.767986 
L 76.717204 228.111068 
L 75.655138 228.053791 
L 74.593071 227.547216 
L 73.531004 226.540627 
L 72.210948 224.445145 
L 71.236268 222.321011 
L 70.129996 219.13481 
L 68.991966 214.886543 
L 67.874223 209.576208 
L 66.805426 203.203807 
L 65.67456 194.707271 
L 64.658962 185.148669 
L 63.581172 172.403866 
L 62.583724 157.534929 
L 61.624384 139.479792 
L 60.706246 117.176387 
L 59.857428 89.562647 
L 59.130406 59.824773 
L 59.214547 55.576506 
L 59.214547 55.576506 
" style="fill:none;stroke:#0000e8;stroke-width:1.5;"/>
   </g>
   <g id="LineCollection_3">
    <path clip-path="url(#pf9ed86fb9b)" d="M 291.612578 293.479494 
L 291.860162 287.107093 
L 291.658255 281.796758 
L 290.671597 265.865755 
L 288.06852 224.672719 
L 286.339754 204.265874 
L 285.420324 195.769338 
L 284.428686 188.33487 
L 283.544938 183.024535 
L 282.367755 177.714201 
L 281.406137 174.528 
L 280.549316 172.403866 
L 279.571985 170.738054 
L 278.509918 169.651729 
L 277.447851 169.124785 
L 276.385784 169.014689 
L 275.275482 169.217665 
L 274.261651 169.58318 
L 272.137517 170.645565 
L 268.738304 172.403866 
L 266.827182 173.209789 
L 264.703048 173.894469 
L 262.578914 174.376136 
L 259.392714 174.798445 
L 256.206513 174.976046 
L 250.896178 175.00752 
L 225.406572 174.870923 
L 112.82748 174.611967 
L 105.393011 174.160237 
L 100.082677 173.874356 
L 96.896476 173.899677 
L 94.772342 174.084493 
L 92.422403 174.528 
L 90.524074 175.115107 
L 88.399941 176.091537 
L 86.275807 177.450294 
L 84.151673 179.201173 
L 80.965472 182.331953 
L 78.841338 184.327535 
L 77.710686 185.148669 
L 76.717204 185.655057 
L 75.655138 185.862828 
L 74.593071 185.648973 
L 73.531004 184.922164 
L 72.468937 183.589463 
L 71.165201 180.900401 
L 70.06956 177.714201 
L 68.969799 173.465933 
L 67.898981 168.155599 
L 66.72401 160.72113 
L 65.654492 152.224595 
L 64.5798 141.603926 
L 63.546702 128.859123 
L 62.585244 113.990186 
L 61.612907 94.872981 
L 60.275549 61.948907 
L 60.31304 57.700639 
L 60.404049 55.576506 
L 60.404049 55.576506 
" style="fill:none;stroke:#0038ff;stroke-width:1.5;"/>
   </g>
   <g id="LineCollection_4">
    <path clip-path="url(#pf9ed86fb9b)" d="M 293.374563 293.479494 
L 293.416806 284.982959 
L 293.062709 276.486424 
L 289.383331 200.017606 
L 288.487643 186.210736 
L 287.490862 173.465933 
L 286.570612 163.907331 
L 285.547901 155.410796 
L 284.57122 149.038394 
L 283.504371 143.728059 
L 282.68539 140.541859 
L 281.512259 137.355658 
L 280.634052 135.676627 
L 279.571985 134.465834 
L 278.509918 133.92573 
L 277.447851 133.919644 
L 276.385784 134.325296 
L 275.096726 135.231524 
L 273.199584 136.988466 
L 269.685626 140.541859 
L 267.889249 142.121173 
L 265.765115 143.6274 
L 263.640981 144.73882 
L 261.516848 145.494723 
L 259.392714 145.954255 
L 257.26858 146.183447 
L 254.082379 146.224051 
L 249.834112 145.96963 
L 240.275509 145.296105 
L 234.965175 145.171969 
L 226.468639 145.250321 
L 208.413502 145.472024 
L 185.04803 145.442896 
L 134.068818 145.372115 
L 105.393011 145.26514 
L 94.772342 145.213495 
L 91.586141 145.400943 
L 88.399941 145.853343 
L 86.275807 146.374041 
L 84.151673 147.1073 
L 82.027539 148.054926 
L 77.779271 150.138659 
L 76.717204 150.481042 
L 75.655138 150.619328 
L 74.593071 150.462036 
L 73.531004 149.904057 
L 72.468937 148.829709 
L 71.323066 146.91426 
L 70.070974 143.728059 
L 69.133697 140.541859 
L 67.967943 135.231524 
L 66.893021 128.859123 
L 65.7813 120.362587 
L 64.698393 109.741918 
L 63.601913 95.935048 
L 62.399601 76.817844 
L 61.591325 61.948907 
L 61.616243 58.762706 
L 61.798433 55.576506 
L 61.798433 55.576506 
" style="fill:none;stroke:#0094ff;stroke-width:1.5;"/>
   </g>
   <g id="LineCollection_5">
    <path clip-path="url(#pf9ed86fb9b)" d="M 294.834139 293.479494 
L 294.701871 280.734691 
L 293.797007 254.183019 
L 292.047737 206.390007 
L 290.796468 178.776268 
L 289.765172 160.72113 
L 288.689612 145.852193 
L 287.715237 135.231524 
L 286.585199 125.672922 
L 285.616832 119.30052 
L 284.579979 113.990186 
L 283.476817 109.741918 
L 282.758186 107.521233 
L 281.696119 105.190309 
L 280.634052 103.674889 
L 279.571985 102.850828 
L 278.509918 102.616427 
L 277.447851 102.879935 
L 276.385784 103.554755 
L 275.323717 104.549523 
L 273.199584 107.14804 
L 268.909745 112.928119 
L 266.827182 115.335579 
L 264.703048 117.326029 
L 262.578914 118.818457 
L 260.454781 119.840055 
L 258.330647 120.449807 
L 256.206513 120.72254 
L 254.082379 120.736714 
L 250.896178 120.436446 
L 244.523777 119.414829 
L 239.213442 118.682147 
L 233.903108 118.211435 
L 227.530706 117.926851 
L 219.034171 117.798898 
L 209.475569 117.866126 
L 199.916967 118.145865 
L 164.868758 119.418438 
L 139.379152 119.849007 
L 92.648208 120.687297 
L 87.337874 121.004685 
L 83.089606 121.538625 
L 77.779271 122.346796 
L 76.717204 122.363063 
L 75.655138 122.229993 
L 74.593071 121.871204 
L 73.531004 121.188837 
L 72.468937 120.061948 
L 71.360814 118.238454 
L 70.092222 115.052253 
L 69.15432 111.866052 
L 68.007378 106.555717 
L 66.819838 99.121249 
L 65.776027 90.624714 
L 64.552599 77.879911 
L 63.523338 65.135108 
L 63.388635 60.88684 
L 63.592771 57.700639 
L 63.75924 55.576506 
L 63.75924 55.576506 
" style="fill:none;stroke:#0cf4eb;stroke-width:1.5;"/>
   </g>
   <g id="LineCollection_6">
    <path clip-path="url(#pf9ed86fb9b)" d="M 296.792327 293.479494 
L 296.640296 286.045026 
L 296.494018 281.796758 
L 296.014312 269.051955 
L 295.28951 249.934751 
L 293.658634 195.769338 
L 292.624484 168.155599 
L 291.676729 147.976327 
L 290.733018 132.045323 
L 289.778571 119.30052 
L 288.670889 107.617784 
L 287.65013 99.121249 
L 286.655175 92.748848 
L 285.785616 88.50058 
L 284.88232 85.127851 
L 283.797796 82.128178 
L 282.758186 79.967379 
L 281.374153 77.879911 
L 280.464047 76.817844 
L 279.26696 75.755777 
L 278.509918 75.223678 
L 277.447851 74.636034 
L 276.385784 74.231348 
L 275.323717 73.949279 
L 273.199584 73.728893 
L 271.07545 73.924847 
L 268.951316 74.473605 
L 267.889249 74.883451 
L 265.765115 76.007237 
L 264.579245 76.817844 
L 263.330347 77.879911 
L 262.300341 78.941978 
L 260.709078 81.066112 
L 259.552899 83.190245 
L 258.292271 86.376446 
L 257.153424 89.562647 
L 256.173732 91.686781 
L 255.144446 93.28306 
L 254.082379 94.514395 
L 253.020312 95.46102 
L 251.958245 96.217567 
L 249.834112 97.33796 
L 247.709978 98.125317 
L 245.585844 98.681789 
L 242.399643 99.250823 
L 239.213442 99.582844 
L 234.965175 99.772829 
L 230.716907 99.735883 
L 225.406572 99.435088 
L 220.096238 98.910983 
L 212.66177 97.935484 
L 198.8549 96.056941 
L 192.482498 95.429025 
L 186.110097 95.031207 
L 179.737695 94.848235 
L 171.24116 94.837178 
L 141.503286 94.998344 
L 125.572283 94.725788 
L 87.337874 93.949572 
L 80.965472 93.878983 
L 78.841338 93.691759 
L 76.717204 93.189001 
L 75.655138 92.717993 
L 74.271207 91.686781 
L 73.30023 90.624714 
L 72.468937 89.437958 
L 71.40687 87.292291 
L 70.05716 83.190245 
L 69.040267 78.941978 
L 67.922465 72.569576 
L 67.116417 66.197175 
L 66.987913 63.010974 
L 67.075578 60.88684 
L 67.402817 58.762706 
L 67.770924 56.638572 
L 67.785929 55.576506 
L 67.785929 55.576506 
" style="fill:none;stroke:#56ffa0;stroke-width:1.5;"/>
   </g>
   <g id="LineCollection_7">
    <path clip-path="url(#pf9ed86fb9b)" d="M 303.66204 293.479494 
L 303.519604 286.045026 
L 303.120812 278.610558 
L 302.420172 270.114022 
L 301.113827 257.369219 
L 298.685643 236.127881 
L 296.49807 217.010677 
L 295.184762 183.024535 
L 294.163357 152.224595 
L 293.205017 129.92119 
L 292.195934 111.866052 
L 291.113384 96.997115 
L 290.232259 88.50058 
L 289.591436 84.252312 
L 288.974701 81.066112 
L 288.06852 77.59861 
L 287.006454 74.689992 
L 285.944387 72.563881 
L 284.458926 70.445442 
L 283.460969 69.383375 
L 282.157819 68.321309 
L 280.634052 67.40937 
L 279.571985 66.942669 
L 277.447851 66.285014 
L 275.323717 65.91853 
L 273.199584 65.757086 
L 270.013383 65.806739 
L 266.827182 66.134793 
L 263.640981 66.699748 
L 260.454781 67.46622 
L 256.206513 68.765838 
L 251.634833 70.445442 
L 239.213442 75.340274 
L 236.027242 76.308902 
L 232.841041 77.039151 
L 229.65484 77.497354 
L 226.468639 77.680023 
L 223.282439 77.591222 
L 220.096238 77.255105 
L 216.910037 76.708563 
L 212.66177 75.697161 
L 207.351435 74.091161 
L 202.0411 72.254149 
L 195.668699 69.814193 
L 192.10439 68.321309 
L 187.820062 66.197175 
L 185.04803 64.368012 
L 183.985963 63.454698 
L 183.509849 63.010974 
L 182.660114 61.948907 
L 181.861829 60.299072 
L 181.695722 59.824773 
L 181.494551 58.762706 
L 181.342413 55.576506 
L 181.342413 55.576506 
" style="fill:none;stroke:#a0ff56;stroke-width:1.5;"/>
   </g>
   <g id="LineCollection_8">
    <path clip-path="url(#pf9ed86fb9b)" d="M 310.722174 293.479494 
L 310.587892 284.982959 
L 310.228897 276.486424 
L 309.537544 265.865755 
L 308.312152 250.996818 
L 306.227782 228.693413 
L 303.735263 204.265874 
L 301.465881 184.086602 
L 299.333643 167.093532 
L 297.393105 153.286662 
L 296.515655 146.91426 
L 294.708344 110.803985 
L 293.898477 95.935048 
L 293.2578 87.438513 
L 292.541398 81.066112 
L 291.842093 76.817844 
L 291.122966 73.631643 
L 290.107378 70.445442 
L 289.130587 68.285484 
L 287.767681 66.197175 
L 286.822868 65.135108 
L 285.595869 64.073041 
L 283.820253 62.924123 
L 281.696119 61.936533 
L 279.571985 61.170841 
L 272.137517 58.883216 
L 271.808454 58.762706 
L 270.263283 57.700639 
L 269.824338 56.638572 
L 270.051527 55.576506 
L 270.051527 55.576506 
" style="fill:none;stroke:#ebff0c;stroke-width:1.5;"/>
   </g>
   <g id="LineCollection_9">
    <path clip-path="url(#pf9ed86fb9b)" d="M 317.935741 293.479494 
L 317.806394 283.402933 
L 317.462846 273.300223 
L 316.800849 260.55542 
L 315.619248 242.500283 
L 313.718286 217.010677 
L 311.689767 192.583138 
L 309.802786 172.403866 
L 307.99329 155.410796 
L 306.315332 141.603926 
L 304.544799 128.859123 
L 302.859105 118.238454 
L 301.132596 108.679851 
L 299.3757 100.183316 
L 297.86017 93.810914 
L 296.509411 88.50058 
L 295.775129 82.128178 
L 295.28266 77.879911 
L 294.624939 72.569576 
L 294.060165 69.383375 
L 293.250136 66.197175 
L 292.316788 63.733192 
L 291.254721 61.744876 
L 289.918838 59.824773 
L 288.06852 57.180049 
L 287.733097 56.638572 
L 287.224477 55.576506 
L 287.224477 55.576506 
" style="fill:none;stroke:#ffab00;stroke-width:1.5;"/>
   </g>
   <g id="LineCollection_10">
    <path clip-path="url(#pf9ed86fb9b)" d="M 325.259993 293.479494 
L 325.147341 281.796758 
L 324.776457 267.989888 
L 324.081681 250.996818 
L 322.748336 224.445145 
L 321.093758 195.769338 
L 319.471759 171.341799 
L 317.990545 152.224595 
L 316.545215 136.293591 
L 315.075298 122.486721 
L 313.558126 110.368942 
L 312.060215 100.183316 
L 310.59994 91.686781 
L 309.118188 84.252312 
L 307.408641 76.817844 
L 305.061591 67.782745 
L 303.852113 63.010974 
L 303.22207 59.824773 
L 302.937457 57.112151 
L 302.896582 55.576506 
L 302.896582 55.576506 
" style="fill:none;stroke:#ff5500;stroke-width:1.5;"/>
   </g>
   <g id="LineCollection_11">
    <path clip-path="url(#pf9ed86fb9b)" d="M 332.658382 293.479494 
L 332.541817 277.548491 
L 332.183252 259.493353 
L 331.317916 228.693413 
L 330.117032 193.645204 
L 328.849696 162.845264 
L 327.718305 140.541859 
L 326.59405 122.486721 
L 325.371988 106.555717 
L 324.089007 92.748848 
L 321.387572 65.135108 
L 321.106253 58.762706 
L 321.074094 55.576506 
L 321.074094 55.576506 
" style="fill:none;stroke:#e80000;stroke-width:1.5;"/>
   </g>
   <g id="LineCollection_12">
    <path clip-path="url(#pf9ed86fb9b)" d="M 340.099492 293.479494 
L 339.988636 266.927822 
L 338.818625 160.72113 
L 338.069719 120.362587 
L 337.13049 87.438513 
L 336.571264 69.383375 
L 336.413504 57.700639 
L 336.410349 55.576506 
L 336.410349 55.576506 
" style="fill:none;stroke:#800000;stroke-width:1.5;"/>
   </g>
   <g id="patch_3">
    <path d="M 57.6 293.479494 
L 57.6 55.576506 
" style="fill:none;stroke:#000000;stroke-linecap:square;stroke-linejoin:miter;stroke-width:0.8;"/>
   </g>
   <g id="patch_4">
    <path d="M 343.296 293.479494 
L 343.296 55.576506 
" style="fill:none;stroke:#000000;stroke-linecap:square;stroke-linejoin:miter;stroke-width:0.8;"/>
   </g>
   <g id="patch_5">
    <path d="M 57.6 293.479494 
L 343.296 293.479494 
" style="fill:none;stroke:#000000;stroke-linecap:square;stroke-linejoin:miter;stroke-width:0.8;"/>
   </g>
   <g id="patch_6">
    <path d="M 57.6 55.576506 
L 343.296 55.576506 
" style="fill:none;stroke:#000000;stroke-linecap:square;stroke-linejoin:miter;stroke-width:0.8;"/>
   </g>
   <g id="text_10">
    <!-- Time:0.04280 s -->
    <defs>
     <path d="M -0.296875 72.90625 
L 61.375 72.90625 
L 61.375 64.59375 
L 35.5 64.59375 
L 35.5 0 
L 25.59375 0 
L 25.59375 64.59375 
L -0.296875 64.59375 
z
" id="DejaVuSans-54"/>
     <path d="M 9.421875 54.6875 
L 18.40625 54.6875 
L 18.40625 0 
L 9.421875 0 
z
M 9.421875 75.984375 
L 18.40625 75.984375 
L 18.40625 64.59375 
L 9.421875 64.59375 
z
" id="DejaVuSans-69"/>
     <path d="M 52 44.1875 
Q 55.375 50.25 60.0625 53.125 
Q 64.75 56 71.09375 56 
Q 79.640625 56 84.28125 50.015625 
Q 88.921875 44.046875 88.921875 33.015625 
L 88.921875 0 
L 79.890625 0 
L 79.890625 32.71875 
Q 79.890625 40.578125 77.09375 44.375 
Q 74.3125 48.1875 68.609375 48.1875 
Q 61.625 48.1875 57.5625 43.546875 
Q 53.515625 38.921875 53.515625 30.90625 
L 53.515625 0 
L 44.484375 0 
L 44.484375 32.71875 
Q 44.484375 40.625 41.703125 44.40625 
Q 38.921875 48.1875 33.109375 48.1875 
Q 26.21875 48.1875 22.15625 43.53125 
Q 18.109375 38.875 18.109375 30.90625 
L 18.109375 0 
L 9.078125 0 
L 9.078125 54.6875 
L 18.109375 54.6875 
L 18.109375 46.1875 
Q 21.1875 51.21875 25.484375 53.609375 
Q 29.78125 56 35.6875 56 
Q 41.65625 56 45.828125 52.96875 
Q 50 49.953125 52 44.1875 
z
" id="DejaVuSans-6d"/>
     <path d="M 56.203125 29.59375 
L 56.203125 25.203125 
L 14.890625 25.203125 
Q 15.484375 15.921875 20.484375 11.0625 
Q 25.484375 6.203125 34.421875 6.203125 
Q 39.59375 6.203125 44.453125 7.46875 
Q 49.3125 8.734375 54.109375 11.28125 
L 54.109375 2.78125 
Q 49.265625 0.734375 44.1875 -0.34375 
Q 39.109375 -1.421875 33.890625 -1.421875 
Q 20.796875 -1.421875 13.15625 6.1875 
Q 5.515625 13.8125 5.515625 26.8125 
Q 5.515625 40.234375 12.765625 48.109375 
Q 20.015625 56 32.328125 56 
Q 43.359375 56 49.78125 48.890625 
Q 56.203125 41.796875 56.203125 29.59375 
z
M 47.21875 32.234375 
Q 47.125 39.59375 43.09375 43.984375 
Q 39.0625 48.390625 32.421875 48.390625 
Q 24.90625 48.390625 20.390625 44.140625 
Q 15.875 39.890625 15.1875 32.171875 
z
" id="DejaVuSans-65"/>
     <path d="M 11.71875 12.40625 
L 22.015625 12.40625 
L 22.015625 0 
L 11.71875 0 
z
M 11.71875 51.703125 
L 22.015625 51.703125 
L 22.015625 39.3125 
L 11.71875 39.3125 
z
" id="DejaVuSans-3a"/>
     <path id="DejaVuSans-20"/>
     <path d="M 44.28125 53.078125 
L 44.28125 44.578125 
Q 40.484375 46.53125 36.375 47.5 
Q 32.28125 48.484375 27.875 48.484375 
Q 21.1875 48.484375 17.84375 46.4375 
Q 14.5 44.390625 14.5 40.28125 
Q 14.5 37.15625 16.890625 35.375 
Q 19.28125 33.59375 26.515625 31.984375 
L 29.59375 31.296875 
Q 39.15625 29.25 43.1875 25.515625 
Q 47.21875 21.78125 47.21875 15.09375 
Q 47.21875 7.46875 41.1875 3.015625 
Q 35.15625 -1.421875 24.609375 -1.421875 
Q 20.21875 -1.421875 15.453125 -0.5625 
Q 10.6875 0.296875 5.421875 2 
L 5.421875 11.28125 
Q 10.40625 8.6875 15.234375 7.390625 
Q 20.0625 6.109375 24.8125 6.109375 
Q 31.15625 6.109375 34.5625 8.28125 
Q 37.984375 10.453125 37.984375 14.40625 
Q 37.984375 18.0625 35.515625 20.015625 
Q 33.0625 21.96875 24.703125 23.78125 
L 21.578125 24.515625 
Q 13.234375 26.265625 9.515625 29.90625 
Q 5.8125 33.546875 5.8125 39.890625 
Q 5.8125 47.609375 11.28125 51.796875 
Q 16.75 56 26.8125 56 
Q 31.78125 56 36.171875 55.265625 
Q 40.578125 54.546875 44.28125 53.078125 
z
" id="DejaVuSans-73"/>
    </defs>
    <g transform="translate(153.717375 49.576506)scale(0.12 -0.12)">
     <use xlink:href="#DejaVuSans-54"/>
     <use x="61.037109" xlink:href="#DejaVuSans-69"/>
     <use x="88.820312" xlink:href="#DejaVuSans-6d"/>
     <use x="186.232422" xlink:href="#DejaVuSans-65"/>
     <use x="247.755859" xlink:href="#DejaVuSans-3a"/>
     <use x="281.447266" xlink:href="#DejaVuSans-30"/>
     <use x="345.070312" xlink:href="#DejaVuSans-2e"/>
     <use x="376.857422" xlink:href="#DejaVuSans-30"/>
     <use x="440.480469" xlink:href="#DejaVuSans-34"/>
     <use x="504.103516" xlink:href="#DejaVuSans-32"/>
     <use x="567.726562" xlink:href="#DejaVuSans-38"/>
     <use x="631.349609" xlink:href="#DejaVuSans-30"/>
     <use x="694.972656" xlink:href="#DejaVuSans-20"/>
     <use x="726.759766" xlink:href="#DejaVuSans-73"/>
    </g>
   </g>
  </g>
  <g id="axes_2">
   <g id="patch_7">
    <path clip-path="url(#p8822ab2b43)" d="M 361.152 307.584 
L 361.152 283.392 
L 361.152 65.664 
L 361.152 41.472 
L 374.4576 41.472 
L 374.4576 65.664 
L 374.4576 283.392 
L 374.4576 307.584 
z
" style="fill:#ffffff;stroke:#ffffff;stroke-linejoin:miter;stroke-width:0.01;"/>
   </g>
   <g id="matplotlib.axis_3"/>
   <g id="matplotlib.axis_4">
    <g id="ytick_5">
     <g id="line2d_10">
      <defs>
       <path d="M 0 0 
L 3.5 0 
" id="mc91b229261" style="stroke:#000000;stroke-width:0.8;"/>
      </defs>
      <g>
       <use style="stroke:#000000;stroke-width:0.8;" x="374.4576" xlink:href="#mc91b229261" y="307.584"/>
      </g>
     </g>
     <g id="text_11">
      <!-- 0.08 -->
      <g transform="translate(381.4576 311.383219)scale(0.1 -0.1)">
       <use xlink:href="#DejaVuSans-30"/>
       <use x="63.623047" xlink:href="#DejaVuSans-2e"/>
       <use x="95.410156" xlink:href="#DejaVuSans-30"/>
       <use x="159.033203" xlink:href="#DejaVuSans-38"/>
      </g>
     </g>
    </g>
    <g id="ytick_6">
     <g id="line2d_11">
      <g>
       <use style="stroke:#000000;stroke-width:0.8;" x="374.4576" xlink:href="#mc91b229261" y="259.2"/>
      </g>
     </g>
     <g id="text_12">
      <!-- 0.24 -->
      <g transform="translate(381.4576 262.999219)scale(0.1 -0.1)">
       <use xlink:href="#DejaVuSans-30"/>
       <use x="63.623047" xlink:href="#DejaVuSans-2e"/>
       <use x="95.410156" xlink:href="#DejaVuSans-32"/>
       <use x="159.033203" xlink:href="#DejaVuSans-34"/>
      </g>
     </g>
    </g>
    <g id="ytick_7">
     <g id="line2d_12">
      <g>
       <use style="stroke:#000000;stroke-width:0.8;" x="374.4576" xlink:href="#mc91b229261" y="210.816"/>
      </g>
     </g>
     <g id="text_13">
      <!-- 0.40 -->
      <g transform="translate(381.4576 214.615219)scale(0.1 -0.1)">
       <use xlink:href="#DejaVuSans-30"/>
       <use x="63.623047" xlink:href="#DejaVuSans-2e"/>
       <use x="95.410156" xlink:href="#DejaVuSans-34"/>
       <use x="159.033203" xlink:href="#DejaVuSans-30"/>
      </g>
     </g>
    </g>
    <g id="ytick_8">
     <g id="line2d_13">
      <g>
       <use style="stroke:#000000;stroke-width:0.8;" x="374.4576" xlink:href="#mc91b229261" y="162.432"/>
      </g>
     </g>
     <g id="text_14">
      <!-- 0.56 -->
      <defs>
       <path d="M 10.796875 72.90625 
L 49.515625 72.90625 
L 49.515625 64.59375 
L 19.828125 64.59375 
L 19.828125 46.734375 
Q 21.96875 47.46875 24.109375 47.828125 
Q 26.265625 48.1875 28.421875 48.1875 
Q 40.625 48.1875 47.75 41.5 
Q 54.890625 34.8125 54.890625 23.390625 
Q 54.890625 11.625 47.5625 5.09375 
Q 40.234375 -1.421875 26.90625 -1.421875 
Q 22.3125 -1.421875 17.546875 -0.640625 
Q 12.796875 0.140625 7.71875 1.703125 
L 7.71875 11.625 
Q 12.109375 9.234375 16.796875 8.0625 
Q 21.484375 6.890625 26.703125 6.890625 
Q 35.15625 6.890625 40.078125 11.328125 
Q 45.015625 15.765625 45.015625 23.390625 
Q 45.015625 31 40.078125 35.4375 
Q 35.15625 39.890625 26.703125 39.890625 
Q 22.75 39.890625 18.8125 39.015625 
Q 14.890625 38.140625 10.796875 36.28125 
z
" id="DejaVuSans-35"/>
      </defs>
      <g transform="translate(381.4576 166.231219)scale(0.1 -0.1)">
       <use xlink:href="#DejaVuSans-30"/>
       <use x="63.623047" xlink:href="#DejaVuSans-2e"/>
       <use x="95.410156" xlink:href="#DejaVuSans-35"/>
       <use x="159.033203" xlink:href="#DejaVuSans-36"/>
      </g>
     </g>
    </g>
    <g id="ytick_9">
     <g id="line2d_14">
      <g>
       <use style="stroke:#000000;stroke-width:0.8;" x="374.4576" xlink:href="#mc91b229261" y="114.048"/>
      </g>
     </g>
     <g id="text_15">
      <!-- 0.72 -->
      <defs>
       <path d="M 8.203125 72.90625 
L 55.078125 72.90625 
L 55.078125 68.703125 
L 28.609375 0 
L 18.3125 0 
L 43.21875 64.59375 
L 8.203125 64.59375 
z
" id="DejaVuSans-37"/>
      </defs>
      <g transform="translate(381.4576 117.847219)scale(0.1 -0.1)">
       <use xlink:href="#DejaVuSans-30"/>
       <use x="63.623047" xlink:href="#DejaVuSans-2e"/>
       <use x="95.410156" xlink:href="#DejaVuSans-37"/>
       <use x="159.033203" xlink:href="#DejaVuSans-32"/>
      </g>
     </g>
    </g>
    <g id="ytick_10">
     <g id="line2d_15">
      <g>
       <use style="stroke:#000000;stroke-width:0.8;" x="374.4576" xlink:href="#mc91b229261" y="65.664"/>
      </g>
     </g>
     <g id="text_16">
      <!-- 0.88 -->
      <g transform="translate(381.4576 69.463219)scale(0.1 -0.1)">
       <use xlink:href="#DejaVuSans-30"/>
       <use x="63.623047" xlink:href="#DejaVuSans-2e"/>
       <use x="95.410156" xlink:href="#DejaVuSans-38"/>
       <use x="159.033203" xlink:href="#DejaVuSans-38"/>
      </g>
     </g>
    </g>
   </g>
   <g id="LineCollection_13">
    <path clip-path="url(#p8822ab2b43)" d="M 361.152 307.584 
L 374.4576 307.584 
" style="fill:none;stroke:#000080;stroke-width:1.5;"/>
    <path clip-path="url(#p8822ab2b43)" d="M 361.152 283.392 
L 374.4576 283.392 
" style="fill:none;stroke:#0000e8;stroke-width:1.5;"/>
    <path clip-path="url(#p8822ab2b43)" d="M 361.152 259.2 
L 374.4576 259.2 
" style="fill:none;stroke:#0038ff;stroke-width:1.5;"/>
    <path clip-path="url(#p8822ab2b43)" d="M 361.152 235.008 
L 374.4576 235.008 
" style="fill:none;stroke:#0094ff;stroke-width:1.5;"/>
    <path clip-path="url(#p8822ab2b43)" d="M 361.152 210.816 
L 374.4576 210.816 
" style="fill:none;stroke:#0cf4eb;stroke-width:1.5;"/>
    <path clip-path="url(#p8822ab2b43)" d="M 361.152 186.624 
L 374.4576 186.624 
" style="fill:none;stroke:#56ffa0;stroke-width:1.5;"/>
    <path clip-path="url(#p8822ab2b43)" d="M 361.152 162.432 
L 374.4576 162.432 
" style="fill:none;stroke:#a0ff56;stroke-width:1.5;"/>
    <path clip-path="url(#p8822ab2b43)" d="M 361.152 138.24 
L 374.4576 138.24 
" style="fill:none;stroke:#ebff0c;stroke-width:1.5;"/>
    <path clip-path="url(#p8822ab2b43)" d="M 361.152 114.048 
L 374.4576 114.048 
" style="fill:none;stroke:#ffab00;stroke-width:1.5;"/>
    <path clip-path="url(#p8822ab2b43)" d="M 361.152 89.856 
L 374.4576 89.856 
" style="fill:none;stroke:#ff5500;stroke-width:1.5;"/>
    <path clip-path="url(#p8822ab2b43)" d="M 361.152 65.664 
L 374.4576 65.664 
" style="fill:none;stroke:#e80000;stroke-width:1.5;"/>
    <path clip-path="url(#p8822ab2b43)" d="M 361.152 41.472 
L 374.4576 41.472 
" style="fill:none;stroke:#800000;stroke-width:1.5;"/>
   </g>
   <g id="patch_8">
    <path d="M 361.152 307.584 
L 361.152 283.392 
L 361.152 65.664 
L 361.152 41.472 
L 374.4576 41.472 
L 374.4576 65.664 
L 374.4576 283.392 
L 374.4576 307.584 
z
" style="fill:none;stroke:#000000;stroke-linejoin:miter;stroke-width:0.8;"/>
   </g>
  </g>
 </g>
 <defs>
  <clipPath id="pf9ed86fb9b">
   <rect height="237.902989" width="285.696" x="57.6" y="55.576506"/>
  </clipPath>
  <clipPath id="p8822ab2b43">
   <rect height="266.112" width="13.3056" x="361.152" y="41.472"/>
  </clipPath>
 </defs>
</svg>
