<?xml version="1.0" encoding="utf-8" standalone="no"?>
<!DOCTYPE svg PUBLIC "-//W3C//DTD SVG 1.1//EN"
  "http://www.w3.org/Graphics/SVG/1.1/DTD/svg11.dtd">
<!-- Created with matplotlib (http://matplotlib.org/) -->
<svg height="345.6pt" version="1.1" viewBox="0 0 460.8 345.6" width="460.8pt" xmlns="http://www.w3.org/2000/svg" xmlns:xlink="http://www.w3.org/1999/xlink">
 <defs>
  <style type="text/css">
*{stroke-linecap:butt;stroke-linejoin:round;}
  </style>
 </defs>
 <g id="figure_1">
  <g id="patch_1">
   <path d="M 0 345.6 
L 460.8 345.6 
L 460.8 0 
L 0 0 
z
" style="fill:#ffffff;"/>
  </g>
  <g id="axes_1">
   <g id="patch_2">
    <path d="M 57.6 293.479494 
L 343.296 293.479494 
L 343.296 55.576506 
L 57.6 55.576506 
z
" style="fill:#ffffff;"/>
   </g>
   <g id="matplotlib.axis_1">
    <g id="xtick_1">
     <g id="line2d_1">
      <defs>
       <path d="M 0 0 
L 0 3.5 
" id="m7df9a63813" style="stroke:#000000;stroke-width:0.8;"/>
      </defs>
      <g>
       <use style="stroke:#000000;stroke-width:0.8;" x="104.861978" xlink:href="#m7df9a63813" y="293.479494"/>
      </g>
     </g>
     <g id="text_1">
      <!-- 0.2 -->
      <defs>
       <path d="M 31.78125 66.40625 
Q 24.171875 66.40625 20.328125 58.90625 
Q 16.5 51.421875 16.5 36.375 
Q 16.5 21.390625 20.328125 13.890625 
Q 24.171875 6.390625 31.78125 6.390625 
Q 39.453125 6.390625 43.28125 13.890625 
Q 47.125 21.390625 47.125 36.375 
Q 47.125 51.421875 43.28125 58.90625 
Q 39.453125 66.40625 31.78125 66.40625 
z
M 31.78125 74.21875 
Q 44.046875 74.21875 50.515625 64.515625 
Q 56.984375 54.828125 56.984375 36.375 
Q 56.984375 17.96875 50.515625 8.265625 
Q 44.046875 -1.421875 31.78125 -1.421875 
Q 19.53125 -1.421875 13.0625 8.265625 
Q 6.59375 17.96875 6.59375 36.375 
Q 6.59375 54.828125 13.0625 64.515625 
Q 19.53125 74.21875 31.78125 74.21875 
z
" id="DejaVuSans-30"/>
       <path d="M 10.6875 12.40625 
L 21 12.40625 
L 21 0 
L 10.6875 0 
z
" id="DejaVuSans-2e"/>
       <path d="M 19.1875 8.296875 
L 53.609375 8.296875 
L 53.609375 0 
L 7.328125 0 
L 7.328125 8.296875 
Q 12.9375 14.109375 22.625 23.890625 
Q 32.328125 33.6875 34.8125 36.53125 
Q 39.546875 41.84375 41.421875 45.53125 
Q 43.3125 49.21875 43.3125 52.78125 
Q 43.3125 58.59375 39.234375 62.25 
Q 35.15625 65.921875 28.609375 65.921875 
Q 23.96875 65.921875 18.8125 64.3125 
Q 13.671875 62.703125 7.8125 59.421875 
L 7.8125 69.390625 
Q 13.765625 71.78125 18.9375 73 
Q 24.125 74.21875 28.421875 74.21875 
Q 39.75 74.21875 46.484375 68.546875 
Q 53.21875 62.890625 53.21875 53.421875 
Q 53.21875 48.921875 51.53125 44.890625 
Q 49.859375 40.875 45.40625 35.40625 
Q 44.1875 33.984375 37.640625 27.21875 
Q 31.109375 20.453125 19.1875 8.296875 
z
" id="DejaVuSans-32"/>
      </defs>
      <g transform="translate(96.910415 308.077932)scale(0.1 -0.1)">
       <use xlink:href="#DejaVuSans-30"/>
       <use x="63.623047" xlink:href="#DejaVuSans-2e"/>
       <use x="95.410156" xlink:href="#DejaVuSans-32"/>
      </g>
     </g>
    </g>
    <g id="xtick_2">
     <g id="line2d_2">
      <g>
       <use style="stroke:#000000;stroke-width:0.8;" x="152.654989" xlink:href="#m7df9a63813" y="293.479494"/>
      </g>
     </g>
     <g id="text_2">
      <!-- 0.4 -->
      <defs>
       <path d="M 37.796875 64.3125 
L 12.890625 25.390625 
L 37.796875 25.390625 
z
M 35.203125 72.90625 
L 47.609375 72.90625 
L 47.609375 25.390625 
L 58.015625 25.390625 
L 58.015625 17.1875 
L 47.609375 17.1875 
L 47.609375 0 
L 37.796875 0 
L 37.796875 17.1875 
L 4.890625 17.1875 
L 4.890625 26.703125 
z
" id="DejaVuSans-34"/>
      </defs>
      <g transform="translate(144.703426 308.077932)scale(0.1 -0.1)">
       <use xlink:href="#DejaVuSans-30"/>
       <use x="63.623047" xlink:href="#DejaVuSans-2e"/>
       <use x="95.410156" xlink:href="#DejaVuSans-34"/>
      </g>
     </g>
    </g>
    <g id="xtick_3">
     <g id="line2d_3">
      <g>
       <use style="stroke:#000000;stroke-width:0.8;" x="200.448" xlink:href="#m7df9a63813" y="293.479494"/>
      </g>
     </g>
     <g id="text_3">
      <!-- 0.6 -->
      <defs>
       <path d="M 33.015625 40.375 
Q 26.375 40.375 22.484375 35.828125 
Q 18.609375 31.296875 18.609375 23.390625 
Q 18.609375 15.53125 22.484375 10.953125 
Q 26.375 6.390625 33.015625 6.390625 
Q 39.65625 6.390625 43.53125 10.953125 
Q 47.40625 15.53125 47.40625 23.390625 
Q 47.40625 31.296875 43.53125 35.828125 
Q 39.65625 40.375 33.015625 40.375 
z
M 52.59375 71.296875 
L 52.59375 62.3125 
Q 48.875 64.0625 45.09375 64.984375 
Q 41.3125 65.921875 37.59375 65.921875 
Q 27.828125 65.921875 22.671875 59.328125 
Q 17.53125 52.734375 16.796875 39.40625 
Q 19.671875 43.65625 24.015625 45.921875 
Q 28.375 48.1875 33.59375 48.1875 
Q 44.578125 48.1875 50.953125 41.515625 
Q 57.328125 34.859375 57.328125 23.390625 
Q 57.328125 12.15625 50.6875 5.359375 
Q 44.046875 -1.421875 33.015625 -1.421875 
Q 20.359375 -1.421875 13.671875 8.265625 
Q 6.984375 17.96875 6.984375 36.375 
Q 6.984375 53.65625 15.1875 63.9375 
Q 23.390625 74.21875 37.203125 74.21875 
Q 40.921875 74.21875 44.703125 73.484375 
Q 48.484375 72.75 52.59375 71.296875 
z
" id="DejaVuSans-36"/>
      </defs>
      <g transform="translate(192.496438 308.077932)scale(0.1 -0.1)">
       <use xlink:href="#DejaVuSans-30"/>
       <use x="63.623047" xlink:href="#DejaVuSans-2e"/>
       <use x="95.410156" xlink:href="#DejaVuSans-36"/>
      </g>
     </g>
    </g>
    <g id="xtick_4">
     <g id="line2d_4">
      <g>
       <use style="stroke:#000000;stroke-width:0.8;" x="248.241011" xlink:href="#m7df9a63813" y="293.479494"/>
      </g>
     </g>
     <g id="text_4">
      <!-- 0.8 -->
      <defs>
       <path d="M 31.78125 34.625 
Q 24.75 34.625 20.71875 30.859375 
Q 16.703125 27.09375 16.703125 20.515625 
Q 16.703125 13.921875 20.71875 10.15625 
Q 24.75 6.390625 31.78125 6.390625 
Q 38.8125 6.390625 42.859375 10.171875 
Q 46.921875 13.96875 46.921875 20.515625 
Q 46.921875 27.09375 42.890625 30.859375 
Q 38.875 34.625 31.78125 34.625 
z
M 21.921875 38.8125 
Q 15.578125 40.375 12.03125 44.71875 
Q 8.5 49.078125 8.5 55.328125 
Q 8.5 64.0625 14.71875 69.140625 
Q 20.953125 74.21875 31.78125 74.21875 
Q 42.671875 74.21875 48.875 69.140625 
Q 55.078125 64.0625 55.078125 55.328125 
Q 55.078125 49.078125 51.53125 44.71875 
Q 48 40.375 41.703125 38.8125 
Q 48.828125 37.15625 52.796875 32.3125 
Q 56.78125 27.484375 56.78125 20.515625 
Q 56.78125 9.90625 50.3125 4.234375 
Q 43.84375 -1.421875 31.78125 -1.421875 
Q 19.734375 -1.421875 13.25 4.234375 
Q 6.78125 9.90625 6.78125 20.515625 
Q 6.78125 27.484375 10.78125 32.3125 
Q 14.796875 37.15625 21.921875 38.8125 
z
M 18.3125 54.390625 
Q 18.3125 48.734375 21.84375 45.5625 
Q 25.390625 42.390625 31.78125 42.390625 
Q 38.140625 42.390625 41.71875 45.5625 
Q 45.3125 48.734375 45.3125 54.390625 
Q 45.3125 60.0625 41.71875 63.234375 
Q 38.140625 66.40625 31.78125 66.40625 
Q 25.390625 66.40625 21.84375 63.234375 
Q 18.3125 60.0625 18.3125 54.390625 
z
" id="DejaVuSans-38"/>
      </defs>
      <g transform="translate(240.289449 308.077932)scale(0.1 -0.1)">
       <use xlink:href="#DejaVuSans-30"/>
       <use x="63.623047" xlink:href="#DejaVuSans-2e"/>
       <use x="95.410156" xlink:href="#DejaVuSans-38"/>
      </g>
     </g>
    </g>
    <g id="xtick_5">
     <g id="line2d_5">
      <g>
       <use style="stroke:#000000;stroke-width:0.8;" x="296.034022" xlink:href="#m7df9a63813" y="293.479494"/>
      </g>
     </g>
     <g id="text_5">
      <!-- 1.0 -->
      <defs>
       <path d="M 12.40625 8.296875 
L 28.515625 8.296875 
L 28.515625 63.921875 
L 10.984375 60.40625 
L 10.984375 69.390625 
L 28.421875 72.90625 
L 38.28125 72.90625 
L 38.28125 8.296875 
L 54.390625 8.296875 
L 54.390625 0 
L 12.40625 0 
z
" id="DejaVuSans-31"/>
      </defs>
      <g transform="translate(288.08246 308.077932)scale(0.1 -0.1)">
       <use xlink:href="#DejaVuSans-31"/>
       <use x="63.623047" xlink:href="#DejaVuSans-2e"/>
       <use x="95.410156" xlink:href="#DejaVuSans-30"/>
      </g>
     </g>
    </g>
   </g>
   <g id="matplotlib.axis_2">
    <g id="ytick_1">
     <g id="line2d_6">
      <defs>
       <path d="M 0 0 
L -3.5 0 
" id="m1fd50f13b5" style="stroke:#000000;stroke-width:0.8;"/>
      </defs>
      <g>
       <use style="stroke:#000000;stroke-width:0.8;" x="57.6" xlink:href="#m1fd50f13b5" y="246.217517"/>
      </g>
     </g>
     <g id="text_6">
      <!-- 0.2 -->
      <g transform="translate(34.696875 250.016735)scale(0.1 -0.1)">
       <use xlink:href="#DejaVuSans-30"/>
       <use x="63.623047" xlink:href="#DejaVuSans-2e"/>
       <use x="95.410156" xlink:href="#DejaVuSans-32"/>
      </g>
     </g>
    </g>
    <g id="ytick_2">
     <g id="line2d_7">
      <g>
       <use style="stroke:#000000;stroke-width:0.8;" x="57.6" xlink:href="#m1fd50f13b5" y="198.424506"/>
      </g>
     </g>
     <g id="text_7">
      <!-- 0.4 -->
      <g transform="translate(34.696875 202.223724)scale(0.1 -0.1)">
       <use xlink:href="#DejaVuSans-30"/>
       <use x="63.623047" xlink:href="#DejaVuSans-2e"/>
       <use x="95.410156" xlink:href="#DejaVuSans-34"/>
      </g>
     </g>
    </g>
    <g id="ytick_3">
     <g id="line2d_8">
      <g>
       <use style="stroke:#000000;stroke-width:0.8;" x="57.6" xlink:href="#m1fd50f13b5" y="150.631494"/>
      </g>
     </g>
     <g id="text_8">
      <!-- 0.6 -->
      <g transform="translate(34.696875 154.430713)scale(0.1 -0.1)">
       <use xlink:href="#DejaVuSans-30"/>
       <use x="63.623047" xlink:href="#DejaVuSans-2e"/>
       <use x="95.410156" xlink:href="#DejaVuSans-36"/>
      </g>
     </g>
    </g>
    <g id="ytick_4">
     <g id="line2d_9">
      <g>
       <use style="stroke:#000000;stroke-width:0.8;" x="57.6" xlink:href="#m1fd50f13b5" y="102.838483"/>
      </g>
     </g>
     <g id="text_9">
      <!-- 0.8 -->
      <g transform="translate(34.696875 106.637702)scale(0.1 -0.1)">
       <use xlink:href="#DejaVuSans-30"/>
       <use x="63.623047" xlink:href="#DejaVuSans-2e"/>
       <use x="95.410156" xlink:href="#DejaVuSans-38"/>
      </g>
     </g>
    </g>
   </g>
   <g id="LineCollection_1">
    <path clip-path="url(#pcaccfd68ac)" d="M 287.700867 293.479494 
L 288.460132 287.107093 
L 288.389747 283.920892 
L 287.92459 277.548491 
L 287.244259 269.051955 
L 286.0056 248.872684 
L 284.88232 228.864858 
L 283.359186 207.452074 
L 282.429839 197.893472 
L 281.470207 190.459004 
L 280.323151 184.086602 
L 279.243436 179.838335 
L 278.509918 177.604271 
L 277.447851 175.344747 
L 276.385784 173.830597 
L 275.323717 172.868233 
L 274.261651 172.307684 
L 273.199584 172.036862 
L 272.137517 171.966786 
L 270.013383 172.188133 
L 266.827182 172.895527 
L 261.516848 174.11717 
L 256.206513 175.068211 
L 250.896178 175.78159 
L 244.523777 176.394735 
L 238.151375 176.757795 
L 231.778974 176.880774 
L 224.344506 176.777016 
L 210.537636 176.279164 
L 195.668699 175.810189 
L 189.296297 175.780027 
L 183.985963 175.970127 
L 179.737695 176.341169 
L 175.489428 176.960698 
L 171.24116 177.843301 
L 165.930825 179.246532 
L 157.43429 181.560281 
L 153.186022 182.414027 
L 149.999822 182.835388 
L 146.813621 183.053734 
L 143.62742 183.072212 
L 140.441219 182.903693 
L 136.192952 182.42369 
L 131.944684 181.708058 
L 125.572283 180.37045 
L 117.874307 178.776268 
L 113.889546 178.207449 
L 110.703346 178.007237 
L 108.579212 178.054406 
L 106.455078 178.288979 
L 104.254522 178.776268 
L 102.20681 179.508447 
L 100.082677 180.607864 
L 98.148391 181.962468 
L 96.896476 183.024749 
L 94.772342 185.173168 
L 91.586141 188.965891 
L 88.399941 192.774377 
L 86.275807 194.944034 
L 84.151673 196.663717 
L 83.089606 197.333453 
L 81.978323 197.893472 
L 80.965472 198.275374 
L 79.903405 198.53827 
L 78.841338 198.65651 
L 77.779271 198.622995 
L 76.717204 198.429598 
L 75.319141 197.893472 
L 74.593071 197.517003 
L 73.531004 196.765489 
L 72.453873 195.769338 
L 71.40687 194.549067 
L 70.09837 192.583138 
L 68.974093 190.459004 
L 68.047867 188.33487 
L 66.926643 185.148669 
L 65.758778 180.900401 
L 64.838791 176.652134 
L 63.930855 171.341799 
L 62.971202 163.907331 
L 62.346268 157.534929 
L 61.623967 147.976327 
L 60.935967 135.231524 
L 60.363105 120.362587 
L 59.809599 100.183316 
L 59.136805 65.135108 
L 59.135757 57.700639 
L 59.178932 55.576506 
L 59.178932 55.576506 
" style="fill:none;stroke:#000080;stroke-width:1.5;"/>
   </g>
   <g id="LineCollection_2">
    <path clip-path="url(#pcaccfd68ac)" d="M 290.670059 293.479494 
L 291.041544 287.107093 
L 290.876423 282.858825 
L 289.42566 256.307152 
L 286.42124 186.210736 
L 285.507125 172.403866 
L 284.506906 160.72113 
L 283.432394 151.162528 
L 282.502301 144.790126 
L 281.471417 139.479792 
L 280.634052 136.191488 
L 279.443961 133.10739 
L 278.509918 131.532583 
L 277.447851 130.56638 
L 276.385784 130.233897 
L 275.323717 130.369734 
L 274.039381 130.983257 
L 272.531448 132.045323 
L 271.07545 133.229761 
L 267.889249 135.840531 
L 265.694222 137.355658 
L 263.640981 138.494586 
L 261.23052 139.479792 
L 259.392714 140.013111 
L 257.26858 140.402778 
L 255.144446 140.585215 
L 252.289015 140.541859 
L 250.896178 140.422294 
L 247.709978 139.911623 
L 244.523777 139.128786 
L 240.275509 137.778783 
L 232.825588 135.231524 
L 229.65484 134.374356 
L 226.468639 133.750893 
L 223.282439 133.368258 
L 220.096238 133.202153 
L 216.910037 133.222906 
L 212.66177 133.494692 
L 208.413502 134.005621 
L 204.165234 134.738444 
L 198.8549 135.892545 
L 183.985963 139.301526 
L 177.129016 140.541859 
L 154.248089 144.41846 
L 148.068294 145.852193 
L 142.565353 147.340626 
L 129.82055 150.901375 
L 125.572283 151.788826 
L 121.324015 152.409882 
L 117.075747 152.775169 
L 111.765413 152.968744 
L 101.144743 153.24213 
L 97.958543 153.550961 
L 94.772342 154.113533 
L 92.648208 154.687577 
L 90.524074 155.464677 
L 88.399941 156.484505 
L 86.275807 157.769843 
L 83.677688 159.659063 
L 79.903405 162.542008 
L 78.841338 163.198353 
L 77.779271 163.700598 
L 76.717204 163.998899 
L 75.655138 164.043151 
L 74.593071 163.781701 
L 73.207369 162.845264 
L 72.233899 161.783197 
L 71.40687 160.582457 
L 70.344803 158.451858 
L 69.229614 155.410796 
L 68.076565 151.162528 
L 66.99666 145.852193 
L 66.010442 139.479792 
L 64.91005 129.92119 
L 63.907384 118.238454 
L 62.972702 103.369517 
L 62.439914 91.686781 
L 61.348086 61.948907 
L 61.457466 57.700639 
L 61.557466 55.576506 
L 61.557466 55.576506 
" style="fill:none;stroke:#0000e8;stroke-width:1.5;"/>
   </g>
   <g id="LineCollection_3">
    <path clip-path="url(#pcaccfd68ac)" d="M 292.566576 293.479494 
L 292.704915 286.045026 
L 292.355534 277.548491 
L 291.436946 255.245086 
L 288.534816 169.217665 
L 287.6489 152.224595 
L 286.665203 137.355658 
L 285.562377 124.610855 
L 284.602686 116.11432 
L 283.495258 108.679851 
L 282.457562 103.369517 
L 281.393895 99.121249 
L 280.044054 94.872981 
L 279.265057 92.748848 
L 277.447851 88.455369 
L 275.712732 85.314379 
L 275.000105 84.252312 
L 274.173642 83.190245 
L 273.127682 82.128178 
L 271.675076 81.066112 
L 271.07545 80.730662 
L 269.143424 80.004045 
L 268.951316 79.954041 
L 267.889249 79.802156 
L 266.827182 79.766749 
L 264.875431 80.004045 
L 264.703048 80.045332 
L 263.640981 80.43667 
L 262.401989 81.066112 
L 261.263633 82.128178 
L 260.718504 83.190245 
L 260.592408 84.252312 
L 260.796448 85.314379 
L 261.516848 86.87967 
L 262.578914 88.661099 
L 263.745258 90.624714 
L 264.749611 92.748848 
L 265.417913 94.872981 
L 265.747972 96.997115 
L 265.765115 99.334867 
L 265.547494 101.245383 
L 265.053518 103.369517 
L 264.297324 105.493651 
L 263.248821 107.617784 
L 261.824329 109.741918 
L 260.454781 111.273193 
L 259.392714 112.209445 
L 258.330647 112.970376 
L 256.206513 114.055236 
L 254.082379 114.690387 
L 251.958245 114.996865 
L 249.834112 115.074297 
L 246.647911 114.953016 
L 238.151375 114.506809 
L 232.841041 114.51057 
L 213.723836 114.841913 
L 208.413502 114.617424 
L 203.103167 114.196448 
L 195.668699 113.345646 
L 180.799762 111.470105 
L 176.551494 111.220683 
L 173.365294 111.239133 
L 170.179093 111.490627 
L 166.992892 112.010577 
L 163.384214 112.928119 
L 159.558424 114.176601 
L 149.999822 117.413271 
L 144.689487 118.902443 
L 138.542497 120.362587 
L 130.882617 121.936244 
L 108.579212 126.17054 
L 88.399941 130.076838 
L 80.965472 131.635427 
L 78.841338 131.725562 
L 77.779271 131.576953 
L 76.286264 130.983257 
L 75.655138 130.610954 
L 74.593071 129.636984 
L 73.312064 127.797056 
L 72.263315 125.672922 
L 71.116464 122.486721 
L 69.978444 118.238454 
L 69.082104 113.990186 
L 68.036321 107.617784 
L 66.989528 99.121249 
L 66.036803 88.50058 
L 64.681909 67.259242 
L 64.552768 63.010974 
L 64.666645 59.824773 
L 65.033259 55.576506 
L 65.033259 55.576506 
" style="fill:none;stroke:#0038ff;stroke-width:1.5;"/>
   </g>
   <g id="LineCollection_4">
    <path clip-path="url(#pcaccfd68ac)" d="M 294.070842 293.479494 
L 294.052419 283.920892 
L 292.314755 222.321011 
L 291.027753 174.528 
L 290.01665 146.91426 
L 288.983398 125.672922 
L 287.878037 108.679851 
L 286.842846 96.997115 
L 285.944387 90.055689 
L 285.023448 85.314379 
L 284.472679 83.190245 
L 283.422423 80.004045 
L 282.495739 77.879911 
L 281.280474 75.755777 
L 280.535339 74.69371 
L 279.571985 73.559205 
L 278.509918 72.538095 
L 277.143578 71.507509 
L 275.264671 70.445442 
L 273.199584 69.67054 
L 271.07545 69.16487 
L 268.951316 68.900538 
L 266.827182 68.816327 
L 263.640981 68.966058 
L 260.399197 69.383375 
L 257.26858 70.040881 
L 254.082379 70.909534 
L 250.896178 71.989603 
L 247.709978 73.288392 
L 244.759792 74.69371 
L 241.014668 76.817844 
L 237.84986 78.941978 
L 234.965175 81.20494 
L 232.754546 83.190245 
L 230.713721 85.314379 
L 228.992848 87.438513 
L 227.530706 89.703649 
L 226.552134 91.686781 
L 225.50228 94.872981 
L 224.830674 96.997115 
L 224.319077 98.059182 
L 223.282439 99.379392 
L 222.220372 100.277342 
L 220.096238 101.418989 
L 217.453417 102.30745 
L 214.785903 102.840557 
L 211.599703 103.208476 
L 208.413502 103.324977 
L 205.227301 103.228296 
L 200.979033 102.824073 
L 196.730766 102.151181 
L 192.482498 101.236308 
L 187.172164 99.8028 
L 181.617784 98.059182 
L 162.744625 91.824555 
L 157.43429 90.447713 
L 153.160851 89.562647 
L 148.937755 88.89678 
L 144.689487 88.443297 
L 140.441219 88.193365 
L 135.130885 88.131012 
L 128.758483 88.308455 
L 118.137814 88.662971 
L 112.82748 88.585456 
L 108.579212 88.280994 
L 105.393011 87.86635 
L 102.20681 87.255723 
L 98.957632 86.376446 
L 95.834409 85.203001 
L 93.710275 84.165282 
L 91.586141 82.847782 
L 90.524074 82.062914 
L 89.374583 81.066112 
L 88.347567 80.004045 
L 87.337874 78.712592 
L 86.21801 76.817844 
L 85.448333 74.69371 
L 85.132662 72.569576 
L 85.255303 70.445442 
L 85.808613 68.321309 
L 86.761768 66.197175 
L 88.399941 63.536083 
L 91.530434 58.762706 
L 92.018674 57.700639 
L 92.335184 56.638572 
L 92.426468 55.576506 
L 92.426468 55.576506 
" style="fill:none;stroke:#0094ff;stroke-width:1.5;"/>
   </g>
   <g id="LineCollection_5">
    <path clip-path="url(#pcaccfd68ac)" d="M 295.411233 293.479494 
L 295.29031 280.734691 
L 293.78076 212.762409 
L 292.789998 169.217665 
L 291.902012 139.479792 
L 290.982895 116.11432 
L 290.084237 99.121249 
L 289.38203 90.624714 
L 288.861299 86.376446 
L 288.06852 81.800668 
L 287.361934 78.941978 
L 286.701901 76.817844 
L 285.880633 74.69371 
L 284.817878 72.569576 
L 283.39526 70.445442 
L 282.493788 69.383375 
L 281.39075 68.321309 
L 279.571985 66.989127 
L 277.447851 65.909663 
L 275.172702 65.135108 
L 273.199584 64.703563 
L 270.013383 64.306212 
L 266.827182 64.184765 
L 263.640981 64.266516 
L 259.392714 64.613866 
L 255.144446 65.193937 
L 250.896178 65.981859 
L 246.647911 66.977656 
L 241.337576 68.515374 
L 237.089309 69.966379 
L 231.778974 72.029981 
L 214.785903 79.052552 
L 210.537636 80.388506 
L 207.351435 81.161688 
L 204.165234 81.679759 
L 200.979033 81.927679 
L 198.8549 81.913266 
L 196.730766 81.733882 
L 194.606632 81.375155 
L 192.482498 80.792884 
L 190.358364 79.931123 
L 188.688629 78.941978 
L 187.440268 77.879911 
L 186.612914 76.817844 
L 186.110097 75.588706 
L 185.983238 74.69371 
L 186.135205 73.631643 
L 186.582546 72.569576 
L 187.305403 71.507509 
L 188.2849 70.445442 
L 190.358364 68.711056 
L 192.482498 67.171695 
L 197.792833 63.426446 
L 199.916967 61.661476 
L 200.979033 60.61812 
L 202.0411 59.337445 
L 202.447963 58.762706 
L 203.103167 57.32888 
L 203.298295 56.638572 
L 203.335475 55.576506 
L 203.335475 55.576506 
" style="fill:none;stroke:#0cf4eb;stroke-width:1.5;"/>
   </g>
   <g id="LineCollection_6">
    <path clip-path="url(#pcaccfd68ac)" d="M 299.307765 293.479494 
L 299.205265 287.107093 
L 298.868227 280.734691 
L 298.158898 272.238156 
L 296.49052 253.120952 
L 295.438536 215.94861 
L 294.347069 159.659063 
L 293.45353 125.672922 
L 292.694497 104.431584 
L 292.15618 93.810914 
L 291.545302 86.376446 
L 291.014306 82.128178 
L 290.192654 77.58747 
L 289.447853 74.69371 
L 288.749343 72.569576 
L 287.86769 70.445442 
L 286.705418 68.321309 
L 285.944387 67.216257 
L 284.88232 65.979931 
L 283.820253 64.993902 
L 282.564248 64.073041 
L 280.634052 63.009585 
L 278.509918 62.176036 
L 276.385784 61.558893 
L 273.058888 60.88684 
L 268.951316 60.278424 
L 261.516848 59.280228 
L 259.054192 58.762706 
L 257.226391 57.700639 
L 257.097844 56.638572 
L 257.810336 55.576506 
L 257.810336 55.576506 
" style="fill:none;stroke:#56ffa0;stroke-width:1.5;"/>
   </g>
   <g id="LineCollection_7">
    <path clip-path="url(#pcaccfd68ac)" d="M 305.878522 293.479494 
L 305.76518 286.045026 
L 305.401908 277.548491 
L 304.636039 265.865755 
L 301.273125 221.258944 
L 298.304361 183.024535 
L 296.465795 159.659063 
L 294.316263 93.810914 
L 293.768844 85.314379 
L 293.230282 80.004045 
L 292.600564 75.755777 
L 291.950093 72.569576 
L 291.061973 69.383375 
L 290.192654 67.117967 
L 289.130587 65.106333 
L 288.06852 63.633951 
L 287.006454 62.495872 
L 285.944387 61.577094 
L 283.820253 60.132999 
L 279.498353 57.700639 
L 278.245396 56.638572 
L 277.670361 55.576506 
L 277.670361 55.576506 
" style="fill:none;stroke:#a0ff56;stroke-width:1.5;"/>
   </g>
   <g id="LineCollection_8">
    <path clip-path="url(#pcaccfd68ac)" d="M 312.595755 293.479494 
L 312.467147 283.920892 
L 312.08456 273.300223 
L 311.294509 258.431286 
L 308.820698 218.072743 
L 306.12535 176.652134 
L 304.322759 152.224595 
L 302.781581 134.169457 
L 301.399495 120.362587 
L 300.007114 108.679851 
L 298.778759 100.183316 
L 297.627123 93.677532 
L 296.453856 87.438513 
L 295.793803 81.066112 
L 295.087978 74.69371 
L 294.440922 70.007669 
L 293.906569 67.259242 
L 293.363748 65.135108 
L 292.629491 63.010974 
L 291.650757 60.88684 
L 289.470332 56.638572 
L 289.10391 55.576506 
L 289.10391 55.576506 
" style="fill:none;stroke:#ebff0c;stroke-width:1.5;"/>
   </g>
   <g id="LineCollection_9">
    <path clip-path="url(#pcaccfd68ac)" d="M 319.424388 293.479494 
L 319.295636 281.796758 
L 318.926764 269.051955 
L 318.12544 249.934751 
L 315.871039 203.203807 
L 313.801734 163.907331 
L 312.365989 140.541859 
L 311.110978 123.548788 
L 309.958335 110.803985 
L 308.893022 101.245383 
L 307.717075 92.748848 
L 306.632271 86.376446 
L 305.317791 80.004045 
L 303.999524 74.644775 
L 302.501267 69.383375 
L 299.616248 59.824773 
L 299.202921 57.700639 
L 299.07661 55.576506 
L 299.07661 55.576506 
" style="fill:none;stroke:#ffab00;stroke-width:1.5;"/>
   </g>
   <g id="LineCollection_10">
    <path clip-path="url(#pcaccfd68ac)" d="M 326.331077 293.479494 
L 326.215643 279.672625 
L 325.841592 262.679554 
L 325.006507 236.127881 
L 322.8074 174.528 
L 321.474447 142.665993 
L 320.417881 122.486721 
L 319.420055 107.617784 
L 318.419198 95.935048 
L 317.293055 85.314379 
L 314.780953 63.010974 
L 314.527988 57.700639 
L 314.509112 55.576506 
L 314.509112 55.576506 
" style="fill:none;stroke:#ff5500;stroke-width:1.5;"/>
   </g>
   <g id="LineCollection_11">
    <path clip-path="url(#pcaccfd68ac)" d="M 333.290845 293.479494 
L 333.168607 274.36229 
L 332.763374 247.810617 
L 331.551153 189.396937 
L 330.395405 141.603926 
L 329.597287 117.176387 
L 328.788533 99.121249 
L 327.687997 80.004045 
L 326.96336 66.197175 
L 326.760146 57.700639 
L 326.75316 55.576506 
L 326.75316 55.576506 
" style="fill:none;stroke:#e80000;stroke-width:1.5;"/>
   </g>
   <g id="LineCollection_12">
    <path clip-path="url(#pcaccfd68ac)" d="M 340.281554 293.479494 
L 340.17946 256.307152 
L 339.946466 219.13481 
L 339.188364 125.672922 
L 338.694171 91.686781 
L 338.20586 56.638572 
L 338.20551 55.576506 
L 338.20551 55.576506 
" style="fill:none;stroke:#800000;stroke-width:1.5;"/>
   </g>
   <g id="patch_3">
    <path d="M 57.6 293.479494 
L 57.6 55.576506 
" style="fill:none;stroke:#000000;stroke-linecap:square;stroke-linejoin:miter;stroke-width:0.8;"/>
   </g>
   <g id="patch_4">
    <path d="M 343.296 293.479494 
L 343.296 55.576506 
" style="fill:none;stroke:#000000;stroke-linecap:square;stroke-linejoin:miter;stroke-width:0.8;"/>
   </g>
   <g id="patch_5">
    <path d="M 57.6 293.479494 
L 343.296 293.479494 
" style="fill:none;stroke:#000000;stroke-linecap:square;stroke-linejoin:miter;stroke-width:0.8;"/>
   </g>
   <g id="patch_6">
    <path d="M 57.6 55.576506 
L 343.296 55.576506 
" style="fill:none;stroke:#000000;stroke-linecap:square;stroke-linejoin:miter;stroke-width:0.8;"/>
   </g>
   <g id="text_10">
    <!-- Time:0.01646 s -->
    <defs>
     <path d="M -0.296875 72.90625 
L 61.375 72.90625 
L 61.375 64.59375 
L 35.5 64.59375 
L 35.5 0 
L 25.59375 0 
L 25.59375 64.59375 
L -0.296875 64.59375 
z
" id="DejaVuSans-54"/>
     <path d="M 9.421875 54.6875 
L 18.40625 54.6875 
L 18.40625 0 
L 9.421875 0 
z
M 9.421875 75.984375 
L 18.40625 75.984375 
L 18.40625 64.59375 
L 9.421875 64.59375 
z
" id="DejaVuSans-69"/>
     <path d="M 52 44.1875 
Q 55.375 50.25 60.0625 53.125 
Q 64.75 56 71.09375 56 
Q 79.640625 56 84.28125 50.015625 
Q 88.921875 44.046875 88.921875 33.015625 
L 88.921875 0 
L 79.890625 0 
L 79.890625 32.71875 
Q 79.890625 40.578125 77.09375 44.375 
Q 74.3125 48.1875 68.609375 48.1875 
Q 61.625 48.1875 57.5625 43.546875 
Q 53.515625 38.921875 53.515625 30.90625 
L 53.515625 0 
L 44.484375 0 
L 44.484375 32.71875 
Q 44.484375 40.625 41.703125 44.40625 
Q 38.921875 48.1875 33.109375 48.1875 
Q 26.21875 48.1875 22.15625 43.53125 
Q 18.109375 38.875 18.109375 30.90625 
L 18.109375 0 
L 9.078125 0 
L 9.078125 54.6875 
L 18.109375 54.6875 
L 18.109375 46.1875 
Q 21.1875 51.21875 25.484375 53.609375 
Q 29.78125 56 35.6875 56 
Q 41.65625 56 45.828125 52.96875 
Q 50 49.953125 52 44.1875 
z
" id="DejaVuSans-6d"/>
     <path d="M 56.203125 29.59375 
L 56.203125 25.203125 
L 14.890625 25.203125 
Q 15.484375 15.921875 20.484375 11.0625 
Q 25.484375 6.203125 34.421875 6.203125 
Q 39.59375 6.203125 44.453125 7.46875 
Q 49.3125 8.734375 54.109375 11.28125 
L 54.109375 2.78125 
Q 49.265625 0.734375 44.1875 -0.34375 
Q 39.109375 -1.421875 33.890625 -1.421875 
Q 20.796875 -1.421875 13.15625 6.1875 
Q 5.515625 13.8125 5.515625 26.8125 
Q 5.515625 40.234375 12.765625 48.109375 
Q 20.015625 56 32.328125 56 
Q 43.359375 56 49.78125 48.890625 
Q 56.203125 41.796875 56.203125 29.59375 
z
M 47.21875 32.234375 
Q 47.125 39.59375 43.09375 43.984375 
Q 39.0625 48.390625 32.421875 48.390625 
Q 24.90625 48.390625 20.390625 44.140625 
Q 15.875 39.890625 15.1875 32.171875 
z
" id="DejaVuSans-65"/>
     <path d="M 11.71875 12.40625 
L 22.015625 12.40625 
L 22.015625 0 
L 11.71875 0 
z
M 11.71875 51.703125 
L 22.015625 51.703125 
L 22.015625 39.3125 
L 11.71875 39.3125 
z
" id="DejaVuSans-3a"/>
     <path id="DejaVuSans-20"/>
     <path d="M 44.28125 53.078125 
L 44.28125 44.578125 
Q 40.484375 46.53125 36.375 47.5 
Q 32.28125 48.484375 27.875 48.484375 
Q 21.1875 48.484375 17.84375 46.4375 
Q 14.5 44.390625 14.5 40.28125 
Q 14.5 37.15625 16.890625 35.375 
Q 19.28125 33.59375 26.515625 31.984375 
L 29.59375 31.296875 
Q 39.15625 29.25 43.1875 25.515625 
Q 47.21875 21.78125 47.21875 15.09375 
Q 47.21875 7.46875 41.1875 3.015625 
Q 35.15625 -1.421875 24.609375 -1.421875 
Q 20.21875 -1.421875 15.453125 -0.5625 
Q 10.6875 0.296875 5.421875 2 
L 5.421875 11.28125 
Q 10.40625 8.6875 15.234375 7.390625 
Q 20.0625 6.109375 24.8125 6.109375 
Q 31.15625 6.109375 34.5625 8.28125 
Q 37.984375 10.453125 37.984375 14.40625 
Q 37.984375 18.0625 35.515625 20.015625 
Q 33.0625 21.96875 24.703125 23.78125 
L 21.578125 24.515625 
Q 13.234375 26.265625 9.515625 29.90625 
Q 5.8125 33.546875 5.8125 39.890625 
Q 5.8125 47.609375 11.28125 51.796875 
Q 16.75 56 26.8125 56 
Q 31.78125 56 36.171875 55.265625 
Q 40.578125 54.546875 44.28125 53.078125 
z
" id="DejaVuSans-73"/>
    </defs>
    <g transform="translate(153.717375 49.576506)scale(0.12 -0.12)">
     <use xlink:href="#DejaVuSans-54"/>
     <use x="61.037109" xlink:href="#DejaVuSans-69"/>
     <use x="88.820312" xlink:href="#DejaVuSans-6d"/>
     <use x="186.232422" xlink:href="#DejaVuSans-65"/>
     <use x="247.755859" xlink:href="#DejaVuSans-3a"/>
     <use x="281.447266" xlink:href="#DejaVuSans-30"/>
     <use x="345.070312" xlink:href="#DejaVuSans-2e"/>
     <use x="376.857422" xlink:href="#DejaVuSans-30"/>
     <use x="440.480469" xlink:href="#DejaVuSans-31"/>
     <use x="504.103516" xlink:href="#DejaVuSans-36"/>
     <use x="567.726562" xlink:href="#DejaVuSans-34"/>
     <use x="631.349609" xlink:href="#DejaVuSans-36"/>
     <use x="694.972656" xlink:href="#DejaVuSans-20"/>
     <use x="726.759766" xlink:href="#DejaVuSans-73"/>
    </g>
   </g>
  </g>
  <g id="axes_2">
   <g id="patch_7">
    <path clip-path="url(#p33bbc62358)" d="M 361.152 307.584 
L 361.152 283.392 
L 361.152 65.664 
L 361.152 41.472 
L 374.4576 41.472 
L 374.4576 65.664 
L 374.4576 283.392 
L 374.4576 307.584 
z
" style="fill:#ffffff;stroke:#ffffff;stroke-linejoin:miter;stroke-width:0.01;"/>
   </g>
   <g id="matplotlib.axis_3"/>
   <g id="matplotlib.axis_4">
    <g id="ytick_5">
     <g id="line2d_10">
      <defs>
       <path d="M 0 0 
L 3.5 0 
" id="m5f0b779942" style="stroke:#000000;stroke-width:0.8;"/>
      </defs>
      <g>
       <use style="stroke:#000000;stroke-width:0.8;" x="374.4576" xlink:href="#m5f0b779942" y="307.584"/>
      </g>
     </g>
     <g id="text_11">
      <!-- 0.08 -->
      <g transform="translate(381.4576 311.383219)scale(0.1 -0.1)">
       <use xlink:href="#DejaVuSans-30"/>
       <use x="63.623047" xlink:href="#DejaVuSans-2e"/>
       <use x="95.410156" xlink:href="#DejaVuSans-30"/>
       <use x="159.033203" xlink:href="#DejaVuSans-38"/>
      </g>
     </g>
    </g>
    <g id="ytick_6">
     <g id="line2d_11">
      <g>
       <use style="stroke:#000000;stroke-width:0.8;" x="374.4576" xlink:href="#m5f0b779942" y="259.2"/>
      </g>
     </g>
     <g id="text_12">
      <!-- 0.24 -->
      <g transform="translate(381.4576 262.999219)scale(0.1 -0.1)">
       <use xlink:href="#DejaVuSans-30"/>
       <use x="63.623047" xlink:href="#DejaVuSans-2e"/>
       <use x="95.410156" xlink:href="#DejaVuSans-32"/>
       <use x="159.033203" xlink:href="#DejaVuSans-34"/>
      </g>
     </g>
    </g>
    <g id="ytick_7">
     <g id="line2d_12">
      <g>
       <use style="stroke:#000000;stroke-width:0.8;" x="374.4576" xlink:href="#m5f0b779942" y="210.816"/>
      </g>
     </g>
     <g id="text_13">
      <!-- 0.40 -->
      <g transform="translate(381.4576 214.615219)scale(0.1 -0.1)">
       <use xlink:href="#DejaVuSans-30"/>
       <use x="63.623047" xlink:href="#DejaVuSans-2e"/>
       <use x="95.410156" xlink:href="#DejaVuSans-34"/>
       <use x="159.033203" xlink:href="#DejaVuSans-30"/>
      </g>
     </g>
    </g>
    <g id="ytick_8">
     <g id="line2d_13">
      <g>
       <use style="stroke:#000000;stroke-width:0.8;" x="374.4576" xlink:href="#m5f0b779942" y="162.432"/>
      </g>
     </g>
     <g id="text_14">
      <!-- 0.56 -->
      <defs>
       <path d="M 10.796875 72.90625 
L 49.515625 72.90625 
L 49.515625 64.59375 
L 19.828125 64.59375 
L 19.828125 46.734375 
Q 21.96875 47.46875 24.109375 47.828125 
Q 26.265625 48.1875 28.421875 48.1875 
Q 40.625 48.1875 47.75 41.5 
Q 54.890625 34.8125 54.890625 23.390625 
Q 54.890625 11.625 47.5625 5.09375 
Q 40.234375 -1.421875 26.90625 -1.421875 
Q 22.3125 -1.421875 17.546875 -0.640625 
Q 12.796875 0.140625 7.71875 1.703125 
L 7.71875 11.625 
Q 12.109375 9.234375 16.796875 8.0625 
Q 21.484375 6.890625 26.703125 6.890625 
Q 35.15625 6.890625 40.078125 11.328125 
Q 45.015625 15.765625 45.015625 23.390625 
Q 45.015625 31 40.078125 35.4375 
Q 35.15625 39.890625 26.703125 39.890625 
Q 22.75 39.890625 18.8125 39.015625 
Q 14.890625 38.140625 10.796875 36.28125 
z
" id="DejaVuSans-35"/>
      </defs>
      <g transform="translate(381.4576 166.231219)scale(0.1 -0.1)">
       <use xlink:href="#DejaVuSans-30"/>
       <use x="63.623047" xlink:href="#DejaVuSans-2e"/>
       <use x="95.410156" xlink:href="#DejaVuSans-35"/>
       <use x="159.033203" xlink:href="#DejaVuSans-36"/>
      </g>
     </g>
    </g>
    <g id="ytick_9">
     <g id="line2d_14">
      <g>
       <use style="stroke:#000000;stroke-width:0.8;" x="374.4576" xlink:href="#m5f0b779942" y="114.048"/>
      </g>
     </g>
     <g id="text_15">
      <!-- 0.72 -->
      <defs>
       <path d="M 8.203125 72.90625 
L 55.078125 72.90625 
L 55.078125 68.703125 
L 28.609375 0 
L 18.3125 0 
L 43.21875 64.59375 
L 8.203125 64.59375 
z
" id="DejaVuSans-37"/>
      </defs>
      <g transform="translate(381.4576 117.847219)scale(0.1 -0.1)">
       <use xlink:href="#DejaVuSans-30"/>
       <use x="63.623047" xlink:href="#DejaVuSans-2e"/>
       <use x="95.410156" xlink:href="#DejaVuSans-37"/>
       <use x="159.033203" xlink:href="#DejaVuSans-32"/>
      </g>
     </g>
    </g>
    <g id="ytick_10">
     <g id="line2d_15">
      <g>
       <use style="stroke:#000000;stroke-width:0.8;" x="374.4576" xlink:href="#m5f0b779942" y="65.664"/>
      </g>
     </g>
     <g id="text_16">
      <!-- 0.88 -->
      <g transform="translate(381.4576 69.463219)scale(0.1 -0.1)">
       <use xlink:href="#DejaVuSans-30"/>
       <use x="63.623047" xlink:href="#DejaVuSans-2e"/>
       <use x="95.410156" xlink:href="#DejaVuSans-38"/>
       <use x="159.033203" xlink:href="#DejaVuSans-38"/>
      </g>
     </g>
    </g>
   </g>
   <g id="LineCollection_13">
    <path clip-path="url(#p33bbc62358)" d="M 361.152 307.584 
L 374.4576 307.584 
" style="fill:none;stroke:#000080;stroke-width:1.5;"/>
    <path clip-path="url(#p33bbc62358)" d="M 361.152 283.392 
L 374.4576 283.392 
" style="fill:none;stroke:#0000e8;stroke-width:1.5;"/>
    <path clip-path="url(#p33bbc62358)" d="M 361.152 259.2 
L 374.4576 259.2 
" style="fill:none;stroke:#0038ff;stroke-width:1.5;"/>
    <path clip-path="url(#p33bbc62358)" d="M 361.152 235.008 
L 374.4576 235.008 
" style="fill:none;stroke:#0094ff;stroke-width:1.5;"/>
    <path clip-path="url(#p33bbc62358)" d="M 361.152 210.816 
L 374.4576 210.816 
" style="fill:none;stroke:#0cf4eb;stroke-width:1.5;"/>
    <path clip-path="url(#p33bbc62358)" d="M 361.152 186.624 
L 374.4576 186.624 
" style="fill:none;stroke:#56ffa0;stroke-width:1.5;"/>
    <path clip-path="url(#p33bbc62358)" d="M 361.152 162.432 
L 374.4576 162.432 
" style="fill:none;stroke:#a0ff56;stroke-width:1.5;"/>
    <path clip-path="url(#p33bbc62358)" d="M 361.152 138.24 
L 374.4576 138.24 
" style="fill:none;stroke:#ebff0c;stroke-width:1.5;"/>
    <path clip-path="url(#p33bbc62358)" d="M 361.152 114.048 
L 374.4576 114.048 
" style="fill:none;stroke:#ffab00;stroke-width:1.5;"/>
    <path clip-path="url(#p33bbc62358)" d="M 361.152 89.856 
L 374.4576 89.856 
" style="fill:none;stroke:#ff5500;stroke-width:1.5;"/>
    <path clip-path="url(#p33bbc62358)" d="M 361.152 65.664 
L 374.4576 65.664 
" style="fill:none;stroke:#e80000;stroke-width:1.5;"/>
    <path clip-path="url(#p33bbc62358)" d="M 361.152 41.472 
L 374.4576 41.472 
" style="fill:none;stroke:#800000;stroke-width:1.5;"/>
   </g>
   <g id="patch_8">
    <path d="M 361.152 307.584 
L 361.152 283.392 
L 361.152 65.664 
L 361.152 41.472 
L 374.4576 41.472 
L 374.4576 65.664 
L 374.4576 283.392 
L 374.4576 307.584 
z
" style="fill:none;stroke:#000000;stroke-linejoin:miter;stroke-width:0.8;"/>
   </g>
  </g>
 </g>
 <defs>
  <clipPath id="pcaccfd68ac">
   <rect height="237.902989" width="285.696" x="57.6" y="55.576506"/>
  </clipPath>
  <clipPath id="p33bbc62358">
   <rect height="266.112" width="13.3056" x="361.152" y="41.472"/>
  </clipPath>
 </defs>
</svg>
